<?xml version="1.0" encoding="UTF-8" ?>
<!-- Sure Cuts A Lot -->
<!DOCTYPE svg PUBLIC "-//W3C//DTD SVG 1.1//EN" "http://www.w3.org/Graphics/SVG/1.1/DTD/svg11.dtd">
<svg version="1.1" xmlns="http://www.w3.org/2000/svg" xmlns:xlink="http://www.w3.org/1999/xlink" xmlns:scal="http://www.craftedge.com/namespaces/surecutsalot" scal:dpi="72" x="0px" y="0px" width="864px" height="864px" viewBox="0 0 864 864" xml:space="preserve">
<path style="fill-rule:evenodd;fill:#000000;stroke:#000000;" d="M 406.724 43.8336 C 408.896 43.8636 411.098 43.7736 413.226 44.2791 C 414.404 44.5961 415.565 45.2471 416.186 46.3351 C 417.034 47.7315 417.42 49.3377 417.711 50.9311 C 418.418 54.7776 418.739 58.6798 419.244 62.5519 C 419.604 65.3104 419.964 68.0732 420.581 70.7845 C 420.628 70.9345 420.645 71.1229 420.731 71.2386 C 421.502 71.4956 422.329 71.2943 423.048 70.9687 C 425.473 69.885 427.807 68.6172 430.193 67.4521 C 433.692 65.8758 437.427 64.8949 441.18 64.1111 C 444.139 63.5071 447.146 63.1387 450.166 62.9717 C 452.633 62.8132 455.118 62.7147 457.581 62.9631 C 459.906 63.203 462.194 63.7941 464.348 64.7022 C 466.965 65.7816 469.488 67.0794 471.968 68.4501 C 474.864 70.0906 477.665 71.9196 480.197 74.0913 C 481.096 74.8794 481.97 75.7361 482.535 76.8069 C 483.174 77.9806 483.782 79.1671 484.429 80.3321 C 484.549 80.5078 484.626 80.7434 484.789 80.8804 C 484.951 80.9532 485.11 81.0475 485.281 80.9532 C 486.39 80.6705 487.32 79.9681 488.211 79.2827 C 489.577 78.2933 491.286 77.9377 492.944 77.8478 C 494.345 77.7707 495.745 77.9592 497.12 78.2205 C 498.594 78.4303 500.119 78.5203 501.584 78.199 C 502.166 78.0662 502.736 77.8135 503.16 77.3766 C 504.201 76.4214 505.623 76.0702 506.981 75.8475 C 508.792 75.5519 510.669 75.4919 512.476 75.8518 C 513.534 76.0959 514.618 76.6099 515.2 77.5737 C 516.126 78.9872 516.447 80.6791 516.708 82.3239 C 516.982 84.3285 516.811 86.4488 515.894 88.2821 C 514.729 90.7407 512.785 92.7153 510.741 94.4672 C 508.176 96.6946 505.323 98.5536 502.693 100.7 C 501.755 101.471 500.795 102.306 500.277 103.432 C 499.982 104.113 499.934 104.897 500.187 105.6 C 500.616 107.013 501.442 108.26 502.23 109.493 C 503.378 111.258 504.578 113.001 505.469 114.916 C 507.966 120.03 509.174 125.702 509.448 131.368 C 509.705 136.513 509.221 141.678 508.176 146.72 C 507.597 149.517 506.822 152.271 505.927 154.983 C 504.796 158.628 503.862 162.329 502.959 166.034 C 501.759 171.002 500.646 175.988 499.609 180.995 C 498.924 184.315 498.277 187.643 497.66 190.976 C 496.949 194.822 496.221 198.669 495.394 202.494 C 494.465 206.833 493.419 211.159 491.997 215.365 C 490.764 218.98 489.192 222.484 487.196 225.744 C 486.245 227.324 485.191 228.841 484.202 230.391 C 483.829 231.021 483.461 231.745 483.628 232.494 C 483.731 233.128 484.197 233.625 484.711 233.968 C 485.581 234.593 486.592 235.06 487.26 235.925 C 488.459 237.33 488.935 239.236 488.841 241.052 C 488.768 243.657 487.86 246.167 486.647 248.45 C 485.624 250.356 484.356 252.121 483.028 253.825 C 482.073 255.093 481.071 256.365 480.497 257.865 C 480.171 258.738 480.111 259.724 480.437 260.61 C 481.036 262.469 482.111 264.118 483.058 265.815 C 484.035 267.498 485.046 269.198 486.416 270.599 C 487.26 271.451 488.352 272.073 489.552 272.231 C 490.901 272.462 492.267 272.321 493.625 272.27 C 497.107 272.201 500.654 272.715 503.845 274.154 C 505.16 274.754 506.471 275.542 507.289 276.767 C 507.662 277.354 507.854 278.104 507.597 278.776 C 507.186 280.147 506.385 281.35 505.593 282.524 C 504.321 284.366 502.843 286.053 501.314 287.681 C 500.286 288.821 499.198 289.981 498.675 291.446 C 498.114 293.07 498.221 294.834 498.59 296.488 C 499.241 299.675 500.286 302.763 501.254 305.864 C 502.907 311.068 504.646 316.255 506.038 321.541 C 506.788 324.445 507.482 327.405 507.469 330.425 C 507.456 332.421 507.049 334.413 506.27 336.25 C 505.7 337.651 505.045 339.022 504.226 340.294 C 502.277 343.232 499.519 345.567 496.456 347.284 C 492.207 349.691 487.44 351.152 482.587 351.645 C 479.006 351.987 475.331 351.816 471.87 350.775 C 470.401 350.338 469.004 349.691 467.651 348.976 C 466.713 348.509 465.775 347.961 464.721 347.811 C 464.387 347.794 463.984 347.811 463.779 348.111 C 463.26 348.685 463.26 349.503 463.239 350.231 C 463.188 352.548 463.47 354.853 463.663 357.157 C 464.006 360.854 464.4 364.563 464.216 368.281 C 464.091 370.431 463.791 372.646 462.742 374.565 C 461.718 376.428 459.932 377.773 457.992 378.574 C 455.4 379.701 452.625 380.3 449.866 380.857 C 445.369 381.735 440.747 382.194 436.168 381.77 C 432.446 381.44 428.779 380.596 425.233 379.418 C 422.808 378.634 420.388 377.752 417.848 377.413 C 416.636 377.259 415.325 377.255 414.212 377.829 C 413.475 378.223 412.849 378.827 412.036 379.08 C 409.645 380.013 407.088 380.373 404.557 380.707 C 400.205 381.251 395.81 381.444 391.424 381.393 C 388.541 381.345 385.65 381.191 382.797 380.729 C 380.754 380.373 378.737 379.825 376.805 379.058 C 375.43 378.497 374.106 377.696 373.207 376.484 C 372.26 375.293 371.785 373.807 371.541 372.325 C 371.044 369.596 371.057 366.812 371.082 364.049 C 371.125 360.288 371.382 356.528 371.416 352.767 C 371.412 351.825 371.399 350.861 371.121 349.953 C 371.018 349.649 370.86 349.319 370.573 349.156 C 369.785 348.886 368.945 349.096 368.191 349.366 C 366.859 349.837 365.51 350.261 364.118 350.497 C 360.048 351.255 355.868 351.216 351.764 350.788 C 348.556 350.432 345.361 349.786 342.328 348.668 C 340.469 347.982 338.734 347.006 337.107 345.888 C 334.67 344.26 332.318 342.337 330.819 339.771 C 329.765 338.015 329.127 336.027 328.891 333.997 C 328.484 330.866 328.75 327.692 329.174 324.578 C 329.727 320.762 330.532 316.962 330.673 313.099 C 330.712 311.445 330.617 309.71 329.804 308.228 C 329.298 307.397 328.583 306.704 328.163 305.817 C 326.754 303.17 326.043 300.219 325.602 297.272 C 325.298 295.117 325.16 292.903 325.537 290.748 C 325.704 289.853 326.056 288.975 326.69 288.311 C 327.208 287.711 327.94 287.253 328.754 287.24 C 330.142 287.141 331.491 287.595 332.802 287.998 C 334.134 288.435 335.449 288.983 336.85 289.163 C 337.882 289.257 338.944 288.876 339.655 288.114 C 340.94 286.889 341.827 285.334 342.756 283.835 C 344.427 281.046 345.952 278.172 347.528 275.328 C 349.717 271.297 351.859 267.237 353.752 263.06 C 354.292 261.814 354.866 260.572 355.238 259.261 C 355.29 259.055 355.311 258.85 355.221 258.653 C 355.204 258.46 354.956 258.49 354.818 258.422 C 353.538 258.1 352.214 258.362 350.933 258.546 C 349.177 258.82 347.464 259.295 345.733 259.698 C 343.566 260.165 341.3 260.499 339.103 260.023 C 337.634 259.689 336.212 258.923 335.329 257.672 C 334.104 256.027 333.492 254.014 333.213 252.005 C 332.738 248.741 332.845 245.426 333.059 242.145 C 333.269 239.523 333.564 236.872 334.481 234.388 C 335.004 233.06 335.685 231.719 336.828 230.82 C 337.951 229.946 339.356 229.44 340.782 229.457 C 342.962 229.415 345.082 230.04 347.121 230.747 C 348.098 231.094 349.044 231.518 350.025 231.835 C 350.235 231.903 350.484 231.916 350.676 231.848 C 350.779 231.655 350.963 231.483 350.886 231.248 C 350.788 230.211 350.201 229.316 349.747 228.404 C 348.689 226.421 347.455 224.544 346.359 222.591 C 344.907 219.846 343.789 216.937 342.761 214.012 C 340.996 208.902 339.578 203.68 338.293 198.433 C 336.507 191.087 335.012 183.677 333.714 176.232 C 332.511 169.302 331.478 162.341 330.639 155.355 C 329.774 148.074 329.088 140.762 328.801 133.429 C 328.63 128.953 328.591 124.464 328.951 119.992 C 329.178 117.383 329.547 114.758 330.429 112.277 C 331.401 109.446 332.665 106.722 334.023 104.058 C 335.543 101.085 337.201 98.1809 338.991 95.3668 C 340.658 92.7625 342.414 90.201 344.427 87.8494 C 345.241 86.9328 346.085 86.0162 347.117 85.3437 C 347.554 85.0824 348.072 84.8768 348.586 85.0096 C 350.008 85.288 351.289 86.2689 351.854 87.6139 C 352.27 88.4748 352.574 89.4514 353.319 90.0939 C 353.469 90.2267 353.641 90.291 353.842 90.2867 C 354.005 90.2952 354.159 90.171 354.296 90.0896 C 355.015 89.3615 355.332 88.3635 355.649 87.4168 C 356.215 85.6221 356.579 83.7717 356.947 81.9256 C 357.671 78.0791 358.164 74.1898 358.99 70.3562 C 359.697 66.9766 360.52 63.6142 361.65 60.3503 C 361.946 59.5493 362.246 58.7354 362.67 57.9944 C 363.492 56.7008 364.717 55.7328 365.942 54.8461 C 369.519 52.3147 373.52 50.4386 377.64 48.9865 C 380.313 48.0099 382.982 47.0033 385.731 46.258 C 388.023 45.8339 390.332 45.4784 392.632 45.0844 C 393.797 44.8916 394.966 44.6989 396.123 44.4504 C 398.132 44.0821 400.175 43.9664 402.214 43.8807 C 403.717 43.8336 405.221 43.8208 406.724 43.8336 L 406.724 43.8336 L 406.724 43.8336 zM 407.787 352.227 C 406.875 352.608 406.292 353.452 405.765 354.245 C 405.178 354.887 404.274 355.024 403.46 355.178 C 401.289 355.542 399.074 355.555 396.877 355.542 C 393.266 355.491 389.655 355.178 386.087 354.6 C 384.806 354.386 383.543 354.103 382.275 353.825 C 381.804 353.752 381.257 353.773 380.9 354.125 C 380.137 354.986 379.975 356.176 379.872 357.282 C 379.679 359.252 379.696 361.239 379.773 363.218 C 379.889 365.21 380.086 367.249 380.896 369.095 C 381.105 369.528 381.362 369.982 381.782 370.23 C 382.127 370.401 382.549 370.53 382.914 370.367 C 383.624 370.05 384.168 369.369 384.262 368.585 C 384.438 367.463 384.348 366.302 384.695 365.206 C 384.922 364.366 385.239 363.505 385.851 362.876 C 386.104 362.644 386.408 362.43 386.768 362.443 C 387.029 362.469 387.239 362.67 387.412 362.854 C 387.888 363.471 388.014 364.276 388.087 365.034 C 388.173 366.152 388.122 367.287 388.366 368.393 C 388.61 369.648 389.025 370.945 389.946 371.875 C 390.525 372.453 391.304 372.946 392.152 372.873 C 393.42 372.766 394.572 372.025 395.315 371.005 C 396.482 369.506 397.087 367.682 397.699 365.912 C 397.943 365.279 398.162 364.61 398.56 364.058 C 398.736 363.989 398.903 363.771 399.096 363.904 C 399.271 364.024 399.361 364.259 399.485 364.435 C 400.248 365.694 400.685 367.116 401.297 368.448 C 401.892 369.742 402.64 371.023 403.773 371.918 C 404.347 372.346 405.075 372.633 405.799 372.496 C 406.561 372.389 407.251 371.961 407.731 371.361 C 408.892 370.059 409.453 368.363 409.868 366.701 C 410.541 363.895 410.635 360.982 410.489 358.108 C 410.399 356.639 410.237 355.148 409.719 353.761 C 409.475 353.148 409.114 352.48 408.45 352.261 C 408.228 352.193 408.018 352.197 407.787 352.227 L 407.787 352.227 L 407.787 352.227 zM 453.203 352.823 C 452.244 353.071 451.357 353.538 450.397 353.791 C 447.626 354.673 444.773 355.285 441.921 355.842 C 440.092 356.241 438.228 356.845 436.802 358.1 C 436.035 358.794 435.427 359.684 435.2 360.704 C 434.857 362.04 434.964 363.462 435.376 364.773 C 435.783 366.178 436.357 367.549 437.153 368.782 C 438.383 370.564 440.331 371.742 442.396 372.312 C 444.773 373.006 447.356 373.121 449.742 372.419 C 450.993 372.029 452.244 371.472 453.143 370.496 C 454.111 369.275 454.475 367.72 454.805 366.229 C 455.477 362.961 455.486 359.599 455.328 356.275 C 455.242 355.324 455.22 354.326 454.796 353.452 C 454.629 353.169 454.402 352.887 454.064 352.823 C 453.786 352.733 453.486 352.767 453.203 352.823 L 453.203 352.823 L 453.203 352.823 zM 424.813 352.754 C 424.624 352.904 424.449 353.062 424.367 353.298 C 423.768 354.532 423.849 355.945 423.905 357.277 C 424.02 359.547 424.35 361.8 424.736 364.036 C 425.07 365.835 425.455 367.643 426.226 369.313 C 426.505 369.849 426.843 370.414 427.4 370.693 C 427.631 370.774 427.888 370.778 428.111 370.684 C 428.951 370.204 429.396 369.296 429.764 368.44 C 430.518 366.619 430.93 364.657 431.045 362.691 C 431.169 360.494 430.857 358.237 429.919 356.232 C 429.409 355.161 428.616 354.227 427.636 353.564 C 426.98 353.101 426.256 352.643 425.434 352.583 C 425.198 352.536 425.018 352.66 424.813 352.754 L 424.813 352.754 zM 446.255 330.086 C 445.206 330.361 444.216 330.823 443.176 331.132 C 441.18 331.796 439.141 332.331 437.115 332.909 C 435.17 333.629 433.482 335.094 432.596 336.978 C 432.176 337.921 432.065 338.987 431.503 339.87 C 431.306 340.144 431.037 340.371 430.698 340.435 C 430.06 340.474 429.546 340.024 429.049 339.685 C 428.257 339.12 427.533 338.396 426.573 338.135 C 426.089 338.011 425.511 338.062 425.164 338.456 C 424.65 338.914 424.23 339.548 424.243 340.259 C 424.222 341.283 424.8 342.191 425.357 343.005 C 426.303 344.337 427.481 345.494 428.779 346.483 C 431.311 348.359 434.343 349.477 437.436 349.987 C 440.46 350.505 443.604 350.54 446.581 349.734 C 448.149 349.289 449.725 348.642 450.911 347.485 C 452.124 346.213 452.899 344.603 453.546 342.988 C 454.428 340.731 455.101 338.349 455.169 335.908 C 455.178 335.197 455.105 334.417 454.642 333.847 C 454.518 333.697 454.355 333.59 454.154 333.607 C 453.837 333.586 453.507 333.68 453.293 333.92 C 452.616 334.533 452.231 335.385 451.871 336.203 C 450.937 338.46 450.851 340.983 449.789 343.194 C 449.536 343.678 449.262 344.196 448.787 344.487 C 448.628 344.624 448.423 344.59 448.239 344.547 C 448.05 344.436 447.896 344.294 447.815 344.089 C 447.232 342.988 447.206 341.703 447.202 340.486 C 447.198 338.011 447.72 335.573 447.892 333.111 C 447.93 332.314 447.977 331.496 447.767 330.72 C 447.677 330.515 447.566 330.326 447.365 330.211 C 447.056 329.967 446.615 329.975 446.255 330.086 L 446.255 330.086 zM 401.13 332.361 C 400.184 332.451 399.374 333.123 398.958 333.954 C 397.918 335.856 397.528 338.015 397.134 340.118 C 396.753 342.255 396.427 344.41 396.256 346.573 C 396.217 347.515 396.149 348.518 396.577 349.387 C 396.757 349.756 397.121 349.978 397.502 350.09 C 398.706 350.514 400.004 350.248 401.19 349.901 C 403.023 349.366 404.758 348.518 406.334 347.451 C 407.821 346.432 409.149 345.1 409.855 343.421 C 410.391 342.221 410.524 340.838 410.155 339.574 C 409.637 337.681 408.33 336.092 406.776 334.931 C 405.521 333.98 404.163 333.136 402.676 332.609 C 402.175 332.447 401.657 332.344 401.13 332.361 L 401.13 332.361 L 401.13 332.361 zM 384.027 326.06 C 382.909 326.154 381.765 326.741 381.26 327.782 C 380.544 329.148 380.553 330.768 380.861 332.245 C 381.148 333.736 381.667 335.218 382.57 336.456 C 383.131 337.18 383.92 337.779 384.202 338.687 C 384.271 339.017 384.211 339.36 384.044 339.651 C 383.667 340.324 382.947 340.679 382.339 341.103 C 381.829 341.454 381.268 341.844 381.067 342.457 C 380.866 343.056 381.17 343.678 381.5 344.17 C 382.3 345.408 383.341 346.47 384.357 347.528 C 385.277 348.436 386.258 349.353 387.479 349.837 C 388.212 350.111 389.115 350.098 389.728 349.563 C 390.837 348.711 391.45 347.404 391.964 346.14 C 392.928 343.72 393.536 341.185 394.183 338.666 C 394.538 337.205 394.885 335.723 394.932 334.211 C 394.928 333.196 394.624 332.16 393.951 331.38 C 393.163 330.386 392.139 329.615 391.146 328.84 C 389.424 327.564 387.5 326.437 385.35 326.116 C 384.913 326.052 384.468 326.026 384.027 326.06 L 384.027 326.06 L 384.027 326.06 zM 474.568 285.505 C 474.281 286.473 474.354 287.497 474.333 288.495 C 474.333 292.063 474.864 295.605 475.155 299.156 C 475.374 301.945 475.382 304.797 474.65 307.522 C 473.742 310.948 471.883 314.002 470.324 317.159 C 469.214 319.425 468.22 321.781 467.724 324.265 C 467.308 326.287 467.407 328.412 468.015 330.391 C 469.013 333.894 470.495 337.312 472.748 340.199 C 473.545 341.172 474.41 342.17 475.592 342.667 C 475.858 342.782 476.158 342.834 476.436 342.731 C 476.976 342.585 477.327 342.067 477.425 341.54 C 477.648 340.499 477.532 339.42 477.374 338.379 C 477.147 336.94 476.817 335.505 476.864 334.04 C 476.877 333.136 476.911 332.198 477.284 331.359 C 477.357 331.17 477.477 331.025 477.657 330.935 C 477.927 330.763 478.274 330.725 478.582 330.772 C 478.805 330.815 478.989 330.922 479.143 331.084 C 480.171 331.997 480.646 333.338 480.981 334.635 C 481.456 336.396 481.572 338.229 481.589 340.05 C 481.619 340.705 481.675 341.429 482.111 341.947 C 482.565 342.444 483.281 342.564 483.923 342.487 C 485.654 342.307 487.329 341.797 489.008 341.356 C 489.95 341.103 490.901 340.838 491.8 340.474 C 491.967 340.307 492.177 340.169 492.212 339.917 C 492.391 339.094 492.434 338.242 492.49 337.402 C 492.738 332.241 492.863 327.071 492.923 321.905 C 492.944 317.009 492.811 312.088 491.912 307.26 C 491.333 304.219 490.425 301.242 489.239 298.385 C 488.361 296.235 487.44 294.098 486.309 292.067 C 485.812 291.211 485.32 290.324 484.583 289.647 C 484.412 289.497 484.202 289.356 483.97 289.369 C 483.816 289.437 483.619 289.454 483.593 289.652 C 483.148 290.598 483.285 291.673 483.358 292.68 C 483.713 296.436 484.818 300.06 485.47 303.765 C 485.791 305.603 486.086 307.457 486.086 309.329 C 486.061 309.92 486.065 310.567 485.739 311.077 C 485.538 311.098 485.32 311.201 485.148 311.043 C 484.527 310.756 484.262 310.083 483.919 309.539 C 482.835 307.616 482.094 305.53 481.366 303.453 C 480.197 299.996 479.267 296.462 478.111 293.001 C 477.374 290.744 476.59 288.504 475.639 286.328 C 475.455 285.942 475.284 285.514 474.98 285.218 C 474.851 285.218 474.654 285.098 474.646 285.295 L 474.568 285.505 zM 360.755 289.005 C 360.447 289.437 360.297 289.964 360.126 290.465 C 359.402 292.988 358.811 295.55 358.228 298.111 C 357.693 300.416 357.191 302.724 356.81 305.059 C 356.283 308.228 355.885 311.424 355.572 314.624 C 355.105 319.601 354.853 324.599 354.881 329.598 C 354.917 332.596 355.045 335.608 355.482 338.576 C 355.671 339.694 355.894 340.825 356.378 341.861 C 356.557 342.26 356.853 342.641 357.286 342.778 C 357.628 342.851 357.975 342.714 358.249 342.508 C 358.948 341.981 359.427 341.215 359.851 340.461 C 360.565 339.111 360.945 337.621 361.286 336.143 C 361.548 335.167 361.796 334.143 362.404 333.312 C 362.537 333.145 362.7 332.956 362.905 332.901 C 363.072 332.896 363.244 332.892 363.355 333.038 C 363.993 333.543 364.285 334.391 365.004 334.798 C 365.214 334.897 365.507 335.021 365.676 334.798 C 366.281 334.314 366.426 333.505 366.516 332.781 C 366.846 330.335 366.722 327.859 366.593 325.4 C 366.242 319.498 365.433 313.638 364.649 307.779 C 364.015 303.174 363.364 298.574 362.55 293.995 C 362.25 292.449 361.993 290.885 361.466 289.395 C 361.367 289.227 361.333 288.996 361.111 288.962 C 361.004 288.906 360.871 288.996 360.755 289.005 zM 345.241 301.11 C 344.868 301.354 344.697 301.782 344.466 302.146 C 343.755 303.457 343.253 304.87 342.739 306.267 C 341.54 309.629 340.585 313.077 339.724 316.542 C 338.957 319.716 338.263 322.916 337.856 326.159 C 337.646 327.885 337.586 329.641 337.882 331.363 C 338.178 333.269 338.803 335.158 339.912 336.751 C 340.636 337.758 341.6 338.675 342.825 338.992 C 343.193 339.077 343.613 339.163 343.934 338.914 C 344.406 338.683 344.573 338.143 344.748 337.689 C 345.099 336.739 345.142 335.715 345.181 334.712 C 345.228 334.019 345.327 333.256 345.815 332.729 C 346.046 332.592 346.29 332.451 346.569 332.524 C 347.156 332.721 347.622 333.183 347.961 333.693 C 348.71 334.871 349.04 336.254 349.19 337.629 C 349.224 337.895 349.233 338.169 349.349 338.418 C 350.025 336.777 350.15 334.982 350.291 333.23 C 350.467 330.476 350.351 327.713 350.192 324.959 C 349.85 319.596 349.237 314.242 348.141 308.974 C 347.708 306.965 347.237 304.952 346.547 303.007 C 346.312 302.407 346.08 301.773 345.661 301.272 C 345.549 301.161 345.425 301.071 345.258 301.11 L 345.245 301.11 L 345.241 301.11 L 345.241 301.11 zM 416.807 317.913 C 415.24 317.943 413.74 318.701 412.67 319.824 C 411.128 321.348 409.932 323.173 408.703 324.946 C 408.163 325.769 407.589 326.608 407.332 327.568 C 407.195 328.09 407.234 328.682 407.589 329.11 C 408.223 330.005 409.17 330.6 410.057 331.222 C 412.584 332.832 415.634 333.466 418.606 333.38 C 421.33 333.29 424.089 332.584 426.338 331.003 C 427.096 330.463 427.867 329.911 428.462 329.191 C 428.809 328.771 429.071 328.227 428.938 327.675 C 428.754 326.548 428.09 325.597 427.524 324.638 C 426.817 323.477 425.978 322.394 424.971 321.481 C 423.644 320.256 422.127 319.207 420.44 318.551 C 419.287 318.089 418.045 317.896 416.807 317.913 L 416.807 317.913 L 416.807 317.913 zM 497.262 322.929 C 496.936 324.685 497.013 326.484 497.009 328.262 C 497.035 329.303 497.039 330.352 497.253 331.371 C 497.343 331.449 497.403 331.697 497.527 331.543 C 497.673 331.479 497.754 331.367 497.771 331.209 C 498.213 329.585 498.187 327.881 498.131 326.21 C 498.067 325.161 497.973 324.103 497.673 323.092 C 497.613 322.955 497.506 322.792 497.403 322.715 L 497.262 322.929 L 497.262 322.929 zM 444.842 286.824 C 443.111 287.043 441.552 288.105 440.588 289.54 C 439.231 291.485 438.618 293.871 438.592 296.222 C 438.498 298.891 437.753 301.478 436.93 304.005 C 436.142 306.391 435.166 308.717 434.065 310.974 C 433.105 313.06 432.159 315.176 431.689 317.433 C 431.574 318.054 431.461 318.757 431.782 319.335 C 431.868 319.481 431.987 319.579 432.159 319.592 C 432.54 319.695 432.917 319.485 433.251 319.327 C 434.356 318.77 435.221 317.866 436.091 317.005 C 437.415 315.652 438.597 314.165 440.015 312.906 C 440.466 312.546 440.91 312.101 441.492 311.985 C 441.728 312.101 441.993 312.221 442.122 312.456 C 442.289 313.013 442.199 313.613 442.062 314.169 C 441.694 315.506 440.987 316.714 440.25 317.879 C 439.432 319.155 438.451 320.312 437.449 321.447 C 436.404 322.668 435.42 324.017 435.022 325.602 C 434.9 326.18 434.845 326.853 435.204 327.358 C 435.701 328.018 436.588 328.33 437.393 328.163 C 438.991 327.962 440.473 327.234 441.818 326.368 C 442.692 325.743 443.137 324.724 443.587 323.781 C 444.516 321.631 445.142 319.365 445.642 317.078 C 445.964 315.574 446.208 314.05 446.547 312.546 C 447.322 308.935 448.256 305.35 449.425 301.846 C 449.999 300.12 450.749 298.458 451.263 296.715 C 451.507 295.79 451.755 294.787 451.434 293.853 C 451.301 293.537 451.066 293.271 450.749 293.125 C 450.179 292.821 449.532 292.607 449.095 292.097 C 448.35 291.378 447.969 290.345 447.9 289.322 C 447.81 288.371 447.301 287.386 446.388 286.996 C 445.908 286.777 445.356 286.769 444.842 286.824 zM 451.473 309.269 C 450.817 309.788 450.629 310.644 450.423 311.411 C 449.845 313.853 449.768 316.38 449.828 318.877 C 449.892 320.826 450.068 322.8 450.667 324.668 C 450.813 325.096 450.993 325.555 451.344 325.846 C 451.52 325.889 451.704 326.03 451.865 325.889 C 452.323 325.589 452.518 325.045 452.71 324.557 C 453.169 323.143 453.331 321.657 453.447 320.179 C 453.61 317.9 453.554 315.604 453.272 313.334 C 453.113 312.212 452.912 311.077 452.462 310.032 C 452.303 309.719 452.081 309.424 451.747 309.286 C 451.669 309.235 451.561 309.278 451.473 309.269 zM 393.647 311.12 C 392.919 311.171 392.105 311.21 391.535 311.728 C 391.077 312.135 390.872 312.803 391.047 313.394 C 391.184 313.998 391.497 314.611 391.373 315.24 C 391.218 315.776 390.773 316.2 390.242 316.35 C 388.67 316.825 387.016 316.581 385.41 316.808 C 384.751 316.898 384.035 317.022 383.526 317.485 C 383.35 317.66 383.14 317.883 383.221 318.153 C 383.307 319.014 383.89 319.742 384.575 320.235 C 386.704 321.914 389.222 323.002 391.758 323.918 C 394.067 324.745 396.44 325.388 398.856 325.812 C 399.173 325.863 399.498 325.816 399.772 325.636 C 401.272 324.779 402.544 323.593 403.833 322.453 C 405.127 321.267 406.407 320.055 407.495 318.676 C 407.881 318.153 408.266 317.566 408.305 316.902 C 408.335 316.431 408.198 315.943 407.855 315.609 C 406.896 314.628 405.551 314.199 404.308 313.694 C 401.803 312.739 399.233 311.912 396.594 311.411 C 395.622 311.227 394.637 311.115 393.647 311.12 zM 416.936 286.867 C 413.329 286.902 409.705 287.052 406.163 287.788 C 404.878 288.067 403.542 288.495 402.612 289.476 C 401.927 290.208 401.567 291.181 401.443 292.162 C 401.083 294.436 401.169 296.766 401.537 299.036 C 401.704 299.987 401.944 300.938 402.368 301.808 C 402.604 302.292 403.032 302.634 403.387 303.024 C 404.051 303.851 404.206 305.012 403.893 306.01 C 403.803 306.451 403.807 306.935 404.06 307.325 C 404.732 308.554 405.936 309.359 407.093 310.087 C 409.397 311.514 411.929 312.542 414.507 313.343 C 417.047 314.122 419.677 314.662 422.337 314.722 C 423.96 314.743 425.665 314.431 426.985 313.428 C 428.325 312.43 429.233 310.983 430.004 309.531 C 430.848 307.899 431.696 306.254 432.3 304.515 C 432.549 303.739 432.771 302.917 432.677 302.095 C 432.617 301.534 432.304 301.015 431.829 300.707 C 430.951 300.133 429.867 300.052 428.848 299.962 C 426.582 299.79 424.265 300 422.05 299.383 C 421.399 299.178 420.709 298.934 420.251 298.407 C 420.135 298.184 420.05 297.918 420.183 297.683 C 420.354 297.229 420.804 296.955 421.219 296.758 C 422.037 296.411 422.92 296.231 423.798 296.098 C 425.357 295.867 426.946 295.948 428.501 295.695 C 428.801 295.64 429.109 295.593 429.345 295.383 C 429.499 295.314 429.276 295.177 429.242 295.079 C 429.13 294.886 428.861 294.911 428.676 294.817 C 427.717 294.505 426.71 294.128 426.025 293.352 C 425.785 293.052 425.601 292.663 425.678 292.273 C 425.777 291.875 426.012 291.51 426.372 291.305 C 427.52 290.577 428.925 290.482 430.248 290.487 C 430.917 290.474 431.606 290.47 432.24 290.251 C 432.334 290.148 432.514 290.063 432.553 289.951 C 432.27 289.356 431.658 289.03 431.131 288.688 C 430.021 288.024 428.728 287.818 427.481 287.578 C 425.117 287.18 422.718 287.034 420.328 286.923 C 419.197 286.88 418.067 286.863 416.936 286.867 L 416.936 286.867 zM 460.078 291.185 C 459.894 291.262 459.658 291.275 459.589 291.498 C 459.273 291.965 459.397 292.56 459.435 293.087 C 459.667 294.864 460.168 296.595 460.656 298.317 C 461.543 301.289 462.566 304.224 463.727 307.098 C 464.378 308.665 465.046 310.237 465.903 311.707 C 466.16 312.126 466.456 312.555 466.871 312.82 C 467.548 312.713 468.109 312.255 468.49 311.702 C 469.874 309.775 470.765 307.53 471.3 305.23 C 471.784 303.097 471.904 300.823 471.223 298.719 C 470.525 296.603 469.073 294.749 467.18 293.571 C 465.56 292.53 463.731 291.849 461.868 291.391 C 461.281 291.253 460.682 291.164 460.078 291.185 zM 378.732 273.28 C 377.91 273.812 377.537 274.758 376.908 275.465 C 376.008 276.343 374.702 276.806 373.455 276.604 C 372.569 276.429 371.703 275.996 370.778 276.137 C 369.973 276.232 369.258 276.733 368.799 277.393 C 367.78 278.699 367.39 280.361 367.133 281.967 C 366.692 284.751 366.752 287.583 366.928 290.388 C 367.236 294.903 368.007 299.37 368.876 303.808 C 369.262 305.693 369.63 307.59 370.196 309.432 C 370.273 309.659 370.35 309.938 370.466 310.117 C 371.168 309.488 371.378 308.524 371.682 307.672 C 373.28 302.827 374.646 297.914 376.013 293.001 C 377.285 288.341 378.493 283.651 379.285 278.879 C 379.512 277.375 379.748 275.851 379.658 274.326 C 379.623 274.004 379.572 273.645 379.366 273.392 C 379.191 273.31 379.024 273.169 378.827 273.263 L 378.732 273.28 L 378.732 273.28 zM 384.198 298.3 C 383.68 298.364 383.217 298.732 382.999 299.199 C 382.416 300.373 382.279 301.701 382.014 302.968 C 381.846 303.898 381.632 304.849 381.769 305.791 C 381.846 306.138 381.979 306.519 382.33 306.674 C 383.269 307.243 384.408 307.183 385.462 307.162 C 387.231 307.098 388.995 306.978 390.747 306.738 C 392.589 306.468 394.448 306.087 396.106 305.213 C 396.44 305.007 396.787 304.733 396.834 304.318 C 396.92 304.112 396.757 303.915 396.684 303.727 C 396.153 302.746 395.163 302.15 394.23 301.602 C 392.157 300.433 389.865 299.756 387.633 298.964 C 386.7 298.664 385.749 298.351 384.763 298.282 C 384.575 298.274 384.386 298.287 384.198 298.3 L 384.198 298.3 L 384.198 298.3 zM 334.794 297.13 C 334.37 297.452 334.207 297.991 334.078 298.484 C 333.839 299.615 333.916 300.81 334.258 301.91 C 334.477 302.48 334.747 303.11 335.303 303.418 C 335.659 303.632 336.117 303.517 336.46 303.328 C 337.257 302.9 337.621 301.953 337.634 301.084 C 337.655 299.842 337.227 298.587 336.426 297.631 C 336.104 297.233 335.603 296.942 335.081 296.967 L 334.794 297.13 L 334.794 297.13 zM 355.928 279.509 C 355.14 279.77 354.429 280.245 353.915 280.896 C 352.878 282.138 352.313 283.676 351.794 285.184 C 350.728 288.426 350.132 291.823 350.03 295.237 C 349.991 297.323 350.227 299.443 350.972 301.405 C 351.126 301.748 351.319 302.108 351.632 302.317 C 351.812 302.429 352.026 302.412 352.21 302.347 C 353.058 301.632 353.392 300.536 353.756 299.529 C 354.639 296.916 355.191 294.213 355.739 291.515 C 356.232 288.979 356.703 286.43 357.071 283.873 C 357.209 282.785 357.341 281.684 357.239 280.592 C 357.187 280.254 357.114 279.868 356.84 279.646 C 356.583 279.483 356.266 279.384 355.971 279.5 L 355.928 279.509 zM 385.063 284.254 C 384.896 284.413 384.682 284.541 384.652 284.79 C 384.382 285.595 384.416 286.456 384.391 287.291 C 384.391 288.358 384.605 289.429 385.063 290.393 C 385.963 292.393 387.419 294.106 389.111 295.485 C 390.148 296.308 391.308 297.019 392.593 297.374 C 393.48 297.61 394.521 297.614 395.271 297.019 C 395.887 296.539 396.329 295.854 396.667 295.156 C 396.945 294.547 397.181 293.875 397.035 293.202 C 396.834 292.067 396.037 291.168 395.275 290.358 C 393.54 288.542 391.36 287.253 389.197 286.023 C 388.173 285.437 387.158 284.811 386.048 284.392 C 385.727 284.293 385.402 284.216 385.063 284.254 zM 456.163 277.457 C 455.897 277.525 455.653 277.641 455.443 277.821 C 455.242 278.121 455.165 278.493 455.238 278.853 C 455.396 280.147 456.184 281.243 456.977 282.237 C 458.21 283.753 459.778 284.974 461.478 285.938 C 462.879 286.765 464.28 287.625 465.822 288.174 C 466.396 288.345 467.051 288.559 467.629 288.281 C 467.818 288.157 467.985 288.011 468.075 287.797 C 468.396 287.21 468.542 286.508 468.447 285.844 C 468.285 284.914 467.617 284.195 466.995 283.535 C 465.543 282.061 463.847 280.849 462.095 279.757 C 460.669 278.883 459.17 278.074 457.551 277.615 C 457.097 277.504 456.63 277.444 456.163 277.457 zM 496.82 279.367 C 494.927 279.487 492.978 279.795 491.321 280.772 C 490.55 281.235 489.749 281.834 489.47 282.734 C 489.329 283.256 489.333 283.882 489.71 284.31 C 490.113 284.751 490.751 284.867 491.325 284.816 C 492.91 284.738 494.4 283.989 495.608 282.991 C 496.435 282.28 497.155 281.432 497.737 280.507 C 497.844 280.314 497.947 280.091 497.943 279.873 C 497.887 279.723 497.887 279.53 497.694 279.504 C 497.424 279.371 497.116 279.359 496.82 279.367 zM 395.275 251.303 C 394.191 251.341 393.035 251.273 392.054 251.808 C 391.167 252.318 390.67 253.286 390.439 254.25 C 389.792 256.751 389.604 259.334 389.312 261.891 C 388.811 266.654 388.4 271.447 388.588 276.245 C 388.648 277.2 388.683 278.181 388.991 279.093 C 389.312 279.847 389.938 280.421 390.559 280.931 C 392.088 282.109 393.921 282.841 395.797 283.239 C 397.485 283.569 399.275 283.629 400.925 283.081 C 401.584 282.85 402.201 282.511 402.882 282.34 C 404.681 281.839 406.587 281.787 408.429 282.044 C 409.311 282.173 410.177 282.43 411.076 282.421 C 412.528 282.447 414.036 281.971 415.051 280.896 C 416.302 279.62 416.876 277.787 416.799 276.018 C 416.76 274.694 416.383 273.413 415.942 272.175 C 415.377 270.115 415.287 267.952 415.415 265.832 C 415.492 264.628 415.788 263.446 415.775 262.234 C 415.784 260.803 415.454 259.295 414.481 258.203 C 413.993 257.642 413.269 257.244 412.511 257.312 C 411.594 257.351 410.751 257.822 410.112 258.469 C 409.209 259.278 408.253 260.131 407.05 260.456 C 406.634 260.555 406.163 260.542 405.808 260.276 C 405.405 259.822 405.302 259.163 405.452 258.584 C 405.641 257.591 406.185 256.644 406.06 255.607 C 405.962 254.622 405.473 253.637 404.604 253.119 C 403.036 252.048 401.13 251.658 399.275 251.461 C 397.948 251.324 396.611 251.298 395.275 251.303 L 395.275 251.303 L 395.275 251.303 zM 439.475 251.534 C 437.445 251.615 435.436 251.928 433.431 252.241 C 430.835 252.682 428.227 253.333 425.939 254.678 C 424.265 255.672 422.753 257.042 421.883 258.816 C 420.787 260.992 420.401 263.459 420.418 265.879 C 420.418 269.07 420.941 272.231 421.48 275.366 C 421.857 277.393 422.2 279.44 422.902 281.385 C 423.018 281.68 423.219 281.959 423.532 282.061 C 424.92 282.708 426.483 282.661 427.978 282.691 C 430.925 282.687 433.864 282.361 436.776 281.933 C 439.346 281.535 441.916 281.042 444.392 280.215 C 445.304 279.89 446.251 279.564 447.001 278.935 C 447.84 278.108 448.114 276.9 448.157 275.761 C 448.247 273.55 447.896 271.349 447.528 269.177 C 446.945 265.853 446.174 262.568 445.429 259.278 C 445.009 257.565 444.606 255.83 443.9 254.207 C 443.505 253.337 442.944 252.472 442.062 252.039 C 441.274 251.615 440.357 251.521 439.475 251.534 L 439.475 251.534 zM 452.638 257.179 C 452.385 257.222 452.149 257.308 451.948 257.466 C 451.58 257.955 451.481 258.619 451.614 259.21 C 451.845 260.113 452.312 260.944 452.809 261.728 C 453.965 263.467 455.576 264.872 457.371 265.922 C 458.788 266.778 460.228 267.708 461.217 269.066 C 461.847 269.918 462.155 271.049 461.868 272.09 C 461.688 272.826 461.663 273.692 462.168 274.313 C 462.931 275.388 464.108 276.056 465.278 276.592 C 467.428 277.611 469.703 278.318 471.934 279.114 C 473.69 279.718 475.451 280.335 477.271 280.734 C 477.811 280.832 478.393 280.952 478.929 280.772 C 479.194 280.648 479.494 280.468 479.533 280.147 C 479.768 279.367 479.708 278.519 479.409 277.765 C 478.788 275.958 477.918 274.244 477.053 272.539 C 475.729 269.987 474.299 267.472 472.589 265.151 C 471.33 263.48 469.797 261.93 467.861 261.06 C 466.143 260.229 464.254 259.886 462.395 259.527 C 459.864 259.013 457.332 258.46 454.865 257.68 C 454.145 257.441 453.413 257.141 452.638 257.179 L 452.638 257.179 L 452.638 257.179 zM 378.604 247.542 C 376.903 247.555 375.212 248.189 373.961 249.341 C 372.235 250.853 370.971 252.789 369.716 254.686 C 367.913 257.488 366.255 260.379 364.567 263.249 C 363.304 265.459 362.04 267.682 361.064 270.038 C 360.781 270.758 360.507 271.516 360.562 272.3 C 360.605 272.574 360.674 272.904 360.965 273.006 C 361.629 273.37 362.426 273.272 363.128 273.088 C 365.128 272.629 367.043 271.888 368.971 271.216 C 371.571 270.265 374.154 269.276 376.664 268.115 C 378.33 267.331 379.983 266.363 381.11 264.864 C 382.33 263.262 382.922 261.296 383.431 259.372 C 384.01 257.025 384.575 254.661 384.896 252.262 C 385.016 251.281 385.098 250.245 384.738 249.307 C 384.515 248.733 384.057 248.253 383.47 248.039 C 382.412 247.593 381.238 247.615 380.107 247.555 C 379.606 247.546 379.105 247.542 378.604 247.542 zM 455.709 247.55 C 454.617 247.602 453.451 247.709 452.535 248.36 C 452.248 248.608 451.935 248.9 451.879 249.289 C 451.858 250.112 452.256 250.9 452.86 251.448 C 454.818 253.277 457.401 254.331 460.022 254.755 C 461.209 254.931 462.455 255.016 463.62 254.669 C 464.057 254.511 464.541 254.262 464.687 253.787 C 464.854 253.029 464.503 252.283 464.13 251.645 C 463.183 250.112 461.616 249.088 459.992 248.39 C 458.643 247.816 457.174 247.516 455.709 247.55 L 455.709 247.55 zM 478.595 244.903 C 477.275 245.434 476.226 246.432 475.194 247.375 C 473.896 248.617 472.679 249.958 471.729 251.482 C 471.519 251.872 471.266 252.283 471.279 252.737 C 471.27 252.96 471.527 252.947 471.677 253.033 C 472.183 253.097 472.641 252.789 473.078 252.575 C 474.483 251.787 475.669 250.669 476.783 249.521 C 477.747 248.488 478.655 247.379 479.31 246.124 C 479.451 245.816 479.593 245.447 479.451 245.117 C 479.336 244.98 479.22 244.843 479.027 244.852 C 478.877 244.839 478.74 244.856 478.595 244.903 L 478.595 244.903 L 478.595 244.903 zM 343.776 238.534 C 343.66 238.577 343.562 238.624 343.665 238.744 C 343.832 239.185 344.247 239.459 344.573 239.78 C 346.11 241.142 347.759 242.38 349.267 243.781 C 349.747 244.269 350.329 244.74 350.509 245.43 C 350.535 245.88 350.432 246.338 350.137 246.689 C 349.67 247.259 349.066 247.696 348.496 248.159 C 347.661 248.818 346.77 249.431 346.068 250.24 C 345.956 250.373 345.828 250.502 345.87 250.69 C 345.853 250.849 346.012 250.981 346.106 251.088 C 346.59 251.273 347.126 251.251 347.64 251.264 C 349.002 251.251 350.347 250.968 351.67 250.673 C 353.054 250.326 354.484 249.842 355.521 248.822 C 356.065 248.27 356.459 247.52 356.416 246.728 C 356.438 245.674 355.932 244.685 355.247 243.914 C 353.683 242.042 351.482 240.838 349.233 239.969 C 347.691 239.391 346.098 238.958 344.491 238.594 C 344.251 238.542 344.02 238.495 343.776 238.534 L 343.776 238.534 zM 403.079 51.3081 C 402.248 51.3209 401.327 51.3381 400.655 51.8906 C 399.901 52.6231 399.682 53.7025 399.562 54.7091 C 399.181 57.5489 399.275 60.4274 399.297 63.2886 C 399.378 68.8656 399.61 74.4382 399.785 80.0109 C 399.982 85.7249 400.171 91.4432 400.522 97.1529 C 400.758 100.682 401.044 104.225 401.786 107.69 C 402.24 109.789 402.886 111.845 403.743 113.811 C 405.311 117.495 407.332 120.964 408.896 124.648 C 410.267 127.818 411.449 131.09 412.087 134.491 C 412.365 136.033 412.52 137.631 412.263 139.186 C 412.074 140.154 411.693 141.177 410.836 141.743 C 410.618 141.88 410.352 141.824 410.155 141.678 C 409.834 141.43 409.607 141.075 409.384 140.74 C 408.87 139.879 408.515 138.933 408.151 138.003 C 407.435 136.097 406.968 134.114 406.45 132.148 C 405.799 129.784 405.037 127.415 403.739 125.32 C 403.435 124.866 403.079 124.391 402.578 124.151 C 402.411 124.095 402.248 124.052 402.094 124.155 C 401.811 124.275 401.674 124.592 401.554 124.858 C 401.07 125.989 401.331 127.248 401.122 128.43 C 401.057 128.666 401.019 128.957 400.826 129.115 C 400.642 129.214 400.458 129.317 400.239 129.274 C 399.957 129.214 399.704 129.013 399.515 128.798 C 399.091 128.306 398.984 127.638 398.791 127.034 C 398.393 125.547 398.153 124.022 397.892 122.506 C 397.172 118.026 396.675 113.511 396.209 109.001 C 395.523 102.331 394.992 95.6537 394.542 88.9674 C 394.135 82.748 393.806 76.52 393.613 70.2877 C 393.51 67.3064 393.48 64.3209 393.39 61.3354 C 393.347 60.3631 393.326 59.3865 393.219 58.4227 C 393.193 58.3028 393.185 58.1572 393.022 58.1786 C 392.872 58.1229 392.923 58.3713 392.868 58.4656 C 392.366 60.6844 392.165 62.9545 391.848 65.2076 C 391.158 70.5061 390.572 75.8261 389.454 81.056 C 389.145 82.3839 388.858 83.7246 388.361 84.9967 C 388.267 85.1895 388.164 85.4251 388.036 85.5664 C 387.616 85.3008 387.368 84.8425 387.278 84.3671 C 386.892 82.718 386.747 81.0261 386.601 79.3427 C 386.323 75.7661 386.258 72.1723 386.254 68.5829 C 386.245 65.5888 386.288 62.5947 386.091 59.605 C 386.01 58.5941 385.954 57.5532 385.552 56.6109 C 385.342 56.144 384.965 55.7028 384.438 55.6171 C 383.68 55.5272 382.93 55.7628 382.211 55.9641 C 379.358 56.885 376.681 58.29 374.145 59.8834 C 372.993 60.603 371.943 61.4982 371.138 62.6033 C 369.725 64.4623 368.821 66.6468 368.067 68.8399 C 366.722 72.862 365.951 77.0511 365.381 81.2488 C 364.614 87.0699 364.298 92.9381 364.169 98.8063 C 364.079 103.043 364.13 107.283 364.238 111.519 C 364.328 116.038 364.396 120.561 364.1 125.076 C 363.985 126.644 363.878 128.229 363.458 129.754 C 363.351 130.083 363.231 130.46 362.965 130.683 C 362.79 130.675 362.563 130.786 362.464 130.585 C 361.509 129.518 361.166 128.092 360.781 126.751 C 359.95 123.727 359.414 120.634 358.815 117.555 C 357.924 113.37 356.635 109.232 354.583 105.463 C 353.679 103.844 352.625 102.276 351.216 101.059 C 350.582 100.528 349.837 100.074 349.01 99.9542 C 348.787 99.9628 348.552 100.027 348.432 100.224 C 348.145 100.622 348.102 101.124 348.012 101.59 C 347.751 103.736 347.802 105.904 347.879 108.058 C 348.055 112.907 348.826 117.73 348.736 122.592 C 348.693 123.393 348.68 124.219 348.376 124.969 C 348.286 125.123 348.213 125.307 348.012 125.329 C 347.781 125.406 347.52 125.325 347.327 125.188 C 346.881 124.823 346.646 124.275 346.372 123.783 C 345.613 122.283 345.177 120.647 344.757 119.028 C 344.191 116.698 343.909 114.316 343.502 111.952 C 343.318 110.98 343.142 109.99 342.761 109.069 C 342.637 108.821 342.47 108.525 342.161 108.508 C 341.96 108.435 341.784 108.619 341.609 108.697 C 340.825 109.236 340.315 110.08 339.852 110.894 C 338.79 112.873 338.417 115.122 338.079 117.319 C 337.492 121.465 337.437 125.667 337.479 129.852 C 337.539 133.836 337.762 137.811 338.079 141.781 C 338.704 149.65 339.698 157.488 340.915 165.288 C 341.896 171.546 343.031 177.783 344.303 183.99 C 345.716 190.894 347.151 197.799 348.98 204.605 C 350.21 209.146 351.614 213.665 353.632 217.922 C 355.14 221.066 357.016 224.056 359.363 226.643 C 362.22 229.843 365.591 232.537 369.061 235.039 C 370.928 236.371 372.903 237.549 374.963 238.56 C 379.281 240.723 383.864 242.316 388.52 243.58 C 395.189 245.37 402.034 246.479 408.913 247.041 C 414.46 247.486 420.041 247.55 425.597 247.203 C 430.784 246.878 435.954 246.171 441.008 244.95 C 446.362 243.678 451.622 241.982 456.634 239.699 C 462.297 237.125 467.681 233.835 472.273 229.62 C 475.318 226.819 478.025 223.636 480.184 220.098 C 481.203 218.419 482.137 216.672 482.741 214.795 C 484.232 210.486 485.384 206.075 486.515 201.658 C 487.898 196.184 489.14 190.676 490.28 185.142 C 491.154 180.85 492.01 176.554 492.94 172.27 C 494.336 165.802 495.797 159.347 497.446 152.939 C 498.058 150.605 498.679 148.271 499.51 146.005 C 500.256 143.872 501.048 141.751 501.669 139.58 C 501.781 139.083 501.948 138.582 501.939 138.068 C 501.905 137.926 501.905 137.751 501.721 137.729 C 501.588 137.644 501.451 137.626 501.305 137.704 C 500.727 137.862 500.247 138.265 499.922 138.761 C 498.838 140.222 498.157 141.923 497.424 143.58 C 496.555 145.641 495.84 147.765 495.099 149.877 C 494.323 151.984 493.492 154.1 492.224 155.968 C 491.95 156.345 491.642 156.794 491.149 156.876 C 490.961 156.949 490.922 156.679 490.815 156.572 C 490.447 155.856 490.558 155.021 490.575 154.246 C 490.674 152.644 490.965 151.059 491.261 149.483 C 492.027 145.628 493.073 141.824 494.31 138.093 C 495.103 135.759 495.947 133.429 497.095 131.244 C 497.767 130.019 498.572 128.858 499.065 127.543 C 499.493 126.46 499.875 125.316 499.832 124.138 C 499.823 123.971 499.72 123.8 499.609 123.68 C 499.489 123.603 499.378 123.448 499.228 123.56 C 498.311 123.847 497.707 124.652 497.116 125.359 C 495.386 127.535 494.186 130.062 492.657 132.375 C 491.796 133.699 490.905 135.009 489.873 136.2 C 489.53 136.568 489.188 136.992 488.712 137.177 C 488.374 137.211 488.031 137.112 487.774 136.885 C 487.311 136.303 487.2 135.523 487.209 134.799 C 487.243 133.42 487.62 132.079 488.031 130.773 C 488.763 128.524 489.839 126.404 491.064 124.387 C 492.173 122.506 493.342 120.639 494.088 118.578 C 494.289 117.949 494.503 117.255 494.289 116.604 C 494.199 116.334 493.985 116.137 493.754 115.983 C 493.158 115.571 492.396 115.644 491.71 115.666 C 489.993 115.756 488.339 116.334 486.618 116.398 C 485.722 116.411 484.737 116.12 484.21 115.349 C 483.568 114.419 483.208 113.331 482.865 112.26 C 482.073 109.528 481.435 106.748 480.745 103.985 C 479.738 99.89 478.788 95.778 477.631 91.7216 C 477.181 90.1924 476.732 88.6333 475.866 87.2883 C 475.575 86.8429 475.117 86.4531 474.56 86.4531 C 473.827 86.4745 473.236 86.9842 472.684 87.4168 C 471.566 88.3335 470.611 89.43 469.561 90.428 C 467.488 92.4798 465.368 94.5186 462.96 96.1806 C 462.082 96.7674 461.179 97.4099 460.112 97.5684 C 459.889 97.5812 459.662 97.487 459.491 97.3585 C 459.362 97.2429 459.255 97.1186 459.277 96.9345 C 459.221 96.1163 459.637 95.3625 459.971 94.6386 C 461.329 91.9786 463.277 89.687 465.076 87.3183 C 466.379 85.6264 467.625 83.8916 468.794 82.1097 C 469.304 81.2916 469.844 80.4821 470.217 79.5911 C 470.358 79.2699 470.281 78.9144 470.118 78.6145 C 469.758 78.0234 469.163 77.6293 468.64 77.1924 C 466.905 75.8432 464.969 74.7809 463.003 73.8172 C 461.787 73.2432 460.54 72.7035 459.225 72.4036 C 458.848 72.3351 458.416 72.258 458.073 72.4593 C 457.898 72.6392 457.786 72.8534 457.726 73.0975 C 457.109 74.9865 456.745 76.944 456.291 78.8758 C 455.203 83.7803 454.231 88.7018 453.272 93.632 C 452.612 97.063 451.974 100.503 451.305 103.933 C 450.196 109.579 449.014 115.22 447.575 120.793 C 447.142 122.365 446.761 123.962 446.105 125.462 C 446.003 125.663 445.87 125.903 445.634 125.954 C 445.429 126.006 445.193 125.929 445.03 125.8 C 444.671 125.513 444.576 125.025 444.478 124.596 C 444.255 123.23 444.362 121.842 444.431 120.467 C 444.666 116.732 445.116 113.01 445.536 109.292 C 446.251 103.15 447.044 97.0201 447.789 90.8821 C 448.44 85.5579 449.082 80.2293 449.665 74.8966 C 449.691 74.4211 449.815 73.9371 449.742 73.4659 C 449.652 73.0933 449.412 72.7506 449.048 72.6092 C 447.588 71.8639 445.9 71.9153 444.311 72.0267 C 440.666 72.3008 437.046 73.5002 434.121 75.7233 C 430.852 78.1648 428.3 81.4373 426.308 84.9753 C 424.997 87.3354 423.656 89.6827 422.114 91.9015 C 421.296 93.0709 420.465 94.2445 419.42 95.2254 C 419.279 95.3196 419.159 95.4781 418.97 95.401 C 418.812 95.4139 418.696 95.3496 418.619 95.2125 C 417.694 94.1331 417.261 92.7539 416.812 91.4303 C 415.741 88.1536 414.94 84.7954 414.173 81.4373 C 412.999 76.1987 412.053 70.913 410.999 65.6531 C 410.387 62.6204 409.757 59.5878 408.93 56.6023 C 408.613 55.5101 408.262 54.4135 407.705 53.4112 C 407.268 52.6316 406.673 51.8435 405.782 51.5651 C 404.912 51.2781 403.983 51.3081 403.079 51.3081 zM 418.431 208.302 C 422.084 208.37 425.751 208.52 429.353 209.193 C 430.201 209.373 431.084 209.544 431.825 210.015 C 432.403 210.499 432.561 211.283 432.72 211.986 C 433.08 213.862 432.579 215.793 431.765 217.485 C 430.394 220.437 428.051 222.968 425.104 224.377 C 423.292 225.281 421.42 226.129 419.424 226.523 C 417.891 226.827 416.298 226.742 414.781 226.382 C 412.413 225.821 410.138 224.793 408.228 223.268 C 406.039 221.529 404.283 219.19 403.422 216.517 C 402.968 215.082 402.826 213.485 403.34 212.05 C 403.717 211.022 404.527 210.195 405.491 209.703 C 406.857 209.009 408.403 208.846 409.894 208.657 C 412.73 208.34 415.582 208.28 418.431 208.302 L 418.431 208.302 L 418.431 208.302 zM 423.673 218.192 C 421.707 218.316 419.806 218.963 418.054 219.837 C 417.377 220.201 416.632 220.595 416.28 221.319 C 416.139 221.503 416.272 221.713 416.323 221.906 C 416.516 222.403 416.953 222.788 417.475 222.912 C 419.309 223.444 421.305 223.199 423.052 222.484 C 423.661 222.231 424.23 221.837 424.577 221.263 C 425.001 220.642 425.335 219.91 425.305 219.143 C 425.263 218.878 425.194 218.556 424.95 218.415 C 424.556 218.209 424.106 218.175 423.673 218.192 L 423.673 218.192 L 423.673 218.192 zM 460.125 165.451 C 464.867 165.537 469.574 167.152 473.352 170.026 C 476.128 172.197 478.406 175.033 479.82 178.267 C 481.238 181.471 481.696 185.026 481.555 188.504 C 481.477 190.903 481.263 193.374 480.222 195.576 C 479.04 198.018 477.138 200.001 475.241 201.907 C 473.45 203.68 471.587 205.441 469.356 206.653 C 467.732 207.522 465.916 208.015 464.078 208.113 C 461.616 208.28 459.144 208.083 456.694 207.796 C 454.792 207.557 452.882 207.257 451.057 206.64 C 448.71 205.775 446.645 204.254 444.915 202.464 C 442.546 199.996 440.867 196.908 439.916 193.631 C 438.717 189.605 438.532 185.245 439.586 181.163 C 440.464 177.86 442.109 174.755 444.405 172.215 C 446.521 169.833 449.202 167.944 452.196 166.835 C 454.719 165.875 457.426 165.395 460.125 165.451 L 460.125 165.451 zM 464.207 193.841 C 462.982 194.111 461.988 195.165 461.748 196.39 C 461.418 197.778 461.868 199.388 463.042 200.249 C 463.727 200.712 464.657 200.973 465.445 200.618 C 466.494 200.159 467.462 199.363 467.882 198.27 C 468.242 197.277 468.143 196.073 467.437 195.255 C 466.683 194.291 465.453 193.614 464.207 193.841 zM 453.798 175.419 C 451.952 175.478 450.217 176.596 449.301 178.186 C 448.149 180.032 447.695 182.336 448.161 184.469 C 448.359 185.245 448.65 186.071 449.331 186.551 C 450.487 187.476 452.025 187.793 453.477 187.652 C 455.358 187.51 457.281 186.859 458.628 185.493 C 459.758 184.341 460.446 182.687 460.198 181.064 C 459.949 179.252 458.896 177.573 457.375 176.554 C 456.334 175.825 455.075 175.393 453.798 175.419 L 453.798 175.419 L 453.798 175.419 zM 375.447 165.357 C 379.533 165.455 383.603 166.796 386.862 169.276 C 389.317 171.097 391.424 173.384 393.052 175.967 C 395.211 179.432 396.444 183.523 396.303 187.622 C 396.2 191.404 395.091 195.178 392.97 198.326 C 390.52 202.001 386.824 204.802 382.665 206.259 C 378.557 207.715 374.094 208.049 369.785 207.462 C 367.42 207.12 365.047 206.494 363.004 205.214 C 360.233 203.53 357.992 201.067 356.292 198.326 C 354.673 195.747 353.473 192.886 352.917 189.888 C 352.471 187.502 352.557 185.03 353.041 182.653 C 353.683 179.518 355.075 176.536 357.084 174.044 C 359.526 170.972 362.76 168.535 366.401 167.066 C 369.262 165.901 372.35 165.284 375.447 165.357 zM 379.268 193.404 C 377.927 193.503 376.574 194.205 375.91 195.409 C 375.49 196.278 375.674 197.375 376.304 198.099 C 377.13 199.183 378.411 200.005 379.808 199.996 C 380.493 199.975 381.191 199.658 381.551 199.054 C 382.249 198.043 382.66 196.767 382.433 195.537 C 382.3 194.891 381.966 194.24 381.358 193.927 C 380.733 193.554 379.996 193.379 379.268 193.404 L 379.268 193.404 L 379.268 193.404 zM 367.806 175.333 C 365.501 175.534 363.359 177.166 362.648 179.381 C 362.22 180.935 362.361 182.687 363.24 184.062 C 364.113 185.476 365.454 186.688 367.099 187.086 C 368.345 187.378 369.712 187.228 370.821 186.568 C 372.474 185.626 373.738 184.084 374.513 182.362 C 374.839 181.608 374.989 180.73 374.685 179.946 C 374.269 178.67 373.318 177.654 372.303 176.815 C 371.155 175.881 369.703 175.281 368.208 175.316 C 368.075 175.316 367.938 175.329 367.806 175.333 L 367.806 175.333 L 367.806 175.333 zM 508.797 83.7417 C 506.552 84.6198 504.548 85.9691 502.466 87.1555 C 500.838 88.085 499.104 88.8432 497.292 89.3315 C 496.311 89.5756 495.283 89.777 494.28 89.5585 C 493.664 89.4129 492.995 89.3315 492.391 89.5756 C 491.749 89.8198 491.342 90.4152 490.939 90.942 C 489.933 92.3812 489.41 94.0817 488.836 95.7266 C 488.387 97.0801 487.941 98.4465 487.628 99.8429 C 487.543 100.365 487.436 100.922 487.611 101.436 C 487.774 101.62 487.962 101.813 488.211 101.847 C 489.038 101.736 489.732 101.231 490.421 100.794 C 492.062 99.6801 493.565 98.378 495.094 97.1144 C 498.084 94.5915 501.022 92.0129 503.918 89.3872 C 505.657 87.7938 507.392 86.1961 509.011 84.4784 C 509.144 84.2985 509.354 84.1358 509.409 83.9173 C 509.435 83.776 509.431 83.6603 509.251 83.686 C 509.101 83.656 508.947 83.7246 508.797 83.7417 z"/>

</svg>