%TF.GenerationSoftware,KiCad,Pcbnew,(5.1.10)-1*%
%TF.CreationDate,2021-12-02T16:21:00-08:00*%
%TF.ProjectId,bgkeeb,62676b65-6562-42e6-9b69-6361645f7063,rev?*%
%TF.SameCoordinates,Original*%
%TF.FileFunction,Legend,Bot*%
%TF.FilePolarity,Positive*%
%FSLAX46Y46*%
G04 Gerber Fmt 4.6, Leading zero omitted, Abs format (unit mm)*
G04 Created by KiCad (PCBNEW (5.1.10)-1) date 2021-12-02 16:21:00*
%MOMM*%
%LPD*%
G01*
G04 APERTURE LIST*
%ADD10C,0.062500*%
%ADD11C,0.200000*%
G04 APERTURE END LIST*
D10*
X70605385Y-106741521D02*
X70621010Y-106752223D01*
X70605828Y-106700033D02*
X70605385Y-106741521D01*
X67664605Y-108786051D02*
X67630959Y-108731154D01*
X67630959Y-108731154D02*
X67602573Y-108704516D01*
X71157105Y-106280731D02*
X71157105Y-106280731D01*
X71030048Y-106427751D02*
X71076593Y-106384796D01*
X71076593Y-106384796D02*
X71122354Y-106341028D01*
X71122354Y-106341028D02*
X71162678Y-106299916D01*
X67866375Y-109192068D02*
X67838380Y-109150141D01*
X70729865Y-106432656D02*
X70692053Y-106468241D01*
X67696505Y-109188733D02*
X67701165Y-109251291D01*
X67701165Y-109251291D02*
X67706765Y-109258786D01*
X67838380Y-109150141D02*
X67783953Y-109136521D01*
X71168928Y-106279281D02*
X71157105Y-106280731D01*
X67706765Y-109258786D02*
X67755764Y-109298751D01*
X67755764Y-109298751D02*
X67798015Y-109308188D01*
X67783953Y-109136521D02*
X67722566Y-109159114D01*
X67722566Y-109159114D02*
X67696505Y-109188733D01*
X67783953Y-109136521D02*
X67783953Y-109136521D01*
X71173043Y-106285306D02*
X71168928Y-106279281D01*
X71162678Y-106299916D02*
X71173043Y-106285306D01*
X70800255Y-106628978D02*
X70851162Y-106585656D01*
X70851162Y-106585656D02*
X70901696Y-106541933D01*
X70901696Y-106541933D02*
X70951875Y-106497820D01*
X70951875Y-106497820D02*
X71001714Y-106453334D01*
X71001714Y-106453334D02*
X71030048Y-106427751D01*
X67206245Y-108632353D02*
X67250834Y-108582317D01*
X67250834Y-108582317D02*
X67300715Y-108537575D01*
X67300715Y-108537575D02*
X67355258Y-108498670D01*
X67355258Y-108498670D02*
X67413834Y-108466146D01*
X67413834Y-108466146D02*
X67448875Y-108450636D01*
X69724840Y-108668161D02*
X69724840Y-108668161D01*
X67467053Y-108971988D02*
X67532216Y-108971588D01*
X67532216Y-108971588D02*
X67563980Y-108958501D01*
X70637288Y-106592838D02*
X70618232Y-106652715D01*
X70618232Y-106652715D02*
X70605828Y-106700033D01*
X70992235Y-106369634D02*
X70935065Y-106398626D01*
X70935065Y-106398626D02*
X70875093Y-106421205D01*
X70875093Y-106421205D02*
X70857495Y-106426298D01*
X67684448Y-108406131D02*
X67684448Y-108406131D01*
X67602573Y-108704516D02*
X67545819Y-108673122D01*
X67545819Y-108673122D02*
X67495933Y-108665478D01*
X67448875Y-108450636D02*
X67513015Y-108428505D01*
X67513015Y-108428505D02*
X67579203Y-108413642D01*
X67579203Y-108413642D02*
X67646681Y-108406541D01*
X67646681Y-108406541D02*
X67684448Y-108406131D01*
X67366558Y-108893238D02*
X67409266Y-108942536D01*
X67409266Y-108942536D02*
X67467053Y-108971988D01*
X67485463Y-108665921D02*
X67421466Y-108686367D01*
X67421466Y-108686367D02*
X67371499Y-108731268D01*
X67371499Y-108731268D02*
X67351140Y-108771338D01*
X70621010Y-106752223D02*
X70678563Y-106724803D01*
X70779058Y-106432211D02*
X70729865Y-106432656D01*
X67351140Y-108771338D02*
X67346085Y-108834037D01*
X67346085Y-108834037D02*
X67366558Y-108893238D01*
X67563980Y-108958501D02*
X67614442Y-108918246D01*
X67614442Y-108918246D02*
X67651964Y-108865543D01*
X67651964Y-108865543D02*
X67660125Y-108848968D01*
X71157105Y-106280731D02*
X71098700Y-106307991D01*
X71098700Y-106307991D02*
X71042722Y-106339928D01*
X71042722Y-106339928D02*
X70992235Y-106369634D01*
X70692053Y-106468241D02*
X70662071Y-106524580D01*
X70662071Y-106524580D02*
X70640078Y-106584791D01*
X70640078Y-106584791D02*
X70637288Y-106592838D01*
X70857495Y-106426298D02*
X70793806Y-106434323D01*
X70793806Y-106434323D02*
X70779058Y-106432211D01*
X67798015Y-109308188D02*
X67843408Y-109283656D01*
X67660125Y-108848968D02*
X67664605Y-108786051D01*
X70678563Y-106724803D02*
X70729152Y-106687417D01*
X70729152Y-106687417D02*
X70777900Y-106647555D01*
X70777900Y-106647555D02*
X70800255Y-106628978D01*
X67495933Y-108665478D02*
X67485463Y-108665921D01*
X67843408Y-109283656D02*
X67866953Y-109225195D01*
X67866953Y-109225195D02*
X67866375Y-109192068D01*
X67100958Y-108856546D02*
X67119623Y-108788803D01*
X67119623Y-108788803D02*
X67147094Y-108724122D01*
X67147094Y-108724122D02*
X67182911Y-108663674D01*
X67182911Y-108663674D02*
X67206245Y-108632353D01*
X67485463Y-108665921D02*
X67485463Y-108665921D01*
X69995908Y-109147901D02*
X69943066Y-109186166D01*
X69943066Y-109186166D02*
X69931870Y-109214281D01*
X68747808Y-109863473D02*
X68748928Y-109878761D01*
X70234058Y-108527718D02*
X70285696Y-108573259D01*
X70285696Y-108573259D02*
X70331577Y-108624642D01*
X70331577Y-108624642D02*
X70370808Y-108681215D01*
X70370808Y-108681215D02*
X70402495Y-108742328D01*
X69889605Y-108408578D02*
X69958818Y-108413991D01*
X69958818Y-108413991D02*
X70026918Y-108427525D01*
X70026918Y-108427525D02*
X70092985Y-108448902D01*
X70092985Y-108448902D02*
X70156096Y-108477843D01*
X70156096Y-108477843D02*
X70215332Y-108514071D01*
X70215332Y-108514071D02*
X70234058Y-108527718D01*
X68412963Y-109738421D02*
X68402343Y-109676556D01*
X68402343Y-109676556D02*
X68410828Y-109622093D01*
X68404033Y-105436106D02*
X68404033Y-105436106D01*
X69175933Y-109620426D02*
X69176557Y-109684729D01*
X69176557Y-109684729D02*
X69158602Y-109746830D01*
X69158602Y-109746830D02*
X69151063Y-109763631D01*
X68410828Y-109622093D02*
X68448881Y-109572163D01*
X68448881Y-109572163D02*
X68466845Y-109560973D01*
X67872418Y-109471286D02*
X67811354Y-109489567D01*
X67811354Y-109489567D02*
X67748864Y-109501891D01*
X67748864Y-109501891D02*
X67685473Y-109508467D01*
X67685473Y-109508467D02*
X67621704Y-109509499D01*
X67621704Y-109509499D02*
X67558083Y-109505197D01*
X67558083Y-109505197D02*
X67537000Y-109502613D01*
X68140775Y-109264698D02*
X68101599Y-109316049D01*
X68101599Y-109316049D02*
X68056385Y-109362116D01*
X68056385Y-109362116D02*
X68005939Y-109402413D01*
X68005939Y-109402413D02*
X67951068Y-109436457D01*
X67951068Y-109436457D02*
X67892579Y-109463764D01*
X67892579Y-109463764D02*
X67872418Y-109471286D01*
X67097730Y-109044958D02*
X67090521Y-108980278D01*
X67090521Y-108980278D02*
X67092285Y-108915159D01*
X67092285Y-108915159D02*
X67100958Y-108856546D01*
X68829683Y-109998996D02*
X68765264Y-110003480D01*
X68765264Y-110003480D02*
X68708770Y-109995323D01*
X68803823Y-109524488D02*
X68803823Y-109524488D01*
X67185620Y-109264698D02*
X67152765Y-109206371D01*
X67152765Y-109206371D02*
X67125872Y-109145063D01*
X67125872Y-109145063D02*
X67105722Y-109081278D01*
X67105722Y-109081278D02*
X67097730Y-109044958D01*
X67360413Y-109444073D02*
X67308883Y-109407582D01*
X67308883Y-109407582D02*
X67262556Y-109364707D01*
X67262556Y-109364707D02*
X67221459Y-109316671D01*
X67221459Y-109316671D02*
X67185620Y-109264698D01*
X67537000Y-109502613D02*
X67473771Y-109490416D01*
X67473771Y-109490416D02*
X67412539Y-109470627D01*
X67412539Y-109470627D02*
X67360413Y-109444073D01*
X68466845Y-109560973D02*
X68526590Y-109541703D01*
X68526590Y-109541703D02*
X68581505Y-109533733D01*
X68227573Y-108985948D02*
X68222049Y-109050383D01*
X68222049Y-109050383D02*
X68208995Y-109113748D01*
X68208995Y-109113748D02*
X68188399Y-109175031D01*
X68188399Y-109175031D02*
X68160253Y-109233222D01*
X68160253Y-109233222D02*
X68140775Y-109264698D01*
X68924163Y-109893814D02*
X68963875Y-109862016D01*
X68708770Y-109995323D02*
X68646323Y-109975913D01*
X68646323Y-109975913D02*
X68587319Y-109947692D01*
X68587319Y-109947692D02*
X68538120Y-109914228D01*
X68142913Y-108682433D02*
X68176225Y-108743820D01*
X68176225Y-108743820D02*
X68201881Y-108808877D01*
X68201881Y-108808877D02*
X68219149Y-108876594D01*
X68219149Y-108876594D02*
X68227295Y-108945959D01*
X68227295Y-108945959D02*
X68227573Y-108985948D01*
X67981715Y-108508188D02*
X68033430Y-108550980D01*
X68033430Y-108550980D02*
X68080389Y-108598942D01*
X68080389Y-108598942D02*
X68122138Y-108651483D01*
X68122138Y-108651483D02*
X68142913Y-108682433D01*
X67684448Y-108406131D02*
X67754001Y-108412424D01*
X67754001Y-108412424D02*
X67822134Y-108427840D01*
X67822134Y-108427840D02*
X67887546Y-108452210D01*
X67887546Y-108452210D02*
X67948939Y-108485364D01*
X67948939Y-108485364D02*
X67981715Y-108508188D01*
X69995908Y-109147901D02*
X69995908Y-109147901D01*
X70283250Y-109357953D02*
X70234174Y-109404889D01*
X70234174Y-109404889D02*
X70181890Y-109448194D01*
X70181890Y-109448194D02*
X70129995Y-109481546D01*
X70402495Y-108742328D02*
X70425649Y-108806445D01*
X70425649Y-108806445D02*
X70440311Y-108872946D01*
X70440311Y-108872946D02*
X70447360Y-108940784D01*
X70447360Y-108940784D02*
X70447678Y-109008916D01*
X68748928Y-109878761D02*
X68778928Y-109904958D01*
X68940333Y-109782041D02*
X68874290Y-109793455D01*
X68874290Y-109793455D02*
X68811291Y-109816638D01*
X68811291Y-109816638D02*
X68794005Y-109824881D01*
X69817990Y-108697718D02*
X69758756Y-108671519D01*
X69758756Y-108671519D02*
X69724840Y-108668161D01*
X69891505Y-108815166D02*
X69869486Y-108752505D01*
X69869486Y-108752505D02*
X69825271Y-108702891D01*
X69825271Y-108702891D02*
X69817990Y-108697718D01*
X69493510Y-109372458D02*
X69450625Y-109321403D01*
X69450625Y-109321403D02*
X69414572Y-109265346D01*
X69414572Y-109265346D02*
X69385442Y-109205338D01*
X69385442Y-109205338D02*
X69363328Y-109142433D01*
X69354735Y-108817746D02*
X69375581Y-108754349D01*
X69375581Y-108754349D02*
X69403634Y-108693783D01*
X69403634Y-108693783D02*
X69438612Y-108636942D01*
X69438612Y-108636942D02*
X69480230Y-108584723D01*
X68982833Y-109806808D02*
X68973588Y-109787848D01*
X69152625Y-109569098D02*
X69175933Y-109620426D01*
X69850620Y-108930506D02*
X69884519Y-108877436D01*
X69884519Y-108877436D02*
X69891505Y-108815166D01*
X69607730Y-108740218D02*
X69581953Y-108798468D01*
X69581953Y-108798468D02*
X69573343Y-108861598D01*
X69573343Y-108861598D02*
X69578043Y-108903838D01*
X69724838Y-108668161D02*
X69661040Y-108686926D01*
X69661040Y-108686926D02*
X69612447Y-108732602D01*
X69612447Y-108732602D02*
X69607730Y-108740218D01*
X69363328Y-109142433D02*
X69346689Y-109072546D01*
X69346689Y-109072546D02*
X69338001Y-109001164D01*
X69338001Y-109001164D02*
X69337629Y-108929287D01*
X69337629Y-108929287D02*
X69345943Y-108857916D01*
X69345943Y-108857916D02*
X69354735Y-108817746D01*
X69889605Y-108408578D02*
X69889605Y-108408578D01*
X70091610Y-109263241D02*
X70089857Y-109199983D01*
X70089857Y-109199983D02*
X70080020Y-109184723D01*
X69480230Y-108584723D02*
X69530068Y-108535597D01*
X69530068Y-108535597D02*
X69586015Y-108493563D01*
X69586015Y-108493563D02*
X69647193Y-108459617D01*
X69647193Y-108459617D02*
X69683120Y-108444621D01*
X68963875Y-109862016D02*
X68982833Y-109806808D01*
X70028145Y-109324386D02*
X70079265Y-109285397D01*
X70079265Y-109285397D02*
X70091610Y-109263241D01*
X69965568Y-109314776D02*
X70028145Y-109324386D01*
X68581505Y-109533733D02*
X68643907Y-109528254D01*
X68643907Y-109528254D02*
X68706441Y-109525344D01*
X68706441Y-109525344D02*
X68769041Y-109524393D01*
X68769041Y-109524393D02*
X68803823Y-109524488D01*
X68940333Y-109782041D02*
X68940333Y-109782041D01*
X68973588Y-109787848D02*
X68940333Y-109782041D01*
X68794005Y-109824881D02*
X68747808Y-109863473D01*
X68538120Y-109914228D02*
X68488348Y-109867406D01*
X68488348Y-109867406D02*
X68447386Y-109812697D01*
X68447386Y-109812697D02*
X68417437Y-109751369D01*
X68417437Y-109751369D02*
X68412963Y-109738421D01*
X69683120Y-108444621D02*
X69745967Y-108424890D01*
X69745967Y-108424890D02*
X69810708Y-108412750D01*
X69810708Y-108412750D02*
X69876424Y-108408468D01*
X69876424Y-108408468D02*
X69889605Y-108408578D01*
X69151063Y-109763631D02*
X69119689Y-109818946D01*
X69119689Y-109818946D02*
X69079722Y-109868438D01*
X69079722Y-109868438D02*
X69032059Y-109910395D01*
X69032059Y-109910395D02*
X68977600Y-109943108D01*
X70412963Y-109193083D02*
X70379189Y-109249504D01*
X70379189Y-109249504D02*
X70337885Y-109300743D01*
X70337885Y-109300743D02*
X70292509Y-109348620D01*
X70292509Y-109348620D02*
X70283250Y-109357953D01*
X69653458Y-109481208D02*
X69593087Y-109452332D01*
X69593087Y-109452332D02*
X69538260Y-109413799D01*
X69538260Y-109413799D02*
X69493510Y-109372458D01*
X69800255Y-109511313D02*
X69735329Y-109501672D01*
X69735329Y-109501672D02*
X69671379Y-109486859D01*
X69671379Y-109486859D02*
X69653458Y-109481208D01*
X68778928Y-109904958D02*
X68843139Y-109912192D01*
X68843139Y-109912192D02*
X68906819Y-109900206D01*
X68906819Y-109900206D02*
X68924163Y-109893814D01*
X69992547Y-109519568D02*
X69926370Y-109520981D01*
X69926370Y-109520981D02*
X69860212Y-109517414D01*
X69860212Y-109517414D02*
X69800255Y-109511313D01*
X70447678Y-109008916D02*
X70443595Y-109073646D01*
X70443595Y-109073646D02*
X70432617Y-109137541D01*
X70432617Y-109137541D02*
X70412963Y-109193083D01*
X69716480Y-108986728D02*
X69780052Y-108973814D01*
X69780052Y-108973814D02*
X69836794Y-108942983D01*
X69836794Y-108942983D02*
X69850620Y-108930506D01*
X70129995Y-109481546D02*
X70071987Y-109505584D01*
X70071987Y-109505584D02*
X70010461Y-109518129D01*
X70010461Y-109518129D02*
X69992547Y-109519568D01*
X68977600Y-109943108D02*
X68919205Y-109970383D01*
X68919205Y-109970383D02*
X68858592Y-109992044D01*
X68858592Y-109992044D02*
X68829683Y-109998996D01*
X69608510Y-108958058D02*
X69666585Y-108984372D01*
X69666585Y-108984372D02*
X69716480Y-108986728D01*
X69578043Y-108903838D02*
X69608510Y-108958058D01*
X70080020Y-109184723D02*
X70025839Y-109148766D01*
X70025839Y-109148766D02*
X69995908Y-109147901D01*
X69931870Y-109214281D02*
X69937739Y-109279486D01*
X69937739Y-109279486D02*
X69965568Y-109314776D01*
X69885595Y-106564506D02*
X69918650Y-106508076D01*
X69918650Y-106508076D02*
X69956431Y-106454652D01*
X69956431Y-106454652D02*
X69996366Y-106402685D01*
X69996366Y-106402685D02*
X70018538Y-106373873D01*
X70216663Y-106376438D02*
X70170364Y-106419877D01*
X70170364Y-106419877D02*
X70135333Y-106454853D01*
X70481793Y-107023396D02*
X70465222Y-106963107D01*
X70465222Y-106963107D02*
X70449839Y-106902451D01*
X70449839Y-106902451D02*
X70434927Y-106841654D01*
X70434927Y-106841654D02*
X70426583Y-106807901D01*
X70579528Y-107131156D02*
X70520979Y-107109159D01*
X70520979Y-107109159D02*
X70516817Y-107103838D01*
X70695308Y-107339203D02*
X70727793Y-107283963D01*
X70727793Y-107283963D02*
X70757618Y-107227318D01*
X70757618Y-107227318D02*
X70774058Y-107187928D01*
X70712130Y-107112093D02*
X70649985Y-107121079D01*
X70649985Y-107121079D02*
X70587911Y-107130693D01*
X70587911Y-107130693D02*
X70579528Y-107131156D01*
X70736793Y-107547223D02*
X70699962Y-107601456D01*
X70699962Y-107601456D02*
X70664293Y-107646833D01*
X70774058Y-107187928D02*
X70779293Y-107136521D01*
X69088250Y-109547693D02*
X69148964Y-109566887D01*
X69148964Y-109566887D02*
X69152625Y-109569098D01*
X68803823Y-109524488D02*
X68875206Y-109526397D01*
X68875206Y-109526397D02*
X68937628Y-109529570D01*
X68937628Y-109529570D02*
X69008748Y-109535881D01*
X69008748Y-109535881D02*
X69070642Y-109544563D01*
X69070642Y-109544563D02*
X69088250Y-109547693D01*
X66859683Y-110311781D02*
X66859683Y-110311781D01*
X70609630Y-107664671D02*
X70594918Y-107610348D01*
X69477783Y-105975653D02*
X69415766Y-105983823D01*
X69415766Y-105983823D02*
X69355032Y-105999072D01*
X69355032Y-105999072D02*
X69296677Y-106021562D01*
X69296677Y-106021562D02*
X69234304Y-106056336D01*
X69234304Y-106056336D02*
X69212418Y-106071918D01*
X70111350Y-106110176D02*
X70058546Y-106073542D01*
X70058546Y-106073542D02*
X70002735Y-106041661D01*
X70002735Y-106041661D02*
X69964553Y-106022281D01*
X70152418Y-106172643D02*
X70149840Y-106147211D01*
X70516817Y-107103838D02*
X70489587Y-107046932D01*
X70489587Y-107046932D02*
X70481793Y-107023396D01*
X70779293Y-107136521D02*
X70765360Y-107120348D01*
X69827130Y-106003538D02*
X69810210Y-106064211D01*
X69810210Y-106064211D02*
X69796222Y-106125663D01*
X69796222Y-106125663D02*
X69789760Y-106154016D01*
X70299528Y-106373091D02*
X70265515Y-106351341D01*
X70594918Y-107610348D02*
X70604256Y-107547412D01*
X70604256Y-107547412D02*
X70616323Y-107505506D01*
X68474423Y-105442798D02*
X68410669Y-105436092D01*
X68410669Y-105436092D02*
X68404033Y-105436106D01*
X69873095Y-106635336D02*
X69867520Y-106624293D01*
X68524500Y-105490876D02*
X68480748Y-105445175D01*
X68480748Y-105445175D02*
X68474423Y-105442798D01*
X68808720Y-106579451D02*
X68776593Y-106523060D01*
X68776593Y-106523060D02*
X68761663Y-106480956D01*
X68829578Y-106579786D02*
X68817860Y-106584358D01*
X68556403Y-105573976D02*
X68535565Y-105513423D01*
X68535565Y-105513423D02*
X68524500Y-105490876D01*
X68899735Y-106493226D02*
X68862534Y-106543808D01*
X68862534Y-106543808D02*
X68829578Y-106579786D01*
X69889265Y-106640801D02*
X69873095Y-106635336D01*
X68610283Y-105809673D02*
X68596620Y-105743065D01*
X68596620Y-105743065D02*
X68582113Y-105676621D01*
X68582113Y-105676621D02*
X68566139Y-105610505D01*
X68566139Y-105610505D02*
X68556403Y-105573976D01*
X68692938Y-106220721D02*
X68679008Y-106156690D01*
X68679008Y-106156690D02*
X68665748Y-106092524D01*
X68665748Y-106092524D02*
X68652957Y-106028264D01*
X68652957Y-106028264D02*
X68640435Y-105963955D01*
X68640435Y-105963955D02*
X68627983Y-105899641D01*
X68627983Y-105899641D02*
X68615398Y-105835363D01*
X68615398Y-105835363D02*
X68610283Y-105809673D01*
X70018538Y-106373873D02*
X70056057Y-106323828D01*
X70056057Y-106323828D02*
X70092160Y-106272806D01*
X70092160Y-106272806D02*
X70115360Y-106238231D01*
X69212418Y-106071918D02*
X69159188Y-106116596D01*
X69159188Y-106116596D02*
X69111063Y-106166562D01*
X69111063Y-106166562D02*
X69067785Y-106220891D01*
X69067785Y-106220891D02*
X69029097Y-106278658D01*
X69029097Y-106278658D02*
X69008953Y-106312856D01*
X68761663Y-106480956D02*
X68741966Y-106416593D01*
X68741966Y-106416593D02*
X68724331Y-106351633D01*
X68724331Y-106351633D02*
X68708180Y-106286276D01*
X68708180Y-106286276D02*
X68692938Y-106220721D01*
X68817860Y-106584358D02*
X68808720Y-106579451D01*
X69619215Y-106013133D02*
X69601140Y-105990823D01*
X69008953Y-106312856D02*
X68976581Y-106370286D01*
X68976581Y-106370286D02*
X68942936Y-106426970D01*
X68942936Y-106426970D02*
X68907203Y-106482353D01*
X68907203Y-106482353D02*
X68899735Y-106493226D01*
X69524500Y-107367198D02*
X69512235Y-107380011D01*
X70149840Y-106147211D02*
X70111350Y-106110176D01*
X69866168Y-105985468D02*
X69836168Y-105986919D01*
X70115360Y-106238231D02*
X70147565Y-106183372D01*
X70147565Y-106183372D02*
X70152418Y-106172643D01*
X70426583Y-106807901D02*
X70409515Y-106737874D01*
X70409515Y-106737874D02*
X70392441Y-106667839D01*
X70392441Y-106667839D02*
X70374930Y-106597914D01*
X70374930Y-106597914D02*
X70356549Y-106528218D01*
X70356549Y-106528218D02*
X70345490Y-106488541D01*
X69601140Y-105990823D02*
X69536795Y-105974580D01*
X69536795Y-105974580D02*
X69477783Y-105975653D01*
X69789760Y-106154016D02*
X69774123Y-106225903D01*
X69774123Y-106225903D02*
X69759018Y-106297877D01*
X69759018Y-106297877D02*
X69744338Y-106369926D01*
X69744338Y-106369926D02*
X69729976Y-106442044D01*
X69729976Y-106442044D02*
X69715827Y-106514220D01*
X69715827Y-106514220D02*
X69711140Y-106538291D01*
X70265515Y-106351341D02*
X70216663Y-106376438D01*
X70765360Y-107120348D02*
X70712130Y-107112093D01*
X69617208Y-106050391D02*
X69619215Y-106013133D01*
X69482130Y-107344646D02*
X69478869Y-107280866D01*
X69478869Y-107280866D02*
X69480908Y-107237121D01*
X69568355Y-106466681D02*
X69576279Y-106401679D01*
X69576279Y-106401679D02*
X69584140Y-106336661D01*
X69584140Y-106336661D02*
X69591906Y-106271626D01*
X69591906Y-106271626D02*
X69599549Y-106206576D01*
X69599549Y-106206576D02*
X69607038Y-106141510D01*
X69607038Y-106141510D02*
X69614344Y-106076428D01*
X69614344Y-106076428D02*
X69617208Y-106050391D01*
X70616323Y-107505506D02*
X70638950Y-107446270D01*
X70638950Y-107446270D02*
X70666692Y-107389252D01*
X70666692Y-107389252D02*
X70695308Y-107339203D01*
X69867520Y-106624293D02*
X69885595Y-106564506D01*
X70664293Y-107646833D02*
X70634058Y-107672276D01*
X69509683Y-106946103D02*
X69518547Y-106871148D01*
X69518547Y-106871148D02*
X69527633Y-106796228D01*
X69527633Y-106796228D02*
X69536867Y-106721330D01*
X69536867Y-106721330D02*
X69546174Y-106646442D01*
X69546174Y-106646442D02*
X69555477Y-106571552D01*
X69555477Y-106571552D02*
X69564703Y-106496649D01*
X69564703Y-106496649D02*
X69568355Y-106466681D01*
X69480908Y-107237121D02*
X69485660Y-107173335D01*
X69485660Y-107173335D02*
X69491620Y-107109632D01*
X69491620Y-107109632D02*
X69498386Y-107045998D01*
X69498386Y-107045998D02*
X69505557Y-106982416D01*
X69505557Y-106982416D02*
X69509683Y-106946103D01*
X69496505Y-107376001D02*
X69482130Y-107344646D01*
X69659918Y-106806546D02*
X69646222Y-106875451D01*
X69646222Y-106875451D02*
X69632139Y-106944299D01*
X69632139Y-106944299D02*
X69617558Y-107013054D01*
X69617558Y-107013054D02*
X69602369Y-107081676D01*
X69602369Y-107081676D02*
X69586463Y-107150129D01*
X69586463Y-107150129D02*
X69569731Y-107218375D01*
X69569731Y-107218375D02*
X69562783Y-107245608D01*
X69836168Y-105986919D02*
X69827130Y-106003538D01*
X70135333Y-106454853D02*
X70089354Y-106499646D01*
X70089354Y-106499646D02*
X70041956Y-106543013D01*
X70041956Y-106543013D02*
X69992301Y-106583690D01*
X69992301Y-106583690D02*
X69963433Y-106604661D01*
X70345490Y-106488541D02*
X70325202Y-106425367D01*
X70325202Y-106425367D02*
X70299528Y-106373091D01*
X69562783Y-107245608D02*
X69545818Y-107307106D01*
X69545818Y-107307106D02*
X69524500Y-107367198D01*
X70634058Y-107672276D02*
X70609630Y-107664671D01*
X69963433Y-106604661D02*
X69906925Y-106636429D01*
X69906925Y-106636429D02*
X69889265Y-106640801D01*
X69512235Y-107380011D02*
X69496505Y-107376001D01*
X69711140Y-106538291D02*
X69698335Y-106605339D01*
X69698335Y-106605339D02*
X69685617Y-106672428D01*
X69685617Y-106672428D02*
X69672854Y-106739512D01*
X69672854Y-106739512D02*
X69659918Y-106806546D01*
X69964553Y-106022281D02*
X69903996Y-105996606D01*
X69903996Y-105996606D02*
X69866168Y-105985468D01*
X70205958Y-110079646D02*
X70256675Y-110030356D01*
X70256675Y-110030356D02*
X70304523Y-109978255D01*
X70304523Y-109978255D02*
X70349156Y-109923386D01*
X70349156Y-109923386D02*
X70390232Y-109865793D01*
X70390232Y-109865793D02*
X70411975Y-109831678D01*
X66988850Y-107292458D02*
X66979475Y-107354358D01*
X66757495Y-106987823D02*
X66733053Y-107048324D01*
X66733053Y-107048324D02*
X66718361Y-107112107D01*
X66718361Y-107112107D02*
X66711323Y-107155141D01*
X67302520Y-107400766D02*
X67285876Y-107333942D01*
X67285876Y-107333942D02*
X67271635Y-107266553D01*
X67271635Y-107266553D02*
X67258550Y-107198889D01*
X67258550Y-107198889D02*
X67251323Y-107161286D01*
X66885230Y-107199646D02*
X66872218Y-107136666D01*
X66872218Y-107136666D02*
X66861854Y-107073171D01*
X66861854Y-107073171D02*
X66852548Y-107015376D01*
X66803250Y-106930608D02*
X66762085Y-106979854D01*
X66762085Y-106979854D02*
X66757495Y-106987823D01*
X66852548Y-107015376D02*
X66838304Y-106953962D01*
X66838304Y-106953962D02*
X66833250Y-106940296D01*
X66980933Y-106709958D02*
X66969995Y-106745531D01*
X67116350Y-109775011D02*
X67147641Y-109835564D01*
X67147641Y-109835564D02*
X67182778Y-109894005D01*
X67182778Y-109894005D02*
X67222012Y-109949727D01*
X67222012Y-109949727D02*
X67265595Y-110002121D01*
X70674890Y-108921363D02*
X70687660Y-108858484D01*
X70687660Y-108858484D02*
X70700425Y-108795599D01*
X70700425Y-108795599D02*
X70713281Y-108732725D01*
X70713281Y-108732725D02*
X70726322Y-108669879D01*
X70726322Y-108669879D02*
X70739643Y-108607077D01*
X70739643Y-108607077D02*
X70744163Y-108586156D01*
X66873408Y-108891363D02*
X66887251Y-108958781D01*
X66887251Y-108958781D02*
X66901263Y-109026171D01*
X66901263Y-109026171D02*
X66915555Y-109093503D01*
X66915555Y-109093503D02*
X66930242Y-109160745D01*
X66930242Y-109160745D02*
X66945436Y-109227867D01*
X66945436Y-109227867D02*
X66961252Y-109294840D01*
X66961252Y-109294840D02*
X66977803Y-109361632D01*
X66977803Y-109361632D02*
X66995203Y-109428213D01*
X66969995Y-107363733D02*
X66952158Y-107360063D01*
X70962000Y-107686001D02*
X70925985Y-107713526D01*
X69798693Y-110342121D02*
X69867238Y-110309312D01*
X69867238Y-110309312D02*
X69934413Y-110273649D01*
X69934413Y-110273649D02*
X69999913Y-110235005D01*
X69999913Y-110235005D02*
X70063430Y-110193256D01*
X70063430Y-110193256D02*
X70124660Y-110148278D01*
X70124660Y-110148278D02*
X70183297Y-110099945D01*
X70183297Y-110099945D02*
X70205958Y-110079646D01*
X70861505Y-108082746D02*
X70878236Y-108020136D01*
X70878236Y-108020136D02*
X70896409Y-107957958D01*
X70896409Y-107957958D02*
X70915255Y-107902171D01*
X66966533Y-106913968D02*
X66970494Y-106984938D01*
X66970494Y-106984938D02*
X66976225Y-107055833D01*
X66976225Y-107055833D02*
X66982225Y-107126718D01*
X66982225Y-107126718D02*
X66986995Y-107197661D01*
X66986995Y-107197661D02*
X66989035Y-107268729D01*
X66989035Y-107268729D02*
X66988850Y-107292458D01*
X66833250Y-106940296D02*
X66817625Y-106925688D01*
X66995203Y-109428213D02*
X67013774Y-109494629D01*
X67013774Y-109494629D02*
X67033754Y-109560678D01*
X67033754Y-109560678D02*
X67055597Y-109626112D01*
X67055597Y-109626112D02*
X67079754Y-109690684D01*
X67079754Y-109690684D02*
X67106681Y-109754146D01*
X67106681Y-109754146D02*
X67116350Y-109775011D01*
X67053433Y-106731703D02*
X66995985Y-106702933D01*
X66952158Y-107360063D02*
X66927288Y-107323473D01*
X70852913Y-107364516D02*
X70814036Y-107419870D01*
X70814036Y-107419870D02*
X70779152Y-107477885D01*
X70779152Y-107477885D02*
X70744163Y-107535867D01*
X70744163Y-107535867D02*
X70736793Y-107547223D01*
X70700437Y-107992746D02*
X70714550Y-107927060D01*
X70714550Y-107927060D02*
X70730611Y-107861792D01*
X70730611Y-107861792D02*
X70748475Y-107796978D01*
X70748475Y-107796978D02*
X70767997Y-107732654D01*
X70767997Y-107732654D02*
X70779840Y-107696131D01*
X70688823Y-108177353D02*
X70682573Y-108116781D01*
X70697520Y-108185271D02*
X70688823Y-108177353D01*
X68555958Y-110533318D02*
X68623730Y-110538020D01*
X68623730Y-110538020D02*
X68691596Y-110541251D01*
X68691596Y-110541251D02*
X68759521Y-110542993D01*
X68759521Y-110542993D02*
X68827470Y-110543228D01*
X68827470Y-110543228D02*
X68895409Y-110541938D01*
X68895409Y-110541938D02*
X68963301Y-110539105D01*
X68963301Y-110539105D02*
X68990438Y-110537536D01*
X70478563Y-109693578D02*
X70499526Y-109630194D01*
X70499526Y-109630194D02*
X70518956Y-109566349D01*
X70518956Y-109566349D02*
X70537178Y-109502142D01*
X70537178Y-109502142D02*
X70554522Y-109437670D01*
X70554522Y-109437670D02*
X70571313Y-109373033D01*
X70571313Y-109373033D02*
X70576845Y-109351468D01*
X70860933Y-107839021D02*
X70836918Y-107899991D01*
X70836918Y-107899991D02*
X70814804Y-107961727D01*
X70814804Y-107961727D02*
X70800385Y-108003006D01*
X66711323Y-107155141D02*
X66703162Y-107226184D01*
X66703162Y-107226184D02*
X66698267Y-107297527D01*
X66698267Y-107297527D02*
X66695926Y-107369050D01*
X66695926Y-107369050D02*
X66695428Y-107440634D01*
X66695428Y-107440634D02*
X66695698Y-107481521D01*
X68990438Y-110537536D02*
X69053713Y-110532827D01*
X69053713Y-110532827D02*
X69116865Y-110526582D01*
X69116865Y-110526582D02*
X69179834Y-110518723D01*
X69179834Y-110518723D02*
X69242561Y-110509170D01*
X69242561Y-110509170D02*
X69304987Y-110497846D01*
X69304987Y-110497846D02*
X69367052Y-110484671D01*
X69367052Y-110484671D02*
X69391765Y-110478866D01*
X68024890Y-110443188D02*
X68090224Y-110459844D01*
X68090224Y-110459844D02*
X68155946Y-110474878D01*
X68155946Y-110474878D02*
X68222010Y-110488331D01*
X68222010Y-110488331D02*
X68288373Y-110500245D01*
X68288373Y-110500245D02*
X68354993Y-110510659D01*
X68354993Y-110510659D02*
X68421826Y-110519616D01*
X68421826Y-110519616D02*
X68488829Y-110527155D01*
X68488829Y-110527155D02*
X68555958Y-110533318D01*
X70907913Y-107317666D02*
X70858715Y-107357522D01*
X70858715Y-107357522D02*
X70852913Y-107364516D01*
X66995985Y-106702933D02*
X66980933Y-106709958D01*
X67518145Y-110220766D02*
X67573997Y-110258079D01*
X67573997Y-110258079D02*
X67632034Y-110291902D01*
X67632034Y-110291902D02*
X67671845Y-110312458D01*
X70917833Y-107320791D02*
X70907913Y-107317666D01*
X67251323Y-107161286D02*
X67237115Y-107100166D01*
X67237115Y-107100166D02*
X67220345Y-107039636D01*
X67220345Y-107039636D02*
X67200638Y-106980028D01*
X67200638Y-106980028D02*
X67177616Y-106921674D01*
X67177616Y-106921674D02*
X67150904Y-106864904D01*
X67150904Y-106864904D02*
X67141115Y-106846391D01*
X66785178Y-108404333D02*
X66797445Y-108480684D01*
X66797445Y-108480684D02*
X66810289Y-108556949D01*
X66810289Y-108556949D02*
X66823701Y-108633123D01*
X66823701Y-108633123D02*
X66837670Y-108709201D01*
X66837670Y-108709201D02*
X66852186Y-108785177D01*
X66852186Y-108785177D02*
X66867238Y-108861046D01*
X66867238Y-108861046D02*
X66873408Y-108891363D01*
X70923640Y-107332718D02*
X70917833Y-107320791D01*
X70903668Y-107421391D02*
X70921748Y-107361197D01*
X70921748Y-107361197D02*
X70923640Y-107332718D01*
X70852365Y-107517771D02*
X70884774Y-107461522D01*
X70884774Y-107461522D02*
X70903668Y-107421391D01*
X70779840Y-107696131D02*
X70801874Y-107633635D01*
X70801874Y-107633635D02*
X70826456Y-107572109D01*
X70826456Y-107572109D02*
X70852365Y-107517771D01*
X70682573Y-108116781D02*
X70689582Y-108054509D01*
X70689582Y-108054509D02*
X70700437Y-107992746D01*
X67265595Y-110002121D02*
X67308785Y-110047659D01*
X67308785Y-110047659D02*
X67354372Y-110090741D01*
X67354372Y-110090741D02*
X67401928Y-110131691D01*
X67401928Y-110131691D02*
X67451025Y-110170832D01*
X67451025Y-110170832D02*
X67501234Y-110208488D01*
X67501234Y-110208488D02*
X67518145Y-110220766D01*
X66969995Y-106745531D02*
X66965383Y-106808594D01*
X66965383Y-106808594D02*
X66965272Y-106871844D01*
X66965272Y-106871844D02*
X66966533Y-106913968D01*
X66817625Y-106925688D02*
X66803250Y-106930608D01*
X67141115Y-106846391D02*
X67107526Y-106792470D01*
X67107526Y-106792470D02*
X67066769Y-106744001D01*
X67066769Y-106744001D02*
X67053433Y-106731703D01*
X70800385Y-108003006D02*
X70776522Y-108064480D01*
X70776522Y-108064480D02*
X70748303Y-108124034D01*
X70748303Y-108124034D02*
X70725515Y-108161626D01*
X70971480Y-107734853D02*
X70978510Y-107695478D01*
X67346350Y-107500608D02*
X67315341Y-107443647D01*
X67315341Y-107443647D02*
X67302520Y-107400766D01*
X66927288Y-107323473D02*
X66902947Y-107262722D01*
X66902947Y-107262722D02*
X66885230Y-107199646D01*
X70725515Y-108161626D02*
X70697520Y-108185271D01*
X70576845Y-109351468D02*
X70593461Y-109284582D01*
X70593461Y-109284582D02*
X70609564Y-109217572D01*
X70609564Y-109217572D02*
X70625175Y-109150441D01*
X70625175Y-109150441D02*
X70640318Y-109083195D01*
X70640318Y-109083195D02*
X70655015Y-109015839D01*
X70655015Y-109015839D02*
X70669292Y-108948376D01*
X70669292Y-108948376D02*
X70674890Y-108921363D01*
X66711323Y-107792171D02*
X66717869Y-107868978D01*
X66717869Y-107868978D02*
X66725272Y-107945708D01*
X66725272Y-107945708D02*
X66733487Y-108022358D01*
X66733487Y-108022358D02*
X66742469Y-108098925D01*
X66742469Y-108098925D02*
X66752174Y-108175409D01*
X66752174Y-108175409D02*
X66762556Y-108251806D01*
X66762556Y-108251806D02*
X66773572Y-108328115D01*
X66773572Y-108328115D02*
X66785178Y-108404333D01*
X69391765Y-110478866D02*
X69456927Y-110462512D01*
X69456927Y-110462512D02*
X69521639Y-110444445D01*
X69521639Y-110444445D02*
X69585808Y-110424566D01*
X69585808Y-110424566D02*
X69649344Y-110402779D01*
X69649344Y-110402779D02*
X69712153Y-110378986D01*
X69712153Y-110378986D02*
X69774145Y-110353090D01*
X69774145Y-110353090D02*
X69798693Y-110342121D01*
X67359395Y-107503161D02*
X67346350Y-107500608D01*
X67372235Y-107478968D02*
X67359395Y-107503161D01*
X67671845Y-110312458D02*
X67735791Y-110342618D01*
X67735791Y-110342618D02*
X67800996Y-110369896D01*
X67800996Y-110369896D02*
X67867260Y-110394539D01*
X67867260Y-110394539D02*
X67934387Y-110416795D01*
X67934387Y-110416795D02*
X68002179Y-110436914D01*
X68002179Y-110436914D02*
X68024890Y-110443188D01*
X66695698Y-107481521D02*
X66697313Y-107549574D01*
X66697313Y-107549574D02*
X66700035Y-107617566D01*
X66700035Y-107617566D02*
X66703750Y-107685504D01*
X66703750Y-107685504D02*
X66708345Y-107753395D01*
X66708345Y-107753395D02*
X66711323Y-107792171D01*
X70915255Y-107902171D02*
X70937318Y-107839728D01*
X70937318Y-107839728D02*
X70958604Y-107777037D01*
X70958604Y-107777037D02*
X70971480Y-107734853D01*
X70744163Y-108586156D02*
X70757880Y-108523009D01*
X70757880Y-108523009D02*
X70771794Y-108459905D01*
X70771794Y-108459905D02*
X70785942Y-108396853D01*
X70785942Y-108396853D02*
X70800362Y-108333864D01*
X70800362Y-108333864D02*
X70815090Y-108270949D01*
X70815090Y-108270949D02*
X70830165Y-108208117D01*
X70830165Y-108208117D02*
X70845624Y-108145379D01*
X70845624Y-108145379D02*
X70861505Y-108082746D01*
X66979475Y-107354358D02*
X66969995Y-107363733D01*
X70925985Y-107713526D02*
X70891984Y-107770388D01*
X70891984Y-107770388D02*
X70864498Y-107830918D01*
X70864498Y-107830918D02*
X70860933Y-107839021D01*
X70411975Y-109831678D02*
X70444997Y-109773137D01*
X70444997Y-109773137D02*
X70472273Y-109711752D01*
X70472273Y-109711752D02*
X70478563Y-109693578D01*
X70972833Y-107686651D02*
X70962000Y-107686001D01*
X70978510Y-107695478D02*
X70972833Y-107686651D01*
X68318250Y-106183576D02*
X68320656Y-106253333D01*
X68320656Y-106253333D02*
X68323133Y-106323100D01*
X68323133Y-106323100D02*
X68325783Y-106392867D01*
X68325783Y-106392867D02*
X68328706Y-106462628D01*
X68328706Y-106462628D02*
X68332003Y-106532374D01*
X68332003Y-106532374D02*
X68335777Y-106602099D01*
X68335777Y-106602099D02*
X68337443Y-106629981D01*
X70370595Y-110477641D02*
X70370595Y-110477641D01*
X68555515Y-107346001D02*
X68581225Y-107408423D01*
X68581225Y-107408423D02*
X68604223Y-107471908D01*
X68604223Y-107471908D02*
X68623642Y-107536521D01*
X68623642Y-107536521D02*
X68638615Y-107602328D01*
X68491818Y-107541313D02*
X68472860Y-107478075D01*
X68472860Y-107478075D02*
X68449156Y-107416517D01*
X68449156Y-107416517D02*
X68421220Y-107363501D01*
X67188850Y-110525166D02*
X67167890Y-110463751D01*
X67167890Y-110463751D02*
X67158408Y-110451886D01*
X66878303Y-110313343D02*
X66859683Y-110311781D01*
X66919370Y-110616626D02*
X66914215Y-110628344D01*
X67158408Y-110451886D02*
X67111147Y-110407426D01*
X67111147Y-110407426D02*
X67055865Y-110373187D01*
X67055865Y-110373187D02*
X67001793Y-110349151D01*
X68536115Y-107693786D02*
X68516077Y-107632464D01*
X68516077Y-107632464D02*
X68499317Y-107570142D01*
X68499317Y-107570142D02*
X68491818Y-107541313D01*
X68606038Y-107791183D02*
X68588303Y-107789488D01*
X68305543Y-105748098D02*
X68306799Y-105816168D01*
X68306799Y-105816168D02*
X68308507Y-105884225D01*
X68308507Y-105884225D02*
X68310543Y-105952271D01*
X68310543Y-105952271D02*
X68312783Y-106020307D01*
X68312783Y-106020307D02*
X68315103Y-106088338D01*
X68315103Y-106088338D02*
X68317379Y-106156365D01*
X68317379Y-106156365D02*
X68318250Y-106183576D01*
X66960308Y-110643291D02*
X67022991Y-110636658D01*
X67022991Y-110636658D02*
X67065255Y-110627901D01*
X68020750Y-106313413D02*
X68012288Y-106328251D01*
X68142130Y-105615026D02*
X68138120Y-105622501D01*
X68181715Y-106416818D02*
X68176900Y-106340881D01*
X68176900Y-106340881D02*
X68172419Y-106264914D01*
X68172419Y-106264914D02*
X68168303Y-106188919D01*
X68168303Y-106188919D02*
X68164590Y-106112900D01*
X68164590Y-106112900D02*
X68161311Y-106036858D01*
X68161311Y-106036858D02*
X68158503Y-105960797D01*
X68158503Y-105960797D02*
X68157520Y-105930368D01*
X68378380Y-107333161D02*
X68364318Y-107351468D01*
X67001793Y-110349151D02*
X66940681Y-110329157D01*
X66940681Y-110329157D02*
X66878303Y-110313343D01*
X68568225Y-107765063D02*
X68541451Y-107707436D01*
X68541451Y-107707436D02*
X68536115Y-107693786D01*
X68404033Y-105436106D02*
X68342567Y-105449967D01*
X68342567Y-105449967D02*
X68340908Y-105451276D01*
X67065255Y-110627901D02*
X67125179Y-110607415D01*
X67125179Y-110607415D02*
X67165543Y-110579698D01*
X67388953Y-107357146D02*
X67383103Y-107422297D01*
X67383103Y-107422297D02*
X67372235Y-107478968D01*
X68340908Y-105451276D02*
X68314547Y-105509800D01*
X68314547Y-105509800D02*
X68312443Y-105524673D01*
X67650543Y-105659421D02*
X67600693Y-105697824D01*
X67600693Y-105697824D02*
X67572235Y-105730253D01*
X67422313Y-106215813D02*
X67413784Y-106286956D01*
X67413784Y-106286956D02*
X67406818Y-106358250D01*
X67406818Y-106358250D02*
X67401258Y-106429669D01*
X67401258Y-106429669D02*
X67396946Y-106501183D01*
X67396946Y-106501183D02*
X67393726Y-106572764D01*
X67393726Y-106572764D02*
X67391438Y-106644385D01*
X67391438Y-106644385D02*
X67390750Y-106673038D01*
X68370360Y-106904386D02*
X68385796Y-106965342D01*
X68385796Y-106965342D02*
X68405607Y-107024967D01*
X68405607Y-107024967D02*
X68421323Y-107063786D01*
X68588303Y-107789488D02*
X68568225Y-107765063D01*
X67961635Y-105652171D02*
X67952601Y-105588252D01*
X67952601Y-105588252D02*
X67947600Y-105574201D01*
X67025333Y-110524151D02*
X66982600Y-110562433D01*
X67392548Y-107004098D02*
X67393746Y-107070303D01*
X67393746Y-107070303D02*
X67394472Y-107136518D01*
X67394472Y-107136518D02*
X67394373Y-107202731D01*
X67394373Y-107202731D02*
X67393096Y-107268928D01*
X67393096Y-107268928D02*
X67390289Y-107335097D01*
X67390289Y-107335097D02*
X67388953Y-107357146D01*
X67390750Y-106673038D02*
X67389716Y-106745453D01*
X67389716Y-106745453D02*
X67389600Y-106817881D01*
X67389600Y-106817881D02*
X67390262Y-106890309D01*
X67390262Y-106890309D02*
X67391567Y-106962726D01*
X67391567Y-106962726D02*
X67392548Y-107004098D01*
X67492260Y-105892663D02*
X67471318Y-105961981D01*
X67471318Y-105961981D02*
X67454059Y-106032289D01*
X67454059Y-106032289D02*
X67439871Y-106103328D01*
X67439871Y-106103328D02*
X67428144Y-106174838D01*
X67428144Y-106174838D02*
X67422313Y-106215813D01*
X68157520Y-105930368D02*
X68155632Y-105864836D01*
X68155632Y-105864836D02*
X68154183Y-105799267D01*
X68154183Y-105799267D02*
X68152710Y-105733676D01*
X68152710Y-105733676D02*
X68151713Y-105697233D01*
X68268952Y-107290218D02*
X68258985Y-107224503D01*
X68258985Y-107224503D02*
X68250045Y-107158638D01*
X68250045Y-107158638D02*
X68241934Y-107092663D01*
X68241934Y-107092663D02*
X68234455Y-107026619D01*
X68234455Y-107026619D02*
X68227411Y-106960548D01*
X68227411Y-106960548D02*
X68225125Y-106938526D01*
X66982600Y-110562433D02*
X66933904Y-110601683D01*
X66933904Y-110601683D02*
X66919370Y-110616626D01*
X68311220Y-107454073D02*
X68292365Y-107408136D01*
X68337443Y-106629981D02*
X68342462Y-106698939D01*
X68342462Y-106698939D02*
X68348960Y-106767809D01*
X68348960Y-106767809D02*
X68357929Y-106836366D01*
X68357929Y-106836366D02*
X68370360Y-106904386D01*
X68111558Y-105798073D02*
X68103270Y-105862782D01*
X68103270Y-105862782D02*
X68095000Y-105927506D01*
X68095000Y-105927506D02*
X68086368Y-105992179D01*
X68086368Y-105992179D02*
X68076996Y-106056735D01*
X68076996Y-106056735D02*
X68066505Y-106121106D01*
X68066505Y-106121106D02*
X68054515Y-106185227D01*
X68054515Y-106185227D02*
X68049215Y-106210791D01*
X68312443Y-105524673D02*
X68306689Y-105587278D01*
X68306689Y-105587278D02*
X68304906Y-105650167D01*
X68304906Y-105650167D02*
X68305191Y-105713144D01*
X68305191Y-105713144D02*
X68305543Y-105748098D01*
X67572235Y-105730253D02*
X67535937Y-105787855D01*
X67535937Y-105787855D02*
X67509962Y-105844711D01*
X67509962Y-105844711D02*
X67492260Y-105892663D01*
X67860595Y-105557356D02*
X67798974Y-105580411D01*
X67798974Y-105580411D02*
X67739406Y-105608422D01*
X67739406Y-105608422D02*
X67681771Y-105640359D01*
X67681771Y-105640359D02*
X67650543Y-105659421D01*
X67992548Y-106297018D02*
X67981388Y-106231931D01*
X67981388Y-106231931D02*
X67974918Y-106166173D01*
X68638615Y-107602328D02*
X68646312Y-107667174D01*
X68646312Y-107667174D02*
X68643198Y-107724593D01*
X68147260Y-105621383D02*
X68142130Y-105615026D01*
X68225125Y-106938526D02*
X68218611Y-106873380D01*
X68218611Y-106873380D02*
X68212453Y-106808216D01*
X68212453Y-106808216D02*
X68206628Y-106743033D01*
X68206628Y-106743033D02*
X68201114Y-106677831D01*
X68201114Y-106677831D02*
X68195888Y-106612609D01*
X68195888Y-106612609D02*
X68190928Y-106547366D01*
X68190928Y-106547366D02*
X68186211Y-106482103D01*
X68186211Y-106482103D02*
X68181715Y-106416818D01*
X68292365Y-107408136D02*
X68278630Y-107345764D01*
X68278630Y-107345764D02*
X68268952Y-107290218D01*
X67918590Y-105548321D02*
X67860595Y-105557356D01*
X67947600Y-105574201D02*
X67918590Y-105548321D01*
X68345360Y-107462328D02*
X68330073Y-107466468D01*
X67165543Y-110579698D02*
X67188850Y-110525166D01*
X67965880Y-105885971D02*
X67965834Y-105820185D01*
X67965834Y-105820185D02*
X67965416Y-105754414D01*
X67965416Y-105754414D02*
X67963610Y-105688674D01*
X67963610Y-105688674D02*
X67961635Y-105652171D01*
X66914215Y-110628344D02*
X66920360Y-110638708D01*
X67974918Y-106166173D02*
X67970466Y-106096242D01*
X67970466Y-106096242D02*
X67967723Y-106026197D01*
X67967723Y-106026197D02*
X67966318Y-105956089D01*
X67966318Y-105956089D02*
X67965880Y-105885971D01*
X68049215Y-106210791D02*
X68034221Y-106272297D01*
X68034221Y-106272297D02*
X68020750Y-106313413D01*
X68353068Y-107444491D02*
X68345360Y-107462328D01*
X68390985Y-107333058D02*
X68378380Y-107333161D01*
X68364318Y-107351468D02*
X68355549Y-107415207D01*
X68355549Y-107415207D02*
X68353068Y-107444491D01*
X68643198Y-107724593D02*
X68617332Y-107781724D01*
X68617332Y-107781724D02*
X68606038Y-107791183D01*
X68421323Y-107063786D02*
X68449566Y-107126058D01*
X68449566Y-107126058D02*
X68479707Y-107187426D01*
X68479707Y-107187426D02*
X68510258Y-107248594D01*
X68510258Y-107248594D02*
X68539730Y-107310264D01*
X68539730Y-107310264D02*
X68555515Y-107346001D01*
X68012288Y-106328251D02*
X67992548Y-106297018D01*
X66920360Y-110638708D02*
X66960308Y-110643291D01*
X68138120Y-105622501D02*
X68126147Y-105687973D01*
X68126147Y-105687973D02*
X68117352Y-105754011D01*
X68117352Y-105754011D02*
X68111558Y-105798073D01*
X68151713Y-105697233D02*
X68148413Y-105633170D01*
X68148413Y-105633170D02*
X68147260Y-105621383D01*
X68330073Y-107466468D02*
X68311220Y-107454073D01*
X68421220Y-107363501D02*
X68390985Y-107333058D01*
X67930515Y-110669281D02*
X67930531Y-110606311D01*
X67930531Y-110606311D02*
X67926403Y-110592328D01*
X70008408Y-110708996D02*
X69993900Y-110653213D01*
X69886923Y-110734203D02*
X69951671Y-110737410D01*
X69951671Y-110737410D02*
X69980620Y-110731963D01*
X67892365Y-110854438D02*
X67907541Y-110791232D01*
X67907541Y-110791232D02*
X67921000Y-110727598D01*
X67921000Y-110727598D02*
X67930515Y-110669281D01*
X67401115Y-110955401D02*
X67367493Y-111014998D01*
X67367493Y-111014998D02*
X67335686Y-111075597D01*
X67335686Y-111075597D02*
X67309890Y-111132198D01*
X67645750Y-110593213D02*
X67599637Y-110641532D01*
X67599637Y-110641532D02*
X67559943Y-110695353D01*
X67559943Y-110695353D02*
X67535203Y-110732406D01*
X69351845Y-110650323D02*
X69351845Y-110650323D01*
X70336115Y-111410738D02*
X70379293Y-111411728D01*
X69817885Y-111025011D02*
X69872144Y-111061045D01*
X69872144Y-111061045D02*
X69918043Y-111106886D01*
X69694630Y-110797328D02*
X69676663Y-110804801D01*
X70023798Y-111302876D02*
X70082512Y-111327784D01*
X70082512Y-111327784D02*
X70142462Y-111349478D01*
X70142462Y-111349478D02*
X70197130Y-111368551D01*
X69667963Y-110850218D02*
X69694276Y-110908076D01*
X69694276Y-110908076D02*
X69699083Y-110915791D01*
X69774605Y-110546573D02*
X69710928Y-110557408D01*
X69710928Y-110557408D02*
X69691948Y-110567666D01*
X69752625Y-110810376D02*
X69694630Y-110797328D01*
X67515803Y-111162876D02*
X67579104Y-111139260D01*
X67579104Y-111139260D02*
X67641881Y-111114427D01*
X67641881Y-111114427D02*
X67703862Y-111087737D01*
X67703862Y-111087737D02*
X67716140Y-111082121D01*
X67893380Y-110559308D02*
X67830826Y-110547833D01*
X67830826Y-110547833D02*
X67805803Y-110546703D01*
X67805803Y-110546703D02*
X67766663Y-110546363D01*
X70197130Y-111368551D02*
X70257342Y-111388886D01*
X70257342Y-111388886D02*
X70318411Y-111406587D01*
X70318411Y-111406587D02*
X70336115Y-111410738D01*
X69699083Y-110915791D02*
X69741166Y-110966641D01*
X69741166Y-110966641D02*
X69792142Y-111008658D01*
X69792142Y-111008658D02*
X69817885Y-111025011D01*
X67035020Y-110491366D02*
X67025333Y-110524151D01*
X67002678Y-110448421D02*
X67035020Y-110491366D01*
X70389215Y-110509438D02*
X70392885Y-110483214D01*
X70395020Y-111395453D02*
X70391793Y-111333421D01*
X69934995Y-111185636D02*
X69942808Y-111243526D01*
X70214188Y-111004933D02*
X70170470Y-110954433D01*
X70170470Y-110954433D02*
X70118337Y-110912912D01*
X70118337Y-110912912D02*
X70091063Y-110898396D01*
X66880438Y-110344228D02*
X66930222Y-110386358D01*
X66930222Y-110386358D02*
X66980244Y-110428297D01*
X66980244Y-110428297D02*
X67002678Y-110448421D01*
X66856793Y-110317251D02*
X66880438Y-110344228D01*
X70381845Y-110476313D02*
X70370595Y-110477641D01*
X70091063Y-110898396D02*
X70030223Y-110876191D01*
X70030223Y-110876191D02*
X69966900Y-110861985D01*
X69966900Y-110861985D02*
X69948720Y-110858473D01*
X70330438Y-111197328D02*
X70300590Y-111141574D01*
X70300590Y-111141574D02*
X70268827Y-111086822D01*
X70268827Y-111086822D02*
X70234545Y-111033620D01*
X70234545Y-111033620D02*
X70214188Y-111004933D01*
X69674865Y-110591858D02*
X69700412Y-110648083D01*
X70191793Y-110648968D02*
X70180073Y-110681651D01*
X69691948Y-110567666D02*
X69674865Y-110591858D01*
X67296818Y-111191103D02*
X67307313Y-111209491D01*
X69942808Y-111243526D02*
X69990021Y-111285344D01*
X69990021Y-111285344D02*
X70023798Y-111302876D01*
X69676663Y-110804801D02*
X69667963Y-110850218D01*
X69980620Y-110731963D02*
X70008408Y-110708996D01*
X67831923Y-110997458D02*
X67863497Y-110942629D01*
X67863497Y-110942629D02*
X67884587Y-110882666D01*
X67884587Y-110882666D02*
X67892365Y-110854438D01*
X69886140Y-110568448D02*
X69824466Y-110550275D01*
X69824466Y-110550275D02*
X69774605Y-110546573D01*
X69700412Y-110648083D02*
X69752516Y-110686938D01*
X69752516Y-110686938D02*
X69811358Y-110714660D01*
X69811358Y-110714660D02*
X69874140Y-110731939D01*
X69874140Y-110731939D02*
X69886923Y-110734203D01*
X70379293Y-111411728D02*
X70395020Y-111395453D01*
X69918043Y-111106886D02*
X69937750Y-111167609D01*
X69937750Y-111167609D02*
X69934995Y-111185636D01*
X69694630Y-110797328D02*
X69694630Y-110797328D01*
X67363640Y-111211626D02*
X67426193Y-111194034D01*
X67426193Y-111194034D02*
X67487579Y-111172848D01*
X67487579Y-111172848D02*
X67515803Y-111162876D01*
X66859683Y-110311781D02*
X66856793Y-110317251D01*
X70392885Y-110483214D02*
X70381845Y-110476313D01*
X67309890Y-111132198D02*
X67296818Y-111191103D01*
X67716140Y-111082121D02*
X67771771Y-111051815D01*
X67771771Y-111051815D02*
X67820300Y-111011466D01*
X67820300Y-111011466D02*
X67831923Y-110997458D01*
X67307313Y-111209491D02*
X67363640Y-111211626D01*
X67535203Y-110732406D02*
X67500625Y-110787522D01*
X67500625Y-110787522D02*
X67467035Y-110843239D01*
X67467035Y-110843239D02*
X67434008Y-110899288D01*
X67434008Y-110899288D02*
X67401115Y-110955401D01*
X67766663Y-110546366D02*
X67701811Y-110558666D01*
X67701811Y-110558666D02*
X67645750Y-110593213D01*
X70190438Y-110689358D02*
X70226922Y-110677433D01*
X70282025Y-110542016D02*
X70236381Y-110589423D01*
X70236381Y-110589423D02*
X70196511Y-110641581D01*
X70196511Y-110641581D02*
X70191793Y-110648968D01*
X67926403Y-110592328D02*
X67893380Y-110559308D01*
X69948720Y-110858473D02*
X69886972Y-110845477D01*
X69886972Y-110845477D02*
X69825524Y-110830991D01*
X69825524Y-110830991D02*
X69764690Y-110814116D01*
X69764690Y-110814116D02*
X69752625Y-110810376D01*
X70391793Y-111333421D02*
X70367396Y-111272865D01*
X70367396Y-111272865D02*
X70338878Y-111213993D01*
X70338878Y-111213993D02*
X70330438Y-111197328D01*
X69774605Y-110546573D02*
X69774605Y-110546573D01*
X67766663Y-110546363D02*
X67766663Y-110546363D01*
X70323408Y-110597901D02*
X70365507Y-110547509D01*
X70365507Y-110547509D02*
X70389215Y-110509438D01*
X70226922Y-110677433D02*
X70278005Y-110641181D01*
X70278005Y-110641181D02*
X70323408Y-110597901D01*
X70180073Y-110681651D02*
X70190438Y-110689358D01*
X70370595Y-110477641D02*
X70315442Y-110512288D01*
X70315442Y-110512288D02*
X70282025Y-110542016D01*
X69993900Y-110653213D02*
X69950088Y-110605320D01*
X69950088Y-110605320D02*
X69894048Y-110571956D01*
X69894048Y-110571956D02*
X69886140Y-110568448D01*
X68200803Y-110644309D02*
X68200803Y-110644309D01*
X68481663Y-110756391D02*
X68453626Y-110698765D01*
X68453626Y-110698765D02*
X68443745Y-110691598D01*
X68761323Y-111287928D02*
X68750845Y-111224590D01*
X68750845Y-111224590D02*
X68739005Y-111187848D01*
X69561557Y-111109776D02*
X69549339Y-111045026D01*
X69549339Y-111045026D02*
X69535808Y-110980550D01*
X69535808Y-110980550D02*
X69521486Y-110916239D01*
X69521486Y-110916239D02*
X69506895Y-110851988D01*
X68347938Y-111471858D02*
X68398900Y-111452564D01*
X68443745Y-110691598D02*
X68385945Y-110664110D01*
X68385945Y-110664110D02*
X68323127Y-110650605D01*
X68323127Y-110650605D02*
X68304970Y-110648421D01*
X69577938Y-111281233D02*
X69576312Y-111216594D01*
X69576312Y-111216594D02*
X69568489Y-111152331D01*
X69568489Y-111152331D02*
X69561557Y-111109776D01*
X68715803Y-111414958D02*
X68750063Y-111360333D01*
X68750063Y-111360333D02*
X68761500Y-111296581D01*
X68761500Y-111296581D02*
X68761323Y-111287928D01*
X69547832Y-111363891D02*
X69575372Y-111306426D01*
X69575372Y-111306426D02*
X69577938Y-111281233D01*
X69479890Y-111397223D02*
X69538324Y-111371021D01*
X69538324Y-111371021D02*
X69547832Y-111363891D01*
X69281558Y-111441963D02*
X69344227Y-111431331D01*
X69344227Y-111431331D02*
X69406448Y-111418110D01*
X69406448Y-111418110D02*
X69467772Y-111401160D01*
X69467772Y-111401160D02*
X69479890Y-111397223D01*
X69052442Y-111461703D02*
X69117135Y-111459752D01*
X69117135Y-111459752D02*
X69181664Y-111454586D01*
X69181664Y-111454586D02*
X69245961Y-111446970D01*
X69245961Y-111446970D02*
X69281558Y-111441963D01*
X68936663Y-111445296D02*
X69000856Y-111460147D01*
X69000856Y-111460147D02*
X69052442Y-111461703D01*
X68920255Y-111427693D02*
X68936663Y-111445296D01*
X68214395Y-111475973D02*
X68277314Y-111482517D01*
X68277314Y-111482517D02*
X68339840Y-111474350D01*
X68339840Y-111474350D02*
X68347938Y-111471858D01*
X68883225Y-111270948D02*
X68895438Y-111335325D01*
X68895438Y-111335325D02*
X68910890Y-111398942D01*
X68910890Y-111398942D02*
X68920255Y-111427693D01*
X70869083Y-111404829D02*
X70874447Y-111388318D01*
X70845202Y-111375141D02*
X70845202Y-111375141D01*
X68855568Y-111023891D02*
X68858506Y-111093821D01*
X68858506Y-111093821D02*
X68866146Y-111163396D01*
X68866146Y-111163396D02*
X68876726Y-111232629D01*
X68876726Y-111232629D02*
X68883225Y-111270948D01*
X68739005Y-111187848D02*
X68726749Y-111121394D01*
X68726749Y-111121394D02*
X68724050Y-111053814D01*
X68724050Y-111053814D02*
X68725283Y-111022666D01*
X68465828Y-110833916D02*
X68481832Y-110771357D01*
X68481832Y-110771357D02*
X68481663Y-110756391D01*
X68507443Y-110882666D02*
X68475100Y-110877978D01*
X70085020Y-111607276D02*
X70096635Y-111594671D01*
X70037963Y-111604488D02*
X70085020Y-111607276D01*
X68116923Y-110657458D02*
X68078204Y-110709323D01*
X68078204Y-110709323D02*
X68074865Y-110721053D01*
X68026663Y-111293838D02*
X68033888Y-111356750D01*
X68033888Y-111356750D02*
X68037158Y-111368006D01*
X68587183Y-110830921D02*
X68537674Y-110869669D01*
X68537674Y-110869669D02*
X68507443Y-110882666D01*
X68734658Y-110928968D02*
X68725263Y-110866465D01*
X68725263Y-110866465D02*
X68700958Y-110823996D01*
X68037158Y-111368006D02*
X68077990Y-111415871D01*
X68045515Y-110920036D02*
X68038511Y-110989884D01*
X68038511Y-110989884D02*
X68032525Y-111059872D01*
X68032525Y-111059872D02*
X68028083Y-111129973D01*
X68028083Y-111129973D02*
X68025707Y-111200162D01*
X68025707Y-111200162D02*
X68025924Y-111270412D01*
X68025924Y-111270412D02*
X68026663Y-111293838D01*
X69807625Y-111449881D02*
X69854335Y-111497367D01*
X69854335Y-111497367D02*
X69908408Y-111536530D01*
X69908408Y-111536530D02*
X69924838Y-111546261D01*
X69194448Y-110668733D02*
X69131242Y-110681486D01*
X69131242Y-110681486D02*
X69069435Y-110699752D01*
X69069435Y-110699752D02*
X69010612Y-110725839D01*
X69010612Y-110725839D02*
X68999345Y-110732198D01*
X70106323Y-111543813D02*
X70073085Y-111488561D01*
X70073085Y-111488561D02*
X70068510Y-111483684D01*
X67934865Y-111502406D02*
X67934865Y-111502406D01*
X68893720Y-110839958D02*
X68870515Y-110900725D01*
X68870515Y-110900725D02*
X68858471Y-110964719D01*
X68858471Y-110964719D02*
X68855568Y-111023891D01*
X69351845Y-110650323D02*
X69287657Y-110655480D01*
X69287657Y-110655480D02*
X69223832Y-110664188D01*
X69223832Y-110664188D02*
X69194448Y-110668733D01*
X70874447Y-111388318D02*
X70867963Y-111378708D01*
X68700958Y-110823996D02*
X68649658Y-110800791D01*
X70096635Y-111594671D02*
X70106323Y-111543813D01*
X68999345Y-110732198D02*
X68945596Y-110771856D01*
X68945596Y-110771856D02*
X68902974Y-110823125D01*
X68902974Y-110823125D02*
X68893720Y-110839958D01*
X68475100Y-110877978D02*
X68465828Y-110833916D01*
X68200803Y-110644309D02*
X68136837Y-110649664D01*
X68136837Y-110649664D02*
X68116923Y-110657458D01*
X70068510Y-111483684D02*
X70019609Y-111440029D01*
X70019609Y-111440029D02*
X69966385Y-111401645D01*
X69966385Y-111401645D02*
X69940908Y-111385296D01*
X68543355Y-111444853D02*
X68605724Y-111454562D01*
X68605724Y-111454562D02*
X68612288Y-111454671D01*
X68612288Y-111454671D02*
X68674935Y-111442955D01*
X68674935Y-111442955D02*
X68715803Y-111414958D01*
X68304970Y-110648421D02*
X68239939Y-110644610D01*
X68239939Y-110644610D02*
X68200803Y-110644309D01*
X68649658Y-110800791D02*
X68592000Y-110826308D01*
X68592000Y-110826308D02*
X68587183Y-110830921D01*
X70702000Y-111411728D02*
X70656187Y-111456434D01*
X70656187Y-111456434D02*
X70653797Y-111462823D01*
X68398900Y-111452564D02*
X68461617Y-111441847D01*
X68461617Y-111441847D02*
X68525296Y-111442727D01*
X68525296Y-111442727D02*
X68543355Y-111444853D01*
X68077990Y-111415871D02*
X68134227Y-111449707D01*
X68134227Y-111449707D02*
X68196141Y-111471672D01*
X68196141Y-111471672D02*
X68214395Y-111475973D01*
X69940908Y-111385296D02*
X69883624Y-111353353D01*
X69883624Y-111353353D02*
X69822572Y-111329516D01*
X68074865Y-110721053D02*
X68062123Y-110782652D01*
X68062123Y-110782652D02*
X68053700Y-110844987D01*
X68053700Y-110844987D02*
X68046912Y-110907543D01*
X68046912Y-110907543D02*
X68045515Y-110920036D01*
X70867963Y-111378708D02*
X70845202Y-111375141D01*
X70702105Y-111517041D02*
X70765063Y-111500657D01*
X70765063Y-111500657D02*
X70813640Y-111469516D01*
X69924838Y-111546261D02*
X69980024Y-111578089D01*
X69980024Y-111578089D02*
X70037963Y-111604488D01*
X70653797Y-111462823D02*
X70660048Y-111503863D01*
X69786428Y-111325401D02*
X69786428Y-111325401D01*
X69822572Y-111329516D02*
X69786428Y-111325401D01*
X70813640Y-111469516D02*
X70857055Y-111422494D01*
X70857055Y-111422494D02*
X70869083Y-111404829D01*
X70660048Y-111503863D02*
X70702105Y-111517041D01*
X68725283Y-111022666D02*
X68733036Y-110958370D01*
X68733036Y-110958370D02*
X68734658Y-110928968D01*
X69419215Y-110663473D02*
X69356161Y-110650293D01*
X69356161Y-110650293D02*
X69351845Y-110650323D01*
X69467078Y-110719933D02*
X69429384Y-110669540D01*
X69429384Y-110669540D02*
X69419215Y-110663473D01*
X69506895Y-110851988D02*
X69490948Y-110789239D01*
X69490948Y-110789239D02*
X69470435Y-110727891D01*
X69470435Y-110727891D02*
X69467078Y-110719933D01*
X70845202Y-111375141D02*
X70780422Y-111383102D01*
X70780422Y-111383102D02*
X70718520Y-111402979D01*
X70718520Y-111402979D02*
X70702000Y-111411728D01*
X68241400Y-112024906D02*
X68237495Y-112009516D01*
X67511323Y-111323733D02*
X67482189Y-111380362D01*
X67482189Y-111380362D02*
X67467938Y-111442848D01*
X67547703Y-112158083D02*
X67554735Y-112175921D01*
X67945255Y-112098968D02*
X68009933Y-112095491D01*
X68009933Y-112095491D02*
X68074326Y-112089061D01*
X68074326Y-112089061D02*
X68082885Y-112087926D01*
X67123720Y-111414958D02*
X67089423Y-111471759D01*
X67089423Y-111471759D02*
X67068485Y-111526626D01*
X66607130Y-111872978D02*
X66605971Y-111937532D01*
X66605971Y-111937532D02*
X66611818Y-111962198D01*
X66625775Y-111837718D02*
X66607130Y-111872978D01*
X67171220Y-111691496D02*
X67183023Y-111629485D01*
X67183023Y-111629485D02*
X67194105Y-111567301D01*
X67194105Y-111567301D02*
X67204079Y-111504966D01*
X67204079Y-111504966D02*
X67205908Y-111492483D01*
X67912337Y-111868188D02*
X67912337Y-111868188D01*
X67699188Y-111730193D02*
X67717584Y-111661839D01*
X67717584Y-111661839D02*
X67735266Y-111593268D01*
X67735266Y-111593268D02*
X67751872Y-111524424D01*
X67751872Y-111524424D02*
X67767038Y-111455256D01*
X67767038Y-111455256D02*
X67780403Y-111385708D01*
X67780403Y-111385708D02*
X67784395Y-111362433D01*
X67794110Y-111243866D02*
X67786505Y-111219541D01*
X67562860Y-111291026D02*
X67511323Y-111323733D01*
X67772470Y-111216183D02*
X67769995Y-111216626D01*
X67863693Y-112086261D02*
X67927002Y-112099291D01*
X67927002Y-112099291D02*
X67945255Y-112098968D01*
X68200698Y-111834828D02*
X68237053Y-111786313D01*
X67924163Y-111516366D02*
X67917421Y-111579455D01*
X67917421Y-111579455D02*
X67917365Y-111581496D01*
X67079318Y-111973578D02*
X67112394Y-111920103D01*
X67112394Y-111920103D02*
X67119578Y-111900193D01*
X67022548Y-111788421D02*
X67025264Y-111854731D01*
X67025264Y-111854731D02*
X67037523Y-111919905D01*
X67037523Y-111919905D02*
X67047078Y-111949046D01*
X67786505Y-111219541D02*
X67772470Y-111216183D01*
X68042520Y-111548473D02*
X67986973Y-111517612D01*
X67986973Y-111517612D02*
X67960515Y-111506001D01*
X66633250Y-111833473D02*
X66625775Y-111837718D01*
X67199890Y-111382406D02*
X67177260Y-111378603D01*
X66668275Y-111850766D02*
X66633250Y-111833473D01*
X67881115Y-111891598D02*
X67862609Y-111952256D01*
X67862609Y-111952256D02*
X67855463Y-111989751D01*
X67462600Y-111662146D02*
X67468320Y-111728154D01*
X67468320Y-111728154D02*
X67476208Y-111793919D01*
X67476208Y-111793919D02*
X67485887Y-111859459D01*
X67485887Y-111859459D02*
X67496982Y-111924795D01*
X67496982Y-111924795D02*
X67509117Y-111989946D01*
X67509117Y-111989946D02*
X67513328Y-112011626D01*
X67064265Y-111972796D02*
X67079318Y-111973578D01*
X66611818Y-111962198D02*
X66639033Y-112001468D01*
X68001793Y-111885478D02*
X67941403Y-111869355D01*
X67941403Y-111869355D02*
X67927053Y-111867718D01*
X67855463Y-111989751D02*
X67848153Y-112054056D01*
X67848153Y-112054056D02*
X67849083Y-112063266D01*
X67912337Y-111868188D02*
X67881115Y-111891598D01*
X69888380Y-111682901D02*
X69888380Y-111682901D01*
X69762338Y-111361756D02*
X69787036Y-111422143D01*
X69787036Y-111422143D02*
X69807625Y-111449881D01*
X69767678Y-111334881D02*
X69762338Y-111361756D01*
X67927053Y-111867718D02*
X67912337Y-111868188D01*
X67784395Y-111362433D02*
X67792707Y-111299643D01*
X67792707Y-111299643D02*
X67794110Y-111243866D01*
X67467938Y-111442848D02*
X67460687Y-111511123D01*
X67460687Y-111511123D02*
X67459245Y-111579773D01*
X67459245Y-111579773D02*
X67461778Y-111648441D01*
X67461778Y-111648441D02*
X67462600Y-111662146D01*
X69786428Y-111325401D02*
X69767678Y-111334881D01*
X67177260Y-111378603D02*
X67176140Y-111378838D01*
X67960515Y-111506001D02*
X67934865Y-111502406D01*
X68246635Y-111735426D02*
X68217395Y-111679797D01*
X68217395Y-111679797D02*
X68200803Y-111661364D01*
X67934865Y-111502406D02*
X67924163Y-111516366D01*
X67554735Y-112175921D02*
X67584228Y-112118558D01*
X67584228Y-112118558D02*
X67586403Y-112112251D01*
X68222443Y-112048213D02*
X68241400Y-112024906D01*
X67176140Y-111378838D02*
X67123720Y-111414958D01*
X68173588Y-111954176D02*
X68116191Y-111926681D01*
X68116191Y-111926681D02*
X68056521Y-111904418D01*
X68056521Y-111904418D02*
X68001793Y-111885478D01*
X68200803Y-111661364D02*
X68150589Y-111616965D01*
X68150589Y-111616965D02*
X68095091Y-111579325D01*
X68095091Y-111579325D02*
X68042520Y-111548473D01*
X68237053Y-111786313D02*
X68246635Y-111735426D01*
X68130958Y-111844073D02*
X68195014Y-111838782D01*
X68195014Y-111838782D02*
X68200698Y-111834828D01*
X68040283Y-111794881D02*
X68094682Y-111830096D01*
X68094682Y-111830096D02*
X68130958Y-111844073D01*
X67205908Y-111492483D02*
X67211224Y-111428403D01*
X67211224Y-111428403D02*
X67210283Y-111407041D01*
X68082885Y-112087926D02*
X68145623Y-112076205D01*
X68145623Y-112076205D02*
X68206017Y-112056165D01*
X68206017Y-112056165D02*
X68222443Y-112048213D01*
X66669163Y-111999126D02*
X66699676Y-111942815D01*
X66699676Y-111942815D02*
X66699735Y-111940688D01*
X66699735Y-111940688D02*
X66686263Y-111878869D01*
X66686263Y-111878869D02*
X66668275Y-111850766D01*
X67119578Y-111900193D02*
X67138870Y-111835787D01*
X67138870Y-111835787D02*
X67154671Y-111770462D01*
X67154671Y-111770462D02*
X67168540Y-111704670D01*
X67168540Y-111704670D02*
X67171220Y-111691496D01*
X67849083Y-112063266D02*
X67863693Y-112086261D01*
X66639033Y-112001468D02*
X66669163Y-111999126D01*
X67586403Y-112112251D02*
X67609212Y-112041103D01*
X67609212Y-112041103D02*
X67630989Y-111969653D01*
X67630989Y-111969653D02*
X67651971Y-111897969D01*
X67651971Y-111897969D02*
X67672399Y-111826122D01*
X67672399Y-111826122D02*
X67692512Y-111754181D01*
X67692512Y-111754181D02*
X67699188Y-111730193D01*
X67513328Y-112011626D02*
X67526723Y-112076086D01*
X67526723Y-112076086D02*
X67542406Y-112140030D01*
X67542406Y-112140030D02*
X67547703Y-112158083D01*
X67934865Y-111662276D02*
X67966901Y-111717651D01*
X67966901Y-111717651D02*
X68008518Y-111766334D01*
X68008518Y-111766334D02*
X68040283Y-111794881D01*
X67047078Y-111949046D02*
X67064265Y-111972796D01*
X67210283Y-111407041D02*
X67199890Y-111382406D01*
X67917365Y-111581496D02*
X67927941Y-111645431D01*
X67927941Y-111645431D02*
X67934865Y-111662276D01*
X67068485Y-111526626D02*
X67049969Y-111590646D01*
X67049969Y-111590646D02*
X67036102Y-111655843D01*
X67036102Y-111655843D02*
X67026941Y-111721881D01*
X67026941Y-111721881D02*
X67022548Y-111788421D01*
X68237495Y-112009516D02*
X68191879Y-111965251D01*
X68191879Y-111965251D02*
X68173588Y-111954176D01*
X68385515Y-111959541D02*
X68412053Y-111991208D01*
X68849448Y-111852121D02*
X68876428Y-111828031D01*
X69085360Y-111784308D02*
X69070620Y-111777483D01*
X69026583Y-112262146D02*
X69071450Y-112215836D01*
X69071450Y-112215836D02*
X69105203Y-112160661D01*
X68158408Y-112202041D02*
X68158408Y-112202041D01*
X69875645Y-111691051D02*
X69871635Y-111732433D01*
X69111558Y-111664723D02*
X69163433Y-111658578D01*
X69075100Y-111911468D02*
X69008362Y-111908965D01*
X69008362Y-111908965D02*
X68941765Y-111904895D01*
X68941765Y-111904895D02*
X68898068Y-111896391D01*
X69888380Y-111682901D02*
X69875645Y-111691051D01*
X68540125Y-112352616D02*
X68528408Y-112318943D01*
X70040073Y-112217328D02*
X70065283Y-112246313D01*
X69134553Y-111617876D02*
X69073171Y-111595620D01*
X69073171Y-111595620D02*
X69039500Y-111588968D01*
X68294058Y-112584646D02*
X68317913Y-112580063D01*
X69066063Y-111800348D02*
X69088043Y-111792223D01*
X68851220Y-111870973D02*
X68849448Y-111852121D01*
X68436038Y-112269073D02*
X68374381Y-112246891D01*
X68374381Y-112246891D02*
X68311713Y-112227607D01*
X68311713Y-112227607D02*
X68248014Y-112212165D01*
X68248014Y-112212165D02*
X68235150Y-112209621D01*
X69871635Y-111732433D02*
X69883993Y-111796817D01*
X69883993Y-111796817D02*
X69901048Y-111860219D01*
X69901048Y-111860219D02*
X69903433Y-111868631D01*
X69088043Y-111792223D02*
X69085360Y-111784308D01*
X69174813Y-111967016D02*
X69152730Y-111930871D01*
X69039500Y-111588968D02*
X68975737Y-111580376D01*
X68975737Y-111580376D02*
X68911608Y-111575060D01*
X68911608Y-111575060D02*
X68853225Y-111571911D01*
X67632573Y-111303188D02*
X67569595Y-111290369D01*
X67569595Y-111290369D02*
X67562860Y-111291026D01*
X69903433Y-111868631D02*
X69923764Y-111933690D01*
X69923764Y-111933690D02*
X69945784Y-111998209D01*
X69945784Y-111998209D02*
X69969498Y-112062104D01*
X69969498Y-112062104D02*
X69983408Y-112097301D01*
X70180620Y-112048656D02*
X70190201Y-111985043D01*
X70190201Y-111985043D02*
X70188182Y-111920895D01*
X70188182Y-111920895D02*
X70178615Y-111879098D01*
X68363875Y-111887353D02*
X68380679Y-111948774D01*
X68380679Y-111948774D02*
X68385515Y-111959541D01*
X68391870Y-111638396D02*
X68363400Y-111696406D01*
X68363400Y-111696406D02*
X68361428Y-111708343D01*
X68423668Y-112497171D02*
X68470336Y-112452914D01*
X68470336Y-112452914D02*
X68513662Y-112405496D01*
X68513662Y-112405496D02*
X68519033Y-112398813D01*
X68992548Y-111711233D02*
X69010620Y-111686026D01*
X68484345Y-111594438D02*
X68422948Y-111615176D01*
X68422948Y-111615176D02*
X68391870Y-111638396D01*
X67722495Y-111273526D02*
X67666115Y-111302738D01*
X67666115Y-111302738D02*
X67632573Y-111303188D01*
X67769995Y-111216626D02*
X67729754Y-111264504D01*
X67729754Y-111264504D02*
X67722495Y-111273526D01*
X69664293Y-112153838D02*
X69664293Y-112153838D01*
X69152730Y-111930871D02*
X69092683Y-111913109D01*
X69092683Y-111913109D02*
X69075100Y-111911468D01*
X69010620Y-111686026D02*
X69072362Y-111666407D01*
X69072362Y-111666407D02*
X69111558Y-111664723D01*
X67922158Y-112439411D02*
X67976808Y-112476226D01*
X67976808Y-112476226D02*
X68035624Y-112506021D01*
X68035624Y-112506021D02*
X68096838Y-112530795D01*
X68096838Y-112530795D02*
X68109213Y-112535323D01*
X69105203Y-112160661D02*
X69133569Y-112104508D01*
X69133569Y-112104508D02*
X69158811Y-112046907D01*
X69158811Y-112046907D02*
X69164995Y-112030036D01*
X70107443Y-112217198D02*
X70140204Y-112162789D01*
X70140204Y-112162789D02*
X70164733Y-112104179D01*
X70164733Y-112104179D02*
X70180620Y-112048656D01*
X68876428Y-111828031D02*
X68937155Y-111811852D01*
X68937155Y-111811852D02*
X68943588Y-111810843D01*
X69983408Y-112097301D02*
X70009728Y-112158261D01*
X70009728Y-112158261D02*
X70040073Y-112217328D01*
X68764890Y-111570453D02*
X68764890Y-111570453D01*
X69934995Y-111688266D02*
X69888380Y-111682901D01*
X70073328Y-111745036D02*
X70015212Y-111714539D01*
X70015212Y-111714539D02*
X69953137Y-111693017D01*
X69953137Y-111693017D02*
X69934995Y-111688266D01*
X69001583Y-111739333D02*
X68992548Y-111711233D01*
X68898068Y-111896391D02*
X68851220Y-111870973D01*
X68361428Y-111708343D02*
X68355555Y-111775420D01*
X68355555Y-111775420D02*
X68358131Y-111842771D01*
X68358131Y-111842771D02*
X68363875Y-111887353D01*
X69164995Y-112030036D02*
X69174813Y-111967016D01*
X70178615Y-111879098D02*
X70150311Y-111820553D01*
X70150311Y-111820553D02*
X70108020Y-111771176D01*
X70108020Y-111771176D02*
X70073328Y-111745036D01*
X68425230Y-112068968D02*
X68429578Y-112103213D01*
X68109213Y-112535323D02*
X68171791Y-112555795D01*
X68171791Y-112555795D02*
X68235417Y-112572650D01*
X68235417Y-112572650D02*
X68294058Y-112584646D01*
X68853225Y-111571911D02*
X68789736Y-111570497D01*
X68789736Y-111570497D02*
X68764890Y-111570453D01*
X69163433Y-111658578D02*
X69171583Y-111650766D01*
X68764890Y-111570453D02*
X68694398Y-111571890D01*
X68694398Y-111571890D02*
X68623982Y-111575600D01*
X68623982Y-111575600D02*
X68553883Y-111582732D01*
X68553883Y-111582732D02*
X68484345Y-111594438D01*
X68943588Y-111810843D02*
X69008705Y-111805613D01*
X69008705Y-111805613D02*
X69066063Y-111800348D01*
X68701635Y-112259933D02*
X68764286Y-112276935D01*
X68764286Y-112276935D02*
X68828024Y-112289143D01*
X68828024Y-112289143D02*
X68892563Y-112295405D01*
X68892563Y-112295405D02*
X68905543Y-112295843D01*
X68429578Y-112103213D02*
X68472246Y-112150436D01*
X68472246Y-112150436D02*
X68508563Y-112175141D01*
X68519033Y-112398813D02*
X68540125Y-112352616D01*
X69171583Y-111650766D02*
X69134553Y-111617876D01*
X68905543Y-112295843D02*
X68969021Y-112288995D01*
X68969021Y-112288995D02*
X69026583Y-112262146D01*
X68508563Y-112175141D02*
X68566407Y-112207071D01*
X68566407Y-112207071D02*
X68626863Y-112233735D01*
X68626863Y-112233735D02*
X68689062Y-112255951D01*
X68689062Y-112255951D02*
X68701635Y-112259933D01*
X68528408Y-112318943D02*
X68472904Y-112283894D01*
X68472904Y-112283894D02*
X68436038Y-112269073D01*
X68235150Y-112209621D02*
X68172893Y-112202281D01*
X68172893Y-112202281D02*
X68158408Y-112202041D01*
X70065283Y-112246313D02*
X70107443Y-112217198D01*
X68317913Y-112580063D02*
X68369587Y-112544036D01*
X68369587Y-112544036D02*
X68417377Y-112502749D01*
X68417377Y-112502749D02*
X68423668Y-112497171D01*
X69070620Y-111777483D02*
X69012438Y-111749661D01*
X69012438Y-111749661D02*
X69001583Y-111739333D01*
X68412053Y-111991208D02*
X68428818Y-112051438D01*
X68428818Y-112051438D02*
X68425230Y-112068968D01*
X69040620Y-112554073D02*
X69003992Y-112502867D01*
X69003992Y-112502867D02*
X68974135Y-112471859D01*
X66898278Y-111941363D02*
X66897938Y-111941363D01*
X68158408Y-112202041D02*
X68103408Y-112217876D01*
X69664293Y-112153838D02*
X69636948Y-112209621D01*
X69711140Y-112259698D02*
X69698515Y-112197165D01*
X69698515Y-112197165D02*
X69690048Y-112173708D01*
X69690048Y-112173708D02*
X69671428Y-112154281D01*
X69674500Y-112586651D02*
X69696505Y-112551963D01*
X70860385Y-112503996D02*
X70856713Y-112509568D01*
X69645438Y-111733421D02*
X69602365Y-111706651D01*
X70856480Y-112729411D02*
X70863615Y-112733891D01*
X69412860Y-112599126D02*
X69451137Y-112548027D01*
X69451137Y-112548027D02*
X69458928Y-112531756D01*
X66897938Y-111941363D02*
X66897833Y-111941366D01*
X69671428Y-112154281D02*
X69664293Y-112153838D01*
X69610958Y-111960531D02*
X69633895Y-111898033D01*
X69633895Y-111898033D02*
X69656243Y-111835398D01*
X69656243Y-111835398D02*
X69658823Y-111826911D01*
X69404370Y-112224569D02*
X69420775Y-112236833D01*
X70856713Y-112509568D02*
X70850395Y-112574440D01*
X70850395Y-112574440D02*
X70850123Y-112639760D01*
X70850123Y-112639760D02*
X70850125Y-112648448D01*
X69365908Y-112248553D02*
X69404370Y-112224569D01*
X69696505Y-112551963D02*
X69710498Y-112488416D01*
X69710498Y-112488416D02*
X69715698Y-112437953D01*
X69571245Y-111634386D02*
X69540291Y-111578315D01*
X69540291Y-111578315D02*
X69531870Y-111573813D01*
X69297625Y-112645871D02*
X69361308Y-112627427D01*
X69361308Y-112627427D02*
X69412860Y-112599126D01*
X69372025Y-112378058D02*
X69335036Y-112428770D01*
X69335036Y-112428770D02*
X69299083Y-112470973D01*
X69263720Y-112355296D02*
X69307674Y-112307837D01*
X69307674Y-112307837D02*
X69352328Y-112261107D01*
X69352328Y-112261107D02*
X69365908Y-112248553D01*
X69149083Y-112366443D02*
X69151505Y-112415974D01*
X69285568Y-112016756D02*
X69262737Y-112080269D01*
X69262737Y-112080269D02*
X69236834Y-112142618D01*
X69236834Y-112142618D02*
X69210958Y-112198241D01*
X68761533Y-112378943D02*
X68761533Y-112378943D01*
X68974135Y-112471859D02*
X68922331Y-112430601D01*
X68922331Y-112430601D02*
X68864325Y-112398879D01*
X68864325Y-112398879D02*
X68856140Y-112395558D01*
X69328850Y-111814073D02*
X69322042Y-111878625D01*
X69322042Y-111878625D02*
X69308035Y-111942032D01*
X69308035Y-111942032D02*
X69289559Y-112004398D01*
X69289559Y-112004398D02*
X69285568Y-112016756D01*
X70863615Y-112733891D02*
X70869970Y-112725193D01*
X67886895Y-112385193D02*
X67920493Y-112438189D01*
X67920493Y-112438189D02*
X67922158Y-112439411D01*
X67894838Y-112367796D02*
X67886895Y-112385193D01*
X69663275Y-111752381D02*
X69645438Y-111733421D01*
X67943900Y-112350166D02*
X67894838Y-112367796D01*
X68069735Y-112338238D02*
X68007150Y-112346624D01*
X68007150Y-112346624D02*
X67943900Y-112350166D01*
X68099188Y-112309334D02*
X68069735Y-112338238D01*
X68090698Y-112261261D02*
X68099188Y-112309334D01*
X69658823Y-111826911D02*
X69666165Y-111763899D01*
X69666165Y-111763899D02*
X69663275Y-111752381D01*
X68103408Y-112217876D02*
X68090698Y-112261261D01*
X69491610Y-111569333D02*
X69432306Y-111590563D01*
X69432306Y-111590563D02*
X69385713Y-111633172D01*
X69385713Y-111633172D02*
X69380827Y-111640063D01*
X69189760Y-112415766D02*
X69240142Y-112378403D01*
X69240142Y-112378403D02*
X69263720Y-112355296D01*
X69491610Y-111569333D02*
X69491610Y-111569333D01*
X69715698Y-112437953D02*
X69718057Y-112371057D01*
X69718057Y-112371057D02*
X69715547Y-112304143D01*
X69715547Y-112304143D02*
X69711140Y-112259698D01*
X69621453Y-112404046D02*
X69625993Y-112470751D01*
X69625993Y-112470751D02*
X69637953Y-112536488D01*
X69637953Y-112536488D02*
X69643303Y-112554853D01*
X69420775Y-112236833D02*
X69419213Y-112281443D01*
X69210958Y-112198241D02*
X69183621Y-112259835D01*
X69183621Y-112259835D02*
X69160399Y-112323003D01*
X69160399Y-112323003D02*
X69149083Y-112366443D01*
X69660933Y-112585531D02*
X69674500Y-112586651D01*
X69643303Y-112554853D02*
X69660933Y-112585531D01*
X69636948Y-112209621D02*
X69625664Y-112275863D01*
X69625664Y-112275863D02*
X69621322Y-112342947D01*
X69621322Y-112342947D02*
X69621453Y-112404046D01*
X69531870Y-111573813D02*
X69491610Y-111569333D01*
X69602365Y-111706651D02*
X69573121Y-111649342D01*
X69573121Y-111649342D02*
X69571245Y-111634386D01*
X69240620Y-112624906D02*
X69297625Y-112645871D01*
X69380827Y-111640063D02*
X69351087Y-111695863D01*
X69351087Y-111695863D02*
X69334086Y-111756786D01*
X69334086Y-111756786D02*
X69328850Y-111814073D01*
X69536010Y-112239178D02*
X69549870Y-112177578D01*
X69549870Y-112177578D02*
X69565042Y-112116263D01*
X69565042Y-112116263D02*
X69581652Y-112055322D01*
X69581652Y-112055322D02*
X69599824Y-111994845D01*
X69599824Y-111994845D02*
X69610958Y-111960531D01*
X68856140Y-112395558D02*
X68794717Y-112380487D01*
X68794717Y-112380487D02*
X68761533Y-112378943D01*
X69512443Y-112357198D02*
X69524762Y-112294491D01*
X69524762Y-112294491D02*
X69536010Y-112239178D01*
X69458928Y-112531756D02*
X69481266Y-112473046D01*
X69481266Y-112473046D02*
X69499134Y-112412797D01*
X69499134Y-112412797D02*
X69512443Y-112357198D01*
X70867418Y-112513813D02*
X70860385Y-112503996D01*
X70879345Y-112595011D02*
X70871822Y-112531251D01*
X70871822Y-112531251D02*
X70867418Y-112513813D01*
X69299083Y-112470973D02*
X69261163Y-112521520D01*
X69261163Y-112521520D02*
X69235880Y-112579176D01*
X70869970Y-112725193D02*
X70879520Y-112660560D01*
X70879520Y-112660560D02*
X70879345Y-112595011D01*
X70850125Y-112648448D02*
X70853544Y-112711895D01*
X70853544Y-112711895D02*
X70856480Y-112729411D01*
X69419213Y-112281443D02*
X69394491Y-112340377D01*
X69394491Y-112340377D02*
X69372025Y-112378058D01*
X69235880Y-112579176D02*
X69240620Y-112624906D01*
X69161323Y-112422666D02*
X69189760Y-112415766D01*
X69151505Y-112415974D02*
X69161323Y-112422666D01*
X67912443Y-112919933D02*
X67908328Y-112945036D01*
X70281010Y-111890478D02*
X70284326Y-111958899D01*
X70284326Y-111958899D02*
X70281901Y-112027375D01*
X70281901Y-112027375D02*
X70271211Y-112095000D01*
X70271211Y-112095000D02*
X70267860Y-112108343D01*
X70338798Y-112911911D02*
X70328500Y-112848615D01*
X70328500Y-112848615D02*
X70325515Y-112798916D01*
X70370255Y-112713813D02*
X70384865Y-112721938D01*
X70314370Y-113025246D02*
X70340125Y-112994228D01*
X68093278Y-112663501D02*
X68040575Y-112628656D01*
X68040575Y-112628656D02*
X67983237Y-112602500D01*
X67983237Y-112602500D02*
X67942340Y-112592563D01*
X67842078Y-113062718D02*
X67881959Y-113113569D01*
X67881959Y-113113569D02*
X67916480Y-113150166D01*
X70565673Y-112155401D02*
X70556635Y-112200921D01*
X70336452Y-112729098D02*
X70346168Y-112718058D01*
X67863928Y-112982849D02*
X67830803Y-113018108D01*
X70725203Y-112951963D02*
X70732307Y-112888519D01*
X70732307Y-112888519D02*
X70732443Y-112886468D01*
X68172365Y-112919386D02*
X68185781Y-112858250D01*
X68185781Y-112858250D02*
X68191870Y-112803371D01*
X70494630Y-111721833D02*
X70503172Y-111785587D01*
X70503172Y-111785587D02*
X70515355Y-111848702D01*
X70515355Y-111848702D02*
X70529210Y-111911528D01*
X70529210Y-111911528D02*
X70542770Y-111974412D01*
X70542770Y-111974412D02*
X70549630Y-112010506D01*
X70500750Y-111642978D02*
X70493496Y-111706928D01*
X70493496Y-111706928D02*
X70494630Y-111721833D01*
X70346168Y-112718058D02*
X70370255Y-112713813D01*
X70510568Y-111635608D02*
X70500750Y-111642978D01*
X70526533Y-111642848D02*
X70510568Y-111635608D01*
X70509345Y-113018891D02*
X70571935Y-113007703D01*
X70571935Y-113007703D02*
X70633567Y-112991609D01*
X70633567Y-112991609D02*
X70641765Y-112989438D01*
X70432730Y-112814411D02*
X70444659Y-112879912D01*
X70444659Y-112879912D02*
X70448448Y-112946533D01*
X70448448Y-112946533D02*
X70448563Y-112955428D01*
X70340125Y-112994228D02*
X70341260Y-112929823D01*
X70341260Y-112929823D02*
X70338798Y-112911911D01*
X70647783Y-111870401D02*
X70621357Y-111807683D01*
X70621357Y-111807683D02*
X70592612Y-111746018D01*
X70592612Y-111746018D02*
X70571480Y-111705871D01*
X70641765Y-112989438D02*
X70703407Y-112970731D01*
X70703407Y-112970731D02*
X70714475Y-112966468D01*
X70384865Y-112721938D02*
X70420809Y-112776578D01*
X70420809Y-112776578D02*
X70432730Y-112814411D01*
X70325515Y-112798916D02*
X70333946Y-112735308D01*
X70333946Y-112735308D02*
X70336452Y-112729098D01*
X70095072Y-112703891D02*
X70117045Y-112771712D01*
X70117045Y-112771712D02*
X70144445Y-112837614D01*
X70144445Y-112837614D02*
X70177972Y-112900509D01*
X70177972Y-112900509D02*
X70218327Y-112959308D01*
X68353275Y-112755193D02*
X68353275Y-112755193D01*
X70292390Y-113023579D02*
X70314370Y-113025246D01*
X70218327Y-112959308D02*
X70263310Y-113006162D01*
X70263310Y-113006162D02*
X70292390Y-113023579D01*
X70087495Y-112544358D02*
X70080922Y-112609427D01*
X70080922Y-112609427D02*
X70087565Y-112674542D01*
X70087565Y-112674542D02*
X70095072Y-112703891D01*
X68166323Y-112729646D02*
X68119947Y-112684516D01*
X68119947Y-112684516D02*
X68093278Y-112663501D01*
X70155203Y-112359308D02*
X70126869Y-112421032D01*
X70126869Y-112421032D02*
X70103100Y-112484660D01*
X70103100Y-112484660D02*
X70087495Y-112544358D01*
X70267860Y-112108343D02*
X70245990Y-112173634D01*
X70245990Y-112173634D02*
X70217888Y-112236452D01*
X70217888Y-112236452D02*
X70186608Y-112297956D01*
X70186608Y-112297956D02*
X70155203Y-112359308D01*
X70259605Y-111612849D02*
X70261884Y-111682424D01*
X70261884Y-111682424D02*
X70267466Y-111751830D01*
X70267466Y-111751830D02*
X70274468Y-111821153D01*
X70274468Y-111821153D02*
X70281010Y-111890478D01*
X67942340Y-112592563D02*
X67907885Y-112591103D01*
X68114578Y-113114021D02*
X68135711Y-113054165D01*
X68135711Y-113054165D02*
X68153295Y-112993179D01*
X68153295Y-112993179D02*
X68169215Y-112931689D01*
X68169215Y-112931689D02*
X68172365Y-112919386D01*
X67869943Y-112861833D02*
X67909107Y-112911420D01*
X67909107Y-112911420D02*
X67912443Y-112919933D01*
X68191870Y-112803371D02*
X68175180Y-112741727D01*
X68175180Y-112741727D02*
X68166323Y-112729646D01*
X67916480Y-113150166D02*
X67964401Y-113191967D01*
X67964401Y-113191967D02*
X67997783Y-113210296D01*
X68056350Y-113203161D02*
X68096295Y-113153822D01*
X68096295Y-113153822D02*
X68114578Y-113114021D01*
X67830803Y-113018108D02*
X67842078Y-113062718D01*
X67908328Y-112945036D02*
X67863928Y-112982849D01*
X70549630Y-112010506D02*
X70559627Y-112073571D01*
X70559627Y-112073571D02*
X70565326Y-112137141D01*
X70565326Y-112137141D02*
X70565673Y-112155401D01*
X70571480Y-111705871D02*
X70536698Y-111653300D01*
X70536698Y-111653300D02*
X70526533Y-111642848D01*
X70714475Y-112966468D02*
X70725203Y-112951963D01*
X70448563Y-112955428D02*
X70462158Y-113004828D01*
X70717390Y-112101521D02*
X70702664Y-112035130D01*
X70702664Y-112035130D02*
X70684050Y-111969725D01*
X70684050Y-111969725D02*
X70661724Y-111905500D01*
X70661724Y-111905500D02*
X70647783Y-111870401D01*
X70462158Y-113004828D02*
X70509345Y-113018891D01*
X67997783Y-113210296D02*
X68056350Y-113203161D01*
X70265725Y-111534983D02*
X70259731Y-111598172D01*
X70259731Y-111598172D02*
X70259605Y-111612849D01*
X70743720Y-112482901D02*
X70743498Y-112411133D01*
X70743498Y-112411133D02*
X70741801Y-112339351D01*
X70741801Y-112339351D02*
X70737998Y-112267674D01*
X70737998Y-112267674D02*
X70731457Y-112196224D01*
X70731457Y-112196224D02*
X70721549Y-112125122D01*
X70721549Y-112125122D02*
X70717390Y-112101521D01*
X70732443Y-112886468D02*
X70735241Y-112823452D01*
X70735241Y-112823452D02*
X70737605Y-112760409D01*
X70737605Y-112760409D02*
X70739569Y-112697348D01*
X70739569Y-112697348D02*
X70741167Y-112634275D01*
X70741167Y-112634275D02*
X70742435Y-112571199D01*
X70742435Y-112571199D02*
X70743406Y-112508127D01*
X70743406Y-112508127D02*
X70743720Y-112482901D01*
X69718275Y-113031938D02*
X69739613Y-112970240D01*
X69739613Y-112970240D02*
X69754580Y-112906655D01*
X69754580Y-112906655D02*
X69760543Y-112847563D01*
X68488798Y-113148161D02*
X68539281Y-113105380D01*
X68539281Y-113105380D02*
X68576855Y-113051306D01*
X68576855Y-113051306D02*
X68580490Y-113043214D01*
X69536895Y-113207616D02*
X69597006Y-113185283D01*
X69597006Y-113185283D02*
X69649658Y-113149046D01*
X69132313Y-113545036D02*
X69130895Y-113480440D01*
X69130895Y-113480440D02*
X69118331Y-113417096D01*
X69118331Y-113417096D02*
X69102990Y-113376833D01*
X68970020Y-113286261D02*
X68970020Y-113286261D01*
X69580073Y-113072536D02*
X69569033Y-113060608D01*
X69290385Y-112769463D02*
X69232919Y-112801350D01*
X69232919Y-112801350D02*
X69187790Y-112849034D01*
X69187790Y-112849034D02*
X69172703Y-112875426D01*
X69731765Y-113288058D02*
X69709345Y-113288058D01*
X69649658Y-113149046D02*
X69687390Y-113097555D01*
X69687390Y-113097555D02*
X69715075Y-113039820D01*
X69715075Y-113039820D02*
X69718275Y-113031938D01*
X68955178Y-112960871D02*
X68976077Y-113020195D01*
X68976077Y-113020195D02*
X68984188Y-113032381D01*
X68958408Y-113300426D02*
X68945428Y-113364490D01*
X68945428Y-113364490D02*
X68946375Y-113404046D01*
X68296713Y-112796676D02*
X68272487Y-112854793D01*
X68272487Y-112854793D02*
X68257155Y-112915977D01*
X68257155Y-112915977D02*
X68249213Y-112957198D01*
X68353275Y-112755193D02*
X68300025Y-112790707D01*
X68300025Y-112790707D02*
X68296713Y-112796676D01*
X69620438Y-113037301D02*
X69594345Y-113070973D01*
X69080333Y-112945921D02*
X69027153Y-112909564D01*
X69027153Y-112909564D02*
X69015855Y-112905558D01*
X69098953Y-113694751D02*
X69118553Y-113635375D01*
X69118553Y-113635375D02*
X69129804Y-113573800D01*
X69129804Y-113573800D02*
X69132313Y-113545036D01*
X68946375Y-113404046D02*
X68951887Y-113470363D01*
X68951887Y-113470363D02*
X68960814Y-113536307D01*
X68960814Y-113536307D02*
X68968015Y-113580063D01*
X68986193Y-113281808D02*
X68970020Y-113286261D01*
X69764683Y-113377954D02*
X69755283Y-113315326D01*
X69755283Y-113315326D02*
X69750828Y-113304438D01*
X68258798Y-113216886D02*
X68322171Y-113219890D01*
X68322171Y-113219890D02*
X68354838Y-113211963D01*
X69567783Y-112712458D02*
X69557313Y-112699203D01*
X69760543Y-112847563D02*
X69746818Y-112793891D01*
X69298745Y-113214203D02*
X69365765Y-113222392D01*
X69365765Y-113222392D02*
X69433271Y-113223367D01*
X69433271Y-113223367D02*
X69500265Y-113215885D01*
X69500265Y-113215885D02*
X69536895Y-113207616D01*
X69015855Y-112905558D02*
X68979162Y-112913916D01*
X68968015Y-113580063D02*
X68980924Y-113641365D01*
X68980924Y-113641365D02*
X68999742Y-113701014D01*
X68999742Y-113701014D02*
X69006818Y-113717483D01*
X69734110Y-112787641D02*
X69711688Y-112795791D01*
X69144240Y-112950738D02*
X69123275Y-112965454D01*
X69571038Y-112774723D02*
X69567783Y-112712458D01*
X67825438Y-112752171D02*
X67843058Y-112812938D01*
X67843058Y-112812938D02*
X67869943Y-112861833D01*
X67835828Y-112635948D02*
X67820434Y-112696692D01*
X67820434Y-112696692D02*
X67825438Y-112752171D01*
X69037390Y-113753421D02*
X69055908Y-113753188D01*
X69750828Y-113304438D02*
X69731765Y-113288058D01*
X67907885Y-112591103D02*
X67850488Y-112615902D01*
X67850488Y-112615902D02*
X67835828Y-112635948D01*
X69528408Y-112695948D02*
X69528408Y-112695948D01*
X68393538Y-112761651D02*
X68353275Y-112755193D01*
X68500308Y-112822121D02*
X68445847Y-112785829D01*
X68445847Y-112785829D02*
X68393538Y-112761651D01*
X68588303Y-112943031D02*
X68559981Y-112883144D01*
X68559981Y-112883144D02*
X68515155Y-112833974D01*
X68515155Y-112833974D02*
X68500308Y-112822121D01*
X69055908Y-113753188D02*
X69095249Y-113703148D01*
X69095249Y-113703148D02*
X69098953Y-113694751D01*
X69073303Y-113122953D02*
X69131772Y-113159576D01*
X69131772Y-113159576D02*
X69194896Y-113187352D01*
X69194896Y-113187352D02*
X69261148Y-113206802D01*
X69261148Y-113206802D02*
X69298745Y-113214203D01*
X69448225Y-112723188D02*
X69384417Y-112742898D01*
X69384417Y-112742898D02*
X69320088Y-112761084D01*
X69320088Y-112761084D02*
X69290385Y-112769463D01*
X69102990Y-113376833D02*
X69065960Y-113325501D01*
X69065960Y-113325501D02*
X69043538Y-113307353D01*
X69123275Y-112965454D02*
X69080333Y-112945921D01*
X68526635Y-113272536D02*
X68526635Y-113272536D01*
X68580490Y-113043214D02*
X68593734Y-112980954D01*
X68593734Y-112980954D02*
X68588303Y-112943031D01*
X69751063Y-113637171D02*
X69761152Y-113572938D01*
X69761152Y-113572938D02*
X69765978Y-113508109D01*
X69765978Y-113508109D02*
X69766751Y-113443007D01*
X69766751Y-113443007D02*
X69764683Y-113377954D01*
X68354838Y-113211963D02*
X68415891Y-113189201D01*
X68415891Y-113189201D02*
X68473215Y-113158308D01*
X68473215Y-113158308D02*
X68488798Y-113148161D01*
X68226350Y-113125296D02*
X68230377Y-113187733D01*
X68230377Y-113187733D02*
X68234708Y-113198578D01*
X69557313Y-112699203D02*
X69528408Y-112695948D01*
X69553068Y-112966781D02*
X69556889Y-112900590D01*
X69556889Y-112900590D02*
X69564863Y-112834696D01*
X69564863Y-112834696D02*
X69571038Y-112774723D01*
X69006818Y-113717483D02*
X69037390Y-113753421D01*
X69569033Y-113060608D02*
X69553945Y-112999825D01*
X69553945Y-112999825D02*
X69553068Y-112966781D01*
X69746818Y-112793891D02*
X69734110Y-112787641D01*
X69711688Y-112795791D02*
X69677317Y-112849237D01*
X69677317Y-112849237D02*
X69674658Y-112855246D01*
X69594345Y-113070973D02*
X69580073Y-113072536D01*
X69674658Y-112855246D02*
X69655472Y-112917701D01*
X69655472Y-112917701D02*
X69640369Y-112981400D01*
X69640369Y-112981400D02*
X69620438Y-113037301D01*
X68970020Y-113286261D02*
X68958408Y-113300426D01*
X69709345Y-113288058D02*
X69709345Y-113288058D01*
X69043538Y-113307353D02*
X68986193Y-113281808D01*
X68984188Y-113032381D02*
X69025307Y-113081016D01*
X69025307Y-113081016D02*
X69073303Y-113122953D01*
X69528408Y-112695948D02*
X69468337Y-112716543D01*
X69468337Y-112716543D02*
X69448225Y-112723188D01*
X69172703Y-112875426D02*
X69152365Y-112935048D01*
X69152365Y-112935048D02*
X69144240Y-112950738D01*
X68234708Y-113198578D02*
X68258798Y-113216886D01*
X68979162Y-112913916D02*
X68955178Y-112960871D01*
X68249213Y-112957198D02*
X68238793Y-113019988D01*
X68238793Y-113019988D02*
X68230405Y-113083093D01*
X68230405Y-113083093D02*
X68226350Y-113125296D01*
X68013615Y-113606051D02*
X68017091Y-113669071D01*
X68017091Y-113669071D02*
X68020880Y-113693526D01*
X67325153Y-105671581D02*
X67349681Y-105613868D01*
X67349681Y-105613868D02*
X67351715Y-105610228D01*
X68201845Y-113761546D02*
X68234569Y-113706278D01*
X68234569Y-113706278D02*
X68257930Y-113646248D01*
X68257930Y-113646248D02*
X68263928Y-113628916D01*
X67168875Y-106376438D02*
X67185649Y-106314393D01*
X67185649Y-106314393D02*
X67199078Y-106251468D01*
X67199078Y-106251468D02*
X67202678Y-106233438D01*
X67961533Y-113334333D02*
X67899386Y-113322249D01*
X67899386Y-113322249D02*
X67862260Y-113314151D01*
X67826350Y-113711808D02*
X67849423Y-113741363D01*
X67797105Y-113558761D02*
X67802759Y-113622170D01*
X67802759Y-113622170D02*
X67816076Y-113684277D01*
X67816076Y-113684277D02*
X67826350Y-113711808D01*
X67862260Y-113314151D02*
X67826453Y-113321963D01*
X67121818Y-106451173D02*
X67133640Y-106446041D01*
X67979265Y-113538578D02*
X67996038Y-113549281D01*
X68062025Y-113784203D02*
X68119475Y-113810193D01*
X67996038Y-113549281D02*
X68013615Y-113606051D01*
X68381505Y-105242686D02*
X68447570Y-105241422D01*
X68447570Y-105241422D02*
X68498953Y-105241458D01*
X68357625Y-113694958D02*
X68388630Y-113749773D01*
X68388630Y-113749773D02*
X68422105Y-113785323D01*
X67741558Y-105375648D02*
X67800315Y-105354173D01*
X67800315Y-105354173D02*
X67859314Y-105333339D01*
X67859314Y-105333339D02*
X67918847Y-105314160D01*
X67918847Y-105314160D02*
X67952260Y-105304593D01*
X67255880Y-105932151D02*
X67270333Y-105866260D01*
X67270333Y-105866260D02*
X67286385Y-105800736D01*
X67286385Y-105800736D02*
X67304503Y-105735777D01*
X67304503Y-105735777D02*
X67325153Y-105671581D01*
X67826453Y-113321963D02*
X67802203Y-113382333D01*
X67802203Y-113382333D02*
X67799683Y-113404176D01*
X69245100Y-113599256D02*
X69267367Y-113659675D01*
X69267367Y-113659675D02*
X69291375Y-113703656D01*
X67952260Y-105304593D02*
X68013942Y-105293723D01*
X68013942Y-105293723D02*
X68075773Y-105283441D01*
X68075773Y-105283441D02*
X68131975Y-105274031D01*
X69415543Y-113366676D02*
X69353535Y-113384352D01*
X69353535Y-113384352D02*
X69296671Y-113413994D01*
X69296671Y-113413994D02*
X69282235Y-113425478D01*
X67955385Y-113549853D02*
X67979265Y-113538578D01*
X68413953Y-113349386D02*
X68349952Y-113356638D01*
X68349952Y-113356638D02*
X68285493Y-113358858D01*
X68285493Y-113358858D02*
X68242520Y-113358863D01*
X68473980Y-113325088D02*
X68415946Y-113349010D01*
X68415946Y-113349010D02*
X68413953Y-113349386D01*
X69707783Y-113748291D02*
X69736865Y-113691805D01*
X69736865Y-113691805D02*
X69751063Y-113637171D01*
X67133640Y-106446041D02*
X67164162Y-106390391D01*
X67164162Y-106390391D02*
X67168875Y-106376438D01*
X69709345Y-113288058D02*
X69650156Y-113309045D01*
X69650156Y-113309045D02*
X69636270Y-113313266D01*
X69636270Y-113313266D02*
X69574926Y-113331100D01*
X69574926Y-113331100D02*
X69512856Y-113346346D01*
X69512856Y-113346346D02*
X69450350Y-113359750D01*
X69450350Y-113359750D02*
X69415543Y-113366676D01*
X67849423Y-113741363D02*
X67878900Y-113744933D01*
X69619213Y-113798371D02*
X69678060Y-113772628D01*
X69678060Y-113772628D02*
X69707783Y-113748291D01*
X69427912Y-113795584D02*
X69493222Y-113808624D01*
X69493222Y-113808624D02*
X69559778Y-113809464D01*
X69559778Y-113809464D02*
X69619213Y-113798371D01*
X69282235Y-113425478D02*
X69245758Y-113476363D01*
X69245758Y-113476363D02*
X69240515Y-113493291D01*
X68498953Y-105241458D02*
X68498953Y-105241458D01*
X66984943Y-106313751D02*
X67041282Y-106341781D01*
X67041282Y-106341781D02*
X67070048Y-106381571D01*
X68576948Y-113312483D02*
X68543900Y-113273421D01*
X68474865Y-113800376D02*
X68525178Y-113770818D01*
X68422105Y-113785323D02*
X68474865Y-113800376D01*
X67351715Y-105610228D02*
X67393142Y-105562764D01*
X67393142Y-105562764D02*
X67436923Y-105528243D01*
X68242520Y-113358863D02*
X68172010Y-113356587D01*
X68172010Y-113356587D02*
X68101606Y-113351745D01*
X68101606Y-113351745D02*
X68031412Y-113344329D01*
X68031412Y-113344329D02*
X67961533Y-113334333D01*
X66946688Y-106322451D02*
X66984943Y-106313751D01*
X66735073Y-106583468D02*
X66772349Y-106526606D01*
X66772349Y-106526606D02*
X66811309Y-106470854D01*
X66811309Y-106470854D02*
X66852536Y-106416792D01*
X66852536Y-106416792D02*
X66876635Y-106387703D01*
X68310438Y-113590454D02*
X68338231Y-113648636D01*
X68338231Y-113648636D02*
X68357625Y-113694958D01*
X68263928Y-113628916D02*
X68286350Y-113580636D01*
X68131975Y-105274031D02*
X68194559Y-105263206D01*
X68194559Y-105263206D02*
X68222885Y-105257521D01*
X67799683Y-113404176D02*
X67796003Y-113466876D01*
X67796003Y-113466876D02*
X67796167Y-113529753D01*
X67796167Y-113529753D02*
X67797105Y-113558761D01*
X66876635Y-106387703D02*
X66920541Y-106342505D01*
X66920541Y-106342505D02*
X66946688Y-106322451D01*
X67070048Y-106381571D02*
X67099890Y-106437717D01*
X67099890Y-106437717D02*
X67108198Y-106446153D01*
X68119475Y-113810193D02*
X68178424Y-113785987D01*
X68178424Y-113785987D02*
X68201845Y-113761546D01*
X68020880Y-113693526D02*
X68040143Y-113753486D01*
X68040143Y-113753486D02*
X68062025Y-113784203D01*
X67925283Y-113610531D02*
X67952485Y-113552993D01*
X67952485Y-113552993D02*
X67955385Y-113549853D01*
X67914005Y-113698526D02*
X67919950Y-113634954D01*
X67919950Y-113634954D02*
X67925283Y-113610531D01*
X67108198Y-106446153D02*
X67121818Y-106451173D01*
X68526635Y-113272536D02*
X68480546Y-113315361D01*
X68480546Y-113315361D02*
X68473980Y-113325088D01*
X68222885Y-105257521D02*
X68287020Y-105248700D01*
X68287020Y-105248700D02*
X68351633Y-105244061D01*
X68351633Y-105244061D02*
X68381505Y-105242686D01*
X67436923Y-105528243D02*
X67490432Y-105492921D01*
X67490432Y-105492921D02*
X67545956Y-105460962D01*
X67545956Y-105460962D02*
X67603181Y-105432125D01*
X67603181Y-105432125D02*
X67661793Y-105406173D01*
X67661793Y-105406173D02*
X67721478Y-105382869D01*
X67721478Y-105382869D02*
X67741558Y-105375648D01*
X67202678Y-106233438D02*
X67214341Y-106167568D01*
X67214341Y-106167568D02*
X67225199Y-106101539D01*
X67225199Y-106101539D02*
X67236175Y-106035513D01*
X67236175Y-106035513D02*
X67248191Y-105969651D01*
X67248191Y-105969651D02*
X67255880Y-105932151D01*
X69291375Y-113703656D02*
X69334473Y-113749221D01*
X69334473Y-113749221D02*
X69388395Y-113781483D01*
X69388395Y-113781483D02*
X69427912Y-113795584D01*
X67878900Y-113744933D02*
X67914005Y-113698526D01*
X69240515Y-113493291D02*
X69236208Y-113556558D01*
X69236208Y-113556558D02*
X69245100Y-113599256D01*
X68580828Y-113649463D02*
X68592234Y-113587231D01*
X68592234Y-113587231D02*
X68597662Y-113524184D01*
X68597662Y-113524184D02*
X68598291Y-113460831D01*
X68598291Y-113460831D02*
X68597000Y-113425689D01*
X68286350Y-113580636D02*
X68300308Y-113576626D01*
X68597000Y-113425689D02*
X68589949Y-113361171D01*
X68589949Y-113361171D02*
X68576948Y-113312483D01*
X68525178Y-113770818D02*
X68558612Y-113717521D01*
X68558612Y-113717521D02*
X68578754Y-113657586D01*
X68578754Y-113657586D02*
X68580828Y-113649463D01*
X68543900Y-113273421D02*
X68526635Y-113272536D01*
X68300308Y-113576626D02*
X68310438Y-113590454D01*
X68693953Y-113939256D02*
X68639258Y-113971190D01*
X68639258Y-113971190D02*
X68637288Y-113971834D01*
X66821975Y-113179853D02*
X66764543Y-113154600D01*
X66764543Y-113154600D02*
X66710142Y-113123419D01*
X66710142Y-113123419D02*
X66686010Y-113107458D01*
X67571793Y-113213318D02*
X67557520Y-113192563D01*
X66781715Y-110075401D02*
X66844893Y-110080695D01*
X66844893Y-110080695D02*
X66906581Y-110095825D01*
X66906581Y-110095825D02*
X66946793Y-110108996D01*
X66518458Y-112253578D02*
X66515463Y-112188474D01*
X66515463Y-112188474D02*
X66495828Y-112126728D01*
X67147235Y-110829698D02*
X67083945Y-110827588D01*
X67083945Y-110827588D02*
X67046063Y-110832926D01*
X67157730Y-110835714D02*
X67147235Y-110829698D01*
X66468485Y-111580166D02*
X66531800Y-111587512D01*
X66531800Y-111587512D02*
X66573903Y-111599906D01*
X67875855Y-114014776D02*
X67811452Y-114000954D01*
X67811452Y-114000954D02*
X67748337Y-113981898D01*
X67748337Y-113981898D02*
X67719813Y-113971261D01*
X66386403Y-111841416D02*
X66379798Y-111777795D01*
X66379798Y-111777795D02*
X66379717Y-111713850D01*
X66379717Y-111713850D02*
X66384708Y-111671521D01*
X68442520Y-114014203D02*
X68378661Y-114021226D01*
X68378661Y-114021226D02*
X68314619Y-114026431D01*
X68314619Y-114026431D02*
X68250449Y-114029929D01*
X68250449Y-114029929D02*
X68186202Y-114031829D01*
X68186202Y-114031829D02*
X68121933Y-114032241D01*
X68121933Y-114032241D02*
X68100515Y-114032068D01*
X68788640Y-113928421D02*
X68725357Y-113928723D01*
X68725357Y-113928723D02*
X68693953Y-113939256D01*
X66512105Y-107023838D02*
X66535152Y-106962266D01*
X66535152Y-106962266D02*
X66561119Y-106901855D01*
X66561119Y-106901855D02*
X66589319Y-106842439D01*
X66589319Y-106842439D02*
X66605698Y-106809801D01*
X68980957Y-113980636D02*
X68915748Y-113959354D01*
X68915748Y-113959354D02*
X68849836Y-113940331D01*
X68849836Y-113940331D02*
X68788640Y-113928421D01*
X66473615Y-107224751D02*
X66480534Y-107161059D01*
X66480534Y-107161059D02*
X66491390Y-107097886D01*
X66491390Y-107097886D02*
X66507952Y-107035995D01*
X66507952Y-107035995D02*
X66512105Y-107023838D01*
X69265725Y-114041886D02*
X69202340Y-114034373D01*
X69202340Y-114034373D02*
X69139474Y-114023312D01*
X69139474Y-114023312D02*
X69077235Y-114008997D01*
X69077235Y-114008997D02*
X69015731Y-113991722D01*
X69015731Y-113991722D02*
X68980957Y-113980636D01*
X66926948Y-109896598D02*
X66896966Y-109835355D01*
X66896966Y-109835355D02*
X66870264Y-109772600D01*
X66870264Y-109772600D02*
X66845994Y-109708847D01*
X66845994Y-109708847D02*
X66833250Y-109673188D01*
X66678745Y-110110896D02*
X66737181Y-110081334D01*
X66737181Y-110081334D02*
X66781715Y-110075401D01*
X67158173Y-110851546D02*
X67157730Y-110835714D01*
X66495828Y-112126728D02*
X66458734Y-112074433D01*
X66458734Y-112074433D02*
X66453095Y-112063943D01*
X66472053Y-112797796D02*
X66466970Y-112728794D01*
X66466970Y-112728794D02*
X66468415Y-112659618D01*
X66468415Y-112659618D02*
X66474599Y-112590627D01*
X66474599Y-112590627D02*
X66479423Y-112552511D01*
X67582730Y-113795921D02*
X67574091Y-113728935D01*
X67574091Y-113728935D02*
X67570859Y-113661473D01*
X67570859Y-113661473D02*
X67570659Y-113593897D01*
X67570659Y-113593897D02*
X67570775Y-113580401D01*
X67626115Y-113904228D02*
X67595048Y-113845983D01*
X67595048Y-113845983D02*
X67582730Y-113795921D01*
X67022418Y-110137328D02*
X67039370Y-110137666D01*
X66584605Y-110662588D02*
X66577975Y-110598623D01*
X66577975Y-110598623D02*
X66575870Y-110534369D01*
X66575870Y-110534369D02*
X66577130Y-110470031D01*
X66577130Y-110470031D02*
X66580595Y-110405818D01*
X66573903Y-111599906D02*
X66635781Y-111620623D01*
X66635781Y-111620623D02*
X66679318Y-111630246D01*
X69834057Y-113958656D02*
X69769538Y-113982528D01*
X69769538Y-113982528D02*
X69703176Y-114000661D01*
X69703176Y-114000661D02*
X69635918Y-114015372D01*
X69635918Y-114015372D02*
X69622443Y-114018108D01*
X67046063Y-110832926D02*
X66982330Y-110845679D01*
X66982330Y-110845679D02*
X66919092Y-110860938D01*
X66919092Y-110860938D02*
X66910645Y-110862926D01*
X66469708Y-107574671D02*
X66467611Y-107509073D01*
X66467611Y-107509073D02*
X66466515Y-107443436D01*
X66466515Y-107443436D02*
X66466694Y-107377789D01*
X66466694Y-107377789D02*
X66468423Y-107312164D01*
X66468423Y-107312164D02*
X66471977Y-107246591D01*
X66471977Y-107246591D02*
X66473615Y-107224751D01*
X66833250Y-109673188D02*
X66812345Y-109610604D01*
X66812345Y-109610604D02*
X66792637Y-109547645D01*
X66792637Y-109547645D02*
X66773997Y-109484364D01*
X66773997Y-109484364D02*
X66756297Y-109420810D01*
X66756297Y-109420810D02*
X66739411Y-109357037D01*
X66739411Y-109357037D02*
X66723211Y-109293095D01*
X66723211Y-109293095D02*
X66716895Y-109267483D01*
X66580595Y-110405818D02*
X66586796Y-110341738D01*
X66586796Y-110341738D02*
X66596856Y-110278151D01*
X66596856Y-110278151D02*
X66613333Y-110215991D01*
X66613333Y-110215991D02*
X66617625Y-110203813D01*
X66597653Y-108689333D02*
X66586113Y-108621619D01*
X66586113Y-108621619D02*
X66574995Y-108553831D01*
X66574995Y-108553831D02*
X66564308Y-108485972D01*
X66564308Y-108485972D02*
X66554058Y-108418043D01*
X66554058Y-108418043D02*
X66544252Y-108350045D01*
X66544252Y-108350045D02*
X66534897Y-108281981D01*
X66534897Y-108281981D02*
X66526002Y-108213852D01*
X66526002Y-108213852D02*
X66517573Y-108145661D01*
X66517573Y-108145661D02*
X66509355Y-108074520D01*
X66509355Y-108074520D02*
X66501642Y-108003306D01*
X66501642Y-108003306D02*
X66494500Y-107932023D01*
X66494500Y-107932023D02*
X66487996Y-107860674D01*
X66487996Y-107860674D02*
X66482198Y-107789261D01*
X66482198Y-107789261D02*
X66477172Y-107717787D01*
X66477172Y-107717787D02*
X66472986Y-107646256D01*
X66472986Y-107646256D02*
X66469708Y-107574671D01*
X66716895Y-109267483D02*
X66699804Y-109195668D01*
X66699804Y-109195668D02*
X66683395Y-109123706D01*
X66683395Y-109123706D02*
X66667639Y-109051606D01*
X66667639Y-109051606D02*
X66652507Y-108979375D01*
X66652507Y-108979375D02*
X66637972Y-108907024D01*
X66637972Y-108907024D02*
X66624003Y-108834560D01*
X66624003Y-108834560D02*
X66610573Y-108761993D01*
X66610573Y-108761993D02*
X66597653Y-108689333D01*
X67015178Y-110047978D02*
X66982678Y-109990798D01*
X66982678Y-109990798D02*
X66948900Y-109934446D01*
X66948900Y-109934446D02*
X66926948Y-109896598D01*
X67044840Y-110122041D02*
X67022086Y-110061318D01*
X67022086Y-110061318D02*
X67015178Y-110047978D01*
X66617625Y-110203813D02*
X66645923Y-110147240D01*
X66645923Y-110147240D02*
X66678745Y-110110896D01*
X66414735Y-111608058D02*
X66468485Y-111580166D01*
X67570775Y-113580401D02*
X67572190Y-113516129D01*
X67572190Y-113516129D02*
X67574492Y-113451861D01*
X67574492Y-113451861D02*
X67576964Y-113387594D01*
X67576964Y-113387594D02*
X67578892Y-113323325D01*
X67578892Y-113323325D02*
X67579475Y-113286598D01*
X66686010Y-113107458D02*
X66633433Y-113069662D01*
X66633433Y-113069662D02*
X66584577Y-113027009D01*
X66584577Y-113027009D02*
X66542109Y-112978292D01*
X66542109Y-112978292D02*
X66522260Y-112948161D01*
X67039370Y-110137666D02*
X67044840Y-110122041D01*
X69622443Y-114018108D02*
X69556254Y-114029739D01*
X69556254Y-114029739D02*
X69489552Y-114038590D01*
X69489552Y-114038590D02*
X69422510Y-114044184D01*
X69422510Y-114044184D02*
X69355300Y-114046043D01*
X69355300Y-114046043D02*
X69288095Y-114043689D01*
X69288095Y-114043689D02*
X69265725Y-114041886D01*
X66639708Y-110810166D02*
X66608244Y-110753861D01*
X66608244Y-110753861D02*
X66589654Y-110691963D01*
X66589654Y-110691963D02*
X66584605Y-110662588D01*
X66957390Y-111269958D02*
X66989291Y-111210815D01*
X66989291Y-111210815D02*
X67020727Y-111151422D01*
X67020727Y-111151422D02*
X67051489Y-111091689D01*
X67051489Y-111091689D02*
X67081368Y-111031525D01*
X67081368Y-111031525D02*
X67110157Y-110970838D01*
X67110157Y-110970838D02*
X67119475Y-110950478D01*
X66522260Y-112948161D02*
X66494147Y-112889769D01*
X66494147Y-112889769D02*
X66476616Y-112827384D01*
X66476616Y-112827384D02*
X66472053Y-112797796D01*
X66679318Y-111630246D02*
X66741051Y-111613026D01*
X66741051Y-111613026D02*
X66752365Y-111602926D01*
X66479423Y-112552511D02*
X66489565Y-112487334D01*
X66489565Y-112487334D02*
X66500094Y-112422147D01*
X66500094Y-112422147D02*
X66509511Y-112356822D01*
X66509511Y-112356822D02*
X66516317Y-112291229D01*
X66516317Y-112291229D02*
X66518458Y-112253578D01*
X67067703Y-113235063D02*
X67005171Y-113226619D01*
X67005171Y-113226619D02*
X66943130Y-113214899D01*
X66943130Y-113214899D02*
X66881943Y-113199458D01*
X66881943Y-113199458D02*
X66821975Y-113179853D01*
X67579475Y-113286598D02*
X67574197Y-113222249D01*
X67574197Y-113222249D02*
X67571793Y-113213318D01*
X68100515Y-114032068D02*
X68037146Y-114030241D01*
X68037146Y-114030241D02*
X67973837Y-114026402D01*
X67973837Y-114026402D02*
X67910749Y-114019848D01*
X67910749Y-114019848D02*
X67875855Y-114014776D01*
X68637288Y-113971834D02*
X68571745Y-113992179D01*
X68571745Y-113992179D02*
X68504358Y-114005416D01*
X68504358Y-114005416D02*
X68442520Y-114014203D01*
X66752365Y-111602926D02*
X66793771Y-111553436D01*
X66793771Y-111553436D02*
X66828594Y-111498829D01*
X66828594Y-111498829D02*
X66833120Y-111491496D01*
X67119475Y-110950478D02*
X67144173Y-110892393D01*
X67144173Y-110892393D02*
X67158173Y-110851546D01*
X67719813Y-113971261D02*
X67662381Y-113939881D01*
X67662381Y-113939881D02*
X67626115Y-113904228D01*
X66737990Y-110871391D02*
X66679977Y-110847796D01*
X66679977Y-110847796D02*
X66639708Y-110810166D01*
X66910645Y-110862926D02*
X66846302Y-110874217D01*
X66846302Y-110874217D02*
X66781168Y-110877007D01*
X66781168Y-110877007D02*
X66737990Y-110871391D01*
X66833120Y-111491496D02*
X66865123Y-111436653D01*
X66865123Y-111436653D02*
X66896183Y-111381263D01*
X66896183Y-111381263D02*
X66926778Y-111325604D01*
X66926778Y-111325604D02*
X66957390Y-111269958D01*
X66384708Y-111671521D02*
X66410283Y-111613063D01*
X66410283Y-111613063D02*
X66414735Y-111608058D01*
X66453095Y-112063943D02*
X66426201Y-112004081D01*
X66426201Y-112004081D02*
X66406446Y-111941532D01*
X66406446Y-111941532D02*
X66392343Y-111877367D01*
X66392343Y-111877367D02*
X66386403Y-111841416D01*
X67495490Y-113198031D02*
X67433093Y-113217815D01*
X67433093Y-113217815D02*
X67389423Y-113227483D01*
X67389423Y-113227483D02*
X67319506Y-113237569D01*
X67319506Y-113237569D02*
X67249071Y-113242363D01*
X67249071Y-113242363D02*
X67178422Y-113242533D01*
X67178422Y-113242533D02*
X67107864Y-113238746D01*
X67107864Y-113238746D02*
X67067703Y-113235063D01*
X67557520Y-113192563D02*
X67495490Y-113198031D01*
X66605698Y-106809801D02*
X66636057Y-106752080D01*
X66636057Y-106752080D02*
X66667749Y-106695083D01*
X66667749Y-106695083D02*
X66700759Y-106638862D01*
X66700759Y-106638862D02*
X66735073Y-106583468D01*
X66946793Y-110108996D02*
X67005765Y-110131560D01*
X67005765Y-110131560D02*
X67022418Y-110137328D01*
X71207730Y-106560041D02*
X71156433Y-106602012D01*
X71156433Y-106602012D02*
X71103572Y-106641988D01*
X71103572Y-106641988D02*
X71050393Y-106681568D01*
X71050393Y-106681568D02*
X70998145Y-106722353D01*
X69996140Y-113690608D02*
X69989767Y-113753815D01*
X69989767Y-113753815D02*
X69974819Y-113815476D01*
X69974819Y-113815476D02*
X69957755Y-113854256D01*
X71117833Y-111307434D02*
X71125855Y-111359751D01*
X71070438Y-107092563D02*
X71098496Y-107155997D01*
X71098496Y-107155997D02*
X71121848Y-107221224D01*
X71121848Y-107221224D02*
X71140706Y-107287908D01*
X71140706Y-107287908D02*
X71155282Y-107355712D01*
X71155282Y-107355712D02*
X71165787Y-107424300D01*
X71165787Y-107424300D02*
X71172432Y-107493336D01*
X71172432Y-107493336D02*
X71174058Y-107521001D01*
X70531895Y-106206218D02*
X70544708Y-106208113D01*
X70893510Y-111689698D02*
X70883321Y-111755055D01*
X70883321Y-111755055D02*
X70891298Y-111821001D01*
X71341923Y-106398971D02*
X71308075Y-106455510D01*
X71308075Y-106455510D02*
X71265580Y-106505910D01*
X71265580Y-106505910D02*
X71217675Y-106551417D01*
X71217675Y-106551417D02*
X71207730Y-106560041D01*
X71125855Y-111359751D02*
X71098223Y-111419476D01*
X71098223Y-111419476D02*
X71073668Y-111457353D01*
X70655933Y-111189308D02*
X70718839Y-111192295D01*
X70718839Y-111192295D02*
X70762000Y-111190323D01*
X70637418Y-110377353D02*
X70629685Y-110440123D01*
X70629685Y-110440123D02*
X70611740Y-110500813D01*
X70611740Y-110500813D02*
X70586109Y-110558795D01*
X70586109Y-110558795D02*
X70580283Y-110570011D01*
X70744265Y-106127246D02*
X70809094Y-106129932D01*
X70809094Y-106129932D02*
X70853015Y-106136951D01*
X71010308Y-106114973D02*
X71066663Y-106084708D01*
X71066663Y-106084708D02*
X71109813Y-106075153D01*
X69957755Y-113854256D02*
X69916491Y-113906659D01*
X69916491Y-113906659D02*
X69861947Y-113945432D01*
X69861947Y-113945432D02*
X69834057Y-113958656D01*
X70085595Y-113187876D02*
X70026903Y-113161457D01*
X70026903Y-113161457D02*
X70009293Y-113157536D01*
X71252913Y-106075266D02*
X71310245Y-106103405D01*
X71310245Y-106103405D02*
X71323850Y-106120106D01*
X70808068Y-109373238D02*
X70794093Y-109436743D01*
X70794093Y-109436743D02*
X70779209Y-109500068D01*
X70779209Y-109500068D02*
X70763149Y-109563100D01*
X70763149Y-109563100D02*
X70745647Y-109625730D01*
X70745647Y-109625730D02*
X70726435Y-109687848D01*
X70726435Y-109687848D02*
X70719605Y-109708421D01*
X71073668Y-111457353D02*
X71034351Y-111509747D01*
X71034351Y-111509747D02*
X70991786Y-111559527D01*
X70991786Y-111559527D02*
X70962235Y-111591651D01*
X70986090Y-106951338D02*
X71022565Y-107007412D01*
X71022565Y-107007412D02*
X71056599Y-107064950D01*
X71056599Y-107064950D02*
X71070438Y-107092563D01*
X71082365Y-108135973D02*
X71063728Y-108198461D01*
X71063728Y-108198461D02*
X71046292Y-108261282D01*
X71046292Y-108261282D02*
X71029786Y-108324352D01*
X71029786Y-108324352D02*
X71013938Y-108387586D01*
X71013938Y-108387586D02*
X71005073Y-108423761D01*
X70762000Y-111190323D02*
X70830154Y-111191961D01*
X70830154Y-111191961D02*
X70897915Y-111200127D01*
X70897915Y-111200127D02*
X70964254Y-111215657D01*
X70964254Y-111215657D02*
X71028145Y-111239386D01*
X70544708Y-106208113D02*
X70601110Y-106179523D01*
X70601110Y-106179523D02*
X70621010Y-106164611D01*
X70473198Y-106100138D02*
X70503898Y-106157620D01*
X70503898Y-106157620D02*
X70522520Y-106191941D01*
X69981740Y-113400921D02*
X69987620Y-113464146D01*
X69987620Y-113464146D02*
X69992854Y-113527456D01*
X69992854Y-113527456D02*
X69996411Y-113590846D01*
X69996411Y-113590846D02*
X69997263Y-113654310D01*
X69997263Y-113654310D02*
X69996140Y-113690608D01*
X70960673Y-112065166D02*
X70980972Y-112128670D01*
X70980972Y-112128670D02*
X71001341Y-112192179D01*
X71001341Y-112192179D02*
X71021522Y-112255762D01*
X71021522Y-112255762D02*
X71041256Y-112319486D01*
X71041256Y-112319486D02*
X71060286Y-112383423D01*
X71060286Y-112383423D02*
X71078354Y-112447640D01*
X71078354Y-112447640D02*
X71085255Y-112473421D01*
X70529865Y-110192876D02*
X70581720Y-110228661D01*
X70581720Y-110228661D02*
X70596245Y-110243838D01*
X69970698Y-113220558D02*
X69972282Y-113288321D01*
X69972282Y-113288321D02*
X69977707Y-113355911D01*
X69977707Y-113355911D02*
X69981740Y-113400921D01*
X71109813Y-106075153D02*
X71172403Y-106068975D01*
X71172403Y-106068975D02*
X71235187Y-106072254D01*
X71235187Y-106072254D02*
X71252913Y-106075266D01*
X70486038Y-110709983D02*
X70447219Y-110763574D01*
X70447219Y-110763574D02*
X70420125Y-110815193D01*
X69984760Y-113165348D02*
X69970698Y-113220558D01*
X70009293Y-113157536D02*
X69984760Y-113165348D01*
X70486818Y-111022223D02*
X70521428Y-111079312D01*
X70521428Y-111079312D02*
X70561307Y-111132777D01*
X70561307Y-111132777D02*
X70574265Y-111146808D01*
X70195463Y-113234723D02*
X70135972Y-113212511D01*
X70135972Y-113212511D02*
X70085595Y-113187876D01*
X70474553Y-113257381D02*
X70404277Y-113261409D01*
X70404277Y-113261409D02*
X70333836Y-113259557D01*
X70333836Y-113259557D02*
X70263981Y-113250952D01*
X70263981Y-113250952D02*
X70195463Y-113234723D01*
X70420125Y-110815193D02*
X70415844Y-110877913D01*
X70415844Y-110877913D02*
X70418563Y-110886678D01*
X70719605Y-109708421D02*
X70697242Y-109769750D01*
X70697242Y-109769750D02*
X70672206Y-109830032D01*
X70672206Y-109830032D02*
X70644357Y-109889048D01*
X70644357Y-109889048D02*
X70613557Y-109946581D01*
X70613557Y-109946581D02*
X70594578Y-109978708D01*
X71140933Y-107920791D02*
X71127043Y-107981983D01*
X71127043Y-107981983D02*
X71110996Y-108042648D01*
X71110996Y-108042648D02*
X71093054Y-108102787D01*
X71093054Y-108102787D02*
X71082365Y-108135973D01*
X71363120Y-106243811D02*
X71365552Y-106308220D01*
X71365552Y-106308220D02*
X71353357Y-106371396D01*
X71353357Y-106371396D02*
X71341923Y-106398971D01*
X70969265Y-106136391D02*
X71010308Y-106114973D01*
X70835725Y-113143813D02*
X70772134Y-113176469D01*
X70772134Y-113176469D02*
X70706144Y-113203907D01*
X70706144Y-113203907D02*
X70638198Y-113226102D01*
X70638198Y-113226102D02*
X70568742Y-113243033D01*
X70568742Y-113243033D02*
X70498220Y-113254678D01*
X70498220Y-113254678D02*
X70474553Y-113257381D01*
X70516610Y-110099723D02*
X70501662Y-110154488D01*
X71038068Y-112961781D02*
X70996256Y-113016213D01*
X70996256Y-113016213D02*
X70947775Y-113064720D01*
X70947775Y-113064720D02*
X70893854Y-113107266D01*
X70893854Y-113107266D02*
X70835725Y-113143813D01*
X71091298Y-112856468D02*
X71065456Y-112913684D01*
X71065456Y-112913684D02*
X71038068Y-112961781D01*
X70891298Y-111821001D02*
X70905744Y-111882809D01*
X70905744Y-111882809D02*
X70922889Y-111943923D01*
X70922889Y-111943923D02*
X70941582Y-112004617D01*
X70941582Y-112004617D02*
X70960673Y-112065166D01*
X70962235Y-111591651D02*
X70920685Y-111640518D01*
X70920685Y-111640518D02*
X70893510Y-111689698D01*
X71174058Y-107521001D02*
X71175799Y-107583829D01*
X71175799Y-107583829D02*
X71174821Y-107646648D01*
X71174821Y-107646648D02*
X71171231Y-107709374D01*
X71171231Y-107709374D02*
X71165136Y-107771920D01*
X71165136Y-107771920D02*
X71156644Y-107834202D01*
X71156644Y-107834202D02*
X71145862Y-107896135D01*
X71145862Y-107896135D02*
X71140933Y-107920791D01*
X70594578Y-109978708D02*
X70560899Y-110031978D01*
X70560899Y-110031978D02*
X70526338Y-110084621D01*
X70526338Y-110084621D02*
X70516610Y-110099723D01*
X70998145Y-106722353D02*
X70952730Y-106765707D01*
X70952730Y-106765707D02*
X70935230Y-106793501D01*
X71028145Y-111239386D02*
X71083568Y-111271554D01*
X71083568Y-111271554D02*
X71117833Y-111307434D01*
X70501662Y-110154488D02*
X70529865Y-110192876D01*
X71323850Y-106120106D02*
X71349979Y-106179699D01*
X71349979Y-106179699D02*
X71363120Y-106243811D01*
X70522520Y-106191941D02*
X70531895Y-106206218D01*
X71122520Y-112704776D02*
X71117066Y-112767810D01*
X71117066Y-112767810D02*
X71101682Y-112829159D01*
X71101682Y-112829159D02*
X71091298Y-112856468D01*
X70917833Y-108813371D02*
X70904636Y-108878252D01*
X70904636Y-108878252D02*
X70891791Y-108943204D01*
X70891791Y-108943204D02*
X70879277Y-109008219D01*
X70879277Y-109008219D02*
X70867077Y-109073291D01*
X70932885Y-106849958D02*
X70959535Y-106908653D01*
X70959535Y-106908653D02*
X70986090Y-106951338D01*
X70935230Y-106793501D02*
X70932885Y-106849958D01*
X70574265Y-111146808D02*
X70627571Y-111182096D01*
X70627571Y-111182096D02*
X70655933Y-111189308D01*
X70418563Y-110886678D02*
X70444838Y-110947639D01*
X70444838Y-110947639D02*
X70477444Y-111005696D01*
X70477444Y-111005696D02*
X70486818Y-111022223D01*
X70867077Y-109073291D02*
X70854841Y-109139016D01*
X70854841Y-109139016D02*
X70842343Y-109204711D01*
X70842343Y-109204711D02*
X70829450Y-109270338D01*
X70829450Y-109270338D02*
X70816027Y-109335859D01*
X70816027Y-109335859D02*
X70808068Y-109373238D01*
X71005073Y-108423761D02*
X70987732Y-108496584D01*
X70987732Y-108496584D02*
X70970857Y-108569509D01*
X70970857Y-108569509D02*
X70954438Y-108642539D01*
X70954438Y-108642539D02*
X70938463Y-108715678D01*
X70938463Y-108715678D02*
X70922920Y-108788928D01*
X70922920Y-108788928D02*
X70917833Y-108813371D01*
X70853015Y-106136951D02*
X70918536Y-106141858D01*
X70918536Y-106141858D02*
X70969265Y-106136391D01*
X70580283Y-110570011D02*
X70547873Y-110624410D01*
X70547873Y-110624410D02*
X70511606Y-110676371D01*
X70511606Y-110676371D02*
X70486038Y-110709983D01*
X70621010Y-106164611D02*
X70679786Y-106137144D01*
X70679786Y-106137144D02*
X70744265Y-106127246D01*
X70596245Y-110243838D02*
X70628153Y-110302306D01*
X70628153Y-110302306D02*
X70637701Y-110368462D01*
X70637701Y-110368462D02*
X70637418Y-110377353D01*
X71085255Y-112473421D02*
X71101011Y-112537578D01*
X71101011Y-112537578D02*
X71113812Y-112602441D01*
X71113812Y-112602441D02*
X71121395Y-112668025D01*
X71121395Y-112668025D02*
X71122520Y-112704776D01*
X68785072Y-105426288D02*
X68795867Y-105492209D01*
X68795867Y-105492209D02*
X68804709Y-105558406D01*
X68804709Y-105558406D02*
X68812529Y-105624739D01*
X68812529Y-105624739D02*
X68820259Y-105691067D01*
X68820259Y-105691067D02*
X68824995Y-105728913D01*
X69630255Y-105739846D02*
X69696631Y-105736446D01*
X69696631Y-105736446D02*
X69763086Y-105735976D01*
X69763086Y-105735976D02*
X69823355Y-105739623D01*
X68745360Y-105306601D02*
X68770655Y-105364521D01*
X68770655Y-105364521D02*
X68785072Y-105426288D01*
X68668275Y-105253061D02*
X68724250Y-105281308D01*
X68724250Y-105281308D02*
X68745360Y-105306601D01*
X68498953Y-105241458D02*
X68562772Y-105242001D01*
X68562772Y-105242001D02*
X68626394Y-105245803D01*
X68626394Y-105245803D02*
X68668275Y-105253061D01*
X68859813Y-105943306D02*
X68863720Y-105955131D01*
X69110125Y-105856523D02*
X69170745Y-105831701D01*
X69170745Y-105831701D02*
X69232773Y-105810680D01*
X69232773Y-105810680D02*
X69295852Y-105792808D01*
X69295852Y-105792808D02*
X69359627Y-105777433D01*
X69359627Y-105777433D02*
X69396245Y-105769518D01*
X68863720Y-105955131D02*
X68924058Y-105948101D01*
X70412313Y-106029418D02*
X70457272Y-106075513D01*
X70457272Y-106075513D02*
X70473198Y-106100138D01*
X69999578Y-105784911D02*
X70062793Y-105812814D01*
X70062793Y-105812814D02*
X70124817Y-105843356D01*
X70124817Y-105843356D02*
X70185892Y-105875843D01*
X70185892Y-105875843D02*
X70198015Y-105882513D01*
X69396245Y-105769518D02*
X69461538Y-105757682D01*
X69461538Y-105757682D02*
X69527303Y-105748640D01*
X69527303Y-105748640D02*
X69593418Y-105742272D01*
X69593418Y-105742272D02*
X69630255Y-105739846D01*
X68924058Y-105948101D02*
X68982680Y-105920467D01*
X68982680Y-105920467D02*
X69040597Y-105891391D01*
X69040597Y-105891391D02*
X69098489Y-105862241D01*
X69098489Y-105862241D02*
X69110125Y-105856523D01*
X70198015Y-105882513D02*
X70254043Y-105915536D01*
X70254043Y-105915536D02*
X70308719Y-105950778D01*
X70308719Y-105950778D02*
X70361617Y-105988613D01*
X70361617Y-105988613D02*
X70412313Y-106029418D01*
X69823355Y-105739623D02*
X69885348Y-105749271D01*
X69885348Y-105749271D02*
X69946045Y-105765186D01*
X69946045Y-105765186D02*
X69999578Y-105784911D01*
X68824995Y-105728913D02*
X68833988Y-105796248D01*
X68833988Y-105796248D02*
X68844207Y-105863383D01*
X68844207Y-105863383D02*
X68856877Y-105930051D01*
X68856877Y-105930051D02*
X68859813Y-105943306D01*
X67344788Y-112779959D02*
X67357833Y-112769256D01*
X70276453Y-111527511D02*
X70267755Y-111529516D01*
X70293615Y-111556416D02*
X70276453Y-111527511D01*
X70509240Y-112160871D02*
X70480796Y-112102977D01*
X70480796Y-112102977D02*
X70457171Y-112042920D01*
X70457171Y-112042920D02*
X70442755Y-112002381D01*
X66908770Y-111945583D02*
X66898278Y-111941363D01*
X67004813Y-112912926D02*
X67021631Y-112850716D01*
X67021631Y-112850716D02*
X67028657Y-112786389D01*
X67028657Y-112786389D02*
X67029345Y-112777823D01*
X67315673Y-112853684D02*
X67336805Y-112792619D01*
X67336805Y-112792619D02*
X67344788Y-112779959D01*
X66896270Y-112816416D02*
X66912783Y-112764776D01*
X66912783Y-112764776D02*
X66932418Y-112759438D01*
X67166870Y-112293291D02*
X67160630Y-112366250D01*
X67160630Y-112366250D02*
X67155639Y-112439305D01*
X67155639Y-112439305D02*
X67151962Y-112512433D01*
X67151962Y-112512433D02*
X67149668Y-112585615D01*
X67149668Y-112585615D02*
X67148823Y-112658829D01*
X67148823Y-112658829D02*
X67148875Y-112683238D01*
X68808380Y-112781728D02*
X68874718Y-112774626D01*
X68874718Y-112774626D02*
X68938991Y-112756889D01*
X68938991Y-112756889D02*
X68998601Y-112727282D01*
X68998601Y-112727282D02*
X69009735Y-112719828D01*
X68514788Y-112630376D02*
X68521480Y-112670531D01*
X67301845Y-111626131D02*
X67285463Y-111664151D01*
X68550490Y-112562093D02*
X68519362Y-112616627D01*
X68519362Y-112616627D02*
X68514788Y-112630376D01*
X66705515Y-112593683D02*
X66700953Y-112657233D01*
X66700953Y-112657233D02*
X66704855Y-112720785D01*
X66704855Y-112720785D02*
X66706193Y-112729204D01*
X67164525Y-112917041D02*
X67178706Y-112979299D01*
X67178706Y-112979299D02*
X67187860Y-113002588D01*
X66832678Y-112075661D02*
X66810389Y-112141717D01*
X66810389Y-112141717D02*
X66790118Y-112208444D01*
X66790118Y-112208444D02*
X66771498Y-112275674D01*
X66771498Y-112275674D02*
X66754163Y-112343238D01*
X66863798Y-112925843D02*
X66884995Y-112893943D01*
X67357833Y-112769256D02*
X67369553Y-112772823D01*
X69077443Y-112633161D02*
X69053327Y-112575201D01*
X69053327Y-112575201D02*
X69040620Y-112554073D01*
X69065048Y-112672641D02*
X69077443Y-112633161D01*
X69009735Y-112719828D02*
X69059032Y-112679475D01*
X69059032Y-112679475D02*
X69065048Y-112672641D01*
X66973355Y-112146156D02*
X66958805Y-112082467D01*
X66958805Y-112082467D02*
X66941381Y-112019431D01*
X66941381Y-112019431D02*
X66931845Y-111990766D01*
X66968668Y-112789881D02*
X66993173Y-112849009D01*
X66993173Y-112849009D02*
X67000673Y-112892381D01*
X67403250Y-112115036D02*
X67393891Y-112047596D01*
X67393891Y-112047596D02*
X67384289Y-111980200D01*
X67384289Y-111980200D02*
X67374292Y-111912865D01*
X67374292Y-111912865D02*
X67363750Y-111845607D01*
X67363750Y-111845607D02*
X67352514Y-111778442D01*
X67352514Y-111778442D02*
X67348588Y-111756078D01*
X67236038Y-111863266D02*
X67222067Y-111925220D01*
X67222067Y-111925220D02*
X67209265Y-111987383D01*
X67209265Y-111987383D02*
X67199110Y-112044203D01*
X68761533Y-112378943D02*
X68699390Y-112394821D01*
X68699390Y-112394821D02*
X68653798Y-112428708D01*
X67453875Y-112573916D02*
X67448765Y-112501946D01*
X67448765Y-112501946D02*
X67442195Y-112430111D01*
X67442195Y-112430111D02*
X67434455Y-112358388D01*
X67434455Y-112358388D02*
X67425830Y-112286753D01*
X67425830Y-112286753D02*
X67416610Y-112215179D01*
X67416610Y-112215179D02*
X67407082Y-112143644D01*
X67407082Y-112143644D02*
X67403250Y-112115036D01*
X70267755Y-111529516D02*
X70265725Y-111534983D01*
X67412495Y-112818656D02*
X67429995Y-112818656D01*
X66897833Y-111941366D02*
X66877653Y-111968343D01*
X68585750Y-112725531D02*
X68644159Y-112755023D01*
X68644159Y-112755023D02*
X68706942Y-112773343D01*
X68706942Y-112773343D02*
X68772011Y-112781379D01*
X68772011Y-112781379D02*
X68808380Y-112781728D01*
X68653798Y-112428708D02*
X68611901Y-112476178D01*
X68611901Y-112476178D02*
X68574486Y-112527353D01*
X68574486Y-112527353D02*
X68550490Y-112562093D01*
X67026765Y-112562433D02*
X67022052Y-112496991D01*
X67022052Y-112496991D02*
X67016179Y-112431629D01*
X67016179Y-112431629D02*
X67009020Y-112366394D01*
X67009020Y-112366394D02*
X67000448Y-112301330D01*
X67000448Y-112301330D02*
X66990336Y-112236485D01*
X66990336Y-112236485D02*
X66978560Y-112171904D01*
X66978560Y-112171904D02*
X66973355Y-112146156D01*
X66759058Y-112869516D02*
X66804406Y-112914362D01*
X66804406Y-112914362D02*
X66834918Y-112927876D01*
X66754163Y-112343238D02*
X66739625Y-112405364D01*
X66739625Y-112405364D02*
X66726323Y-112467786D01*
X66726323Y-112467786D02*
X66714779Y-112530545D01*
X66714779Y-112530545D02*
X66705515Y-112593683D01*
X66877653Y-111968343D02*
X66850548Y-112027929D01*
X66850548Y-112027929D02*
X66832678Y-112075661D01*
X67429995Y-112818656D02*
X67451870Y-112766131D01*
X70541245Y-112200036D02*
X70509240Y-112160871D01*
X67211505Y-113026468D02*
X67236583Y-113019438D01*
X67320360Y-111636286D02*
X67311115Y-111625011D01*
X67348588Y-111756078D02*
X67335862Y-111691875D01*
X67335862Y-111691875D02*
X67320360Y-111636286D01*
X70357990Y-111730193D02*
X70337636Y-111669786D01*
X70337636Y-111669786D02*
X70315653Y-111609992D01*
X70315653Y-111609992D02*
X70293615Y-111556416D01*
X67278303Y-112966131D02*
X67301723Y-112907606D01*
X67301723Y-112907606D02*
X67315673Y-112853684D01*
X67907885Y-112591103D02*
X67907885Y-112591103D01*
X68521480Y-112670531D02*
X68568285Y-112713381D01*
X68568285Y-112713381D02*
X68585750Y-112725531D01*
X66932418Y-112759438D02*
X66968668Y-112789881D01*
X70556635Y-112200921D02*
X70541245Y-112200036D01*
X67451870Y-112766131D02*
X67457015Y-112700214D01*
X67457015Y-112700214D02*
X67456629Y-112634043D01*
X67456629Y-112634043D02*
X67453875Y-112573916D01*
X67236583Y-113019438D02*
X67276214Y-112969814D01*
X67276214Y-112969814D02*
X67278303Y-112966131D01*
X70442755Y-112002381D02*
X70420901Y-111934545D01*
X70420901Y-111934545D02*
X70400246Y-111866325D01*
X70400246Y-111866325D02*
X70379654Y-111798085D01*
X70379654Y-111798085D02*
X70357990Y-111730193D01*
X67301845Y-111626131D02*
X67301845Y-111626131D01*
X67311115Y-111625011D02*
X67301845Y-111626131D01*
X66931845Y-111990766D02*
X66908770Y-111945583D01*
X67199110Y-112044203D02*
X67189428Y-112106219D01*
X67189428Y-112106219D02*
X67180899Y-112168444D01*
X67180899Y-112168444D02*
X67173415Y-112230819D01*
X67173415Y-112230819D02*
X67166870Y-112293291D01*
X66884995Y-112893943D02*
X66895635Y-112831149D01*
X66895635Y-112831149D02*
X66896270Y-112816416D01*
X66834918Y-112927876D02*
X66863798Y-112925843D01*
X67369553Y-112772823D02*
X67412495Y-112818656D01*
X67148875Y-112683238D02*
X67150360Y-112749166D01*
X67150360Y-112749166D02*
X67153736Y-112815065D01*
X67153736Y-112815065D02*
X67159758Y-112880732D01*
X67159758Y-112880732D02*
X67164525Y-112917041D01*
X67187860Y-113002588D02*
X67211505Y-113026468D01*
X67029345Y-112777823D02*
X67031611Y-112710531D01*
X67031611Y-112710531D02*
X67030610Y-112643189D01*
X67030610Y-112643189D02*
X67027527Y-112575882D01*
X67027527Y-112575882D02*
X67026765Y-112562433D01*
X67285463Y-111664151D02*
X67268703Y-111726012D01*
X67268703Y-111726012D02*
X67253377Y-111788280D01*
X67253377Y-111788280D02*
X67238887Y-111850761D01*
X67238887Y-111850761D02*
X67236038Y-111863266D01*
X67000673Y-112892381D02*
X67004813Y-112912926D01*
X66706193Y-112729204D02*
X66721568Y-112793486D01*
X66721568Y-112793486D02*
X66748810Y-112853612D01*
X66748810Y-112853612D02*
X66759058Y-112869516D01*
D11*
X64695935Y-109283584D02*
X64695935Y-108283584D01*
X64695935Y-108664537D02*
X64600697Y-108616918D01*
X64410221Y-108616918D01*
X64314983Y-108664537D01*
X64267364Y-108712156D01*
X64219745Y-108807394D01*
X64219745Y-109093108D01*
X64267364Y-109188346D01*
X64314983Y-109235965D01*
X64410221Y-109283584D01*
X64600697Y-109283584D01*
X64695935Y-109235965D01*
X63362602Y-108616918D02*
X63362602Y-109426442D01*
X63410221Y-109521680D01*
X63457840Y-109569299D01*
X63553078Y-109616918D01*
X63695935Y-109616918D01*
X63791173Y-109569299D01*
X63362602Y-109235965D02*
X63457840Y-109283584D01*
X63648316Y-109283584D01*
X63743554Y-109235965D01*
X63791173Y-109188346D01*
X63838793Y-109093108D01*
X63838793Y-108807394D01*
X63791173Y-108712156D01*
X63743554Y-108664537D01*
X63648316Y-108616918D01*
X63457840Y-108616918D01*
X63362602Y-108664537D01*
X62886412Y-109283584D02*
X62886412Y-108283584D01*
X62791173Y-108902632D02*
X62505459Y-109283584D01*
X62505459Y-108616918D02*
X62886412Y-108997870D01*
X61695935Y-109235965D02*
X61791173Y-109283584D01*
X61981650Y-109283584D01*
X62076888Y-109235965D01*
X62124507Y-109140727D01*
X62124507Y-108759775D01*
X62076888Y-108664537D01*
X61981650Y-108616918D01*
X61791173Y-108616918D01*
X61695935Y-108664537D01*
X61648316Y-108759775D01*
X61648316Y-108855013D01*
X62124507Y-108950251D01*
X60838793Y-109235965D02*
X60934031Y-109283584D01*
X61124507Y-109283584D01*
X61219745Y-109235965D01*
X61267364Y-109140727D01*
X61267364Y-108759775D01*
X61219745Y-108664537D01*
X61124507Y-108616918D01*
X60934031Y-108616918D01*
X60838793Y-108664537D01*
X60791173Y-108759775D01*
X60791173Y-108855013D01*
X61267364Y-108950251D01*
X60362602Y-109283584D02*
X60362602Y-108283584D01*
X60362602Y-108664537D02*
X60267364Y-108616918D01*
X60076888Y-108616918D01*
X59981650Y-108664537D01*
X59934031Y-108712156D01*
X59886412Y-108807394D01*
X59886412Y-109093108D01*
X59934031Y-109188346D01*
X59981650Y-109235965D01*
X60076888Y-109283584D01*
X60267364Y-109283584D01*
X60362602Y-109235965D01*
X59410221Y-109235965D02*
X59410221Y-109283584D01*
X59457840Y-109378823D01*
X59505459Y-109426442D01*
X58314983Y-108616918D02*
X58076888Y-109283584D01*
X57838793Y-108616918D01*
X57505459Y-108378823D02*
X57457840Y-108331204D01*
X57362602Y-108283584D01*
X57124507Y-108283584D01*
X57029269Y-108331204D01*
X56981650Y-108378823D01*
X56934031Y-108474061D01*
X56934031Y-108569299D01*
X56981650Y-108712156D01*
X57553078Y-109283584D01*
X56934031Y-109283584D01*
X65600697Y-110935965D02*
X65505459Y-110983584D01*
X65314983Y-110983584D01*
X65219745Y-110935965D01*
X65172126Y-110840727D01*
X65172126Y-110793108D01*
X65219745Y-110697870D01*
X65314983Y-110650251D01*
X65457840Y-110650251D01*
X65553078Y-110602632D01*
X65600697Y-110507394D01*
X65600697Y-110459775D01*
X65553078Y-110364537D01*
X65457840Y-110316918D01*
X65314983Y-110316918D01*
X65219745Y-110364537D01*
X64314983Y-110983584D02*
X64314983Y-110459775D01*
X64362602Y-110364537D01*
X64457840Y-110316918D01*
X64648316Y-110316918D01*
X64743554Y-110364537D01*
X64314983Y-110935965D02*
X64410221Y-110983584D01*
X64648316Y-110983584D01*
X64743554Y-110935965D01*
X64791173Y-110840727D01*
X64791173Y-110745489D01*
X64743554Y-110650251D01*
X64648316Y-110602632D01*
X64410221Y-110602632D01*
X64314983Y-110555013D01*
X63410221Y-110983584D02*
X63410221Y-109983584D01*
X63410221Y-110935965D02*
X63505459Y-110983584D01*
X63695935Y-110983584D01*
X63791173Y-110935965D01*
X63838793Y-110888346D01*
X63886412Y-110793108D01*
X63886412Y-110507394D01*
X63838793Y-110412156D01*
X63791173Y-110364537D01*
X63695935Y-110316918D01*
X63505459Y-110316918D01*
X63410221Y-110364537D01*
X62553078Y-110935965D02*
X62648316Y-110983584D01*
X62838793Y-110983584D01*
X62934031Y-110935965D01*
X62981650Y-110840727D01*
X62981650Y-110459775D01*
X62934031Y-110364537D01*
X62838793Y-110316918D01*
X62648316Y-110316918D01*
X62553078Y-110364537D01*
X62505459Y-110459775D01*
X62505459Y-110555013D01*
X62981650Y-110650251D01*
X62076888Y-110983584D02*
X62076888Y-109983584D01*
X61981650Y-110602632D02*
X61695935Y-110983584D01*
X61695935Y-110316918D02*
X62076888Y-110697870D01*
X61267364Y-110983584D02*
X61267364Y-109983584D01*
X61267364Y-110364537D02*
X61172126Y-110316918D01*
X60981650Y-110316918D01*
X60886412Y-110364537D01*
X60838793Y-110412156D01*
X60791173Y-110507394D01*
X60791173Y-110793108D01*
X60838793Y-110888346D01*
X60886412Y-110935965D01*
X60981650Y-110983584D01*
X61172126Y-110983584D01*
X61267364Y-110935965D01*
X59934031Y-110983584D02*
X59934031Y-110459775D01*
X59981650Y-110364537D01*
X60076888Y-110316918D01*
X60267364Y-110316918D01*
X60362602Y-110364537D01*
X59934031Y-110935965D02*
X60029269Y-110983584D01*
X60267364Y-110983584D01*
X60362602Y-110935965D01*
X60410221Y-110840727D01*
X60410221Y-110745489D01*
X60362602Y-110650251D01*
X60267364Y-110602632D01*
X60029269Y-110602632D01*
X59934031Y-110555013D01*
X59457840Y-110983584D02*
X59457840Y-110316918D01*
X59457840Y-110507394D02*
X59410221Y-110412156D01*
X59362602Y-110364537D01*
X59267364Y-110316918D01*
X59172126Y-110316918D01*
X58695935Y-110983584D02*
X58791173Y-110935965D01*
X58838793Y-110888346D01*
X58886412Y-110793108D01*
X58886412Y-110507394D01*
X58838793Y-110412156D01*
X58791173Y-110364537D01*
X58695935Y-110316918D01*
X58553078Y-110316918D01*
X58457840Y-110364537D01*
X58410221Y-110412156D01*
X58362602Y-110507394D01*
X58362602Y-110793108D01*
X58410221Y-110888346D01*
X58457840Y-110935965D01*
X58553078Y-110983584D01*
X58695935Y-110983584D01*
X57505459Y-110316918D02*
X57505459Y-110983584D01*
X57934031Y-110316918D02*
X57934031Y-110840727D01*
X57886412Y-110935965D01*
X57791173Y-110983584D01*
X57648316Y-110983584D01*
X57553078Y-110935965D01*
X57505459Y-110888346D01*
X56600697Y-110983584D02*
X56600697Y-109983584D01*
X56600697Y-110935965D02*
X56695935Y-110983584D01*
X56886412Y-110983584D01*
X56981650Y-110935965D01*
X57029269Y-110888346D01*
X57076888Y-110793108D01*
X57076888Y-110507394D01*
X57029269Y-110412156D01*
X56981650Y-110364537D01*
X56886412Y-110316918D01*
X56695935Y-110316918D01*
X56600697Y-110364537D01*
X56124507Y-110983584D02*
X56124507Y-110316918D01*
X56124507Y-109983584D02*
X56172126Y-110031204D01*
X56124507Y-110078823D01*
X56076888Y-110031204D01*
X56124507Y-109983584D01*
X56124507Y-110078823D01*
M02*
