%TF.GenerationSoftware,KiCad,Pcbnew,(5.1.10)-1*%
%TF.CreationDate,2021-12-02T16:11:21-08:00*%
%TF.ProjectId,bgkeeb,62676b65-6562-42e6-9b69-6361645f7063,rev?*%
%TF.SameCoordinates,Original*%
%TF.FileFunction,Profile,NP*%
%FSLAX46Y46*%
G04 Gerber Fmt 4.6, Leading zero omitted, Abs format (unit mm)*
G04 Created by KiCad (PCBNEW (5.1.10)-1) date 2021-12-02 16:11:21*
%MOMM*%
%LPD*%
G01*
G04 APERTURE LIST*
%TA.AperFunction,Profile*%
%ADD10C,0.100000*%
%TD*%
G04 APERTURE END LIST*
D10*
X133697002Y-116711436D02*
X131933393Y-116401816D01*
X153475672Y-40572992D02*
X153480920Y-113059601D01*
X146536382Y-121347985D02*
X133697002Y-116711436D01*
X152309954Y-116603105D02*
X149438604Y-120472650D01*
X127490624Y-38071204D02*
X127481622Y-38537856D01*
X149438604Y-120472650D02*
X149374487Y-120555461D01*
X149374487Y-120555461D02*
X149307490Y-120635046D01*
X149307490Y-120635046D02*
X149237730Y-120711370D01*
X149237730Y-120711370D02*
X149165324Y-120784397D01*
X149165324Y-120784397D02*
X149090387Y-120854092D01*
X149090387Y-120854092D02*
X149013036Y-120920420D01*
X149013036Y-120920420D02*
X148933388Y-120983345D01*
X148933388Y-120983345D02*
X148851559Y-121042834D01*
X148851559Y-121042834D02*
X148767666Y-121098850D01*
X148767666Y-121098850D02*
X148681825Y-121151358D01*
X148681825Y-121151358D02*
X148594154Y-121200323D01*
X148594154Y-121200323D02*
X148504767Y-121245711D01*
X148504767Y-121245711D02*
X148413782Y-121287485D01*
X148413782Y-121287485D02*
X148321316Y-121325612D01*
X148321316Y-121325612D02*
X148132404Y-121390779D01*
X148132404Y-121390779D02*
X147938963Y-121440932D01*
X147938963Y-121440932D02*
X147840836Y-121460291D01*
X147840836Y-121460291D02*
X147741927Y-121475790D01*
X147741927Y-121475790D02*
X147642351Y-121487395D01*
X147642351Y-121487395D02*
X147542226Y-121495071D01*
X147542226Y-121495071D02*
X147441667Y-121498782D01*
X147441667Y-121498782D02*
X147340793Y-121498494D01*
X147340793Y-121498494D02*
X147239718Y-121494171D01*
X147239718Y-121494171D02*
X147138560Y-121485778D01*
X147138560Y-121485778D02*
X147037434Y-121473280D01*
X147037434Y-121473280D02*
X146936459Y-121456642D01*
X146936459Y-121456642D02*
X146835749Y-121435828D01*
X146835749Y-121435828D02*
X146735422Y-121410804D01*
X146735422Y-121410804D02*
X146635594Y-121381535D01*
X146635594Y-121381535D02*
X146536382Y-121347985D01*
X108479887Y-36035956D02*
X125494255Y-36035956D01*
X153480920Y-113059601D02*
X153479727Y-113179142D01*
X153479727Y-113179142D02*
X153476139Y-113298452D01*
X153476139Y-113298452D02*
X153470168Y-113417496D01*
X153470168Y-113417496D02*
X153461824Y-113536241D01*
X153461824Y-113536241D02*
X153451118Y-113654653D01*
X153451118Y-113654653D02*
X153438061Y-113772699D01*
X153438061Y-113772699D02*
X153422665Y-113890345D01*
X153422665Y-113890345D02*
X153404941Y-114007557D01*
X153404941Y-114007557D02*
X153384899Y-114124302D01*
X153384899Y-114124302D02*
X153362552Y-114240546D01*
X153362552Y-114240546D02*
X153337909Y-114356255D01*
X153337909Y-114356255D02*
X153310983Y-114471396D01*
X153310983Y-114471396D02*
X153281784Y-114585935D01*
X153281784Y-114585935D02*
X153250323Y-114699839D01*
X153250323Y-114699839D02*
X153216611Y-114813074D01*
X153216611Y-114813074D02*
X153180660Y-114925606D01*
X153180660Y-114925606D02*
X153142481Y-115037401D01*
X153142481Y-115037401D02*
X153102085Y-115148427D01*
X153102085Y-115148427D02*
X153059482Y-115258649D01*
X153059482Y-115258649D02*
X153014685Y-115368034D01*
X153014685Y-115368034D02*
X152967704Y-115476548D01*
X152967704Y-115476548D02*
X152918550Y-115584157D01*
X152918550Y-115584157D02*
X152867234Y-115690828D01*
X152867234Y-115690828D02*
X152813768Y-115796528D01*
X152813768Y-115796528D02*
X152758162Y-115901222D01*
X152758162Y-115901222D02*
X152700428Y-116004877D01*
X152700428Y-116004877D02*
X152640577Y-116107459D01*
X152640577Y-116107459D02*
X152578620Y-116208935D01*
X152578620Y-116208935D02*
X152514568Y-116309272D01*
X152514568Y-116309272D02*
X152448432Y-116408434D01*
X152448432Y-116408434D02*
X152380224Y-116506390D01*
X152380224Y-116506390D02*
X152309954Y-116603105D01*
X127481622Y-38537856D02*
X151440388Y-38537856D01*
X151440388Y-38537856D02*
X151545118Y-38540504D01*
X151545118Y-38540504D02*
X151648473Y-38548362D01*
X151648473Y-38548362D02*
X151750326Y-38561304D01*
X151750326Y-38561304D02*
X151850548Y-38579201D01*
X151850548Y-38579201D02*
X151949013Y-38601926D01*
X151949013Y-38601926D02*
X152045590Y-38629349D01*
X152045590Y-38629349D02*
X152232576Y-38697783D01*
X152232576Y-38697783D02*
X152410483Y-38783481D01*
X152410483Y-38783481D02*
X152578288Y-38885419D01*
X152578288Y-38885419D02*
X152734967Y-39002574D01*
X152734967Y-39002574D02*
X152879499Y-39133924D01*
X152879499Y-39133924D02*
X153010859Y-39278446D01*
X153010859Y-39278446D02*
X153128026Y-39435117D01*
X153128026Y-39435117D02*
X153229976Y-39602914D01*
X153229976Y-39602914D02*
X153315687Y-39780815D01*
X153315687Y-39780815D02*
X153384134Y-39967796D01*
X153384134Y-39967796D02*
X153411565Y-40064371D01*
X153411565Y-40064371D02*
X153434296Y-40162834D01*
X153434296Y-40162834D02*
X153452200Y-40263055D01*
X153452200Y-40263055D02*
X153465150Y-40364907D01*
X153465150Y-40364907D02*
X153473016Y-40468262D01*
X153473016Y-40468262D02*
X153475672Y-40572992D01*
X57130533Y-116401816D02*
X56937241Y-116392072D01*
X56937241Y-116392072D02*
X56749513Y-116363473D01*
X56749513Y-116363473D02*
X56568297Y-116316964D01*
X56568297Y-116316964D02*
X56394541Y-116253491D01*
X56394541Y-116253491D02*
X56229193Y-116173999D01*
X56229193Y-116173999D02*
X56073201Y-116079435D01*
X56073201Y-116079435D02*
X55927515Y-115970745D01*
X55927515Y-115970745D02*
X55793083Y-115848874D01*
X55793083Y-115848874D02*
X55670853Y-115714768D01*
X55670853Y-115714768D02*
X55561773Y-115569373D01*
X55561773Y-115569373D02*
X55466792Y-115413635D01*
X55466792Y-115413635D02*
X55386858Y-115248500D01*
X55386858Y-115248500D02*
X55322920Y-115074914D01*
X55322920Y-115074914D02*
X55275926Y-114893823D01*
X55275926Y-114893823D02*
X55246824Y-114706172D01*
X55246824Y-114706172D02*
X55236564Y-114512908D01*
X70489772Y-38181971D02*
X70492002Y-38075690D01*
X70492002Y-38075690D02*
X70499467Y-37970114D01*
X70499467Y-37970114D02*
X70512094Y-37865419D01*
X70512094Y-37865419D02*
X70529811Y-37761783D01*
X70529811Y-37761783D02*
X70552545Y-37659381D01*
X70552545Y-37659381D02*
X70580223Y-37558391D01*
X70580223Y-37558391D02*
X70612774Y-37458990D01*
X70612774Y-37458990D02*
X70650123Y-37361353D01*
X70650123Y-37361353D02*
X70692199Y-37265658D01*
X70692199Y-37265658D02*
X70738929Y-37172082D01*
X70738929Y-37172082D02*
X70790241Y-37080801D01*
X70790241Y-37080801D02*
X70846061Y-36991993D01*
X70846061Y-36991993D02*
X70906317Y-36905832D01*
X70906317Y-36905832D02*
X70970937Y-36822498D01*
X70970937Y-36822498D02*
X71039848Y-36742165D01*
X71039848Y-36742165D02*
X71112978Y-36665012D01*
X71112978Y-36665012D02*
X71189848Y-36591585D01*
X71189848Y-36591585D02*
X71269914Y-36522364D01*
X71269914Y-36522364D02*
X71352999Y-36457423D01*
X71352999Y-36457423D02*
X71438926Y-36396835D01*
X71438926Y-36396835D02*
X71527518Y-36340672D01*
X71527518Y-36340672D02*
X71618601Y-36289009D01*
X71618601Y-36289009D02*
X71711996Y-36241918D01*
X71711996Y-36241918D02*
X71807527Y-36199473D01*
X71807527Y-36199473D02*
X71905019Y-36161747D01*
X71905019Y-36161747D02*
X72004294Y-36128813D01*
X72004294Y-36128813D02*
X72105176Y-36100745D01*
X72105176Y-36100745D02*
X72207489Y-36077616D01*
X72207489Y-36077616D02*
X72311057Y-36059499D01*
X72311057Y-36059499D02*
X72415702Y-36046468D01*
X72415702Y-36046468D02*
X72521248Y-36038596D01*
X72521248Y-36038596D02*
X72627520Y-36035956D01*
X89531489Y-36035956D02*
X89501525Y-33087585D01*
X89501525Y-33087585D02*
X89503022Y-32986252D01*
X89503022Y-32986252D02*
X89509535Y-32885564D01*
X89509535Y-32885564D02*
X89520993Y-32785693D01*
X89520993Y-32785693D02*
X89537328Y-32686808D01*
X89537328Y-32686808D02*
X89570824Y-32540702D01*
X89570824Y-32540702D02*
X89614904Y-32397772D01*
X89614904Y-32397772D02*
X89669337Y-32258591D01*
X89669337Y-32258591D02*
X89733889Y-32123735D01*
X89733889Y-32123735D02*
X89808328Y-31993778D01*
X89808328Y-31993778D02*
X89863332Y-31910145D01*
X89863332Y-31910145D02*
X89922557Y-31829114D01*
X89922557Y-31829114D02*
X89985934Y-31750856D01*
X89985934Y-31750856D02*
X90053396Y-31675540D01*
X90053396Y-31675540D02*
X90088637Y-31639040D01*
X106479523Y-31037238D02*
X106580870Y-31039766D01*
X106580870Y-31039766D02*
X106681521Y-31047304D01*
X106681521Y-31047304D02*
X106781305Y-31059781D01*
X106781305Y-31059781D02*
X106880053Y-31077126D01*
X106880053Y-31077126D02*
X106977596Y-31099269D01*
X106977596Y-31099269D02*
X107121279Y-31141323D01*
X107121279Y-31141323D02*
X107261296Y-31193774D01*
X107261296Y-31193774D02*
X107397075Y-31256383D01*
X107397075Y-31256383D02*
X107528044Y-31328912D01*
X107528044Y-31328912D02*
X107612403Y-31382657D01*
X107612403Y-31382657D02*
X107694200Y-31440634D01*
X107694200Y-31440634D02*
X107773265Y-31502772D01*
X107773265Y-31502772D02*
X107849431Y-31569000D01*
X107849431Y-31569000D02*
X107922527Y-31639249D01*
X90088637Y-31639040D02*
X90161707Y-31568816D01*
X90161707Y-31568816D02*
X90237846Y-31502610D01*
X90237846Y-31502610D02*
X90316884Y-31440494D01*
X90316884Y-31440494D02*
X90398652Y-31382537D01*
X90398652Y-31382537D02*
X90526053Y-31303556D01*
X90526053Y-31303556D02*
X90658643Y-31234331D01*
X90658643Y-31234331D02*
X90795851Y-31175102D01*
X90795851Y-31175102D02*
X90937105Y-31126107D01*
X90937105Y-31126107D02*
X91081832Y-31087585D01*
X91081832Y-31087585D02*
X91179965Y-31067839D01*
X91179965Y-31067839D02*
X91279218Y-31052924D01*
X91279218Y-31052924D02*
X91379421Y-31042911D01*
X91379421Y-31042911D02*
X91480407Y-31037871D01*
X91480407Y-31037871D02*
X91531140Y-31037238D01*
X72627520Y-36035956D02*
X89531489Y-36035956D01*
X91531140Y-31037238D02*
X106479523Y-31037238D01*
X108509844Y-33088296D02*
X108479887Y-36035956D01*
X126919713Y-36634469D02*
X126988119Y-36707800D01*
X126988119Y-36707800D02*
X127083121Y-36823355D01*
X127083121Y-36823355D02*
X127168789Y-36945065D01*
X127168789Y-36945065D02*
X127244893Y-37072355D01*
X127244893Y-37072355D02*
X127311206Y-37204649D01*
X127311206Y-37204649D02*
X127367497Y-37341369D01*
X127367497Y-37341369D02*
X127413539Y-37481940D01*
X127413539Y-37481940D02*
X127449101Y-37625786D01*
X127449101Y-37625786D02*
X127473955Y-37772329D01*
X127473955Y-37772329D02*
X127487872Y-37920994D01*
X127487872Y-37920994D02*
X127490961Y-38020997D01*
X127490961Y-38020997D02*
X127490624Y-38071204D01*
X125494255Y-36035956D02*
X125594508Y-36038471D01*
X125594508Y-36038471D02*
X125743527Y-36051568D01*
X125743527Y-36051568D02*
X125890404Y-36075639D01*
X125890404Y-36075639D02*
X126034569Y-36110444D01*
X126034569Y-36110444D02*
X126175448Y-36155743D01*
X126175448Y-36155743D02*
X126312470Y-36211296D01*
X126312470Y-36211296D02*
X126445063Y-36276863D01*
X126445063Y-36276863D02*
X126572656Y-36352204D01*
X126572656Y-36352204D02*
X126694676Y-36437079D01*
X126694676Y-36437079D02*
X126810552Y-36531247D01*
X126810552Y-36531247D02*
X126884107Y-36599070D01*
X126884107Y-36599070D02*
X126919713Y-36634469D01*
X70529749Y-48537838D02*
X70489772Y-38181971D01*
X107922527Y-31639249D02*
X107992028Y-31713054D01*
X107992028Y-31713054D02*
X108057479Y-31789889D01*
X108057479Y-31789889D02*
X108118810Y-31869582D01*
X108118810Y-31869582D02*
X108175953Y-31951964D01*
X108175953Y-31951964D02*
X108228838Y-32036864D01*
X108228838Y-32036864D02*
X108300032Y-32168563D01*
X108300032Y-32168563D02*
X108361258Y-32304972D01*
X108361258Y-32304972D02*
X108412284Y-32445515D01*
X108412284Y-32445515D02*
X108452876Y-32589618D01*
X108452876Y-32589618D02*
X108474027Y-32687380D01*
X108474027Y-32687380D02*
X108490368Y-32786300D01*
X108490368Y-32786300D02*
X108501830Y-32886205D01*
X108501830Y-32886205D02*
X108508345Y-32986927D01*
X108508345Y-32986927D02*
X108509844Y-33088296D01*
X131933393Y-116401816D02*
X57130533Y-116401816D01*
X56956848Y-48522176D02*
X70529749Y-48537838D01*
X55623108Y-49074324D02*
X55725776Y-48978883D01*
X55725776Y-48978883D02*
X55834587Y-48891851D01*
X55834587Y-48891851D02*
X55949017Y-48813446D01*
X55949017Y-48813446D02*
X56068541Y-48743885D01*
X56068541Y-48743885D02*
X56192636Y-48683385D01*
X56192636Y-48683385D02*
X56320776Y-48632162D01*
X56320776Y-48632162D02*
X56452437Y-48590434D01*
X56452437Y-48590434D02*
X56587096Y-48558419D01*
X56587096Y-48558419D02*
X56724226Y-48536332D01*
X56724226Y-48536332D02*
X56863305Y-48524392D01*
X56863305Y-48524392D02*
X56956848Y-48522176D01*
X55236564Y-114512908D02*
X55072993Y-50408904D01*
X55072993Y-50408904D02*
X55077835Y-50268810D01*
X55077835Y-50268810D02*
X55092970Y-50130299D01*
X55092970Y-50130299D02*
X55118183Y-49993895D01*
X55118183Y-49993895D02*
X55153256Y-49860124D01*
X55153256Y-49860124D02*
X55197974Y-49729510D01*
X55197974Y-49729510D02*
X55252120Y-49602577D01*
X55252120Y-49602577D02*
X55315478Y-49479851D01*
X55315478Y-49479851D02*
X55387831Y-49361856D01*
X55387831Y-49361856D02*
X55468964Y-49249117D01*
X55468964Y-49249117D02*
X55558660Y-49142159D01*
X55558660Y-49142159D02*
X55623108Y-49074324D01*
M02*
