%TF.GenerationSoftware,KiCad,Pcbnew,(5.1.10)-1*%
%TF.CreationDate,2021-12-02T16:21:26-08:00*%
%TF.ProjectId,bgkeeb,62676b65-6562-42e6-9b69-6361645f7063,rev?*%
%TF.SameCoordinates,Original*%
%TF.FileFunction,Legend,Top*%
%TF.FilePolarity,Positive*%
%FSLAX46Y46*%
G04 Gerber Fmt 4.6, Leading zero omitted, Abs format (unit mm)*
G04 Created by KiCad (PCBNEW (5.1.10)-1) date 2021-12-02 16:21:26*
%MOMM*%
%LPD*%
G01*
G04 APERTURE LIST*
%ADD10C,0.062500*%
%ADD11C,0.200000*%
%ADD12C,0.150000*%
G04 APERTURE END LIST*
D10*
X67471588Y-108687344D02*
X67407591Y-108707790D01*
X67407591Y-108707790D02*
X67357624Y-108752691D01*
X67357624Y-108752691D02*
X67337265Y-108792761D01*
X70715990Y-106454079D02*
X70678178Y-106489664D01*
X67682630Y-109210156D02*
X67687290Y-109272714D01*
X67687290Y-109272714D02*
X67692890Y-109280209D01*
X71016173Y-106449174D02*
X71062718Y-106406219D01*
X71062718Y-106406219D02*
X71108479Y-106362451D01*
X71108479Y-106362451D02*
X71148803Y-106321339D01*
X70664688Y-106746226D02*
X70715277Y-106708840D01*
X70715277Y-106708840D02*
X70764025Y-106668978D01*
X70764025Y-106668978D02*
X70786380Y-106650401D01*
X67435000Y-108472059D02*
X67499140Y-108449928D01*
X67499140Y-108449928D02*
X67565328Y-108435065D01*
X67565328Y-108435065D02*
X67632806Y-108427964D01*
X67632806Y-108427964D02*
X67670573Y-108427554D01*
X70591510Y-106762944D02*
X70607135Y-106773646D01*
X67829533Y-109305079D02*
X67853078Y-109246618D01*
X67853078Y-109246618D02*
X67852500Y-109213491D01*
X67770078Y-109157944D02*
X67708691Y-109180537D01*
X67708691Y-109180537D02*
X67682630Y-109210156D01*
X68129038Y-108703856D02*
X68162350Y-108765243D01*
X68162350Y-108765243D02*
X68188006Y-108830300D01*
X68188006Y-108830300D02*
X68205274Y-108898017D01*
X68205274Y-108898017D02*
X68213420Y-108967382D01*
X68213420Y-108967382D02*
X68213698Y-109007371D01*
X67550105Y-108979924D02*
X67600567Y-108939669D01*
X67600567Y-108939669D02*
X67638089Y-108886966D01*
X67638089Y-108886966D02*
X67646250Y-108870391D01*
X70843620Y-106447721D02*
X70779931Y-106455746D01*
X70779931Y-106455746D02*
X70765183Y-106453634D01*
X67482058Y-108686901D02*
X67471588Y-108687344D01*
X67171745Y-109286121D02*
X67138890Y-109227794D01*
X67138890Y-109227794D02*
X67111997Y-109166486D01*
X67111997Y-109166486D02*
X67091847Y-109102701D01*
X67091847Y-109102701D02*
X67083855Y-109066381D01*
X70978360Y-106391057D02*
X70921190Y-106420049D01*
X70921190Y-106420049D02*
X70861218Y-106442628D01*
X70861218Y-106442628D02*
X70843620Y-106447721D01*
X71148803Y-106321339D02*
X71159168Y-106306729D01*
X67858543Y-109492709D02*
X67797479Y-109510990D01*
X67797479Y-109510990D02*
X67734989Y-109523314D01*
X67734989Y-109523314D02*
X67671598Y-109529890D01*
X67671598Y-109529890D02*
X67607829Y-109530922D01*
X67607829Y-109530922D02*
X67544208Y-109526620D01*
X67544208Y-109526620D02*
X67523125Y-109524036D01*
X68213698Y-109007371D02*
X68208174Y-109071806D01*
X68208174Y-109071806D02*
X68195120Y-109135171D01*
X68195120Y-109135171D02*
X68174524Y-109196454D01*
X68174524Y-109196454D02*
X68146378Y-109254645D01*
X68146378Y-109254645D02*
X68126900Y-109286121D01*
X71143230Y-106302154D02*
X71084825Y-106329414D01*
X71084825Y-106329414D02*
X71028847Y-106361351D01*
X71028847Y-106361351D02*
X70978360Y-106391057D01*
X67588698Y-108725939D02*
X67531944Y-108694545D01*
X67531944Y-108694545D02*
X67482058Y-108686901D01*
X67453178Y-108993411D02*
X67518341Y-108993011D01*
X67518341Y-108993011D02*
X67550105Y-108979924D01*
X67852500Y-109213491D02*
X67824505Y-109171564D01*
X67346538Y-109465496D02*
X67295008Y-109429005D01*
X67295008Y-109429005D02*
X67248681Y-109386130D01*
X67248681Y-109386130D02*
X67207584Y-109338094D01*
X67207584Y-109338094D02*
X67171745Y-109286121D01*
X67784140Y-109329611D02*
X67829533Y-109305079D01*
X67337265Y-108792761D02*
X67332210Y-108855460D01*
X67332210Y-108855460D02*
X67352683Y-108914661D01*
X67192370Y-108653776D02*
X67236959Y-108603740D01*
X67236959Y-108603740D02*
X67286840Y-108558998D01*
X67286840Y-108558998D02*
X67341383Y-108520093D01*
X67341383Y-108520093D02*
X67399959Y-108487569D01*
X67399959Y-108487569D02*
X67435000Y-108472059D01*
X71159168Y-106306729D02*
X71155053Y-106300704D01*
X70786380Y-106650401D02*
X70837287Y-106607079D01*
X70837287Y-106607079D02*
X70887821Y-106563356D01*
X70887821Y-106563356D02*
X70938000Y-106519243D01*
X70938000Y-106519243D02*
X70987839Y-106474757D01*
X70987839Y-106474757D02*
X71016173Y-106449174D01*
X70591953Y-106721456D02*
X70591510Y-106762944D01*
X70765183Y-106453634D02*
X70715990Y-106454079D01*
X67967840Y-108529611D02*
X68019555Y-108572403D01*
X68019555Y-108572403D02*
X68066514Y-108620365D01*
X68066514Y-108620365D02*
X68108263Y-108672906D01*
X68108263Y-108672906D02*
X68129038Y-108703856D01*
X70623413Y-106614261D02*
X70604357Y-106674138D01*
X70604357Y-106674138D02*
X70591953Y-106721456D01*
X69710965Y-108689584D02*
X69710965Y-108689584D01*
X68126900Y-109286121D02*
X68087724Y-109337472D01*
X68087724Y-109337472D02*
X68042510Y-109383539D01*
X68042510Y-109383539D02*
X67992064Y-109423836D01*
X67992064Y-109423836D02*
X67937193Y-109457880D01*
X67937193Y-109457880D02*
X67878704Y-109485187D01*
X67878704Y-109485187D02*
X67858543Y-109492709D01*
X70678178Y-106489664D02*
X70648196Y-106546003D01*
X70648196Y-106546003D02*
X70626203Y-106606214D01*
X70626203Y-106606214D02*
X70623413Y-106614261D01*
X67523125Y-109524036D02*
X67459896Y-109511839D01*
X67459896Y-109511839D02*
X67398664Y-109492050D01*
X67398664Y-109492050D02*
X67346538Y-109465496D01*
X67083855Y-109066381D02*
X67076646Y-109001701D01*
X67076646Y-109001701D02*
X67078410Y-108936582D01*
X67078410Y-108936582D02*
X67087083Y-108877969D01*
X71143230Y-106302154D02*
X71143230Y-106302154D01*
X71155053Y-106300704D02*
X71143230Y-106302154D01*
X67692890Y-109280209D02*
X67741889Y-109320174D01*
X67741889Y-109320174D02*
X67784140Y-109329611D01*
X67087083Y-108877969D02*
X67105748Y-108810226D01*
X67105748Y-108810226D02*
X67133219Y-108745545D01*
X67133219Y-108745545D02*
X67169036Y-108685097D01*
X67169036Y-108685097D02*
X67192370Y-108653776D01*
X70607135Y-106773646D02*
X70664688Y-106746226D01*
X67770078Y-109157944D02*
X67770078Y-109157944D01*
X67650730Y-108807474D02*
X67617084Y-108752577D01*
X67617084Y-108752577D02*
X67588698Y-108725939D01*
X67646250Y-108870391D02*
X67650730Y-108807474D01*
X67670573Y-108427554D02*
X67670573Y-108427554D01*
X67824505Y-109171564D02*
X67770078Y-109157944D01*
X67352683Y-108914661D02*
X67395391Y-108963959D01*
X67395391Y-108963959D02*
X67453178Y-108993411D01*
X67471588Y-108687344D02*
X67471588Y-108687344D01*
X69340860Y-108839169D02*
X69361706Y-108775772D01*
X69361706Y-108775772D02*
X69389759Y-108715206D01*
X69389759Y-108715206D02*
X69424737Y-108658365D01*
X69424737Y-108658365D02*
X69466355Y-108606146D01*
X68396953Y-109643516D02*
X68435006Y-109593586D01*
X68435006Y-109593586D02*
X68452970Y-109582396D01*
X70014270Y-109345809D02*
X70065390Y-109306820D01*
X70065390Y-109306820D02*
X70077735Y-109284664D01*
X68968958Y-109828231D02*
X68959713Y-109809271D01*
X68510625Y-105512299D02*
X68466873Y-105466598D01*
X68466873Y-105466598D02*
X68460548Y-105464221D01*
X68815808Y-110020419D02*
X68751389Y-110024903D01*
X68751389Y-110024903D02*
X68694895Y-110016746D01*
X69877630Y-108836589D02*
X69855611Y-108773928D01*
X69855611Y-108773928D02*
X69811396Y-108724314D01*
X69811396Y-108724314D02*
X69804115Y-108719141D01*
X70269375Y-109379376D02*
X70220299Y-109426312D01*
X70220299Y-109426312D02*
X70168015Y-109469617D01*
X70168015Y-109469617D02*
X70116120Y-109502969D01*
X69702605Y-109008151D02*
X69766177Y-108995237D01*
X69766177Y-108995237D02*
X69822919Y-108964406D01*
X69822919Y-108964406D02*
X69836745Y-108951929D01*
X69594635Y-108979481D02*
X69652710Y-109005795D01*
X69652710Y-109005795D02*
X69702605Y-109008151D01*
X69564168Y-108925261D02*
X69594635Y-108979481D01*
X68950000Y-109883439D02*
X68968958Y-109828231D01*
X69593855Y-108761641D02*
X69568078Y-108819891D01*
X69568078Y-108819891D02*
X69559468Y-108883021D01*
X69559468Y-108883021D02*
X69564168Y-108925261D01*
X69074375Y-109569116D02*
X69135089Y-109588310D01*
X69135089Y-109588310D02*
X69138750Y-109590521D01*
X70066145Y-109206146D02*
X70011964Y-109170189D01*
X70011964Y-109170189D02*
X69982033Y-109169324D01*
X69982033Y-109169324D02*
X69929191Y-109207589D01*
X69929191Y-109207589D02*
X69917995Y-109235704D01*
X68963725Y-109964531D02*
X68905330Y-109991806D01*
X68905330Y-109991806D02*
X68844717Y-110013467D01*
X68844717Y-110013467D02*
X68815808Y-110020419D01*
X69349453Y-109163856D02*
X69332814Y-109093969D01*
X69332814Y-109093969D02*
X69324126Y-109022587D01*
X69324126Y-109022587D02*
X69323754Y-108950710D01*
X69323754Y-108950710D02*
X69332068Y-108879339D01*
X69332068Y-108879339D02*
X69340860Y-108839169D01*
X69479635Y-109393881D02*
X69436750Y-109342826D01*
X69436750Y-109342826D02*
X69400697Y-109286769D01*
X69400697Y-109286769D02*
X69371567Y-109226761D01*
X69371567Y-109226761D02*
X69349453Y-109163856D01*
X69978672Y-109540991D02*
X69912495Y-109542404D01*
X69912495Y-109542404D02*
X69846337Y-109538837D01*
X69846337Y-109538837D02*
X69786380Y-109532736D01*
X68679063Y-106242144D02*
X68665133Y-106178113D01*
X68665133Y-106178113D02*
X68651873Y-106113947D01*
X68651873Y-106113947D02*
X68639082Y-106049687D01*
X68639082Y-106049687D02*
X68626560Y-105985378D01*
X68626560Y-105985378D02*
X68614108Y-105921064D01*
X68614108Y-105921064D02*
X68601523Y-105856786D01*
X68601523Y-105856786D02*
X68596408Y-105831096D01*
X68765053Y-109926381D02*
X68829264Y-109933615D01*
X68829264Y-109933615D02*
X68892944Y-109921629D01*
X68892944Y-109921629D02*
X68910288Y-109915237D01*
X68780130Y-109846304D02*
X68733933Y-109884896D01*
X69137188Y-109785054D02*
X69105814Y-109840369D01*
X69105814Y-109840369D02*
X69065847Y-109889861D01*
X69065847Y-109889861D02*
X69018184Y-109931818D01*
X69018184Y-109931818D02*
X68963725Y-109964531D01*
X68452970Y-109582396D02*
X68512715Y-109563126D01*
X68512715Y-109563126D02*
X68567630Y-109555156D01*
X68789948Y-109545911D02*
X68861331Y-109547820D01*
X68861331Y-109547820D02*
X68923753Y-109550993D01*
X68923753Y-109550993D02*
X68994873Y-109557304D01*
X68994873Y-109557304D02*
X69056767Y-109565986D01*
X69056767Y-109565986D02*
X69074375Y-109569116D01*
X68789948Y-109545911D02*
X68789948Y-109545911D01*
X69669245Y-108466044D02*
X69732092Y-108446313D01*
X69732092Y-108446313D02*
X69796833Y-108434173D01*
X69796833Y-108434173D02*
X69862549Y-108429891D01*
X69862549Y-108429891D02*
X69875730Y-108430001D01*
X69875730Y-108430001D02*
X69944943Y-108435414D01*
X69944943Y-108435414D02*
X70013043Y-108448948D01*
X70013043Y-108448948D02*
X70079110Y-108470325D01*
X70079110Y-108470325D02*
X70142221Y-108499266D01*
X70142221Y-108499266D02*
X70201457Y-108535494D01*
X70201457Y-108535494D02*
X70220183Y-108549141D01*
X68460548Y-105464221D02*
X68396794Y-105457515D01*
X68396794Y-105457515D02*
X68390158Y-105457529D01*
X68747788Y-106502379D02*
X68728091Y-106438016D01*
X68728091Y-106438016D02*
X68710456Y-106373056D01*
X68710456Y-106373056D02*
X68694305Y-106307699D01*
X68694305Y-106307699D02*
X68679063Y-106242144D01*
X68926458Y-109803464D02*
X68860415Y-109814878D01*
X68860415Y-109814878D02*
X68797416Y-109838061D01*
X68797416Y-109838061D02*
X68780130Y-109846304D01*
X70077735Y-109284664D02*
X70075982Y-109221406D01*
X70075982Y-109221406D02*
X70066145Y-109206146D01*
X68926458Y-109803464D02*
X68926458Y-109803464D01*
X70399088Y-109214506D02*
X70365314Y-109270927D01*
X70365314Y-109270927D02*
X70324010Y-109322166D01*
X70324010Y-109322166D02*
X70278634Y-109370043D01*
X70278634Y-109370043D02*
X70269375Y-109379376D01*
X70220183Y-108549141D02*
X70271821Y-108594682D01*
X70271821Y-108594682D02*
X70317702Y-108646065D01*
X70317702Y-108646065D02*
X70356933Y-108702638D01*
X70356933Y-108702638D02*
X70388620Y-108763751D01*
X68567630Y-109555156D02*
X68630032Y-109549677D01*
X68630032Y-109549677D02*
X68692566Y-109546767D01*
X68692566Y-109546767D02*
X68755166Y-109545816D01*
X68755166Y-109545816D02*
X68789948Y-109545911D01*
X68910288Y-109915237D02*
X68950000Y-109883439D01*
X68524245Y-109935651D02*
X68474473Y-109888829D01*
X68474473Y-109888829D02*
X68433511Y-109834120D01*
X68433511Y-109834120D02*
X68403562Y-109772792D01*
X68403562Y-109772792D02*
X68399088Y-109759844D01*
X70433803Y-109030339D02*
X70429720Y-109095069D01*
X70429720Y-109095069D02*
X70418742Y-109158964D01*
X70418742Y-109158964D02*
X70399088Y-109214506D01*
X69951693Y-109336199D02*
X70014270Y-109345809D01*
X69917995Y-109235704D02*
X69923864Y-109300909D01*
X69923864Y-109300909D02*
X69951693Y-109336199D01*
X69466355Y-108606146D02*
X69516193Y-108557020D01*
X69516193Y-108557020D02*
X69572140Y-108514986D01*
X69572140Y-108514986D02*
X69633318Y-108481040D01*
X69633318Y-108481040D02*
X69669245Y-108466044D01*
X69639583Y-109502631D02*
X69579212Y-109473755D01*
X69579212Y-109473755D02*
X69524385Y-109435222D01*
X69524385Y-109435222D02*
X69479635Y-109393881D01*
X68959713Y-109809271D02*
X68926458Y-109803464D01*
X69786380Y-109532736D02*
X69721454Y-109523095D01*
X69721454Y-109523095D02*
X69657504Y-109508282D01*
X69657504Y-109508282D02*
X69639583Y-109502631D01*
X70116120Y-109502969D02*
X70058112Y-109527007D01*
X70058112Y-109527007D02*
X69996586Y-109539552D01*
X69996586Y-109539552D02*
X69978672Y-109540991D01*
X68390158Y-105457529D02*
X68390158Y-105457529D01*
X70388620Y-108763751D02*
X70411774Y-108827868D01*
X70411774Y-108827868D02*
X70426436Y-108894369D01*
X70426436Y-108894369D02*
X70433485Y-108962207D01*
X70433485Y-108962207D02*
X70433803Y-109030339D01*
X68399088Y-109759844D02*
X68388468Y-109697979D01*
X68388468Y-109697979D02*
X68396953Y-109643516D01*
X68733933Y-109884896D02*
X68735053Y-109900184D01*
X69162058Y-109641849D02*
X69162682Y-109706152D01*
X69162682Y-109706152D02*
X69144727Y-109768253D01*
X69144727Y-109768253D02*
X69137188Y-109785054D01*
X69138750Y-109590521D02*
X69162058Y-109641849D01*
X68542528Y-105595399D02*
X68521690Y-105534846D01*
X68521690Y-105534846D02*
X68510625Y-105512299D01*
X68596408Y-105831096D02*
X68582745Y-105764488D01*
X68582745Y-105764488D02*
X68568238Y-105698044D01*
X68568238Y-105698044D02*
X68552264Y-105631928D01*
X68552264Y-105631928D02*
X68542528Y-105595399D01*
X67670573Y-108427554D02*
X67740126Y-108433847D01*
X67740126Y-108433847D02*
X67808259Y-108449263D01*
X67808259Y-108449263D02*
X67873671Y-108473633D01*
X67873671Y-108473633D02*
X67935064Y-108506787D01*
X67935064Y-108506787D02*
X67967840Y-108529611D01*
X69875730Y-108430001D02*
X69875730Y-108430001D01*
X68735053Y-109900184D02*
X68765053Y-109926381D01*
X69982033Y-109169324D02*
X69982033Y-109169324D01*
X69804115Y-108719141D02*
X69744881Y-108692942D01*
X69744881Y-108692942D02*
X69710965Y-108689584D01*
X69836745Y-108951929D02*
X69870644Y-108898859D01*
X69870644Y-108898859D02*
X69877630Y-108836589D01*
X68694895Y-110016746D02*
X68632448Y-109997336D01*
X68632448Y-109997336D02*
X68573444Y-109969115D01*
X68573444Y-109969115D02*
X68524245Y-109935651D01*
X66845808Y-110333204D02*
X66845808Y-110333204D01*
X69710963Y-108689584D02*
X69647165Y-108708349D01*
X69647165Y-108708349D02*
X69598572Y-108754025D01*
X69598572Y-108754025D02*
X69593855Y-108761641D01*
X68794845Y-106600874D02*
X68762718Y-106544483D01*
X68762718Y-106544483D02*
X68747788Y-106502379D01*
X70889793Y-107442814D02*
X70907873Y-107382620D01*
X70907873Y-107382620D02*
X70909765Y-107354141D01*
X68815703Y-106601209D02*
X68803985Y-106605781D01*
X69603333Y-106071814D02*
X69605340Y-106034556D01*
X70101485Y-106259654D02*
X70133690Y-106204795D01*
X70133690Y-106204795D02*
X70138543Y-106194066D01*
X70668698Y-108138204D02*
X70675707Y-108075932D01*
X70675707Y-108075932D02*
X70686562Y-108014169D01*
X70620183Y-107693699D02*
X70595755Y-107686094D01*
X70285653Y-106394514D02*
X70251640Y-106372764D01*
X68885860Y-106514649D02*
X68848659Y-106565231D01*
X68848659Y-106565231D02*
X68815703Y-106601209D01*
X69554480Y-106488104D02*
X69562404Y-106423102D01*
X69562404Y-106423102D02*
X69570265Y-106358084D01*
X69570265Y-106358084D02*
X69578031Y-106293049D01*
X69578031Y-106293049D02*
X69585674Y-106227999D01*
X69585674Y-106227999D02*
X69593163Y-106162933D01*
X69593163Y-106162933D02*
X69600469Y-106097851D01*
X69600469Y-106097851D02*
X69603333Y-106071814D01*
X68995078Y-106334279D02*
X68962706Y-106391709D01*
X68962706Y-106391709D02*
X68929061Y-106448393D01*
X68929061Y-106448393D02*
X68893328Y-106503776D01*
X68893328Y-106503776D02*
X68885860Y-106514649D01*
X70595755Y-107686094D02*
X70581043Y-107631771D01*
X70839038Y-107385939D02*
X70800161Y-107441293D01*
X70800161Y-107441293D02*
X70765277Y-107499308D01*
X70765277Y-107499308D02*
X70730288Y-107557290D01*
X70730288Y-107557290D02*
X70722918Y-107568646D01*
X69198543Y-106093341D02*
X69145313Y-106138019D01*
X69145313Y-106138019D02*
X69097188Y-106187985D01*
X69097188Y-106187985D02*
X69053910Y-106242314D01*
X69053910Y-106242314D02*
X69015222Y-106300081D01*
X69015222Y-106300081D02*
X68995078Y-106334279D01*
X69587265Y-106012246D02*
X69522920Y-105996003D01*
X69522920Y-105996003D02*
X69463908Y-105997076D01*
X69498360Y-107401434D02*
X69482630Y-107397424D01*
X69813255Y-106024961D02*
X69796335Y-106085634D01*
X69796335Y-106085634D02*
X69782347Y-106147086D01*
X69782347Y-106147086D02*
X69775885Y-106175439D01*
X70565653Y-107152579D02*
X70507104Y-107130582D01*
X70507104Y-107130582D02*
X70502942Y-107125261D01*
X69510625Y-107388621D02*
X69498360Y-107401434D01*
X70121458Y-106476276D02*
X70075479Y-106521069D01*
X70075479Y-106521069D02*
X70028081Y-106564436D01*
X70028081Y-106564436D02*
X69978426Y-106605113D01*
X69978426Y-106605113D02*
X69949558Y-106626084D01*
X70251640Y-106372764D02*
X70202788Y-106397861D01*
X70581043Y-107631771D02*
X70590381Y-107568835D01*
X70590381Y-107568835D02*
X70602448Y-107526929D01*
X69646043Y-106827969D02*
X69632347Y-106896874D01*
X69632347Y-106896874D02*
X69618264Y-106965722D01*
X69618264Y-106965722D02*
X69603683Y-107034477D01*
X69603683Y-107034477D02*
X69588494Y-107103099D01*
X69588494Y-107103099D02*
X69572588Y-107171552D01*
X69572588Y-107171552D02*
X69555856Y-107239798D01*
X69555856Y-107239798D02*
X69548908Y-107267031D01*
X69775885Y-106175439D02*
X69760248Y-106247326D01*
X69760248Y-106247326D02*
X69745143Y-106319300D01*
X69745143Y-106319300D02*
X69730463Y-106391349D01*
X69730463Y-106391349D02*
X69716101Y-106463467D01*
X69716101Y-106463467D02*
X69701952Y-106535643D01*
X69701952Y-106535643D02*
X69697265Y-106559714D01*
X69822293Y-106008342D02*
X69813255Y-106024961D01*
X70909765Y-107354141D02*
X70903958Y-107342214D01*
X70135965Y-106168634D02*
X70097475Y-106131599D01*
X69950678Y-106043704D02*
X69890121Y-106018029D01*
X69890121Y-106018029D02*
X69852293Y-106006891D01*
X70602448Y-107526929D02*
X70625075Y-107467693D01*
X70625075Y-107467693D02*
X70652817Y-107410675D01*
X70652817Y-107410675D02*
X70681433Y-107360626D01*
X70502942Y-107125261D02*
X70475712Y-107068355D01*
X70475712Y-107068355D02*
X70467918Y-107044819D01*
X69875390Y-106662224D02*
X69859220Y-106656759D01*
X70097475Y-106131599D02*
X70044671Y-106094965D01*
X70044671Y-106094965D02*
X69988860Y-106063084D01*
X69988860Y-106063084D02*
X69950678Y-106043704D01*
X70765418Y-107157944D02*
X70751485Y-107141771D01*
X70412708Y-106829324D02*
X70395640Y-106759297D01*
X70395640Y-106759297D02*
X70378566Y-106689262D01*
X70378566Y-106689262D02*
X70361055Y-106619337D01*
X70361055Y-106619337D02*
X70342674Y-106549641D01*
X70342674Y-106549641D02*
X70331615Y-106509964D01*
X70760183Y-107209351D02*
X70765418Y-107157944D01*
X70004663Y-106395296D02*
X70042182Y-106345251D01*
X70042182Y-106345251D02*
X70078285Y-106294229D01*
X70078285Y-106294229D02*
X70101485Y-106259654D01*
X70903958Y-107342214D02*
X70894038Y-107339089D01*
X69859220Y-106656759D02*
X69853645Y-106645716D01*
X70765965Y-107717554D02*
X70787999Y-107655058D01*
X70787999Y-107655058D02*
X70812581Y-107593532D01*
X70812581Y-107593532D02*
X70838490Y-107539194D01*
X69871720Y-106585929D02*
X69904775Y-106529499D01*
X69904775Y-106529499D02*
X69942556Y-106476075D01*
X69942556Y-106476075D02*
X69982491Y-106424108D01*
X69982491Y-106424108D02*
X70004663Y-106395296D01*
X70698255Y-107133516D02*
X70636110Y-107142502D01*
X70636110Y-107142502D02*
X70574036Y-107152116D01*
X70574036Y-107152116D02*
X70565653Y-107152579D01*
X69467033Y-107258544D02*
X69471785Y-107194758D01*
X69471785Y-107194758D02*
X69477745Y-107131055D01*
X69477745Y-107131055D02*
X69484511Y-107067421D01*
X69484511Y-107067421D02*
X69491682Y-107003839D01*
X69491682Y-107003839D02*
X69495808Y-106967526D01*
X70650418Y-107668256D02*
X70620183Y-107693699D01*
X69468255Y-107366069D02*
X69464994Y-107302289D01*
X69464994Y-107302289D02*
X69467033Y-107258544D01*
X69548908Y-107267031D02*
X69531943Y-107328529D01*
X69531943Y-107328529D02*
X69510625Y-107388621D01*
X69949558Y-106626084D02*
X69893050Y-106657852D01*
X69893050Y-106657852D02*
X69875390Y-106662224D01*
X70331615Y-106509964D02*
X70311327Y-106446790D01*
X70311327Y-106446790D02*
X70285653Y-106394514D01*
X70894038Y-107339089D02*
X70844840Y-107378945D01*
X70844840Y-107378945D02*
X70839038Y-107385939D01*
X69495808Y-106967526D02*
X69504672Y-106892571D01*
X69504672Y-106892571D02*
X69513758Y-106817651D01*
X69513758Y-106817651D02*
X69522992Y-106742753D01*
X69522992Y-106742753D02*
X69532299Y-106667865D01*
X69532299Y-106667865D02*
X69541602Y-106592975D01*
X69541602Y-106592975D02*
X69550828Y-106518072D01*
X69550828Y-106518072D02*
X69554480Y-106488104D01*
X70838490Y-107539194D02*
X70870899Y-107482945D01*
X70870899Y-107482945D02*
X70889793Y-107442814D01*
X69697265Y-106559714D02*
X69684460Y-106626762D01*
X69684460Y-106626762D02*
X69671742Y-106693851D01*
X69671742Y-106693851D02*
X69658979Y-106760935D01*
X69658979Y-106760935D02*
X69646043Y-106827969D01*
X70467918Y-107044819D02*
X70451347Y-106984530D01*
X70451347Y-106984530D02*
X70435964Y-106923874D01*
X70435964Y-106923874D02*
X70421052Y-106863077D01*
X70421052Y-106863077D02*
X70412708Y-106829324D01*
X70138543Y-106194066D02*
X70135965Y-106168634D01*
X69853645Y-106645716D02*
X69871720Y-106585929D01*
X68803985Y-106605781D02*
X68794845Y-106600874D01*
X70202788Y-106397861D02*
X70156489Y-106441300D01*
X70156489Y-106441300D02*
X70121458Y-106476276D01*
X69463908Y-105997076D02*
X69401891Y-106005246D01*
X69401891Y-106005246D02*
X69341157Y-106020495D01*
X69341157Y-106020495D02*
X69282802Y-106042985D01*
X69282802Y-106042985D02*
X69220429Y-106077759D01*
X69220429Y-106077759D02*
X69198543Y-106093341D01*
X69605340Y-106034556D02*
X69587265Y-106012246D01*
X69482630Y-107397424D02*
X69468255Y-107366069D01*
X70681433Y-107360626D02*
X70713918Y-107305386D01*
X70713918Y-107305386D02*
X70743743Y-107248741D01*
X70743743Y-107248741D02*
X70760183Y-107209351D01*
X70722918Y-107568646D02*
X70686087Y-107622879D01*
X70686087Y-107622879D02*
X70650418Y-107668256D01*
X70686562Y-108014169D02*
X70700675Y-107948483D01*
X70700675Y-107948483D02*
X70716736Y-107883215D01*
X70716736Y-107883215D02*
X70734600Y-107818401D01*
X70734600Y-107818401D02*
X70754122Y-107754077D01*
X70754122Y-107754077D02*
X70765965Y-107717554D01*
X69852293Y-106006891D02*
X69822293Y-106008342D01*
X70751485Y-107141771D02*
X70698255Y-107133516D01*
X66697448Y-107813594D02*
X66703994Y-107890401D01*
X66703994Y-107890401D02*
X66711397Y-107967131D01*
X66711397Y-107967131D02*
X66719612Y-108043781D01*
X66719612Y-108043781D02*
X66728594Y-108120348D01*
X66728594Y-108120348D02*
X66738299Y-108196832D01*
X66738299Y-108196832D02*
X66748681Y-108273229D01*
X66748681Y-108273229D02*
X66759697Y-108349538D01*
X66759697Y-108349538D02*
X66771303Y-108425756D01*
X66803750Y-106947111D02*
X66789375Y-106952031D01*
X66965600Y-107375781D02*
X66956120Y-107385156D01*
X66982110Y-106724356D02*
X66967058Y-106731381D01*
X67288645Y-107422189D02*
X67272001Y-107355365D01*
X67272001Y-107355365D02*
X67257760Y-107287976D01*
X67257760Y-107287976D02*
X67244675Y-107220312D01*
X67244675Y-107220312D02*
X67237448Y-107182709D01*
X67375078Y-107378569D02*
X67369228Y-107443720D01*
X67369228Y-107443720D02*
X67358360Y-107500391D01*
X70901380Y-107923594D02*
X70923443Y-107861151D01*
X70923443Y-107861151D02*
X70944729Y-107798460D01*
X70944729Y-107798460D02*
X70957605Y-107756276D01*
X70730288Y-108607579D02*
X70744005Y-108544432D01*
X70744005Y-108544432D02*
X70757919Y-108481328D01*
X70757919Y-108481328D02*
X70772067Y-108418276D01*
X70772067Y-108418276D02*
X70786487Y-108355287D01*
X70786487Y-108355287D02*
X70801215Y-108292372D01*
X70801215Y-108292372D02*
X70816290Y-108229540D01*
X70816290Y-108229540D02*
X70831749Y-108166802D01*
X70831749Y-108166802D02*
X70847630Y-108104169D01*
X70661015Y-108942786D02*
X70673785Y-108879907D01*
X70673785Y-108879907D02*
X70686550Y-108817022D01*
X70686550Y-108817022D02*
X70699406Y-108754148D01*
X70699406Y-108754148D02*
X70712447Y-108691302D01*
X70712447Y-108691302D02*
X70725768Y-108628500D01*
X70725768Y-108628500D02*
X70730288Y-108607579D01*
X69377890Y-110500289D02*
X69443052Y-110483935D01*
X69443052Y-110483935D02*
X69507764Y-110465868D01*
X69507764Y-110465868D02*
X69571933Y-110445989D01*
X69571933Y-110445989D02*
X69635469Y-110424202D01*
X69635469Y-110424202D02*
X69698278Y-110400409D01*
X69698278Y-110400409D02*
X69760270Y-110374513D01*
X69760270Y-110374513D02*
X69784818Y-110363544D01*
X67332475Y-107522031D02*
X67301466Y-107465070D01*
X67301466Y-107465070D02*
X67288645Y-107422189D01*
X67378673Y-107025521D02*
X67379871Y-107091726D01*
X67379871Y-107091726D02*
X67380597Y-107157941D01*
X67380597Y-107157941D02*
X67380498Y-107224154D01*
X67380498Y-107224154D02*
X67379221Y-107290351D01*
X67379221Y-107290351D02*
X67376414Y-107356520D01*
X67376414Y-107356520D02*
X67375078Y-107378569D01*
X67904715Y-105569744D02*
X67846720Y-105578779D01*
X67251720Y-110023544D02*
X67294910Y-110069082D01*
X67294910Y-110069082D02*
X67340497Y-110112164D01*
X67340497Y-110112164D02*
X67388053Y-110153114D01*
X67388053Y-110153114D02*
X67437150Y-110192255D01*
X67437150Y-110192255D02*
X67487359Y-110229911D01*
X67487359Y-110229911D02*
X67504270Y-110242189D01*
X68542083Y-110554741D02*
X68609855Y-110559443D01*
X68609855Y-110559443D02*
X68677721Y-110562674D01*
X68677721Y-110562674D02*
X68745646Y-110564416D01*
X68745646Y-110564416D02*
X68813595Y-110564651D01*
X68813595Y-110564651D02*
X68881534Y-110563361D01*
X68881534Y-110563361D02*
X68949426Y-110560528D01*
X68949426Y-110560528D02*
X68976563Y-110558959D01*
X66981328Y-109449636D02*
X66999899Y-109516052D01*
X66999899Y-109516052D02*
X67019879Y-109582101D01*
X67019879Y-109582101D02*
X67041722Y-109647535D01*
X67041722Y-109647535D02*
X67065879Y-109712107D01*
X67065879Y-109712107D02*
X67092806Y-109775569D01*
X67092806Y-109775569D02*
X67102475Y-109796434D01*
X66743620Y-107009246D02*
X66719178Y-107069747D01*
X66719178Y-107069747D02*
X66704486Y-107133530D01*
X66704486Y-107133530D02*
X66697448Y-107176564D01*
X66913413Y-107344896D02*
X66889072Y-107284145D01*
X66889072Y-107284145D02*
X66871355Y-107221069D01*
X66956120Y-106766954D02*
X66951508Y-106830017D01*
X66951508Y-106830017D02*
X66951397Y-106893267D01*
X66951397Y-106893267D02*
X66952658Y-106935391D01*
X67558360Y-105751676D02*
X67522062Y-105809278D01*
X67522062Y-105809278D02*
X67496087Y-105866134D01*
X67496087Y-105866134D02*
X67478385Y-105914086D01*
X67846720Y-105578779D02*
X67785099Y-105601834D01*
X67785099Y-105601834D02*
X67725531Y-105629845D01*
X67725531Y-105629845D02*
X67667896Y-105661782D01*
X67667896Y-105661782D02*
X67636668Y-105680844D01*
X68011015Y-110464611D02*
X68076349Y-110481267D01*
X68076349Y-110481267D02*
X68142071Y-110496301D01*
X68142071Y-110496301D02*
X68208135Y-110509754D01*
X68208135Y-110509754D02*
X68274498Y-110521668D01*
X68274498Y-110521668D02*
X68341118Y-110532082D01*
X68341118Y-110532082D02*
X68407951Y-110541039D01*
X68407951Y-110541039D02*
X68474954Y-110548578D01*
X68474954Y-110548578D02*
X68542083Y-110554741D01*
X67102475Y-109796434D02*
X67133766Y-109856987D01*
X67133766Y-109856987D02*
X67168903Y-109915428D01*
X67168903Y-109915428D02*
X67208137Y-109971150D01*
X67208137Y-109971150D02*
X67251720Y-110023544D01*
X66838673Y-107036799D02*
X66824429Y-106975385D01*
X66824429Y-106975385D02*
X66819375Y-106961719D01*
X67127240Y-106867814D02*
X67093651Y-106813893D01*
X67093651Y-106813893D02*
X67052894Y-106765424D01*
X67052894Y-106765424D02*
X67039558Y-106753126D01*
X70398100Y-109853101D02*
X70431122Y-109794560D01*
X70431122Y-109794560D02*
X70458398Y-109733175D01*
X70458398Y-109733175D02*
X70464688Y-109715001D01*
X67345520Y-107524584D02*
X67332475Y-107522031D01*
X66771303Y-108425756D02*
X66783570Y-108502107D01*
X66783570Y-108502107D02*
X66796414Y-108578372D01*
X66796414Y-108578372D02*
X66809826Y-108654546D01*
X66809826Y-108654546D02*
X66823795Y-108730624D01*
X66823795Y-108730624D02*
X66838311Y-108806600D01*
X66838311Y-108806600D02*
X66853363Y-108882469D01*
X66853363Y-108882469D02*
X66859533Y-108912786D01*
X66789375Y-106952031D02*
X66748210Y-107001277D01*
X66748210Y-107001277D02*
X66743620Y-107009246D01*
X66956120Y-107385156D02*
X66938283Y-107381486D01*
X66967058Y-106731381D02*
X66956120Y-106766954D01*
X69784818Y-110363544D02*
X69853363Y-110330735D01*
X69853363Y-110330735D02*
X69920538Y-110295072D01*
X69920538Y-110295072D02*
X69986038Y-110256428D01*
X69986038Y-110256428D02*
X70049555Y-110214679D01*
X70049555Y-110214679D02*
X70110785Y-110169701D01*
X70110785Y-110169701D02*
X70169422Y-110121368D01*
X70169422Y-110121368D02*
X70192083Y-110101069D01*
X67376875Y-106694461D02*
X67375841Y-106766876D01*
X67375841Y-106766876D02*
X67375725Y-106839304D01*
X67375725Y-106839304D02*
X67376387Y-106911732D01*
X67376387Y-106911732D02*
X67377692Y-106984149D01*
X67377692Y-106984149D02*
X67378673Y-107025521D01*
X70674948Y-108198776D02*
X70668698Y-108138204D01*
X70683645Y-108206694D02*
X70674948Y-108198776D01*
X70711640Y-108183049D02*
X70683645Y-108206694D01*
X67636668Y-105680844D02*
X67586818Y-105719247D01*
X67586818Y-105719247D02*
X67558360Y-105751676D01*
X67408438Y-106237236D02*
X67399909Y-106308379D01*
X67399909Y-106308379D02*
X67392943Y-106379673D01*
X67392943Y-106379673D02*
X67387383Y-106451092D01*
X67387383Y-106451092D02*
X67383071Y-106522606D01*
X67383071Y-106522606D02*
X67379851Y-106594187D01*
X67379851Y-106594187D02*
X67377563Y-106665808D01*
X67377563Y-106665808D02*
X67376875Y-106694461D01*
X70786510Y-108024429D02*
X70762647Y-108085903D01*
X70762647Y-108085903D02*
X70734428Y-108145457D01*
X70734428Y-108145457D02*
X70711640Y-108183049D01*
X70912110Y-107734949D02*
X70878109Y-107791811D01*
X70878109Y-107791811D02*
X70850623Y-107852341D01*
X70850623Y-107852341D02*
X70847058Y-107860444D01*
X66871355Y-107221069D02*
X66858343Y-107158089D01*
X66858343Y-107158089D02*
X66847979Y-107094594D01*
X66847979Y-107094594D02*
X66838673Y-107036799D01*
X67237448Y-107182709D02*
X67223240Y-107121589D01*
X67223240Y-107121589D02*
X67206470Y-107061059D01*
X67206470Y-107061059D02*
X67186763Y-107001451D01*
X67186763Y-107001451D02*
X67163741Y-106943097D01*
X67163741Y-106943097D02*
X67137029Y-106886327D01*
X67137029Y-106886327D02*
X67127240Y-106867814D01*
X70964635Y-107716901D02*
X70958958Y-107708074D01*
X70847630Y-108104169D02*
X70864361Y-108041559D01*
X70864361Y-108041559D02*
X70882534Y-107979381D01*
X70882534Y-107979381D02*
X70901380Y-107923594D01*
X67358360Y-107500391D02*
X67345520Y-107524584D01*
X67478385Y-105914086D02*
X67457443Y-105983404D01*
X67457443Y-105983404D02*
X67440184Y-106053712D01*
X67440184Y-106053712D02*
X67425996Y-106124751D01*
X67425996Y-106124751D02*
X67414269Y-106196261D01*
X67414269Y-106196261D02*
X67408438Y-106237236D01*
X70562970Y-109372891D02*
X70579586Y-109306005D01*
X70579586Y-109306005D02*
X70595689Y-109238995D01*
X70595689Y-109238995D02*
X70611300Y-109171864D01*
X70611300Y-109171864D02*
X70626443Y-109104618D01*
X70626443Y-109104618D02*
X70641140Y-109037262D01*
X70641140Y-109037262D02*
X70655417Y-108969799D01*
X70655417Y-108969799D02*
X70661015Y-108942786D01*
X70192083Y-110101069D02*
X70242800Y-110051779D01*
X70242800Y-110051779D02*
X70290648Y-109999678D01*
X70290648Y-109999678D02*
X70335281Y-109944809D01*
X70335281Y-109944809D02*
X70376357Y-109887216D01*
X70376357Y-109887216D02*
X70398100Y-109853101D01*
X68976563Y-110558959D02*
X69039838Y-110554250D01*
X69039838Y-110554250D02*
X69102990Y-110548005D01*
X69102990Y-110548005D02*
X69165959Y-110540146D01*
X69165959Y-110540146D02*
X69228686Y-110530593D01*
X69228686Y-110530593D02*
X69291112Y-110519269D01*
X69291112Y-110519269D02*
X69353177Y-110506094D01*
X69353177Y-110506094D02*
X69377890Y-110500289D01*
X67657970Y-110333881D02*
X67721916Y-110364041D01*
X67721916Y-110364041D02*
X67787121Y-110391319D01*
X67787121Y-110391319D02*
X67853385Y-110415962D01*
X67853385Y-110415962D02*
X67920512Y-110438218D01*
X67920512Y-110438218D02*
X67988304Y-110458337D01*
X67988304Y-110458337D02*
X68011015Y-110464611D01*
X67504270Y-110242189D02*
X67560122Y-110279502D01*
X67560122Y-110279502D02*
X67618159Y-110313325D01*
X67618159Y-110313325D02*
X67657970Y-110333881D01*
X66681823Y-107502944D02*
X66683438Y-107570997D01*
X66683438Y-107570997D02*
X66686160Y-107638989D01*
X66686160Y-107638989D02*
X66689875Y-107706927D01*
X66689875Y-107706927D02*
X66694470Y-107774818D01*
X66694470Y-107774818D02*
X66697448Y-107813594D01*
X66697448Y-107176564D02*
X66689287Y-107247607D01*
X66689287Y-107247607D02*
X66684392Y-107318950D01*
X66684392Y-107318950D02*
X66682051Y-107390473D01*
X66682051Y-107390473D02*
X66681553Y-107462057D01*
X66681553Y-107462057D02*
X66681823Y-107502944D01*
X66974975Y-107313881D02*
X66965600Y-107375781D01*
X66952658Y-106935391D02*
X66956619Y-107006361D01*
X66956619Y-107006361D02*
X66962350Y-107077256D01*
X66962350Y-107077256D02*
X66968350Y-107148141D01*
X66968350Y-107148141D02*
X66973120Y-107219084D01*
X66973120Y-107219084D02*
X66975160Y-107290152D01*
X66975160Y-107290152D02*
X66974975Y-107313881D01*
X70847058Y-107860444D02*
X70823043Y-107921414D01*
X70823043Y-107921414D02*
X70800929Y-107983150D01*
X70800929Y-107983150D02*
X70786510Y-108024429D01*
X66819375Y-106961719D02*
X66803750Y-106947111D01*
X67039558Y-106753126D02*
X66982110Y-106724356D01*
X70948125Y-107707424D02*
X70912110Y-107734949D01*
X70958958Y-107708074D02*
X70948125Y-107707424D01*
X70957605Y-107756276D02*
X70964635Y-107716901D01*
X66859533Y-108912786D02*
X66873376Y-108980204D01*
X66873376Y-108980204D02*
X66887388Y-109047594D01*
X66887388Y-109047594D02*
X66901680Y-109114926D01*
X66901680Y-109114926D02*
X66916367Y-109182168D01*
X66916367Y-109182168D02*
X66931561Y-109249290D01*
X66931561Y-109249290D02*
X66947377Y-109316263D01*
X66947377Y-109316263D02*
X66963928Y-109383055D01*
X66963928Y-109383055D02*
X66981328Y-109449636D01*
X66938283Y-107381486D02*
X66913413Y-107344896D01*
X70464688Y-109715001D02*
X70485651Y-109651617D01*
X70485651Y-109651617D02*
X70505081Y-109587772D01*
X70505081Y-109587772D02*
X70523303Y-109523565D01*
X70523303Y-109523565D02*
X70540647Y-109459093D01*
X70540647Y-109459093D02*
X70557438Y-109394456D01*
X70557438Y-109394456D02*
X70562970Y-109372891D01*
X68554350Y-107786486D02*
X68527576Y-107728859D01*
X68527576Y-107728859D02*
X68522240Y-107715209D01*
X68356485Y-106925809D02*
X68371921Y-106986765D01*
X68371921Y-106986765D02*
X68391732Y-107046390D01*
X68391732Y-107046390D02*
X68407448Y-107085209D01*
X68541640Y-107367424D02*
X68567350Y-107429846D01*
X68567350Y-107429846D02*
X68590348Y-107493331D01*
X68590348Y-107493331D02*
X68609767Y-107557944D01*
X68609767Y-107557944D02*
X68624740Y-107623751D01*
X68323568Y-106651404D02*
X68328587Y-106720362D01*
X68328587Y-106720362D02*
X68335085Y-106789232D01*
X68335085Y-106789232D02*
X68344054Y-106857789D01*
X68344054Y-106857789D02*
X68356485Y-106925809D01*
X67978673Y-106318441D02*
X67967513Y-106253354D01*
X67967513Y-106253354D02*
X67961043Y-106187596D01*
X66906485Y-110660131D02*
X66946433Y-110664714D01*
X67998413Y-106349674D02*
X67978673Y-106318441D01*
X68035340Y-106232214D02*
X68020346Y-106293720D01*
X68020346Y-106293720D02*
X68006875Y-106334836D01*
X68167840Y-106438241D02*
X68163025Y-106362304D01*
X68163025Y-106362304D02*
X68158544Y-106286337D01*
X68158544Y-106286337D02*
X68154428Y-106210342D01*
X68154428Y-106210342D02*
X68150715Y-106134323D01*
X68150715Y-106134323D02*
X68147436Y-106058281D01*
X68147436Y-106058281D02*
X68144628Y-105982220D01*
X68144628Y-105982220D02*
X68143645Y-105951791D01*
X68297345Y-107475496D02*
X68278490Y-107429559D01*
X67151668Y-110601121D02*
X67174975Y-110546589D01*
X66900340Y-110649767D02*
X66906485Y-110660131D01*
X66968725Y-110583856D02*
X66920029Y-110623106D01*
X66920029Y-110623106D02*
X66905495Y-110638049D01*
X68407448Y-107085209D02*
X68435691Y-107147481D01*
X68435691Y-107147481D02*
X68465832Y-107208849D01*
X68465832Y-107208849D02*
X68496383Y-107270017D01*
X68496383Y-107270017D02*
X68525855Y-107331687D01*
X68525855Y-107331687D02*
X68541640Y-107367424D01*
X68143645Y-105951791D02*
X68141757Y-105886259D01*
X68141757Y-105886259D02*
X68140308Y-105820690D01*
X68140308Y-105820690D02*
X68138835Y-105755099D01*
X68138835Y-105755099D02*
X68137838Y-105718656D01*
X68331485Y-107483751D02*
X68316198Y-107487891D01*
X68124245Y-105643924D02*
X68112272Y-105709396D01*
X68112272Y-105709396D02*
X68103477Y-105775434D01*
X68103477Y-105775434D02*
X68097683Y-105819496D01*
X69760730Y-110567996D02*
X69760730Y-110567996D01*
X68211250Y-106959949D02*
X68204736Y-106894803D01*
X68204736Y-106894803D02*
X68198578Y-106829639D01*
X68198578Y-106829639D02*
X68192753Y-106764456D01*
X68192753Y-106764456D02*
X68187239Y-106699254D01*
X68187239Y-106699254D02*
X68182013Y-106634032D01*
X68182013Y-106634032D02*
X68177053Y-106568789D01*
X68177053Y-106568789D02*
X68172336Y-106503526D01*
X68172336Y-106503526D02*
X68167840Y-106438241D01*
X68377110Y-107354481D02*
X68364505Y-107354584D01*
X68291668Y-105769521D02*
X68292924Y-105837591D01*
X68292924Y-105837591D02*
X68294632Y-105905648D01*
X68294632Y-105905648D02*
X68296668Y-105973694D01*
X68296668Y-105973694D02*
X68298908Y-106041730D01*
X68298908Y-106041730D02*
X68301228Y-106109761D01*
X68301228Y-106109761D02*
X68303504Y-106177788D01*
X68303504Y-106177788D02*
X68304375Y-106204999D01*
X66987918Y-110370574D02*
X66926806Y-110350580D01*
X66926806Y-110350580D02*
X66864428Y-110334766D01*
X68364505Y-107354584D02*
X68350443Y-107372891D01*
X68592163Y-107812606D02*
X68574428Y-107810911D01*
X68327033Y-105472699D02*
X68300672Y-105531223D01*
X68300672Y-105531223D02*
X68298568Y-105546096D01*
X67174975Y-110546589D02*
X67154015Y-110485174D01*
X67154015Y-110485174D02*
X67144533Y-110473309D01*
X67051380Y-110649324D02*
X67111304Y-110628838D01*
X67111304Y-110628838D02*
X67151668Y-110601121D01*
X68522240Y-107715209D02*
X68502202Y-107653887D01*
X68502202Y-107653887D02*
X68485442Y-107591565D01*
X68485442Y-107591565D02*
X68477943Y-107562736D01*
X68006875Y-106334836D02*
X67998413Y-106349674D01*
X68574428Y-107810911D02*
X68554350Y-107786486D01*
X66842918Y-110338674D02*
X66866563Y-110365651D01*
X66905495Y-110638049D02*
X66900340Y-110649767D01*
X70375340Y-110530861D02*
X70379010Y-110504637D01*
X68133385Y-105642806D02*
X68128255Y-105636449D01*
X68350443Y-107372891D02*
X68341674Y-107436630D01*
X68341674Y-107436630D02*
X68339193Y-107465914D01*
X68128255Y-105636449D02*
X68124245Y-105643924D01*
X68316198Y-107487891D02*
X68297345Y-107475496D01*
X70356720Y-110499064D02*
X70356720Y-110499064D01*
X67144533Y-110473309D02*
X67097272Y-110428849D01*
X67097272Y-110428849D02*
X67041990Y-110394610D01*
X67041990Y-110394610D02*
X66987918Y-110370574D01*
X68137838Y-105718656D02*
X68134538Y-105654593D01*
X68134538Y-105654593D02*
X68133385Y-105642806D01*
X70367970Y-110497736D02*
X70356720Y-110499064D01*
X67947760Y-105673594D02*
X67938726Y-105609675D01*
X67938726Y-105609675D02*
X67933725Y-105595624D01*
X66864428Y-110334766D02*
X66845808Y-110333204D01*
X68624740Y-107623751D02*
X68632437Y-107688597D01*
X68632437Y-107688597D02*
X68629323Y-107746016D01*
X66946433Y-110664714D02*
X67009116Y-110658081D01*
X67009116Y-110658081D02*
X67051380Y-110649324D01*
X68339193Y-107465914D02*
X68331485Y-107483751D01*
X68304375Y-106204999D02*
X68306781Y-106274756D01*
X68306781Y-106274756D02*
X68309258Y-106344523D01*
X68309258Y-106344523D02*
X68311908Y-106414290D01*
X68311908Y-106414290D02*
X68314831Y-106484051D01*
X68314831Y-106484051D02*
X68318128Y-106553797D01*
X68318128Y-106553797D02*
X68321902Y-106623522D01*
X68321902Y-106623522D02*
X68323568Y-106651404D01*
X68097683Y-105819496D02*
X68089395Y-105884205D01*
X68089395Y-105884205D02*
X68081125Y-105948929D01*
X68081125Y-105948929D02*
X68072493Y-106013602D01*
X68072493Y-106013602D02*
X68063121Y-106078158D01*
X68063121Y-106078158D02*
X68052630Y-106142529D01*
X68052630Y-106142529D02*
X68040640Y-106206650D01*
X68040640Y-106206650D02*
X68035340Y-106232214D01*
X67021145Y-110512789D02*
X67011458Y-110545574D01*
X66988803Y-110469844D02*
X67021145Y-110512789D01*
X67933725Y-105595624D02*
X67904715Y-105569744D01*
X67011458Y-110545574D02*
X66968725Y-110583856D01*
X68298568Y-105546096D02*
X68292814Y-105608701D01*
X68292814Y-105608701D02*
X68291031Y-105671590D01*
X68291031Y-105671590D02*
X68291316Y-105734567D01*
X68291316Y-105734567D02*
X68291668Y-105769521D01*
X68390158Y-105457529D02*
X68328692Y-105471390D01*
X68328692Y-105471390D02*
X68327033Y-105472699D01*
X67952005Y-105907394D02*
X67951959Y-105841608D01*
X67951959Y-105841608D02*
X67951541Y-105775837D01*
X67951541Y-105775837D02*
X67949735Y-105710097D01*
X67949735Y-105710097D02*
X67947760Y-105673594D01*
X68278490Y-107429559D02*
X68264755Y-107367187D01*
X68264755Y-107367187D02*
X68255077Y-107311641D01*
X67961043Y-106187596D02*
X67956591Y-106117665D01*
X67956591Y-106117665D02*
X67953848Y-106047620D01*
X67953848Y-106047620D02*
X67952443Y-105977512D01*
X67952443Y-105977512D02*
X67952005Y-105907394D01*
X68255077Y-107311641D02*
X68245110Y-107245926D01*
X68245110Y-107245926D02*
X68236170Y-107180061D01*
X68236170Y-107180061D02*
X68228059Y-107114086D01*
X68228059Y-107114086D02*
X68220580Y-107048042D01*
X68220580Y-107048042D02*
X68213536Y-106981971D01*
X68213536Y-106981971D02*
X68211250Y-106959949D01*
X68629323Y-107746016D02*
X68603457Y-107803147D01*
X68603457Y-107803147D02*
X68592163Y-107812606D01*
X68477943Y-107562736D02*
X68458985Y-107499498D01*
X68458985Y-107499498D02*
X68435281Y-107437940D01*
X68435281Y-107437940D02*
X68407345Y-107384924D01*
X66866563Y-110365651D02*
X66916347Y-110407781D01*
X66916347Y-110407781D02*
X66966369Y-110449720D01*
X66966369Y-110449720D02*
X66988803Y-110469844D01*
X66845808Y-110333204D02*
X66842918Y-110338674D01*
X68407345Y-107384924D02*
X68377110Y-107354481D01*
X70379010Y-110504637D02*
X70367970Y-110497736D01*
X70177918Y-110670391D02*
X70166198Y-110703074D01*
X70356720Y-110499064D02*
X70301567Y-110533711D01*
X70301567Y-110533711D02*
X70268150Y-110563439D01*
X69660990Y-110613281D02*
X69686537Y-110669506D01*
X67752788Y-110567786D02*
X67752788Y-110567786D01*
X69994533Y-110730419D02*
X69980025Y-110674636D01*
X69966745Y-110753386D02*
X69994533Y-110730419D01*
X69686537Y-110669506D02*
X69738641Y-110708361D01*
X69738641Y-110708361D02*
X69797483Y-110736083D01*
X69797483Y-110736083D02*
X69860265Y-110753362D01*
X69860265Y-110753362D02*
X69873048Y-110755626D01*
X69680755Y-110818751D02*
X69680755Y-110818751D01*
X70316563Y-111218751D02*
X70286715Y-111162997D01*
X70286715Y-111162997D02*
X70254952Y-111108245D01*
X70254952Y-111108245D02*
X70220670Y-111055043D01*
X70220670Y-111055043D02*
X70200313Y-111026356D01*
X67912528Y-110613751D02*
X67879505Y-110580731D01*
X67702265Y-111103544D02*
X67757896Y-111073238D01*
X67757896Y-111073238D02*
X67806425Y-111032889D01*
X67806425Y-111032889D02*
X67818048Y-111018881D01*
X69685208Y-110937214D02*
X69727291Y-110988064D01*
X69727291Y-110988064D02*
X69778267Y-111030081D01*
X69778267Y-111030081D02*
X69804010Y-111046434D01*
X67879505Y-110580731D02*
X67816951Y-110569256D01*
X67816951Y-110569256D02*
X67791928Y-110568126D01*
X67916640Y-110690704D02*
X67916656Y-110627734D01*
X67916656Y-110627734D02*
X67912528Y-110613751D01*
X70183255Y-111389974D02*
X70243467Y-111410309D01*
X70243467Y-111410309D02*
X70304536Y-111428010D01*
X70304536Y-111428010D02*
X70322240Y-111432161D01*
X69804010Y-111046434D02*
X69858269Y-111082468D01*
X69858269Y-111082468D02*
X69904168Y-111128309D01*
X67818048Y-111018881D02*
X67849622Y-110964052D01*
X67849622Y-110964052D02*
X67870712Y-110904089D01*
X67870712Y-110904089D02*
X67878490Y-110875861D01*
X70365418Y-111433151D02*
X70381145Y-111416876D01*
X67282943Y-111212526D02*
X67293438Y-111230914D01*
X67631875Y-110614636D02*
X67585762Y-110662955D01*
X67585762Y-110662955D02*
X67546068Y-110716776D01*
X67546068Y-110716776D02*
X67521328Y-110753829D01*
X69738750Y-110831799D02*
X69680755Y-110818751D01*
X70009923Y-111324299D02*
X70068637Y-111349207D01*
X70068637Y-111349207D02*
X70128587Y-111370901D01*
X70128587Y-111370901D02*
X70183255Y-111389974D01*
X69654088Y-110871641D02*
X69680401Y-110929499D01*
X69680401Y-110929499D02*
X69685208Y-110937214D01*
X68186928Y-110665732D02*
X68186928Y-110665732D01*
X69547682Y-111131199D02*
X69535464Y-111066449D01*
X69535464Y-111066449D02*
X69521933Y-111001973D01*
X69521933Y-111001973D02*
X69507611Y-110937662D01*
X69507611Y-110937662D02*
X69493020Y-110873411D01*
X69267683Y-111463386D02*
X69330352Y-111452754D01*
X69330352Y-111452754D02*
X69392573Y-111439533D01*
X69392573Y-111439533D02*
X69453897Y-111422583D01*
X69453897Y-111422583D02*
X69466015Y-111418646D01*
X69564063Y-111302656D02*
X69562437Y-111238017D01*
X69562437Y-111238017D02*
X69554614Y-111173754D01*
X69554614Y-111173754D02*
X69547682Y-111131199D01*
X69904168Y-111128309D02*
X69923875Y-111189032D01*
X69923875Y-111189032D02*
X69921120Y-111207059D01*
X69678073Y-110589089D02*
X69660990Y-110613281D01*
X69934845Y-110879896D02*
X69873097Y-110866900D01*
X69873097Y-110866900D02*
X69811649Y-110852414D01*
X69811649Y-110852414D02*
X69750815Y-110835539D01*
X69750815Y-110835539D02*
X69738750Y-110831799D01*
X70200313Y-111026356D02*
X70156595Y-110975856D01*
X70156595Y-110975856D02*
X70104462Y-110934335D01*
X70104462Y-110934335D02*
X70077188Y-110919819D01*
X69453203Y-110741356D02*
X69415509Y-110690963D01*
X69415509Y-110690963D02*
X69405340Y-110684896D01*
X67501928Y-111184299D02*
X67565229Y-111160683D01*
X67565229Y-111160683D02*
X67628006Y-111135850D01*
X67628006Y-111135850D02*
X67689987Y-111109160D01*
X67689987Y-111109160D02*
X67702265Y-111103544D01*
X70213047Y-110698856D02*
X70264130Y-110662604D01*
X70264130Y-110662604D02*
X70309533Y-110619324D01*
X70176563Y-110710781D02*
X70213047Y-110698856D01*
X69760730Y-110567996D02*
X69697053Y-110578831D01*
X69697053Y-110578831D02*
X69678073Y-110589089D01*
X67296015Y-111153621D02*
X67282943Y-111212526D01*
X67349765Y-111233049D02*
X67412318Y-111215457D01*
X67412318Y-111215457D02*
X67473704Y-111194271D01*
X67473704Y-111194271D02*
X67501928Y-111184299D01*
X67791928Y-110568126D02*
X67752788Y-110567786D01*
X70268150Y-110563439D02*
X70222506Y-110610846D01*
X70222506Y-110610846D02*
X70182636Y-110663004D01*
X70182636Y-110663004D02*
X70177918Y-110670391D01*
X69872265Y-110589871D02*
X69810591Y-110571698D01*
X69810591Y-110571698D02*
X69760730Y-110567996D01*
X69980025Y-110674636D02*
X69936213Y-110626743D01*
X69936213Y-110626743D02*
X69880173Y-110593379D01*
X69880173Y-110593379D02*
X69872265Y-110589871D01*
X69873048Y-110755626D02*
X69937796Y-110758833D01*
X69937796Y-110758833D02*
X69966745Y-110753386D01*
X67878490Y-110875861D02*
X67893666Y-110812655D01*
X67893666Y-110812655D02*
X67907125Y-110749021D01*
X67907125Y-110749021D02*
X67916640Y-110690704D01*
X70377918Y-111354844D02*
X70353521Y-111294288D01*
X70353521Y-111294288D02*
X70325003Y-111235416D01*
X70325003Y-111235416D02*
X70316563Y-111218751D01*
X67293438Y-111230914D02*
X67349765Y-111233049D01*
X70322240Y-111432161D02*
X70365418Y-111433151D01*
X67387240Y-110976824D02*
X67353618Y-111036421D01*
X67353618Y-111036421D02*
X67321811Y-111097020D01*
X67321811Y-111097020D02*
X67296015Y-111153621D01*
X67521328Y-110753829D02*
X67486750Y-110808945D01*
X67486750Y-110808945D02*
X67453160Y-110864662D01*
X67453160Y-110864662D02*
X67420133Y-110920711D01*
X67420133Y-110920711D02*
X67387240Y-110976824D01*
X69928933Y-111264949D02*
X69976146Y-111306767D01*
X69976146Y-111306767D02*
X70009923Y-111324299D01*
X69466015Y-111418646D02*
X69524449Y-111392444D01*
X69524449Y-111392444D02*
X69533957Y-111385314D01*
X67752788Y-110567789D02*
X67687936Y-110580089D01*
X67687936Y-110580089D02*
X67631875Y-110614636D01*
X69337970Y-110671746D02*
X69337970Y-110671746D01*
X69921120Y-111207059D02*
X69928933Y-111264949D01*
X69662788Y-110826224D02*
X69654088Y-110871641D01*
X69680755Y-110818751D02*
X69662788Y-110826224D01*
X69493020Y-110873411D02*
X69477073Y-110810662D01*
X69477073Y-110810662D02*
X69456560Y-110749314D01*
X69456560Y-110749314D02*
X69453203Y-110741356D01*
X69038567Y-111483126D02*
X69103260Y-111481175D01*
X69103260Y-111481175D02*
X69167789Y-111476009D01*
X69167789Y-111476009D02*
X69232086Y-111468393D01*
X69232086Y-111468393D02*
X69267683Y-111463386D01*
X69405340Y-110684896D02*
X69342286Y-110671716D01*
X69342286Y-110671716D02*
X69337970Y-110671746D01*
X70077188Y-110919819D02*
X70016348Y-110897614D01*
X70016348Y-110897614D02*
X69953025Y-110883408D01*
X69953025Y-110883408D02*
X69934845Y-110879896D01*
X70381145Y-111416876D02*
X70377918Y-111354844D01*
X69533957Y-111385314D02*
X69561497Y-111327849D01*
X69561497Y-111327849D02*
X69564063Y-111302656D01*
X70309533Y-110619324D02*
X70351632Y-110568932D01*
X70351632Y-110568932D02*
X70375340Y-110530861D01*
X70166198Y-110703074D02*
X70176563Y-110710781D01*
X68026408Y-111816304D02*
X68080807Y-111851519D01*
X68080807Y-111851519D02*
X68117083Y-111865496D01*
X66655288Y-112020549D02*
X66685801Y-111964238D01*
X66685801Y-111964238D02*
X66685860Y-111962111D01*
X67920990Y-111683699D02*
X67953026Y-111739074D01*
X67953026Y-111739074D02*
X67994643Y-111787757D01*
X67994643Y-111787757D02*
X68026408Y-111816304D01*
X67903490Y-111602919D02*
X67914066Y-111666854D01*
X67914066Y-111666854D02*
X67920990Y-111683699D01*
X69874505Y-111704324D02*
X69874505Y-111704324D01*
X67033203Y-111970469D02*
X67050390Y-111994219D01*
X67758595Y-111237606D02*
X67756120Y-111238049D01*
X67920990Y-111523829D02*
X67910288Y-111537789D01*
X66619375Y-111854896D02*
X66611900Y-111859141D01*
X66593255Y-111894401D02*
X66592096Y-111958955D01*
X66592096Y-111958955D02*
X66597943Y-111983621D01*
X67186015Y-111403829D02*
X67163385Y-111400026D01*
X67835208Y-112084689D02*
X67849818Y-112107684D01*
X67050390Y-111994219D02*
X67065443Y-111995001D01*
X68223620Y-112030939D02*
X68178004Y-111986674D01*
X68178004Y-111986674D02*
X68159713Y-111975599D01*
X66654400Y-111872189D02*
X66619375Y-111854896D01*
X67849818Y-112107684D02*
X67913127Y-112120714D01*
X67913127Y-112120714D02*
X67931380Y-112120391D01*
X67192033Y-111513906D02*
X67197349Y-111449826D01*
X67197349Y-111449826D02*
X67196408Y-111428464D01*
X67770520Y-111383856D02*
X67778832Y-111321066D01*
X67778832Y-111321066D02*
X67780235Y-111265289D01*
X67109845Y-111436381D02*
X67075548Y-111493182D01*
X67075548Y-111493182D02*
X67054610Y-111548049D01*
X66597943Y-111983621D02*
X66625158Y-112022891D01*
X68227525Y-112046329D02*
X68223620Y-112030939D01*
X67841588Y-112011174D02*
X67834278Y-112075479D01*
X67834278Y-112075479D02*
X67835208Y-112084689D01*
X67898462Y-111889611D02*
X67867240Y-111913021D01*
X67913178Y-111889141D02*
X67898462Y-111889611D01*
X67685313Y-111751616D02*
X67703709Y-111683262D01*
X67703709Y-111683262D02*
X67721391Y-111614691D01*
X67721391Y-111614691D02*
X67737997Y-111545847D01*
X67737997Y-111545847D02*
X67753163Y-111476679D01*
X67753163Y-111476679D02*
X67766528Y-111407131D01*
X67766528Y-111407131D02*
X67770520Y-111383856D01*
X67448725Y-111683569D02*
X67454445Y-111749577D01*
X67454445Y-111749577D02*
X67462333Y-111815342D01*
X67462333Y-111815342D02*
X67472012Y-111880882D01*
X67472012Y-111880882D02*
X67483107Y-111946218D01*
X67483107Y-111946218D02*
X67495242Y-112011369D01*
X67495242Y-112011369D02*
X67499453Y-112033049D01*
X66611900Y-111859141D02*
X66593255Y-111894401D01*
X67898462Y-111889611D02*
X67898462Y-111889611D01*
X67196408Y-111428464D02*
X67186015Y-111403829D01*
X67157345Y-111712919D02*
X67169148Y-111650908D01*
X67169148Y-111650908D02*
X67180230Y-111588724D01*
X67180230Y-111588724D02*
X67190204Y-111526389D01*
X67190204Y-111526389D02*
X67192033Y-111513906D01*
X67162265Y-111400261D02*
X67109845Y-111436381D01*
X68159713Y-111975599D02*
X68102316Y-111948104D01*
X68102316Y-111948104D02*
X68042646Y-111925841D01*
X68042646Y-111925841D02*
X67987918Y-111906901D01*
X68208568Y-112069636D02*
X68227525Y-112046329D01*
X67499453Y-112033049D02*
X67512848Y-112097509D01*
X67512848Y-112097509D02*
X67528531Y-112161453D01*
X67528531Y-112161453D02*
X67533828Y-112179506D01*
X67910288Y-111537789D02*
X67903546Y-111600878D01*
X67903546Y-111600878D02*
X67903490Y-111602919D01*
X66625158Y-112022891D02*
X66655288Y-112020549D01*
X67987918Y-111906901D02*
X67927528Y-111890778D01*
X67927528Y-111890778D02*
X67913178Y-111889141D01*
X67105703Y-111921616D02*
X67124995Y-111857210D01*
X67124995Y-111857210D02*
X67140796Y-111791885D01*
X67140796Y-111791885D02*
X67154665Y-111726093D01*
X67154665Y-111726093D02*
X67157345Y-111712919D01*
X67533828Y-112179506D02*
X67540860Y-112197344D01*
X67054610Y-111548049D02*
X67036094Y-111612069D01*
X67036094Y-111612069D02*
X67022227Y-111677266D01*
X67022227Y-111677266D02*
X67013066Y-111743304D01*
X67013066Y-111743304D02*
X67008673Y-111809844D01*
X66685860Y-111962111D02*
X66672388Y-111900292D01*
X66672388Y-111900292D02*
X66654400Y-111872189D01*
X67572528Y-112133674D02*
X67595337Y-112062526D01*
X67595337Y-112062526D02*
X67617114Y-111991076D01*
X67617114Y-111991076D02*
X67638096Y-111919392D01*
X67638096Y-111919392D02*
X67658524Y-111847545D01*
X67658524Y-111847545D02*
X67678637Y-111775604D01*
X67678637Y-111775604D02*
X67685313Y-111751616D01*
X67065443Y-111995001D02*
X67098519Y-111941526D01*
X67098519Y-111941526D02*
X67105703Y-111921616D01*
X67772630Y-111240964D02*
X67758595Y-111237606D01*
X67780235Y-111265289D02*
X67772630Y-111240964D01*
X67008673Y-111809844D02*
X67011389Y-111876154D01*
X67011389Y-111876154D02*
X67023648Y-111941328D01*
X67023648Y-111941328D02*
X67033203Y-111970469D01*
X68069010Y-112109349D02*
X68131748Y-112097628D01*
X68131748Y-112097628D02*
X68192142Y-112077588D01*
X68192142Y-112077588D02*
X68208568Y-112069636D01*
X67540860Y-112197344D02*
X67570353Y-112139981D01*
X67570353Y-112139981D02*
X67572528Y-112133674D01*
X67931380Y-112120391D02*
X67996058Y-112116914D01*
X67996058Y-112116914D02*
X68060451Y-112110484D01*
X68060451Y-112110484D02*
X68069010Y-112109349D01*
X67867240Y-111913021D02*
X67848734Y-111973679D01*
X67848734Y-111973679D02*
X67841588Y-112011174D01*
X68186823Y-111856251D02*
X68223178Y-111807736D01*
X68117083Y-111865496D02*
X68181139Y-111860205D01*
X68181139Y-111860205D02*
X68186823Y-111856251D01*
X69874505Y-111704324D02*
X69861770Y-111712474D01*
X68526250Y-112374039D02*
X68514533Y-112340366D01*
X70093568Y-112238621D02*
X70126329Y-112184212D01*
X70126329Y-112184212D02*
X70150858Y-112125602D01*
X70150858Y-112125602D02*
X70166745Y-112070079D01*
X69857760Y-111753856D02*
X69870118Y-111818240D01*
X69870118Y-111818240D02*
X69887173Y-111881642D01*
X69887173Y-111881642D02*
X69889558Y-111890054D01*
X68839350Y-111593334D02*
X68775861Y-111591920D01*
X68775861Y-111591920D02*
X68751015Y-111591876D01*
X68377995Y-111659819D02*
X68349525Y-111717829D01*
X68349525Y-111717829D02*
X68347553Y-111729766D01*
X70051408Y-112267736D02*
X70093568Y-112238621D01*
X70026198Y-112238751D02*
X70051408Y-112267736D01*
X68494688Y-112196564D02*
X68552532Y-112228494D01*
X68552532Y-112228494D02*
X68612988Y-112255158D01*
X68612988Y-112255158D02*
X68675187Y-112277374D01*
X68675187Y-112277374D02*
X68687760Y-112281356D01*
X69889558Y-111890054D02*
X69909889Y-111955113D01*
X69909889Y-111955113D02*
X69931909Y-112019632D01*
X69931909Y-112019632D02*
X69955623Y-112083527D01*
X69955623Y-112083527D02*
X69969533Y-112118724D01*
X69861770Y-111712474D02*
X69857760Y-111753856D01*
X68837345Y-111892396D02*
X68835573Y-111873544D01*
X69650418Y-112175261D02*
X69650418Y-112175261D01*
X69151120Y-112051459D02*
X69160938Y-111988439D01*
X69157708Y-111672189D02*
X69120678Y-111639299D01*
X69149558Y-111680001D02*
X69157708Y-111672189D01*
X68371640Y-111980964D02*
X68398178Y-112012631D01*
X69097683Y-111686146D02*
X69149558Y-111680001D01*
X68996745Y-111707449D02*
X69058487Y-111687830D01*
X69058487Y-111687830D02*
X69097683Y-111686146D01*
X68978673Y-111732656D02*
X68996745Y-111707449D01*
X68987708Y-111760756D02*
X68978673Y-111732656D01*
X69074168Y-111813646D02*
X69071485Y-111805731D01*
X68409793Y-112518594D02*
X68456461Y-112474337D01*
X68456461Y-112474337D02*
X68499787Y-112426919D01*
X68499787Y-112426919D02*
X68505158Y-112420236D01*
X68862553Y-111849454D02*
X68923280Y-111833275D01*
X68923280Y-111833275D02*
X68929713Y-111832266D01*
X68350000Y-111908776D02*
X68366804Y-111970197D01*
X68366804Y-111970197D02*
X68371640Y-111980964D01*
X68505158Y-112420236D02*
X68526250Y-112374039D01*
X69061225Y-111932891D02*
X68994487Y-111930388D01*
X68994487Y-111930388D02*
X68927890Y-111926318D01*
X68927890Y-111926318D02*
X68884193Y-111917814D01*
X68422163Y-112290496D02*
X68360506Y-112268314D01*
X68360506Y-112268314D02*
X68297838Y-112249030D01*
X68297838Y-112249030D02*
X68234139Y-112233588D01*
X68234139Y-112233588D02*
X68221275Y-112231044D01*
X68415703Y-112124636D02*
X68458371Y-112171859D01*
X68458371Y-112171859D02*
X68494688Y-112196564D01*
X68835573Y-111873544D02*
X68862553Y-111849454D01*
X68884193Y-111917814D02*
X68837345Y-111892396D01*
X68891668Y-112317266D02*
X68955146Y-112310418D01*
X68955146Y-112310418D02*
X69012708Y-112283569D01*
X69160938Y-111988439D02*
X69138855Y-111952294D01*
X69091328Y-112182084D02*
X69119694Y-112125931D01*
X69119694Y-112125931D02*
X69144936Y-112068330D01*
X69144936Y-112068330D02*
X69151120Y-112051459D01*
X68687760Y-112281356D02*
X68750411Y-112298358D01*
X68750411Y-112298358D02*
X68814149Y-112310566D01*
X68814149Y-112310566D02*
X68878688Y-112316828D01*
X68878688Y-112316828D02*
X68891668Y-112317266D01*
X68221275Y-112231044D02*
X68159018Y-112223704D01*
X68159018Y-112223704D02*
X68144533Y-112223464D01*
X70059453Y-111766459D02*
X70001337Y-111735962D01*
X70001337Y-111735962D02*
X69939262Y-111714440D01*
X69939262Y-111714440D02*
X69921120Y-111709689D01*
X68144533Y-112223464D02*
X68144533Y-112223464D01*
X69025625Y-111610391D02*
X68961862Y-111601799D01*
X68961862Y-111601799D02*
X68897733Y-111596483D01*
X68897733Y-111596483D02*
X68839350Y-111593334D01*
X68398178Y-112012631D02*
X68414943Y-112072861D01*
X68414943Y-112072861D02*
X68411355Y-112090391D01*
X68470470Y-111615861D02*
X68409073Y-111636599D01*
X68409073Y-111636599D02*
X68377995Y-111659819D01*
X68347553Y-111729766D02*
X68341680Y-111796843D01*
X68341680Y-111796843D02*
X68344256Y-111864194D01*
X68344256Y-111864194D02*
X68350000Y-111908776D01*
X67454063Y-111464271D02*
X67446812Y-111532546D01*
X67446812Y-111532546D02*
X67445370Y-111601196D01*
X67445370Y-111601196D02*
X67447903Y-111669864D01*
X67447903Y-111669864D02*
X67448725Y-111683569D01*
X67497448Y-111345156D02*
X67468314Y-111401785D01*
X67468314Y-111401785D02*
X67454063Y-111464271D01*
X68751015Y-111591876D02*
X68751015Y-111591876D01*
X68411355Y-112090391D02*
X68415703Y-112124636D01*
X69120678Y-111639299D02*
X69059296Y-111617043D01*
X69059296Y-111617043D02*
X69025625Y-111610391D01*
X69138855Y-111952294D02*
X69078808Y-111934532D01*
X69078808Y-111934532D02*
X69061225Y-111932891D01*
X68514533Y-112340366D02*
X68459029Y-112305317D01*
X68459029Y-112305317D02*
X68422163Y-112290496D01*
X68304038Y-112601486D02*
X68355712Y-112565459D01*
X68355712Y-112565459D02*
X68403502Y-112524172D01*
X68403502Y-112524172D02*
X68409793Y-112518594D01*
X69071485Y-111805731D02*
X69056745Y-111798906D01*
X68751015Y-111591876D02*
X68680523Y-111593313D01*
X68680523Y-111593313D02*
X68610107Y-111597023D01*
X68610107Y-111597023D02*
X68540008Y-111604155D01*
X68540008Y-111604155D02*
X68470470Y-111615861D01*
X69052188Y-111821771D02*
X69074168Y-111813646D01*
X68929713Y-111832266D02*
X68994830Y-111827036D01*
X68994830Y-111827036D02*
X69052188Y-111821771D01*
X67548985Y-111312449D02*
X67497448Y-111345156D01*
X67618698Y-111324611D02*
X67555720Y-111311792D01*
X67555720Y-111311792D02*
X67548985Y-111312449D01*
X67708620Y-111294949D02*
X67652240Y-111324161D01*
X67652240Y-111324161D02*
X67618698Y-111324611D01*
X67756120Y-111238049D02*
X67715879Y-111285927D01*
X67715879Y-111285927D02*
X67708620Y-111294949D01*
X69969533Y-112118724D02*
X69995853Y-112179684D01*
X69995853Y-112179684D02*
X70026198Y-112238751D01*
X69921120Y-111709689D02*
X69874505Y-111704324D01*
X70164740Y-111900521D02*
X70136436Y-111841976D01*
X70136436Y-111841976D02*
X70094145Y-111792599D01*
X70094145Y-111792599D02*
X70059453Y-111766459D01*
X69056745Y-111798906D02*
X68998563Y-111771084D01*
X68998563Y-111771084D02*
X68987708Y-111760756D01*
X70166745Y-112070079D02*
X70176326Y-112006466D01*
X70176326Y-112006466D02*
X70174307Y-111942318D01*
X70174307Y-111942318D02*
X70164740Y-111900521D01*
X69012708Y-112283569D02*
X69057575Y-112237259D01*
X69057575Y-112237259D02*
X69091328Y-112182084D01*
X68144533Y-112223464D02*
X68089533Y-112239299D01*
X69477735Y-111590756D02*
X69477735Y-111590756D01*
X69283750Y-112667294D02*
X69347433Y-112648850D01*
X69347433Y-112648850D02*
X69398985Y-112620549D01*
X69405338Y-112302866D02*
X69380616Y-112361800D01*
X69380616Y-112361800D02*
X69358150Y-112399481D01*
X69477735Y-111590756D02*
X69418431Y-111611986D01*
X69418431Y-111611986D02*
X69371838Y-111654595D01*
X69371838Y-111654595D02*
X69366952Y-111661486D01*
X69657553Y-112175704D02*
X69650418Y-112175261D01*
X69557370Y-111655809D02*
X69526416Y-111599738D01*
X69526416Y-111599738D02*
X69517995Y-111595236D01*
X70842838Y-112530991D02*
X70836520Y-112595863D01*
X70836520Y-112595863D02*
X70836248Y-112661183D01*
X70836248Y-112661183D02*
X70836250Y-112669871D01*
X66884403Y-111962786D02*
X66884063Y-111962786D01*
X69697265Y-112281121D02*
X69684640Y-112218588D01*
X69684640Y-112218588D02*
X69676173Y-112195131D01*
X69629428Y-112576276D02*
X69647058Y-112606954D01*
X69522135Y-112260601D02*
X69535995Y-112199001D01*
X69535995Y-112199001D02*
X69551167Y-112137686D01*
X69551167Y-112137686D02*
X69567777Y-112076745D01*
X69567777Y-112076745D02*
X69585949Y-112016268D01*
X69585949Y-112016268D02*
X69597083Y-111981954D01*
X69249845Y-112376719D02*
X69293799Y-112329260D01*
X69293799Y-112329260D02*
X69338453Y-112282530D01*
X69338453Y-112282530D02*
X69352033Y-112269976D01*
X69406900Y-112258256D02*
X69405338Y-112302866D01*
X69701823Y-112459376D02*
X69704182Y-112392480D01*
X69704182Y-112392480D02*
X69701672Y-112325566D01*
X69701672Y-112325566D02*
X69697265Y-112281121D01*
X69147448Y-112444089D02*
X69175885Y-112437189D01*
X69644948Y-111848334D02*
X69652290Y-111785322D01*
X69652290Y-111785322D02*
X69649400Y-111773804D01*
X69682630Y-112573386D02*
X69696623Y-112509839D01*
X69696623Y-112509839D02*
X69701823Y-112459376D01*
X69647058Y-112606954D02*
X69660625Y-112608074D01*
X69271693Y-112038179D02*
X69248862Y-112101692D01*
X69248862Y-112101692D02*
X69222959Y-112164041D01*
X69222959Y-112164041D02*
X69197083Y-112219664D01*
X69607578Y-112425469D02*
X69612118Y-112492174D01*
X69612118Y-112492174D02*
X69624078Y-112557911D01*
X69624078Y-112557911D02*
X69629428Y-112576276D01*
X69650418Y-112175261D02*
X69623073Y-112231044D01*
X70846510Y-112525419D02*
X70842838Y-112530991D01*
X69197083Y-112219664D02*
X69169746Y-112281258D01*
X69169746Y-112281258D02*
X69146524Y-112344426D01*
X69146524Y-112344426D02*
X69135208Y-112387866D01*
X69222005Y-112600599D02*
X69226745Y-112646329D01*
X69498568Y-112378621D02*
X69510887Y-112315914D01*
X69510887Y-112315914D02*
X69522135Y-112260601D01*
X70842605Y-112750834D02*
X70849740Y-112755314D01*
X69398985Y-112620549D02*
X69437262Y-112569450D01*
X69437262Y-112569450D02*
X69445053Y-112553179D01*
X69588490Y-111728074D02*
X69559246Y-111670765D01*
X69559246Y-111670765D02*
X69557370Y-111655809D01*
X69226745Y-112646329D02*
X69283750Y-112667294D01*
X69366952Y-111661486D02*
X69337212Y-111717286D01*
X69337212Y-111717286D02*
X69320211Y-111778209D01*
X69320211Y-111778209D02*
X69314975Y-111835496D01*
X69358150Y-112399481D02*
X69321161Y-112450193D01*
X69321161Y-112450193D02*
X69285208Y-112492396D01*
X68280183Y-112606069D02*
X68304038Y-112601486D01*
X68095338Y-112556746D02*
X68157916Y-112577218D01*
X68157916Y-112577218D02*
X68221542Y-112594073D01*
X68221542Y-112594073D02*
X68280183Y-112606069D01*
X69135208Y-112387866D02*
X69137630Y-112437397D01*
X69517995Y-111595236D02*
X69477735Y-111590756D01*
X67908283Y-112460834D02*
X67962933Y-112497649D01*
X67962933Y-112497649D02*
X68021749Y-112527444D01*
X68021749Y-112527444D02*
X68082963Y-112552218D01*
X68082963Y-112552218D02*
X68095338Y-112556746D01*
X67873020Y-112406616D02*
X67906618Y-112459612D01*
X67906618Y-112459612D02*
X67908283Y-112460834D01*
X69660625Y-112608074D02*
X69682630Y-112573386D01*
X67880963Y-112389219D02*
X67873020Y-112406616D01*
X69649400Y-111773804D02*
X69631563Y-111754844D01*
X70865470Y-112616434D02*
X70857947Y-112552674D01*
X70857947Y-112552674D02*
X70853543Y-112535236D01*
X66884063Y-111962786D02*
X66883958Y-111962789D01*
X67930025Y-112371589D02*
X67880963Y-112389219D01*
X69623073Y-112231044D02*
X69611789Y-112297286D01*
X69611789Y-112297286D02*
X69607447Y-112364370D01*
X69607447Y-112364370D02*
X69607578Y-112425469D01*
X69631563Y-111754844D02*
X69588490Y-111728074D01*
X69137630Y-112437397D02*
X69147448Y-112444089D01*
X69676173Y-112195131D02*
X69657553Y-112175704D01*
X68055860Y-112359661D02*
X67993275Y-112368047D01*
X67993275Y-112368047D02*
X67930025Y-112371589D01*
X69597083Y-111981954D02*
X69620020Y-111919456D01*
X69620020Y-111919456D02*
X69642368Y-111856821D01*
X69642368Y-111856821D02*
X69644948Y-111848334D01*
X69285208Y-112492396D02*
X69247288Y-112542943D01*
X69247288Y-112542943D02*
X69222005Y-112600599D01*
X70856095Y-112746616D02*
X70865645Y-112681983D01*
X70865645Y-112681983D02*
X70865470Y-112616434D01*
X70849740Y-112755314D02*
X70856095Y-112746616D01*
X70836250Y-112669871D02*
X70839669Y-112733318D01*
X70839669Y-112733318D02*
X70842605Y-112750834D01*
X69352033Y-112269976D02*
X69390495Y-112245992D01*
X69175885Y-112437189D02*
X69226267Y-112399826D01*
X69226267Y-112399826D02*
X69249845Y-112376719D01*
X70853543Y-112535236D02*
X70846510Y-112525419D01*
X68747658Y-112400366D02*
X68747658Y-112400366D01*
X69390495Y-112245992D02*
X69406900Y-112258256D01*
X68085313Y-112330757D02*
X68055860Y-112359661D01*
X69445053Y-112553179D02*
X69467391Y-112494469D01*
X69467391Y-112494469D02*
X69485259Y-112434220D01*
X69485259Y-112434220D02*
X69498568Y-112378621D01*
X68089533Y-112239299D02*
X68076823Y-112282684D01*
X69314975Y-111835496D02*
X69308167Y-111900048D01*
X69308167Y-111900048D02*
X69294160Y-111963455D01*
X69294160Y-111963455D02*
X69275684Y-112025821D01*
X69275684Y-112025821D02*
X69271693Y-112038179D01*
X68076823Y-112282684D02*
X68085313Y-112330757D01*
X66692318Y-112750627D02*
X66707693Y-112814909D01*
X66707693Y-112814909D02*
X66734935Y-112875035D01*
X66734935Y-112875035D02*
X66745183Y-112890939D01*
X67416120Y-112840079D02*
X67437995Y-112787554D01*
X70428880Y-112023804D02*
X70407026Y-111955968D01*
X70407026Y-111955968D02*
X70386371Y-111887748D01*
X70386371Y-111887748D02*
X70365779Y-111819508D01*
X70365779Y-111819508D02*
X70344115Y-111751616D01*
X67015470Y-112799246D02*
X67017736Y-112731954D01*
X67017736Y-112731954D02*
X67016735Y-112664612D01*
X67016735Y-112664612D02*
X67013652Y-112597305D01*
X67013652Y-112597305D02*
X67012890Y-112583856D01*
X67297240Y-111646434D02*
X67287970Y-111647554D01*
X67330913Y-112801382D02*
X67343958Y-112790679D01*
X70253880Y-111550939D02*
X70251850Y-111556406D01*
X67287970Y-111647554D02*
X67271588Y-111685574D01*
X66959480Y-112167579D02*
X66944930Y-112103890D01*
X66944930Y-112103890D02*
X66927506Y-112040854D01*
X66927506Y-112040854D02*
X66917970Y-112012189D01*
X66871120Y-112915366D02*
X66881760Y-112852572D01*
X66881760Y-112852572D02*
X66882395Y-112837839D01*
X67334713Y-111777501D02*
X67321987Y-111713298D01*
X67321987Y-111713298D02*
X67306485Y-111657709D01*
X67222708Y-113040861D02*
X67262339Y-112991237D01*
X67262339Y-112991237D02*
X67264428Y-112987554D01*
X67222163Y-111884689D02*
X67208192Y-111946643D01*
X67208192Y-111946643D02*
X67195390Y-112008806D01*
X67195390Y-112008806D02*
X67185235Y-112065626D01*
X68500913Y-112651799D02*
X68507605Y-112691954D01*
X67287970Y-111647554D02*
X67287970Y-111647554D01*
X66917970Y-112012189D02*
X66894895Y-111967006D01*
X70344115Y-111751616D02*
X70323761Y-111691209D01*
X70323761Y-111691209D02*
X70301778Y-111631415D01*
X70301778Y-111631415D02*
X70279740Y-111577839D01*
X66986798Y-112913804D02*
X66990938Y-112934349D01*
X67135000Y-112704661D02*
X67136485Y-112770589D01*
X67136485Y-112770589D02*
X67139861Y-112836488D01*
X67139861Y-112836488D02*
X67145883Y-112902155D01*
X67145883Y-112902155D02*
X67150650Y-112938464D01*
X70262578Y-111548934D02*
X70253880Y-111550939D01*
X67185235Y-112065626D02*
X67175553Y-112127642D01*
X67175553Y-112127642D02*
X67167024Y-112189867D01*
X67167024Y-112189867D02*
X67159540Y-112252242D01*
X67159540Y-112252242D02*
X67152995Y-112314714D01*
X66898908Y-112786199D02*
X66918543Y-112780861D01*
X66740288Y-112364661D02*
X66725750Y-112426787D01*
X66725750Y-112426787D02*
X66712448Y-112489209D01*
X66712448Y-112489209D02*
X66700904Y-112551968D01*
X66700904Y-112551968D02*
X66691640Y-112615106D01*
X66691640Y-112615106D02*
X66687078Y-112678656D01*
X66687078Y-112678656D02*
X66690980Y-112742208D01*
X66690980Y-112742208D02*
X66692318Y-112750627D01*
X66883958Y-111962789D02*
X66863778Y-111989766D01*
X67437995Y-112787554D02*
X67443140Y-112721637D01*
X67443140Y-112721637D02*
X67442754Y-112655466D01*
X67442754Y-112655466D02*
X67440000Y-112595339D01*
X67264428Y-112987554D02*
X67287848Y-112929029D01*
X67287848Y-112929029D02*
X67301798Y-112875107D01*
X66821043Y-112949299D02*
X66849923Y-112947266D01*
X68794505Y-112803151D02*
X68860843Y-112796049D01*
X68860843Y-112796049D02*
X68925116Y-112778312D01*
X68925116Y-112778312D02*
X68984726Y-112748705D01*
X68984726Y-112748705D02*
X68995860Y-112741251D01*
X66894895Y-111967006D02*
X66884403Y-111962786D01*
X67012890Y-112583856D02*
X67008177Y-112518414D01*
X67008177Y-112518414D02*
X67002304Y-112453052D01*
X67002304Y-112453052D02*
X66995145Y-112387817D01*
X66995145Y-112387817D02*
X66986573Y-112322753D01*
X66986573Y-112322753D02*
X66976461Y-112257908D01*
X66976461Y-112257908D02*
X66964685Y-112193327D01*
X66964685Y-112193327D02*
X66959480Y-112167579D01*
X66882395Y-112837839D02*
X66898908Y-112786199D01*
X67197630Y-113047891D02*
X67222708Y-113040861D01*
X67271588Y-111685574D02*
X67254828Y-111747435D01*
X67254828Y-111747435D02*
X67239502Y-111809703D01*
X67239502Y-111809703D02*
X67225012Y-111872184D01*
X67225012Y-111872184D02*
X67222163Y-111884689D01*
X66849923Y-112947266D02*
X66871120Y-112915366D01*
X67440000Y-112595339D02*
X67434890Y-112523369D01*
X67434890Y-112523369D02*
X67428320Y-112451534D01*
X67428320Y-112451534D02*
X67420580Y-112379811D01*
X67420580Y-112379811D02*
X67411955Y-112308176D01*
X67411955Y-112308176D02*
X67402735Y-112236602D01*
X67402735Y-112236602D02*
X67393207Y-112165067D01*
X67393207Y-112165067D02*
X67389375Y-112136459D01*
X67152995Y-112314714D02*
X67146755Y-112387673D01*
X67146755Y-112387673D02*
X67141764Y-112460728D01*
X67141764Y-112460728D02*
X67138087Y-112533856D01*
X67138087Y-112533856D02*
X67135793Y-112607038D01*
X67135793Y-112607038D02*
X67134948Y-112680252D01*
X67134948Y-112680252D02*
X67135000Y-112704661D01*
X67173985Y-113024011D02*
X67197630Y-113047891D01*
X67355678Y-112794246D02*
X67398620Y-112840079D01*
X68842265Y-112416981D02*
X68780842Y-112401910D01*
X68780842Y-112401910D02*
X68747658Y-112400366D01*
X68960260Y-112493282D02*
X68908456Y-112452024D01*
X68908456Y-112452024D02*
X68850450Y-112420302D01*
X68850450Y-112420302D02*
X68842265Y-112416981D01*
X68571875Y-112746954D02*
X68630284Y-112776446D01*
X68630284Y-112776446D02*
X68693067Y-112794766D01*
X68693067Y-112794766D02*
X68758136Y-112802802D01*
X68758136Y-112802802D02*
X68794505Y-112803151D01*
X70279740Y-111577839D02*
X70262578Y-111548934D01*
X66990938Y-112934349D02*
X67007756Y-112872139D01*
X67007756Y-112872139D02*
X67014782Y-112807812D01*
X67014782Y-112807812D02*
X67015470Y-112799246D01*
X67301798Y-112875107D02*
X67322930Y-112814042D01*
X67322930Y-112814042D02*
X67330913Y-112801382D01*
X67150650Y-112938464D02*
X67164831Y-113000722D01*
X67164831Y-113000722D02*
X67173985Y-113024011D01*
X66745183Y-112890939D02*
X66790531Y-112935785D01*
X66790531Y-112935785D02*
X66821043Y-112949299D01*
X67389375Y-112136459D02*
X67380016Y-112069019D01*
X67380016Y-112069019D02*
X67370414Y-112001623D01*
X67370414Y-112001623D02*
X67360417Y-111934288D01*
X67360417Y-111934288D02*
X67349875Y-111867030D01*
X67349875Y-111867030D02*
X67338639Y-111799865D01*
X67338639Y-111799865D02*
X67334713Y-111777501D01*
X66818803Y-112097084D02*
X66796514Y-112163140D01*
X66796514Y-112163140D02*
X66776243Y-112229867D01*
X66776243Y-112229867D02*
X66757623Y-112297097D01*
X66757623Y-112297097D02*
X66740288Y-112364661D01*
X67398620Y-112840079D02*
X67416120Y-112840079D01*
X66863778Y-111989766D02*
X66836673Y-112049352D01*
X66836673Y-112049352D02*
X66818803Y-112097084D01*
X69026745Y-112575496D02*
X68990117Y-112524290D01*
X68990117Y-112524290D02*
X68960260Y-112493282D01*
X66954793Y-112811304D02*
X66979298Y-112870432D01*
X66979298Y-112870432D02*
X66986798Y-112913804D01*
X66918543Y-112780861D02*
X66954793Y-112811304D01*
X69063568Y-112654584D02*
X69039452Y-112596624D01*
X69039452Y-112596624D02*
X69026745Y-112575496D01*
X68507605Y-112691954D02*
X68554410Y-112734804D01*
X68554410Y-112734804D02*
X68571875Y-112746954D01*
X69051173Y-112694064D02*
X69063568Y-112654584D01*
X68639923Y-112450131D02*
X68598026Y-112497601D01*
X68598026Y-112497601D02*
X68560611Y-112548776D01*
X68560611Y-112548776D02*
X68536615Y-112583516D01*
X68995860Y-112741251D02*
X69045157Y-112700898D01*
X69045157Y-112700898D02*
X69051173Y-112694064D01*
X67306485Y-111657709D02*
X67297240Y-111646434D01*
X67894010Y-112612526D02*
X67894010Y-112612526D01*
X67343958Y-112790679D02*
X67355678Y-112794246D01*
X68536615Y-112583516D02*
X68505487Y-112638050D01*
X68505487Y-112638050D02*
X68500913Y-112651799D01*
X68747658Y-112400366D02*
X68685515Y-112416244D01*
X68685515Y-112416244D02*
X68639923Y-112450131D01*
X70627890Y-113010861D02*
X70689532Y-112992154D01*
X70689532Y-112992154D02*
X70700600Y-112987891D01*
X70448283Y-113026251D02*
X70495470Y-113040314D01*
X70434688Y-112976851D02*
X70448283Y-113026251D01*
X70251850Y-111556406D02*
X70245856Y-111619595D01*
X70245856Y-111619595D02*
X70245730Y-111634272D01*
X68474923Y-113169584D02*
X68525406Y-113126803D01*
X68525406Y-113126803D02*
X68562980Y-113072729D01*
X68562980Y-113072729D02*
X68566615Y-113064637D01*
X68152448Y-112751069D02*
X68106072Y-112705939D01*
X68106072Y-112705939D02*
X68079403Y-112684924D01*
X70495365Y-112182294D02*
X70466921Y-112124400D01*
X70466921Y-112124400D02*
X70443296Y-112064343D01*
X70443296Y-112064343D02*
X70428880Y-112023804D01*
X70356380Y-112735236D02*
X70370990Y-112743361D01*
X70527370Y-112221459D02*
X70495365Y-112182294D01*
X70551798Y-112176824D02*
X70542760Y-112222344D01*
X70535755Y-112031929D02*
X70545752Y-112094994D01*
X70545752Y-112094994D02*
X70551451Y-112158564D01*
X70551451Y-112158564D02*
X70551798Y-112176824D01*
X70480755Y-111743256D02*
X70489297Y-111807010D01*
X70489297Y-111807010D02*
X70501480Y-111870125D01*
X70501480Y-111870125D02*
X70515335Y-111932951D01*
X70515335Y-111932951D02*
X70528895Y-111995835D01*
X70528895Y-111995835D02*
X70535755Y-112031929D01*
X70486875Y-111664401D02*
X70479621Y-111728351D01*
X70479621Y-111728351D02*
X70480755Y-111743256D01*
X70495470Y-113040314D02*
X70558060Y-113029126D01*
X70558060Y-113029126D02*
X70619692Y-113013032D01*
X70619692Y-113013032D02*
X70627890Y-113010861D01*
X70141328Y-112380731D02*
X70112994Y-112442455D01*
X70112994Y-112442455D02*
X70089225Y-112506083D01*
X70089225Y-112506083D02*
X70073620Y-112565781D01*
X70512658Y-111664271D02*
X70496693Y-111657031D01*
X70633908Y-111891824D02*
X70607482Y-111829106D01*
X70607482Y-111829106D02*
X70578737Y-111767441D01*
X70578737Y-111767441D02*
X70557605Y-111727294D01*
X67856068Y-112883256D02*
X67895232Y-112932843D01*
X67895232Y-112932843D02*
X67898568Y-112941356D01*
X70729845Y-112504324D02*
X70729623Y-112432556D01*
X70729623Y-112432556D02*
X70727926Y-112360774D01*
X70727926Y-112360774D02*
X70724123Y-112289097D01*
X70724123Y-112289097D02*
X70717582Y-112217647D01*
X70717582Y-112217647D02*
X70707674Y-112146545D01*
X70707674Y-112146545D02*
X70703515Y-112122944D01*
X70370990Y-112743361D02*
X70406934Y-112798001D01*
X70406934Y-112798001D02*
X70418855Y-112835834D01*
X68042475Y-113224584D02*
X68082420Y-113175245D01*
X68082420Y-113175245D02*
X68100703Y-113135444D01*
X70718568Y-112907891D02*
X70721366Y-112844875D01*
X70721366Y-112844875D02*
X70723730Y-112781832D01*
X70723730Y-112781832D02*
X70725694Y-112718771D01*
X70725694Y-112718771D02*
X70727292Y-112655698D01*
X70727292Y-112655698D02*
X70728560Y-112592622D01*
X70728560Y-112592622D02*
X70729531Y-112529550D01*
X70729531Y-112529550D02*
X70729845Y-112504324D01*
X68100703Y-113135444D02*
X68121836Y-113075588D01*
X68121836Y-113075588D02*
X68139420Y-113014602D01*
X68139420Y-113014602D02*
X68155340Y-112953112D01*
X68155340Y-112953112D02*
X68158490Y-112940809D01*
X70700600Y-112987891D02*
X70711328Y-112973386D01*
X70418855Y-112835834D02*
X70430784Y-112901335D01*
X70430784Y-112901335D02*
X70434573Y-112967956D01*
X70434573Y-112967956D02*
X70434688Y-112976851D01*
X70311640Y-112820339D02*
X70320071Y-112756731D01*
X70320071Y-112756731D02*
X70322577Y-112750521D01*
X70081197Y-112725314D02*
X70103170Y-112793135D01*
X70103170Y-112793135D02*
X70130570Y-112859037D01*
X70130570Y-112859037D02*
X70164097Y-112921932D01*
X70164097Y-112921932D02*
X70204452Y-112980731D01*
X70245730Y-111634272D02*
X70248009Y-111703847D01*
X70248009Y-111703847D02*
X70253591Y-111773253D01*
X70253591Y-111773253D02*
X70260593Y-111842576D01*
X70260593Y-111842576D02*
X70267135Y-111911901D01*
X67902605Y-113171589D02*
X67950526Y-113213390D01*
X67950526Y-113213390D02*
X67983908Y-113231719D01*
X67898568Y-112941356D02*
X67894453Y-112966459D01*
X68486433Y-112843544D02*
X68431972Y-112807252D01*
X68431972Y-112807252D02*
X68379663Y-112783074D01*
X67983908Y-113231719D02*
X68042475Y-113224584D01*
X67894010Y-112612526D02*
X67836613Y-112637325D01*
X67836613Y-112637325D02*
X67821953Y-112657371D01*
X70324923Y-112933334D02*
X70314625Y-112870038D01*
X70314625Y-112870038D02*
X70311640Y-112820339D01*
X67850053Y-113004272D02*
X67816928Y-113039531D01*
X70326250Y-113015651D02*
X70327385Y-112951246D01*
X70327385Y-112951246D02*
X70324923Y-112933334D01*
X70278515Y-113045002D02*
X70300495Y-113046669D01*
X68177995Y-112824794D02*
X68161305Y-112763150D01*
X68161305Y-112763150D02*
X68152448Y-112751069D01*
X68379663Y-112783074D02*
X68339400Y-112776616D01*
X67828203Y-113084141D02*
X67868084Y-113134992D01*
X67868084Y-113134992D02*
X67902605Y-113171589D01*
X67811563Y-112773594D02*
X67829183Y-112834361D01*
X67829183Y-112834361D02*
X67856068Y-112883256D01*
X68079403Y-112684924D02*
X68026700Y-112650079D01*
X68026700Y-112650079D02*
X67969362Y-112623923D01*
X67969362Y-112623923D02*
X67928465Y-112613986D01*
X70073620Y-112565781D02*
X70067047Y-112630850D01*
X70067047Y-112630850D02*
X70073690Y-112695965D01*
X70073690Y-112695965D02*
X70081197Y-112725314D01*
X67928465Y-112613986D02*
X67894010Y-112612526D01*
X68566615Y-113064637D02*
X68579859Y-113002377D01*
X68579859Y-113002377D02*
X68574428Y-112964454D01*
X68574428Y-112964454D02*
X68546106Y-112904567D01*
X68546106Y-112904567D02*
X68501280Y-112855397D01*
X68501280Y-112855397D02*
X68486433Y-112843544D01*
X67816928Y-113039531D02*
X67828203Y-113084141D01*
X70711328Y-112973386D02*
X70718432Y-112909942D01*
X70718432Y-112909942D02*
X70718568Y-112907891D01*
X70204452Y-112980731D02*
X70249435Y-113027585D01*
X70249435Y-113027585D02*
X70278515Y-113045002D01*
X70322577Y-112750521D02*
X70332293Y-112739481D01*
X68158490Y-112940809D02*
X68171906Y-112879673D01*
X68171906Y-112879673D02*
X68177995Y-112824794D01*
X67894453Y-112966459D02*
X67850053Y-113004272D01*
X70332293Y-112739481D02*
X70356380Y-112735236D01*
X69514533Y-112717371D02*
X69514533Y-112717371D01*
X70253985Y-112129766D02*
X70232115Y-112195057D01*
X70232115Y-112195057D02*
X70204013Y-112257875D01*
X70204013Y-112257875D02*
X70172733Y-112319379D01*
X70172733Y-112319379D02*
X70141328Y-112380731D01*
X70300495Y-113046669D02*
X70326250Y-113015651D01*
X70267135Y-111911901D02*
X70270451Y-111980322D01*
X70270451Y-111980322D02*
X70268026Y-112048798D01*
X70268026Y-112048798D02*
X70257336Y-112116423D01*
X70257336Y-112116423D02*
X70253985Y-112129766D01*
X68339400Y-112776616D02*
X68339400Y-112776616D01*
X68340963Y-113233386D02*
X68402016Y-113210624D01*
X68402016Y-113210624D02*
X68459340Y-113179731D01*
X68459340Y-113179731D02*
X68474923Y-113169584D01*
X70542760Y-112222344D02*
X70527370Y-112221459D01*
X70557605Y-111727294D02*
X70522823Y-111674723D01*
X70522823Y-111674723D02*
X70512658Y-111664271D01*
X70496693Y-111657031D02*
X70486875Y-111664401D01*
X70703515Y-112122944D02*
X70688789Y-112056553D01*
X70688789Y-112056553D02*
X70670175Y-111991148D01*
X70670175Y-111991148D02*
X70647849Y-111926923D01*
X70647849Y-111926923D02*
X70633908Y-111891824D01*
X67821953Y-112657371D02*
X67806559Y-112718115D01*
X67806559Y-112718115D02*
X67811563Y-112773594D01*
X68869350Y-111292371D02*
X68881563Y-111356748D01*
X68881563Y-111356748D02*
X68897015Y-111420365D01*
X68897015Y-111420365D02*
X68906380Y-111449116D01*
X68841693Y-111045314D02*
X68844631Y-111115244D01*
X68844631Y-111115244D02*
X68852271Y-111184819D01*
X68852271Y-111184819D02*
X68862851Y-111254052D01*
X68862851Y-111254052D02*
X68869350Y-111292371D01*
X68879845Y-110861381D02*
X68856640Y-110922148D01*
X68856640Y-110922148D02*
X68844596Y-110986142D01*
X68844596Y-110986142D02*
X68841693Y-111045314D01*
X68598413Y-111476094D02*
X68661060Y-111464378D01*
X68661060Y-111464378D02*
X68701928Y-111436381D01*
X68334063Y-111493281D02*
X68385025Y-111473987D01*
X70855208Y-111426252D02*
X70860572Y-111409741D01*
X70688230Y-111538464D02*
X70751188Y-111522080D01*
X70751188Y-111522080D02*
X70799765Y-111490939D01*
X69808697Y-111350939D02*
X69772553Y-111346824D01*
X70646173Y-111525286D02*
X70688230Y-111538464D01*
X68985470Y-110753621D02*
X68931721Y-110793279D01*
X68931721Y-110793279D02*
X68889099Y-110844548D01*
X68889099Y-110844548D02*
X68879845Y-110861381D01*
X70688125Y-111433151D02*
X70642312Y-111477857D01*
X70642312Y-111477857D02*
X70639922Y-111484246D01*
X68461225Y-110899401D02*
X68451953Y-110855339D01*
X69793750Y-111471304D02*
X69840460Y-111518790D01*
X69840460Y-111518790D02*
X69894533Y-111557953D01*
X69894533Y-111557953D02*
X69910963Y-111567684D01*
X68467788Y-110777814D02*
X68439751Y-110720188D01*
X68439751Y-110720188D02*
X68429870Y-110713021D01*
X68223178Y-111807736D02*
X68232760Y-111756849D01*
X69180573Y-110690156D02*
X69117367Y-110702909D01*
X69117367Y-110702909D02*
X69055560Y-110721175D01*
X69055560Y-110721175D02*
X68996737Y-110747262D01*
X68996737Y-110747262D02*
X68985470Y-110753621D01*
X69337970Y-110671746D02*
X69273782Y-110676903D01*
X69273782Y-110676903D02*
X69209957Y-110685611D01*
X69209957Y-110685611D02*
X69180573Y-110690156D01*
X70831327Y-111396564D02*
X70831327Y-111396564D01*
X68291095Y-110669844D02*
X68226064Y-110666033D01*
X68226064Y-110666033D02*
X68186928Y-110665732D01*
X68429870Y-110713021D02*
X68372070Y-110685533D01*
X68372070Y-110685533D02*
X68309252Y-110672028D01*
X68309252Y-110672028D02*
X68291095Y-110669844D01*
X68720783Y-110950391D02*
X68711388Y-110887888D01*
X68711388Y-110887888D02*
X68687083Y-110845419D01*
X70860572Y-111409741D02*
X70854088Y-111400131D01*
X68529480Y-111466276D02*
X68591849Y-111475985D01*
X68591849Y-111475985D02*
X68598413Y-111476094D01*
X68064115Y-111437294D02*
X68120352Y-111471130D01*
X68120352Y-111471130D02*
X68182266Y-111493095D01*
X68182266Y-111493095D02*
X68200520Y-111497396D01*
X70092448Y-111565236D02*
X70059210Y-111509984D01*
X70059210Y-111509984D02*
X70054635Y-111505107D01*
X70024088Y-111625911D02*
X70071145Y-111628699D01*
X69753803Y-111356304D02*
X69748463Y-111383179D01*
X68186928Y-111682787D02*
X68136714Y-111638388D01*
X68136714Y-111638388D02*
X68081216Y-111600748D01*
X68081216Y-111600748D02*
X68028645Y-111569896D01*
X68103048Y-110678881D02*
X68064329Y-110730746D01*
X68064329Y-110730746D02*
X68060990Y-110742476D01*
X68023283Y-111389429D02*
X68064115Y-111437294D01*
X68031640Y-110941459D02*
X68024636Y-111011307D01*
X68024636Y-111011307D02*
X68018650Y-111081295D01*
X68018650Y-111081295D02*
X68014208Y-111151396D01*
X68014208Y-111151396D02*
X68011832Y-111221585D01*
X68011832Y-111221585D02*
X68012049Y-111291835D01*
X68012049Y-111291835D02*
X68012788Y-111315261D01*
X69910963Y-111567684D02*
X69966149Y-111599512D01*
X69966149Y-111599512D02*
X70024088Y-111625911D01*
X70831327Y-111396564D02*
X70766547Y-111404525D01*
X70766547Y-111404525D02*
X70704645Y-111424402D01*
X70704645Y-111424402D02*
X70688125Y-111433151D01*
X67920990Y-111523829D02*
X67920990Y-111523829D01*
X70639922Y-111484246D02*
X70646173Y-111525286D01*
X69748463Y-111383179D02*
X69773161Y-111443566D01*
X69773161Y-111443566D02*
X69793750Y-111471304D01*
X68451953Y-110855339D02*
X68467957Y-110792780D01*
X68467957Y-110792780D02*
X68467788Y-110777814D01*
X68747448Y-111309351D02*
X68736970Y-111246013D01*
X68736970Y-111246013D02*
X68725130Y-111209271D01*
X67946640Y-111527424D02*
X67920990Y-111523829D01*
X68493568Y-110904089D02*
X68461225Y-110899401D01*
X68573308Y-110852344D02*
X68523799Y-110891092D01*
X68523799Y-110891092D02*
X68493568Y-110904089D01*
X68635783Y-110822214D02*
X68578125Y-110847731D01*
X68578125Y-110847731D02*
X68573308Y-110852344D01*
X68232760Y-111756849D02*
X68203520Y-111701220D01*
X68203520Y-111701220D02*
X68186928Y-111682787D01*
X68687083Y-110845419D02*
X68635783Y-110822214D01*
X69772553Y-111346824D02*
X69772553Y-111346824D01*
X68711408Y-111044089D02*
X68719161Y-110979793D01*
X68719161Y-110979793D02*
X68720783Y-110950391D01*
X68725130Y-111209271D02*
X68712874Y-111142817D01*
X68712874Y-111142817D02*
X68710175Y-111075237D01*
X68710175Y-111075237D02*
X68711408Y-111044089D01*
X68186928Y-110665732D02*
X68122962Y-110671087D01*
X68122962Y-110671087D02*
X68103048Y-110678881D01*
X69772553Y-111346824D02*
X69753803Y-111356304D01*
X67163385Y-111400026D02*
X67162265Y-111400261D01*
X70054635Y-111505107D02*
X70005734Y-111461452D01*
X70005734Y-111461452D02*
X69952510Y-111423068D01*
X69952510Y-111423068D02*
X69927033Y-111406719D01*
X68200520Y-111497396D02*
X68263439Y-111503940D01*
X68263439Y-111503940D02*
X68325965Y-111495773D01*
X68325965Y-111495773D02*
X68334063Y-111493281D01*
X70082760Y-111616094D02*
X70092448Y-111565236D01*
X70071145Y-111628699D02*
X70082760Y-111616094D01*
X68701928Y-111436381D02*
X68736188Y-111381756D01*
X68736188Y-111381756D02*
X68747625Y-111318004D01*
X68747625Y-111318004D02*
X68747448Y-111309351D01*
X70854088Y-111400131D02*
X70831327Y-111396564D01*
X68385025Y-111473987D02*
X68447742Y-111463270D01*
X68447742Y-111463270D02*
X68511421Y-111464150D01*
X68511421Y-111464150D02*
X68529480Y-111466276D01*
X70799765Y-111490939D02*
X70843180Y-111443917D01*
X70843180Y-111443917D02*
X70855208Y-111426252D01*
X68012788Y-111315261D02*
X68020013Y-111378173D01*
X68020013Y-111378173D02*
X68023283Y-111389429D01*
X68060990Y-110742476D02*
X68048248Y-110804075D01*
X68048248Y-110804075D02*
X68039825Y-110866410D01*
X68039825Y-110866410D02*
X68033037Y-110928966D01*
X68033037Y-110928966D02*
X68031640Y-110941459D01*
X69927033Y-111406719D02*
X69869749Y-111374776D01*
X69869749Y-111374776D02*
X69808697Y-111350939D01*
X68028645Y-111569896D02*
X67973098Y-111539035D01*
X67973098Y-111539035D02*
X67946640Y-111527424D01*
X68922788Y-111466719D02*
X68986981Y-111481570D01*
X68986981Y-111481570D02*
X69038567Y-111483126D01*
X68906380Y-111449116D02*
X68922788Y-111466719D01*
X71111980Y-111381174D02*
X71084348Y-111440899D01*
X71084348Y-111440899D02*
X71059793Y-111478776D01*
X71103958Y-111328857D02*
X71111980Y-111381174D01*
X70404688Y-110908101D02*
X70430963Y-110969062D01*
X70430963Y-110969062D02*
X70463569Y-111027119D01*
X70463569Y-111027119D02*
X70472943Y-111043646D01*
X71349245Y-106265234D02*
X71351677Y-106329643D01*
X71351677Y-106329643D02*
X71339482Y-106392819D01*
X71339482Y-106392819D02*
X71328048Y-106420394D01*
X71095938Y-106096576D02*
X71158528Y-106090398D01*
X71158528Y-106090398D02*
X71221312Y-106093677D01*
X71221312Y-106093677D02*
X71239038Y-106096689D01*
X69616380Y-105761269D02*
X69682756Y-105757869D01*
X69682756Y-105757869D02*
X69749211Y-105757399D01*
X69749211Y-105757399D02*
X69809480Y-105761046D01*
X68910183Y-105969524D02*
X68968805Y-105941890D01*
X68968805Y-105941890D02*
X69026722Y-105912814D01*
X69026722Y-105912814D02*
X69084614Y-105883664D01*
X69084614Y-105883664D02*
X69096250Y-105877946D01*
X70705730Y-109729844D02*
X70683367Y-109791173D01*
X70683367Y-109791173D02*
X70658331Y-109851455D01*
X70658331Y-109851455D02*
X70630482Y-109910471D01*
X70630482Y-109910471D02*
X70599682Y-109968004D01*
X70599682Y-109968004D02*
X70580703Y-110000131D01*
X70530833Y-106229536D02*
X70587235Y-106200946D01*
X70587235Y-106200946D02*
X70607135Y-106186034D01*
X71014270Y-111260809D02*
X71069693Y-111292977D01*
X71069693Y-111292977D02*
X71103958Y-111328857D01*
X71068490Y-108157396D02*
X71049853Y-108219884D01*
X71049853Y-108219884D02*
X71032417Y-108282705D01*
X71032417Y-108282705D02*
X71015911Y-108345775D01*
X71015911Y-108345775D02*
X71000063Y-108409009D01*
X71000063Y-108409009D02*
X70991198Y-108445184D01*
X70972215Y-106972761D02*
X71008690Y-107028835D01*
X71008690Y-107028835D02*
X71042724Y-107086373D01*
X71042724Y-107086373D02*
X71056563Y-107113986D01*
X70748125Y-111211746D02*
X70816279Y-111213384D01*
X70816279Y-111213384D02*
X70884040Y-111221550D01*
X70884040Y-111221550D02*
X70950379Y-111237080D01*
X70950379Y-111237080D02*
X71014270Y-111260809D01*
X70642058Y-111210731D02*
X70704964Y-111213718D01*
X70704964Y-111213718D02*
X70748125Y-111211746D01*
X70560390Y-111168231D02*
X70613696Y-111203519D01*
X70613696Y-111203519D02*
X70642058Y-111210731D01*
X70580703Y-110000131D02*
X70547024Y-110053401D01*
X70547024Y-110053401D02*
X70512463Y-110106044D01*
X70512463Y-110106044D02*
X70502735Y-110121146D01*
X70853202Y-109094714D02*
X70840966Y-109160439D01*
X70840966Y-109160439D02*
X70828468Y-109226134D01*
X70828468Y-109226134D02*
X70815575Y-109291761D01*
X70815575Y-109291761D02*
X70802152Y-109357282D01*
X70802152Y-109357282D02*
X70794193Y-109394661D01*
X70991198Y-108445184D02*
X70973857Y-108518007D01*
X70973857Y-108518007D02*
X70956982Y-108590932D01*
X70956982Y-108590932D02*
X70940563Y-108663962D01*
X70940563Y-108663962D02*
X70924588Y-108737101D01*
X70924588Y-108737101D02*
X70909045Y-108810351D01*
X70909045Y-108810351D02*
X70903958Y-108834794D01*
X71127058Y-107942214D02*
X71113168Y-108003406D01*
X71113168Y-108003406D02*
X71097121Y-108064071D01*
X71097121Y-108064071D02*
X71079179Y-108124210D01*
X71079179Y-108124210D02*
X71068490Y-108157396D01*
X71193855Y-106581464D02*
X71142558Y-106623435D01*
X71142558Y-106623435D02*
X71089697Y-106663411D01*
X71089697Y-106663411D02*
X71036518Y-106702991D01*
X71036518Y-106702991D02*
X70984270Y-106743776D01*
X71309975Y-106141529D02*
X71336104Y-106201122D01*
X71336104Y-106201122D02*
X71349245Y-106265234D01*
X70398438Y-106050841D02*
X70443397Y-106096936D01*
X70443397Y-106096936D02*
X70459323Y-106121561D01*
X70955390Y-106157814D02*
X70996433Y-106136396D01*
X68845938Y-105964729D02*
X68849845Y-105976554D01*
X70459323Y-106121561D02*
X70490023Y-106179043D01*
X70490023Y-106179043D02*
X70508645Y-106213364D01*
X69382370Y-105790941D02*
X69447663Y-105779105D01*
X69447663Y-105779105D02*
X69513428Y-105770063D01*
X69513428Y-105770063D02*
X69579543Y-105763695D01*
X69579543Y-105763695D02*
X69616380Y-105761269D01*
X71056563Y-107113986D02*
X71084621Y-107177420D01*
X71084621Y-107177420D02*
X71107973Y-107242647D01*
X71107973Y-107242647D02*
X71126831Y-107309331D01*
X71126831Y-107309331D02*
X71141407Y-107377135D01*
X71141407Y-107377135D02*
X71151912Y-107445723D01*
X71151912Y-107445723D02*
X71158557Y-107514759D01*
X71158557Y-107514759D02*
X71160183Y-107542424D01*
X70582370Y-110265261D02*
X70614278Y-110323729D01*
X70614278Y-110323729D02*
X70623826Y-110389885D01*
X70623826Y-110389885D02*
X70623543Y-110398776D01*
X70839140Y-106158374D02*
X70904661Y-106163281D01*
X70904661Y-106163281D02*
X70955390Y-106157814D01*
X70607135Y-106186034D02*
X70665911Y-106158567D01*
X70665911Y-106158567D02*
X70730390Y-106148669D01*
X68811120Y-105750336D02*
X68820113Y-105817671D01*
X68820113Y-105817671D02*
X68830332Y-105884806D01*
X68830332Y-105884806D02*
X68843002Y-105951474D01*
X68843002Y-105951474D02*
X68845938Y-105964729D01*
X70406250Y-110836616D02*
X70401969Y-110899336D01*
X70401969Y-110899336D02*
X70404688Y-110908101D01*
X70919010Y-106871381D02*
X70945660Y-106930076D01*
X70945660Y-106930076D02*
X70972215Y-106972761D01*
X70472163Y-110731406D02*
X70433344Y-110784997D01*
X70433344Y-110784997D02*
X70406250Y-110836616D01*
X70623543Y-110398776D02*
X70615810Y-110461546D01*
X70615810Y-110461546D02*
X70597865Y-110522236D01*
X70597865Y-110522236D02*
X70572234Y-110580218D01*
X70572234Y-110580218D02*
X70566408Y-110591434D01*
X70903958Y-108834794D02*
X70890761Y-108899675D01*
X70890761Y-108899675D02*
X70877916Y-108964627D01*
X70877916Y-108964627D02*
X70865402Y-109029642D01*
X70865402Y-109029642D02*
X70853202Y-109094714D01*
X70921355Y-106814924D02*
X70919010Y-106871381D01*
X69985703Y-105806334D02*
X70048918Y-105834237D01*
X70048918Y-105834237D02*
X70110942Y-105864779D01*
X70110942Y-105864779D02*
X70172017Y-105897266D01*
X70172017Y-105897266D02*
X70184140Y-105903936D01*
X68485078Y-105262881D02*
X68548897Y-105263424D01*
X68548897Y-105263424D02*
X68612519Y-105267226D01*
X68612519Y-105267226D02*
X68654400Y-105274484D01*
X68731485Y-105328024D02*
X68756780Y-105385944D01*
X68756780Y-105385944D02*
X68771197Y-105447711D01*
X70515990Y-110214299D02*
X70567845Y-110250084D01*
X70567845Y-110250084D02*
X70582370Y-110265261D01*
X70487787Y-110175911D02*
X70515990Y-110214299D01*
X70794193Y-109394661D02*
X70780218Y-109458166D01*
X70780218Y-109458166D02*
X70765334Y-109521491D01*
X70765334Y-109521491D02*
X70749274Y-109584523D01*
X70749274Y-109584523D02*
X70731772Y-109647153D01*
X70731772Y-109647153D02*
X70712560Y-109709271D01*
X70712560Y-109709271D02*
X70705730Y-109729844D01*
X71160183Y-107542424D02*
X71161924Y-107605252D01*
X71161924Y-107605252D02*
X71160946Y-107668071D01*
X71160946Y-107668071D02*
X71157356Y-107730797D01*
X71157356Y-107730797D02*
X71151261Y-107793343D01*
X71151261Y-107793343D02*
X71142769Y-107855625D01*
X71142769Y-107855625D02*
X71131987Y-107917558D01*
X71131987Y-107917558D02*
X71127058Y-107942214D01*
X70518020Y-106227641D02*
X70530833Y-106229536D01*
X70984270Y-106743776D02*
X70938855Y-106787130D01*
X70938855Y-106787130D02*
X70921355Y-106814924D01*
X70877423Y-111842424D02*
X70891869Y-111904232D01*
X70891869Y-111904232D02*
X70909014Y-111965346D01*
X70909014Y-111965346D02*
X70927707Y-112026040D01*
X70927707Y-112026040D02*
X70946798Y-112086589D01*
X70948360Y-111613074D02*
X70906810Y-111661941D01*
X70906810Y-111661941D02*
X70879635Y-111711121D01*
X70472943Y-111043646D02*
X70507553Y-111100735D01*
X70507553Y-111100735D02*
X70547432Y-111154200D01*
X70547432Y-111154200D02*
X70560390Y-111168231D01*
X70184140Y-105903936D02*
X70240168Y-105936959D01*
X70240168Y-105936959D02*
X70294844Y-105972201D01*
X70294844Y-105972201D02*
X70347742Y-106010036D01*
X70347742Y-106010036D02*
X70398438Y-106050841D01*
X70566408Y-110591434D02*
X70533998Y-110645833D01*
X70533998Y-110645833D02*
X70497731Y-110697794D01*
X70497731Y-110697794D02*
X70472163Y-110731406D01*
X70996433Y-106136396D02*
X71052788Y-106106131D01*
X71052788Y-106106131D02*
X71095938Y-106096576D01*
X68849845Y-105976554D02*
X68910183Y-105969524D01*
X68654400Y-105274484D02*
X68710375Y-105302731D01*
X68710375Y-105302731D02*
X68731485Y-105328024D01*
X70502735Y-110121146D02*
X70487787Y-110175911D01*
X71328048Y-106420394D02*
X71294200Y-106476933D01*
X71294200Y-106476933D02*
X71251705Y-106527333D01*
X71251705Y-106527333D02*
X71203800Y-106572840D01*
X71203800Y-106572840D02*
X71193855Y-106581464D01*
X71239038Y-106096689D02*
X71296370Y-106124828D01*
X71296370Y-106124828D02*
X71309975Y-106141529D01*
X69096250Y-105877946D02*
X69156870Y-105853124D01*
X69156870Y-105853124D02*
X69218898Y-105832103D01*
X69218898Y-105832103D02*
X69281977Y-105814231D01*
X69281977Y-105814231D02*
X69345752Y-105798856D01*
X69345752Y-105798856D02*
X69382370Y-105790941D01*
X70730390Y-106148669D02*
X70795219Y-106151355D01*
X70795219Y-106151355D02*
X70839140Y-106158374D01*
X70508645Y-106213364D02*
X70518020Y-106227641D01*
X69809480Y-105761046D02*
X69871473Y-105770694D01*
X69871473Y-105770694D02*
X69932170Y-105786609D01*
X69932170Y-105786609D02*
X69985703Y-105806334D01*
X68771197Y-105447711D02*
X68781992Y-105513632D01*
X68781992Y-105513632D02*
X68790834Y-105579829D01*
X68790834Y-105579829D02*
X68798654Y-105646162D01*
X68798654Y-105646162D02*
X68806384Y-105712490D01*
X68806384Y-105712490D02*
X68811120Y-105750336D01*
X70879635Y-111711121D02*
X70869446Y-111776478D01*
X70869446Y-111776478D02*
X70877423Y-111842424D01*
X71059793Y-111478776D02*
X71020476Y-111531170D01*
X71020476Y-111531170D02*
X70977911Y-111580950D01*
X70977911Y-111580950D02*
X70948360Y-111613074D01*
X69697813Y-112817214D02*
X69663442Y-112870660D01*
X69663442Y-112870660D02*
X69660783Y-112876669D01*
X69284870Y-113235626D02*
X69351890Y-113243815D01*
X69351890Y-113243815D02*
X69419396Y-113244790D01*
X69419396Y-113244790D02*
X69486390Y-113237308D01*
X69486390Y-113237308D02*
X69523020Y-113229039D01*
X69042033Y-113774611D02*
X69081374Y-113724571D01*
X69081374Y-113724571D02*
X69085078Y-113716174D01*
X69158828Y-112896849D02*
X69138490Y-112956471D01*
X69138490Y-112956471D02*
X69130365Y-112972161D01*
X68954140Y-113601486D02*
X68967049Y-113662788D01*
X68967049Y-113662788D02*
X68985867Y-113722437D01*
X68985867Y-113722437D02*
X68992943Y-113738906D01*
X69750808Y-113399377D02*
X69741408Y-113336749D01*
X69741408Y-113336749D02*
X69736953Y-113325861D01*
X69555158Y-113082031D02*
X69540070Y-113021248D01*
X69540070Y-113021248D02*
X69539193Y-112988204D01*
X69566198Y-113093959D02*
X69555158Y-113082031D01*
X69606563Y-113058724D02*
X69580470Y-113092396D01*
X69732943Y-112815314D02*
X69720235Y-112809064D01*
X69736953Y-113325861D02*
X69717890Y-113309481D01*
X69268360Y-113446901D02*
X69231883Y-113497786D01*
X69231883Y-113497786D02*
X69226640Y-113514714D01*
X68970313Y-113053804D02*
X69011432Y-113102439D01*
X69011432Y-113102439D02*
X69059428Y-113144376D01*
X69717890Y-113309481D02*
X69695470Y-113309481D01*
X69693908Y-113769714D02*
X69722990Y-113713228D01*
X69722990Y-113713228D02*
X69737188Y-113658594D01*
X69226640Y-113514714D02*
X69222333Y-113577981D01*
X69222333Y-113577981D02*
X69231225Y-113620679D01*
X69085078Y-113716174D02*
X69104678Y-113656798D01*
X69104678Y-113656798D02*
X69115929Y-113595223D01*
X69115929Y-113595223D02*
X69118438Y-113566459D01*
X69001980Y-112926981D02*
X68965287Y-112935339D01*
X69066458Y-112967344D02*
X69013278Y-112930987D01*
X69013278Y-112930987D02*
X69001980Y-112926981D01*
X69514533Y-112717371D02*
X69454462Y-112737966D01*
X69454462Y-112737966D02*
X69434350Y-112744611D01*
X69023515Y-113774844D02*
X69042033Y-113774611D01*
X68956145Y-113307684D02*
X68944533Y-113321849D01*
X69605338Y-113819794D02*
X69664185Y-113794051D01*
X69664185Y-113794051D02*
X69693908Y-113769714D01*
X69401668Y-113388099D02*
X69339660Y-113405775D01*
X69339660Y-113405775D02*
X69282796Y-113435417D01*
X69282796Y-113435417D02*
X69268360Y-113446901D01*
X69720235Y-112809064D02*
X69697813Y-112817214D01*
X69695470Y-113309481D02*
X69695470Y-113309481D01*
X68512760Y-113293959D02*
X68512760Y-113293959D01*
X69231225Y-113620679D02*
X69253492Y-113681098D01*
X69253492Y-113681098D02*
X69277500Y-113725079D01*
X69635783Y-113170469D02*
X69673515Y-113118978D01*
X69673515Y-113118978D02*
X69701200Y-113061243D01*
X69701200Y-113061243D02*
X69704400Y-113053361D01*
X69130365Y-112972161D02*
X69109400Y-112986877D01*
X69029663Y-113328776D02*
X68972318Y-113303231D01*
X68932500Y-113425469D02*
X68938012Y-113491786D01*
X68938012Y-113491786D02*
X68946939Y-113557730D01*
X68946939Y-113557730D02*
X68954140Y-113601486D01*
X68339400Y-112776616D02*
X68286150Y-112812130D01*
X68286150Y-112812130D02*
X68282838Y-112818099D01*
X68992943Y-113738906D02*
X69023515Y-113774844D01*
X68965287Y-112935339D02*
X68941303Y-112982294D01*
X69580470Y-113092396D02*
X69566198Y-113093959D01*
X68244923Y-113238309D02*
X68308296Y-113241313D01*
X68308296Y-113241313D02*
X68340963Y-113233386D01*
X68220833Y-113220001D02*
X68244923Y-113238309D01*
X68212475Y-113146719D02*
X68216502Y-113209156D01*
X68216502Y-113209156D02*
X68220833Y-113220001D01*
X68235338Y-112978621D02*
X68224918Y-113041411D01*
X68224918Y-113041411D02*
X68216530Y-113104516D01*
X68216530Y-113104516D02*
X68212475Y-113146719D01*
X68282838Y-112818099D02*
X68258612Y-112876216D01*
X68258612Y-112876216D02*
X68243280Y-112937400D01*
X68243280Y-112937400D02*
X68235338Y-112978621D01*
X68944533Y-113321849D02*
X68931553Y-113385913D01*
X68931553Y-113385913D02*
X68932500Y-113425469D01*
X69118438Y-113566459D02*
X69117020Y-113501863D01*
X69117020Y-113501863D02*
X69104456Y-113438519D01*
X69104456Y-113438519D02*
X69089115Y-113398256D01*
X69553908Y-112733881D02*
X69543438Y-112720626D01*
X69557163Y-112796146D02*
X69553908Y-112733881D01*
X68941303Y-112982294D02*
X68962202Y-113041618D01*
X68962202Y-113041618D02*
X68970313Y-113053804D01*
X69737188Y-113658594D02*
X69747277Y-113594361D01*
X69747277Y-113594361D02*
X69752103Y-113529532D01*
X69752103Y-113529532D02*
X69752876Y-113464430D01*
X69752876Y-113464430D02*
X69750808Y-113399377D01*
X69660783Y-112876669D02*
X69641597Y-112939124D01*
X69641597Y-112939124D02*
X69626494Y-113002823D01*
X69626494Y-113002823D02*
X69606563Y-113058724D01*
X69746668Y-112868986D02*
X69732943Y-112815314D01*
X69414037Y-113817007D02*
X69479347Y-113830047D01*
X69479347Y-113830047D02*
X69545903Y-113830887D01*
X69545903Y-113830887D02*
X69605338Y-113819794D01*
X69704400Y-113053361D02*
X69725738Y-112991663D01*
X69725738Y-112991663D02*
X69740705Y-112928078D01*
X69740705Y-112928078D02*
X69746668Y-112868986D01*
X69276510Y-112790886D02*
X69219044Y-112822773D01*
X69219044Y-112822773D02*
X69173915Y-112870457D01*
X69173915Y-112870457D02*
X69158828Y-112896849D01*
X69089115Y-113398256D02*
X69052085Y-113346924D01*
X69052085Y-113346924D02*
X69029663Y-113328776D01*
X69277500Y-113725079D02*
X69320598Y-113770644D01*
X69320598Y-113770644D02*
X69374520Y-113802906D01*
X69374520Y-113802906D02*
X69414037Y-113817007D01*
X69434350Y-112744611D02*
X69370542Y-112764321D01*
X69370542Y-112764321D02*
X69306213Y-112782507D01*
X69306213Y-112782507D02*
X69276510Y-112790886D01*
X69695470Y-113309481D02*
X69636281Y-113330468D01*
X69636281Y-113330468D02*
X69622395Y-113334689D01*
X68956145Y-113307684D02*
X68956145Y-113307684D01*
X69523020Y-113229039D02*
X69583131Y-113206706D01*
X69583131Y-113206706D02*
X69635783Y-113170469D01*
X69622395Y-113334689D02*
X69561051Y-113352523D01*
X69561051Y-113352523D02*
X69498981Y-113367769D01*
X69498981Y-113367769D02*
X69436475Y-113381173D01*
X69436475Y-113381173D02*
X69401668Y-113388099D01*
X69543438Y-112720626D02*
X69514533Y-112717371D01*
X69059428Y-113144376D02*
X69117897Y-113180999D01*
X69117897Y-113180999D02*
X69181021Y-113208775D01*
X69181021Y-113208775D02*
X69247273Y-113228225D01*
X69247273Y-113228225D02*
X69284870Y-113235626D01*
X68972318Y-113303231D02*
X68956145Y-113307684D01*
X69109400Y-112986877D02*
X69066458Y-112967344D01*
X69539193Y-112988204D02*
X69543014Y-112922013D01*
X69543014Y-112922013D02*
X69550988Y-112856119D01*
X69550988Y-112856119D02*
X69557163Y-112796146D01*
X68512760Y-113293959D02*
X68466671Y-113336784D01*
X68466671Y-113336784D02*
X68460105Y-113346511D01*
X66498230Y-107045261D02*
X66521277Y-106983689D01*
X66521277Y-106983689D02*
X66547244Y-106923278D01*
X66547244Y-106923278D02*
X66575444Y-106863862D01*
X66575444Y-106863862D02*
X66591823Y-106831224D01*
X66721198Y-106604891D02*
X66758474Y-106548029D01*
X66758474Y-106548029D02*
X66797434Y-106492277D01*
X66797434Y-106492277D02*
X66838661Y-106438215D01*
X66838661Y-106438215D02*
X66862760Y-106409126D01*
X66459740Y-107246174D02*
X66466659Y-107182482D01*
X66466659Y-107182482D02*
X66477515Y-107119309D01*
X66477515Y-107119309D02*
X66494077Y-107057418D01*
X66494077Y-107057418D02*
X66498230Y-107045261D01*
X68286433Y-113598049D02*
X68296563Y-113611877D01*
X67094323Y-106467576D02*
X67107943Y-106472596D01*
X67107943Y-106472596D02*
X67119765Y-106467464D01*
X68250053Y-113650339D02*
X68272475Y-113602059D01*
X68187970Y-113782969D02*
X68220694Y-113727701D01*
X68220694Y-113727701D02*
X68244055Y-113667671D01*
X68244055Y-113667671D02*
X68250053Y-113650339D01*
X67911408Y-113631954D02*
X67938610Y-113574416D01*
X67938610Y-113574416D02*
X67941510Y-113571276D01*
X67812475Y-113733231D02*
X67835548Y-113762786D01*
X68400078Y-113370809D02*
X68336077Y-113378061D01*
X68336077Y-113378061D02*
X68271618Y-113380281D01*
X68271618Y-113380281D02*
X68228645Y-113380286D01*
X66971068Y-106335174D02*
X67027407Y-106363204D01*
X67027407Y-106363204D02*
X67056173Y-106402994D01*
X66591823Y-106831224D02*
X66622182Y-106773503D01*
X66622182Y-106773503D02*
X66653874Y-106716506D01*
X66653874Y-106716506D02*
X66686884Y-106660285D01*
X66686884Y-106660285D02*
X66721198Y-106604891D01*
X67982163Y-113570704D02*
X67999740Y-113627474D01*
X67941510Y-113571276D02*
X67965390Y-113560001D01*
X67900130Y-113719949D02*
X67906075Y-113656377D01*
X67906075Y-113656377D02*
X67911408Y-113631954D01*
X67337840Y-105631651D02*
X67379267Y-105584187D01*
X67379267Y-105584187D02*
X67423048Y-105549666D01*
X67835548Y-113762786D02*
X67865025Y-113766356D01*
X68209010Y-105278944D02*
X68273145Y-105270123D01*
X68273145Y-105270123D02*
X68337758Y-105265484D01*
X68337758Y-105265484D02*
X68367630Y-105264109D01*
X66503698Y-108167084D02*
X66495480Y-108095943D01*
X66495480Y-108095943D02*
X66487767Y-108024729D01*
X66487767Y-108024729D02*
X66480625Y-107953446D01*
X66480625Y-107953446D02*
X66474121Y-107882097D01*
X66474121Y-107882097D02*
X66468323Y-107810684D01*
X66468323Y-107810684D02*
X66463297Y-107739210D01*
X66463297Y-107739210D02*
X66459111Y-107667679D01*
X66459111Y-107667679D02*
X66455833Y-107596094D01*
X67783230Y-113580184D02*
X67788884Y-113643593D01*
X67788884Y-113643593D02*
X67802201Y-113705700D01*
X67802201Y-113705700D02*
X67812475Y-113733231D01*
X67423048Y-105549666D02*
X67476557Y-105514344D01*
X67476557Y-105514344D02*
X67532081Y-105482385D01*
X67532081Y-105482385D02*
X67589306Y-105453548D01*
X67589306Y-105453548D02*
X67647918Y-105427596D01*
X67647918Y-105427596D02*
X67707603Y-105404292D01*
X67707603Y-105404292D02*
X67727683Y-105397071D01*
X67812578Y-113343386D02*
X67788328Y-113403756D01*
X67788328Y-113403756D02*
X67785808Y-113425599D01*
X67155000Y-106397861D02*
X67171774Y-106335816D01*
X67171774Y-106335816D02*
X67185203Y-106272891D01*
X67185203Y-106272891D02*
X67188803Y-106254861D01*
X66913073Y-109918021D02*
X66883091Y-109856778D01*
X66883091Y-109856778D02*
X66856389Y-109794023D01*
X66856389Y-109794023D02*
X66832119Y-109730270D01*
X66832119Y-109730270D02*
X66819375Y-109694611D01*
X67001303Y-110069401D02*
X66968803Y-110012221D01*
X66968803Y-110012221D02*
X66935025Y-109955869D01*
X66935025Y-109955869D02*
X66913073Y-109918021D01*
X67785808Y-113425599D02*
X67782128Y-113488299D01*
X67782128Y-113488299D02*
X67782292Y-113551176D01*
X67782292Y-113551176D02*
X67783230Y-113580184D01*
X67242005Y-105953574D02*
X67256458Y-105887683D01*
X67256458Y-105887683D02*
X67272510Y-105822159D01*
X67272510Y-105822159D02*
X67290628Y-105757200D01*
X67290628Y-105757200D02*
X67311278Y-105693004D01*
X67947658Y-113355756D02*
X67885511Y-113343672D01*
X67885511Y-113343672D02*
X67848385Y-113335574D01*
X68118100Y-105295454D02*
X68180684Y-105284629D01*
X68180684Y-105284629D02*
X68209010Y-105278944D01*
X66583778Y-108710756D02*
X66572238Y-108643042D01*
X66572238Y-108643042D02*
X66561120Y-108575254D01*
X66561120Y-108575254D02*
X66550433Y-108507395D01*
X66550433Y-108507395D02*
X66540183Y-108439466D01*
X66540183Y-108439466D02*
X66530377Y-108371468D01*
X66530377Y-108371468D02*
X66521022Y-108303404D01*
X66521022Y-108303404D02*
X66512127Y-108235275D01*
X66512127Y-108235275D02*
X66503698Y-108167084D01*
X67311278Y-105693004D02*
X67335806Y-105635291D01*
X67335806Y-105635291D02*
X67337840Y-105631651D01*
X68563073Y-113333906D02*
X68530025Y-113294844D01*
X68105600Y-113831616D02*
X68164549Y-113807410D01*
X68164549Y-113807410D02*
X68187970Y-113782969D01*
X68566953Y-113670886D02*
X68578359Y-113608654D01*
X68578359Y-113608654D02*
X68583787Y-113545607D01*
X68583787Y-113545607D02*
X68584416Y-113482254D01*
X68584416Y-113482254D02*
X68583125Y-113447112D01*
X66862760Y-106409126D02*
X66906666Y-106363928D01*
X66906666Y-106363928D02*
X66932813Y-106343874D01*
X68007005Y-113714949D02*
X68026268Y-113774909D01*
X68026268Y-113774909D02*
X68048150Y-113805626D01*
X67965390Y-113560001D02*
X67982163Y-113570704D01*
X67188803Y-106254861D02*
X67200466Y-106188991D01*
X67200466Y-106188991D02*
X67211324Y-106122962D01*
X67211324Y-106122962D02*
X67222300Y-106056936D01*
X67222300Y-106056936D02*
X67234316Y-105991074D01*
X67234316Y-105991074D02*
X67242005Y-105953574D01*
X68485078Y-105262881D02*
X68485078Y-105262881D01*
X68460990Y-113821799D02*
X68511303Y-113792241D01*
X67999740Y-113627474D02*
X68003216Y-113690494D01*
X68003216Y-113690494D02*
X68007005Y-113714949D01*
X68408230Y-113806746D02*
X68460990Y-113821799D01*
X67865025Y-113766356D02*
X67900130Y-113719949D01*
X68367630Y-105264109D02*
X68433695Y-105262845D01*
X68433695Y-105262845D02*
X68485078Y-105262881D01*
X66455833Y-107596094D02*
X66453736Y-107530496D01*
X66453736Y-107530496D02*
X66452640Y-107464859D01*
X66452640Y-107464859D02*
X66452819Y-107399212D01*
X66452819Y-107399212D02*
X66454548Y-107333587D01*
X66454548Y-107333587D02*
X66458102Y-107268014D01*
X66458102Y-107268014D02*
X66459740Y-107246174D01*
X66932813Y-106343874D02*
X66971068Y-106335174D01*
X68530025Y-113294844D02*
X68512760Y-113293959D01*
X68583125Y-113447112D02*
X68576074Y-113382594D01*
X68576074Y-113382594D02*
X68563073Y-113333906D01*
X68511303Y-113792241D02*
X68544737Y-113738944D01*
X68544737Y-113738944D02*
X68564879Y-113679009D01*
X68564879Y-113679009D02*
X68566953Y-113670886D01*
X68343750Y-113716381D02*
X68374755Y-113771196D01*
X68374755Y-113771196D02*
X68408230Y-113806746D01*
X67119765Y-106467464D02*
X67150287Y-106411814D01*
X67150287Y-106411814D02*
X67155000Y-106397861D01*
X68272475Y-113602059D02*
X68286433Y-113598049D01*
X67938385Y-105326016D02*
X68000067Y-105315146D01*
X68000067Y-105315146D02*
X68061898Y-105304864D01*
X68061898Y-105304864D02*
X68118100Y-105295454D01*
X67727683Y-105397071D02*
X67786440Y-105375596D01*
X67786440Y-105375596D02*
X67845439Y-105354762D01*
X67845439Y-105354762D02*
X67904972Y-105335583D01*
X67904972Y-105335583D02*
X67938385Y-105326016D01*
X66819375Y-109694611D02*
X66798470Y-109632027D01*
X66798470Y-109632027D02*
X66778762Y-109569068D01*
X66778762Y-109569068D02*
X66760122Y-109505787D01*
X66760122Y-109505787D02*
X66742422Y-109442233D01*
X66742422Y-109442233D02*
X66725536Y-109378460D01*
X66725536Y-109378460D02*
X66709336Y-109314518D01*
X66709336Y-109314518D02*
X66703020Y-109288906D01*
X66703020Y-109288906D02*
X66685929Y-109217091D01*
X66685929Y-109217091D02*
X66669520Y-109145129D01*
X66669520Y-109145129D02*
X66653764Y-109073029D01*
X66653764Y-109073029D02*
X66638632Y-109000798D01*
X66638632Y-109000798D02*
X66624097Y-108928447D01*
X66624097Y-108928447D02*
X66610128Y-108855983D01*
X66610128Y-108855983D02*
X66596698Y-108783416D01*
X66596698Y-108783416D02*
X66583778Y-108710756D01*
X67848385Y-113335574D02*
X67812578Y-113343386D01*
X68296563Y-113611877D02*
X68324356Y-113670059D01*
X68324356Y-113670059D02*
X68343750Y-113716381D01*
X68048150Y-113805626D02*
X68105600Y-113831616D01*
X67056173Y-106402994D02*
X67086015Y-106459140D01*
X67086015Y-106459140D02*
X67094323Y-106467576D01*
X68228645Y-113380286D02*
X68158135Y-113378010D01*
X68158135Y-113378010D02*
X68087731Y-113373168D01*
X68087731Y-113373168D02*
X68017537Y-113365752D01*
X68017537Y-113365752D02*
X67947658Y-113355756D01*
X68460105Y-113346511D02*
X68402071Y-113370433D01*
X68402071Y-113370433D02*
X68400078Y-113370809D01*
X67105600Y-110971901D02*
X67130298Y-110913816D01*
X67130298Y-110913816D02*
X67144298Y-110872969D01*
X66943515Y-111291381D02*
X66975416Y-111232238D01*
X66975416Y-111232238D02*
X67006852Y-111172845D01*
X67006852Y-111172845D02*
X67037614Y-111113112D01*
X67037614Y-111113112D02*
X67067493Y-111052948D01*
X67067493Y-111052948D02*
X67096282Y-110992261D01*
X67096282Y-110992261D02*
X67105600Y-110971901D01*
X68623413Y-113993257D02*
X68557870Y-114013602D01*
X68557870Y-114013602D02*
X68490483Y-114026839D01*
X68490483Y-114026839D02*
X68428645Y-114035626D01*
X70181588Y-113256146D02*
X70122097Y-113233934D01*
X70122097Y-113233934D02*
X70071720Y-113209299D01*
X66481953Y-112148151D02*
X66444859Y-112095856D01*
X66444859Y-112095856D02*
X66439220Y-112085366D01*
X68967082Y-114002059D02*
X68901873Y-113980777D01*
X68901873Y-113980777D02*
X68835961Y-113961754D01*
X68835961Y-113961754D02*
X68774765Y-113949844D01*
X66504583Y-112275001D02*
X66501588Y-112209897D01*
X66501588Y-112209897D02*
X66481953Y-112148151D01*
X69982265Y-113712031D02*
X69975892Y-113775238D01*
X69975892Y-113775238D02*
X69960944Y-113836899D01*
X69960944Y-113836899D02*
X69943880Y-113875679D01*
X67543645Y-113213986D02*
X67481615Y-113219454D01*
X66738490Y-111624349D02*
X66779896Y-111574859D01*
X66779896Y-111574859D02*
X66814719Y-111520252D01*
X66814719Y-111520252D02*
X66819245Y-111512919D01*
X66458178Y-112819219D02*
X66453095Y-112750217D01*
X66453095Y-112750217D02*
X66454540Y-112681041D01*
X66454540Y-112681041D02*
X66460724Y-112612050D01*
X66460724Y-112612050D02*
X66465548Y-112573934D01*
X66665443Y-111651669D02*
X66727176Y-111634449D01*
X66727176Y-111634449D02*
X66738490Y-111624349D01*
X69820182Y-113980079D02*
X69755663Y-114003951D01*
X69755663Y-114003951D02*
X69689301Y-114022084D01*
X69689301Y-114022084D02*
X69622043Y-114036795D01*
X69622043Y-114036795D02*
X69608568Y-114039531D01*
X66672135Y-113128881D02*
X66619558Y-113091085D01*
X66619558Y-113091085D02*
X66570702Y-113048432D01*
X66570702Y-113048432D02*
X66528234Y-112999715D01*
X66528234Y-112999715D02*
X66508385Y-112969584D01*
X66560028Y-111621329D02*
X66621906Y-111642046D01*
X66621906Y-111642046D02*
X66665443Y-111651669D01*
X68428645Y-114035626D02*
X68364786Y-114042649D01*
X68364786Y-114042649D02*
X68300744Y-114047854D01*
X68300744Y-114047854D02*
X68236574Y-114051352D01*
X68236574Y-114051352D02*
X68172327Y-114053252D01*
X68172327Y-114053252D02*
X68108058Y-114053664D01*
X68108058Y-114053664D02*
X68086640Y-114053491D01*
X70821850Y-113165236D02*
X70758259Y-113197892D01*
X70758259Y-113197892D02*
X70692269Y-113225330D01*
X70692269Y-113225330D02*
X70624323Y-113247525D01*
X70624323Y-113247525D02*
X70554867Y-113264456D01*
X70554867Y-113264456D02*
X70484345Y-113276101D01*
X70484345Y-113276101D02*
X70460678Y-113278804D01*
X69956823Y-113241981D02*
X69958407Y-113309744D01*
X69958407Y-113309744D02*
X69963832Y-113377334D01*
X69963832Y-113377334D02*
X69967865Y-113422344D01*
X70071720Y-113209299D02*
X70013028Y-113182880D01*
X70013028Y-113182880D02*
X69995418Y-113178959D01*
X66370833Y-111692944D02*
X66396408Y-111634486D01*
X66396408Y-111634486D02*
X66400860Y-111629481D01*
X66439220Y-112085366D02*
X66412326Y-112025504D01*
X66412326Y-112025504D02*
X66392571Y-111962955D01*
X66392571Y-111962955D02*
X66378468Y-111898790D01*
X66378468Y-111898790D02*
X66372528Y-111862839D01*
X66465548Y-112573934D02*
X66475690Y-112508757D01*
X66475690Y-112508757D02*
X66486219Y-112443570D01*
X66486219Y-112443570D02*
X66495636Y-112378245D01*
X66495636Y-112378245D02*
X66502442Y-112312652D01*
X66502442Y-112312652D02*
X66504583Y-112275001D01*
X66508385Y-112969584D02*
X66480272Y-112911192D01*
X66480272Y-112911192D02*
X66462741Y-112848807D01*
X66462741Y-112848807D02*
X66458178Y-112819219D01*
X68680078Y-113960679D02*
X68625383Y-113992613D01*
X68625383Y-113992613D02*
X68623413Y-113993257D01*
X66808100Y-113201276D02*
X66750668Y-113176023D01*
X66750668Y-113176023D02*
X66696267Y-113144842D01*
X66696267Y-113144842D02*
X66672135Y-113128881D01*
X67375548Y-113248906D02*
X67305631Y-113258992D01*
X67305631Y-113258992D02*
X67235196Y-113263786D01*
X67235196Y-113263786D02*
X67164547Y-113263956D01*
X67164547Y-113263956D02*
X67093989Y-113260169D01*
X67093989Y-113260169D02*
X67053828Y-113256486D01*
X67557918Y-113234741D02*
X67543645Y-113213986D01*
X67568855Y-113817344D02*
X67560216Y-113750358D01*
X67560216Y-113750358D02*
X67556984Y-113682896D01*
X67556984Y-113682896D02*
X67556784Y-113615320D01*
X67556784Y-113615320D02*
X67556900Y-113601824D01*
X67705938Y-113992684D02*
X67648506Y-113961304D01*
X67648506Y-113961304D02*
X67612240Y-113925651D01*
X68774765Y-113949844D02*
X68711482Y-113950146D01*
X68711482Y-113950146D02*
X68680078Y-113960679D01*
X69251850Y-114063309D02*
X69188465Y-114055796D01*
X69188465Y-114055796D02*
X69125599Y-114044735D01*
X69125599Y-114044735D02*
X69063360Y-114030420D01*
X69063360Y-114030420D02*
X69001856Y-114013145D01*
X69001856Y-114013145D02*
X68967082Y-114002059D01*
X69970885Y-113186771D02*
X69956823Y-113241981D01*
X70460678Y-113278804D02*
X70390402Y-113282832D01*
X70390402Y-113282832D02*
X70319961Y-113280980D01*
X70319961Y-113280980D02*
X70250106Y-113272375D01*
X70250106Y-113272375D02*
X70181588Y-113256146D01*
X69943880Y-113875679D02*
X69902616Y-113928082D01*
X69902616Y-113928082D02*
X69848072Y-113966855D01*
X69848072Y-113966855D02*
X69820182Y-113980079D01*
X69995418Y-113178959D02*
X69970885Y-113186771D01*
X67481615Y-113219454D02*
X67419218Y-113239238D01*
X67419218Y-113239238D02*
X67375548Y-113248906D01*
X66372528Y-111862839D02*
X66365923Y-111799218D01*
X66365923Y-111799218D02*
X66365842Y-111735273D01*
X66365842Y-111735273D02*
X66370833Y-111692944D01*
X66454610Y-111601589D02*
X66517925Y-111608935D01*
X66517925Y-111608935D02*
X66560028Y-111621329D01*
X67030965Y-110143464D02*
X67008211Y-110082741D01*
X67008211Y-110082741D02*
X67001303Y-110069401D01*
X66896770Y-110884349D02*
X66832427Y-110895640D01*
X66832427Y-110895640D02*
X66767293Y-110898430D01*
X66767293Y-110898430D02*
X66724115Y-110892814D01*
X67025495Y-110159089D02*
X67030965Y-110143464D01*
X69608568Y-114039531D02*
X69542379Y-114051162D01*
X69542379Y-114051162D02*
X69475677Y-114060013D01*
X69475677Y-114060013D02*
X69408635Y-114065607D01*
X69408635Y-114065607D02*
X69341425Y-114067466D01*
X69341425Y-114067466D02*
X69274220Y-114065112D01*
X69274220Y-114065112D02*
X69251850Y-114063309D01*
X68086640Y-114053491D02*
X68023271Y-114051664D01*
X68023271Y-114051664D02*
X67959962Y-114047825D01*
X67959962Y-114047825D02*
X67896874Y-114041271D01*
X67896874Y-114041271D02*
X67861980Y-114036199D01*
X66819245Y-111512919D02*
X66851248Y-111458076D01*
X66851248Y-111458076D02*
X66882308Y-111402686D01*
X66882308Y-111402686D02*
X66912903Y-111347027D01*
X66912903Y-111347027D02*
X66943515Y-111291381D01*
X66400860Y-111629481D02*
X66454610Y-111601589D01*
X67565600Y-113308021D02*
X67560322Y-113243672D01*
X67560322Y-113243672D02*
X67557918Y-113234741D01*
X67008543Y-110158751D02*
X67025495Y-110159089D01*
X66932918Y-110130419D02*
X66991890Y-110152983D01*
X66991890Y-110152983D02*
X67008543Y-110158751D01*
X69967865Y-113422344D02*
X69973745Y-113485569D01*
X69973745Y-113485569D02*
X69978979Y-113548879D01*
X69978979Y-113548879D02*
X69982536Y-113612269D01*
X69982536Y-113612269D02*
X69983388Y-113675733D01*
X69983388Y-113675733D02*
X69982265Y-113712031D01*
X66767840Y-110096824D02*
X66831018Y-110102118D01*
X66831018Y-110102118D02*
X66892706Y-110117248D01*
X66892706Y-110117248D02*
X66932918Y-110130419D01*
X66664870Y-110132319D02*
X66723306Y-110102757D01*
X66723306Y-110102757D02*
X66767840Y-110096824D01*
X66603750Y-110225236D02*
X66632048Y-110168663D01*
X66632048Y-110168663D02*
X66664870Y-110132319D01*
X67861980Y-114036199D02*
X67797577Y-114022377D01*
X67797577Y-114022377D02*
X67734462Y-114003321D01*
X67734462Y-114003321D02*
X67705938Y-113992684D01*
X67133360Y-110851121D02*
X67070070Y-110849011D01*
X67070070Y-110849011D02*
X67032188Y-110854349D01*
X66625833Y-110831589D02*
X66594369Y-110775284D01*
X66594369Y-110775284D02*
X66575779Y-110713386D01*
X66575779Y-110713386D02*
X66570730Y-110684011D01*
X67612240Y-113925651D02*
X67581173Y-113867406D01*
X67581173Y-113867406D02*
X67568855Y-113817344D01*
X66566720Y-110427241D02*
X66572921Y-110363161D01*
X66572921Y-110363161D02*
X66582981Y-110299574D01*
X66582981Y-110299574D02*
X66599458Y-110237414D01*
X66599458Y-110237414D02*
X66603750Y-110225236D01*
X66570730Y-110684011D02*
X66564100Y-110620046D01*
X66564100Y-110620046D02*
X66561995Y-110555792D01*
X66561995Y-110555792D02*
X66563255Y-110491454D01*
X66563255Y-110491454D02*
X66566720Y-110427241D01*
X66724115Y-110892814D02*
X66666102Y-110869219D01*
X66666102Y-110869219D02*
X66625833Y-110831589D01*
X67032188Y-110854349D02*
X66968455Y-110867102D01*
X66968455Y-110867102D02*
X66905217Y-110882361D01*
X66905217Y-110882361D02*
X66896770Y-110884349D01*
X67143855Y-110857137D02*
X67133360Y-110851121D01*
X67144298Y-110872969D02*
X67143855Y-110857137D01*
X67556900Y-113601824D02*
X67558315Y-113537552D01*
X67558315Y-113537552D02*
X67560617Y-113473284D01*
X67560617Y-113473284D02*
X67563089Y-113409017D01*
X67563089Y-113409017D02*
X67565017Y-113344748D01*
X67565017Y-113344748D02*
X67565600Y-113308021D01*
X67053828Y-113256486D02*
X66991296Y-113248042D01*
X66991296Y-113248042D02*
X66929255Y-113236322D01*
X66929255Y-113236322D02*
X66868068Y-113220881D01*
X66868068Y-113220881D02*
X66808100Y-113201276D01*
X71077423Y-112877891D02*
X71051581Y-112935107D01*
X71051581Y-112935107D02*
X71024193Y-112983204D01*
X71108645Y-112726199D02*
X71103191Y-112789233D01*
X71103191Y-112789233D02*
X71087807Y-112850582D01*
X71087807Y-112850582D02*
X71077423Y-112877891D01*
X71071380Y-112494844D02*
X71087136Y-112559001D01*
X71087136Y-112559001D02*
X71099937Y-112623864D01*
X71099937Y-112623864D02*
X71107520Y-112689448D01*
X71107520Y-112689448D02*
X71108645Y-112726199D01*
X70946798Y-112086589D02*
X70967097Y-112150093D01*
X70967097Y-112150093D02*
X70987466Y-112213602D01*
X70987466Y-112213602D02*
X71007647Y-112277185D01*
X71007647Y-112277185D02*
X71027381Y-112340909D01*
X71027381Y-112340909D02*
X71046411Y-112404846D01*
X71046411Y-112404846D02*
X71064479Y-112469063D01*
X71064479Y-112469063D02*
X71071380Y-112494844D01*
X71024193Y-112983204D02*
X70982381Y-113037636D01*
X70982381Y-113037636D02*
X70933900Y-113086143D01*
X70933900Y-113086143D02*
X70879979Y-113128689D01*
X70879979Y-113128689D02*
X70821850Y-113165236D01*
D11*
X56905450Y-109258184D02*
X56905450Y-108258184D01*
X56905450Y-108639137D02*
X57000688Y-108591518D01*
X57191164Y-108591518D01*
X57286402Y-108639137D01*
X57334021Y-108686756D01*
X57381640Y-108781994D01*
X57381640Y-109067708D01*
X57334021Y-109162946D01*
X57286402Y-109210565D01*
X57191164Y-109258184D01*
X57000688Y-109258184D01*
X56905450Y-109210565D01*
X58238783Y-108591518D02*
X58238783Y-109401042D01*
X58191164Y-109496280D01*
X58143545Y-109543899D01*
X58048307Y-109591518D01*
X57905450Y-109591518D01*
X57810212Y-109543899D01*
X58238783Y-109210565D02*
X58143545Y-109258184D01*
X57953069Y-109258184D01*
X57857831Y-109210565D01*
X57810212Y-109162946D01*
X57762593Y-109067708D01*
X57762593Y-108781994D01*
X57810212Y-108686756D01*
X57857831Y-108639137D01*
X57953069Y-108591518D01*
X58143545Y-108591518D01*
X58238783Y-108639137D01*
X58714973Y-109258184D02*
X58714973Y-108258184D01*
X58810212Y-108877232D02*
X59095926Y-109258184D01*
X59095926Y-108591518D02*
X58714973Y-108972470D01*
X59905450Y-109210565D02*
X59810212Y-109258184D01*
X59619735Y-109258184D01*
X59524497Y-109210565D01*
X59476878Y-109115327D01*
X59476878Y-108734375D01*
X59524497Y-108639137D01*
X59619735Y-108591518D01*
X59810212Y-108591518D01*
X59905450Y-108639137D01*
X59953069Y-108734375D01*
X59953069Y-108829613D01*
X59476878Y-108924851D01*
X60762593Y-109210565D02*
X60667354Y-109258184D01*
X60476878Y-109258184D01*
X60381640Y-109210565D01*
X60334021Y-109115327D01*
X60334021Y-108734375D01*
X60381640Y-108639137D01*
X60476878Y-108591518D01*
X60667354Y-108591518D01*
X60762593Y-108639137D01*
X60810212Y-108734375D01*
X60810212Y-108829613D01*
X60334021Y-108924851D01*
X61238783Y-109258184D02*
X61238783Y-108258184D01*
X61238783Y-108639137D02*
X61334021Y-108591518D01*
X61524497Y-108591518D01*
X61619735Y-108639137D01*
X61667354Y-108686756D01*
X61714973Y-108781994D01*
X61714973Y-109067708D01*
X61667354Y-109162946D01*
X61619735Y-109210565D01*
X61524497Y-109258184D01*
X61334021Y-109258184D01*
X61238783Y-109210565D01*
X62191164Y-109210565D02*
X62191164Y-109258184D01*
X62143545Y-109353423D01*
X62095926Y-109401042D01*
X63286402Y-108591518D02*
X63524497Y-109258184D01*
X63762593Y-108591518D01*
X64095926Y-108353423D02*
X64143545Y-108305804D01*
X64238783Y-108258184D01*
X64476878Y-108258184D01*
X64572116Y-108305804D01*
X64619735Y-108353423D01*
X64667354Y-108448661D01*
X64667354Y-108543899D01*
X64619735Y-108686756D01*
X64048307Y-109258184D01*
X64667354Y-109258184D01*
X56000688Y-110910565D02*
X56095926Y-110958184D01*
X56286402Y-110958184D01*
X56381640Y-110910565D01*
X56429259Y-110815327D01*
X56429259Y-110767708D01*
X56381640Y-110672470D01*
X56286402Y-110624851D01*
X56143545Y-110624851D01*
X56048307Y-110577232D01*
X56000688Y-110481994D01*
X56000688Y-110434375D01*
X56048307Y-110339137D01*
X56143545Y-110291518D01*
X56286402Y-110291518D01*
X56381640Y-110339137D01*
X57286402Y-110958184D02*
X57286402Y-110434375D01*
X57238783Y-110339137D01*
X57143545Y-110291518D01*
X56953069Y-110291518D01*
X56857831Y-110339137D01*
X57286402Y-110910565D02*
X57191164Y-110958184D01*
X56953069Y-110958184D01*
X56857831Y-110910565D01*
X56810212Y-110815327D01*
X56810212Y-110720089D01*
X56857831Y-110624851D01*
X56953069Y-110577232D01*
X57191164Y-110577232D01*
X57286402Y-110529613D01*
X58191164Y-110958184D02*
X58191164Y-109958184D01*
X58191164Y-110910565D02*
X58095926Y-110958184D01*
X57905450Y-110958184D01*
X57810212Y-110910565D01*
X57762593Y-110862946D01*
X57714973Y-110767708D01*
X57714973Y-110481994D01*
X57762593Y-110386756D01*
X57810212Y-110339137D01*
X57905450Y-110291518D01*
X58095926Y-110291518D01*
X58191164Y-110339137D01*
X59048307Y-110910565D02*
X58953069Y-110958184D01*
X58762593Y-110958184D01*
X58667354Y-110910565D01*
X58619735Y-110815327D01*
X58619735Y-110434375D01*
X58667354Y-110339137D01*
X58762593Y-110291518D01*
X58953069Y-110291518D01*
X59048307Y-110339137D01*
X59095926Y-110434375D01*
X59095926Y-110529613D01*
X58619735Y-110624851D01*
X59524497Y-110958184D02*
X59524497Y-109958184D01*
X59619735Y-110577232D02*
X59905450Y-110958184D01*
X59905450Y-110291518D02*
X59524497Y-110672470D01*
X60334021Y-110958184D02*
X60334021Y-109958184D01*
X60334021Y-110339137D02*
X60429259Y-110291518D01*
X60619735Y-110291518D01*
X60714973Y-110339137D01*
X60762593Y-110386756D01*
X60810212Y-110481994D01*
X60810212Y-110767708D01*
X60762593Y-110862946D01*
X60714973Y-110910565D01*
X60619735Y-110958184D01*
X60429259Y-110958184D01*
X60334021Y-110910565D01*
X61667354Y-110958184D02*
X61667354Y-110434375D01*
X61619735Y-110339137D01*
X61524497Y-110291518D01*
X61334021Y-110291518D01*
X61238783Y-110339137D01*
X61667354Y-110910565D02*
X61572116Y-110958184D01*
X61334021Y-110958184D01*
X61238783Y-110910565D01*
X61191164Y-110815327D01*
X61191164Y-110720089D01*
X61238783Y-110624851D01*
X61334021Y-110577232D01*
X61572116Y-110577232D01*
X61667354Y-110529613D01*
X62143545Y-110958184D02*
X62143545Y-110291518D01*
X62143545Y-110481994D02*
X62191164Y-110386756D01*
X62238783Y-110339137D01*
X62334021Y-110291518D01*
X62429259Y-110291518D01*
X62905450Y-110958184D02*
X62810212Y-110910565D01*
X62762593Y-110862946D01*
X62714973Y-110767708D01*
X62714973Y-110481994D01*
X62762593Y-110386756D01*
X62810212Y-110339137D01*
X62905450Y-110291518D01*
X63048307Y-110291518D01*
X63143545Y-110339137D01*
X63191164Y-110386756D01*
X63238783Y-110481994D01*
X63238783Y-110767708D01*
X63191164Y-110862946D01*
X63143545Y-110910565D01*
X63048307Y-110958184D01*
X62905450Y-110958184D01*
X64095926Y-110291518D02*
X64095926Y-110958184D01*
X63667354Y-110291518D02*
X63667354Y-110815327D01*
X63714973Y-110910565D01*
X63810212Y-110958184D01*
X63953069Y-110958184D01*
X64048307Y-110910565D01*
X64095926Y-110862946D01*
X65000688Y-110958184D02*
X65000688Y-109958184D01*
X65000688Y-110910565D02*
X64905450Y-110958184D01*
X64714973Y-110958184D01*
X64619735Y-110910565D01*
X64572116Y-110862946D01*
X64524497Y-110767708D01*
X64524497Y-110481994D01*
X64572116Y-110386756D01*
X64619735Y-110339137D01*
X64714973Y-110291518D01*
X64905450Y-110291518D01*
X65000688Y-110339137D01*
X65476878Y-110958184D02*
X65476878Y-110291518D01*
X65476878Y-109958184D02*
X65429259Y-110005804D01*
X65476878Y-110053423D01*
X65524497Y-110005804D01*
X65476878Y-109958184D01*
X65476878Y-110053423D01*
%TO.C,*%
D12*
%TD*%
M02*
