%TF.GenerationSoftware,KiCad,Pcbnew,(5.1.10)-1*%
%TF.CreationDate,2021-11-02T14:07:56-07:00*%
%TF.ProjectId,babykeeb,62616279-6b65-4656-922e-6b696361645f,rev?*%
%TF.SameCoordinates,Original*%
%TF.FileFunction,Legend,Top*%
%TF.FilePolarity,Positive*%
%FSLAX46Y46*%
G04 Gerber Fmt 4.6, Leading zero omitted, Abs format (unit mm)*
G04 Created by KiCad (PCBNEW (5.1.10)-1) date 2021-11-02 14:07:56*
%MOMM*%
%LPD*%
G01*
G04 APERTURE LIST*
%ADD10C,0.300000*%
%ADD11C,0.120000*%
%ADD12C,0.100000*%
%ADD13C,0.150000*%
%ADD14C,0.381000*%
G04 APERTURE END LIST*
D10*
X146557478Y-60819675D02*
X145843193Y-60819675D01*
X145771764Y-61533961D01*
X145843193Y-61462532D01*
X145986050Y-61391104D01*
X146343193Y-61391104D01*
X146486050Y-61462532D01*
X146557478Y-61533961D01*
X146628907Y-61676818D01*
X146628907Y-62033961D01*
X146557478Y-62176818D01*
X146486050Y-62248246D01*
X146343193Y-62319675D01*
X145986050Y-62319675D01*
X145843193Y-62248246D01*
X145771764Y-62176818D01*
X147057478Y-60819675D02*
X147557478Y-62319675D01*
X148057478Y-60819675D01*
X145164621Y-64798246D02*
X145307478Y-64869675D01*
X145593193Y-64869675D01*
X145736050Y-64798246D01*
X145807478Y-64655389D01*
X145807478Y-64583961D01*
X145736050Y-64441104D01*
X145593193Y-64369675D01*
X145378907Y-64369675D01*
X145236050Y-64298246D01*
X145164621Y-64155389D01*
X145164621Y-64083961D01*
X145236050Y-63941104D01*
X145378907Y-63869675D01*
X145593193Y-63869675D01*
X145736050Y-63941104D01*
X147093193Y-64869675D02*
X147093193Y-63369675D01*
X147093193Y-64798246D02*
X146950335Y-64869675D01*
X146664621Y-64869675D01*
X146521764Y-64798246D01*
X146450335Y-64726818D01*
X146378907Y-64583961D01*
X146378907Y-64155389D01*
X146450335Y-64012532D01*
X146521764Y-63941104D01*
X146664621Y-63869675D01*
X146950335Y-63869675D01*
X147093193Y-63941104D01*
X148450335Y-64869675D02*
X148450335Y-64083961D01*
X148378907Y-63941104D01*
X148236050Y-63869675D01*
X147950335Y-63869675D01*
X147807478Y-63941104D01*
X148450335Y-64798246D02*
X148307478Y-64869675D01*
X147950335Y-64869675D01*
X147807478Y-64798246D01*
X147736050Y-64655389D01*
X147736050Y-64512532D01*
X147807478Y-64369675D01*
X147950335Y-64298246D01*
X148307478Y-64298246D01*
X148450335Y-64226818D01*
X145486050Y-67348246D02*
X145628907Y-67419675D01*
X145914621Y-67419675D01*
X146057478Y-67348246D01*
X146128907Y-67205389D01*
X146128907Y-67133961D01*
X146057478Y-66991104D01*
X145914621Y-66919675D01*
X145700335Y-66919675D01*
X145557478Y-66848246D01*
X145486050Y-66705389D01*
X145486050Y-66633961D01*
X145557478Y-66491104D01*
X145700335Y-66419675D01*
X145914621Y-66419675D01*
X146057478Y-66491104D01*
X147414621Y-67348246D02*
X147271764Y-67419675D01*
X146986050Y-67419675D01*
X146843193Y-67348246D01*
X146771764Y-67276818D01*
X146700335Y-67133961D01*
X146700335Y-66705389D01*
X146771764Y-66562532D01*
X146843193Y-66491104D01*
X146986050Y-66419675D01*
X147271764Y-66419675D01*
X147414621Y-66491104D01*
X148271764Y-67419675D02*
X148128907Y-67348246D01*
X148057478Y-67205389D01*
X148057478Y-65919675D01*
X146343193Y-68469675D02*
X147343193Y-69969675D01*
X147343193Y-68469675D02*
X146343193Y-69969675D01*
X145807478Y-71519675D02*
X145807478Y-72733961D01*
X145736050Y-72876818D01*
X145664621Y-72948246D01*
X145521764Y-73019675D01*
X145307478Y-73019675D01*
X145164621Y-72948246D01*
X145807478Y-72448246D02*
X145664621Y-72519675D01*
X145378907Y-72519675D01*
X145236050Y-72448246D01*
X145164621Y-72376818D01*
X145093193Y-72233961D01*
X145093193Y-71805389D01*
X145164621Y-71662532D01*
X145236050Y-71591104D01*
X145378907Y-71519675D01*
X145664621Y-71519675D01*
X145807478Y-71591104D01*
X146521764Y-71519675D02*
X146521764Y-72519675D01*
X146521764Y-71662532D02*
X146593193Y-71591104D01*
X146736050Y-71519675D01*
X146950335Y-71519675D01*
X147093193Y-71591104D01*
X147164621Y-71733961D01*
X147164621Y-72519675D01*
X148521764Y-72519675D02*
X148521764Y-71019675D01*
X148521764Y-72448246D02*
X148378907Y-72519675D01*
X148093193Y-72519675D01*
X147950335Y-72448246D01*
X147878907Y-72376818D01*
X147807478Y-72233961D01*
X147807478Y-71805389D01*
X147878907Y-71662532D01*
X147950335Y-71591104D01*
X148093193Y-71519675D01*
X148378907Y-71519675D01*
X148521764Y-71591104D01*
D11*
%TO.C,SW7*%
X83241593Y-104693404D02*
X83241593Y-103693404D01*
X82741593Y-104193404D02*
X83741593Y-104193404D01*
X86741593Y-98093404D02*
X89141593Y-98093404D01*
X81941593Y-98093404D02*
X84541593Y-98093404D01*
X77341593Y-98093404D02*
X79741593Y-98093404D01*
X79141593Y-111393404D02*
X79441593Y-111693404D01*
X79141593Y-111993404D02*
X79141593Y-111393404D01*
X79441593Y-111693404D02*
X79141593Y-111993404D01*
X77341593Y-110293404D02*
X89141593Y-110293404D01*
X77341593Y-106193404D02*
X77341593Y-110293404D01*
X89141593Y-106193404D02*
X89141593Y-110293404D01*
X89141593Y-98093404D02*
X89141593Y-102193404D01*
X77341593Y-102193404D02*
X77341593Y-98093404D01*
X86241593Y-104193404D02*
G75*
G03*
X86241593Y-104193404I-3000000J0D01*
G01*
D12*
%TO.C,D73*%
G36*
X152274306Y-106799110D02*
G01*
X151736401Y-105645569D01*
X152582124Y-105953387D01*
X152274306Y-106799110D01*
G37*
X152274306Y-106799110D02*
X151736401Y-105645569D01*
X152582124Y-105953387D01*
X152274306Y-106799110D01*
%TO.C,D72*%
G36*
X103197586Y-72446488D02*
G01*
X102297586Y-71546488D01*
X103197586Y-71546488D01*
X103197586Y-72446488D01*
G37*
X103197586Y-72446488D02*
X102297586Y-71546488D01*
X103197586Y-71546488D01*
X103197586Y-72446488D01*
%TO.C,D71*%
G36*
X131155647Y-100382448D02*
G01*
X130425604Y-99339838D01*
X131311931Y-99496121D01*
X131155647Y-100382448D01*
G37*
X131155647Y-100382448D02*
X130425604Y-99339838D01*
X131311931Y-99496121D01*
X131155647Y-100382448D01*
%TO.C,D70*%
G36*
X103197587Y-53446488D02*
G01*
X102297587Y-52546488D01*
X103197587Y-52546488D01*
X103197587Y-53446488D01*
G37*
X103197587Y-53446488D02*
X102297587Y-52546488D01*
X103197587Y-52546488D01*
X103197587Y-53446488D01*
%TO.C,D69*%
G36*
X103197587Y-34446489D02*
G01*
X102297587Y-33546489D01*
X103197587Y-33546489D01*
X103197587Y-34446489D01*
G37*
X103197587Y-34446489D02*
X102297587Y-33546489D01*
X103197587Y-33546489D01*
X103197587Y-34446489D01*
%TO.C,D68*%
G36*
X109278593Y-97634405D02*
G01*
X108378593Y-96734405D01*
X109278593Y-96734405D01*
X109278593Y-97634405D01*
G37*
X109278593Y-97634405D02*
X108378593Y-96734405D01*
X109278593Y-96734405D01*
X109278593Y-97634405D01*
%TO.C,D67*%
G36*
X84197588Y-39446489D02*
G01*
X83297588Y-38546489D01*
X84197588Y-38546489D01*
X84197588Y-39446489D01*
G37*
X84197588Y-39446489D02*
X83297588Y-38546489D01*
X84197588Y-38546489D01*
X84197588Y-39446489D01*
%TO.C,D66*%
G36*
X141197585Y-79946488D02*
G01*
X140297585Y-79046488D01*
X141197585Y-79046488D01*
X141197585Y-79946488D01*
G37*
X141197585Y-79946488D02*
X140297585Y-79046488D01*
X141197585Y-79046488D01*
X141197585Y-79946488D01*
%TO.C,D65*%
G36*
X84197588Y-58446488D02*
G01*
X83297588Y-57546488D01*
X84197588Y-57546488D01*
X84197588Y-58446488D01*
G37*
X84197588Y-58446488D02*
X83297588Y-57546488D01*
X84197588Y-57546488D01*
X84197588Y-58446488D01*
%TO.C,D64*%
G36*
X141197585Y-60946489D02*
G01*
X140297585Y-60046489D01*
X141197585Y-60046489D01*
X141197585Y-60946489D01*
G37*
X141197585Y-60946489D02*
X140297585Y-60046489D01*
X141197585Y-60046489D01*
X141197585Y-60946489D01*
%TO.C,D63*%
G36*
X84197587Y-77446487D02*
G01*
X83297587Y-76546487D01*
X84197587Y-76546487D01*
X84197587Y-77446487D01*
G37*
X84197587Y-77446487D02*
X83297587Y-76546487D01*
X84197587Y-76546487D01*
X84197587Y-77446487D01*
%TO.C,D62*%
G36*
X141197585Y-41946490D02*
G01*
X140297585Y-41046490D01*
X141197585Y-41046490D01*
X141197585Y-41946490D01*
G37*
X141197585Y-41946490D02*
X140297585Y-41046490D01*
X141197585Y-41046490D01*
X141197585Y-41946490D01*
%TO.C,D61*%
G36*
X122197586Y-39446489D02*
G01*
X121297586Y-38546489D01*
X122197586Y-38546489D01*
X122197586Y-39446489D01*
G37*
X122197586Y-39446489D02*
X121297586Y-38546489D01*
X122197586Y-38546489D01*
X122197586Y-39446489D01*
%TO.C,D58*%
G36*
X65197588Y-89946486D02*
G01*
X64297588Y-89046486D01*
X65197588Y-89046486D01*
X65197588Y-89946486D01*
G37*
X65197588Y-89946486D02*
X64297588Y-89046486D01*
X65197588Y-89046486D01*
X65197588Y-89946486D01*
%TO.C,D44*%
G36*
X122197586Y-58446488D02*
G01*
X121297586Y-57546488D01*
X122197586Y-57546488D01*
X122197586Y-58446488D01*
G37*
X122197586Y-58446488D02*
X121297586Y-57546488D01*
X122197586Y-57546488D01*
X122197586Y-58446488D01*
%TO.C,D40*%
G36*
X65197589Y-70946487D02*
G01*
X64297589Y-70046487D01*
X65197589Y-70046487D01*
X65197589Y-70946487D01*
G37*
X65197589Y-70946487D02*
X64297589Y-70046487D01*
X65197589Y-70046487D01*
X65197589Y-70946487D01*
%TO.C,D39*%
G36*
X122197586Y-77446488D02*
G01*
X121297586Y-76546488D01*
X122197586Y-76546488D01*
X122197586Y-77446488D01*
G37*
X122197586Y-77446488D02*
X121297586Y-76546488D01*
X122197586Y-76546488D01*
X122197586Y-77446488D01*
%TO.C,D38*%
G36*
X65197589Y-51946488D02*
G01*
X64297589Y-51046488D01*
X65197589Y-51046488D01*
X65197589Y-51946488D01*
G37*
X65197589Y-51946488D02*
X64297589Y-51046488D01*
X65197589Y-51046488D01*
X65197589Y-51946488D01*
D11*
%TO.C,D37*%
X71192593Y-112158404D02*
X73192593Y-112158404D01*
X73192593Y-112158404D02*
X73192593Y-108258404D01*
X71192593Y-112158404D02*
X71192593Y-108258404D01*
%TO.C,SW42*%
X83741593Y-104193404D02*
X82741593Y-104193404D01*
X83241593Y-104693404D02*
X83241593Y-103693404D01*
X77141593Y-100693404D02*
X77141593Y-98293404D01*
X77141593Y-105493404D02*
X77141593Y-102893404D01*
X77141593Y-110093404D02*
X77141593Y-107693404D01*
X90441593Y-108293404D02*
X90741593Y-107993404D01*
X91041593Y-108293404D02*
X90441593Y-108293404D01*
X90741593Y-107993404D02*
X91041593Y-108293404D01*
X89341593Y-110093404D02*
X89341593Y-98293404D01*
X85241593Y-110093404D02*
X89341593Y-110093404D01*
X85241593Y-98293404D02*
X89341593Y-98293404D01*
X77141593Y-98293404D02*
X81241593Y-98293404D01*
X81241593Y-110093404D02*
X77141593Y-110093404D01*
X86241593Y-104193404D02*
G75*
G03*
X86241593Y-104193404I-3000000J0D01*
G01*
%TO.C,D36*%
X142556305Y-117279666D02*
X141872264Y-119159051D01*
X141872264Y-119159051D02*
X145537066Y-120492930D01*
X142556305Y-117279666D02*
X146221106Y-118613545D01*
%TO.C,D33*%
X135157093Y-93693804D02*
X135157093Y-95693804D01*
X135157093Y-95693804D02*
X139057093Y-95693804D01*
X135157093Y-93693804D02*
X139057093Y-93693804D01*
%TO.C,D32*%
X134877693Y-74694604D02*
X134877693Y-76694604D01*
X134877693Y-76694604D02*
X138777693Y-76694604D01*
X134877693Y-74694604D02*
X138777693Y-74694604D01*
%TO.C,D31*%
X134852293Y-55733504D02*
X134852293Y-57733504D01*
X134852293Y-57733504D02*
X138752293Y-57733504D01*
X134852293Y-55733504D02*
X138752293Y-55733504D01*
%TO.C,D30*%
X132285077Y-113207873D02*
X134254692Y-113555170D01*
X134254692Y-113555170D02*
X134931920Y-109714419D01*
X132285077Y-113207873D02*
X132962305Y-109367123D01*
%TO.C,D29*%
X125739093Y-89996904D02*
X127739093Y-89996904D01*
X127739093Y-89996904D02*
X127739093Y-86096904D01*
X125739093Y-89996904D02*
X125739093Y-86096904D01*
%TO.C,D28*%
X125802593Y-71048504D02*
X127802593Y-71048504D01*
X127802593Y-71048504D02*
X127802593Y-67148504D01*
X125802593Y-71048504D02*
X125802593Y-67148504D01*
%TO.C,D27*%
X125726393Y-52760504D02*
X127726393Y-52760504D01*
X127726393Y-52760504D02*
X127726393Y-48860504D01*
X125726393Y-52760504D02*
X125726393Y-48860504D01*
%TO.C,D26*%
X103622993Y-111118204D02*
X103622993Y-113118204D01*
X103622993Y-113118204D02*
X107522993Y-113118204D01*
X103622993Y-111118204D02*
X107522993Y-111118204D01*
%TO.C,D20*%
X106752593Y-84967704D02*
X108752593Y-84967704D01*
X108752593Y-84967704D02*
X108752593Y-81067704D01*
X106752593Y-84967704D02*
X106752593Y-81067704D01*
%TO.C,D19*%
X97031693Y-67201604D02*
X97031693Y-69201604D01*
X97031693Y-69201604D02*
X100931693Y-69201604D01*
X97031693Y-67201604D02*
X100931693Y-67201604D01*
%TO.C,D18*%
X96726893Y-48100804D02*
X96726893Y-50100804D01*
X96726893Y-50100804D02*
X100626893Y-50100804D01*
X96726893Y-48100804D02*
X100626893Y-48100804D01*
%TO.C,D17*%
X87613693Y-89971504D02*
X89613693Y-89971504D01*
X89613693Y-89971504D02*
X89613693Y-86071504D01*
X87613693Y-89971504D02*
X87613693Y-86071504D01*
%TO.C,D16*%
X87677193Y-70959604D02*
X89677193Y-70959604D01*
X89677193Y-70959604D02*
X89677193Y-67059604D01*
X87677193Y-70959604D02*
X87677193Y-67059604D01*
%TO.C,D10*%
X86418693Y-55168104D02*
X86418693Y-53168104D01*
X86418693Y-53168104D02*
X82518693Y-53168104D01*
X86418693Y-55168104D02*
X82518693Y-55168104D01*
%TO.C,D9*%
X68779593Y-102519104D02*
X70779593Y-102519104D01*
X70779593Y-102519104D02*
X70779593Y-98619104D01*
X68779593Y-102519104D02*
X68779593Y-98619104D01*
%TO.C,D8*%
X68677993Y-83469104D02*
X70677993Y-83469104D01*
X70677993Y-83469104D02*
X70677993Y-79569104D01*
X68677993Y-83469104D02*
X68677993Y-79569104D01*
%TO.C,D7*%
X68665293Y-64457204D02*
X70665293Y-64457204D01*
X70665293Y-64457204D02*
X70665293Y-60557204D01*
X68665293Y-64457204D02*
X68665293Y-60557204D01*
D13*
%TO.C,SW35*%
X150773842Y-119108253D02*
X150431822Y-120047945D01*
X150431822Y-120047945D02*
X149492130Y-119705925D01*
X154280412Y-106550229D02*
X155220104Y-106892249D01*
X141722388Y-103043659D02*
X142064408Y-102103967D01*
X142064408Y-102103967D02*
X143004100Y-102445987D01*
X137276126Y-115259663D02*
X137618146Y-114319971D01*
X138215818Y-115601683D02*
X137276126Y-115259663D01*
X155220104Y-106892249D02*
X154878084Y-107831941D01*
%TO.C,SW34*%
X131815439Y-112765140D02*
X131641791Y-113749948D01*
X131641791Y-113749948D02*
X130656983Y-113576299D01*
X133088058Y-99788991D02*
X134072866Y-99962639D01*
X120111909Y-98516372D02*
X120285557Y-97531564D01*
X120285557Y-97531564D02*
X121270365Y-97705213D01*
X117854482Y-111318873D02*
X118028131Y-110334065D01*
X118839290Y-111492521D02*
X117854482Y-111318873D01*
X134072866Y-99962639D02*
X133899217Y-100947447D01*
%TO.C,SW25*%
X143997585Y-92026487D02*
X143997585Y-93026487D01*
X143997585Y-93026487D02*
X142997585Y-93026487D01*
X142997585Y-79026487D02*
X143997585Y-79026487D01*
X129997585Y-80026487D02*
X129997585Y-79026487D01*
X129997585Y-79026487D02*
X130997585Y-79026487D01*
X129997585Y-93026487D02*
X129997585Y-92026487D01*
X130997585Y-93026487D02*
X129997585Y-93026487D01*
X143997585Y-79026487D02*
X143997585Y-80026487D01*
%TO.C,SW24*%
X124997586Y-89526487D02*
X124997586Y-90526487D01*
X124997586Y-90526487D02*
X123997586Y-90526487D01*
X123997586Y-76526487D02*
X124997586Y-76526487D01*
X110997586Y-77526487D02*
X110997586Y-76526487D01*
X110997586Y-76526487D02*
X111997586Y-76526487D01*
X110997586Y-90526487D02*
X110997586Y-89526487D01*
X111997586Y-90526487D02*
X110997586Y-90526487D01*
X124997586Y-76526487D02*
X124997586Y-77526487D01*
%TO.C,SW23*%
X105997586Y-84526487D02*
X105997586Y-85526487D01*
X105997586Y-85526487D02*
X104997586Y-85526487D01*
X104997586Y-71526487D02*
X105997586Y-71526487D01*
X91997586Y-72526487D02*
X91997586Y-71526487D01*
X91997586Y-71526487D02*
X92997586Y-71526487D01*
X91997586Y-85526487D02*
X91997586Y-84526487D01*
X92997586Y-85526487D02*
X91997586Y-85526487D01*
X105997586Y-71526487D02*
X105997586Y-72526487D01*
%TO.C,SW22*%
X86997587Y-89526486D02*
X86997587Y-90526486D01*
X86997587Y-90526486D02*
X85997587Y-90526486D01*
X85997587Y-76526486D02*
X86997587Y-76526486D01*
X72997587Y-77526486D02*
X72997587Y-76526486D01*
X72997587Y-76526486D02*
X73997587Y-76526486D01*
X72997587Y-90526486D02*
X72997587Y-89526486D01*
X73997587Y-90526486D02*
X72997587Y-90526486D01*
X86997587Y-76526486D02*
X86997587Y-77526486D01*
%TO.C,SW21*%
X67997588Y-102026485D02*
X67997588Y-103026485D01*
X67997588Y-103026485D02*
X66997588Y-103026485D01*
X66997588Y-89026485D02*
X67997588Y-89026485D01*
X53997588Y-90026485D02*
X53997588Y-89026485D01*
X53997588Y-89026485D02*
X54997588Y-89026485D01*
X53997588Y-103026485D02*
X53997588Y-102026485D01*
X54997588Y-103026485D02*
X53997588Y-103026485D01*
X67997588Y-89026485D02*
X67997588Y-90026485D01*
%TO.C,SW15*%
X143997585Y-73026488D02*
X143997585Y-74026488D01*
X143997585Y-74026488D02*
X142997585Y-74026488D01*
X142997585Y-60026488D02*
X143997585Y-60026488D01*
X129997585Y-61026488D02*
X129997585Y-60026488D01*
X129997585Y-60026488D02*
X130997585Y-60026488D01*
X129997585Y-74026488D02*
X129997585Y-73026488D01*
X130997585Y-74026488D02*
X129997585Y-74026488D01*
X143997585Y-60026488D02*
X143997585Y-61026488D01*
%TO.C,SW14*%
X124997586Y-70526487D02*
X124997586Y-71526487D01*
X124997586Y-71526487D02*
X123997586Y-71526487D01*
X123997586Y-57526487D02*
X124997586Y-57526487D01*
X110997586Y-58526487D02*
X110997586Y-57526487D01*
X110997586Y-57526487D02*
X111997586Y-57526487D01*
X110997586Y-71526487D02*
X110997586Y-70526487D01*
X111997586Y-71526487D02*
X110997586Y-71526487D01*
X124997586Y-57526487D02*
X124997586Y-58526487D01*
%TO.C,SW13*%
X105997587Y-65526487D02*
X105997587Y-66526487D01*
X105997587Y-66526487D02*
X104997587Y-66526487D01*
X104997587Y-52526487D02*
X105997587Y-52526487D01*
X91997587Y-53526487D02*
X91997587Y-52526487D01*
X91997587Y-52526487D02*
X92997587Y-52526487D01*
X91997587Y-66526487D02*
X91997587Y-65526487D01*
X92997587Y-66526487D02*
X91997587Y-66526487D01*
X105997587Y-52526487D02*
X105997587Y-53526487D01*
%TO.C,SW12*%
X86997588Y-70526487D02*
X86997588Y-71526487D01*
X86997588Y-71526487D02*
X85997588Y-71526487D01*
X85997588Y-57526487D02*
X86997588Y-57526487D01*
X72997588Y-58526487D02*
X72997588Y-57526487D01*
X72997588Y-57526487D02*
X73997588Y-57526487D01*
X72997588Y-71526487D02*
X72997588Y-70526487D01*
X73997588Y-71526487D02*
X72997588Y-71526487D01*
X86997588Y-57526487D02*
X86997588Y-58526487D01*
%TO.C,SW11*%
X67997589Y-83026486D02*
X67997589Y-84026486D01*
X67997589Y-84026486D02*
X66997589Y-84026486D01*
X66997589Y-70026486D02*
X67997589Y-70026486D01*
X53997589Y-71026486D02*
X53997589Y-70026486D01*
X53997589Y-70026486D02*
X54997589Y-70026486D01*
X53997589Y-84026486D02*
X53997589Y-83026486D01*
X54997589Y-84026486D02*
X53997589Y-84026486D01*
X67997589Y-70026486D02*
X67997589Y-71026486D01*
%TO.C,SW6*%
X112078593Y-109714404D02*
X112078593Y-110714404D01*
X112078593Y-110714404D02*
X111078593Y-110714404D01*
X111078593Y-96714404D02*
X112078593Y-96714404D01*
X98078593Y-97714404D02*
X98078593Y-96714404D01*
X98078593Y-96714404D02*
X99078593Y-96714404D01*
X98078593Y-110714404D02*
X98078593Y-109714404D01*
X99078593Y-110714404D02*
X98078593Y-110714404D01*
X112078593Y-96714404D02*
X112078593Y-97714404D01*
%TO.C,SW5*%
X143997585Y-54026489D02*
X143997585Y-55026489D01*
X143997585Y-55026489D02*
X142997585Y-55026489D01*
X142997585Y-41026489D02*
X143997585Y-41026489D01*
X129997585Y-42026489D02*
X129997585Y-41026489D01*
X129997585Y-41026489D02*
X130997585Y-41026489D01*
X129997585Y-55026489D02*
X129997585Y-54026489D01*
X130997585Y-55026489D02*
X129997585Y-55026489D01*
X143997585Y-41026489D02*
X143997585Y-42026489D01*
%TO.C,SW4*%
X124997586Y-51526488D02*
X124997586Y-52526488D01*
X124997586Y-52526488D02*
X123997586Y-52526488D01*
X123997586Y-38526488D02*
X124997586Y-38526488D01*
X110997586Y-39526488D02*
X110997586Y-38526488D01*
X110997586Y-38526488D02*
X111997586Y-38526488D01*
X110997586Y-52526488D02*
X110997586Y-51526488D01*
X111997586Y-52526488D02*
X110997586Y-52526488D01*
X124997586Y-38526488D02*
X124997586Y-39526488D01*
%TO.C,SW3*%
X105997587Y-46526488D02*
X105997587Y-47526488D01*
X105997587Y-47526488D02*
X104997587Y-47526488D01*
X104997587Y-33526488D02*
X105997587Y-33526488D01*
X91997587Y-34526488D02*
X91997587Y-33526488D01*
X91997587Y-33526488D02*
X92997587Y-33526488D01*
X91997587Y-47526488D02*
X91997587Y-46526488D01*
X92997587Y-47526488D02*
X91997587Y-47526488D01*
X105997587Y-33526488D02*
X105997587Y-34526488D01*
%TO.C,SW2*%
X86997588Y-51526488D02*
X86997588Y-52526488D01*
X86997588Y-52526488D02*
X85997588Y-52526488D01*
X85997588Y-38526488D02*
X86997588Y-38526488D01*
X72997588Y-39526488D02*
X72997588Y-38526488D01*
X72997588Y-38526488D02*
X73997588Y-38526488D01*
X72997588Y-52526488D02*
X72997588Y-51526488D01*
X73997588Y-52526488D02*
X72997588Y-52526488D01*
X86997588Y-38526488D02*
X86997588Y-39526488D01*
%TO.C,SW1*%
X67997589Y-64026487D02*
X67997589Y-65026487D01*
X67997589Y-65026487D02*
X66997589Y-65026487D01*
X66997589Y-51026487D02*
X67997589Y-51026487D01*
X53997589Y-52026487D02*
X53997589Y-51026487D01*
X53997589Y-51026487D02*
X54997589Y-51026487D01*
X53997589Y-65026487D02*
X53997589Y-64026487D01*
X54997589Y-65026487D02*
X53997589Y-65026487D01*
X67997589Y-51026487D02*
X67997589Y-52026487D01*
D11*
%TO.C,J1*%
X148913593Y-60501404D02*
X151413593Y-60501404D01*
X151413593Y-60501404D02*
X151413593Y-60701404D01*
X148913593Y-72601404D02*
X148913593Y-60501404D01*
X151413593Y-60701404D02*
X151413593Y-72601404D01*
X151413593Y-72601404D02*
X148913593Y-72601404D01*
D13*
%TO.C,U3*%
X153093593Y-40439404D02*
X146993593Y-40439404D01*
X153093593Y-52539404D02*
X146993593Y-52539404D01*
X153093593Y-40439404D02*
X153093593Y-52539404D01*
X146993593Y-40439404D02*
X146993593Y-52539404D01*
X152843593Y-40439404D02*
X152843593Y-38439404D01*
X147243593Y-40439404D02*
X147243593Y-38439404D01*
X152843593Y-38439404D02*
X147243593Y-38439404D01*
D14*
%TO.C,U1*%
X90099593Y-33708404D02*
X90099593Y-64188404D01*
X90099593Y-64188404D02*
X107879593Y-64188404D01*
X107879593Y-64188404D02*
X107879593Y-33708404D01*
X92639593Y-33708404D02*
X92639593Y-36248404D01*
X92639593Y-36248404D02*
X90099593Y-36248404D01*
D13*
G36*
X103921161Y-39587764D02*
G01*
X103921161Y-39887764D01*
X103821161Y-39887764D01*
X103821161Y-39587764D01*
X103921161Y-39587764D01*
G37*
X103921161Y-39587764D02*
X103921161Y-39887764D01*
X103821161Y-39887764D01*
X103821161Y-39587764D01*
X103921161Y-39587764D01*
G36*
X103721161Y-39987764D02*
G01*
X103721161Y-40087764D01*
X103621161Y-40087764D01*
X103621161Y-39987764D01*
X103721161Y-39987764D01*
G37*
X103721161Y-39987764D02*
X103721161Y-40087764D01*
X103621161Y-40087764D01*
X103621161Y-39987764D01*
X103721161Y-39987764D01*
G36*
X103921161Y-39587764D02*
G01*
X103921161Y-39687764D01*
X103421161Y-39687764D01*
X103421161Y-39587764D01*
X103921161Y-39587764D01*
G37*
X103921161Y-39587764D02*
X103921161Y-39687764D01*
X103421161Y-39687764D01*
X103421161Y-39587764D01*
X103921161Y-39587764D01*
G36*
X103521161Y-39587764D02*
G01*
X103521161Y-40387764D01*
X103421161Y-40387764D01*
X103421161Y-39587764D01*
X103521161Y-39587764D01*
G37*
X103521161Y-39587764D02*
X103521161Y-40387764D01*
X103421161Y-40387764D01*
X103421161Y-39587764D01*
X103521161Y-39587764D01*
G36*
X103921161Y-40187764D02*
G01*
X103921161Y-40387764D01*
X103821161Y-40387764D01*
X103821161Y-40187764D01*
X103921161Y-40187764D01*
G37*
X103921161Y-40187764D02*
X103921161Y-40387764D01*
X103821161Y-40387764D01*
X103821161Y-40187764D01*
X103921161Y-40187764D01*
D14*
X107879593Y-33708404D02*
X107879593Y-31168404D01*
X107879593Y-31168404D02*
X90099593Y-31168404D01*
X90099593Y-31168404D02*
X90099593Y-33708404D01*
X92639593Y-33708404D02*
X90099593Y-33708404D01*
D13*
%TO.C,SW41*%
X151043593Y-92509404D02*
G75*
G03*
X151043593Y-92509404I-1000000J0D01*
G01*
X147443593Y-89909404D02*
X152643593Y-89909404D01*
X147443593Y-95109404D02*
X147443593Y-89909404D01*
X152643593Y-95109404D02*
X147443593Y-95109404D01*
X152643593Y-89909404D02*
X152643593Y-95109404D01*
D11*
%TO.C,R4*%
X149816529Y-85805404D02*
X150270657Y-85805404D01*
X149816529Y-87275404D02*
X150270657Y-87275404D01*
%TO.C,D37*%
D13*
X70644973Y-111122689D02*
X69644973Y-111122689D01*
X69644973Y-110884594D01*
X69692593Y-110741737D01*
X69787831Y-110646499D01*
X69883069Y-110598880D01*
X70073545Y-110551261D01*
X70216402Y-110551261D01*
X70406878Y-110598880D01*
X70502116Y-110646499D01*
X70597354Y-110741737D01*
X70644973Y-110884594D01*
X70644973Y-111122689D01*
X69644973Y-110217927D02*
X69644973Y-109598880D01*
X70025926Y-109932213D01*
X70025926Y-109789356D01*
X70073545Y-109694118D01*
X70121164Y-109646499D01*
X70216402Y-109598880D01*
X70454497Y-109598880D01*
X70549735Y-109646499D01*
X70597354Y-109694118D01*
X70644973Y-109789356D01*
X70644973Y-110075070D01*
X70597354Y-110170308D01*
X70549735Y-110217927D01*
X69644973Y-109265546D02*
X69644973Y-108598880D01*
X70644973Y-109027451D01*
%TO.C,D36*%
X143716854Y-117119307D02*
X144058874Y-116179615D01*
X144282610Y-116261048D01*
X144400565Y-116354655D01*
X144457487Y-116476723D01*
X144469660Y-116582504D01*
X144449261Y-116777780D01*
X144400401Y-116912022D01*
X144290507Y-117074724D01*
X144213186Y-117147932D01*
X144091119Y-117204853D01*
X143940590Y-117200741D01*
X143716854Y-117119307D01*
X144909072Y-116489062D02*
X145490786Y-116700788D01*
X145047262Y-116944760D01*
X145181504Y-116993620D01*
X145254712Y-117070940D01*
X145283172Y-117131974D01*
X145295346Y-117237756D01*
X145213913Y-117461492D01*
X145136592Y-117534700D01*
X145075558Y-117563160D01*
X144969777Y-117575334D01*
X144701294Y-117477614D01*
X144628086Y-117400294D01*
X144599625Y-117339260D01*
X146296237Y-116993948D02*
X146117248Y-116928802D01*
X146011467Y-116940976D01*
X145950433Y-116969436D01*
X145812079Y-117071105D01*
X145702185Y-117233807D01*
X145571891Y-117591785D01*
X145584065Y-117697566D01*
X145612526Y-117758600D01*
X145685734Y-117835921D01*
X145864723Y-117901068D01*
X145970504Y-117888894D01*
X146031538Y-117860433D01*
X146108858Y-117787225D01*
X146190292Y-117563489D01*
X146178118Y-117457708D01*
X146149657Y-117396674D01*
X146076449Y-117319353D01*
X145897460Y-117254207D01*
X145791679Y-117266380D01*
X145730645Y-117294841D01*
X145653325Y-117368049D01*
%TO.C,D33*%
X136192807Y-93146184D02*
X136192807Y-92146184D01*
X136430902Y-92146184D01*
X136573759Y-92193804D01*
X136668997Y-92289042D01*
X136716616Y-92384280D01*
X136764235Y-92574756D01*
X136764235Y-92717613D01*
X136716616Y-92908089D01*
X136668997Y-93003327D01*
X136573759Y-93098565D01*
X136430902Y-93146184D01*
X136192807Y-93146184D01*
X137097569Y-92146184D02*
X137716616Y-92146184D01*
X137383283Y-92527137D01*
X137526140Y-92527137D01*
X137621378Y-92574756D01*
X137668997Y-92622375D01*
X137716616Y-92717613D01*
X137716616Y-92955708D01*
X137668997Y-93050946D01*
X137621378Y-93098565D01*
X137526140Y-93146184D01*
X137240426Y-93146184D01*
X137145188Y-93098565D01*
X137097569Y-93050946D01*
X138049950Y-92146184D02*
X138668997Y-92146184D01*
X138335664Y-92527137D01*
X138478521Y-92527137D01*
X138573759Y-92574756D01*
X138621378Y-92622375D01*
X138668997Y-92717613D01*
X138668997Y-92955708D01*
X138621378Y-93050946D01*
X138573759Y-93098565D01*
X138478521Y-93146184D01*
X138192807Y-93146184D01*
X138097569Y-93098565D01*
X138049950Y-93050946D01*
%TO.C,D32*%
X135913407Y-74146984D02*
X135913407Y-73146984D01*
X136151502Y-73146984D01*
X136294359Y-73194604D01*
X136389597Y-73289842D01*
X136437216Y-73385080D01*
X136484835Y-73575556D01*
X136484835Y-73718413D01*
X136437216Y-73908889D01*
X136389597Y-74004127D01*
X136294359Y-74099365D01*
X136151502Y-74146984D01*
X135913407Y-74146984D01*
X136818169Y-73146984D02*
X137437216Y-73146984D01*
X137103883Y-73527937D01*
X137246740Y-73527937D01*
X137341978Y-73575556D01*
X137389597Y-73623175D01*
X137437216Y-73718413D01*
X137437216Y-73956508D01*
X137389597Y-74051746D01*
X137341978Y-74099365D01*
X137246740Y-74146984D01*
X136961026Y-74146984D01*
X136865788Y-74099365D01*
X136818169Y-74051746D01*
X137818169Y-73242223D02*
X137865788Y-73194604D01*
X137961026Y-73146984D01*
X138199121Y-73146984D01*
X138294359Y-73194604D01*
X138341978Y-73242223D01*
X138389597Y-73337461D01*
X138389597Y-73432699D01*
X138341978Y-73575556D01*
X137770550Y-74146984D01*
X138389597Y-74146984D01*
%TO.C,D31*%
X135888007Y-55185884D02*
X135888007Y-54185884D01*
X136126102Y-54185884D01*
X136268959Y-54233504D01*
X136364197Y-54328742D01*
X136411816Y-54423980D01*
X136459435Y-54614456D01*
X136459435Y-54757313D01*
X136411816Y-54947789D01*
X136364197Y-55043027D01*
X136268959Y-55138265D01*
X136126102Y-55185884D01*
X135888007Y-55185884D01*
X136792769Y-54185884D02*
X137411816Y-54185884D01*
X137078483Y-54566837D01*
X137221340Y-54566837D01*
X137316578Y-54614456D01*
X137364197Y-54662075D01*
X137411816Y-54757313D01*
X137411816Y-54995408D01*
X137364197Y-55090646D01*
X137316578Y-55138265D01*
X137221340Y-55185884D01*
X136935626Y-55185884D01*
X136840388Y-55138265D01*
X136792769Y-55090646D01*
X138364197Y-55185884D02*
X137792769Y-55185884D01*
X138078483Y-55185884D02*
X138078483Y-54185884D01*
X137983245Y-54328742D01*
X137888007Y-54423980D01*
X137792769Y-54471599D01*
%TO.C,D30*%
X131925626Y-112092801D02*
X130940819Y-111919152D01*
X130982163Y-111684674D01*
X131053866Y-111552257D01*
X131164195Y-111475003D01*
X131266255Y-111444646D01*
X131462107Y-111430826D01*
X131602793Y-111455633D01*
X131782107Y-111535604D01*
X131867629Y-111599038D01*
X131944882Y-111709367D01*
X131966971Y-111858323D01*
X131925626Y-112092801D01*
X131097929Y-111028136D02*
X131205425Y-110418493D01*
X131522707Y-110812914D01*
X131547514Y-110672227D01*
X131610948Y-110586705D01*
X131666112Y-110548078D01*
X131768173Y-110517721D01*
X132002651Y-110559065D01*
X132088173Y-110622499D01*
X132126799Y-110677663D01*
X132157157Y-110779724D01*
X132107543Y-111061097D01*
X132044110Y-111146620D01*
X131988945Y-111185246D01*
X131312922Y-109808850D02*
X131329460Y-109715059D01*
X131392893Y-109629537D01*
X131448058Y-109590910D01*
X131550118Y-109560552D01*
X131745969Y-109546733D01*
X131980447Y-109588077D01*
X132159761Y-109668049D01*
X132245283Y-109731482D01*
X132283910Y-109786647D01*
X132314267Y-109888707D01*
X132297730Y-109982498D01*
X132234296Y-110068021D01*
X132179131Y-110106647D01*
X132077071Y-110137005D01*
X131881220Y-110150825D01*
X131646742Y-110109480D01*
X131467428Y-110029508D01*
X131381906Y-109966075D01*
X131343279Y-109910910D01*
X131312922Y-109808850D01*
%TO.C,D29*%
X125191473Y-88961189D02*
X124191473Y-88961189D01*
X124191473Y-88723094D01*
X124239093Y-88580237D01*
X124334331Y-88484999D01*
X124429569Y-88437380D01*
X124620045Y-88389761D01*
X124762902Y-88389761D01*
X124953378Y-88437380D01*
X125048616Y-88484999D01*
X125143854Y-88580237D01*
X125191473Y-88723094D01*
X125191473Y-88961189D01*
X124286712Y-88008808D02*
X124239093Y-87961189D01*
X124191473Y-87865951D01*
X124191473Y-87627856D01*
X124239093Y-87532618D01*
X124286712Y-87484999D01*
X124381950Y-87437380D01*
X124477188Y-87437380D01*
X124620045Y-87484999D01*
X125191473Y-88056427D01*
X125191473Y-87437380D01*
X125191473Y-86961189D02*
X125191473Y-86770713D01*
X125143854Y-86675475D01*
X125096235Y-86627856D01*
X124953378Y-86532618D01*
X124762902Y-86484999D01*
X124381950Y-86484999D01*
X124286712Y-86532618D01*
X124239093Y-86580237D01*
X124191473Y-86675475D01*
X124191473Y-86865951D01*
X124239093Y-86961189D01*
X124286712Y-87008808D01*
X124381950Y-87056427D01*
X124620045Y-87056427D01*
X124715283Y-87008808D01*
X124762902Y-86961189D01*
X124810521Y-86865951D01*
X124810521Y-86675475D01*
X124762902Y-86580237D01*
X124715283Y-86532618D01*
X124620045Y-86484999D01*
%TO.C,D28*%
X125254973Y-70012789D02*
X124254973Y-70012789D01*
X124254973Y-69774694D01*
X124302593Y-69631837D01*
X124397831Y-69536599D01*
X124493069Y-69488980D01*
X124683545Y-69441361D01*
X124826402Y-69441361D01*
X125016878Y-69488980D01*
X125112116Y-69536599D01*
X125207354Y-69631837D01*
X125254973Y-69774694D01*
X125254973Y-70012789D01*
X124350212Y-69060408D02*
X124302593Y-69012789D01*
X124254973Y-68917551D01*
X124254973Y-68679456D01*
X124302593Y-68584218D01*
X124350212Y-68536599D01*
X124445450Y-68488980D01*
X124540688Y-68488980D01*
X124683545Y-68536599D01*
X125254973Y-69108027D01*
X125254973Y-68488980D01*
X124683545Y-67917551D02*
X124635926Y-68012789D01*
X124588307Y-68060408D01*
X124493069Y-68108027D01*
X124445450Y-68108027D01*
X124350212Y-68060408D01*
X124302593Y-68012789D01*
X124254973Y-67917551D01*
X124254973Y-67727075D01*
X124302593Y-67631837D01*
X124350212Y-67584218D01*
X124445450Y-67536599D01*
X124493069Y-67536599D01*
X124588307Y-67584218D01*
X124635926Y-67631837D01*
X124683545Y-67727075D01*
X124683545Y-67917551D01*
X124731164Y-68012789D01*
X124778783Y-68060408D01*
X124874021Y-68108027D01*
X125064497Y-68108027D01*
X125159735Y-68060408D01*
X125207354Y-68012789D01*
X125254973Y-67917551D01*
X125254973Y-67727075D01*
X125207354Y-67631837D01*
X125159735Y-67584218D01*
X125064497Y-67536599D01*
X124874021Y-67536599D01*
X124778783Y-67584218D01*
X124731164Y-67631837D01*
X124683545Y-67727075D01*
%TO.C,D27*%
X125178773Y-51724789D02*
X124178773Y-51724789D01*
X124178773Y-51486694D01*
X124226393Y-51343837D01*
X124321631Y-51248599D01*
X124416869Y-51200980D01*
X124607345Y-51153361D01*
X124750202Y-51153361D01*
X124940678Y-51200980D01*
X125035916Y-51248599D01*
X125131154Y-51343837D01*
X125178773Y-51486694D01*
X125178773Y-51724789D01*
X124274012Y-50772408D02*
X124226393Y-50724789D01*
X124178773Y-50629551D01*
X124178773Y-50391456D01*
X124226393Y-50296218D01*
X124274012Y-50248599D01*
X124369250Y-50200980D01*
X124464488Y-50200980D01*
X124607345Y-50248599D01*
X125178773Y-50820027D01*
X125178773Y-50200980D01*
X124178773Y-49867646D02*
X124178773Y-49200980D01*
X125178773Y-49629551D01*
%TO.C,D26*%
X104658707Y-110570584D02*
X104658707Y-109570584D01*
X104896802Y-109570584D01*
X105039659Y-109618204D01*
X105134897Y-109713442D01*
X105182516Y-109808680D01*
X105230135Y-109999156D01*
X105230135Y-110142013D01*
X105182516Y-110332489D01*
X105134897Y-110427727D01*
X105039659Y-110522965D01*
X104896802Y-110570584D01*
X104658707Y-110570584D01*
X105611088Y-109665823D02*
X105658707Y-109618204D01*
X105753945Y-109570584D01*
X105992040Y-109570584D01*
X106087278Y-109618204D01*
X106134897Y-109665823D01*
X106182516Y-109761061D01*
X106182516Y-109856299D01*
X106134897Y-109999156D01*
X105563469Y-110570584D01*
X106182516Y-110570584D01*
X107039659Y-109570584D02*
X106849183Y-109570584D01*
X106753945Y-109618204D01*
X106706326Y-109665823D01*
X106611088Y-109808680D01*
X106563469Y-109999156D01*
X106563469Y-110380108D01*
X106611088Y-110475346D01*
X106658707Y-110522965D01*
X106753945Y-110570584D01*
X106944421Y-110570584D01*
X107039659Y-110522965D01*
X107087278Y-110475346D01*
X107134897Y-110380108D01*
X107134897Y-110142013D01*
X107087278Y-110046775D01*
X107039659Y-109999156D01*
X106944421Y-109951537D01*
X106753945Y-109951537D01*
X106658707Y-109999156D01*
X106611088Y-110046775D01*
X106563469Y-110142013D01*
%TO.C,D20*%
X106204973Y-83931989D02*
X105204973Y-83931989D01*
X105204973Y-83693894D01*
X105252593Y-83551037D01*
X105347831Y-83455799D01*
X105443069Y-83408180D01*
X105633545Y-83360561D01*
X105776402Y-83360561D01*
X105966878Y-83408180D01*
X106062116Y-83455799D01*
X106157354Y-83551037D01*
X106204973Y-83693894D01*
X106204973Y-83931989D01*
X105300212Y-82979608D02*
X105252593Y-82931989D01*
X105204973Y-82836751D01*
X105204973Y-82598656D01*
X105252593Y-82503418D01*
X105300212Y-82455799D01*
X105395450Y-82408180D01*
X105490688Y-82408180D01*
X105633545Y-82455799D01*
X106204973Y-83027227D01*
X106204973Y-82408180D01*
X105204973Y-81789132D02*
X105204973Y-81693894D01*
X105252593Y-81598656D01*
X105300212Y-81551037D01*
X105395450Y-81503418D01*
X105585926Y-81455799D01*
X105824021Y-81455799D01*
X106014497Y-81503418D01*
X106109735Y-81551037D01*
X106157354Y-81598656D01*
X106204973Y-81693894D01*
X106204973Y-81789132D01*
X106157354Y-81884370D01*
X106109735Y-81931989D01*
X106014497Y-81979608D01*
X105824021Y-82027227D01*
X105585926Y-82027227D01*
X105395450Y-81979608D01*
X105300212Y-81931989D01*
X105252593Y-81884370D01*
X105204973Y-81789132D01*
%TO.C,D19*%
X98067407Y-66653984D02*
X98067407Y-65653984D01*
X98305502Y-65653984D01*
X98448359Y-65701604D01*
X98543597Y-65796842D01*
X98591216Y-65892080D01*
X98638835Y-66082556D01*
X98638835Y-66225413D01*
X98591216Y-66415889D01*
X98543597Y-66511127D01*
X98448359Y-66606365D01*
X98305502Y-66653984D01*
X98067407Y-66653984D01*
X99591216Y-66653984D02*
X99019788Y-66653984D01*
X99305502Y-66653984D02*
X99305502Y-65653984D01*
X99210264Y-65796842D01*
X99115026Y-65892080D01*
X99019788Y-65939699D01*
X100067407Y-66653984D02*
X100257883Y-66653984D01*
X100353121Y-66606365D01*
X100400740Y-66558746D01*
X100495978Y-66415889D01*
X100543597Y-66225413D01*
X100543597Y-65844461D01*
X100495978Y-65749223D01*
X100448359Y-65701604D01*
X100353121Y-65653984D01*
X100162645Y-65653984D01*
X100067407Y-65701604D01*
X100019788Y-65749223D01*
X99972169Y-65844461D01*
X99972169Y-66082556D01*
X100019788Y-66177794D01*
X100067407Y-66225413D01*
X100162645Y-66273032D01*
X100353121Y-66273032D01*
X100448359Y-66225413D01*
X100495978Y-66177794D01*
X100543597Y-66082556D01*
%TO.C,D18*%
X97762607Y-47553184D02*
X97762607Y-46553184D01*
X98000702Y-46553184D01*
X98143559Y-46600804D01*
X98238797Y-46696042D01*
X98286416Y-46791280D01*
X98334035Y-46981756D01*
X98334035Y-47124613D01*
X98286416Y-47315089D01*
X98238797Y-47410327D01*
X98143559Y-47505565D01*
X98000702Y-47553184D01*
X97762607Y-47553184D01*
X99286416Y-47553184D02*
X98714988Y-47553184D01*
X99000702Y-47553184D02*
X99000702Y-46553184D01*
X98905464Y-46696042D01*
X98810226Y-46791280D01*
X98714988Y-46838899D01*
X99857845Y-46981756D02*
X99762607Y-46934137D01*
X99714988Y-46886518D01*
X99667369Y-46791280D01*
X99667369Y-46743661D01*
X99714988Y-46648423D01*
X99762607Y-46600804D01*
X99857845Y-46553184D01*
X100048321Y-46553184D01*
X100143559Y-46600804D01*
X100191178Y-46648423D01*
X100238797Y-46743661D01*
X100238797Y-46791280D01*
X100191178Y-46886518D01*
X100143559Y-46934137D01*
X100048321Y-46981756D01*
X99857845Y-46981756D01*
X99762607Y-47029375D01*
X99714988Y-47076994D01*
X99667369Y-47172232D01*
X99667369Y-47362708D01*
X99714988Y-47457946D01*
X99762607Y-47505565D01*
X99857845Y-47553184D01*
X100048321Y-47553184D01*
X100143559Y-47505565D01*
X100191178Y-47457946D01*
X100238797Y-47362708D01*
X100238797Y-47172232D01*
X100191178Y-47076994D01*
X100143559Y-47029375D01*
X100048321Y-46981756D01*
%TO.C,D17*%
X87066073Y-88935789D02*
X86066073Y-88935789D01*
X86066073Y-88697694D01*
X86113693Y-88554837D01*
X86208931Y-88459599D01*
X86304169Y-88411980D01*
X86494645Y-88364361D01*
X86637502Y-88364361D01*
X86827978Y-88411980D01*
X86923216Y-88459599D01*
X87018454Y-88554837D01*
X87066073Y-88697694D01*
X87066073Y-88935789D01*
X87066073Y-87411980D02*
X87066073Y-87983408D01*
X87066073Y-87697694D02*
X86066073Y-87697694D01*
X86208931Y-87792932D01*
X86304169Y-87888170D01*
X86351788Y-87983408D01*
X86066073Y-87078646D02*
X86066073Y-86411980D01*
X87066073Y-86840551D01*
%TO.C,D16*%
X87129573Y-69923889D02*
X86129573Y-69923889D01*
X86129573Y-69685794D01*
X86177193Y-69542937D01*
X86272431Y-69447699D01*
X86367669Y-69400080D01*
X86558145Y-69352461D01*
X86701002Y-69352461D01*
X86891478Y-69400080D01*
X86986716Y-69447699D01*
X87081954Y-69542937D01*
X87129573Y-69685794D01*
X87129573Y-69923889D01*
X87129573Y-68400080D02*
X87129573Y-68971508D01*
X87129573Y-68685794D02*
X86129573Y-68685794D01*
X86272431Y-68781032D01*
X86367669Y-68876270D01*
X86415288Y-68971508D01*
X86129573Y-67542937D02*
X86129573Y-67733413D01*
X86177193Y-67828651D01*
X86224812Y-67876270D01*
X86367669Y-67971508D01*
X86558145Y-68019127D01*
X86939097Y-68019127D01*
X87034335Y-67971508D01*
X87081954Y-67923889D01*
X87129573Y-67828651D01*
X87129573Y-67638175D01*
X87081954Y-67542937D01*
X87034335Y-67495318D01*
X86939097Y-67447699D01*
X86701002Y-67447699D01*
X86605764Y-67495318D01*
X86558145Y-67542937D01*
X86510526Y-67638175D01*
X86510526Y-67828651D01*
X86558145Y-67923889D01*
X86605764Y-67971508D01*
X86701002Y-68019127D01*
%TO.C,D10*%
X82954407Y-56620484D02*
X82954407Y-55620484D01*
X83192502Y-55620484D01*
X83335359Y-55668104D01*
X83430597Y-55763342D01*
X83478216Y-55858580D01*
X83525835Y-56049056D01*
X83525835Y-56191913D01*
X83478216Y-56382389D01*
X83430597Y-56477627D01*
X83335359Y-56572865D01*
X83192502Y-56620484D01*
X82954407Y-56620484D01*
X84478216Y-56620484D02*
X83906788Y-56620484D01*
X84192502Y-56620484D02*
X84192502Y-55620484D01*
X84097264Y-55763342D01*
X84002026Y-55858580D01*
X83906788Y-55906199D01*
X85097264Y-55620484D02*
X85192502Y-55620484D01*
X85287740Y-55668104D01*
X85335359Y-55715723D01*
X85382978Y-55810961D01*
X85430597Y-56001437D01*
X85430597Y-56239532D01*
X85382978Y-56430008D01*
X85335359Y-56525246D01*
X85287740Y-56572865D01*
X85192502Y-56620484D01*
X85097264Y-56620484D01*
X85002026Y-56572865D01*
X84954407Y-56525246D01*
X84906788Y-56430008D01*
X84859169Y-56239532D01*
X84859169Y-56001437D01*
X84906788Y-55810961D01*
X84954407Y-55715723D01*
X85002026Y-55668104D01*
X85097264Y-55620484D01*
%TO.C,D9*%
X68231973Y-101007199D02*
X67231973Y-101007199D01*
X67231973Y-100769104D01*
X67279593Y-100626246D01*
X67374831Y-100531008D01*
X67470069Y-100483389D01*
X67660545Y-100435770D01*
X67803402Y-100435770D01*
X67993878Y-100483389D01*
X68089116Y-100531008D01*
X68184354Y-100626246D01*
X68231973Y-100769104D01*
X68231973Y-101007199D01*
X68231973Y-99959580D02*
X68231973Y-99769104D01*
X68184354Y-99673865D01*
X68136735Y-99626246D01*
X67993878Y-99531008D01*
X67803402Y-99483389D01*
X67422450Y-99483389D01*
X67327212Y-99531008D01*
X67279593Y-99578627D01*
X67231973Y-99673865D01*
X67231973Y-99864342D01*
X67279593Y-99959580D01*
X67327212Y-100007199D01*
X67422450Y-100054818D01*
X67660545Y-100054818D01*
X67755783Y-100007199D01*
X67803402Y-99959580D01*
X67851021Y-99864342D01*
X67851021Y-99673865D01*
X67803402Y-99578627D01*
X67755783Y-99531008D01*
X67660545Y-99483389D01*
%TO.C,D8*%
X68130373Y-81957199D02*
X67130373Y-81957199D01*
X67130373Y-81719104D01*
X67177993Y-81576246D01*
X67273231Y-81481008D01*
X67368469Y-81433389D01*
X67558945Y-81385770D01*
X67701802Y-81385770D01*
X67892278Y-81433389D01*
X67987516Y-81481008D01*
X68082754Y-81576246D01*
X68130373Y-81719104D01*
X68130373Y-81957199D01*
X67558945Y-80814342D02*
X67511326Y-80909580D01*
X67463707Y-80957199D01*
X67368469Y-81004818D01*
X67320850Y-81004818D01*
X67225612Y-80957199D01*
X67177993Y-80909580D01*
X67130373Y-80814342D01*
X67130373Y-80623865D01*
X67177993Y-80528627D01*
X67225612Y-80481008D01*
X67320850Y-80433389D01*
X67368469Y-80433389D01*
X67463707Y-80481008D01*
X67511326Y-80528627D01*
X67558945Y-80623865D01*
X67558945Y-80814342D01*
X67606564Y-80909580D01*
X67654183Y-80957199D01*
X67749421Y-81004818D01*
X67939897Y-81004818D01*
X68035135Y-80957199D01*
X68082754Y-80909580D01*
X68130373Y-80814342D01*
X68130373Y-80623865D01*
X68082754Y-80528627D01*
X68035135Y-80481008D01*
X67939897Y-80433389D01*
X67749421Y-80433389D01*
X67654183Y-80481008D01*
X67606564Y-80528627D01*
X67558945Y-80623865D01*
%TO.C,D7*%
X68117673Y-62945299D02*
X67117673Y-62945299D01*
X67117673Y-62707204D01*
X67165293Y-62564346D01*
X67260531Y-62469108D01*
X67355769Y-62421489D01*
X67546245Y-62373870D01*
X67689102Y-62373870D01*
X67879578Y-62421489D01*
X67974816Y-62469108D01*
X68070054Y-62564346D01*
X68117673Y-62707204D01*
X68117673Y-62945299D01*
X67117673Y-62040537D02*
X67117673Y-61373870D01*
X68117673Y-61802442D01*
%TO.C,SW35*%
X143383222Y-113656492D02*
X143501177Y-113750099D01*
X143724913Y-113831532D01*
X143830694Y-113819358D01*
X143891728Y-113790898D01*
X143969049Y-113717690D01*
X144001622Y-113628195D01*
X143989448Y-113522414D01*
X143960988Y-113461380D01*
X143887780Y-113384060D01*
X143725077Y-113274166D01*
X143651870Y-113196845D01*
X143623409Y-113135811D01*
X143611235Y-113030030D01*
X143643808Y-112940535D01*
X143721129Y-112867328D01*
X143782163Y-112838867D01*
X143887944Y-112826693D01*
X144111680Y-112908126D01*
X144229636Y-113001734D01*
X144559153Y-113070993D02*
X144440869Y-114092119D01*
X144864159Y-113486057D01*
X144798847Y-114222413D01*
X145364604Y-113364153D01*
X145633088Y-113461873D02*
X146214802Y-113673600D01*
X145771278Y-113917571D01*
X145905520Y-113966431D01*
X145978727Y-114043752D01*
X146007188Y-114104786D01*
X146019362Y-114210567D01*
X145937929Y-114434304D01*
X145860608Y-114507511D01*
X145799574Y-114535972D01*
X145693793Y-114548146D01*
X145425309Y-114450426D01*
X145352101Y-114373105D01*
X145323641Y-114312071D01*
X147065000Y-113983047D02*
X146617527Y-113820180D01*
X146409913Y-114251366D01*
X146470947Y-114222906D01*
X146576729Y-114210732D01*
X146800465Y-114292165D01*
X146873673Y-114369486D01*
X146902133Y-114430520D01*
X146914307Y-114536301D01*
X146832874Y-114760037D01*
X146755553Y-114833245D01*
X146694519Y-114861706D01*
X146588738Y-114873879D01*
X146365002Y-114792446D01*
X146291794Y-114715125D01*
X146263333Y-114654092D01*
%TO.C,SW34*%
X123590409Y-108679571D02*
X123722827Y-108751273D01*
X123957305Y-108792618D01*
X124059365Y-108762260D01*
X124114530Y-108723634D01*
X124177963Y-108638111D01*
X124194501Y-108544320D01*
X124164144Y-108442260D01*
X124125517Y-108387095D01*
X124039995Y-108323662D01*
X123860681Y-108243690D01*
X123775159Y-108180257D01*
X123736532Y-108125092D01*
X123706175Y-108023032D01*
X123722713Y-107929241D01*
X123786146Y-107843719D01*
X123841311Y-107805092D01*
X123943371Y-107774734D01*
X124177849Y-107816079D01*
X124310267Y-107887782D01*
X124646805Y-107898769D02*
X124707635Y-108924921D01*
X125019252Y-108254563D01*
X125082800Y-108991073D01*
X125490926Y-108047610D01*
X125772300Y-108097224D02*
X126381942Y-108204720D01*
X125987522Y-108522002D01*
X126128208Y-108546809D01*
X126213731Y-108610243D01*
X126252357Y-108665407D01*
X126282715Y-108767468D01*
X126241370Y-109001946D01*
X126177937Y-109087468D01*
X126122772Y-109126095D01*
X126020712Y-109156452D01*
X125739338Y-109106838D01*
X125653816Y-109043405D01*
X125615189Y-108988240D01*
X127168181Y-108681831D02*
X127052415Y-109338369D01*
X126999854Y-108265321D02*
X126641342Y-108927411D01*
X127250985Y-109034907D01*
%TO.C,SW25*%
X135188061Y-89431248D02*
X135330918Y-89478867D01*
X135569013Y-89478867D01*
X135664251Y-89431248D01*
X135711870Y-89383629D01*
X135759489Y-89288391D01*
X135759489Y-89193153D01*
X135711870Y-89097915D01*
X135664251Y-89050296D01*
X135569013Y-89002677D01*
X135378537Y-88955058D01*
X135283299Y-88907439D01*
X135235680Y-88859820D01*
X135188061Y-88764582D01*
X135188061Y-88669344D01*
X135235680Y-88574106D01*
X135283299Y-88526487D01*
X135378537Y-88478867D01*
X135616632Y-88478867D01*
X135759489Y-88526487D01*
X136092823Y-88478867D02*
X136330918Y-89478867D01*
X136521394Y-88764582D01*
X136711870Y-89478867D01*
X136949965Y-88478867D01*
X137283299Y-88574106D02*
X137330918Y-88526487D01*
X137426156Y-88478867D01*
X137664251Y-88478867D01*
X137759489Y-88526487D01*
X137807108Y-88574106D01*
X137854727Y-88669344D01*
X137854727Y-88764582D01*
X137807108Y-88907439D01*
X137235680Y-89478867D01*
X137854727Y-89478867D01*
X138759489Y-88478867D02*
X138283299Y-88478867D01*
X138235680Y-88955058D01*
X138283299Y-88907439D01*
X138378537Y-88859820D01*
X138616632Y-88859820D01*
X138711870Y-88907439D01*
X138759489Y-88955058D01*
X138807108Y-89050296D01*
X138807108Y-89288391D01*
X138759489Y-89383629D01*
X138711870Y-89431248D01*
X138616632Y-89478867D01*
X138378537Y-89478867D01*
X138283299Y-89431248D01*
X138235680Y-89383629D01*
%TO.C,SW24*%
X116188062Y-86931248D02*
X116330919Y-86978867D01*
X116569014Y-86978867D01*
X116664252Y-86931248D01*
X116711871Y-86883629D01*
X116759490Y-86788391D01*
X116759490Y-86693153D01*
X116711871Y-86597915D01*
X116664252Y-86550296D01*
X116569014Y-86502677D01*
X116378538Y-86455058D01*
X116283300Y-86407439D01*
X116235681Y-86359820D01*
X116188062Y-86264582D01*
X116188062Y-86169344D01*
X116235681Y-86074106D01*
X116283300Y-86026487D01*
X116378538Y-85978867D01*
X116616633Y-85978867D01*
X116759490Y-86026487D01*
X117092824Y-85978867D02*
X117330919Y-86978867D01*
X117521395Y-86264582D01*
X117711871Y-86978867D01*
X117949966Y-85978867D01*
X118283300Y-86074106D02*
X118330919Y-86026487D01*
X118426157Y-85978867D01*
X118664252Y-85978867D01*
X118759490Y-86026487D01*
X118807109Y-86074106D01*
X118854728Y-86169344D01*
X118854728Y-86264582D01*
X118807109Y-86407439D01*
X118235681Y-86978867D01*
X118854728Y-86978867D01*
X119711871Y-86312201D02*
X119711871Y-86978867D01*
X119473776Y-85931248D02*
X119235681Y-86645534D01*
X119854728Y-86645534D01*
%TO.C,SW23*%
X97188062Y-81931248D02*
X97330919Y-81978867D01*
X97569014Y-81978867D01*
X97664252Y-81931248D01*
X97711871Y-81883629D01*
X97759490Y-81788391D01*
X97759490Y-81693153D01*
X97711871Y-81597915D01*
X97664252Y-81550296D01*
X97569014Y-81502677D01*
X97378538Y-81455058D01*
X97283300Y-81407439D01*
X97235681Y-81359820D01*
X97188062Y-81264582D01*
X97188062Y-81169344D01*
X97235681Y-81074106D01*
X97283300Y-81026487D01*
X97378538Y-80978867D01*
X97616633Y-80978867D01*
X97759490Y-81026487D01*
X98092824Y-80978867D02*
X98330919Y-81978867D01*
X98521395Y-81264582D01*
X98711871Y-81978867D01*
X98949966Y-80978867D01*
X99283300Y-81074106D02*
X99330919Y-81026487D01*
X99426157Y-80978867D01*
X99664252Y-80978867D01*
X99759490Y-81026487D01*
X99807109Y-81074106D01*
X99854728Y-81169344D01*
X99854728Y-81264582D01*
X99807109Y-81407439D01*
X99235681Y-81978867D01*
X99854728Y-81978867D01*
X100188062Y-80978867D02*
X100807109Y-80978867D01*
X100473776Y-81359820D01*
X100616633Y-81359820D01*
X100711871Y-81407439D01*
X100759490Y-81455058D01*
X100807109Y-81550296D01*
X100807109Y-81788391D01*
X100759490Y-81883629D01*
X100711871Y-81931248D01*
X100616633Y-81978867D01*
X100330919Y-81978867D01*
X100235681Y-81931248D01*
X100188062Y-81883629D01*
%TO.C,SW22*%
X78188063Y-86931247D02*
X78330920Y-86978866D01*
X78569015Y-86978866D01*
X78664253Y-86931247D01*
X78711872Y-86883628D01*
X78759491Y-86788390D01*
X78759491Y-86693152D01*
X78711872Y-86597914D01*
X78664253Y-86550295D01*
X78569015Y-86502676D01*
X78378539Y-86455057D01*
X78283301Y-86407438D01*
X78235682Y-86359819D01*
X78188063Y-86264581D01*
X78188063Y-86169343D01*
X78235682Y-86074105D01*
X78283301Y-86026486D01*
X78378539Y-85978866D01*
X78616634Y-85978866D01*
X78759491Y-86026486D01*
X79092825Y-85978866D02*
X79330920Y-86978866D01*
X79521396Y-86264581D01*
X79711872Y-86978866D01*
X79949967Y-85978866D01*
X80283301Y-86074105D02*
X80330920Y-86026486D01*
X80426158Y-85978866D01*
X80664253Y-85978866D01*
X80759491Y-86026486D01*
X80807110Y-86074105D01*
X80854729Y-86169343D01*
X80854729Y-86264581D01*
X80807110Y-86407438D01*
X80235682Y-86978866D01*
X80854729Y-86978866D01*
X81235682Y-86074105D02*
X81283301Y-86026486D01*
X81378539Y-85978866D01*
X81616634Y-85978866D01*
X81711872Y-86026486D01*
X81759491Y-86074105D01*
X81807110Y-86169343D01*
X81807110Y-86264581D01*
X81759491Y-86407438D01*
X81188063Y-86978866D01*
X81807110Y-86978866D01*
%TO.C,SW21*%
X59188064Y-99431246D02*
X59330921Y-99478865D01*
X59569016Y-99478865D01*
X59664254Y-99431246D01*
X59711873Y-99383627D01*
X59759492Y-99288389D01*
X59759492Y-99193151D01*
X59711873Y-99097913D01*
X59664254Y-99050294D01*
X59569016Y-99002675D01*
X59378540Y-98955056D01*
X59283302Y-98907437D01*
X59235683Y-98859818D01*
X59188064Y-98764580D01*
X59188064Y-98669342D01*
X59235683Y-98574104D01*
X59283302Y-98526485D01*
X59378540Y-98478865D01*
X59616635Y-98478865D01*
X59759492Y-98526485D01*
X60092826Y-98478865D02*
X60330921Y-99478865D01*
X60521397Y-98764580D01*
X60711873Y-99478865D01*
X60949968Y-98478865D01*
X61283302Y-98574104D02*
X61330921Y-98526485D01*
X61426159Y-98478865D01*
X61664254Y-98478865D01*
X61759492Y-98526485D01*
X61807111Y-98574104D01*
X61854730Y-98669342D01*
X61854730Y-98764580D01*
X61807111Y-98907437D01*
X61235683Y-99478865D01*
X61854730Y-99478865D01*
X62807111Y-99478865D02*
X62235683Y-99478865D01*
X62521397Y-99478865D02*
X62521397Y-98478865D01*
X62426159Y-98621723D01*
X62330921Y-98716961D01*
X62235683Y-98764580D01*
%TO.C,SW15*%
X135188061Y-70431249D02*
X135330918Y-70478868D01*
X135569013Y-70478868D01*
X135664251Y-70431249D01*
X135711870Y-70383630D01*
X135759489Y-70288392D01*
X135759489Y-70193154D01*
X135711870Y-70097916D01*
X135664251Y-70050297D01*
X135569013Y-70002678D01*
X135378537Y-69955059D01*
X135283299Y-69907440D01*
X135235680Y-69859821D01*
X135188061Y-69764583D01*
X135188061Y-69669345D01*
X135235680Y-69574107D01*
X135283299Y-69526488D01*
X135378537Y-69478868D01*
X135616632Y-69478868D01*
X135759489Y-69526488D01*
X136092823Y-69478868D02*
X136330918Y-70478868D01*
X136521394Y-69764583D01*
X136711870Y-70478868D01*
X136949965Y-69478868D01*
X137854727Y-70478868D02*
X137283299Y-70478868D01*
X137569013Y-70478868D02*
X137569013Y-69478868D01*
X137473775Y-69621726D01*
X137378537Y-69716964D01*
X137283299Y-69764583D01*
X138759489Y-69478868D02*
X138283299Y-69478868D01*
X138235680Y-69955059D01*
X138283299Y-69907440D01*
X138378537Y-69859821D01*
X138616632Y-69859821D01*
X138711870Y-69907440D01*
X138759489Y-69955059D01*
X138807108Y-70050297D01*
X138807108Y-70288392D01*
X138759489Y-70383630D01*
X138711870Y-70431249D01*
X138616632Y-70478868D01*
X138378537Y-70478868D01*
X138283299Y-70431249D01*
X138235680Y-70383630D01*
%TO.C,SW14*%
X116188062Y-67931248D02*
X116330919Y-67978867D01*
X116569014Y-67978867D01*
X116664252Y-67931248D01*
X116711871Y-67883629D01*
X116759490Y-67788391D01*
X116759490Y-67693153D01*
X116711871Y-67597915D01*
X116664252Y-67550296D01*
X116569014Y-67502677D01*
X116378538Y-67455058D01*
X116283300Y-67407439D01*
X116235681Y-67359820D01*
X116188062Y-67264582D01*
X116188062Y-67169344D01*
X116235681Y-67074106D01*
X116283300Y-67026487D01*
X116378538Y-66978867D01*
X116616633Y-66978867D01*
X116759490Y-67026487D01*
X117092824Y-66978867D02*
X117330919Y-67978867D01*
X117521395Y-67264582D01*
X117711871Y-67978867D01*
X117949966Y-66978867D01*
X118854728Y-67978867D02*
X118283300Y-67978867D01*
X118569014Y-67978867D02*
X118569014Y-66978867D01*
X118473776Y-67121725D01*
X118378538Y-67216963D01*
X118283300Y-67264582D01*
X119711871Y-67312201D02*
X119711871Y-67978867D01*
X119473776Y-66931248D02*
X119235681Y-67645534D01*
X119854728Y-67645534D01*
%TO.C,SW13*%
X97188063Y-62931248D02*
X97330920Y-62978867D01*
X97569015Y-62978867D01*
X97664253Y-62931248D01*
X97711872Y-62883629D01*
X97759491Y-62788391D01*
X97759491Y-62693153D01*
X97711872Y-62597915D01*
X97664253Y-62550296D01*
X97569015Y-62502677D01*
X97378539Y-62455058D01*
X97283301Y-62407439D01*
X97235682Y-62359820D01*
X97188063Y-62264582D01*
X97188063Y-62169344D01*
X97235682Y-62074106D01*
X97283301Y-62026487D01*
X97378539Y-61978867D01*
X97616634Y-61978867D01*
X97759491Y-62026487D01*
X98092825Y-61978867D02*
X98330920Y-62978867D01*
X98521396Y-62264582D01*
X98711872Y-62978867D01*
X98949967Y-61978867D01*
X99854729Y-62978867D02*
X99283301Y-62978867D01*
X99569015Y-62978867D02*
X99569015Y-61978867D01*
X99473777Y-62121725D01*
X99378539Y-62216963D01*
X99283301Y-62264582D01*
X100188063Y-61978867D02*
X100807110Y-61978867D01*
X100473777Y-62359820D01*
X100616634Y-62359820D01*
X100711872Y-62407439D01*
X100759491Y-62455058D01*
X100807110Y-62550296D01*
X100807110Y-62788391D01*
X100759491Y-62883629D01*
X100711872Y-62931248D01*
X100616634Y-62978867D01*
X100330920Y-62978867D01*
X100235682Y-62931248D01*
X100188063Y-62883629D01*
%TO.C,SW12*%
X78188064Y-67931248D02*
X78330921Y-67978867D01*
X78569016Y-67978867D01*
X78664254Y-67931248D01*
X78711873Y-67883629D01*
X78759492Y-67788391D01*
X78759492Y-67693153D01*
X78711873Y-67597915D01*
X78664254Y-67550296D01*
X78569016Y-67502677D01*
X78378540Y-67455058D01*
X78283302Y-67407439D01*
X78235683Y-67359820D01*
X78188064Y-67264582D01*
X78188064Y-67169344D01*
X78235683Y-67074106D01*
X78283302Y-67026487D01*
X78378540Y-66978867D01*
X78616635Y-66978867D01*
X78759492Y-67026487D01*
X79092826Y-66978867D02*
X79330921Y-67978867D01*
X79521397Y-67264582D01*
X79711873Y-67978867D01*
X79949968Y-66978867D01*
X80854730Y-67978867D02*
X80283302Y-67978867D01*
X80569016Y-67978867D02*
X80569016Y-66978867D01*
X80473778Y-67121725D01*
X80378540Y-67216963D01*
X80283302Y-67264582D01*
X81235683Y-67074106D02*
X81283302Y-67026487D01*
X81378540Y-66978867D01*
X81616635Y-66978867D01*
X81711873Y-67026487D01*
X81759492Y-67074106D01*
X81807111Y-67169344D01*
X81807111Y-67264582D01*
X81759492Y-67407439D01*
X81188064Y-67978867D01*
X81807111Y-67978867D01*
%TO.C,SW11*%
X59188065Y-80431247D02*
X59330922Y-80478866D01*
X59569017Y-80478866D01*
X59664255Y-80431247D01*
X59711874Y-80383628D01*
X59759493Y-80288390D01*
X59759493Y-80193152D01*
X59711874Y-80097914D01*
X59664255Y-80050295D01*
X59569017Y-80002676D01*
X59378541Y-79955057D01*
X59283303Y-79907438D01*
X59235684Y-79859819D01*
X59188065Y-79764581D01*
X59188065Y-79669343D01*
X59235684Y-79574105D01*
X59283303Y-79526486D01*
X59378541Y-79478866D01*
X59616636Y-79478866D01*
X59759493Y-79526486D01*
X60092827Y-79478866D02*
X60330922Y-80478866D01*
X60521398Y-79764581D01*
X60711874Y-80478866D01*
X60949969Y-79478866D01*
X61854731Y-80478866D02*
X61283303Y-80478866D01*
X61569017Y-80478866D02*
X61569017Y-79478866D01*
X61473779Y-79621724D01*
X61378541Y-79716962D01*
X61283303Y-79764581D01*
X62807112Y-80478866D02*
X62235684Y-80478866D01*
X62521398Y-80478866D02*
X62521398Y-79478866D01*
X62426160Y-79621724D01*
X62330922Y-79716962D01*
X62235684Y-79764581D01*
%TO.C,SW6*%
X103745259Y-107119165D02*
X103888116Y-107166784D01*
X104126212Y-107166784D01*
X104221450Y-107119165D01*
X104269069Y-107071546D01*
X104316688Y-106976308D01*
X104316688Y-106881070D01*
X104269069Y-106785832D01*
X104221450Y-106738213D01*
X104126212Y-106690594D01*
X103935735Y-106642975D01*
X103840497Y-106595356D01*
X103792878Y-106547737D01*
X103745259Y-106452499D01*
X103745259Y-106357261D01*
X103792878Y-106262023D01*
X103840497Y-106214404D01*
X103935735Y-106166784D01*
X104173831Y-106166784D01*
X104316688Y-106214404D01*
X104650021Y-106166784D02*
X104888116Y-107166784D01*
X105078593Y-106452499D01*
X105269069Y-107166784D01*
X105507164Y-106166784D01*
X106316688Y-106166784D02*
X106126212Y-106166784D01*
X106030973Y-106214404D01*
X105983354Y-106262023D01*
X105888116Y-106404880D01*
X105840497Y-106595356D01*
X105840497Y-106976308D01*
X105888116Y-107071546D01*
X105935735Y-107119165D01*
X106030973Y-107166784D01*
X106221450Y-107166784D01*
X106316688Y-107119165D01*
X106364307Y-107071546D01*
X106411926Y-106976308D01*
X106411926Y-106738213D01*
X106364307Y-106642975D01*
X106316688Y-106595356D01*
X106221450Y-106547737D01*
X106030973Y-106547737D01*
X105935735Y-106595356D01*
X105888116Y-106642975D01*
X105840497Y-106738213D01*
%TO.C,SW5*%
X135664251Y-51431250D02*
X135807108Y-51478869D01*
X136045204Y-51478869D01*
X136140442Y-51431250D01*
X136188061Y-51383631D01*
X136235680Y-51288393D01*
X136235680Y-51193155D01*
X136188061Y-51097917D01*
X136140442Y-51050298D01*
X136045204Y-51002679D01*
X135854727Y-50955060D01*
X135759489Y-50907441D01*
X135711870Y-50859822D01*
X135664251Y-50764584D01*
X135664251Y-50669346D01*
X135711870Y-50574108D01*
X135759489Y-50526489D01*
X135854727Y-50478869D01*
X136092823Y-50478869D01*
X136235680Y-50526489D01*
X136569013Y-50478869D02*
X136807108Y-51478869D01*
X136997585Y-50764584D01*
X137188061Y-51478869D01*
X137426156Y-50478869D01*
X138283299Y-50478869D02*
X137807108Y-50478869D01*
X137759489Y-50955060D01*
X137807108Y-50907441D01*
X137902346Y-50859822D01*
X138140442Y-50859822D01*
X138235680Y-50907441D01*
X138283299Y-50955060D01*
X138330918Y-51050298D01*
X138330918Y-51288393D01*
X138283299Y-51383631D01*
X138235680Y-51431250D01*
X138140442Y-51478869D01*
X137902346Y-51478869D01*
X137807108Y-51431250D01*
X137759489Y-51383631D01*
%TO.C,SW4*%
X116664252Y-48931249D02*
X116807109Y-48978868D01*
X117045205Y-48978868D01*
X117140443Y-48931249D01*
X117188062Y-48883630D01*
X117235681Y-48788392D01*
X117235681Y-48693154D01*
X117188062Y-48597916D01*
X117140443Y-48550297D01*
X117045205Y-48502678D01*
X116854728Y-48455059D01*
X116759490Y-48407440D01*
X116711871Y-48359821D01*
X116664252Y-48264583D01*
X116664252Y-48169345D01*
X116711871Y-48074107D01*
X116759490Y-48026488D01*
X116854728Y-47978868D01*
X117092824Y-47978868D01*
X117235681Y-48026488D01*
X117569014Y-47978868D02*
X117807109Y-48978868D01*
X117997586Y-48264583D01*
X118188062Y-48978868D01*
X118426157Y-47978868D01*
X119235681Y-48312202D02*
X119235681Y-48978868D01*
X118997586Y-47931249D02*
X118759490Y-48645535D01*
X119378538Y-48645535D01*
%TO.C,SW3*%
X97664253Y-43931249D02*
X97807110Y-43978868D01*
X98045206Y-43978868D01*
X98140444Y-43931249D01*
X98188063Y-43883630D01*
X98235682Y-43788392D01*
X98235682Y-43693154D01*
X98188063Y-43597916D01*
X98140444Y-43550297D01*
X98045206Y-43502678D01*
X97854729Y-43455059D01*
X97759491Y-43407440D01*
X97711872Y-43359821D01*
X97664253Y-43264583D01*
X97664253Y-43169345D01*
X97711872Y-43074107D01*
X97759491Y-43026488D01*
X97854729Y-42978868D01*
X98092825Y-42978868D01*
X98235682Y-43026488D01*
X98569015Y-42978868D02*
X98807110Y-43978868D01*
X98997587Y-43264583D01*
X99188063Y-43978868D01*
X99426158Y-42978868D01*
X99711872Y-42978868D02*
X100330920Y-42978868D01*
X99997587Y-43359821D01*
X100140444Y-43359821D01*
X100235682Y-43407440D01*
X100283301Y-43455059D01*
X100330920Y-43550297D01*
X100330920Y-43788392D01*
X100283301Y-43883630D01*
X100235682Y-43931249D01*
X100140444Y-43978868D01*
X99854729Y-43978868D01*
X99759491Y-43931249D01*
X99711872Y-43883630D01*
%TO.C,SW2*%
X78664254Y-48931249D02*
X78807111Y-48978868D01*
X79045207Y-48978868D01*
X79140445Y-48931249D01*
X79188064Y-48883630D01*
X79235683Y-48788392D01*
X79235683Y-48693154D01*
X79188064Y-48597916D01*
X79140445Y-48550297D01*
X79045207Y-48502678D01*
X78854730Y-48455059D01*
X78759492Y-48407440D01*
X78711873Y-48359821D01*
X78664254Y-48264583D01*
X78664254Y-48169345D01*
X78711873Y-48074107D01*
X78759492Y-48026488D01*
X78854730Y-47978868D01*
X79092826Y-47978868D01*
X79235683Y-48026488D01*
X79569016Y-47978868D02*
X79807111Y-48978868D01*
X79997588Y-48264583D01*
X80188064Y-48978868D01*
X80426159Y-47978868D01*
X80759492Y-48074107D02*
X80807111Y-48026488D01*
X80902349Y-47978868D01*
X81140445Y-47978868D01*
X81235683Y-48026488D01*
X81283302Y-48074107D01*
X81330921Y-48169345D01*
X81330921Y-48264583D01*
X81283302Y-48407440D01*
X80711873Y-48978868D01*
X81330921Y-48978868D01*
%TO.C,SW1*%
X59664255Y-61431248D02*
X59807112Y-61478867D01*
X60045208Y-61478867D01*
X60140446Y-61431248D01*
X60188065Y-61383629D01*
X60235684Y-61288391D01*
X60235684Y-61193153D01*
X60188065Y-61097915D01*
X60140446Y-61050296D01*
X60045208Y-61002677D01*
X59854731Y-60955058D01*
X59759493Y-60907439D01*
X59711874Y-60859820D01*
X59664255Y-60764582D01*
X59664255Y-60669344D01*
X59711874Y-60574106D01*
X59759493Y-60526487D01*
X59854731Y-60478867D01*
X60092827Y-60478867D01*
X60235684Y-60526487D01*
X60569017Y-60478867D02*
X60807112Y-61478867D01*
X60997589Y-60764582D01*
X61188065Y-61478867D01*
X61426160Y-60478867D01*
X62330922Y-61478867D02*
X61759493Y-61478867D01*
X62045208Y-61478867D02*
X62045208Y-60478867D01*
X61949969Y-60621725D01*
X61854731Y-60716963D01*
X61759493Y-60764582D01*
%TO.C,U1*%
X93227244Y-34540308D02*
X93684387Y-34540308D01*
X93455816Y-35340308D02*
X93455816Y-34540308D01*
X93874863Y-34540308D02*
X94408197Y-35340308D01*
X94408197Y-34540308D02*
X93874863Y-35340308D01*
X94865340Y-34540308D02*
X94941530Y-34540308D01*
X95017721Y-34578404D01*
X95055816Y-34616499D01*
X95093911Y-34692689D01*
X95132006Y-34845070D01*
X95132006Y-35035546D01*
X95093911Y-35187927D01*
X95055816Y-35264118D01*
X95017721Y-35302213D01*
X94941530Y-35340308D01*
X94865340Y-35340308D01*
X94789149Y-35302213D01*
X94751054Y-35264118D01*
X94712959Y-35187927D01*
X94674863Y-35035546D01*
X94674863Y-34845070D01*
X94712959Y-34692689D01*
X94751054Y-34616499D01*
X94789149Y-34578404D01*
X94865340Y-34540308D01*
X96046292Y-34502213D02*
X95360578Y-35530784D01*
X96312959Y-35340308D02*
X96312959Y-34540308D01*
X96503435Y-34540308D01*
X96617721Y-34578404D01*
X96693911Y-34654594D01*
X96732006Y-34730784D01*
X96770101Y-34883165D01*
X96770101Y-34997451D01*
X96732006Y-35149832D01*
X96693911Y-35226023D01*
X96617721Y-35302213D01*
X96503435Y-35340308D01*
X96312959Y-35340308D01*
X97036768Y-34540308D02*
X97532006Y-34540308D01*
X97265340Y-34845070D01*
X97379625Y-34845070D01*
X97455816Y-34883165D01*
X97493911Y-34921261D01*
X97532006Y-34997451D01*
X97532006Y-35187927D01*
X97493911Y-35264118D01*
X97455816Y-35302213D01*
X97379625Y-35340308D01*
X97151054Y-35340308D01*
X97074863Y-35302213D01*
X97036768Y-35264118D01*
X92938116Y-37880308D02*
X92938116Y-37080308D01*
X93128593Y-37080308D01*
X93242878Y-37118404D01*
X93319069Y-37194594D01*
X93357164Y-37270784D01*
X93395259Y-37423165D01*
X93395259Y-37537451D01*
X93357164Y-37689832D01*
X93319069Y-37766023D01*
X93242878Y-37842213D01*
X93128593Y-37880308D01*
X92938116Y-37880308D01*
X93700021Y-37156499D02*
X93738116Y-37118404D01*
X93814307Y-37080308D01*
X94004783Y-37080308D01*
X94080973Y-37118404D01*
X94119069Y-37156499D01*
X94157164Y-37232689D01*
X94157164Y-37308880D01*
X94119069Y-37423165D01*
X93661926Y-37880308D01*
X94157164Y-37880308D01*
X92938116Y-48040308D02*
X92938116Y-47240308D01*
X93128593Y-47240308D01*
X93242878Y-47278404D01*
X93319069Y-47354594D01*
X93357164Y-47430784D01*
X93395259Y-47583165D01*
X93395259Y-47697451D01*
X93357164Y-47849832D01*
X93319069Y-47926023D01*
X93242878Y-48002213D01*
X93128593Y-48040308D01*
X92938116Y-48040308D01*
X93890497Y-47240308D02*
X93966688Y-47240308D01*
X94042878Y-47278404D01*
X94080973Y-47316499D01*
X94119069Y-47392689D01*
X94157164Y-47545070D01*
X94157164Y-47735546D01*
X94119069Y-47887927D01*
X94080973Y-47964118D01*
X94042878Y-48002213D01*
X93966688Y-48040308D01*
X93890497Y-48040308D01*
X93814307Y-48002213D01*
X93776212Y-47964118D01*
X93738116Y-47887927D01*
X93700021Y-47735546D01*
X93700021Y-47545070D01*
X93738116Y-47392689D01*
X93776212Y-47316499D01*
X93814307Y-47278404D01*
X93890497Y-47240308D01*
X92938116Y-45500308D02*
X92938116Y-44700308D01*
X93128593Y-44700308D01*
X93242878Y-44738404D01*
X93319069Y-44814594D01*
X93357164Y-44890784D01*
X93395259Y-45043165D01*
X93395259Y-45157451D01*
X93357164Y-45309832D01*
X93319069Y-45386023D01*
X93242878Y-45462213D01*
X93128593Y-45500308D01*
X92938116Y-45500308D01*
X94157164Y-45500308D02*
X93700021Y-45500308D01*
X93928593Y-45500308D02*
X93928593Y-44700308D01*
X93852402Y-44814594D01*
X93776212Y-44890784D01*
X93700021Y-44928880D01*
X92919069Y-42198404D02*
X92842878Y-42160308D01*
X92728593Y-42160308D01*
X92614307Y-42198404D01*
X92538116Y-42274594D01*
X92500021Y-42350784D01*
X92461926Y-42503165D01*
X92461926Y-42617451D01*
X92500021Y-42769832D01*
X92538116Y-42846023D01*
X92614307Y-42922213D01*
X92728593Y-42960308D01*
X92804783Y-42960308D01*
X92919069Y-42922213D01*
X92957164Y-42884118D01*
X92957164Y-42617451D01*
X92804783Y-42617451D01*
X93300021Y-42960308D02*
X93300021Y-42160308D01*
X93757164Y-42960308D01*
X93757164Y-42160308D01*
X94138116Y-42960308D02*
X94138116Y-42160308D01*
X94328593Y-42160308D01*
X94442878Y-42198404D01*
X94519069Y-42274594D01*
X94557164Y-42350784D01*
X94595259Y-42503165D01*
X94595259Y-42617451D01*
X94557164Y-42769832D01*
X94519069Y-42846023D01*
X94442878Y-42922213D01*
X94328593Y-42960308D01*
X94138116Y-42960308D01*
X92919069Y-39658404D02*
X92842878Y-39620308D01*
X92728593Y-39620308D01*
X92614307Y-39658404D01*
X92538116Y-39734594D01*
X92500021Y-39810784D01*
X92461926Y-39963165D01*
X92461926Y-40077451D01*
X92500021Y-40229832D01*
X92538116Y-40306023D01*
X92614307Y-40382213D01*
X92728593Y-40420308D01*
X92804783Y-40420308D01*
X92919069Y-40382213D01*
X92957164Y-40344118D01*
X92957164Y-40077451D01*
X92804783Y-40077451D01*
X93300021Y-40420308D02*
X93300021Y-39620308D01*
X93757164Y-40420308D01*
X93757164Y-39620308D01*
X94138116Y-40420308D02*
X94138116Y-39620308D01*
X94328593Y-39620308D01*
X94442878Y-39658404D01*
X94519069Y-39734594D01*
X94557164Y-39810784D01*
X94595259Y-39963165D01*
X94595259Y-40077451D01*
X94557164Y-40229832D01*
X94519069Y-40306023D01*
X94442878Y-40382213D01*
X94328593Y-40420308D01*
X94138116Y-40420308D01*
X92938116Y-50580308D02*
X92938116Y-49780308D01*
X93128593Y-49780308D01*
X93242878Y-49818404D01*
X93319069Y-49894594D01*
X93357164Y-49970784D01*
X93395259Y-50123165D01*
X93395259Y-50237451D01*
X93357164Y-50389832D01*
X93319069Y-50466023D01*
X93242878Y-50542213D01*
X93128593Y-50580308D01*
X92938116Y-50580308D01*
X94080973Y-50046975D02*
X94080973Y-50580308D01*
X93890497Y-49742213D02*
X93700021Y-50313642D01*
X94195259Y-50313642D01*
X93395259Y-53044118D02*
X93357164Y-53082213D01*
X93242878Y-53120308D01*
X93166688Y-53120308D01*
X93052402Y-53082213D01*
X92976212Y-53006023D01*
X92938116Y-52929832D01*
X92900021Y-52777451D01*
X92900021Y-52663165D01*
X92938116Y-52510784D01*
X92976212Y-52434594D01*
X93052402Y-52358404D01*
X93166688Y-52320308D01*
X93242878Y-52320308D01*
X93357164Y-52358404D01*
X93395259Y-52396499D01*
X94080973Y-52320308D02*
X93928593Y-52320308D01*
X93852402Y-52358404D01*
X93814307Y-52396499D01*
X93738116Y-52510784D01*
X93700021Y-52663165D01*
X93700021Y-52967927D01*
X93738116Y-53044118D01*
X93776212Y-53082213D01*
X93852402Y-53120308D01*
X94004783Y-53120308D01*
X94080973Y-53082213D01*
X94119069Y-53044118D01*
X94157164Y-52967927D01*
X94157164Y-52777451D01*
X94119069Y-52701261D01*
X94080973Y-52663165D01*
X94004783Y-52625070D01*
X93852402Y-52625070D01*
X93776212Y-52663165D01*
X93738116Y-52701261D01*
X93700021Y-52777451D01*
X92938116Y-55660308D02*
X92938116Y-54860308D01*
X93128593Y-54860308D01*
X93242878Y-54898404D01*
X93319069Y-54974594D01*
X93357164Y-55050784D01*
X93395259Y-55203165D01*
X93395259Y-55317451D01*
X93357164Y-55469832D01*
X93319069Y-55546023D01*
X93242878Y-55622213D01*
X93128593Y-55660308D01*
X92938116Y-55660308D01*
X93661926Y-54860308D02*
X94195259Y-54860308D01*
X93852402Y-55660308D01*
X92976212Y-57781261D02*
X93242878Y-57781261D01*
X93357164Y-58200308D02*
X92976212Y-58200308D01*
X92976212Y-57400308D01*
X93357164Y-57400308D01*
X94042878Y-57400308D02*
X93890497Y-57400308D01*
X93814307Y-57438404D01*
X93776212Y-57476499D01*
X93700021Y-57590784D01*
X93661926Y-57743165D01*
X93661926Y-58047927D01*
X93700021Y-58124118D01*
X93738116Y-58162213D01*
X93814307Y-58200308D01*
X93966688Y-58200308D01*
X94042878Y-58162213D01*
X94080973Y-58124118D01*
X94119069Y-58047927D01*
X94119069Y-57857451D01*
X94080973Y-57781261D01*
X94042878Y-57743165D01*
X93966688Y-57705070D01*
X93814307Y-57705070D01*
X93738116Y-57743165D01*
X93700021Y-57781261D01*
X93661926Y-57857451D01*
X93204783Y-60321261D02*
X93319069Y-60359356D01*
X93357164Y-60397451D01*
X93395259Y-60473642D01*
X93395259Y-60587927D01*
X93357164Y-60664118D01*
X93319069Y-60702213D01*
X93242878Y-60740308D01*
X92938116Y-60740308D01*
X92938116Y-59940308D01*
X93204783Y-59940308D01*
X93280973Y-59978404D01*
X93319069Y-60016499D01*
X93357164Y-60092689D01*
X93357164Y-60168880D01*
X93319069Y-60245070D01*
X93280973Y-60283165D01*
X93204783Y-60321261D01*
X92938116Y-60321261D01*
X94080973Y-60206975D02*
X94080973Y-60740308D01*
X93890497Y-59902213D02*
X93700021Y-60473642D01*
X94195259Y-60473642D01*
X93204783Y-62861261D02*
X93319069Y-62899356D01*
X93357164Y-62937451D01*
X93395259Y-63013642D01*
X93395259Y-63127927D01*
X93357164Y-63204118D01*
X93319069Y-63242213D01*
X93242878Y-63280308D01*
X92938116Y-63280308D01*
X92938116Y-62480308D01*
X93204783Y-62480308D01*
X93280973Y-62518404D01*
X93319069Y-62556499D01*
X93357164Y-62632689D01*
X93357164Y-62708880D01*
X93319069Y-62785070D01*
X93280973Y-62823165D01*
X93204783Y-62861261D01*
X92938116Y-62861261D01*
X94119069Y-62480308D02*
X93738116Y-62480308D01*
X93700021Y-62861261D01*
X93738116Y-62823165D01*
X93814307Y-62785070D01*
X94004783Y-62785070D01*
X94080973Y-62823165D01*
X94119069Y-62861261D01*
X94157164Y-62937451D01*
X94157164Y-63127927D01*
X94119069Y-63204118D01*
X94080973Y-63242213D01*
X94004783Y-63280308D01*
X93814307Y-63280308D01*
X93738116Y-63242213D01*
X93700021Y-63204118D01*
X104126783Y-62861261D02*
X104241069Y-62899356D01*
X104279164Y-62937451D01*
X104317259Y-63013642D01*
X104317259Y-63127927D01*
X104279164Y-63204118D01*
X104241069Y-63242213D01*
X104164878Y-63280308D01*
X103860116Y-63280308D01*
X103860116Y-62480308D01*
X104126783Y-62480308D01*
X104202973Y-62518404D01*
X104241069Y-62556499D01*
X104279164Y-62632689D01*
X104279164Y-62708880D01*
X104241069Y-62785070D01*
X104202973Y-62823165D01*
X104126783Y-62861261D01*
X103860116Y-62861261D01*
X105002973Y-62480308D02*
X104850593Y-62480308D01*
X104774402Y-62518404D01*
X104736307Y-62556499D01*
X104660116Y-62670784D01*
X104622021Y-62823165D01*
X104622021Y-63127927D01*
X104660116Y-63204118D01*
X104698212Y-63242213D01*
X104774402Y-63280308D01*
X104926783Y-63280308D01*
X105002973Y-63242213D01*
X105041069Y-63204118D01*
X105079164Y-63127927D01*
X105079164Y-62937451D01*
X105041069Y-62861261D01*
X105002973Y-62823165D01*
X104926783Y-62785070D01*
X104774402Y-62785070D01*
X104698212Y-62823165D01*
X104660116Y-62861261D01*
X104622021Y-62937451D01*
X104126783Y-57781261D02*
X104241069Y-57819356D01*
X104279164Y-57857451D01*
X104317259Y-57933642D01*
X104317259Y-58047927D01*
X104279164Y-58124118D01*
X104241069Y-58162213D01*
X104164878Y-58200308D01*
X103860116Y-58200308D01*
X103860116Y-57400308D01*
X104126783Y-57400308D01*
X104202973Y-57438404D01*
X104241069Y-57476499D01*
X104279164Y-57552689D01*
X104279164Y-57628880D01*
X104241069Y-57705070D01*
X104202973Y-57743165D01*
X104126783Y-57781261D01*
X103860116Y-57781261D01*
X104583926Y-57400308D02*
X105079164Y-57400308D01*
X104812497Y-57705070D01*
X104926783Y-57705070D01*
X105002973Y-57743165D01*
X105041069Y-57781261D01*
X105079164Y-57857451D01*
X105079164Y-58047927D01*
X105041069Y-58124118D01*
X105002973Y-58162213D01*
X104926783Y-58200308D01*
X104698212Y-58200308D01*
X104622021Y-58162213D01*
X104583926Y-58124118D01*
X104126783Y-55241261D02*
X104241069Y-55279356D01*
X104279164Y-55317451D01*
X104317259Y-55393642D01*
X104317259Y-55507927D01*
X104279164Y-55584118D01*
X104241069Y-55622213D01*
X104164878Y-55660308D01*
X103860116Y-55660308D01*
X103860116Y-54860308D01*
X104126783Y-54860308D01*
X104202973Y-54898404D01*
X104241069Y-54936499D01*
X104279164Y-55012689D01*
X104279164Y-55088880D01*
X104241069Y-55165070D01*
X104202973Y-55203165D01*
X104126783Y-55241261D01*
X103860116Y-55241261D01*
X105079164Y-55660308D02*
X104622021Y-55660308D01*
X104850593Y-55660308D02*
X104850593Y-54860308D01*
X104774402Y-54974594D01*
X104698212Y-55050784D01*
X104622021Y-55088880D01*
X104183926Y-45081261D02*
X103917259Y-45081261D01*
X103917259Y-45500308D02*
X103917259Y-44700308D01*
X104298212Y-44700308D01*
X104945831Y-44966975D02*
X104945831Y-45500308D01*
X104755354Y-44662213D02*
X104564878Y-45233642D01*
X105060116Y-45233642D01*
X103383926Y-42160308D02*
X103650593Y-42960308D01*
X103917259Y-42160308D01*
X104641069Y-42884118D02*
X104602973Y-42922213D01*
X104488688Y-42960308D01*
X104412497Y-42960308D01*
X104298212Y-42922213D01*
X104222021Y-42846023D01*
X104183926Y-42769832D01*
X104145831Y-42617451D01*
X104145831Y-42503165D01*
X104183926Y-42350784D01*
X104222021Y-42274594D01*
X104298212Y-42198404D01*
X104412497Y-42160308D01*
X104488688Y-42160308D01*
X104602973Y-42198404D01*
X104641069Y-42236499D01*
X105441069Y-42884118D02*
X105402973Y-42922213D01*
X105288688Y-42960308D01*
X105212497Y-42960308D01*
X105098212Y-42922213D01*
X105022021Y-42846023D01*
X104983926Y-42769832D01*
X104945831Y-42617451D01*
X104945831Y-42503165D01*
X104983926Y-42350784D01*
X105022021Y-42274594D01*
X105098212Y-42198404D01*
X105212497Y-42160308D01*
X105288688Y-42160308D01*
X105402973Y-42198404D01*
X105441069Y-42236499D01*
X104189379Y-40352213D02*
X104303665Y-40390308D01*
X104494141Y-40390308D01*
X104570332Y-40352213D01*
X104608427Y-40314118D01*
X104646522Y-40237927D01*
X104646522Y-40161737D01*
X104608427Y-40085546D01*
X104570332Y-40047451D01*
X104494141Y-40009356D01*
X104341760Y-39971261D01*
X104265570Y-39933165D01*
X104227474Y-39895070D01*
X104189379Y-39818880D01*
X104189379Y-39742689D01*
X104227474Y-39666499D01*
X104265570Y-39628404D01*
X104341760Y-39590308D01*
X104532236Y-39590308D01*
X104646522Y-39628404D01*
X104875093Y-39590308D02*
X105332236Y-39590308D01*
X105103665Y-40390308D02*
X105103665Y-39590308D01*
X103841069Y-37118404D02*
X103764878Y-37080308D01*
X103650593Y-37080308D01*
X103536307Y-37118404D01*
X103460116Y-37194594D01*
X103422021Y-37270784D01*
X103383926Y-37423165D01*
X103383926Y-37537451D01*
X103422021Y-37689832D01*
X103460116Y-37766023D01*
X103536307Y-37842213D01*
X103650593Y-37880308D01*
X103726783Y-37880308D01*
X103841069Y-37842213D01*
X103879164Y-37804118D01*
X103879164Y-37537451D01*
X103726783Y-37537451D01*
X104222021Y-37880308D02*
X104222021Y-37080308D01*
X104679164Y-37880308D01*
X104679164Y-37080308D01*
X105060116Y-37880308D02*
X105060116Y-37080308D01*
X105250593Y-37080308D01*
X105364878Y-37118404D01*
X105441069Y-37194594D01*
X105479164Y-37270784D01*
X105517259Y-37423165D01*
X105517259Y-37537451D01*
X105479164Y-37689832D01*
X105441069Y-37766023D01*
X105364878Y-37842213D01*
X105250593Y-37880308D01*
X105060116Y-37880308D01*
X103898212Y-35340308D02*
X103631545Y-34959356D01*
X103441069Y-35340308D02*
X103441069Y-34540308D01*
X103745831Y-34540308D01*
X103822021Y-34578404D01*
X103860116Y-34616499D01*
X103898212Y-34692689D01*
X103898212Y-34806975D01*
X103860116Y-34883165D01*
X103822021Y-34921261D01*
X103745831Y-34959356D01*
X103441069Y-34959356D01*
X104202973Y-35111737D02*
X104583926Y-35111737D01*
X104126783Y-35340308D02*
X104393450Y-34540308D01*
X104660116Y-35340308D01*
X104850593Y-34540308D02*
X105041069Y-35340308D01*
X105193450Y-34768880D01*
X105345831Y-35340308D01*
X105536307Y-34540308D01*
X104183926Y-47621261D02*
X103917259Y-47621261D01*
X103917259Y-48040308D02*
X103917259Y-47240308D01*
X104298212Y-47240308D01*
X104983926Y-47240308D02*
X104602973Y-47240308D01*
X104564878Y-47621261D01*
X104602973Y-47583165D01*
X104679164Y-47545070D01*
X104869640Y-47545070D01*
X104945831Y-47583165D01*
X104983926Y-47621261D01*
X105022021Y-47697451D01*
X105022021Y-47887927D01*
X104983926Y-47964118D01*
X104945831Y-48002213D01*
X104869640Y-48040308D01*
X104679164Y-48040308D01*
X104602973Y-48002213D01*
X104564878Y-47964118D01*
X104183926Y-50161261D02*
X103917259Y-50161261D01*
X103917259Y-50580308D02*
X103917259Y-49780308D01*
X104298212Y-49780308D01*
X104945831Y-49780308D02*
X104793450Y-49780308D01*
X104717259Y-49818404D01*
X104679164Y-49856499D01*
X104602973Y-49970784D01*
X104564878Y-50123165D01*
X104564878Y-50427927D01*
X104602973Y-50504118D01*
X104641069Y-50542213D01*
X104717259Y-50580308D01*
X104869640Y-50580308D01*
X104945831Y-50542213D01*
X104983926Y-50504118D01*
X105022021Y-50427927D01*
X105022021Y-50237451D01*
X104983926Y-50161261D01*
X104945831Y-50123165D01*
X104869640Y-50085070D01*
X104717259Y-50085070D01*
X104641069Y-50123165D01*
X104602973Y-50161261D01*
X104564878Y-50237451D01*
X104183926Y-52701261D02*
X103917259Y-52701261D01*
X103917259Y-53120308D02*
X103917259Y-52320308D01*
X104298212Y-52320308D01*
X104526783Y-52320308D02*
X105060116Y-52320308D01*
X104717259Y-53120308D01*
X104126783Y-60321261D02*
X104241069Y-60359356D01*
X104279164Y-60397451D01*
X104317259Y-60473642D01*
X104317259Y-60587927D01*
X104279164Y-60664118D01*
X104241069Y-60702213D01*
X104164878Y-60740308D01*
X103860116Y-60740308D01*
X103860116Y-59940308D01*
X104126783Y-59940308D01*
X104202973Y-59978404D01*
X104241069Y-60016499D01*
X104279164Y-60092689D01*
X104279164Y-60168880D01*
X104241069Y-60245070D01*
X104202973Y-60283165D01*
X104126783Y-60321261D01*
X103860116Y-60321261D01*
X104622021Y-60016499D02*
X104660116Y-59978404D01*
X104736307Y-59940308D01*
X104926783Y-59940308D01*
X105002973Y-59978404D01*
X105041069Y-60016499D01*
X105079164Y-60092689D01*
X105079164Y-60168880D01*
X105041069Y-60283165D01*
X104583926Y-60740308D01*
X105079164Y-60740308D01*
%TO.C,SW41*%
X146384354Y-94318927D02*
X146431973Y-94176070D01*
X146431973Y-93937975D01*
X146384354Y-93842737D01*
X146336735Y-93795118D01*
X146241497Y-93747499D01*
X146146259Y-93747499D01*
X146051021Y-93795118D01*
X146003402Y-93842737D01*
X145955783Y-93937975D01*
X145908164Y-94128451D01*
X145860545Y-94223689D01*
X145812926Y-94271308D01*
X145717688Y-94318927D01*
X145622450Y-94318927D01*
X145527212Y-94271308D01*
X145479593Y-94223689D01*
X145431973Y-94128451D01*
X145431973Y-93890356D01*
X145479593Y-93747499D01*
X145431973Y-93414165D02*
X146431973Y-93176070D01*
X145717688Y-92985594D01*
X146431973Y-92795118D01*
X145431973Y-92557023D01*
X145765307Y-91747499D02*
X146431973Y-91747499D01*
X145384354Y-91985594D02*
X146098640Y-92223689D01*
X146098640Y-91604642D01*
X146431973Y-90699880D02*
X146431973Y-91271308D01*
X146431973Y-90985594D02*
X145431973Y-90985594D01*
X145574831Y-91080832D01*
X145670069Y-91176070D01*
X145717688Y-91271308D01*
%TO.C,R4*%
X149876926Y-85342784D02*
X149543593Y-84866594D01*
X149305497Y-85342784D02*
X149305497Y-84342784D01*
X149686450Y-84342784D01*
X149781688Y-84390404D01*
X149829307Y-84438023D01*
X149876926Y-84533261D01*
X149876926Y-84676118D01*
X149829307Y-84771356D01*
X149781688Y-84818975D01*
X149686450Y-84866594D01*
X149305497Y-84866594D01*
X150734069Y-84676118D02*
X150734069Y-85342784D01*
X150495973Y-84295165D02*
X150257878Y-85009451D01*
X150876926Y-85009451D01*
%TD*%
M02*
