%TF.GenerationSoftware,KiCad,Pcbnew,(5.1.10)-1*%
%TF.CreationDate,2021-11-02T14:23:06-07:00*%
%TF.ProjectId,bgkeeb,62676b65-6562-42e6-9b69-6361645f7063,rev?*%
%TF.SameCoordinates,Original*%
%TF.FileFunction,Copper,L2,Bot*%
%TF.FilePolarity,Positive*%
%FSLAX46Y46*%
G04 Gerber Fmt 4.6, Leading zero omitted, Abs format (unit mm)*
G04 Created by KiCad (PCBNEW (5.1.10)-1) date 2021-11-02 14:23:06*
%MOMM*%
%LPD*%
G01*
G04 APERTURE LIST*
%TA.AperFunction,ComponentPad*%
%ADD10R,2.000000X2.000000*%
%TD*%
%TA.AperFunction,ComponentPad*%
%ADD11C,2.000000*%
%TD*%
%TA.AperFunction,SMDPad,CuDef*%
%ADD12R,1.100000X1.800000*%
%TD*%
%TA.AperFunction,ComponentPad*%
%ADD13C,2.286000*%
%TD*%
%TA.AperFunction,ComponentPad*%
%ADD14O,1.600000X2.000000*%
%TD*%
%TA.AperFunction,SMDPad,CuDef*%
%ADD15R,0.900000X1.200000*%
%TD*%
%TA.AperFunction,ComponentPad*%
%ADD16C,1.752600*%
%TD*%
%TA.AperFunction,ComponentPad*%
%ADD17R,1.752600X1.752600*%
%TD*%
%TA.AperFunction,SMDPad,CuDef*%
%ADD18R,1.200000X0.900000*%
%TD*%
%TA.AperFunction,SMDPad,CuDef*%
%ADD19C,0.100000*%
%TD*%
%TA.AperFunction,ViaPad*%
%ADD20C,0.800000*%
%TD*%
%TA.AperFunction,Conductor*%
%ADD21C,0.381000*%
%TD*%
%TA.AperFunction,Conductor*%
%ADD22C,0.254000*%
%TD*%
G04 APERTURE END LIST*
D10*
%TO.P,SW7,A*%
%TO.N,ENC1A*%
X80741593Y-111693404D03*
D11*
%TO.P,SW7,C*%
%TO.N,GND*%
X83241593Y-111693404D03*
%TO.P,SW7,B*%
%TO.N,ENC1B*%
X85741593Y-111693404D03*
%TO.P,SW7,S2*%
%TO.N,Net-(D37-Pad2)*%
X80741593Y-97193404D03*
%TO.P,SW7,S1*%
%TO.N,col1*%
X85741593Y-97193404D03*
%TD*%
D12*
%TO.P,SW8,4*%
%TO.N,N/C*%
X151893593Y-89434804D03*
%TO.P,SW8,3*%
X148193593Y-95634804D03*
%TO.P,SW8,2*%
%TO.N,RESET*%
X148193593Y-89434804D03*
%TO.P,SW8,1*%
%TO.N,GND*%
X151893593Y-95634804D03*
%TD*%
%TO.P,R1,2*%
%TO.N,RESET*%
%TA.AperFunction,SMDPad,CuDef*%
G36*
G01*
X150443593Y-86990405D02*
X150443593Y-86090403D01*
G75*
G02*
X150693592Y-85840404I249999J0D01*
G01*
X151218594Y-85840404D01*
G75*
G02*
X151468593Y-86090403I0J-249999D01*
G01*
X151468593Y-86990405D01*
G75*
G02*
X151218594Y-87240404I-249999J0D01*
G01*
X150693592Y-87240404D01*
G75*
G02*
X150443593Y-86990405I0J249999D01*
G01*
G37*
%TD.AperFunction*%
%TO.P,R1,1*%
%TO.N,+5V*%
%TA.AperFunction,SMDPad,CuDef*%
G36*
G01*
X148618593Y-86990405D02*
X148618593Y-86090403D01*
G75*
G02*
X148868592Y-85840404I249999J0D01*
G01*
X149393594Y-85840404D01*
G75*
G02*
X149643593Y-86090403I0J-249999D01*
G01*
X149643593Y-86990405D01*
G75*
G02*
X149393594Y-87240404I-249999J0D01*
G01*
X148868592Y-87240404D01*
G75*
G02*
X148618593Y-86990405I0J249999D01*
G01*
G37*
%TD.AperFunction*%
%TD*%
D10*
%TO.P,SW42,A*%
%TO.N,ENC1A*%
X90741593Y-106693404D03*
D11*
%TO.P,SW42,C*%
%TO.N,GND*%
X90741593Y-104193404D03*
%TO.P,SW42,B*%
%TO.N,ENC1B*%
X90741593Y-101693404D03*
%TO.P,SW42,S2*%
%TO.N,Net-(D37-Pad2)*%
X76241593Y-106693404D03*
%TO.P,SW42,S1*%
%TO.N,col1*%
X76241593Y-101693404D03*
%TD*%
%TO.P,D48,3*%
%TO.N,GND*%
%TA.AperFunction,SMDPad,CuDef*%
G36*
G01*
X97115587Y-35106489D02*
X95679587Y-35106489D01*
G75*
G02*
X95597587Y-35024489I0J82000D01*
G01*
X95597587Y-34368489D01*
G75*
G02*
X95679587Y-34286489I82000J0D01*
G01*
X97115587Y-34286489D01*
G75*
G02*
X97197587Y-34368489I0J-82000D01*
G01*
X97197587Y-35024489D01*
G75*
G02*
X97115587Y-35106489I-82000J0D01*
G01*
G37*
%TD.AperFunction*%
%TO.P,D48,4*%
%TO.N,Net-(D47-Pad2)*%
%TA.AperFunction,SMDPad,CuDef*%
G36*
G01*
X97115587Y-36606489D02*
X95679587Y-36606489D01*
G75*
G02*
X95597587Y-36524489I0J82000D01*
G01*
X95597587Y-35868489D01*
G75*
G02*
X95679587Y-35786489I82000J0D01*
G01*
X97115587Y-35786489D01*
G75*
G02*
X97197587Y-35868489I0J-82000D01*
G01*
X97197587Y-36524489D01*
G75*
G02*
X97115587Y-36606489I-82000J0D01*
G01*
G37*
%TD.AperFunction*%
%TO.P,D48,2*%
%TO.N,Net-(D48-Pad2)*%
%TA.AperFunction,SMDPad,CuDef*%
G36*
G01*
X102315587Y-35106489D02*
X100879587Y-35106489D01*
G75*
G02*
X100797587Y-35024489I0J82000D01*
G01*
X100797587Y-34368489D01*
G75*
G02*
X100879587Y-34286489I82000J0D01*
G01*
X102315587Y-34286489D01*
G75*
G02*
X102397587Y-34368489I0J-82000D01*
G01*
X102397587Y-35024489D01*
G75*
G02*
X102315587Y-35106489I-82000J0D01*
G01*
G37*
%TD.AperFunction*%
%TO.P,D48,1*%
%TO.N,+5V*%
%TA.AperFunction,SMDPad,CuDef*%
G36*
G01*
X102315587Y-36606489D02*
X100879587Y-36606489D01*
G75*
G02*
X100797587Y-36524489I0J82000D01*
G01*
X100797587Y-35868489D01*
G75*
G02*
X100879587Y-35786489I82000J0D01*
G01*
X102315587Y-35786489D01*
G75*
G02*
X102397587Y-35868489I0J-82000D01*
G01*
X102397587Y-36524489D01*
G75*
G02*
X102315587Y-36606489I-82000J0D01*
G01*
G37*
%TD.AperFunction*%
%TD*%
D13*
%TO.P,SW35,1*%
%TO.N,Net-(D35-Pad2)*%
X148959613Y-114765872D03*
%TO.P,SW35,2*%
%TO.N,col4*%
X142123833Y-114980863D03*
%TO.P,SW35,1*%
%TO.N,Net-(D35-Pad2)*%
X146897472Y-116718326D03*
%TO.P,SW35,2*%
%TO.N,col4*%
X141799155Y-112159679D03*
%TD*%
%TO.P,SW34,1*%
%TO.N,Net-(D30-Pad2)*%
X129274725Y-108803767D03*
%TO.P,SW34,2*%
%TO.N,col3*%
X122580130Y-110202513D03*
%TO.P,SW34,1*%
%TO.N,Net-(D30-Pad2)*%
X127582953Y-111084646D03*
%TO.P,SW34,2*%
%TO.N,col3*%
X121770490Y-107480568D03*
%TD*%
%TO.P,SW25,1*%
%TO.N,Net-(D25-Pad2)*%
X140807585Y-88566487D03*
%TO.P,SW25,2*%
%TO.N,col4*%
X134457585Y-91106487D03*
%TO.P,SW25,1*%
%TO.N,Net-(D25-Pad2)*%
X139537585Y-91106487D03*
%TO.P,SW25,2*%
%TO.N,col4*%
X133187585Y-88566487D03*
%TD*%
%TO.P,SW24,1*%
%TO.N,Net-(D24-Pad2)*%
X121807586Y-86066487D03*
%TO.P,SW24,2*%
%TO.N,col3*%
X115457586Y-88606487D03*
%TO.P,SW24,1*%
%TO.N,Net-(D24-Pad2)*%
X120537586Y-88606487D03*
%TO.P,SW24,2*%
%TO.N,col3*%
X114187586Y-86066487D03*
%TD*%
%TO.P,SW23,1*%
%TO.N,Net-(D20-Pad2)*%
X102807586Y-81066487D03*
%TO.P,SW23,2*%
%TO.N,col2*%
X96457586Y-83606487D03*
%TO.P,SW23,1*%
%TO.N,Net-(D20-Pad2)*%
X101537586Y-83606487D03*
%TO.P,SW23,2*%
%TO.N,col2*%
X95187586Y-81066487D03*
%TD*%
%TO.P,SW22,1*%
%TO.N,Net-(D17-Pad2)*%
X83807587Y-86066486D03*
%TO.P,SW22,2*%
%TO.N,col1*%
X77457587Y-88606486D03*
%TO.P,SW22,1*%
%TO.N,Net-(D17-Pad2)*%
X82537587Y-88606486D03*
%TO.P,SW22,2*%
%TO.N,col1*%
X76187587Y-86066486D03*
%TD*%
%TO.P,SW21,1*%
%TO.N,Net-(D21-Pad2)*%
X64807588Y-98566485D03*
%TO.P,SW21,2*%
%TO.N,col0*%
X58457588Y-101106485D03*
%TO.P,SW21,1*%
%TO.N,Net-(D21-Pad2)*%
X63537588Y-101106485D03*
%TO.P,SW21,2*%
%TO.N,col0*%
X57187588Y-98566485D03*
%TD*%
%TO.P,SW15,1*%
%TO.N,Net-(D15-Pad2)*%
X140807585Y-69566488D03*
%TO.P,SW15,2*%
%TO.N,col4*%
X134457585Y-72106488D03*
%TO.P,SW15,1*%
%TO.N,Net-(D15-Pad2)*%
X139537585Y-72106488D03*
%TO.P,SW15,2*%
%TO.N,col4*%
X133187585Y-69566488D03*
%TD*%
%TO.P,SW14,1*%
%TO.N,Net-(D14-Pad2)*%
X121807586Y-67066487D03*
%TO.P,SW14,2*%
%TO.N,col3*%
X115457586Y-69606487D03*
%TO.P,SW14,1*%
%TO.N,Net-(D14-Pad2)*%
X120537586Y-69606487D03*
%TO.P,SW14,2*%
%TO.N,col3*%
X114187586Y-67066487D03*
%TD*%
%TO.P,SW13,1*%
%TO.N,Net-(D13-Pad2)*%
X102807587Y-62066487D03*
%TO.P,SW13,2*%
%TO.N,col2*%
X96457587Y-64606487D03*
%TO.P,SW13,1*%
%TO.N,Net-(D13-Pad2)*%
X101537587Y-64606487D03*
%TO.P,SW13,2*%
%TO.N,col2*%
X95187587Y-62066487D03*
%TD*%
%TO.P,SW12,1*%
%TO.N,Net-(D12-Pad2)*%
X83807588Y-67066487D03*
%TO.P,SW12,2*%
%TO.N,col1*%
X77457588Y-69606487D03*
%TO.P,SW12,1*%
%TO.N,Net-(D12-Pad2)*%
X82537588Y-69606487D03*
%TO.P,SW12,2*%
%TO.N,col1*%
X76187588Y-67066487D03*
%TD*%
%TO.P,SW11,1*%
%TO.N,Net-(D11-Pad2)*%
X64807589Y-79566486D03*
%TO.P,SW11,2*%
%TO.N,col0*%
X58457589Y-82106486D03*
%TO.P,SW11,1*%
%TO.N,Net-(D11-Pad2)*%
X63537589Y-82106486D03*
%TO.P,SW11,2*%
%TO.N,col0*%
X57187589Y-79566486D03*
%TD*%
%TO.P,SW6,1*%
%TO.N,Net-(D26-Pad2)*%
X108888593Y-106254404D03*
%TO.P,SW6,2*%
%TO.N,col2*%
X102538593Y-108794404D03*
%TO.P,SW6,1*%
%TO.N,Net-(D26-Pad2)*%
X107618593Y-108794404D03*
%TO.P,SW6,2*%
%TO.N,col2*%
X101268593Y-106254404D03*
%TD*%
%TO.P,SW5,1*%
%TO.N,Net-(D31-Pad2)*%
X140807585Y-50566489D03*
%TO.P,SW5,2*%
%TO.N,col4*%
X134457585Y-53106489D03*
%TO.P,SW5,1*%
%TO.N,Net-(D31-Pad2)*%
X139537585Y-53106489D03*
%TO.P,SW5,2*%
%TO.N,col4*%
X133187585Y-50566489D03*
%TD*%
%TO.P,SW4,1*%
%TO.N,Net-(D27-Pad2)*%
X121807586Y-48066488D03*
%TO.P,SW4,2*%
%TO.N,col3*%
X115457586Y-50606488D03*
%TO.P,SW4,1*%
%TO.N,Net-(D27-Pad2)*%
X120537586Y-50606488D03*
%TO.P,SW4,2*%
%TO.N,col3*%
X114187586Y-48066488D03*
%TD*%
%TO.P,SW3,1*%
%TO.N,Net-(D18-Pad2)*%
X102807587Y-43066488D03*
%TO.P,SW3,2*%
%TO.N,col2*%
X96457587Y-45606488D03*
%TO.P,SW3,1*%
%TO.N,Net-(D18-Pad2)*%
X101537587Y-45606488D03*
%TO.P,SW3,2*%
%TO.N,col2*%
X95187587Y-43066488D03*
%TD*%
%TO.P,SW2,1*%
%TO.N,Net-(D10-Pad2)*%
X83807588Y-48066488D03*
%TO.P,SW2,2*%
%TO.N,col1*%
X77457588Y-50606488D03*
%TO.P,SW2,1*%
%TO.N,Net-(D10-Pad2)*%
X82537588Y-50606488D03*
%TO.P,SW2,2*%
%TO.N,col1*%
X76187588Y-48066488D03*
%TD*%
%TO.P,SW1,1*%
%TO.N,Net-(D1-Pad2)*%
X64807589Y-60566487D03*
%TO.P,SW1,2*%
%TO.N,col0*%
X58457589Y-63106487D03*
%TO.P,SW1,1*%
%TO.N,Net-(D1-Pad2)*%
X63537589Y-63106487D03*
%TO.P,SW1,2*%
%TO.N,col0*%
X57187589Y-60566487D03*
%TD*%
%TO.P,J1,1*%
%TO.N,+5V*%
%TA.AperFunction,ComponentPad*%
G36*
G01*
X151289593Y-61096404D02*
X151289593Y-61946404D01*
G75*
G02*
X150864593Y-62371404I-425000J0D01*
G01*
X149514593Y-62371404D01*
G75*
G02*
X149089593Y-61946404I0J425000D01*
G01*
X149089593Y-61096404D01*
G75*
G02*
X149514593Y-60671404I425000J0D01*
G01*
X150864593Y-60671404D01*
G75*
G02*
X151289593Y-61096404I0J-425000D01*
G01*
G37*
%TD.AperFunction*%
%TO.P,J1,2*%
%TO.N,sda*%
%TA.AperFunction,ComponentPad*%
G36*
G01*
X150864593Y-64911404D02*
X149514593Y-64911404D01*
G75*
G02*
X149089593Y-64486404I0J425000D01*
G01*
X149089593Y-63636404D01*
G75*
G02*
X149514593Y-63211404I425000J0D01*
G01*
X150864593Y-63211404D01*
G75*
G02*
X151289593Y-63636404I0J-425000D01*
G01*
X151289593Y-64486404D01*
G75*
G02*
X150864593Y-64911404I-425000J0D01*
G01*
G37*
%TD.AperFunction*%
%TO.P,J1,3*%
%TO.N,scl*%
%TA.AperFunction,ComponentPad*%
G36*
G01*
X150864593Y-67451404D02*
X149514593Y-67451404D01*
G75*
G02*
X149089593Y-67026404I0J425000D01*
G01*
X149089593Y-66176404D01*
G75*
G02*
X149514593Y-65751404I425000J0D01*
G01*
X150864593Y-65751404D01*
G75*
G02*
X151289593Y-66176404I0J-425000D01*
G01*
X151289593Y-67026404D01*
G75*
G02*
X150864593Y-67451404I-425000J0D01*
G01*
G37*
%TD.AperFunction*%
%TO.P,J1,4*%
%TO.N,Net-(J1-Pad4)*%
%TA.AperFunction,ComponentPad*%
G36*
G01*
X150864593Y-69991404D02*
X149514593Y-69991404D01*
G75*
G02*
X149089593Y-69566404I0J425000D01*
G01*
X149089593Y-68716404D01*
G75*
G02*
X149514593Y-68291404I425000J0D01*
G01*
X150864593Y-68291404D01*
G75*
G02*
X151289593Y-68716404I0J-425000D01*
G01*
X151289593Y-69566404D01*
G75*
G02*
X150864593Y-69991404I-425000J0D01*
G01*
G37*
%TD.AperFunction*%
%TO.P,J1,5*%
%TO.N,GND*%
%TA.AperFunction,ComponentPad*%
G36*
G01*
X150864593Y-72531404D02*
X149514593Y-72531404D01*
G75*
G02*
X149089593Y-72106404I0J425000D01*
G01*
X149089593Y-71256404D01*
G75*
G02*
X149514593Y-70831404I425000J0D01*
G01*
X150864593Y-70831404D01*
G75*
G02*
X151289593Y-71256404I0J-425000D01*
G01*
X151289593Y-72106404D01*
G75*
G02*
X150864593Y-72531404I-425000J0D01*
G01*
G37*
%TD.AperFunction*%
%TD*%
D14*
%TO.P,U4,3*%
%TO.N,GND*%
X147743593Y-46639404D03*
%TO.P,U4,4*%
%TO.N,+5V*%
X147743593Y-43639404D03*
%TO.P,U4,2*%
%TO.N,data*%
X147743593Y-50639404D03*
%TO.P,U4,1*%
%TO.N,Net-(U4-Pad1)*%
X152343593Y-51739404D03*
%TD*%
%TO.P,U3,3*%
%TO.N,GND*%
X152343593Y-46639404D03*
%TO.P,U3,4*%
%TO.N,+5V*%
X152343593Y-43639404D03*
%TO.P,U3,2*%
%TO.N,data*%
X152343593Y-50639404D03*
%TO.P,U3,1*%
%TO.N,Net-(U3-Pad1)*%
X147743593Y-51739404D03*
%TD*%
%TO.P,D51,3*%
%TO.N,GND*%
%TA.AperFunction,SMDPad,CuDef*%
G36*
G01*
X116115586Y-78106488D02*
X114679586Y-78106488D01*
G75*
G02*
X114597586Y-78024488I0J82000D01*
G01*
X114597586Y-77368488D01*
G75*
G02*
X114679586Y-77286488I82000J0D01*
G01*
X116115586Y-77286488D01*
G75*
G02*
X116197586Y-77368488I0J-82000D01*
G01*
X116197586Y-78024488D01*
G75*
G02*
X116115586Y-78106488I-82000J0D01*
G01*
G37*
%TD.AperFunction*%
%TO.P,D51,4*%
%TO.N,Net-(D50-Pad2)*%
%TA.AperFunction,SMDPad,CuDef*%
G36*
G01*
X116115586Y-79606488D02*
X114679586Y-79606488D01*
G75*
G02*
X114597586Y-79524488I0J82000D01*
G01*
X114597586Y-78868488D01*
G75*
G02*
X114679586Y-78786488I82000J0D01*
G01*
X116115586Y-78786488D01*
G75*
G02*
X116197586Y-78868488I0J-82000D01*
G01*
X116197586Y-79524488D01*
G75*
G02*
X116115586Y-79606488I-82000J0D01*
G01*
G37*
%TD.AperFunction*%
%TO.P,D51,2*%
%TO.N,Net-(D51-Pad2)*%
%TA.AperFunction,SMDPad,CuDef*%
G36*
G01*
X121315586Y-78106488D02*
X119879586Y-78106488D01*
G75*
G02*
X119797586Y-78024488I0J82000D01*
G01*
X119797586Y-77368488D01*
G75*
G02*
X119879586Y-77286488I82000J0D01*
G01*
X121315586Y-77286488D01*
G75*
G02*
X121397586Y-77368488I0J-82000D01*
G01*
X121397586Y-78024488D01*
G75*
G02*
X121315586Y-78106488I-82000J0D01*
G01*
G37*
%TD.AperFunction*%
%TO.P,D51,1*%
%TO.N,+5V*%
%TA.AperFunction,SMDPad,CuDef*%
G36*
G01*
X121315586Y-79606488D02*
X119879586Y-79606488D01*
G75*
G02*
X119797586Y-79524488I0J82000D01*
G01*
X119797586Y-78868488D01*
G75*
G02*
X119879586Y-78786488I82000J0D01*
G01*
X121315586Y-78786488D01*
G75*
G02*
X121397586Y-78868488I0J-82000D01*
G01*
X121397586Y-79524488D01*
G75*
G02*
X121315586Y-79606488I-82000J0D01*
G01*
G37*
%TD.AperFunction*%
%TD*%
D15*
%TO.P,D6,2*%
%TO.N,Net-(D26-Pad2)*%
X107522993Y-112118204D03*
%TO.P,D6,1*%
%TO.N,row3*%
X104222993Y-112118204D03*
%TD*%
D16*
%TO.P,U1,24*%
%TO.N,row0*%
X106609593Y-34978404D03*
%TO.P,U1,12*%
%TO.N,ENC1B*%
X91369593Y-62918404D03*
%TO.P,U1,23*%
%TO.N,GND*%
X106609593Y-37518404D03*
%TO.P,U1,22*%
%TO.N,RESET*%
X106609593Y-40058404D03*
%TO.P,U1,21*%
%TO.N,+5V*%
X106609593Y-42598404D03*
%TO.P,U1,20*%
%TO.N,data*%
X106609593Y-45138404D03*
%TO.P,U1,19*%
%TO.N,col2*%
X106609593Y-47678404D03*
%TO.P,U1,18*%
%TO.N,Net-(U1-Pad18)*%
X106609593Y-50218404D03*
%TO.P,U1,17*%
%TO.N,Net-(U1-Pad17)*%
X106609593Y-52758404D03*
%TO.P,U1,16*%
%TO.N,col3*%
X106609593Y-55298404D03*
%TO.P,U1,15*%
%TO.N,row2*%
X106609593Y-57838404D03*
%TO.P,U1,14*%
%TO.N,col4*%
X106609593Y-60378404D03*
%TO.P,U1,13*%
%TO.N,Net-(U1-Pad13)*%
X106609593Y-62918404D03*
%TO.P,U1,11*%
%TO.N,ENC1A*%
X91369593Y-60378404D03*
%TO.P,U1,10*%
%TO.N,row3*%
X91369593Y-57838404D03*
%TO.P,U1,9*%
%TO.N,row1*%
X91369593Y-55298404D03*
%TO.P,U1,8*%
%TO.N,Net-(U1-Pad8)*%
X91369593Y-52758404D03*
%TO.P,U1,7*%
%TO.N,col1*%
X91369593Y-50218404D03*
%TO.P,U1,6*%
%TO.N,scl*%
X91369593Y-47678404D03*
%TO.P,U1,5*%
%TO.N,sda*%
X91369593Y-45138404D03*
%TO.P,U1,4*%
%TO.N,GND*%
X91369593Y-42598404D03*
%TO.P,U1,3*%
X91369593Y-40058404D03*
%TO.P,U1,2*%
%TO.N,col0*%
X91369593Y-37518404D03*
D17*
%TO.P,U1,1*%
%TO.N,led*%
X91369593Y-34978404D03*
%TD*%
%TO.P,D59,3*%
%TO.N,GND*%
%TA.AperFunction,SMDPad,CuDef*%
G36*
G01*
X125051439Y-99976293D02*
X123637255Y-99726935D01*
G75*
G02*
X123570740Y-99631942I14239J80754D01*
G01*
X123684654Y-98985908D01*
G75*
G02*
X123779647Y-98919393I80754J-14239D01*
G01*
X125193831Y-99168751D01*
G75*
G02*
X125260346Y-99263744I-14239J-80754D01*
G01*
X125146432Y-99909778D01*
G75*
G02*
X125051439Y-99976293I-80754J14239D01*
G01*
G37*
%TD.AperFunction*%
%TO.P,D59,4*%
%TO.N,Net-(D57-Pad2)*%
%TA.AperFunction,SMDPad,CuDef*%
G36*
G01*
X124790966Y-101453504D02*
X123376782Y-101204146D01*
G75*
G02*
X123310267Y-101109153I14239J80754D01*
G01*
X123424181Y-100463119D01*
G75*
G02*
X123519174Y-100396604I80754J-14239D01*
G01*
X124933358Y-100645962D01*
G75*
G02*
X124999873Y-100740955I-14239J-80754D01*
G01*
X124885959Y-101386989D01*
G75*
G02*
X124790966Y-101453504I-80754J14239D01*
G01*
G37*
%TD.AperFunction*%
%TO.P,D59,2*%
%TO.N,Net-(D59-Pad2)*%
%TA.AperFunction,SMDPad,CuDef*%
G36*
G01*
X130172439Y-100879263D02*
X128758255Y-100629905D01*
G75*
G02*
X128691740Y-100534912I14239J80754D01*
G01*
X128805654Y-99888878D01*
G75*
G02*
X128900647Y-99822363I80754J-14239D01*
G01*
X130314831Y-100071721D01*
G75*
G02*
X130381346Y-100166714I-14239J-80754D01*
G01*
X130267432Y-100812748D01*
G75*
G02*
X130172439Y-100879263I-80754J14239D01*
G01*
G37*
%TD.AperFunction*%
%TO.P,D59,1*%
%TO.N,+5V*%
%TA.AperFunction,SMDPad,CuDef*%
G36*
G01*
X129911967Y-102356475D02*
X128497783Y-102107117D01*
G75*
G02*
X128431268Y-102012124I14239J80754D01*
G01*
X128545182Y-101366090D01*
G75*
G02*
X128640175Y-101299575I80754J-14239D01*
G01*
X130054359Y-101548933D01*
G75*
G02*
X130120874Y-101643926I-14239J-80754D01*
G01*
X130006960Y-102289960D01*
G75*
G02*
X129911967Y-102356475I-80754J14239D01*
G01*
G37*
%TD.AperFunction*%
%TD*%
%TO.P,D57,3*%
%TO.N,GND*%
%TA.AperFunction,SMDPad,CuDef*%
G36*
G01*
X103196593Y-98294405D02*
X101760593Y-98294405D01*
G75*
G02*
X101678593Y-98212405I0J82000D01*
G01*
X101678593Y-97556405D01*
G75*
G02*
X101760593Y-97474405I82000J0D01*
G01*
X103196593Y-97474405D01*
G75*
G02*
X103278593Y-97556405I0J-82000D01*
G01*
X103278593Y-98212405D01*
G75*
G02*
X103196593Y-98294405I-82000J0D01*
G01*
G37*
%TD.AperFunction*%
%TO.P,D57,4*%
%TO.N,Net-(D56-Pad2)*%
%TA.AperFunction,SMDPad,CuDef*%
G36*
G01*
X103196593Y-99794405D02*
X101760593Y-99794405D01*
G75*
G02*
X101678593Y-99712405I0J82000D01*
G01*
X101678593Y-99056405D01*
G75*
G02*
X101760593Y-98974405I82000J0D01*
G01*
X103196593Y-98974405D01*
G75*
G02*
X103278593Y-99056405I0J-82000D01*
G01*
X103278593Y-99712405D01*
G75*
G02*
X103196593Y-99794405I-82000J0D01*
G01*
G37*
%TD.AperFunction*%
%TO.P,D57,2*%
%TO.N,Net-(D57-Pad2)*%
%TA.AperFunction,SMDPad,CuDef*%
G36*
G01*
X108396593Y-98294405D02*
X106960593Y-98294405D01*
G75*
G02*
X106878593Y-98212405I0J82000D01*
G01*
X106878593Y-97556405D01*
G75*
G02*
X106960593Y-97474405I82000J0D01*
G01*
X108396593Y-97474405D01*
G75*
G02*
X108478593Y-97556405I0J-82000D01*
G01*
X108478593Y-98212405D01*
G75*
G02*
X108396593Y-98294405I-82000J0D01*
G01*
G37*
%TD.AperFunction*%
%TO.P,D57,1*%
%TO.N,+5V*%
%TA.AperFunction,SMDPad,CuDef*%
G36*
G01*
X108396593Y-99794405D02*
X106960593Y-99794405D01*
G75*
G02*
X106878593Y-99712405I0J82000D01*
G01*
X106878593Y-99056405D01*
G75*
G02*
X106960593Y-98974405I82000J0D01*
G01*
X108396593Y-98974405D01*
G75*
G02*
X108478593Y-99056405I0J-82000D01*
G01*
X108478593Y-99712405D01*
G75*
G02*
X108396593Y-99794405I-82000J0D01*
G01*
G37*
%TD.AperFunction*%
%TD*%
%TO.P,D60,3*%
%TO.N,GND*%
%TA.AperFunction,SMDPad,CuDef*%
G36*
G01*
X146333362Y-105339142D02*
X144983963Y-104848001D01*
G75*
G02*
X144934954Y-104742900I28046J77055D01*
G01*
X145159319Y-104126461D01*
G75*
G02*
X145264420Y-104077452I77055J-28046D01*
G01*
X146613819Y-104568593D01*
G75*
G02*
X146662828Y-104673694I-28046J-77055D01*
G01*
X146438463Y-105290133D01*
G75*
G02*
X146333362Y-105339142I-77055J28046D01*
G01*
G37*
%TD.AperFunction*%
%TO.P,D60,4*%
%TO.N,Net-(D59-Pad2)*%
%TA.AperFunction,SMDPad,CuDef*%
G36*
G01*
X145820332Y-106748681D02*
X144470933Y-106257540D01*
G75*
G02*
X144421924Y-106152439I28046J77055D01*
G01*
X144646289Y-105536000D01*
G75*
G02*
X144751390Y-105486991I77055J-28046D01*
G01*
X146100789Y-105978132D01*
G75*
G02*
X146149798Y-106083233I-28046J-77055D01*
G01*
X145925433Y-106699672D01*
G75*
G02*
X145820332Y-106748681I-77055J28046D01*
G01*
G37*
%TD.AperFunction*%
%TO.P,D60,2*%
%TO.N,Net-(D60-Pad2)*%
%TA.AperFunction,SMDPad,CuDef*%
G36*
G01*
X151219764Y-107117646D02*
X149870365Y-106626505D01*
G75*
G02*
X149821356Y-106521404I28046J77055D01*
G01*
X150045721Y-105904965D01*
G75*
G02*
X150150822Y-105855956I77055J-28046D01*
G01*
X151500221Y-106347097D01*
G75*
G02*
X151549230Y-106452198I-28046J-77055D01*
G01*
X151324865Y-107068637D01*
G75*
G02*
X151219764Y-107117646I-77055J28046D01*
G01*
G37*
%TD.AperFunction*%
%TO.P,D60,1*%
%TO.N,+5V*%
%TA.AperFunction,SMDPad,CuDef*%
G36*
G01*
X150706734Y-108527185D02*
X149357335Y-108036044D01*
G75*
G02*
X149308326Y-107930943I28046J77055D01*
G01*
X149532691Y-107314504D01*
G75*
G02*
X149637792Y-107265495I77055J-28046D01*
G01*
X150987191Y-107756636D01*
G75*
G02*
X151036200Y-107861737I-28046J-77055D01*
G01*
X150811835Y-108478176D01*
G75*
G02*
X150706734Y-108527185I-77055J28046D01*
G01*
G37*
%TD.AperFunction*%
%TD*%
%TO.P,D56,3*%
%TO.N,GND*%
%TA.AperFunction,SMDPad,CuDef*%
G36*
G01*
X135115585Y-80606488D02*
X133679585Y-80606488D01*
G75*
G02*
X133597585Y-80524488I0J82000D01*
G01*
X133597585Y-79868488D01*
G75*
G02*
X133679585Y-79786488I82000J0D01*
G01*
X135115585Y-79786488D01*
G75*
G02*
X135197585Y-79868488I0J-82000D01*
G01*
X135197585Y-80524488D01*
G75*
G02*
X135115585Y-80606488I-82000J0D01*
G01*
G37*
%TD.AperFunction*%
%TO.P,D56,4*%
%TO.N,Net-(D55-Pad2)*%
%TA.AperFunction,SMDPad,CuDef*%
G36*
G01*
X135115585Y-82106488D02*
X133679585Y-82106488D01*
G75*
G02*
X133597585Y-82024488I0J82000D01*
G01*
X133597585Y-81368488D01*
G75*
G02*
X133679585Y-81286488I82000J0D01*
G01*
X135115585Y-81286488D01*
G75*
G02*
X135197585Y-81368488I0J-82000D01*
G01*
X135197585Y-82024488D01*
G75*
G02*
X135115585Y-82106488I-82000J0D01*
G01*
G37*
%TD.AperFunction*%
%TO.P,D56,2*%
%TO.N,Net-(D56-Pad2)*%
%TA.AperFunction,SMDPad,CuDef*%
G36*
G01*
X140315585Y-80606488D02*
X138879585Y-80606488D01*
G75*
G02*
X138797585Y-80524488I0J82000D01*
G01*
X138797585Y-79868488D01*
G75*
G02*
X138879585Y-79786488I82000J0D01*
G01*
X140315585Y-79786488D01*
G75*
G02*
X140397585Y-79868488I0J-82000D01*
G01*
X140397585Y-80524488D01*
G75*
G02*
X140315585Y-80606488I-82000J0D01*
G01*
G37*
%TD.AperFunction*%
%TO.P,D56,1*%
%TO.N,+5V*%
%TA.AperFunction,SMDPad,CuDef*%
G36*
G01*
X140315585Y-82106488D02*
X138879585Y-82106488D01*
G75*
G02*
X138797585Y-82024488I0J82000D01*
G01*
X138797585Y-81368488D01*
G75*
G02*
X138879585Y-81286488I82000J0D01*
G01*
X140315585Y-81286488D01*
G75*
G02*
X140397585Y-81368488I0J-82000D01*
G01*
X140397585Y-82024488D01*
G75*
G02*
X140315585Y-82106488I-82000J0D01*
G01*
G37*
%TD.AperFunction*%
%TD*%
D18*
%TO.P,D81,2*%
%TO.N,Net-(D37-Pad2)*%
X72192593Y-108258404D03*
%TO.P,D81,1*%
%TO.N,row3*%
X72192593Y-111558404D03*
%TD*%
%TO.P,D45,3*%
%TO.N,GND*%
%TA.AperFunction,SMDPad,CuDef*%
G36*
G01*
X78115587Y-78106487D02*
X76679587Y-78106487D01*
G75*
G02*
X76597587Y-78024487I0J82000D01*
G01*
X76597587Y-77368487D01*
G75*
G02*
X76679587Y-77286487I82000J0D01*
G01*
X78115587Y-77286487D01*
G75*
G02*
X78197587Y-77368487I0J-82000D01*
G01*
X78197587Y-78024487D01*
G75*
G02*
X78115587Y-78106487I-82000J0D01*
G01*
G37*
%TD.AperFunction*%
%TO.P,D45,4*%
%TO.N,Net-(D43-Pad2)*%
%TA.AperFunction,SMDPad,CuDef*%
G36*
G01*
X78115587Y-79606487D02*
X76679587Y-79606487D01*
G75*
G02*
X76597587Y-79524487I0J82000D01*
G01*
X76597587Y-78868487D01*
G75*
G02*
X76679587Y-78786487I82000J0D01*
G01*
X78115587Y-78786487D01*
G75*
G02*
X78197587Y-78868487I0J-82000D01*
G01*
X78197587Y-79524487D01*
G75*
G02*
X78115587Y-79606487I-82000J0D01*
G01*
G37*
%TD.AperFunction*%
%TO.P,D45,2*%
%TO.N,Net-(D45-Pad2)*%
%TA.AperFunction,SMDPad,CuDef*%
G36*
G01*
X83315587Y-78106487D02*
X81879587Y-78106487D01*
G75*
G02*
X81797587Y-78024487I0J82000D01*
G01*
X81797587Y-77368487D01*
G75*
G02*
X81879587Y-77286487I82000J0D01*
G01*
X83315587Y-77286487D01*
G75*
G02*
X83397587Y-77368487I0J-82000D01*
G01*
X83397587Y-78024487D01*
G75*
G02*
X83315587Y-78106487I-82000J0D01*
G01*
G37*
%TD.AperFunction*%
%TO.P,D45,1*%
%TO.N,+5V*%
%TA.AperFunction,SMDPad,CuDef*%
G36*
G01*
X83315587Y-79606487D02*
X81879587Y-79606487D01*
G75*
G02*
X81797587Y-79524487I0J82000D01*
G01*
X81797587Y-78868487D01*
G75*
G02*
X81879587Y-78786487I82000J0D01*
G01*
X83315587Y-78786487D01*
G75*
G02*
X83397587Y-78868487I0J-82000D01*
G01*
X83397587Y-79524487D01*
G75*
G02*
X83315587Y-79606487I-82000J0D01*
G01*
G37*
%TD.AperFunction*%
%TD*%
%TO.P,D53,3*%
%TO.N,GND*%
%TA.AperFunction,SMDPad,CuDef*%
G36*
G01*
X116115586Y-40106489D02*
X114679586Y-40106489D01*
G75*
G02*
X114597586Y-40024489I0J82000D01*
G01*
X114597586Y-39368489D01*
G75*
G02*
X114679586Y-39286489I82000J0D01*
G01*
X116115586Y-39286489D01*
G75*
G02*
X116197586Y-39368489I0J-82000D01*
G01*
X116197586Y-40024489D01*
G75*
G02*
X116115586Y-40106489I-82000J0D01*
G01*
G37*
%TD.AperFunction*%
%TO.P,D53,4*%
%TO.N,Net-(D52-Pad2)*%
%TA.AperFunction,SMDPad,CuDef*%
G36*
G01*
X116115586Y-41606489D02*
X114679586Y-41606489D01*
G75*
G02*
X114597586Y-41524489I0J82000D01*
G01*
X114597586Y-40868489D01*
G75*
G02*
X114679586Y-40786489I82000J0D01*
G01*
X116115586Y-40786489D01*
G75*
G02*
X116197586Y-40868489I0J-82000D01*
G01*
X116197586Y-41524489D01*
G75*
G02*
X116115586Y-41606489I-82000J0D01*
G01*
G37*
%TD.AperFunction*%
%TO.P,D53,2*%
%TO.N,Net-(D53-Pad2)*%
%TA.AperFunction,SMDPad,CuDef*%
G36*
G01*
X121315586Y-40106489D02*
X119879586Y-40106489D01*
G75*
G02*
X119797586Y-40024489I0J82000D01*
G01*
X119797586Y-39368489D01*
G75*
G02*
X119879586Y-39286489I82000J0D01*
G01*
X121315586Y-39286489D01*
G75*
G02*
X121397586Y-39368489I0J-82000D01*
G01*
X121397586Y-40024489D01*
G75*
G02*
X121315586Y-40106489I-82000J0D01*
G01*
G37*
%TD.AperFunction*%
%TO.P,D53,1*%
%TO.N,+5V*%
%TA.AperFunction,SMDPad,CuDef*%
G36*
G01*
X121315586Y-41606489D02*
X119879586Y-41606489D01*
G75*
G02*
X119797586Y-41524489I0J82000D01*
G01*
X119797586Y-40868489D01*
G75*
G02*
X119879586Y-40786489I82000J0D01*
G01*
X121315586Y-40786489D01*
G75*
G02*
X121397586Y-40868489I0J-82000D01*
G01*
X121397586Y-41524489D01*
G75*
G02*
X121315586Y-41606489I-82000J0D01*
G01*
G37*
%TD.AperFunction*%
%TD*%
%TO.P,D52,3*%
%TO.N,GND*%
%TA.AperFunction,SMDPad,CuDef*%
G36*
G01*
X116115586Y-59106488D02*
X114679586Y-59106488D01*
G75*
G02*
X114597586Y-59024488I0J82000D01*
G01*
X114597586Y-58368488D01*
G75*
G02*
X114679586Y-58286488I82000J0D01*
G01*
X116115586Y-58286488D01*
G75*
G02*
X116197586Y-58368488I0J-82000D01*
G01*
X116197586Y-59024488D01*
G75*
G02*
X116115586Y-59106488I-82000J0D01*
G01*
G37*
%TD.AperFunction*%
%TO.P,D52,4*%
%TO.N,Net-(D51-Pad2)*%
%TA.AperFunction,SMDPad,CuDef*%
G36*
G01*
X116115586Y-60606488D02*
X114679586Y-60606488D01*
G75*
G02*
X114597586Y-60524488I0J82000D01*
G01*
X114597586Y-59868488D01*
G75*
G02*
X114679586Y-59786488I82000J0D01*
G01*
X116115586Y-59786488D01*
G75*
G02*
X116197586Y-59868488I0J-82000D01*
G01*
X116197586Y-60524488D01*
G75*
G02*
X116115586Y-60606488I-82000J0D01*
G01*
G37*
%TD.AperFunction*%
%TO.P,D52,2*%
%TO.N,Net-(D52-Pad2)*%
%TA.AperFunction,SMDPad,CuDef*%
G36*
G01*
X121315586Y-59106488D02*
X119879586Y-59106488D01*
G75*
G02*
X119797586Y-59024488I0J82000D01*
G01*
X119797586Y-58368488D01*
G75*
G02*
X119879586Y-58286488I82000J0D01*
G01*
X121315586Y-58286488D01*
G75*
G02*
X121397586Y-58368488I0J-82000D01*
G01*
X121397586Y-59024488D01*
G75*
G02*
X121315586Y-59106488I-82000J0D01*
G01*
G37*
%TD.AperFunction*%
%TO.P,D52,1*%
%TO.N,+5V*%
%TA.AperFunction,SMDPad,CuDef*%
G36*
G01*
X121315586Y-60606488D02*
X119879586Y-60606488D01*
G75*
G02*
X119797586Y-60524488I0J82000D01*
G01*
X119797586Y-59868488D01*
G75*
G02*
X119879586Y-59786488I82000J0D01*
G01*
X121315586Y-59786488D01*
G75*
G02*
X121397586Y-59868488I0J-82000D01*
G01*
X121397586Y-60524488D01*
G75*
G02*
X121315586Y-60606488I-82000J0D01*
G01*
G37*
%TD.AperFunction*%
%TD*%
%TO.P,D54,3*%
%TO.N,GND*%
%TA.AperFunction,SMDPad,CuDef*%
G36*
G01*
X135115585Y-42606490D02*
X133679585Y-42606490D01*
G75*
G02*
X133597585Y-42524490I0J82000D01*
G01*
X133597585Y-41868490D01*
G75*
G02*
X133679585Y-41786490I82000J0D01*
G01*
X135115585Y-41786490D01*
G75*
G02*
X135197585Y-41868490I0J-82000D01*
G01*
X135197585Y-42524490D01*
G75*
G02*
X135115585Y-42606490I-82000J0D01*
G01*
G37*
%TD.AperFunction*%
%TO.P,D54,4*%
%TO.N,Net-(D53-Pad2)*%
%TA.AperFunction,SMDPad,CuDef*%
G36*
G01*
X135115585Y-44106490D02*
X133679585Y-44106490D01*
G75*
G02*
X133597585Y-44024490I0J82000D01*
G01*
X133597585Y-43368490D01*
G75*
G02*
X133679585Y-43286490I82000J0D01*
G01*
X135115585Y-43286490D01*
G75*
G02*
X135197585Y-43368490I0J-82000D01*
G01*
X135197585Y-44024490D01*
G75*
G02*
X135115585Y-44106490I-82000J0D01*
G01*
G37*
%TD.AperFunction*%
%TO.P,D54,2*%
%TO.N,Net-(D54-Pad2)*%
%TA.AperFunction,SMDPad,CuDef*%
G36*
G01*
X140315585Y-42606490D02*
X138879585Y-42606490D01*
G75*
G02*
X138797585Y-42524490I0J82000D01*
G01*
X138797585Y-41868490D01*
G75*
G02*
X138879585Y-41786490I82000J0D01*
G01*
X140315585Y-41786490D01*
G75*
G02*
X140397585Y-41868490I0J-82000D01*
G01*
X140397585Y-42524490D01*
G75*
G02*
X140315585Y-42606490I-82000J0D01*
G01*
G37*
%TD.AperFunction*%
%TO.P,D54,1*%
%TO.N,+5V*%
%TA.AperFunction,SMDPad,CuDef*%
G36*
G01*
X140315585Y-44106490D02*
X138879585Y-44106490D01*
G75*
G02*
X138797585Y-44024490I0J82000D01*
G01*
X138797585Y-43368490D01*
G75*
G02*
X138879585Y-43286490I82000J0D01*
G01*
X140315585Y-43286490D01*
G75*
G02*
X140397585Y-43368490I0J-82000D01*
G01*
X140397585Y-44024490D01*
G75*
G02*
X140315585Y-44106490I-82000J0D01*
G01*
G37*
%TD.AperFunction*%
%TD*%
%TO.P,D50,3*%
%TO.N,GND*%
%TA.AperFunction,SMDPad,CuDef*%
G36*
G01*
X97115586Y-73106488D02*
X95679586Y-73106488D01*
G75*
G02*
X95597586Y-73024488I0J82000D01*
G01*
X95597586Y-72368488D01*
G75*
G02*
X95679586Y-72286488I82000J0D01*
G01*
X97115586Y-72286488D01*
G75*
G02*
X97197586Y-72368488I0J-82000D01*
G01*
X97197586Y-73024488D01*
G75*
G02*
X97115586Y-73106488I-82000J0D01*
G01*
G37*
%TD.AperFunction*%
%TO.P,D50,4*%
%TO.N,Net-(D49-Pad2)*%
%TA.AperFunction,SMDPad,CuDef*%
G36*
G01*
X97115586Y-74606488D02*
X95679586Y-74606488D01*
G75*
G02*
X95597586Y-74524488I0J82000D01*
G01*
X95597586Y-73868488D01*
G75*
G02*
X95679586Y-73786488I82000J0D01*
G01*
X97115586Y-73786488D01*
G75*
G02*
X97197586Y-73868488I0J-82000D01*
G01*
X97197586Y-74524488D01*
G75*
G02*
X97115586Y-74606488I-82000J0D01*
G01*
G37*
%TD.AperFunction*%
%TO.P,D50,2*%
%TO.N,Net-(D50-Pad2)*%
%TA.AperFunction,SMDPad,CuDef*%
G36*
G01*
X102315586Y-73106488D02*
X100879586Y-73106488D01*
G75*
G02*
X100797586Y-73024488I0J82000D01*
G01*
X100797586Y-72368488D01*
G75*
G02*
X100879586Y-72286488I82000J0D01*
G01*
X102315586Y-72286488D01*
G75*
G02*
X102397586Y-72368488I0J-82000D01*
G01*
X102397586Y-73024488D01*
G75*
G02*
X102315586Y-73106488I-82000J0D01*
G01*
G37*
%TD.AperFunction*%
%TO.P,D50,1*%
%TO.N,+5V*%
%TA.AperFunction,SMDPad,CuDef*%
G36*
G01*
X102315586Y-74606488D02*
X100879586Y-74606488D01*
G75*
G02*
X100797586Y-74524488I0J82000D01*
G01*
X100797586Y-73868488D01*
G75*
G02*
X100879586Y-73786488I82000J0D01*
G01*
X102315586Y-73786488D01*
G75*
G02*
X102397586Y-73868488I0J-82000D01*
G01*
X102397586Y-74524488D01*
G75*
G02*
X102315586Y-74606488I-82000J0D01*
G01*
G37*
%TD.AperFunction*%
%TD*%
%TO.P,D43,3*%
%TO.N,GND*%
%TA.AperFunction,SMDPad,CuDef*%
G36*
G01*
X59115588Y-90606486D02*
X57679588Y-90606486D01*
G75*
G02*
X57597588Y-90524486I0J82000D01*
G01*
X57597588Y-89868486D01*
G75*
G02*
X57679588Y-89786486I82000J0D01*
G01*
X59115588Y-89786486D01*
G75*
G02*
X59197588Y-89868486I0J-82000D01*
G01*
X59197588Y-90524486D01*
G75*
G02*
X59115588Y-90606486I-82000J0D01*
G01*
G37*
%TD.AperFunction*%
%TO.P,D43,4*%
%TO.N,Net-(D42-Pad2)*%
%TA.AperFunction,SMDPad,CuDef*%
G36*
G01*
X59115588Y-92106486D02*
X57679588Y-92106486D01*
G75*
G02*
X57597588Y-92024486I0J82000D01*
G01*
X57597588Y-91368486D01*
G75*
G02*
X57679588Y-91286486I82000J0D01*
G01*
X59115588Y-91286486D01*
G75*
G02*
X59197588Y-91368486I0J-82000D01*
G01*
X59197588Y-92024486D01*
G75*
G02*
X59115588Y-92106486I-82000J0D01*
G01*
G37*
%TD.AperFunction*%
%TO.P,D43,2*%
%TO.N,Net-(D43-Pad2)*%
%TA.AperFunction,SMDPad,CuDef*%
G36*
G01*
X64315588Y-90606486D02*
X62879588Y-90606486D01*
G75*
G02*
X62797588Y-90524486I0J82000D01*
G01*
X62797588Y-89868486D01*
G75*
G02*
X62879588Y-89786486I82000J0D01*
G01*
X64315588Y-89786486D01*
G75*
G02*
X64397588Y-89868486I0J-82000D01*
G01*
X64397588Y-90524486D01*
G75*
G02*
X64315588Y-90606486I-82000J0D01*
G01*
G37*
%TD.AperFunction*%
%TO.P,D43,1*%
%TO.N,+5V*%
%TA.AperFunction,SMDPad,CuDef*%
G36*
G01*
X64315588Y-92106486D02*
X62879588Y-92106486D01*
G75*
G02*
X62797588Y-92024486I0J82000D01*
G01*
X62797588Y-91368486D01*
G75*
G02*
X62879588Y-91286486I82000J0D01*
G01*
X64315588Y-91286486D01*
G75*
G02*
X64397588Y-91368486I0J-82000D01*
G01*
X64397588Y-92024486D01*
G75*
G02*
X64315588Y-92106486I-82000J0D01*
G01*
G37*
%TD.AperFunction*%
%TD*%
%TO.P,D49,3*%
%TO.N,GND*%
%TA.AperFunction,SMDPad,CuDef*%
G36*
G01*
X97115587Y-54106488D02*
X95679587Y-54106488D01*
G75*
G02*
X95597587Y-54024488I0J82000D01*
G01*
X95597587Y-53368488D01*
G75*
G02*
X95679587Y-53286488I82000J0D01*
G01*
X97115587Y-53286488D01*
G75*
G02*
X97197587Y-53368488I0J-82000D01*
G01*
X97197587Y-54024488D01*
G75*
G02*
X97115587Y-54106488I-82000J0D01*
G01*
G37*
%TD.AperFunction*%
%TO.P,D49,4*%
%TO.N,Net-(D48-Pad2)*%
%TA.AperFunction,SMDPad,CuDef*%
G36*
G01*
X97115587Y-55606488D02*
X95679587Y-55606488D01*
G75*
G02*
X95597587Y-55524488I0J82000D01*
G01*
X95597587Y-54868488D01*
G75*
G02*
X95679587Y-54786488I82000J0D01*
G01*
X97115587Y-54786488D01*
G75*
G02*
X97197587Y-54868488I0J-82000D01*
G01*
X97197587Y-55524488D01*
G75*
G02*
X97115587Y-55606488I-82000J0D01*
G01*
G37*
%TD.AperFunction*%
%TO.P,D49,2*%
%TO.N,Net-(D49-Pad2)*%
%TA.AperFunction,SMDPad,CuDef*%
G36*
G01*
X102315587Y-54106488D02*
X100879587Y-54106488D01*
G75*
G02*
X100797587Y-54024488I0J82000D01*
G01*
X100797587Y-53368488D01*
G75*
G02*
X100879587Y-53286488I82000J0D01*
G01*
X102315587Y-53286488D01*
G75*
G02*
X102397587Y-53368488I0J-82000D01*
G01*
X102397587Y-54024488D01*
G75*
G02*
X102315587Y-54106488I-82000J0D01*
G01*
G37*
%TD.AperFunction*%
%TO.P,D49,1*%
%TO.N,+5V*%
%TA.AperFunction,SMDPad,CuDef*%
G36*
G01*
X102315587Y-55606488D02*
X100879587Y-55606488D01*
G75*
G02*
X100797587Y-55524488I0J82000D01*
G01*
X100797587Y-54868488D01*
G75*
G02*
X100879587Y-54786488I82000J0D01*
G01*
X102315587Y-54786488D01*
G75*
G02*
X102397587Y-54868488I0J-82000D01*
G01*
X102397587Y-55524488D01*
G75*
G02*
X102315587Y-55606488I-82000J0D01*
G01*
G37*
%TD.AperFunction*%
%TD*%
%TO.P,D46,3*%
%TO.N,GND*%
%TA.AperFunction,SMDPad,CuDef*%
G36*
G01*
X78115588Y-59106488D02*
X76679588Y-59106488D01*
G75*
G02*
X76597588Y-59024488I0J82000D01*
G01*
X76597588Y-58368488D01*
G75*
G02*
X76679588Y-58286488I82000J0D01*
G01*
X78115588Y-58286488D01*
G75*
G02*
X78197588Y-58368488I0J-82000D01*
G01*
X78197588Y-59024488D01*
G75*
G02*
X78115588Y-59106488I-82000J0D01*
G01*
G37*
%TD.AperFunction*%
%TO.P,D46,4*%
%TO.N,Net-(D45-Pad2)*%
%TA.AperFunction,SMDPad,CuDef*%
G36*
G01*
X78115588Y-60606488D02*
X76679588Y-60606488D01*
G75*
G02*
X76597588Y-60524488I0J82000D01*
G01*
X76597588Y-59868488D01*
G75*
G02*
X76679588Y-59786488I82000J0D01*
G01*
X78115588Y-59786488D01*
G75*
G02*
X78197588Y-59868488I0J-82000D01*
G01*
X78197588Y-60524488D01*
G75*
G02*
X78115588Y-60606488I-82000J0D01*
G01*
G37*
%TD.AperFunction*%
%TO.P,D46,2*%
%TO.N,Net-(D46-Pad2)*%
%TA.AperFunction,SMDPad,CuDef*%
G36*
G01*
X83315588Y-59106488D02*
X81879588Y-59106488D01*
G75*
G02*
X81797588Y-59024488I0J82000D01*
G01*
X81797588Y-58368488D01*
G75*
G02*
X81879588Y-58286488I82000J0D01*
G01*
X83315588Y-58286488D01*
G75*
G02*
X83397588Y-58368488I0J-82000D01*
G01*
X83397588Y-59024488D01*
G75*
G02*
X83315588Y-59106488I-82000J0D01*
G01*
G37*
%TD.AperFunction*%
%TO.P,D46,1*%
%TO.N,+5V*%
%TA.AperFunction,SMDPad,CuDef*%
G36*
G01*
X83315588Y-60606488D02*
X81879588Y-60606488D01*
G75*
G02*
X81797588Y-60524488I0J82000D01*
G01*
X81797588Y-59868488D01*
G75*
G02*
X81879588Y-59786488I82000J0D01*
G01*
X83315588Y-59786488D01*
G75*
G02*
X83397588Y-59868488I0J-82000D01*
G01*
X83397588Y-60524488D01*
G75*
G02*
X83315588Y-60606488I-82000J0D01*
G01*
G37*
%TD.AperFunction*%
%TD*%
%TO.P,D42,3*%
%TO.N,GND*%
%TA.AperFunction,SMDPad,CuDef*%
G36*
G01*
X59115589Y-71606487D02*
X57679589Y-71606487D01*
G75*
G02*
X57597589Y-71524487I0J82000D01*
G01*
X57597589Y-70868487D01*
G75*
G02*
X57679589Y-70786487I82000J0D01*
G01*
X59115589Y-70786487D01*
G75*
G02*
X59197589Y-70868487I0J-82000D01*
G01*
X59197589Y-71524487D01*
G75*
G02*
X59115589Y-71606487I-82000J0D01*
G01*
G37*
%TD.AperFunction*%
%TO.P,D42,4*%
%TO.N,Net-(D41-Pad2)*%
%TA.AperFunction,SMDPad,CuDef*%
G36*
G01*
X59115589Y-73106487D02*
X57679589Y-73106487D01*
G75*
G02*
X57597589Y-73024487I0J82000D01*
G01*
X57597589Y-72368487D01*
G75*
G02*
X57679589Y-72286487I82000J0D01*
G01*
X59115589Y-72286487D01*
G75*
G02*
X59197589Y-72368487I0J-82000D01*
G01*
X59197589Y-73024487D01*
G75*
G02*
X59115589Y-73106487I-82000J0D01*
G01*
G37*
%TD.AperFunction*%
%TO.P,D42,2*%
%TO.N,Net-(D42-Pad2)*%
%TA.AperFunction,SMDPad,CuDef*%
G36*
G01*
X64315589Y-71606487D02*
X62879589Y-71606487D01*
G75*
G02*
X62797589Y-71524487I0J82000D01*
G01*
X62797589Y-70868487D01*
G75*
G02*
X62879589Y-70786487I82000J0D01*
G01*
X64315589Y-70786487D01*
G75*
G02*
X64397589Y-70868487I0J-82000D01*
G01*
X64397589Y-71524487D01*
G75*
G02*
X64315589Y-71606487I-82000J0D01*
G01*
G37*
%TD.AperFunction*%
%TO.P,D42,1*%
%TO.N,+5V*%
%TA.AperFunction,SMDPad,CuDef*%
G36*
G01*
X64315589Y-73106487D02*
X62879589Y-73106487D01*
G75*
G02*
X62797589Y-73024487I0J82000D01*
G01*
X62797589Y-72368487D01*
G75*
G02*
X62879589Y-72286487I82000J0D01*
G01*
X64315589Y-72286487D01*
G75*
G02*
X64397589Y-72368487I0J-82000D01*
G01*
X64397589Y-73024487D01*
G75*
G02*
X64315589Y-73106487I-82000J0D01*
G01*
G37*
%TD.AperFunction*%
%TD*%
%TO.P,D55,3*%
%TO.N,GND*%
%TA.AperFunction,SMDPad,CuDef*%
G36*
G01*
X135115585Y-61606489D02*
X133679585Y-61606489D01*
G75*
G02*
X133597585Y-61524489I0J82000D01*
G01*
X133597585Y-60868489D01*
G75*
G02*
X133679585Y-60786489I82000J0D01*
G01*
X135115585Y-60786489D01*
G75*
G02*
X135197585Y-60868489I0J-82000D01*
G01*
X135197585Y-61524489D01*
G75*
G02*
X135115585Y-61606489I-82000J0D01*
G01*
G37*
%TD.AperFunction*%
%TO.P,D55,4*%
%TO.N,Net-(D54-Pad2)*%
%TA.AperFunction,SMDPad,CuDef*%
G36*
G01*
X135115585Y-63106489D02*
X133679585Y-63106489D01*
G75*
G02*
X133597585Y-63024489I0J82000D01*
G01*
X133597585Y-62368489D01*
G75*
G02*
X133679585Y-62286489I82000J0D01*
G01*
X135115585Y-62286489D01*
G75*
G02*
X135197585Y-62368489I0J-82000D01*
G01*
X135197585Y-63024489D01*
G75*
G02*
X135115585Y-63106489I-82000J0D01*
G01*
G37*
%TD.AperFunction*%
%TO.P,D55,2*%
%TO.N,Net-(D55-Pad2)*%
%TA.AperFunction,SMDPad,CuDef*%
G36*
G01*
X140315585Y-61606489D02*
X138879585Y-61606489D01*
G75*
G02*
X138797585Y-61524489I0J82000D01*
G01*
X138797585Y-60868489D01*
G75*
G02*
X138879585Y-60786489I82000J0D01*
G01*
X140315585Y-60786489D01*
G75*
G02*
X140397585Y-60868489I0J-82000D01*
G01*
X140397585Y-61524489D01*
G75*
G02*
X140315585Y-61606489I-82000J0D01*
G01*
G37*
%TD.AperFunction*%
%TO.P,D55,1*%
%TO.N,+5V*%
%TA.AperFunction,SMDPad,CuDef*%
G36*
G01*
X140315585Y-63106489D02*
X138879585Y-63106489D01*
G75*
G02*
X138797585Y-63024489I0J82000D01*
G01*
X138797585Y-62368489D01*
G75*
G02*
X138879585Y-62286489I82000J0D01*
G01*
X140315585Y-62286489D01*
G75*
G02*
X140397585Y-62368489I0J-82000D01*
G01*
X140397585Y-63024489D01*
G75*
G02*
X140315585Y-63106489I-82000J0D01*
G01*
G37*
%TD.AperFunction*%
%TD*%
%TO.P,D47,3*%
%TO.N,GND*%
%TA.AperFunction,SMDPad,CuDef*%
G36*
G01*
X78115588Y-40106489D02*
X76679588Y-40106489D01*
G75*
G02*
X76597588Y-40024489I0J82000D01*
G01*
X76597588Y-39368489D01*
G75*
G02*
X76679588Y-39286489I82000J0D01*
G01*
X78115588Y-39286489D01*
G75*
G02*
X78197588Y-39368489I0J-82000D01*
G01*
X78197588Y-40024489D01*
G75*
G02*
X78115588Y-40106489I-82000J0D01*
G01*
G37*
%TD.AperFunction*%
%TO.P,D47,4*%
%TO.N,Net-(D46-Pad2)*%
%TA.AperFunction,SMDPad,CuDef*%
G36*
G01*
X78115588Y-41606489D02*
X76679588Y-41606489D01*
G75*
G02*
X76597588Y-41524489I0J82000D01*
G01*
X76597588Y-40868489D01*
G75*
G02*
X76679588Y-40786489I82000J0D01*
G01*
X78115588Y-40786489D01*
G75*
G02*
X78197588Y-40868489I0J-82000D01*
G01*
X78197588Y-41524489D01*
G75*
G02*
X78115588Y-41606489I-82000J0D01*
G01*
G37*
%TD.AperFunction*%
%TO.P,D47,2*%
%TO.N,Net-(D47-Pad2)*%
%TA.AperFunction,SMDPad,CuDef*%
G36*
G01*
X83315588Y-40106489D02*
X81879588Y-40106489D01*
G75*
G02*
X81797588Y-40024489I0J82000D01*
G01*
X81797588Y-39368489D01*
G75*
G02*
X81879588Y-39286489I82000J0D01*
G01*
X83315588Y-39286489D01*
G75*
G02*
X83397588Y-39368489I0J-82000D01*
G01*
X83397588Y-40024489D01*
G75*
G02*
X83315588Y-40106489I-82000J0D01*
G01*
G37*
%TD.AperFunction*%
%TO.P,D47,1*%
%TO.N,+5V*%
%TA.AperFunction,SMDPad,CuDef*%
G36*
G01*
X83315588Y-41606489D02*
X81879588Y-41606489D01*
G75*
G02*
X81797588Y-41524489I0J82000D01*
G01*
X81797588Y-40868489D01*
G75*
G02*
X81879588Y-40786489I82000J0D01*
G01*
X83315588Y-40786489D01*
G75*
G02*
X83397588Y-40868489I0J-82000D01*
G01*
X83397588Y-41524489D01*
G75*
G02*
X83315588Y-41606489I-82000J0D01*
G01*
G37*
%TD.AperFunction*%
%TD*%
%TO.P,D41,3*%
%TO.N,GND*%
%TA.AperFunction,SMDPad,CuDef*%
G36*
G01*
X59115589Y-52606488D02*
X57679589Y-52606488D01*
G75*
G02*
X57597589Y-52524488I0J82000D01*
G01*
X57597589Y-51868488D01*
G75*
G02*
X57679589Y-51786488I82000J0D01*
G01*
X59115589Y-51786488D01*
G75*
G02*
X59197589Y-51868488I0J-82000D01*
G01*
X59197589Y-52524488D01*
G75*
G02*
X59115589Y-52606488I-82000J0D01*
G01*
G37*
%TD.AperFunction*%
%TO.P,D41,4*%
%TO.N,led*%
%TA.AperFunction,SMDPad,CuDef*%
G36*
G01*
X59115589Y-54106488D02*
X57679589Y-54106488D01*
G75*
G02*
X57597589Y-54024488I0J82000D01*
G01*
X57597589Y-53368488D01*
G75*
G02*
X57679589Y-53286488I82000J0D01*
G01*
X59115589Y-53286488D01*
G75*
G02*
X59197589Y-53368488I0J-82000D01*
G01*
X59197589Y-54024488D01*
G75*
G02*
X59115589Y-54106488I-82000J0D01*
G01*
G37*
%TD.AperFunction*%
%TO.P,D41,2*%
%TO.N,Net-(D41-Pad2)*%
%TA.AperFunction,SMDPad,CuDef*%
G36*
G01*
X64315589Y-52606488D02*
X62879589Y-52606488D01*
G75*
G02*
X62797589Y-52524488I0J82000D01*
G01*
X62797589Y-51868488D01*
G75*
G02*
X62879589Y-51786488I82000J0D01*
G01*
X64315589Y-51786488D01*
G75*
G02*
X64397589Y-51868488I0J-82000D01*
G01*
X64397589Y-52524488D01*
G75*
G02*
X64315589Y-52606488I-82000J0D01*
G01*
G37*
%TD.AperFunction*%
%TO.P,D41,1*%
%TO.N,+5V*%
%TA.AperFunction,SMDPad,CuDef*%
G36*
G01*
X64315589Y-54106488D02*
X62879589Y-54106488D01*
G75*
G02*
X62797589Y-54024488I0J82000D01*
G01*
X62797589Y-53368488D01*
G75*
G02*
X62879589Y-53286488I82000J0D01*
G01*
X64315589Y-53286488D01*
G75*
G02*
X64397589Y-53368488I0J-82000D01*
G01*
X64397589Y-54024488D01*
G75*
G02*
X64315589Y-54106488I-82000J0D01*
G01*
G37*
%TD.AperFunction*%
%TD*%
%TA.AperFunction,SMDPad,CuDef*%
D19*
%TO.P,D35,2*%
%TO.N,Net-(D35-Pad2)*%
G36*
X145251012Y-119963144D02*
G01*
X145661436Y-118835512D01*
X146507160Y-119143330D01*
X146096736Y-120270962D01*
X145251012Y-119963144D01*
G37*
%TD.AperFunction*%
%TA.AperFunction,SMDPad,CuDef*%
%TO.P,D35,1*%
%TO.N,row3*%
G36*
X142150026Y-118834478D02*
G01*
X142560450Y-117706846D01*
X143406174Y-118014664D01*
X142995750Y-119142296D01*
X142150026Y-118834478D01*
G37*
%TD.AperFunction*%
%TD*%
%TA.AperFunction,SMDPad,CuDef*%
%TO.P,D34,2*%
%TO.N,Net-(D30-Pad2)*%
G36*
X134459855Y-110088123D02*
G01*
X133278086Y-109879746D01*
X133434369Y-108993419D01*
X134616138Y-109201796D01*
X134459855Y-110088123D01*
G37*
%TD.AperFunction*%
%TA.AperFunction,SMDPad,CuDef*%
%TO.P,D34,1*%
%TO.N,row3*%
G36*
X133886817Y-113337989D02*
G01*
X132705048Y-113129612D01*
X132861331Y-112243285D01*
X134043100Y-112451662D01*
X133886817Y-113337989D01*
G37*
%TD.AperFunction*%
%TD*%
D15*
%TO.P,D25,2*%
%TO.N,Net-(D25-Pad2)*%
X139057093Y-94693804D03*
%TO.P,D25,1*%
%TO.N,row2*%
X135757093Y-94693804D03*
%TD*%
D18*
%TO.P,D24,2*%
%TO.N,Net-(D24-Pad2)*%
X126739093Y-86096904D03*
%TO.P,D24,1*%
%TO.N,row2*%
X126739093Y-89396904D03*
%TD*%
%TO.P,D23,2*%
%TO.N,Net-(D20-Pad2)*%
X107752593Y-81067704D03*
%TO.P,D23,1*%
%TO.N,row2*%
X107752593Y-84367704D03*
%TD*%
%TO.P,D22,2*%
%TO.N,Net-(D17-Pad2)*%
X88613693Y-86071504D03*
%TO.P,D22,1*%
%TO.N,row2*%
X88613693Y-89371504D03*
%TD*%
%TO.P,D21,2*%
%TO.N,Net-(D21-Pad2)*%
X69779593Y-98619104D03*
%TO.P,D21,1*%
%TO.N,row2*%
X69779593Y-101919104D03*
%TD*%
D15*
%TO.P,D15,2*%
%TO.N,Net-(D15-Pad2)*%
X138777693Y-75694604D03*
%TO.P,D15,1*%
%TO.N,row1*%
X135477693Y-75694604D03*
%TD*%
D18*
%TO.P,D14,2*%
%TO.N,Net-(D14-Pad2)*%
X126802593Y-67148504D03*
%TO.P,D14,1*%
%TO.N,row1*%
X126802593Y-70448504D03*
%TD*%
D15*
%TO.P,D13,2*%
%TO.N,Net-(D13-Pad2)*%
X100931693Y-68201604D03*
%TO.P,D13,1*%
%TO.N,row1*%
X97631693Y-68201604D03*
%TD*%
D18*
%TO.P,D12,2*%
%TO.N,Net-(D12-Pad2)*%
X88677193Y-67059604D03*
%TO.P,D12,1*%
%TO.N,row1*%
X88677193Y-70359604D03*
%TD*%
%TO.P,D11,2*%
%TO.N,Net-(D11-Pad2)*%
X69677993Y-79569104D03*
%TO.P,D11,1*%
%TO.N,row1*%
X69677993Y-82869104D03*
%TD*%
D15*
%TO.P,D5,2*%
%TO.N,Net-(D31-Pad2)*%
X138752293Y-56733504D03*
%TO.P,D5,1*%
%TO.N,row0*%
X135452293Y-56733504D03*
%TD*%
D18*
%TO.P,D4,2*%
%TO.N,Net-(D27-Pad2)*%
X126726393Y-48860504D03*
%TO.P,D4,1*%
%TO.N,row0*%
X126726393Y-52160504D03*
%TD*%
D15*
%TO.P,D3,2*%
%TO.N,Net-(D18-Pad2)*%
X100626893Y-49100804D03*
%TO.P,D3,1*%
%TO.N,row0*%
X97326893Y-49100804D03*
%TD*%
%TO.P,D2,2*%
%TO.N,Net-(D10-Pad2)*%
X82518693Y-54168104D03*
%TO.P,D2,1*%
%TO.N,row0*%
X85818693Y-54168104D03*
%TD*%
D18*
%TO.P,D1,2*%
%TO.N,Net-(D1-Pad2)*%
X69665293Y-60557204D03*
%TO.P,D1,1*%
%TO.N,row0*%
X69665293Y-63857204D03*
%TD*%
D20*
%TO.N,GND*%
X83292393Y-104269604D03*
X150145193Y-94262004D03*
X75558093Y-36685956D03*
X74542093Y-39702804D03*
X82619293Y-36731004D03*
X63645476Y-49179894D03*
X93680993Y-40007604D03*
X93706393Y-31828804D03*
X101529593Y-31866904D03*
X105009393Y-31981204D03*
X113277093Y-36743704D03*
X111981693Y-39829804D03*
X120566893Y-36756404D03*
X131831793Y-39296404D03*
X130803093Y-42369804D03*
X139540693Y-39334504D03*
X145750993Y-39461504D03*
X93680993Y-36108704D03*
X74272293Y-62016704D03*
X74224593Y-55717504D03*
X139134293Y-59057604D03*
X132025393Y-61165804D03*
X132025393Y-59057604D03*
X120630393Y-56009604D03*
X113483393Y-58740104D03*
X113483393Y-56009604D03*
X103790193Y-52339304D03*
X82631993Y-55717504D03*
X75726293Y-58689304D03*
X75726293Y-55717504D03*
X63594693Y-68455604D03*
X74272293Y-80952404D03*
X74272293Y-74513504D03*
X139642293Y-77739304D03*
X149814993Y-77523404D03*
X120744693Y-74894504D03*
X113356393Y-77675804D03*
X113378693Y-74894504D03*
X101707393Y-70233604D03*
X94687393Y-72621204D03*
X94874793Y-70233604D03*
X82809793Y-74513504D03*
X75726293Y-77713904D03*
X75726293Y-74513504D03*
X63823293Y-87353204D03*
X93134893Y-94909704D03*
X151250093Y-100358004D03*
X143972993Y-103685404D03*
X143909493Y-100358004D03*
X130561793Y-96179704D03*
X121468593Y-99189604D03*
X121370093Y-94909704D03*
X107752593Y-94909704D03*
X99741993Y-97894204D03*
X99741993Y-94909704D03*
X134244793Y-77726604D03*
X144138093Y-77739304D03*
%TO.N,+5V*%
X58006693Y-55476204D03*
X133736793Y-45252704D03*
X115220193Y-42738104D03*
X96322593Y-37772404D03*
X77259893Y-42788904D03*
X57955893Y-74272204D03*
X77297993Y-61813504D03*
X96360693Y-56733504D03*
X115321793Y-61750004D03*
X134333693Y-64201104D03*
X149131093Y-86540404D03*
X58400393Y-93246004D03*
X143833293Y-107635104D03*
X123487893Y-102847204D03*
X102202693Y-100929504D03*
X76447093Y-81371504D03*
X86740443Y-59203654D03*
X86852087Y-80466110D03*
X87407193Y-41366504D03*
X96322593Y-75859704D03*
X114851893Y-80876204D03*
%TO.N,Net-(D1-Pad2)*%
X69665293Y-60557204D03*
%TO.N,row0*%
X69665293Y-63870904D03*
X71189293Y-52885404D03*
X85818693Y-54168104D03*
X97326893Y-49100804D03*
X126726393Y-52160504D03*
X135452293Y-56733504D03*
%TO.N,Net-(D10-Pad2)*%
X82518693Y-54168104D03*
%TO.N,Net-(D11-Pad2)*%
X69677993Y-79569104D03*
%TO.N,row1*%
X69677993Y-82882804D03*
X71151193Y-72252904D03*
X88677193Y-70359604D03*
X97631693Y-68201604D03*
X126802593Y-70448504D03*
X135477693Y-75694604D03*
X91988793Y-68201604D03*
%TO.N,Net-(D12-Pad2)*%
X88677193Y-67059604D03*
%TO.N,Net-(D13-Pad2)*%
X100931693Y-68201604D03*
%TO.N,Net-(D14-Pad2)*%
X126802593Y-67148504D03*
%TO.N,Net-(D15-Pad2)*%
X138777693Y-75694604D03*
%TO.N,Net-(D17-Pad2)*%
X88613693Y-86071504D03*
%TO.N,Net-(D18-Pad2)*%
X100626893Y-49100804D03*
%TO.N,Net-(D20-Pad2)*%
X107752593Y-81067704D03*
%TO.N,Net-(D21-Pad2)*%
X69779593Y-98619104D03*
%TO.N,row2*%
X69779593Y-101932804D03*
X71062293Y-90693304D03*
X88613693Y-89371504D03*
X107752593Y-84367704D03*
X108197093Y-90464704D03*
X126739093Y-89396904D03*
X135757093Y-94693804D03*
X110646475Y-59488022D03*
%TO.N,Net-(D24-Pad2)*%
X126739093Y-86096904D03*
%TO.N,Net-(D25-Pad2)*%
X139057093Y-94693804D03*
%TO.N,Net-(D26-Pad2)*%
X107522993Y-112118204D03*
%TO.N,Net-(D27-Pad2)*%
X126726393Y-48860504D03*
%TO.N,Net-(D31-Pad2)*%
X138752293Y-56733504D03*
%TO.N,row3*%
X109403593Y-112054704D03*
X104222993Y-112118204D03*
X142778100Y-118424571D03*
X72192593Y-111558404D03*
X73373693Y-66372804D03*
%TO.N,Net-(D35-Pad2)*%
X145879086Y-119553237D03*
%TO.N,Net-(D37-Pad2)*%
X79672893Y-106695304D03*
X72192593Y-108258404D03*
%TO.N,Net-(D38-Pad2)*%
X56072215Y-64463726D03*
X57113050Y-65479161D03*
X56914493Y-67655504D03*
X65410793Y-67665104D03*
%TO.N,Net-(D39-Pad2)*%
X117683993Y-69446204D03*
X118712693Y-68265104D03*
%TO.N,Net-(D40-Pad2)*%
X59175093Y-69408104D03*
X67303093Y-69471604D03*
%TO.N,led*%
X85044993Y-37521504D03*
X71976693Y-43906504D03*
X72725993Y-45633704D03*
X64178893Y-55908004D03*
%TO.N,Net-(D41-Pad2)*%
X62680293Y-50154904D03*
X56241393Y-51399504D03*
X56266793Y-53660104D03*
X56879493Y-72646604D03*
%TO.N,Net-(D42-Pad2)*%
X66299793Y-70970204D03*
X57244693Y-93080904D03*
%TO.N,Net-(D45-Pad2)*%
X81171493Y-75478704D03*
X80765093Y-70868604D03*
X79787193Y-69344604D03*
X75748593Y-61369004D03*
%TO.N,Net-(D46-Pad2)*%
X81450893Y-56619204D03*
X80371393Y-51513804D03*
X79635076Y-50117087D03*
X75418393Y-41696704D03*
%TO.N,Net-(D47-Pad2)*%
X84638593Y-39956804D03*
X85375193Y-43296904D03*
X95636793Y-39410704D03*
X94773193Y-37645404D03*
%TO.N,Net-(D48-Pad2)*%
X103320293Y-36502404D03*
X94950993Y-55943004D03*
%TO.N,Net-(D49-Pad2)*%
X104310893Y-55031704D03*
X93465093Y-74196004D03*
%TO.N,Net-(D50-Pad2)*%
X109657593Y-74348404D03*
X109924293Y-76291504D03*
%TO.N,Net-(D51-Pad2)*%
X119601693Y-75796204D03*
X113658093Y-59946604D03*
%TO.N,Net-(D52-Pad2)*%
X119436593Y-56800104D03*
X118712693Y-51742404D03*
X117693593Y-50307304D03*
X113480293Y-41150604D03*
%TO.N,Net-(D54-Pad2)*%
X141648893Y-44198604D03*
X132187393Y-63324804D03*
%TO.N,Net-(D55-Pad2)*%
X141953693Y-61724604D03*
X132101593Y-81536604D03*
%TO.N,Net-(D56-Pad2)*%
X143071293Y-80584104D03*
X143045893Y-93284104D03*
X132129960Y-93278037D03*
X129990293Y-93334904D03*
X96881393Y-92725304D03*
X98278393Y-99367404D03*
%TO.N,Net-(D58-Pad2)*%
X60330793Y-86413404D03*
X67988893Y-86108604D03*
X68509593Y-90604404D03*
X77501193Y-81676304D03*
%TO.N,Net-(D61-Pad2)*%
X115766293Y-37534204D03*
X142080693Y-40134604D03*
%TO.N,Net-(D62-Pad2)*%
X136531076Y-51552187D03*
X137435593Y-52847021D03*
%TO.N,Net-(D64-Pad2)*%
X136733993Y-70436804D03*
X137359393Y-71992271D03*
%TO.N,Net-(D66-Pad2)*%
X132647693Y-80177704D03*
X130647593Y-80355504D03*
X129063193Y-81231804D03*
X124224493Y-81231804D03*
X124033993Y-94084204D03*
X111041893Y-94033404D03*
%TO.N,Net-(D67-Pad2)*%
X77932993Y-37930466D03*
X86213393Y-37683504D03*
X86213393Y-44185904D03*
X96933102Y-38564415D03*
%TO.N,Net-(D68-Pad2)*%
X102748793Y-95700204D03*
X132492193Y-98313304D03*
%TO.N,Net-(D69-Pad2)*%
X96386093Y-32619304D03*
X104069593Y-32717804D03*
%TO.N,Net-(D70-Pad2)*%
X100665993Y-50713704D03*
X111397493Y-49075404D03*
X111054425Y-74958172D03*
X103536193Y-74323004D03*
%TO.N,Net-(D71-Pad2)*%
X124525592Y-96729506D03*
X152266093Y-101120004D03*
%TO.N,RESET*%
X150068993Y-90439304D03*
X110470393Y-44058904D03*
X145700193Y-48592804D03*
X150956093Y-86540404D03*
%TO.N,col0*%
X88308893Y-46344904D03*
%TO.N,col1*%
X84536993Y-101729604D03*
%TO.N,col3*%
X110203693Y-52987004D03*
X112756393Y-53307681D03*
%TO.N,col4*%
X109919475Y-60975304D03*
X109919475Y-70109704D03*
X131571726Y-74202071D03*
%TO.N,sda*%
X85768893Y-45506704D03*
X86137193Y-81295304D03*
X145065193Y-83759104D03*
X145547793Y-64213804D03*
%TO.N,scl*%
X88197693Y-47640304D03*
X88283493Y-65775904D03*
%TO.N,ENC1B*%
X85679993Y-101716904D03*
%TO.N,ENC1A*%
X80701593Y-106695304D03*
%TO.N,data*%
X112146793Y-45481304D03*
X112235693Y-50713704D03*
%TO.N,Net-(D39-Pad4)*%
X96424193Y-71024104D03*
X107930393Y-71846504D03*
X109105311Y-70773186D03*
X122738593Y-74104004D03*
%TD*%
D21*
%TO.N,GND*%
X147743593Y-46639404D02*
X152343593Y-46639404D01*
X90665393Y-104269604D02*
X90741593Y-104193404D01*
X83292393Y-104269604D02*
X90665393Y-104269604D01*
X151517993Y-95634804D02*
X150145193Y-94262004D01*
X151893593Y-95634804D02*
X151517993Y-95634804D01*
X58397589Y-52196488D02*
X58397589Y-49865608D01*
X58397589Y-49865608D02*
X59098893Y-49164304D01*
X59098893Y-49164304D02*
X70782893Y-49164304D01*
X70782893Y-49164304D02*
X71138493Y-48808704D01*
X71138493Y-48808704D02*
X71138493Y-38089904D01*
X72542441Y-36685956D02*
X75558093Y-36685956D01*
X71138493Y-38089904D02*
X72542441Y-36685956D01*
X77391273Y-39702804D02*
X77397588Y-39696489D01*
X74542093Y-39702804D02*
X77391273Y-39702804D01*
X82574245Y-36685956D02*
X82619293Y-36731004D01*
X75558093Y-36685956D02*
X82574245Y-36685956D01*
X93630193Y-40058404D02*
X93680993Y-40007604D01*
X101491493Y-31828804D02*
X101529593Y-31866904D01*
X93706393Y-31828804D02*
X101491493Y-31828804D01*
X104895093Y-31866904D02*
X105009393Y-31981204D01*
X101529593Y-31866904D02*
X104895093Y-31866904D01*
X106609593Y-37518404D02*
X108895593Y-37518404D01*
X109670293Y-36743704D02*
X113277093Y-36743704D01*
X108895593Y-37518404D02*
X109670293Y-36743704D01*
X115264271Y-39829804D02*
X115397586Y-39696489D01*
X111981693Y-39829804D02*
X115264271Y-39829804D01*
X120554193Y-36743704D02*
X120566893Y-36756404D01*
X113277093Y-36743704D02*
X120554193Y-36743704D01*
X120566893Y-36756404D02*
X125608793Y-36756404D01*
X125608793Y-36756404D02*
X126789893Y-37937504D01*
X126789893Y-37937504D02*
X126789893Y-38686804D01*
X127399493Y-39296404D02*
X131831793Y-39296404D01*
X126789893Y-38686804D02*
X127399493Y-39296404D01*
X130803093Y-42369804D02*
X132796993Y-42369804D01*
X132970307Y-42196490D02*
X134397585Y-42196490D01*
X132796993Y-42369804D02*
X132970307Y-42196490D01*
X139502593Y-39296404D02*
X139540693Y-39334504D01*
X131831793Y-39296404D02*
X139502593Y-39296404D01*
X145623993Y-39334504D02*
X145750993Y-39461504D01*
X139540693Y-39334504D02*
X145623993Y-39334504D01*
X93538094Y-36251603D02*
X93680993Y-36108704D01*
X90413894Y-36251603D02*
X93538094Y-36251603D01*
X89934493Y-36731004D02*
X90413894Y-36251603D01*
X82619293Y-36731004D02*
X89934493Y-36731004D01*
X91420393Y-40007604D02*
X91369593Y-40058404D01*
X93680993Y-40007604D02*
X91420393Y-40007604D01*
X58397589Y-71196487D02*
X58397589Y-70649900D01*
X58397589Y-70649900D02*
X58146393Y-70398704D01*
X58146393Y-70398704D02*
X58146393Y-69039804D01*
X58146393Y-69039804D02*
X58730593Y-68455604D01*
X74272293Y-62134104D02*
X74272293Y-62016704D01*
X67950793Y-68455604D02*
X74272293Y-62134104D01*
X89607492Y-54025205D02*
X92414192Y-54025205D01*
X87915193Y-55717504D02*
X89607492Y-54025205D01*
X92414192Y-54025205D02*
X94354093Y-52085304D01*
X100894593Y-52085304D02*
X103536193Y-52085304D01*
X105476094Y-54025205D02*
X107616092Y-54025205D01*
X107616092Y-54025205D02*
X107619291Y-54028404D01*
X107619291Y-54028404D02*
X110063993Y-54028404D01*
X110063993Y-54028404D02*
X112045193Y-56009604D01*
X126116793Y-56009604D02*
X129164793Y-59057604D01*
X129164793Y-59057604D02*
X139134293Y-59057604D01*
X132056078Y-61196489D02*
X132025393Y-61165804D01*
X134397585Y-61196489D02*
X132056078Y-61196489D01*
X120630393Y-56009604D02*
X126116793Y-56009604D01*
X112045193Y-56009604D02*
X120630393Y-56009604D01*
X113527009Y-58696488D02*
X113483393Y-58740104D01*
X115397586Y-58696488D02*
X113527009Y-58696488D01*
X103790193Y-52339304D02*
X105476094Y-54025205D01*
X103536193Y-52085304D02*
X103790193Y-52339304D01*
X96397587Y-52442110D02*
X96754393Y-52085304D01*
X96397587Y-53696488D02*
X96397587Y-52442110D01*
X96754393Y-52085304D02*
X100894593Y-52085304D01*
X94354093Y-52085304D02*
X96754393Y-52085304D01*
X82631993Y-55717504D02*
X87915193Y-55717504D01*
X74224593Y-55717504D02*
X82631993Y-55717504D01*
X75733477Y-58696488D02*
X75726293Y-58689304D01*
X77397588Y-58696488D02*
X75733477Y-58696488D01*
X63594693Y-68455604D02*
X67950793Y-68455604D01*
X58730593Y-68455604D02*
X63594693Y-68455604D01*
X58397588Y-90196486D02*
X58397588Y-89814199D01*
X58397588Y-89814199D02*
X57930493Y-89347104D01*
X57930493Y-89347104D02*
X57930493Y-88191404D01*
X57930493Y-88191404D02*
X58768693Y-87353204D01*
X74272293Y-81120604D02*
X74272293Y-80952404D01*
X68039693Y-87353204D02*
X74272293Y-81120604D01*
X89959893Y-74513504D02*
X94239793Y-70233604D01*
X107447793Y-70233604D02*
X112108693Y-74894504D01*
X124846793Y-74894504D02*
X127678893Y-77726604D01*
X139629593Y-77726604D02*
X139642293Y-77739304D01*
X149599093Y-77739304D02*
X149814993Y-77523404D01*
X120744693Y-74894504D02*
X124846793Y-74894504D01*
X113377077Y-77696488D02*
X113356393Y-77675804D01*
X115397586Y-77696488D02*
X113377077Y-77696488D01*
X113378693Y-74894504D02*
X120744693Y-74894504D01*
X112108693Y-74894504D02*
X113378693Y-74894504D01*
X101707393Y-70233604D02*
X107447793Y-70233604D01*
X94762677Y-72696488D02*
X94687393Y-72621204D01*
X96397586Y-72696488D02*
X94762677Y-72696488D01*
X94874793Y-70233604D02*
X101707393Y-70233604D01*
X94239793Y-70233604D02*
X94874793Y-70233604D01*
X82809793Y-74513504D02*
X89959893Y-74513504D01*
X74272293Y-74513504D02*
X82809793Y-74513504D01*
X75743710Y-77696487D02*
X75726293Y-77713904D01*
X77397587Y-77696487D02*
X75743710Y-77696487D01*
X63823293Y-87353204D02*
X68039693Y-87353204D01*
X58768693Y-87353204D02*
X63823293Y-87353204D01*
X152253393Y-95994604D02*
X151893593Y-95634804D01*
X152253393Y-99862704D02*
X152253393Y-95994604D01*
X131615893Y-96179704D02*
X135794193Y-100358004D01*
X151758093Y-100358004D02*
X152253393Y-99862704D01*
X124465793Y-94909704D02*
X125735793Y-96179704D01*
X151250093Y-100358004D02*
X151758093Y-100358004D01*
X144995886Y-104708297D02*
X143972993Y-103685404D01*
X145798891Y-104708297D02*
X144995886Y-104708297D01*
X143909493Y-100358004D02*
X151250093Y-100358004D01*
X135794193Y-100358004D02*
X143909493Y-100358004D01*
X130561793Y-96179704D02*
X131615893Y-96179704D01*
X125735793Y-96179704D02*
X130561793Y-96179704D01*
X121726832Y-99447843D02*
X121468593Y-99189604D01*
X124415543Y-99447843D02*
X121726832Y-99447843D01*
X107752593Y-94909704D02*
X124465793Y-94909704D01*
X93134893Y-94909704D02*
X107752593Y-94909704D01*
X99751792Y-97884405D02*
X99741993Y-97894204D01*
X102478593Y-97884405D02*
X99751792Y-97884405D01*
X95093208Y-34696489D02*
X93680993Y-36108704D01*
X96397587Y-34696489D02*
X95093208Y-34696489D01*
X134397585Y-77879396D02*
X134244793Y-77726604D01*
X134397585Y-80196488D02*
X134397585Y-77879396D01*
X134244793Y-77726604D02*
X139629593Y-77726604D01*
X144138093Y-77739304D02*
X149599093Y-77739304D01*
X139642293Y-77739304D02*
X144138093Y-77739304D01*
X127678893Y-77726604D02*
X134244793Y-77726604D01*
%TO.N,+5V*%
X147743593Y-43639404D02*
X152343593Y-43639404D01*
X58006693Y-55476204D02*
X59238593Y-55476204D01*
X59238593Y-55476204D02*
X59263993Y-55450804D01*
X59263993Y-55450804D02*
X63226393Y-55450804D01*
X63597589Y-55079608D02*
X63597589Y-53696488D01*
X63226393Y-55450804D02*
X63597589Y-55079608D01*
X63597589Y-55079608D02*
X65896289Y-55079608D01*
X65896289Y-55079608D02*
X71875093Y-49100804D01*
X71875093Y-49100804D02*
X71875093Y-45240004D01*
X71875093Y-45240004D02*
X74326193Y-42788904D01*
X82597588Y-42264509D02*
X82597588Y-41196489D01*
X82073193Y-42788904D02*
X82597588Y-42264509D01*
X82597588Y-42264509D02*
X86509188Y-42264509D01*
X89988492Y-38785205D02*
X91977658Y-38785205D01*
X91977658Y-38785205D02*
X91980857Y-38788404D01*
X91980857Y-38788404D02*
X94925593Y-38788404D01*
X94925593Y-38788404D02*
X95941593Y-37772404D01*
X101597587Y-37145610D02*
X101597587Y-36196489D01*
X100970793Y-37772404D02*
X101597587Y-37145610D01*
X100970793Y-37772404D02*
X101300993Y-37772404D01*
X106126993Y-42598404D02*
X106609593Y-42598404D01*
X101300993Y-37772404D02*
X106126993Y-42598404D01*
X106609593Y-42598404D02*
X113734293Y-42598404D01*
X113734293Y-42598404D02*
X113873993Y-42738104D01*
X120597586Y-42199411D02*
X120597586Y-41196489D01*
X120058893Y-42738104D02*
X120597586Y-42199411D01*
X120058893Y-42738104D02*
X127869393Y-42738104D01*
X127869393Y-42738104D02*
X130383993Y-45252704D01*
X139597585Y-44713212D02*
X139597585Y-43696490D01*
X139058093Y-45252704D02*
X139597585Y-44713212D01*
X139058093Y-45252704D02*
X142982393Y-45252704D01*
X144595693Y-43639404D02*
X147743593Y-43639404D01*
X142982393Y-45252704D02*
X144595693Y-43639404D01*
X133736793Y-45252704D02*
X139058093Y-45252704D01*
X130383993Y-45252704D02*
X133736793Y-45252704D01*
X115220193Y-42738104D02*
X120058893Y-42738104D01*
X113873993Y-42738104D02*
X115220193Y-42738104D01*
X96322593Y-37772404D02*
X100970793Y-37772404D01*
X95941593Y-37772404D02*
X96322593Y-37772404D01*
X77259893Y-42788904D02*
X82073193Y-42788904D01*
X74326193Y-42788904D02*
X77259893Y-42788904D01*
X57955893Y-74272204D02*
X62959693Y-74272204D01*
X63597589Y-73634308D02*
X63597589Y-72696487D01*
X62959693Y-74272204D02*
X63597589Y-73634308D01*
X63597589Y-73634308D02*
X64969189Y-73634308D01*
X64969189Y-73634308D02*
X76789993Y-61813504D01*
X82597588Y-61289109D02*
X82597588Y-60196488D01*
X82073193Y-61813504D02*
X82597588Y-61289109D01*
X82597588Y-61289109D02*
X84654988Y-61289109D01*
X89372494Y-56571603D02*
X92287192Y-56571603D01*
X84654988Y-61289109D02*
X86740443Y-59203654D01*
X92287192Y-56571603D02*
X92290391Y-56568404D01*
X92290391Y-56568404D02*
X94354093Y-56568404D01*
X94354093Y-56568404D02*
X94519193Y-56733504D01*
X101597587Y-56094010D02*
X101597587Y-55196488D01*
X100958093Y-56733504D02*
X101597587Y-56094010D01*
X101597587Y-56094010D02*
X104560399Y-56094010D01*
X105031594Y-56565205D02*
X107628792Y-56565205D01*
X104560399Y-56094010D02*
X105031594Y-56565205D01*
X107628792Y-56565205D02*
X107631991Y-56568404D01*
X107631991Y-56568404D02*
X108844793Y-56568404D01*
X108844793Y-56568404D02*
X114026393Y-61750004D01*
X120597586Y-61236711D02*
X120597586Y-60196488D01*
X120084293Y-61750004D02*
X120597586Y-61236711D01*
X120597586Y-61236711D02*
X126530600Y-61236711D01*
X126530600Y-61236711D02*
X129494993Y-64201104D01*
X139597585Y-63483812D02*
X139597585Y-62696489D01*
X138880293Y-64201104D02*
X139597585Y-63483812D01*
X138880293Y-64201104D02*
X142436293Y-64201104D01*
X145115993Y-61521404D02*
X150189593Y-61521404D01*
X142436293Y-64201104D02*
X145115993Y-61521404D01*
X77297993Y-61813504D02*
X82073193Y-61813504D01*
X76789993Y-61813504D02*
X77297993Y-61813504D01*
X96360693Y-56733504D02*
X100958093Y-56733504D01*
X94519193Y-56733504D02*
X96360693Y-56733504D01*
X115321793Y-61750004D02*
X120084293Y-61750004D01*
X114026393Y-61750004D02*
X115321793Y-61750004D01*
X134333693Y-64201104D02*
X138880293Y-64201104D01*
X129494993Y-64201104D02*
X134333693Y-64201104D01*
X82597587Y-80466110D02*
X82597587Y-79196487D01*
X82289093Y-80774604D02*
X82597587Y-80466110D01*
X88249087Y-80466110D02*
X92855493Y-75859704D01*
X101597586Y-75563111D02*
X101597586Y-74196488D01*
X101300993Y-75859704D02*
X101597586Y-75563111D01*
X101597586Y-75563111D02*
X107862400Y-75563111D01*
X107862400Y-75563111D02*
X113175493Y-80876204D01*
X120597586Y-80388311D02*
X120597586Y-79196488D01*
X120109693Y-80876204D02*
X120597586Y-80388311D01*
X120597586Y-80388311D02*
X129553200Y-80388311D01*
X129553200Y-80388311D02*
X132415993Y-83251104D01*
X132415993Y-83251104D02*
X139121593Y-83251104D01*
X139597585Y-82775112D02*
X139597585Y-81696488D01*
X139121593Y-83251104D02*
X139597585Y-82775112D01*
X145365801Y-82775112D02*
X149131093Y-86540404D01*
X139597585Y-82775112D02*
X145365801Y-82775112D01*
X58400393Y-93246004D02*
X63099393Y-93246004D01*
X63597588Y-92747809D02*
X63597588Y-91696486D01*
X63099393Y-93246004D02*
X63597588Y-92747809D01*
X63597588Y-92747809D02*
X65070788Y-92747809D01*
X77043993Y-80774604D02*
X82289093Y-80774604D01*
X65070788Y-92747809D02*
X66337893Y-91480704D01*
X66337893Y-91480704D02*
X66477593Y-91620404D01*
X66477593Y-91620404D02*
X88639093Y-91620404D01*
X92587251Y-95532004D02*
X97984751Y-100929504D01*
X92550693Y-95532004D02*
X92587251Y-95532004D01*
X88639093Y-91620404D02*
X92550693Y-95532004D01*
X120935193Y-100929504D02*
X122852893Y-102847204D01*
X126942293Y-102847204D02*
X127259793Y-103164704D01*
X127259793Y-103164704D02*
X129228293Y-103164704D01*
X129228293Y-103164704D02*
X131031693Y-104968104D01*
X131031693Y-104968104D02*
X141166293Y-104968104D01*
X144341293Y-108143104D02*
X146957493Y-108143104D01*
X146957493Y-108143104D02*
X147478193Y-108663804D01*
X147478193Y-108663804D02*
X148316393Y-108663804D01*
X148316393Y-108663804D02*
X148900593Y-109248004D01*
X148900593Y-109248004D02*
X149662593Y-109248004D01*
X150172263Y-108738334D02*
X150172263Y-107896340D01*
X149662593Y-109248004D02*
X150172263Y-108738334D01*
X143833293Y-107635104D02*
X144341293Y-108143104D01*
X141166293Y-104968104D02*
X143833293Y-107635104D01*
X129276071Y-103116926D02*
X129228293Y-103164704D01*
X129276071Y-101828025D02*
X129276071Y-103116926D01*
X123487893Y-102847204D02*
X126942293Y-102847204D01*
X122852893Y-102847204D02*
X123487893Y-102847204D01*
X107678593Y-100622504D02*
X107371593Y-100929504D01*
X107678593Y-99384405D02*
X107678593Y-100622504D01*
X107371593Y-100929504D02*
X120935193Y-100929504D01*
X102202693Y-100929504D02*
X107371593Y-100929504D01*
X97984751Y-100929504D02*
X102202693Y-100929504D01*
X76447093Y-81371504D02*
X77043993Y-80774604D01*
X66337893Y-91480704D02*
X76447093Y-81371504D01*
X86740443Y-59203654D02*
X89372494Y-56571603D01*
X86852087Y-80466110D02*
X88249087Y-80466110D01*
X82597587Y-80466110D02*
X86852087Y-80466110D01*
X87407193Y-41366504D02*
X89988492Y-38785205D01*
X86509188Y-42264509D02*
X87407193Y-41366504D01*
X96322593Y-75859704D02*
X101300993Y-75859704D01*
X92855493Y-75859704D02*
X96322593Y-75859704D01*
X114851893Y-80876204D02*
X120109693Y-80876204D01*
X113175493Y-80876204D02*
X114851893Y-80876204D01*
D22*
%TO.N,Net-(D1-Pad2)*%
X63537589Y-61836487D02*
X63537589Y-63106487D01*
X64807589Y-60566487D02*
X63537589Y-61836487D01*
X69656010Y-60566487D02*
X69665293Y-60557204D01*
X64807589Y-60566487D02*
X69656010Y-60566487D01*
%TO.N,row0*%
X84535993Y-52885404D02*
X85818693Y-54168104D01*
X71189293Y-52885404D02*
X84535993Y-52885404D01*
X85818693Y-54168104D02*
X86619793Y-54168104D01*
X86619793Y-54168104D02*
X89299493Y-51488404D01*
X94939293Y-51488404D02*
X97326893Y-49100804D01*
X89299493Y-51488404D02*
X94939293Y-51488404D01*
X126726393Y-52160504D02*
X128681193Y-52160504D01*
X133254193Y-56733504D02*
X135452293Y-56733504D01*
X128681193Y-52160504D02*
X133254193Y-56733504D01*
X126064993Y-52821904D02*
X126726393Y-52160504D01*
X112540493Y-51501104D02*
X114559793Y-53520404D01*
X125366493Y-53520404D02*
X126064993Y-52821904D01*
X99942093Y-51501104D02*
X112540493Y-51501104D01*
X97541793Y-49100804D02*
X99942093Y-51501104D01*
X114559793Y-53520404D02*
X125366493Y-53520404D01*
X97326893Y-49100804D02*
X97541793Y-49100804D01*
%TO.N,Net-(D10-Pad2)*%
X82537588Y-49336488D02*
X82537588Y-50606488D01*
X83807588Y-48066488D02*
X82537588Y-49336488D01*
%TO.N,Net-(D11-Pad2)*%
X63537589Y-80836486D02*
X63537589Y-82106486D01*
X64807589Y-79566486D02*
X63537589Y-80836486D01*
X69675375Y-79566486D02*
X69677993Y-79569104D01*
X64807589Y-79566486D02*
X69675375Y-79566486D01*
%TO.N,row1*%
X86783893Y-72252904D02*
X88677193Y-70359604D01*
X88677193Y-70359604D02*
X89275093Y-70359604D01*
X91433093Y-68201604D02*
X97631693Y-68201604D01*
X89275093Y-70359604D02*
X91433093Y-68201604D01*
X97631693Y-68201604D02*
X97935493Y-68201604D01*
X97935493Y-68201604D02*
X99116593Y-69382704D01*
X99116593Y-69382704D02*
X111321293Y-69382704D01*
X111321293Y-69382704D02*
X113619993Y-71681404D01*
X125569693Y-71681404D02*
X126802593Y-70448504D01*
X113619993Y-71681404D02*
X125569693Y-71681404D01*
X126802593Y-70448504D02*
X128846293Y-70448504D01*
X134092393Y-75694604D02*
X135477693Y-75694604D01*
X128846293Y-70448504D02*
X134092393Y-75694604D01*
X71151193Y-72252904D02*
X86783893Y-72252904D01*
%TO.N,Net-(D12-Pad2)*%
X82537588Y-68336487D02*
X82537588Y-69606487D01*
X83807588Y-67066487D02*
X82537588Y-68336487D01*
X88670310Y-67066487D02*
X88677193Y-67059604D01*
X83807588Y-67066487D02*
X88670310Y-67066487D01*
%TO.N,Net-(D13-Pad2)*%
X101537587Y-63336487D02*
X101537587Y-64606487D01*
X102807587Y-62066487D02*
X101537587Y-63336487D01*
%TO.N,Net-(D14-Pad2)*%
X120537586Y-68336487D02*
X120537586Y-69606487D01*
X121807586Y-67066487D02*
X120537586Y-68336487D01*
X126720576Y-67066487D02*
X126802593Y-67148504D01*
X121807586Y-67066487D02*
X126720576Y-67066487D01*
%TO.N,Net-(D15-Pad2)*%
X139537585Y-70836488D02*
X139537585Y-72106488D01*
X140807585Y-69566488D02*
X139537585Y-70836488D01*
%TO.N,Net-(D17-Pad2)*%
X82537587Y-87336486D02*
X82537587Y-88606486D01*
X83807587Y-86066486D02*
X82537587Y-87336486D01*
X88608675Y-86066486D02*
X88613693Y-86071504D01*
X83807587Y-86066486D02*
X88608675Y-86066486D01*
%TO.N,Net-(D18-Pad2)*%
X101537587Y-44336488D02*
X101537587Y-45606488D01*
X102807587Y-43066488D02*
X101537587Y-44336488D01*
%TO.N,Net-(D20-Pad2)*%
X101537586Y-82336487D02*
X101537586Y-83606487D01*
X102807586Y-81066487D02*
X101537586Y-82336487D01*
X107751376Y-81066487D02*
X107752593Y-81067704D01*
X102807586Y-81066487D02*
X107751376Y-81066487D01*
%TO.N,Net-(D21-Pad2)*%
X63537588Y-99836485D02*
X63537588Y-101106485D01*
X64807588Y-98566485D02*
X63537588Y-99836485D01*
X69726974Y-98566485D02*
X69779593Y-98619104D01*
X64807588Y-98566485D02*
X69726974Y-98566485D01*
%TO.N,row2*%
X87291893Y-90693304D02*
X88613693Y-89371504D01*
X71062293Y-90693304D02*
X87291893Y-90693304D01*
X88613693Y-89371504D02*
X88703593Y-89371504D01*
X106100593Y-86019704D02*
X107752593Y-84367704D01*
X92055393Y-86019704D02*
X106100593Y-86019704D01*
X125671293Y-90464704D02*
X126739093Y-89396904D01*
X108197093Y-90464704D02*
X125671293Y-90464704D01*
X126739093Y-89396904D02*
X127220693Y-89396904D01*
X132517593Y-94693804D02*
X135757093Y-94693804D01*
X127220693Y-89396904D02*
X132517593Y-94693804D01*
X88703593Y-89371504D02*
X92055393Y-86019704D01*
X108996857Y-57838404D02*
X110646475Y-59488022D01*
X106609593Y-57838404D02*
X108996857Y-57838404D01*
%TO.N,Net-(D24-Pad2)*%
X120537586Y-87336487D02*
X120537586Y-88606487D01*
X121807586Y-86066487D02*
X120537586Y-87336487D01*
X126708676Y-86066487D02*
X126739093Y-86096904D01*
X121807586Y-86066487D02*
X126708676Y-86066487D01*
%TO.N,Net-(D25-Pad2)*%
X139537585Y-89836487D02*
X139537585Y-91106487D01*
X140807585Y-88566487D02*
X139537585Y-89836487D01*
%TO.N,Net-(D26-Pad2)*%
X107618593Y-107524404D02*
X107618593Y-108794404D01*
X108888593Y-106254404D02*
X107618593Y-107524404D01*
X107618593Y-112022604D02*
X107522993Y-112118204D01*
X107618593Y-108794404D02*
X107618593Y-112022604D01*
%TO.N,Net-(D27-Pad2)*%
X120537586Y-49336488D02*
X120537586Y-50606488D01*
X121807586Y-48066488D02*
X120537586Y-49336488D01*
X125932377Y-48066488D02*
X126726393Y-48860504D01*
X121807586Y-48066488D02*
X125932377Y-48066488D01*
%TO.N,Net-(D30-Pad2)*%
X127582953Y-110495539D02*
X127582953Y-111084646D01*
X129274725Y-108803767D02*
X127582953Y-110495539D01*
X130011729Y-109540771D02*
X129274725Y-108803767D01*
X133947112Y-109540771D02*
X130011729Y-109540771D01*
%TO.N,Net-(D31-Pad2)*%
X139537585Y-51836489D02*
X139537585Y-53106489D01*
X140807585Y-50566489D02*
X139537585Y-51836489D01*
%TO.N,row3*%
X141351260Y-118424571D02*
X139273993Y-116347304D01*
X139273993Y-116347304D02*
X135730693Y-116347304D01*
X135730693Y-116347304D02*
X134625793Y-115242404D01*
X134625793Y-115242404D02*
X131285693Y-115242404D01*
X131285693Y-115242404D02*
X130079193Y-114035904D01*
X130079193Y-114035904D02*
X124757893Y-114035904D01*
X124757893Y-114035904D02*
X123157693Y-112435704D01*
X123157693Y-112435704D02*
X117010893Y-112435704D01*
X116629893Y-112054704D02*
X109403593Y-112054704D01*
X117010893Y-112435704D02*
X116629893Y-112054704D01*
X104210293Y-112105504D02*
X104222993Y-112118204D01*
X141351260Y-118424571D02*
X142778100Y-118424571D01*
X72917493Y-111558404D02*
X72192593Y-111558404D01*
X74669093Y-109806804D02*
X72917493Y-111558404D01*
X93312693Y-112118204D02*
X91001293Y-109806804D01*
X104222993Y-112118204D02*
X93312693Y-112118204D01*
X91001293Y-109806804D02*
X74669093Y-109806804D01*
X91369593Y-57838404D02*
X89477293Y-57838404D01*
X89477293Y-57838404D02*
X82746293Y-64569404D01*
X82746293Y-64569404D02*
X82746293Y-65560004D01*
X82746293Y-65560004D02*
X81107993Y-67198304D01*
X81107993Y-67198304D02*
X78987093Y-67198304D01*
X78987093Y-67198304D02*
X76548693Y-64759904D01*
X74986593Y-64759904D02*
X73373693Y-66372804D01*
X76548693Y-64759904D02*
X74986593Y-64759904D01*
%TO.N,Net-(D35-Pad2)*%
X147007159Y-116718326D02*
X146897472Y-116718326D01*
X148959613Y-114765872D02*
X147007159Y-116718326D01*
X146754293Y-116861505D02*
X146897472Y-116718326D01*
X146897472Y-118534851D02*
X145879086Y-119553237D01*
X146897472Y-116718326D02*
X146897472Y-118534851D01*
%TO.N,Net-(D37-Pad2)*%
X79670993Y-106693404D02*
X79672893Y-106695304D01*
X76241593Y-106693404D02*
X79670993Y-106693404D01*
%TO.N,Net-(D38-Pad2)*%
X56097615Y-64463726D02*
X57113050Y-65479161D01*
X56072215Y-64463726D02*
X56097615Y-64463726D01*
X65401193Y-67655504D02*
X65410793Y-67665104D01*
X56914493Y-67655504D02*
X65401193Y-67655504D01*
%TO.N,Net-(D39-Pad2)*%
X117683993Y-69293804D02*
X118712693Y-68265104D01*
X117683993Y-69446204D02*
X117683993Y-69293804D01*
%TO.N,Net-(D40-Pad2)*%
X67239593Y-69408104D02*
X67303093Y-69471604D01*
X59175093Y-69408104D02*
X67239593Y-69408104D01*
%TO.N,led*%
X85044993Y-37521504D02*
X82203293Y-37521504D01*
X82203293Y-37521504D02*
X81885255Y-37203466D01*
X75907054Y-37412957D02*
X75135146Y-37412957D01*
X76116545Y-37203466D02*
X75907054Y-37412957D01*
X75135146Y-37412957D02*
X74925655Y-37203466D01*
X81885255Y-37203466D02*
X76116545Y-37203466D01*
X72756799Y-37203466D02*
X71656003Y-38304262D01*
X74925655Y-37203466D02*
X72756799Y-37203466D01*
X71656003Y-43585814D02*
X71976693Y-43906504D01*
X71656003Y-38304262D02*
X71656003Y-43585814D01*
X72725993Y-45633704D02*
X72725993Y-49126204D01*
X65944193Y-55908004D02*
X64178893Y-55908004D01*
X72725993Y-49126204D02*
X65944193Y-55908004D01*
%TO.N,Net-(D41-Pad2)*%
X63597589Y-51786488D02*
X63620093Y-51763984D01*
X63597589Y-52196488D02*
X63597589Y-51786488D01*
X63620093Y-51094704D02*
X62680293Y-50154904D01*
X63620093Y-51763984D02*
X63620093Y-51094704D01*
X56241393Y-53634704D02*
X56266793Y-53660104D01*
X56241393Y-51399504D02*
X56241393Y-53634704D01*
X58347706Y-72646604D02*
X58397589Y-72696487D01*
X56879493Y-72646604D02*
X58347706Y-72646604D01*
%TO.N,Net-(D42-Pad2)*%
X66073510Y-71196487D02*
X66299793Y-70970204D01*
X63597589Y-71196487D02*
X66073510Y-71196487D01*
X57244693Y-92849381D02*
X58397588Y-91696486D01*
X57244693Y-93080904D02*
X57244693Y-92849381D01*
%TO.N,Net-(D43-Pad2)*%
X63597588Y-90196486D02*
X66517211Y-90196486D01*
X77397587Y-79316110D02*
X77397587Y-79196487D01*
X66517211Y-90196486D02*
X77397587Y-79316110D01*
%TO.N,Net-(D45-Pad2)*%
X82597587Y-76904798D02*
X81171493Y-75478704D01*
X82597587Y-77696487D02*
X82597587Y-76904798D01*
X80765093Y-70322504D02*
X79787193Y-69344604D01*
X80765093Y-70868604D02*
X80765093Y-70322504D01*
X76921109Y-60196488D02*
X77397588Y-60196488D01*
X75748593Y-61369004D02*
X76921109Y-60196488D01*
%TO.N,Net-(D46-Pad2)*%
X82597588Y-57765899D02*
X81450893Y-56619204D01*
X82597588Y-58696488D02*
X82597588Y-57765899D01*
X80371393Y-50853404D02*
X79635076Y-50117087D01*
X80371393Y-51513804D02*
X80371393Y-50853404D01*
X75418393Y-41696704D02*
X75888293Y-41226804D01*
X77367273Y-41226804D02*
X77397588Y-41196489D01*
X75888293Y-41226804D02*
X77367273Y-41226804D01*
%TO.N,Net-(D47-Pad2)*%
X84378278Y-39696489D02*
X84638593Y-39956804D01*
X82597588Y-39696489D02*
X84378278Y-39696489D01*
X85375193Y-43296904D02*
X86645193Y-43296904D01*
X86645193Y-43296904D02*
X88664493Y-41277604D01*
X93769893Y-41277604D02*
X95636793Y-39410704D01*
X88664493Y-41277604D02*
X93769893Y-41277604D01*
X94773193Y-37645404D02*
X94773193Y-36629404D01*
X95206108Y-36196489D02*
X96397587Y-36196489D01*
X94773193Y-36629404D02*
X95206108Y-36196489D01*
%TO.N,Net-(D48-Pad2)*%
X101597587Y-34696489D02*
X102657378Y-34696489D01*
X103320293Y-35359404D02*
X103320293Y-36502404D01*
X102657378Y-34696489D02*
X103320293Y-35359404D01*
X95651071Y-55943004D02*
X96397587Y-55196488D01*
X94950993Y-55943004D02*
X95651071Y-55943004D01*
%TO.N,Net-(D49-Pad2)*%
X102975677Y-53696488D02*
X104310893Y-55031704D01*
X101597587Y-53696488D02*
X102975677Y-53696488D01*
X96397102Y-74196004D02*
X96397586Y-74196488D01*
X93465093Y-74196004D02*
X96397102Y-74196004D01*
%TO.N,Net-(D50-Pad2)*%
X108005677Y-72696488D02*
X109657593Y-74348404D01*
X101597586Y-72696488D02*
X108005677Y-72696488D01*
X112829277Y-79196488D02*
X115397586Y-79196488D01*
X109924293Y-76291504D02*
X112829277Y-79196488D01*
%TO.N,Net-(D51-Pad2)*%
X120597586Y-76792097D02*
X119601693Y-75796204D01*
X120597586Y-77696488D02*
X120597586Y-76792097D01*
X115147702Y-59946604D02*
X115397586Y-60196488D01*
X113658093Y-59946604D02*
X115147702Y-59946604D01*
%TO.N,Net-(D52-Pad2)*%
X120597586Y-57961097D02*
X119436593Y-56800104D01*
X120597586Y-58696488D02*
X120597586Y-57961097D01*
X118712693Y-51326404D02*
X117693593Y-50307304D01*
X118712693Y-51742404D02*
X118712693Y-51326404D01*
X115351701Y-41150604D02*
X115397586Y-41196489D01*
X113480293Y-41150604D02*
X115351701Y-41150604D01*
%TO.N,Net-(D53-Pad2)*%
X120597586Y-39696489D02*
X123252978Y-39696489D01*
X123252978Y-39696489D02*
X125621493Y-42065004D01*
X125621493Y-42065004D02*
X128148793Y-42065004D01*
X129780279Y-43696490D02*
X134397585Y-43696490D01*
X128148793Y-42065004D02*
X129780279Y-43696490D01*
%TO.N,Net-(D54-Pad2)*%
X141648893Y-43447798D02*
X141648893Y-44198604D01*
X140397585Y-42196490D02*
X141648893Y-43447798D01*
X139597585Y-42196490D02*
X140397585Y-42196490D01*
X133769270Y-63324804D02*
X134397585Y-62696489D01*
X132187393Y-63324804D02*
X133769270Y-63324804D01*
%TO.N,Net-(D55-Pad2)*%
X141425578Y-61196489D02*
X141953693Y-61724604D01*
X139597585Y-61196489D02*
X141425578Y-61196489D01*
X134275801Y-81574704D02*
X134397585Y-81696488D01*
X132101593Y-81536604D02*
X132111193Y-81536604D01*
X132271077Y-81696488D02*
X134397585Y-81696488D01*
X132111193Y-81536604D02*
X132271077Y-81696488D01*
%TO.N,Net-(D56-Pad2)*%
X142683677Y-80196488D02*
X143071293Y-80584104D01*
X139597585Y-80196488D02*
X142683677Y-80196488D01*
X132136027Y-93284104D02*
X132129960Y-93278037D01*
X143045893Y-93284104D02*
X132136027Y-93284104D01*
X129380693Y-92725304D02*
X96881393Y-92725304D01*
X129990293Y-93334904D02*
X129380693Y-92725304D01*
X102461592Y-99367404D02*
X102478593Y-99384405D01*
X98278393Y-99367404D02*
X102461592Y-99367404D01*
%TO.N,Net-(D57-Pad2)*%
X107678593Y-97884405D02*
X117636094Y-97884405D01*
X117636094Y-97884405D02*
X119982693Y-100231004D01*
X123461020Y-100231004D02*
X124155070Y-100925054D01*
X119982693Y-100231004D02*
X123461020Y-100231004D01*
%TO.N,Net-(D58-Pad2)*%
X67684093Y-86413404D02*
X67988893Y-86108604D01*
X60330793Y-86413404D02*
X67684093Y-86413404D01*
X77437693Y-81676304D02*
X77501193Y-81676304D01*
X68509593Y-90604404D02*
X77437693Y-81676304D01*
%TO.N,Net-(D59-Pad2)*%
X129536543Y-100350813D02*
X130605402Y-100350813D01*
X130605402Y-100350813D02*
X133800293Y-103545704D01*
X133800293Y-103545704D02*
X142118793Y-103545704D01*
X144690925Y-106117836D02*
X145285861Y-106117836D01*
X142118793Y-103545704D02*
X144690925Y-106117836D01*
%TO.N,Net-(D61-Pad2)*%
X115766293Y-37534204D02*
X125446793Y-37534204D01*
X126272383Y-38359794D02*
X126272383Y-38982094D01*
X125446793Y-37534204D02*
X126272383Y-38359794D01*
X127424893Y-40134604D02*
X142080693Y-40134604D01*
X126272383Y-38982094D02*
X127424893Y-40134604D01*
%TO.N,Net-(D62-Pad2)*%
X136531076Y-51942504D02*
X137435593Y-52847021D01*
X136531076Y-51552187D02*
X136531076Y-51942504D01*
%TO.N,Net-(D64-Pad2)*%
X136733993Y-71366871D02*
X137359393Y-71992271D01*
X136733993Y-70436804D02*
X136733993Y-71366871D01*
%TO.N,Net-(D66-Pad2)*%
X130825393Y-80177704D02*
X130647593Y-80355504D01*
X132647693Y-80177704D02*
X130825393Y-80177704D01*
X129063193Y-81231804D02*
X124224493Y-81231804D01*
X111092693Y-94084204D02*
X111041893Y-94033404D01*
X124033993Y-94084204D02*
X111092693Y-94084204D01*
%TO.N,Net-(D67-Pad2)*%
X77932993Y-37930466D02*
X81762731Y-37930466D01*
X81762731Y-37930466D02*
X81960269Y-38128004D01*
X85648392Y-38248505D02*
X86213393Y-37683504D01*
X82080770Y-38248505D02*
X85648392Y-38248505D01*
X81960269Y-38128004D02*
X82080770Y-38248505D01*
X86213393Y-44185904D02*
X88994693Y-44185904D01*
X88994693Y-44185904D02*
X89248693Y-43931904D01*
X89248693Y-43931904D02*
X92144293Y-43931904D01*
X92144293Y-43931904D02*
X93477793Y-42598404D01*
X93477793Y-42598404D02*
X93477793Y-42230104D01*
X93477793Y-42230104D02*
X95484393Y-40223504D01*
X95899955Y-40223504D02*
X96474993Y-39648466D01*
X95484393Y-40223504D02*
X95899955Y-40223504D01*
X96474993Y-39022524D02*
X96933102Y-38564415D01*
X96474993Y-39648466D02*
X96474993Y-39022524D01*
%TO.N,Net-(D68-Pad2)*%
X124524424Y-95700204D02*
X125613524Y-96789304D01*
X102748793Y-95700204D02*
X124524424Y-95700204D01*
X130212832Y-96906705D02*
X131066692Y-96906705D01*
X130095431Y-96789304D02*
X130212832Y-96906705D01*
X125613524Y-96789304D02*
X130095431Y-96789304D01*
X132473291Y-98313304D02*
X132492193Y-98313304D01*
X131066692Y-96906705D02*
X132473291Y-98313304D01*
%TO.N,Net-(D69-Pad2)*%
X103971093Y-32619304D02*
X104069593Y-32717804D01*
X96386093Y-32619304D02*
X103971093Y-32619304D01*
%TO.N,Net-(D70-Pad2)*%
X100665993Y-50713704D02*
X102482093Y-50713704D01*
X111337192Y-49015103D02*
X111397493Y-49075404D01*
X104180694Y-49015103D02*
X111337192Y-49015103D01*
X102482093Y-50713704D02*
X104180694Y-49015103D01*
X103536193Y-74323004D02*
X107879593Y-74323004D01*
X107879593Y-74323004D02*
X108946393Y-75389804D01*
X110622793Y-75389804D02*
X111054425Y-74958172D01*
X108946393Y-75389804D02*
X110622793Y-75389804D01*
%TO.N,Net-(D71-Pad2)*%
X124882558Y-96700404D02*
X125425467Y-97243314D01*
X124554694Y-96700404D02*
X124882558Y-96700404D01*
X124525592Y-96729506D02*
X124554694Y-96700404D01*
X129907374Y-97243314D02*
X130024775Y-97360715D01*
X125425467Y-97243314D02*
X129907374Y-97243314D01*
X130024775Y-97360715D02*
X130790304Y-97360715D01*
X131765192Y-98662265D02*
X132216331Y-99113404D01*
X131765192Y-98335603D02*
X131765192Y-98662265D01*
X130790304Y-97360715D02*
X131765192Y-98335603D01*
X132216331Y-99113404D02*
X133609793Y-99113404D01*
X135616393Y-101120004D02*
X152266093Y-101120004D01*
X133609793Y-99113404D02*
X135616393Y-101120004D01*
%TO.N,RESET*%
X150068993Y-90439304D02*
X149065693Y-89436004D01*
X148194793Y-89436004D02*
X148193593Y-89434804D01*
X149065693Y-89436004D02*
X148194793Y-89436004D01*
X110470393Y-44058904D02*
X112896093Y-44058904D01*
X115651993Y-46814804D02*
X115651993Y-46979904D01*
X112896093Y-44058904D02*
X115651993Y-46814804D01*
X115651993Y-46979904D02*
X117048993Y-48376904D01*
X117048993Y-48376904D02*
X119004793Y-48376904D01*
X119004793Y-48376904D02*
X121519393Y-45862304D01*
X121519393Y-45862304D02*
X126281893Y-45862304D01*
X126281893Y-45862304D02*
X127475693Y-47056104D01*
X127475693Y-47056104D02*
X132225493Y-47056104D01*
X132225493Y-47056104D02*
X135895793Y-50726404D01*
X135895793Y-50726404D02*
X138042093Y-50726404D01*
X140175693Y-48592804D02*
X145700193Y-48592804D01*
X138042093Y-50726404D02*
X140175693Y-48592804D01*
%TO.N,col0*%
X58457589Y-61836487D02*
X58457589Y-63106487D01*
X57187589Y-60566487D02*
X58457589Y-61836487D01*
X58457589Y-80836486D02*
X58457589Y-82106486D01*
X57187589Y-79566486D02*
X58457589Y-80836486D01*
X58457588Y-99836485D02*
X58457588Y-101106485D01*
X57187588Y-98566485D02*
X58457588Y-99836485D01*
X88308893Y-46344904D02*
X85108493Y-46344904D01*
X85108493Y-46344904D02*
X84727493Y-45963904D01*
X84727493Y-45963904D02*
X83228893Y-45963904D01*
X83228893Y-45963904D02*
X80701593Y-48491204D01*
X80701593Y-48491204D02*
X79304593Y-48491204D01*
X79304593Y-48491204D02*
X76739193Y-45925804D01*
X76739193Y-45925804D02*
X74567493Y-45925804D01*
X74567493Y-45925804D02*
X73373693Y-47119604D01*
X73373693Y-49625042D02*
X64144331Y-58854404D01*
X73373693Y-47119604D02*
X73373693Y-49625042D01*
X64144331Y-58854404D02*
X63886793Y-58854404D01*
X63886793Y-58854404D02*
X61511893Y-61229304D01*
X61511893Y-61229304D02*
X61511893Y-61851604D01*
X60257010Y-63106487D02*
X58457589Y-63106487D01*
X61511893Y-61851604D02*
X60257010Y-63106487D01*
%TO.N,col1*%
X77457587Y-87336486D02*
X77457587Y-88606486D01*
X76187587Y-86066486D02*
X77457587Y-87336486D01*
X77457588Y-68336487D02*
X77457588Y-69606487D01*
X76187588Y-67066487D02*
X77457588Y-68336487D01*
X77457588Y-49336488D02*
X77457588Y-50606488D01*
X76187588Y-48066488D02*
X77457588Y-49336488D01*
X84500793Y-101693404D02*
X84536993Y-101729604D01*
X76241593Y-101693404D02*
X84500793Y-101693404D01*
X91369593Y-50218404D02*
X86594393Y-50218404D01*
X86594393Y-50218404D02*
X84511593Y-52301204D01*
X79152304Y-52301204D02*
X77457588Y-50606488D01*
X84511593Y-52301204D02*
X79152304Y-52301204D01*
%TO.N,col2*%
X96457587Y-44336488D02*
X96457587Y-45606488D01*
X95187587Y-43066488D02*
X96457587Y-44336488D01*
X96457587Y-63336487D02*
X96457587Y-64606487D01*
X95187587Y-62066487D02*
X96457587Y-63336487D01*
X96457586Y-82336487D02*
X96457586Y-83606487D01*
X95187586Y-81066487D02*
X96457586Y-82336487D01*
X102538593Y-107524404D02*
X102538593Y-108794404D01*
X101268593Y-106254404D02*
X102538593Y-107524404D01*
X98529503Y-47678404D02*
X96457587Y-45606488D01*
X106609593Y-47678404D02*
X98529503Y-47678404D01*
%TO.N,col3*%
X121770490Y-109392873D02*
X122580130Y-110202513D01*
X121770490Y-107480568D02*
X121770490Y-109392873D01*
X115457586Y-87336487D02*
X115457586Y-88606487D01*
X114187586Y-86066487D02*
X115457586Y-87336487D01*
X115457586Y-68336487D02*
X115457586Y-69606487D01*
X114187586Y-67066487D02*
X115457586Y-68336487D01*
X115457586Y-49336488D02*
X115457586Y-50606488D01*
X114187586Y-48066488D02*
X115457586Y-49336488D01*
X112435716Y-52987004D02*
X112756393Y-53307681D01*
X110203693Y-52987004D02*
X112435716Y-52987004D01*
%TO.N,col4*%
X141799155Y-114656185D02*
X142123833Y-114980863D01*
X141799155Y-112159679D02*
X141799155Y-114656185D01*
X134457585Y-89836487D02*
X134457585Y-91106487D01*
X133187585Y-88566487D02*
X134457585Y-89836487D01*
X134457585Y-70836488D02*
X134457585Y-72106488D01*
X133187585Y-69566488D02*
X134457585Y-70836488D01*
X134457585Y-51836489D02*
X134457585Y-53106489D01*
X133187585Y-50566489D02*
X134457585Y-51836489D01*
X109322575Y-60378404D02*
X109919475Y-60975304D01*
X106609593Y-60378404D02*
X109322575Y-60378404D01*
X109919475Y-70109704D02*
X113116775Y-73307004D01*
X113116775Y-73307004D02*
X130574493Y-73307004D01*
X130676659Y-73307004D02*
X131571726Y-74202071D01*
X130574493Y-73307004D02*
X130676659Y-73307004D01*
%TO.N,sda*%
X86137193Y-45138404D02*
X85768893Y-45506704D01*
X91369593Y-45138404D02*
X86137193Y-45138404D01*
X86137193Y-81295304D02*
X88359693Y-81295304D01*
X88359693Y-81295304D02*
X90696493Y-78958504D01*
X90696493Y-78958504D02*
X95649493Y-78958504D01*
X95649493Y-78958504D02*
X97846593Y-81155604D01*
X97846593Y-81155604D02*
X99992893Y-81155604D01*
X99992893Y-81155604D02*
X102342393Y-78806104D01*
X108031993Y-78806104D02*
X108463793Y-78806104D01*
X102342393Y-78806104D02*
X108031993Y-78806104D01*
X108031993Y-78806104D02*
X110013193Y-78806104D01*
X108463793Y-78806104D02*
X113683493Y-84025804D01*
X113683493Y-84025804D02*
X114750293Y-84025804D01*
X114750293Y-84025804D02*
X117061693Y-86337204D01*
X117061693Y-86337204D02*
X119093693Y-86337204D01*
X119093693Y-86337204D02*
X121316193Y-84114704D01*
X121316193Y-84114704D02*
X131387293Y-84114704D01*
X131387293Y-84114704D02*
X135895793Y-88623204D01*
X135895793Y-88623204D02*
X138143693Y-88623204D01*
X143007793Y-83759104D02*
X145065193Y-83759104D01*
X138143693Y-88623204D02*
X143007793Y-83759104D01*
X150037193Y-64213804D02*
X150189593Y-64061404D01*
X145547793Y-64213804D02*
X150037193Y-64213804D01*
%TO.N,scl*%
X88235793Y-47678404D02*
X88197693Y-47640304D01*
X91369593Y-47678404D02*
X88235793Y-47678404D01*
X88283493Y-65775904D02*
X93172993Y-65775904D01*
X93172993Y-65775904D02*
X94214393Y-66817304D01*
X94214393Y-66817304D02*
X110737093Y-66817304D01*
X110737093Y-66817304D02*
X112527793Y-65026604D01*
X112527793Y-65026604D02*
X114648693Y-65026604D01*
X116469477Y-66847388D02*
X119415877Y-66847388D01*
X114648693Y-65026604D02*
X116469477Y-66847388D01*
X119415877Y-66847388D02*
X121071561Y-65191704D01*
X121071561Y-65191704D02*
X131412693Y-65191704D01*
X131412693Y-65191704D02*
X135844993Y-69624004D01*
X135844993Y-69624004D02*
X138321493Y-69624004D01*
X141344093Y-66601404D02*
X150189593Y-66601404D01*
X138321493Y-69624004D02*
X141344093Y-66601404D01*
%TO.N,ENC1B*%
X90718093Y-101716904D02*
X90741593Y-101693404D01*
X85679993Y-101716904D02*
X90718093Y-101716904D01*
%TO.N,ENC1A*%
X80703493Y-106693404D02*
X80701593Y-106695304D01*
X90741593Y-106693404D02*
X80703493Y-106693404D01*
%TO.N,data*%
X147743593Y-50639404D02*
X152343593Y-50639404D01*
X111803893Y-45138404D02*
X112146793Y-45481304D01*
X106609593Y-45138404D02*
X111803893Y-45138404D01*
X112235693Y-50713704D02*
X112464293Y-50713704D01*
X112235693Y-50713704D02*
X112654793Y-50713704D01*
X112654793Y-50713704D02*
X114864593Y-52923504D01*
X114864593Y-52923504D02*
X123779993Y-52923504D01*
X123779993Y-52923504D02*
X126180293Y-50523204D01*
X126180293Y-50523204D02*
X128072593Y-50523204D01*
X128072593Y-50523204D02*
X132962093Y-55412704D01*
X132962093Y-55412704D02*
X141928293Y-55412704D01*
X147276771Y-50412394D02*
X147743593Y-50412394D01*
X146670661Y-51018504D02*
X147276771Y-50412394D01*
X146322493Y-51018504D02*
X146670661Y-51018504D01*
X141928293Y-55412704D02*
X146322493Y-51018504D01*
%TO.N,Net-(D39-Pad4)*%
X107107993Y-71024104D02*
X107930393Y-71846504D01*
X96424193Y-71024104D02*
X107107993Y-71024104D01*
X109105311Y-70773186D02*
X112477329Y-74145204D01*
X122697393Y-74145204D02*
X122738593Y-74104004D01*
X112477329Y-74145204D02*
X122697393Y-74145204D01*
%TD*%
M02*
