M48
; DRILL file {KiCad (5.1.10)-1} date 11/02/21 14:23:09
; FORMAT={-:-/ absolute / inch / decimal}
; #@! TF.CreationDate,2021-11-02T14:23:09-07:00
; #@! TF.GenerationSoftware,Kicad,Pcbnew,(5.1.10)-1
; #@! TF.FileFunction,NonPlated,1,2,NPTH
FMAT,2
INCH
T1C0.0315
T2C0.1570
%
G90
G05
T1
X5.9072Y-1.6551
X5.9072Y-1.6551
X5.9072Y-1.9307
X5.9072Y-1.9307
T2
X2.4015Y-3.7806
X2.4015Y-2.2845
X2.4015Y-3.0325
X3.1495Y-3.2884
X3.1495Y-1.7924
X3.1495Y-2.5404
X3.8975Y-3.0916
X3.8975Y-1.5955
X3.8975Y-2.3436
X4.137Y-4.0832
X4.6456Y-1.7924
X4.6456Y-2.5404
X4.6456Y-3.2884
X4.9592Y-4.1591
X5.3936Y-1.8908
X5.3936Y-2.6388
X5.3936Y-3.3869
X5.7578Y-4.3731
T0
M30
