%TF.GenerationSoftware,KiCad,Pcbnew,(5.1.9)-1*%
%TF.CreationDate,2021-11-02T16:31:21-07:00*%
%TF.ProjectId,bgkeeb,62676b65-6562-42e6-9b69-6361645f7063,rev?*%
%TF.SameCoordinates,Original*%
%TF.FileFunction,Paste,Top*%
%TF.FilePolarity,Positive*%
%FSLAX46Y46*%
G04 Gerber Fmt 4.6, Leading zero omitted, Abs format (unit mm)*
G04 Created by KiCad (PCBNEW (5.1.9)-1) date 2021-11-02 16:31:21*
%MOMM*%
%LPD*%
G01*
G04 APERTURE LIST*
%ADD10R,1.200000X0.900000*%
%ADD11C,0.100000*%
%ADD12R,0.900000X1.200000*%
%ADD13R,1.100000X1.800000*%
G04 APERTURE END LIST*
%TO.C,D73*%
G36*
G01*
X151219764Y-107117646D02*
X149870365Y-106626505D01*
G75*
G02*
X149821356Y-106521404I28046J77055D01*
G01*
X150045721Y-105904965D01*
G75*
G02*
X150150822Y-105855956I77055J-28046D01*
G01*
X151500221Y-106347097D01*
G75*
G02*
X151549230Y-106452198I-28046J-77055D01*
G01*
X151324865Y-107068637D01*
G75*
G02*
X151219764Y-107117646I-77055J28046D01*
G01*
G37*
G36*
G01*
X150706734Y-108527185D02*
X149357335Y-108036044D01*
G75*
G02*
X149308326Y-107930943I28046J77055D01*
G01*
X149532691Y-107314504D01*
G75*
G02*
X149637792Y-107265495I77055J-28046D01*
G01*
X150987191Y-107756636D01*
G75*
G02*
X151036200Y-107861737I-28046J-77055D01*
G01*
X150811835Y-108478176D01*
G75*
G02*
X150706734Y-108527185I-77055J28046D01*
G01*
G37*
G36*
G01*
X146333362Y-105339142D02*
X144983963Y-104848001D01*
G75*
G02*
X144934954Y-104742900I28046J77055D01*
G01*
X145159319Y-104126461D01*
G75*
G02*
X145264420Y-104077452I77055J-28046D01*
G01*
X146613819Y-104568593D01*
G75*
G02*
X146662828Y-104673694I-28046J-77055D01*
G01*
X146438463Y-105290133D01*
G75*
G02*
X146333362Y-105339142I-77055J28046D01*
G01*
G37*
G36*
G01*
X145820332Y-106748681D02*
X144470933Y-106257540D01*
G75*
G02*
X144421924Y-106152439I28046J77055D01*
G01*
X144646289Y-105536000D01*
G75*
G02*
X144751390Y-105486991I77055J-28046D01*
G01*
X146100789Y-105978132D01*
G75*
G02*
X146149798Y-106083233I-28046J-77055D01*
G01*
X145925433Y-106699672D01*
G75*
G02*
X145820332Y-106748681I-77055J28046D01*
G01*
G37*
%TD*%
%TO.C,D72*%
G36*
G01*
X102315586Y-73106488D02*
X100879586Y-73106488D01*
G75*
G02*
X100797586Y-73024488I0J82000D01*
G01*
X100797586Y-72368488D01*
G75*
G02*
X100879586Y-72286488I82000J0D01*
G01*
X102315586Y-72286488D01*
G75*
G02*
X102397586Y-72368488I0J-82000D01*
G01*
X102397586Y-73024488D01*
G75*
G02*
X102315586Y-73106488I-82000J0D01*
G01*
G37*
G36*
G01*
X102315586Y-74606488D02*
X100879586Y-74606488D01*
G75*
G02*
X100797586Y-74524488I0J82000D01*
G01*
X100797586Y-73868488D01*
G75*
G02*
X100879586Y-73786488I82000J0D01*
G01*
X102315586Y-73786488D01*
G75*
G02*
X102397586Y-73868488I0J-82000D01*
G01*
X102397586Y-74524488D01*
G75*
G02*
X102315586Y-74606488I-82000J0D01*
G01*
G37*
G36*
G01*
X97115586Y-73106488D02*
X95679586Y-73106488D01*
G75*
G02*
X95597586Y-73024488I0J82000D01*
G01*
X95597586Y-72368488D01*
G75*
G02*
X95679586Y-72286488I82000J0D01*
G01*
X97115586Y-72286488D01*
G75*
G02*
X97197586Y-72368488I0J-82000D01*
G01*
X97197586Y-73024488D01*
G75*
G02*
X97115586Y-73106488I-82000J0D01*
G01*
G37*
G36*
G01*
X97115586Y-74606488D02*
X95679586Y-74606488D01*
G75*
G02*
X95597586Y-74524488I0J82000D01*
G01*
X95597586Y-73868488D01*
G75*
G02*
X95679586Y-73786488I82000J0D01*
G01*
X97115586Y-73786488D01*
G75*
G02*
X97197586Y-73868488I0J-82000D01*
G01*
X97197586Y-74524488D01*
G75*
G02*
X97115586Y-74606488I-82000J0D01*
G01*
G37*
%TD*%
%TO.C,D71*%
G36*
G01*
X130172439Y-100879263D02*
X128758255Y-100629905D01*
G75*
G02*
X128691740Y-100534912I14239J80754D01*
G01*
X128805654Y-99888878D01*
G75*
G02*
X128900647Y-99822363I80754J-14239D01*
G01*
X130314831Y-100071721D01*
G75*
G02*
X130381346Y-100166714I-14239J-80754D01*
G01*
X130267432Y-100812748D01*
G75*
G02*
X130172439Y-100879263I-80754J14239D01*
G01*
G37*
G36*
G01*
X129911967Y-102356475D02*
X128497783Y-102107117D01*
G75*
G02*
X128431268Y-102012124I14239J80754D01*
G01*
X128545182Y-101366090D01*
G75*
G02*
X128640175Y-101299575I80754J-14239D01*
G01*
X130054359Y-101548933D01*
G75*
G02*
X130120874Y-101643926I-14239J-80754D01*
G01*
X130006960Y-102289960D01*
G75*
G02*
X129911967Y-102356475I-80754J14239D01*
G01*
G37*
G36*
G01*
X125051439Y-99976293D02*
X123637255Y-99726935D01*
G75*
G02*
X123570740Y-99631942I14239J80754D01*
G01*
X123684654Y-98985908D01*
G75*
G02*
X123779647Y-98919393I80754J-14239D01*
G01*
X125193831Y-99168751D01*
G75*
G02*
X125260346Y-99263744I-14239J-80754D01*
G01*
X125146432Y-99909778D01*
G75*
G02*
X125051439Y-99976293I-80754J14239D01*
G01*
G37*
G36*
G01*
X124790966Y-101453504D02*
X123376782Y-101204146D01*
G75*
G02*
X123310267Y-101109153I14239J80754D01*
G01*
X123424181Y-100463119D01*
G75*
G02*
X123519174Y-100396604I80754J-14239D01*
G01*
X124933358Y-100645962D01*
G75*
G02*
X124999873Y-100740955I-14239J-80754D01*
G01*
X124885959Y-101386989D01*
G75*
G02*
X124790966Y-101453504I-80754J14239D01*
G01*
G37*
%TD*%
%TO.C,D70*%
G36*
G01*
X102315587Y-54106488D02*
X100879587Y-54106488D01*
G75*
G02*
X100797587Y-54024488I0J82000D01*
G01*
X100797587Y-53368488D01*
G75*
G02*
X100879587Y-53286488I82000J0D01*
G01*
X102315587Y-53286488D01*
G75*
G02*
X102397587Y-53368488I0J-82000D01*
G01*
X102397587Y-54024488D01*
G75*
G02*
X102315587Y-54106488I-82000J0D01*
G01*
G37*
G36*
G01*
X102315587Y-55606488D02*
X100879587Y-55606488D01*
G75*
G02*
X100797587Y-55524488I0J82000D01*
G01*
X100797587Y-54868488D01*
G75*
G02*
X100879587Y-54786488I82000J0D01*
G01*
X102315587Y-54786488D01*
G75*
G02*
X102397587Y-54868488I0J-82000D01*
G01*
X102397587Y-55524488D01*
G75*
G02*
X102315587Y-55606488I-82000J0D01*
G01*
G37*
G36*
G01*
X97115587Y-54106488D02*
X95679587Y-54106488D01*
G75*
G02*
X95597587Y-54024488I0J82000D01*
G01*
X95597587Y-53368488D01*
G75*
G02*
X95679587Y-53286488I82000J0D01*
G01*
X97115587Y-53286488D01*
G75*
G02*
X97197587Y-53368488I0J-82000D01*
G01*
X97197587Y-54024488D01*
G75*
G02*
X97115587Y-54106488I-82000J0D01*
G01*
G37*
G36*
G01*
X97115587Y-55606488D02*
X95679587Y-55606488D01*
G75*
G02*
X95597587Y-55524488I0J82000D01*
G01*
X95597587Y-54868488D01*
G75*
G02*
X95679587Y-54786488I82000J0D01*
G01*
X97115587Y-54786488D01*
G75*
G02*
X97197587Y-54868488I0J-82000D01*
G01*
X97197587Y-55524488D01*
G75*
G02*
X97115587Y-55606488I-82000J0D01*
G01*
G37*
%TD*%
%TO.C,D69*%
G36*
G01*
X102315587Y-35106489D02*
X100879587Y-35106489D01*
G75*
G02*
X100797587Y-35024489I0J82000D01*
G01*
X100797587Y-34368489D01*
G75*
G02*
X100879587Y-34286489I82000J0D01*
G01*
X102315587Y-34286489D01*
G75*
G02*
X102397587Y-34368489I0J-82000D01*
G01*
X102397587Y-35024489D01*
G75*
G02*
X102315587Y-35106489I-82000J0D01*
G01*
G37*
G36*
G01*
X102315587Y-36606489D02*
X100879587Y-36606489D01*
G75*
G02*
X100797587Y-36524489I0J82000D01*
G01*
X100797587Y-35868489D01*
G75*
G02*
X100879587Y-35786489I82000J0D01*
G01*
X102315587Y-35786489D01*
G75*
G02*
X102397587Y-35868489I0J-82000D01*
G01*
X102397587Y-36524489D01*
G75*
G02*
X102315587Y-36606489I-82000J0D01*
G01*
G37*
G36*
G01*
X97115587Y-35106489D02*
X95679587Y-35106489D01*
G75*
G02*
X95597587Y-35024489I0J82000D01*
G01*
X95597587Y-34368489D01*
G75*
G02*
X95679587Y-34286489I82000J0D01*
G01*
X97115587Y-34286489D01*
G75*
G02*
X97197587Y-34368489I0J-82000D01*
G01*
X97197587Y-35024489D01*
G75*
G02*
X97115587Y-35106489I-82000J0D01*
G01*
G37*
G36*
G01*
X97115587Y-36606489D02*
X95679587Y-36606489D01*
G75*
G02*
X95597587Y-36524489I0J82000D01*
G01*
X95597587Y-35868489D01*
G75*
G02*
X95679587Y-35786489I82000J0D01*
G01*
X97115587Y-35786489D01*
G75*
G02*
X97197587Y-35868489I0J-82000D01*
G01*
X97197587Y-36524489D01*
G75*
G02*
X97115587Y-36606489I-82000J0D01*
G01*
G37*
%TD*%
%TO.C,D68*%
G36*
G01*
X108396593Y-98294405D02*
X106960593Y-98294405D01*
G75*
G02*
X106878593Y-98212405I0J82000D01*
G01*
X106878593Y-97556405D01*
G75*
G02*
X106960593Y-97474405I82000J0D01*
G01*
X108396593Y-97474405D01*
G75*
G02*
X108478593Y-97556405I0J-82000D01*
G01*
X108478593Y-98212405D01*
G75*
G02*
X108396593Y-98294405I-82000J0D01*
G01*
G37*
G36*
G01*
X108396593Y-99794405D02*
X106960593Y-99794405D01*
G75*
G02*
X106878593Y-99712405I0J82000D01*
G01*
X106878593Y-99056405D01*
G75*
G02*
X106960593Y-98974405I82000J0D01*
G01*
X108396593Y-98974405D01*
G75*
G02*
X108478593Y-99056405I0J-82000D01*
G01*
X108478593Y-99712405D01*
G75*
G02*
X108396593Y-99794405I-82000J0D01*
G01*
G37*
G36*
G01*
X103196593Y-98294405D02*
X101760593Y-98294405D01*
G75*
G02*
X101678593Y-98212405I0J82000D01*
G01*
X101678593Y-97556405D01*
G75*
G02*
X101760593Y-97474405I82000J0D01*
G01*
X103196593Y-97474405D01*
G75*
G02*
X103278593Y-97556405I0J-82000D01*
G01*
X103278593Y-98212405D01*
G75*
G02*
X103196593Y-98294405I-82000J0D01*
G01*
G37*
G36*
G01*
X103196593Y-99794405D02*
X101760593Y-99794405D01*
G75*
G02*
X101678593Y-99712405I0J82000D01*
G01*
X101678593Y-99056405D01*
G75*
G02*
X101760593Y-98974405I82000J0D01*
G01*
X103196593Y-98974405D01*
G75*
G02*
X103278593Y-99056405I0J-82000D01*
G01*
X103278593Y-99712405D01*
G75*
G02*
X103196593Y-99794405I-82000J0D01*
G01*
G37*
%TD*%
%TO.C,D67*%
G36*
G01*
X83315588Y-40106489D02*
X81879588Y-40106489D01*
G75*
G02*
X81797588Y-40024489I0J82000D01*
G01*
X81797588Y-39368489D01*
G75*
G02*
X81879588Y-39286489I82000J0D01*
G01*
X83315588Y-39286489D01*
G75*
G02*
X83397588Y-39368489I0J-82000D01*
G01*
X83397588Y-40024489D01*
G75*
G02*
X83315588Y-40106489I-82000J0D01*
G01*
G37*
G36*
G01*
X83315588Y-41606489D02*
X81879588Y-41606489D01*
G75*
G02*
X81797588Y-41524489I0J82000D01*
G01*
X81797588Y-40868489D01*
G75*
G02*
X81879588Y-40786489I82000J0D01*
G01*
X83315588Y-40786489D01*
G75*
G02*
X83397588Y-40868489I0J-82000D01*
G01*
X83397588Y-41524489D01*
G75*
G02*
X83315588Y-41606489I-82000J0D01*
G01*
G37*
G36*
G01*
X78115588Y-40106489D02*
X76679588Y-40106489D01*
G75*
G02*
X76597588Y-40024489I0J82000D01*
G01*
X76597588Y-39368489D01*
G75*
G02*
X76679588Y-39286489I82000J0D01*
G01*
X78115588Y-39286489D01*
G75*
G02*
X78197588Y-39368489I0J-82000D01*
G01*
X78197588Y-40024489D01*
G75*
G02*
X78115588Y-40106489I-82000J0D01*
G01*
G37*
G36*
G01*
X78115588Y-41606489D02*
X76679588Y-41606489D01*
G75*
G02*
X76597588Y-41524489I0J82000D01*
G01*
X76597588Y-40868489D01*
G75*
G02*
X76679588Y-40786489I82000J0D01*
G01*
X78115588Y-40786489D01*
G75*
G02*
X78197588Y-40868489I0J-82000D01*
G01*
X78197588Y-41524489D01*
G75*
G02*
X78115588Y-41606489I-82000J0D01*
G01*
G37*
%TD*%
%TO.C,D66*%
G36*
G01*
X140315585Y-80606488D02*
X138879585Y-80606488D01*
G75*
G02*
X138797585Y-80524488I0J82000D01*
G01*
X138797585Y-79868488D01*
G75*
G02*
X138879585Y-79786488I82000J0D01*
G01*
X140315585Y-79786488D01*
G75*
G02*
X140397585Y-79868488I0J-82000D01*
G01*
X140397585Y-80524488D01*
G75*
G02*
X140315585Y-80606488I-82000J0D01*
G01*
G37*
G36*
G01*
X140315585Y-82106488D02*
X138879585Y-82106488D01*
G75*
G02*
X138797585Y-82024488I0J82000D01*
G01*
X138797585Y-81368488D01*
G75*
G02*
X138879585Y-81286488I82000J0D01*
G01*
X140315585Y-81286488D01*
G75*
G02*
X140397585Y-81368488I0J-82000D01*
G01*
X140397585Y-82024488D01*
G75*
G02*
X140315585Y-82106488I-82000J0D01*
G01*
G37*
G36*
G01*
X135115585Y-80606488D02*
X133679585Y-80606488D01*
G75*
G02*
X133597585Y-80524488I0J82000D01*
G01*
X133597585Y-79868488D01*
G75*
G02*
X133679585Y-79786488I82000J0D01*
G01*
X135115585Y-79786488D01*
G75*
G02*
X135197585Y-79868488I0J-82000D01*
G01*
X135197585Y-80524488D01*
G75*
G02*
X135115585Y-80606488I-82000J0D01*
G01*
G37*
G36*
G01*
X135115585Y-82106488D02*
X133679585Y-82106488D01*
G75*
G02*
X133597585Y-82024488I0J82000D01*
G01*
X133597585Y-81368488D01*
G75*
G02*
X133679585Y-81286488I82000J0D01*
G01*
X135115585Y-81286488D01*
G75*
G02*
X135197585Y-81368488I0J-82000D01*
G01*
X135197585Y-82024488D01*
G75*
G02*
X135115585Y-82106488I-82000J0D01*
G01*
G37*
%TD*%
%TO.C,D65*%
G36*
G01*
X83315588Y-59106488D02*
X81879588Y-59106488D01*
G75*
G02*
X81797588Y-59024488I0J82000D01*
G01*
X81797588Y-58368488D01*
G75*
G02*
X81879588Y-58286488I82000J0D01*
G01*
X83315588Y-58286488D01*
G75*
G02*
X83397588Y-58368488I0J-82000D01*
G01*
X83397588Y-59024488D01*
G75*
G02*
X83315588Y-59106488I-82000J0D01*
G01*
G37*
G36*
G01*
X83315588Y-60606488D02*
X81879588Y-60606488D01*
G75*
G02*
X81797588Y-60524488I0J82000D01*
G01*
X81797588Y-59868488D01*
G75*
G02*
X81879588Y-59786488I82000J0D01*
G01*
X83315588Y-59786488D01*
G75*
G02*
X83397588Y-59868488I0J-82000D01*
G01*
X83397588Y-60524488D01*
G75*
G02*
X83315588Y-60606488I-82000J0D01*
G01*
G37*
G36*
G01*
X78115588Y-59106488D02*
X76679588Y-59106488D01*
G75*
G02*
X76597588Y-59024488I0J82000D01*
G01*
X76597588Y-58368488D01*
G75*
G02*
X76679588Y-58286488I82000J0D01*
G01*
X78115588Y-58286488D01*
G75*
G02*
X78197588Y-58368488I0J-82000D01*
G01*
X78197588Y-59024488D01*
G75*
G02*
X78115588Y-59106488I-82000J0D01*
G01*
G37*
G36*
G01*
X78115588Y-60606488D02*
X76679588Y-60606488D01*
G75*
G02*
X76597588Y-60524488I0J82000D01*
G01*
X76597588Y-59868488D01*
G75*
G02*
X76679588Y-59786488I82000J0D01*
G01*
X78115588Y-59786488D01*
G75*
G02*
X78197588Y-59868488I0J-82000D01*
G01*
X78197588Y-60524488D01*
G75*
G02*
X78115588Y-60606488I-82000J0D01*
G01*
G37*
%TD*%
%TO.C,D64*%
G36*
G01*
X140315585Y-61606489D02*
X138879585Y-61606489D01*
G75*
G02*
X138797585Y-61524489I0J82000D01*
G01*
X138797585Y-60868489D01*
G75*
G02*
X138879585Y-60786489I82000J0D01*
G01*
X140315585Y-60786489D01*
G75*
G02*
X140397585Y-60868489I0J-82000D01*
G01*
X140397585Y-61524489D01*
G75*
G02*
X140315585Y-61606489I-82000J0D01*
G01*
G37*
G36*
G01*
X140315585Y-63106489D02*
X138879585Y-63106489D01*
G75*
G02*
X138797585Y-63024489I0J82000D01*
G01*
X138797585Y-62368489D01*
G75*
G02*
X138879585Y-62286489I82000J0D01*
G01*
X140315585Y-62286489D01*
G75*
G02*
X140397585Y-62368489I0J-82000D01*
G01*
X140397585Y-63024489D01*
G75*
G02*
X140315585Y-63106489I-82000J0D01*
G01*
G37*
G36*
G01*
X135115585Y-61606489D02*
X133679585Y-61606489D01*
G75*
G02*
X133597585Y-61524489I0J82000D01*
G01*
X133597585Y-60868489D01*
G75*
G02*
X133679585Y-60786489I82000J0D01*
G01*
X135115585Y-60786489D01*
G75*
G02*
X135197585Y-60868489I0J-82000D01*
G01*
X135197585Y-61524489D01*
G75*
G02*
X135115585Y-61606489I-82000J0D01*
G01*
G37*
G36*
G01*
X135115585Y-63106489D02*
X133679585Y-63106489D01*
G75*
G02*
X133597585Y-63024489I0J82000D01*
G01*
X133597585Y-62368489D01*
G75*
G02*
X133679585Y-62286489I82000J0D01*
G01*
X135115585Y-62286489D01*
G75*
G02*
X135197585Y-62368489I0J-82000D01*
G01*
X135197585Y-63024489D01*
G75*
G02*
X135115585Y-63106489I-82000J0D01*
G01*
G37*
%TD*%
%TO.C,D63*%
G36*
G01*
X83315587Y-78106487D02*
X81879587Y-78106487D01*
G75*
G02*
X81797587Y-78024487I0J82000D01*
G01*
X81797587Y-77368487D01*
G75*
G02*
X81879587Y-77286487I82000J0D01*
G01*
X83315587Y-77286487D01*
G75*
G02*
X83397587Y-77368487I0J-82000D01*
G01*
X83397587Y-78024487D01*
G75*
G02*
X83315587Y-78106487I-82000J0D01*
G01*
G37*
G36*
G01*
X83315587Y-79606487D02*
X81879587Y-79606487D01*
G75*
G02*
X81797587Y-79524487I0J82000D01*
G01*
X81797587Y-78868487D01*
G75*
G02*
X81879587Y-78786487I82000J0D01*
G01*
X83315587Y-78786487D01*
G75*
G02*
X83397587Y-78868487I0J-82000D01*
G01*
X83397587Y-79524487D01*
G75*
G02*
X83315587Y-79606487I-82000J0D01*
G01*
G37*
G36*
G01*
X78115587Y-78106487D02*
X76679587Y-78106487D01*
G75*
G02*
X76597587Y-78024487I0J82000D01*
G01*
X76597587Y-77368487D01*
G75*
G02*
X76679587Y-77286487I82000J0D01*
G01*
X78115587Y-77286487D01*
G75*
G02*
X78197587Y-77368487I0J-82000D01*
G01*
X78197587Y-78024487D01*
G75*
G02*
X78115587Y-78106487I-82000J0D01*
G01*
G37*
G36*
G01*
X78115587Y-79606487D02*
X76679587Y-79606487D01*
G75*
G02*
X76597587Y-79524487I0J82000D01*
G01*
X76597587Y-78868487D01*
G75*
G02*
X76679587Y-78786487I82000J0D01*
G01*
X78115587Y-78786487D01*
G75*
G02*
X78197587Y-78868487I0J-82000D01*
G01*
X78197587Y-79524487D01*
G75*
G02*
X78115587Y-79606487I-82000J0D01*
G01*
G37*
%TD*%
%TO.C,D62*%
G36*
G01*
X140315585Y-42606490D02*
X138879585Y-42606490D01*
G75*
G02*
X138797585Y-42524490I0J82000D01*
G01*
X138797585Y-41868490D01*
G75*
G02*
X138879585Y-41786490I82000J0D01*
G01*
X140315585Y-41786490D01*
G75*
G02*
X140397585Y-41868490I0J-82000D01*
G01*
X140397585Y-42524490D01*
G75*
G02*
X140315585Y-42606490I-82000J0D01*
G01*
G37*
G36*
G01*
X140315585Y-44106490D02*
X138879585Y-44106490D01*
G75*
G02*
X138797585Y-44024490I0J82000D01*
G01*
X138797585Y-43368490D01*
G75*
G02*
X138879585Y-43286490I82000J0D01*
G01*
X140315585Y-43286490D01*
G75*
G02*
X140397585Y-43368490I0J-82000D01*
G01*
X140397585Y-44024490D01*
G75*
G02*
X140315585Y-44106490I-82000J0D01*
G01*
G37*
G36*
G01*
X135115585Y-42606490D02*
X133679585Y-42606490D01*
G75*
G02*
X133597585Y-42524490I0J82000D01*
G01*
X133597585Y-41868490D01*
G75*
G02*
X133679585Y-41786490I82000J0D01*
G01*
X135115585Y-41786490D01*
G75*
G02*
X135197585Y-41868490I0J-82000D01*
G01*
X135197585Y-42524490D01*
G75*
G02*
X135115585Y-42606490I-82000J0D01*
G01*
G37*
G36*
G01*
X135115585Y-44106490D02*
X133679585Y-44106490D01*
G75*
G02*
X133597585Y-44024490I0J82000D01*
G01*
X133597585Y-43368490D01*
G75*
G02*
X133679585Y-43286490I82000J0D01*
G01*
X135115585Y-43286490D01*
G75*
G02*
X135197585Y-43368490I0J-82000D01*
G01*
X135197585Y-44024490D01*
G75*
G02*
X135115585Y-44106490I-82000J0D01*
G01*
G37*
%TD*%
%TO.C,D61*%
G36*
G01*
X121315586Y-40106489D02*
X119879586Y-40106489D01*
G75*
G02*
X119797586Y-40024489I0J82000D01*
G01*
X119797586Y-39368489D01*
G75*
G02*
X119879586Y-39286489I82000J0D01*
G01*
X121315586Y-39286489D01*
G75*
G02*
X121397586Y-39368489I0J-82000D01*
G01*
X121397586Y-40024489D01*
G75*
G02*
X121315586Y-40106489I-82000J0D01*
G01*
G37*
G36*
G01*
X121315586Y-41606489D02*
X119879586Y-41606489D01*
G75*
G02*
X119797586Y-41524489I0J82000D01*
G01*
X119797586Y-40868489D01*
G75*
G02*
X119879586Y-40786489I82000J0D01*
G01*
X121315586Y-40786489D01*
G75*
G02*
X121397586Y-40868489I0J-82000D01*
G01*
X121397586Y-41524489D01*
G75*
G02*
X121315586Y-41606489I-82000J0D01*
G01*
G37*
G36*
G01*
X116115586Y-40106489D02*
X114679586Y-40106489D01*
G75*
G02*
X114597586Y-40024489I0J82000D01*
G01*
X114597586Y-39368489D01*
G75*
G02*
X114679586Y-39286489I82000J0D01*
G01*
X116115586Y-39286489D01*
G75*
G02*
X116197586Y-39368489I0J-82000D01*
G01*
X116197586Y-40024489D01*
G75*
G02*
X116115586Y-40106489I-82000J0D01*
G01*
G37*
G36*
G01*
X116115586Y-41606489D02*
X114679586Y-41606489D01*
G75*
G02*
X114597586Y-41524489I0J82000D01*
G01*
X114597586Y-40868489D01*
G75*
G02*
X114679586Y-40786489I82000J0D01*
G01*
X116115586Y-40786489D01*
G75*
G02*
X116197586Y-40868489I0J-82000D01*
G01*
X116197586Y-41524489D01*
G75*
G02*
X116115586Y-41606489I-82000J0D01*
G01*
G37*
%TD*%
%TO.C,D58*%
G36*
G01*
X64315588Y-90606486D02*
X62879588Y-90606486D01*
G75*
G02*
X62797588Y-90524486I0J82000D01*
G01*
X62797588Y-89868486D01*
G75*
G02*
X62879588Y-89786486I82000J0D01*
G01*
X64315588Y-89786486D01*
G75*
G02*
X64397588Y-89868486I0J-82000D01*
G01*
X64397588Y-90524486D01*
G75*
G02*
X64315588Y-90606486I-82000J0D01*
G01*
G37*
G36*
G01*
X64315588Y-92106486D02*
X62879588Y-92106486D01*
G75*
G02*
X62797588Y-92024486I0J82000D01*
G01*
X62797588Y-91368486D01*
G75*
G02*
X62879588Y-91286486I82000J0D01*
G01*
X64315588Y-91286486D01*
G75*
G02*
X64397588Y-91368486I0J-82000D01*
G01*
X64397588Y-92024486D01*
G75*
G02*
X64315588Y-92106486I-82000J0D01*
G01*
G37*
G36*
G01*
X59115588Y-90606486D02*
X57679588Y-90606486D01*
G75*
G02*
X57597588Y-90524486I0J82000D01*
G01*
X57597588Y-89868486D01*
G75*
G02*
X57679588Y-89786486I82000J0D01*
G01*
X59115588Y-89786486D01*
G75*
G02*
X59197588Y-89868486I0J-82000D01*
G01*
X59197588Y-90524486D01*
G75*
G02*
X59115588Y-90606486I-82000J0D01*
G01*
G37*
G36*
G01*
X59115588Y-92106486D02*
X57679588Y-92106486D01*
G75*
G02*
X57597588Y-92024486I0J82000D01*
G01*
X57597588Y-91368486D01*
G75*
G02*
X57679588Y-91286486I82000J0D01*
G01*
X59115588Y-91286486D01*
G75*
G02*
X59197588Y-91368486I0J-82000D01*
G01*
X59197588Y-92024486D01*
G75*
G02*
X59115588Y-92106486I-82000J0D01*
G01*
G37*
%TD*%
%TO.C,D44*%
G36*
G01*
X121315586Y-59106488D02*
X119879586Y-59106488D01*
G75*
G02*
X119797586Y-59024488I0J82000D01*
G01*
X119797586Y-58368488D01*
G75*
G02*
X119879586Y-58286488I82000J0D01*
G01*
X121315586Y-58286488D01*
G75*
G02*
X121397586Y-58368488I0J-82000D01*
G01*
X121397586Y-59024488D01*
G75*
G02*
X121315586Y-59106488I-82000J0D01*
G01*
G37*
G36*
G01*
X121315586Y-60606488D02*
X119879586Y-60606488D01*
G75*
G02*
X119797586Y-60524488I0J82000D01*
G01*
X119797586Y-59868488D01*
G75*
G02*
X119879586Y-59786488I82000J0D01*
G01*
X121315586Y-59786488D01*
G75*
G02*
X121397586Y-59868488I0J-82000D01*
G01*
X121397586Y-60524488D01*
G75*
G02*
X121315586Y-60606488I-82000J0D01*
G01*
G37*
G36*
G01*
X116115586Y-59106488D02*
X114679586Y-59106488D01*
G75*
G02*
X114597586Y-59024488I0J82000D01*
G01*
X114597586Y-58368488D01*
G75*
G02*
X114679586Y-58286488I82000J0D01*
G01*
X116115586Y-58286488D01*
G75*
G02*
X116197586Y-58368488I0J-82000D01*
G01*
X116197586Y-59024488D01*
G75*
G02*
X116115586Y-59106488I-82000J0D01*
G01*
G37*
G36*
G01*
X116115586Y-60606488D02*
X114679586Y-60606488D01*
G75*
G02*
X114597586Y-60524488I0J82000D01*
G01*
X114597586Y-59868488D01*
G75*
G02*
X114679586Y-59786488I82000J0D01*
G01*
X116115586Y-59786488D01*
G75*
G02*
X116197586Y-59868488I0J-82000D01*
G01*
X116197586Y-60524488D01*
G75*
G02*
X116115586Y-60606488I-82000J0D01*
G01*
G37*
%TD*%
%TO.C,D40*%
G36*
G01*
X64315589Y-71606487D02*
X62879589Y-71606487D01*
G75*
G02*
X62797589Y-71524487I0J82000D01*
G01*
X62797589Y-70868487D01*
G75*
G02*
X62879589Y-70786487I82000J0D01*
G01*
X64315589Y-70786487D01*
G75*
G02*
X64397589Y-70868487I0J-82000D01*
G01*
X64397589Y-71524487D01*
G75*
G02*
X64315589Y-71606487I-82000J0D01*
G01*
G37*
G36*
G01*
X64315589Y-73106487D02*
X62879589Y-73106487D01*
G75*
G02*
X62797589Y-73024487I0J82000D01*
G01*
X62797589Y-72368487D01*
G75*
G02*
X62879589Y-72286487I82000J0D01*
G01*
X64315589Y-72286487D01*
G75*
G02*
X64397589Y-72368487I0J-82000D01*
G01*
X64397589Y-73024487D01*
G75*
G02*
X64315589Y-73106487I-82000J0D01*
G01*
G37*
G36*
G01*
X59115589Y-71606487D02*
X57679589Y-71606487D01*
G75*
G02*
X57597589Y-71524487I0J82000D01*
G01*
X57597589Y-70868487D01*
G75*
G02*
X57679589Y-70786487I82000J0D01*
G01*
X59115589Y-70786487D01*
G75*
G02*
X59197589Y-70868487I0J-82000D01*
G01*
X59197589Y-71524487D01*
G75*
G02*
X59115589Y-71606487I-82000J0D01*
G01*
G37*
G36*
G01*
X59115589Y-73106487D02*
X57679589Y-73106487D01*
G75*
G02*
X57597589Y-73024487I0J82000D01*
G01*
X57597589Y-72368487D01*
G75*
G02*
X57679589Y-72286487I82000J0D01*
G01*
X59115589Y-72286487D01*
G75*
G02*
X59197589Y-72368487I0J-82000D01*
G01*
X59197589Y-73024487D01*
G75*
G02*
X59115589Y-73106487I-82000J0D01*
G01*
G37*
%TD*%
%TO.C,D39*%
G36*
G01*
X121315586Y-78106488D02*
X119879586Y-78106488D01*
G75*
G02*
X119797586Y-78024488I0J82000D01*
G01*
X119797586Y-77368488D01*
G75*
G02*
X119879586Y-77286488I82000J0D01*
G01*
X121315586Y-77286488D01*
G75*
G02*
X121397586Y-77368488I0J-82000D01*
G01*
X121397586Y-78024488D01*
G75*
G02*
X121315586Y-78106488I-82000J0D01*
G01*
G37*
G36*
G01*
X121315586Y-79606488D02*
X119879586Y-79606488D01*
G75*
G02*
X119797586Y-79524488I0J82000D01*
G01*
X119797586Y-78868488D01*
G75*
G02*
X119879586Y-78786488I82000J0D01*
G01*
X121315586Y-78786488D01*
G75*
G02*
X121397586Y-78868488I0J-82000D01*
G01*
X121397586Y-79524488D01*
G75*
G02*
X121315586Y-79606488I-82000J0D01*
G01*
G37*
G36*
G01*
X116115586Y-78106488D02*
X114679586Y-78106488D01*
G75*
G02*
X114597586Y-78024488I0J82000D01*
G01*
X114597586Y-77368488D01*
G75*
G02*
X114679586Y-77286488I82000J0D01*
G01*
X116115586Y-77286488D01*
G75*
G02*
X116197586Y-77368488I0J-82000D01*
G01*
X116197586Y-78024488D01*
G75*
G02*
X116115586Y-78106488I-82000J0D01*
G01*
G37*
G36*
G01*
X116115586Y-79606488D02*
X114679586Y-79606488D01*
G75*
G02*
X114597586Y-79524488I0J82000D01*
G01*
X114597586Y-78868488D01*
G75*
G02*
X114679586Y-78786488I82000J0D01*
G01*
X116115586Y-78786488D01*
G75*
G02*
X116197586Y-78868488I0J-82000D01*
G01*
X116197586Y-79524488D01*
G75*
G02*
X116115586Y-79606488I-82000J0D01*
G01*
G37*
%TD*%
%TO.C,D38*%
G36*
G01*
X64315589Y-52606488D02*
X62879589Y-52606488D01*
G75*
G02*
X62797589Y-52524488I0J82000D01*
G01*
X62797589Y-51868488D01*
G75*
G02*
X62879589Y-51786488I82000J0D01*
G01*
X64315589Y-51786488D01*
G75*
G02*
X64397589Y-51868488I0J-82000D01*
G01*
X64397589Y-52524488D01*
G75*
G02*
X64315589Y-52606488I-82000J0D01*
G01*
G37*
G36*
G01*
X64315589Y-54106488D02*
X62879589Y-54106488D01*
G75*
G02*
X62797589Y-54024488I0J82000D01*
G01*
X62797589Y-53368488D01*
G75*
G02*
X62879589Y-53286488I82000J0D01*
G01*
X64315589Y-53286488D01*
G75*
G02*
X64397589Y-53368488I0J-82000D01*
G01*
X64397589Y-54024488D01*
G75*
G02*
X64315589Y-54106488I-82000J0D01*
G01*
G37*
G36*
G01*
X59115589Y-52606488D02*
X57679589Y-52606488D01*
G75*
G02*
X57597589Y-52524488I0J82000D01*
G01*
X57597589Y-51868488D01*
G75*
G02*
X57679589Y-51786488I82000J0D01*
G01*
X59115589Y-51786488D01*
G75*
G02*
X59197589Y-51868488I0J-82000D01*
G01*
X59197589Y-52524488D01*
G75*
G02*
X59115589Y-52606488I-82000J0D01*
G01*
G37*
G36*
G01*
X59115589Y-54106488D02*
X57679589Y-54106488D01*
G75*
G02*
X57597589Y-54024488I0J82000D01*
G01*
X57597589Y-53368488D01*
G75*
G02*
X57679589Y-53286488I82000J0D01*
G01*
X59115589Y-53286488D01*
G75*
G02*
X59197589Y-53368488I0J-82000D01*
G01*
X59197589Y-54024488D01*
G75*
G02*
X59115589Y-54106488I-82000J0D01*
G01*
G37*
%TD*%
D10*
%TO.C,D37*%
X72192593Y-108258404D03*
X72192593Y-111558404D03*
%TD*%
D11*
%TO.C,D36*%
G36*
X145251012Y-119963144D02*
G01*
X145661436Y-118835512D01*
X146507160Y-119143330D01*
X146096736Y-120270962D01*
X145251012Y-119963144D01*
G37*
G36*
X142150026Y-118834478D02*
G01*
X142560450Y-117706846D01*
X143406174Y-118014664D01*
X142995750Y-119142296D01*
X142150026Y-118834478D01*
G37*
%TD*%
D12*
%TO.C,D33*%
X139057093Y-94693804D03*
X135757093Y-94693804D03*
%TD*%
%TO.C,D32*%
X138777693Y-75694604D03*
X135477693Y-75694604D03*
%TD*%
%TO.C,D31*%
X138752293Y-56733504D03*
X135452293Y-56733504D03*
%TD*%
D11*
%TO.C,D30*%
G36*
X134459855Y-110088123D02*
G01*
X133278086Y-109879746D01*
X133434369Y-108993419D01*
X134616138Y-109201796D01*
X134459855Y-110088123D01*
G37*
G36*
X133886817Y-113337989D02*
G01*
X132705048Y-113129612D01*
X132861331Y-112243285D01*
X134043100Y-112451662D01*
X133886817Y-113337989D01*
G37*
%TD*%
D10*
%TO.C,D29*%
X126739093Y-86096904D03*
X126739093Y-89396904D03*
%TD*%
%TO.C,D28*%
X126802593Y-67148504D03*
X126802593Y-70448504D03*
%TD*%
%TO.C,D27*%
X126726393Y-48860504D03*
X126726393Y-52160504D03*
%TD*%
D12*
%TO.C,D26*%
X107522993Y-112118204D03*
X104222993Y-112118204D03*
%TD*%
D10*
%TO.C,D20*%
X107752593Y-81067704D03*
X107752593Y-84367704D03*
%TD*%
D12*
%TO.C,D19*%
X100931693Y-68201604D03*
X97631693Y-68201604D03*
%TD*%
%TO.C,D18*%
X100626893Y-49100804D03*
X97326893Y-49100804D03*
%TD*%
D10*
%TO.C,D17*%
X88613693Y-86071504D03*
X88613693Y-89371504D03*
%TD*%
%TO.C,D16*%
X88677193Y-67059604D03*
X88677193Y-70359604D03*
%TD*%
D12*
%TO.C,D10*%
X82518693Y-54168104D03*
X85818693Y-54168104D03*
%TD*%
D10*
%TO.C,D9*%
X69779593Y-98619104D03*
X69779593Y-101919104D03*
%TD*%
%TO.C,D8*%
X69677993Y-79569104D03*
X69677993Y-82869104D03*
%TD*%
%TO.C,D7*%
X69665293Y-60557204D03*
X69665293Y-63857204D03*
%TD*%
D13*
%TO.C,SW41*%
X148193593Y-89409404D03*
X151893593Y-95609404D03*
X151893593Y-89409404D03*
X148193593Y-95609404D03*
%TD*%
%TO.C,R4*%
G36*
G01*
X150443593Y-86990406D02*
X150443593Y-86090402D01*
G75*
G02*
X150693591Y-85840404I249998J0D01*
G01*
X151218595Y-85840404D01*
G75*
G02*
X151468593Y-86090402I0J-249998D01*
G01*
X151468593Y-86990406D01*
G75*
G02*
X151218595Y-87240404I-249998J0D01*
G01*
X150693591Y-87240404D01*
G75*
G02*
X150443593Y-86990406I0J249998D01*
G01*
G37*
G36*
G01*
X148618593Y-86990406D02*
X148618593Y-86090402D01*
G75*
G02*
X148868591Y-85840404I249998J0D01*
G01*
X149393595Y-85840404D01*
G75*
G02*
X149643593Y-86090402I0J-249998D01*
G01*
X149643593Y-86990406D01*
G75*
G02*
X149393595Y-87240404I-249998J0D01*
G01*
X148868591Y-87240404D01*
G75*
G02*
X148618593Y-86990406I0J249998D01*
G01*
G37*
%TD*%
M02*
