M48
; DRILL file {KiCad (5.1.10)-1} date 11/02/21 14:23:09
; FORMAT={-:-/ absolute / inch / decimal}
; #@! TF.CreationDate,2021-11-02T14:23:09-07:00
; #@! TF.GenerationSoftware,Kicad,Pcbnew,(5.1.10)-1
; #@! TF.FileFunction,Plated,1,2,PTH
FMAT,2
INCH
T1C0.0157
T2C0.0354
T3C0.0394
T4C0.0430
T5C0.0590
%
G90
G05
T1
X2.2076Y-2.5379
X2.2142Y-2.0236
X2.2152Y-2.1126
X2.2394Y-2.8601
X2.2407Y-2.6636
X2.2485Y-2.5779
X2.2537Y-3.6646
X2.2817Y-2.9241
X2.2837Y-2.1841
X2.2992Y-3.6711
X2.3297Y-2.7326
X2.3752Y-3.4021
X2.4677Y-1.9746
X2.5037Y-2.6951
X2.5057Y-1.9362
X2.5127Y-3.4391
X2.5267Y-2.2011
X2.5752Y-2.664
X2.6102Y-2.7941
X2.6497Y-2.7351
X2.6767Y-3.3901
X2.6972Y-3.5671
X2.7427Y-2.3841
X2.7427Y-2.5146
X2.7432Y-3.1326
X2.7432Y-3.2631
X2.7472Y-3.8826
X2.7472Y-4.0131
X2.7977Y-3.5706
X2.8012Y-2.8446
X2.8027Y-2.0821
X2.8337Y-1.7286
X2.8422Y-4.2621
X2.8422Y-4.3921
X2.8632Y-1.7966
X2.8887Y-2.6131
X2.9222Y-2.1936
X2.9241Y-2.4416
X2.9241Y-2.9336
X2.9241Y-3.1871
X2.9347Y-1.5631
X2.9692Y-1.6416
X2.9747Y-1.4443
X2.9814Y-2.1936
X2.9814Y-2.3106
X2.9814Y-2.9336
X2.9814Y-3.0596
X2.9822Y-2.4161
X3.0097Y-3.2036
X3.0417Y-1.6846
X3.0432Y-2.4336
X3.0512Y-3.2156
X3.0682Y-1.4933
X3.1352Y-1.9731
X3.1367Y-4.2006
X3.1412Y-2.7301
X3.1642Y-2.0281
X3.1772Y-4.2006
X3.1797Y-2.7901
X3.1957Y-2.9716
X3.2067Y-2.2291
X3.2488Y-2.1326
X3.2527Y-1.4461
X3.2532Y-2.1936
X3.2602Y-2.9336
X3.2792Y-4.1051
X3.3282Y-4.0051
X3.3322Y-1.5731
X3.3482Y-1.4772
X3.3612Y-1.7046
X3.3732Y-4.0046
X3.3767Y-1.7916
X3.3787Y-2.1326
X3.3912Y-3.2006
X3.3942Y-1.4836
X3.3942Y-1.7396
X3.415Y-2.3309
X3.4194Y-3.168
X3.4412Y-1.6286
X3.4724Y-1.8756
X3.4757Y-2.5896
X3.4767Y-1.8246
X3.4887Y-3.3886
X3.4887Y-3.5186
X3.4912Y-2.6401
X3.4912Y-2.7701
X3.6216Y-2.6851
X3.6667Y-3.7366
X3.6797Y-2.9211
X3.6882Y-1.4216
X3.6882Y-1.5751
X3.6892Y-1.2531
X3.7279Y-2.8591
X3.7312Y-1.4821
X3.7352Y-2.7651
X3.7382Y-2.2025
X3.7652Y-1.5516
X3.7922Y-1.4871
X3.7922Y-2.9866
X3.7937Y-2.2336
X3.7947Y-1.2842
X3.7962Y-2.7962
X3.8142Y-3.6506
X3.8163Y-1.5183
X3.8318Y-1.9331
X3.8438Y-2.6851
X3.8692Y-3.9121
X3.9269Y-3.7366
X3.9269Y-3.8541
X3.9617Y-1.9331
X3.9632Y-1.9966
X3.9737Y-2.6851
X3.9972Y-1.2546
X4.0042Y-2.7651
X4.0237Y-3.9736
X4.0452Y-3.7677
X4.0677Y-1.4371
X4.0762Y-2.9261
X4.0862Y-2.0606
X4.0972Y-1.2881
X4.1033Y-4.4141
X4.1067Y-2.1666
X4.1342Y-1.2591
X4.2332Y-4.4141
X4.2422Y-3.1916
X4.2422Y-3.3216
X4.2422Y-3.7366
X4.2492Y-2.8286
X4.2597Y-3.5616
X4.2955Y-2.7863
X4.3072Y-4.4116
X4.3172Y-2.9271
X4.3275Y-2.4006
X4.3275Y-2.7602
X4.3277Y-3.0036
X4.3387Y-2.0861
X4.3492Y-1.7346
X4.3562Y-2.342
X4.3717Y-3.7021
X4.3722Y-2.9511
X4.3857Y-1.9321
X4.4087Y-1.5681
X4.4152Y-1.7906
X4.4187Y-1.9966
X4.4392Y-2.0987
X4.4597Y-1.4466
X4.4629Y-3.0581
X4.4637Y-2.9486
X4.4677Y-1.6201
X4.4679Y-2.2051
X4.4679Y-2.3126
X4.4747Y-2.3601
X4.5217Y-3.1841
X4.5362Y-1.6826
X4.5402Y-2.4311
X4.5577Y-1.4777
X4.6332Y-2.7341
X4.6336Y-1.9806
X4.6737Y-2.0371
X4.6737Y-2.6876
X4.7022Y-2.2362
X4.7087Y-2.9841
X4.7467Y-1.4471
X4.7492Y-2.2051
X4.7537Y-2.9486
X4.7784Y-3.7366
X4.7822Y-3.9051
X4.8322Y-2.9175
X4.8617Y-4.0491
X4.8832Y-3.7041
X4.8907Y-3.1981
X4.9026Y-3.8082
X4.9892Y-1.9236
X4.9892Y-2.0536
X4.9897Y-3.3896
X4.9897Y-3.5196
X4.9922Y-2.6436
X4.9922Y-2.7736
X5.0812Y-3.1981
X5.1177Y-3.6746
X5.1402Y-3.7866
X5.1436Y-3.1636
X5.1497Y-1.6681
X5.18Y-2.9213
X5.1902Y-1.5471
X5.1979Y-2.3251
X5.1979Y-2.4081
X5.2009Y-3.2101
X5.202Y-3.6724
X5.2042Y-2.4931
X5.2162Y-3.8706
X5.2224Y-3.1566
X5.2652Y-1.7816
X5.2852Y-3.0601
X5.2887Y-2.5276
X5.3328Y-2.2336
X5.3338Y-2.9801
X5.3448Y-3.7281
X5.3752Y-2.0296
X5.3832Y-2.7731
X5.4079Y-2.8343
X5.4109Y-2.0806
X5.4627Y-2.2336
X5.4637Y-2.9801
X5.4747Y-3.7281
X5.4777Y-2.3251
X5.4937Y-1.5486
X5.4977Y-3.0606
X5.5767Y-1.7401
X5.5887Y-2.4301
X5.5937Y-1.5801
X5.6212Y-4.6624
X5.6317Y-3.6726
X5.6327Y-3.1726
X5.6627Y-4.2376
X5.6657Y-3.9511
X5.6682Y-4.0821
X5.6747Y-3.0606
X5.7112Y-3.2976
X5.7302Y-2.5281
X5.7362Y-1.9131
X5.7382Y-1.5536
X5.7433Y-4.7068
X5.8713Y-3.4071
X5.8982Y-3.0521
X5.9082Y-3.5606
X5.9112Y-3.7111
X5.9432Y-3.4071
X5.9547Y-3.9511
X5.9947Y-3.9811
T3
X3.0016Y-4.0037
X3.0016Y-4.2005
X3.1788Y-3.8265
X3.1788Y-4.3974
X3.2772Y-4.3974
X3.3757Y-3.8265
X3.3757Y-4.3974
X3.5725Y-4.0037
X3.5725Y-4.1021
X3.5725Y-4.2005
T4
X3.5972Y-1.3771
X3.5972Y-1.4771
X3.5972Y-1.5771
X3.5972Y-1.6771
X3.5972Y-1.7771
X3.5972Y-1.8771
X3.5972Y-1.9771
X3.5972Y-2.0771
X3.5972Y-2.1771
X3.5972Y-2.2771
X3.5972Y-2.3771
X3.5972Y-2.4771
X4.1972Y-1.3771
X4.1972Y-1.4771
X4.1972Y-1.5771
X4.1972Y-1.6771
X4.1972Y-1.7771
X4.1972Y-1.8771
X4.1972Y-1.9771
X4.1972Y-2.0771
X4.1972Y-2.1771
X4.1972Y-2.2771
X4.1972Y-2.3771
X4.1972Y-2.4771
T5
X2.2515Y-3.8806
X2.2515Y-2.3845
X2.2515Y-3.1325
X2.3015Y-3.9806
X2.3015Y-2.4845
X2.3015Y-3.2325
X2.5015Y-3.9806
X2.5015Y-2.4845
X2.5015Y-3.2325
X2.5515Y-3.8806
X2.5515Y-2.3845
X2.5515Y-3.1325
X2.9995Y-3.3884
X2.9995Y-1.8924
X2.9995Y-2.6404
X3.0495Y-3.4884
X3.0495Y-1.9924
X3.0495Y-2.7404
X3.2495Y-3.4884
X3.2495Y-1.9924
X3.2495Y-2.7404
X3.2995Y-3.3884
X3.2995Y-1.8924
X3.2995Y-2.6404
X3.7475Y-3.1916
X3.7475Y-1.6955
X3.7475Y-2.4436
X3.7975Y-3.2916
X3.7975Y-1.7955
X3.7975Y-2.5436
X3.987Y-4.1832
X3.9975Y-3.2916
X3.9975Y-1.7955
X3.9975Y-2.5436
X4.037Y-4.2832
X4.0475Y-3.1916
X4.0475Y-1.6955
X4.0475Y-2.4436
X4.237Y-4.2832
X4.287Y-4.1832
X4.4956Y-1.8924
X4.4956Y-2.6404
X4.4956Y-3.3884
X4.5456Y-1.9924
X4.5456Y-2.7404
X4.5456Y-3.4884
X4.7456Y-1.9924
X4.7456Y-2.7404
X4.7456Y-3.4884
X4.7941Y-4.2315
X4.7956Y-1.8924
X4.7956Y-2.6404
X4.7956Y-3.3884
X4.826Y-4.3387
X5.023Y-4.3734
X5.0896Y-4.2836
X5.2436Y-1.9908
X5.2436Y-2.7388
X5.2436Y-3.4869
X5.2936Y-2.0908
X5.2936Y-2.8388
X5.2936Y-3.5869
X5.4936Y-2.0908
X5.4936Y-2.8388
X5.4936Y-3.5869
X5.5436Y-1.9908
X5.5436Y-2.7388
X5.5436Y-3.4869
X5.5826Y-4.4157
X5.5954Y-4.5268
X5.7834Y-4.5952
X5.8646Y-4.5183
T2
G00X5.8167Y-1.726
M15
G01X5.8167Y-1.7102
M16
G05
G00X5.8167Y-1.8441
M15
G01X5.8167Y-1.8283
M16
G05
G00X5.8167Y-2.0016
M15
G01X5.8167Y-1.9858
M16
G05
G00X5.8167Y-2.0291
M15
G01X5.8167Y-2.0449
M16
G05
G00X5.9978Y-1.7102
M15
G01X5.9978Y-1.726
M16
G05
G00X5.9978Y-1.8283
M15
G01X5.9978Y-1.8441
M16
G05
G00X5.9978Y-1.9858
M15
G01X5.9978Y-2.0016
M16
G05
G00X5.9978Y-2.0449
M15
G01X5.9978Y-2.0291
M16
G05
T3
G00X5.9228Y-2.4221
M15
G01X5.9031Y-2.4221
M16
G05
G00X5.9031Y-2.5221
M15
G01X5.9228Y-2.5221
M16
G05
G00X5.9031Y-2.6221
M15
G01X5.9228Y-2.6221
M16
G05
G00X5.9031Y-2.7221
M15
G01X5.9228Y-2.7221
M16
G05
G00X5.9031Y-2.8221
M15
G01X5.9228Y-2.8221
M16
G05
T0
M30
