%TF.GenerationSoftware,KiCad,Pcbnew,(5.1.9)-1*%
%TF.CreationDate,2021-11-02T16:31:21-07:00*%
%TF.ProjectId,bgkeeb,62676b65-6562-42e6-9b69-6361645f7063,rev?*%
%TF.SameCoordinates,Original*%
%TF.FileFunction,Copper,L1,Top*%
%TF.FilePolarity,Positive*%
%FSLAX46Y46*%
G04 Gerber Fmt 4.6, Leading zero omitted, Abs format (unit mm)*
G04 Created by KiCad (PCBNEW (5.1.9)-1) date 2021-11-02 16:31:21*
%MOMM*%
%LPD*%
G01*
G04 APERTURE LIST*
%TA.AperFunction,ComponentPad*%
%ADD10R,2.000000X2.000000*%
%TD*%
%TA.AperFunction,ComponentPad*%
%ADD11C,2.000000*%
%TD*%
%TA.AperFunction,SMDPad,CuDef*%
%ADD12R,1.200000X0.900000*%
%TD*%
%TA.AperFunction,SMDPad,CuDef*%
%ADD13C,0.100000*%
%TD*%
%TA.AperFunction,SMDPad,CuDef*%
%ADD14R,0.900000X1.200000*%
%TD*%
%TA.AperFunction,ComponentPad*%
%ADD15C,2.286000*%
%TD*%
%TA.AperFunction,ComponentPad*%
%ADD16O,1.600000X2.000000*%
%TD*%
%TA.AperFunction,ComponentPad*%
%ADD17C,1.752600*%
%TD*%
%TA.AperFunction,ComponentPad*%
%ADD18R,1.752600X1.752600*%
%TD*%
%TA.AperFunction,SMDPad,CuDef*%
%ADD19R,1.100000X1.800000*%
%TD*%
%TA.AperFunction,ViaPad*%
%ADD20C,0.800000*%
%TD*%
%TA.AperFunction,Conductor*%
%ADD21C,0.381000*%
%TD*%
%TA.AperFunction,Conductor*%
%ADD22C,0.254000*%
%TD*%
G04 APERTURE END LIST*
D10*
%TO.P,SW7,A*%
%TO.N,ENC1A*%
X85614593Y-111312404D03*
D11*
%TO.P,SW7,C*%
%TO.N,GND*%
X83114593Y-111312404D03*
%TO.P,SW7,B*%
%TO.N,ENC1B*%
X80614593Y-111312404D03*
%TO.P,SW7,S2*%
%TO.N,Net-(D37-Pad2)*%
X85614593Y-96812404D03*
%TO.P,SW7,S1*%
%TO.N,col1*%
X80614593Y-96812404D03*
%TD*%
%TO.P,D73,3*%
%TO.N,GND*%
%TA.AperFunction,SMDPad,CuDef*%
G36*
G01*
X151219764Y-107117646D02*
X149870365Y-106626505D01*
G75*
G02*
X149821356Y-106521404I28046J77055D01*
G01*
X150045721Y-105904965D01*
G75*
G02*
X150150822Y-105855956I77055J-28046D01*
G01*
X151500221Y-106347097D01*
G75*
G02*
X151549230Y-106452198I-28046J-77055D01*
G01*
X151324865Y-107068637D01*
G75*
G02*
X151219764Y-107117646I-77055J28046D01*
G01*
G37*
%TD.AperFunction*%
%TO.P,D73,4*%
%TO.N,Net-(D71-Pad2)*%
%TA.AperFunction,SMDPad,CuDef*%
G36*
G01*
X150706734Y-108527185D02*
X149357335Y-108036044D01*
G75*
G02*
X149308326Y-107930943I28046J77055D01*
G01*
X149532691Y-107314504D01*
G75*
G02*
X149637792Y-107265495I77055J-28046D01*
G01*
X150987191Y-107756636D01*
G75*
G02*
X151036200Y-107861737I-28046J-77055D01*
G01*
X150811835Y-108478176D01*
G75*
G02*
X150706734Y-108527185I-77055J28046D01*
G01*
G37*
%TD.AperFunction*%
%TO.P,D73,2*%
%TO.N,Net-(D73-Pad2)*%
%TA.AperFunction,SMDPad,CuDef*%
G36*
G01*
X146333362Y-105339142D02*
X144983963Y-104848001D01*
G75*
G02*
X144934954Y-104742900I28046J77055D01*
G01*
X145159319Y-104126461D01*
G75*
G02*
X145264420Y-104077452I77055J-28046D01*
G01*
X146613819Y-104568593D01*
G75*
G02*
X146662828Y-104673694I-28046J-77055D01*
G01*
X146438463Y-105290133D01*
G75*
G02*
X146333362Y-105339142I-77055J28046D01*
G01*
G37*
%TD.AperFunction*%
%TO.P,D73,1*%
%TO.N,+5V*%
%TA.AperFunction,SMDPad,CuDef*%
G36*
G01*
X145820332Y-106748681D02*
X144470933Y-106257540D01*
G75*
G02*
X144421924Y-106152439I28046J77055D01*
G01*
X144646289Y-105536000D01*
G75*
G02*
X144751390Y-105486991I77055J-28046D01*
G01*
X146100789Y-105978132D01*
G75*
G02*
X146149798Y-106083233I-28046J-77055D01*
G01*
X145925433Y-106699672D01*
G75*
G02*
X145820332Y-106748681I-77055J28046D01*
G01*
G37*
%TD.AperFunction*%
%TD*%
%TO.P,D72,3*%
%TO.N,GND*%
%TA.AperFunction,SMDPad,CuDef*%
G36*
G01*
X102315586Y-73106488D02*
X100879586Y-73106488D01*
G75*
G02*
X100797586Y-73024488I0J82000D01*
G01*
X100797586Y-72368488D01*
G75*
G02*
X100879586Y-72286488I82000J0D01*
G01*
X102315586Y-72286488D01*
G75*
G02*
X102397586Y-72368488I0J-82000D01*
G01*
X102397586Y-73024488D01*
G75*
G02*
X102315586Y-73106488I-82000J0D01*
G01*
G37*
%TD.AperFunction*%
%TO.P,D72,4*%
%TO.N,Net-(D70-Pad2)*%
%TA.AperFunction,SMDPad,CuDef*%
G36*
G01*
X102315586Y-74606488D02*
X100879586Y-74606488D01*
G75*
G02*
X100797586Y-74524488I0J82000D01*
G01*
X100797586Y-73868488D01*
G75*
G02*
X100879586Y-73786488I82000J0D01*
G01*
X102315586Y-73786488D01*
G75*
G02*
X102397586Y-73868488I0J-82000D01*
G01*
X102397586Y-74524488D01*
G75*
G02*
X102315586Y-74606488I-82000J0D01*
G01*
G37*
%TD.AperFunction*%
%TO.P,D72,2*%
%TO.N,Net-(D39-Pad4)*%
%TA.AperFunction,SMDPad,CuDef*%
G36*
G01*
X97115586Y-73106488D02*
X95679586Y-73106488D01*
G75*
G02*
X95597586Y-73024488I0J82000D01*
G01*
X95597586Y-72368488D01*
G75*
G02*
X95679586Y-72286488I82000J0D01*
G01*
X97115586Y-72286488D01*
G75*
G02*
X97197586Y-72368488I0J-82000D01*
G01*
X97197586Y-73024488D01*
G75*
G02*
X97115586Y-73106488I-82000J0D01*
G01*
G37*
%TD.AperFunction*%
%TO.P,D72,1*%
%TO.N,+5V*%
%TA.AperFunction,SMDPad,CuDef*%
G36*
G01*
X97115586Y-74606488D02*
X95679586Y-74606488D01*
G75*
G02*
X95597586Y-74524488I0J82000D01*
G01*
X95597586Y-73868488D01*
G75*
G02*
X95679586Y-73786488I82000J0D01*
G01*
X97115586Y-73786488D01*
G75*
G02*
X97197586Y-73868488I0J-82000D01*
G01*
X97197586Y-74524488D01*
G75*
G02*
X97115586Y-74606488I-82000J0D01*
G01*
G37*
%TD.AperFunction*%
%TD*%
%TO.P,D71,3*%
%TO.N,GND*%
%TA.AperFunction,SMDPad,CuDef*%
G36*
G01*
X130172439Y-100879263D02*
X128758255Y-100629905D01*
G75*
G02*
X128691740Y-100534912I14239J80754D01*
G01*
X128805654Y-99888878D01*
G75*
G02*
X128900647Y-99822363I80754J-14239D01*
G01*
X130314831Y-100071721D01*
G75*
G02*
X130381346Y-100166714I-14239J-80754D01*
G01*
X130267432Y-100812748D01*
G75*
G02*
X130172439Y-100879263I-80754J14239D01*
G01*
G37*
%TD.AperFunction*%
%TO.P,D71,4*%
%TO.N,Net-(D68-Pad2)*%
%TA.AperFunction,SMDPad,CuDef*%
G36*
G01*
X129911967Y-102356475D02*
X128497783Y-102107117D01*
G75*
G02*
X128431268Y-102012124I14239J80754D01*
G01*
X128545182Y-101366090D01*
G75*
G02*
X128640175Y-101299575I80754J-14239D01*
G01*
X130054359Y-101548933D01*
G75*
G02*
X130120874Y-101643926I-14239J-80754D01*
G01*
X130006960Y-102289960D01*
G75*
G02*
X129911967Y-102356475I-80754J14239D01*
G01*
G37*
%TD.AperFunction*%
%TO.P,D71,2*%
%TO.N,Net-(D71-Pad2)*%
%TA.AperFunction,SMDPad,CuDef*%
G36*
G01*
X125051439Y-99976293D02*
X123637255Y-99726935D01*
G75*
G02*
X123570740Y-99631942I14239J80754D01*
G01*
X123684654Y-98985908D01*
G75*
G02*
X123779647Y-98919393I80754J-14239D01*
G01*
X125193831Y-99168751D01*
G75*
G02*
X125260346Y-99263744I-14239J-80754D01*
G01*
X125146432Y-99909778D01*
G75*
G02*
X125051439Y-99976293I-80754J14239D01*
G01*
G37*
%TD.AperFunction*%
%TO.P,D71,1*%
%TO.N,+5V*%
%TA.AperFunction,SMDPad,CuDef*%
G36*
G01*
X124790966Y-101453504D02*
X123376782Y-101204146D01*
G75*
G02*
X123310267Y-101109153I14239J80754D01*
G01*
X123424181Y-100463119D01*
G75*
G02*
X123519174Y-100396604I80754J-14239D01*
G01*
X124933358Y-100645962D01*
G75*
G02*
X124999873Y-100740955I-14239J-80754D01*
G01*
X124885959Y-101386989D01*
G75*
G02*
X124790966Y-101453504I-80754J14239D01*
G01*
G37*
%TD.AperFunction*%
%TD*%
%TO.P,D70,3*%
%TO.N,GND*%
%TA.AperFunction,SMDPad,CuDef*%
G36*
G01*
X102315587Y-54106488D02*
X100879587Y-54106488D01*
G75*
G02*
X100797587Y-54024488I0J82000D01*
G01*
X100797587Y-53368488D01*
G75*
G02*
X100879587Y-53286488I82000J0D01*
G01*
X102315587Y-53286488D01*
G75*
G02*
X102397587Y-53368488I0J-82000D01*
G01*
X102397587Y-54024488D01*
G75*
G02*
X102315587Y-54106488I-82000J0D01*
G01*
G37*
%TD.AperFunction*%
%TO.P,D70,4*%
%TO.N,Net-(D69-Pad2)*%
%TA.AperFunction,SMDPad,CuDef*%
G36*
G01*
X102315587Y-55606488D02*
X100879587Y-55606488D01*
G75*
G02*
X100797587Y-55524488I0J82000D01*
G01*
X100797587Y-54868488D01*
G75*
G02*
X100879587Y-54786488I82000J0D01*
G01*
X102315587Y-54786488D01*
G75*
G02*
X102397587Y-54868488I0J-82000D01*
G01*
X102397587Y-55524488D01*
G75*
G02*
X102315587Y-55606488I-82000J0D01*
G01*
G37*
%TD.AperFunction*%
%TO.P,D70,2*%
%TO.N,Net-(D70-Pad2)*%
%TA.AperFunction,SMDPad,CuDef*%
G36*
G01*
X97115587Y-54106488D02*
X95679587Y-54106488D01*
G75*
G02*
X95597587Y-54024488I0J82000D01*
G01*
X95597587Y-53368488D01*
G75*
G02*
X95679587Y-53286488I82000J0D01*
G01*
X97115587Y-53286488D01*
G75*
G02*
X97197587Y-53368488I0J-82000D01*
G01*
X97197587Y-54024488D01*
G75*
G02*
X97115587Y-54106488I-82000J0D01*
G01*
G37*
%TD.AperFunction*%
%TO.P,D70,1*%
%TO.N,+5V*%
%TA.AperFunction,SMDPad,CuDef*%
G36*
G01*
X97115587Y-55606488D02*
X95679587Y-55606488D01*
G75*
G02*
X95597587Y-55524488I0J82000D01*
G01*
X95597587Y-54868488D01*
G75*
G02*
X95679587Y-54786488I82000J0D01*
G01*
X97115587Y-54786488D01*
G75*
G02*
X97197587Y-54868488I0J-82000D01*
G01*
X97197587Y-55524488D01*
G75*
G02*
X97115587Y-55606488I-82000J0D01*
G01*
G37*
%TD.AperFunction*%
%TD*%
%TO.P,D69,3*%
%TO.N,GND*%
%TA.AperFunction,SMDPad,CuDef*%
G36*
G01*
X102315587Y-35106489D02*
X100879587Y-35106489D01*
G75*
G02*
X100797587Y-35024489I0J82000D01*
G01*
X100797587Y-34368489D01*
G75*
G02*
X100879587Y-34286489I82000J0D01*
G01*
X102315587Y-34286489D01*
G75*
G02*
X102397587Y-34368489I0J-82000D01*
G01*
X102397587Y-35024489D01*
G75*
G02*
X102315587Y-35106489I-82000J0D01*
G01*
G37*
%TD.AperFunction*%
%TO.P,D69,4*%
%TO.N,Net-(D67-Pad2)*%
%TA.AperFunction,SMDPad,CuDef*%
G36*
G01*
X102315587Y-36606489D02*
X100879587Y-36606489D01*
G75*
G02*
X100797587Y-36524489I0J82000D01*
G01*
X100797587Y-35868489D01*
G75*
G02*
X100879587Y-35786489I82000J0D01*
G01*
X102315587Y-35786489D01*
G75*
G02*
X102397587Y-35868489I0J-82000D01*
G01*
X102397587Y-36524489D01*
G75*
G02*
X102315587Y-36606489I-82000J0D01*
G01*
G37*
%TD.AperFunction*%
%TO.P,D69,2*%
%TO.N,Net-(D69-Pad2)*%
%TA.AperFunction,SMDPad,CuDef*%
G36*
G01*
X97115587Y-35106489D02*
X95679587Y-35106489D01*
G75*
G02*
X95597587Y-35024489I0J82000D01*
G01*
X95597587Y-34368489D01*
G75*
G02*
X95679587Y-34286489I82000J0D01*
G01*
X97115587Y-34286489D01*
G75*
G02*
X97197587Y-34368489I0J-82000D01*
G01*
X97197587Y-35024489D01*
G75*
G02*
X97115587Y-35106489I-82000J0D01*
G01*
G37*
%TD.AperFunction*%
%TO.P,D69,1*%
%TO.N,+5V*%
%TA.AperFunction,SMDPad,CuDef*%
G36*
G01*
X97115587Y-36606489D02*
X95679587Y-36606489D01*
G75*
G02*
X95597587Y-36524489I0J82000D01*
G01*
X95597587Y-35868489D01*
G75*
G02*
X95679587Y-35786489I82000J0D01*
G01*
X97115587Y-35786489D01*
G75*
G02*
X97197587Y-35868489I0J-82000D01*
G01*
X97197587Y-36524489D01*
G75*
G02*
X97115587Y-36606489I-82000J0D01*
G01*
G37*
%TD.AperFunction*%
%TD*%
%TO.P,D68,3*%
%TO.N,GND*%
%TA.AperFunction,SMDPad,CuDef*%
G36*
G01*
X108396593Y-98294405D02*
X106960593Y-98294405D01*
G75*
G02*
X106878593Y-98212405I0J82000D01*
G01*
X106878593Y-97556405D01*
G75*
G02*
X106960593Y-97474405I82000J0D01*
G01*
X108396593Y-97474405D01*
G75*
G02*
X108478593Y-97556405I0J-82000D01*
G01*
X108478593Y-98212405D01*
G75*
G02*
X108396593Y-98294405I-82000J0D01*
G01*
G37*
%TD.AperFunction*%
%TO.P,D68,4*%
%TO.N,Net-(D66-Pad2)*%
%TA.AperFunction,SMDPad,CuDef*%
G36*
G01*
X108396593Y-99794405D02*
X106960593Y-99794405D01*
G75*
G02*
X106878593Y-99712405I0J82000D01*
G01*
X106878593Y-99056405D01*
G75*
G02*
X106960593Y-98974405I82000J0D01*
G01*
X108396593Y-98974405D01*
G75*
G02*
X108478593Y-99056405I0J-82000D01*
G01*
X108478593Y-99712405D01*
G75*
G02*
X108396593Y-99794405I-82000J0D01*
G01*
G37*
%TD.AperFunction*%
%TO.P,D68,2*%
%TO.N,Net-(D68-Pad2)*%
%TA.AperFunction,SMDPad,CuDef*%
G36*
G01*
X103196593Y-98294405D02*
X101760593Y-98294405D01*
G75*
G02*
X101678593Y-98212405I0J82000D01*
G01*
X101678593Y-97556405D01*
G75*
G02*
X101760593Y-97474405I82000J0D01*
G01*
X103196593Y-97474405D01*
G75*
G02*
X103278593Y-97556405I0J-82000D01*
G01*
X103278593Y-98212405D01*
G75*
G02*
X103196593Y-98294405I-82000J0D01*
G01*
G37*
%TD.AperFunction*%
%TO.P,D68,1*%
%TO.N,+5V*%
%TA.AperFunction,SMDPad,CuDef*%
G36*
G01*
X103196593Y-99794405D02*
X101760593Y-99794405D01*
G75*
G02*
X101678593Y-99712405I0J82000D01*
G01*
X101678593Y-99056405D01*
G75*
G02*
X101760593Y-98974405I82000J0D01*
G01*
X103196593Y-98974405D01*
G75*
G02*
X103278593Y-99056405I0J-82000D01*
G01*
X103278593Y-99712405D01*
G75*
G02*
X103196593Y-99794405I-82000J0D01*
G01*
G37*
%TD.AperFunction*%
%TD*%
%TO.P,D67,3*%
%TO.N,GND*%
%TA.AperFunction,SMDPad,CuDef*%
G36*
G01*
X83315588Y-40106489D02*
X81879588Y-40106489D01*
G75*
G02*
X81797588Y-40024489I0J82000D01*
G01*
X81797588Y-39368489D01*
G75*
G02*
X81879588Y-39286489I82000J0D01*
G01*
X83315588Y-39286489D01*
G75*
G02*
X83397588Y-39368489I0J-82000D01*
G01*
X83397588Y-40024489D01*
G75*
G02*
X83315588Y-40106489I-82000J0D01*
G01*
G37*
%TD.AperFunction*%
%TO.P,D67,4*%
%TO.N,Net-(D65-Pad2)*%
%TA.AperFunction,SMDPad,CuDef*%
G36*
G01*
X83315588Y-41606489D02*
X81879588Y-41606489D01*
G75*
G02*
X81797588Y-41524489I0J82000D01*
G01*
X81797588Y-40868489D01*
G75*
G02*
X81879588Y-40786489I82000J0D01*
G01*
X83315588Y-40786489D01*
G75*
G02*
X83397588Y-40868489I0J-82000D01*
G01*
X83397588Y-41524489D01*
G75*
G02*
X83315588Y-41606489I-82000J0D01*
G01*
G37*
%TD.AperFunction*%
%TO.P,D67,2*%
%TO.N,Net-(D67-Pad2)*%
%TA.AperFunction,SMDPad,CuDef*%
G36*
G01*
X78115588Y-40106489D02*
X76679588Y-40106489D01*
G75*
G02*
X76597588Y-40024489I0J82000D01*
G01*
X76597588Y-39368489D01*
G75*
G02*
X76679588Y-39286489I82000J0D01*
G01*
X78115588Y-39286489D01*
G75*
G02*
X78197588Y-39368489I0J-82000D01*
G01*
X78197588Y-40024489D01*
G75*
G02*
X78115588Y-40106489I-82000J0D01*
G01*
G37*
%TD.AperFunction*%
%TO.P,D67,1*%
%TO.N,+5V*%
%TA.AperFunction,SMDPad,CuDef*%
G36*
G01*
X78115588Y-41606489D02*
X76679588Y-41606489D01*
G75*
G02*
X76597588Y-41524489I0J82000D01*
G01*
X76597588Y-40868489D01*
G75*
G02*
X76679588Y-40786489I82000J0D01*
G01*
X78115588Y-40786489D01*
G75*
G02*
X78197588Y-40868489I0J-82000D01*
G01*
X78197588Y-41524489D01*
G75*
G02*
X78115588Y-41606489I-82000J0D01*
G01*
G37*
%TD.AperFunction*%
%TD*%
%TO.P,D66,3*%
%TO.N,GND*%
%TA.AperFunction,SMDPad,CuDef*%
G36*
G01*
X140315585Y-80606488D02*
X138879585Y-80606488D01*
G75*
G02*
X138797585Y-80524488I0J82000D01*
G01*
X138797585Y-79868488D01*
G75*
G02*
X138879585Y-79786488I82000J0D01*
G01*
X140315585Y-79786488D01*
G75*
G02*
X140397585Y-79868488I0J-82000D01*
G01*
X140397585Y-80524488D01*
G75*
G02*
X140315585Y-80606488I-82000J0D01*
G01*
G37*
%TD.AperFunction*%
%TO.P,D66,4*%
%TO.N,Net-(D64-Pad2)*%
%TA.AperFunction,SMDPad,CuDef*%
G36*
G01*
X140315585Y-82106488D02*
X138879585Y-82106488D01*
G75*
G02*
X138797585Y-82024488I0J82000D01*
G01*
X138797585Y-81368488D01*
G75*
G02*
X138879585Y-81286488I82000J0D01*
G01*
X140315585Y-81286488D01*
G75*
G02*
X140397585Y-81368488I0J-82000D01*
G01*
X140397585Y-82024488D01*
G75*
G02*
X140315585Y-82106488I-82000J0D01*
G01*
G37*
%TD.AperFunction*%
%TO.P,D66,2*%
%TO.N,Net-(D66-Pad2)*%
%TA.AperFunction,SMDPad,CuDef*%
G36*
G01*
X135115585Y-80606488D02*
X133679585Y-80606488D01*
G75*
G02*
X133597585Y-80524488I0J82000D01*
G01*
X133597585Y-79868488D01*
G75*
G02*
X133679585Y-79786488I82000J0D01*
G01*
X135115585Y-79786488D01*
G75*
G02*
X135197585Y-79868488I0J-82000D01*
G01*
X135197585Y-80524488D01*
G75*
G02*
X135115585Y-80606488I-82000J0D01*
G01*
G37*
%TD.AperFunction*%
%TO.P,D66,1*%
%TO.N,+5V*%
%TA.AperFunction,SMDPad,CuDef*%
G36*
G01*
X135115585Y-82106488D02*
X133679585Y-82106488D01*
G75*
G02*
X133597585Y-82024488I0J82000D01*
G01*
X133597585Y-81368488D01*
G75*
G02*
X133679585Y-81286488I82000J0D01*
G01*
X135115585Y-81286488D01*
G75*
G02*
X135197585Y-81368488I0J-82000D01*
G01*
X135197585Y-82024488D01*
G75*
G02*
X135115585Y-82106488I-82000J0D01*
G01*
G37*
%TD.AperFunction*%
%TD*%
%TO.P,D65,3*%
%TO.N,GND*%
%TA.AperFunction,SMDPad,CuDef*%
G36*
G01*
X83315588Y-59106488D02*
X81879588Y-59106488D01*
G75*
G02*
X81797588Y-59024488I0J82000D01*
G01*
X81797588Y-58368488D01*
G75*
G02*
X81879588Y-58286488I82000J0D01*
G01*
X83315588Y-58286488D01*
G75*
G02*
X83397588Y-58368488I0J-82000D01*
G01*
X83397588Y-59024488D01*
G75*
G02*
X83315588Y-59106488I-82000J0D01*
G01*
G37*
%TD.AperFunction*%
%TO.P,D65,4*%
%TO.N,Net-(D63-Pad2)*%
%TA.AperFunction,SMDPad,CuDef*%
G36*
G01*
X83315588Y-60606488D02*
X81879588Y-60606488D01*
G75*
G02*
X81797588Y-60524488I0J82000D01*
G01*
X81797588Y-59868488D01*
G75*
G02*
X81879588Y-59786488I82000J0D01*
G01*
X83315588Y-59786488D01*
G75*
G02*
X83397588Y-59868488I0J-82000D01*
G01*
X83397588Y-60524488D01*
G75*
G02*
X83315588Y-60606488I-82000J0D01*
G01*
G37*
%TD.AperFunction*%
%TO.P,D65,2*%
%TO.N,Net-(D65-Pad2)*%
%TA.AperFunction,SMDPad,CuDef*%
G36*
G01*
X78115588Y-59106488D02*
X76679588Y-59106488D01*
G75*
G02*
X76597588Y-59024488I0J82000D01*
G01*
X76597588Y-58368488D01*
G75*
G02*
X76679588Y-58286488I82000J0D01*
G01*
X78115588Y-58286488D01*
G75*
G02*
X78197588Y-58368488I0J-82000D01*
G01*
X78197588Y-59024488D01*
G75*
G02*
X78115588Y-59106488I-82000J0D01*
G01*
G37*
%TD.AperFunction*%
%TO.P,D65,1*%
%TO.N,+5V*%
%TA.AperFunction,SMDPad,CuDef*%
G36*
G01*
X78115588Y-60606488D02*
X76679588Y-60606488D01*
G75*
G02*
X76597588Y-60524488I0J82000D01*
G01*
X76597588Y-59868488D01*
G75*
G02*
X76679588Y-59786488I82000J0D01*
G01*
X78115588Y-59786488D01*
G75*
G02*
X78197588Y-59868488I0J-82000D01*
G01*
X78197588Y-60524488D01*
G75*
G02*
X78115588Y-60606488I-82000J0D01*
G01*
G37*
%TD.AperFunction*%
%TD*%
%TO.P,D64,3*%
%TO.N,GND*%
%TA.AperFunction,SMDPad,CuDef*%
G36*
G01*
X140315585Y-61606489D02*
X138879585Y-61606489D01*
G75*
G02*
X138797585Y-61524489I0J82000D01*
G01*
X138797585Y-60868489D01*
G75*
G02*
X138879585Y-60786489I82000J0D01*
G01*
X140315585Y-60786489D01*
G75*
G02*
X140397585Y-60868489I0J-82000D01*
G01*
X140397585Y-61524489D01*
G75*
G02*
X140315585Y-61606489I-82000J0D01*
G01*
G37*
%TD.AperFunction*%
%TO.P,D64,4*%
%TO.N,Net-(D62-Pad2)*%
%TA.AperFunction,SMDPad,CuDef*%
G36*
G01*
X140315585Y-63106489D02*
X138879585Y-63106489D01*
G75*
G02*
X138797585Y-63024489I0J82000D01*
G01*
X138797585Y-62368489D01*
G75*
G02*
X138879585Y-62286489I82000J0D01*
G01*
X140315585Y-62286489D01*
G75*
G02*
X140397585Y-62368489I0J-82000D01*
G01*
X140397585Y-63024489D01*
G75*
G02*
X140315585Y-63106489I-82000J0D01*
G01*
G37*
%TD.AperFunction*%
%TO.P,D64,2*%
%TO.N,Net-(D64-Pad2)*%
%TA.AperFunction,SMDPad,CuDef*%
G36*
G01*
X135115585Y-61606489D02*
X133679585Y-61606489D01*
G75*
G02*
X133597585Y-61524489I0J82000D01*
G01*
X133597585Y-60868489D01*
G75*
G02*
X133679585Y-60786489I82000J0D01*
G01*
X135115585Y-60786489D01*
G75*
G02*
X135197585Y-60868489I0J-82000D01*
G01*
X135197585Y-61524489D01*
G75*
G02*
X135115585Y-61606489I-82000J0D01*
G01*
G37*
%TD.AperFunction*%
%TO.P,D64,1*%
%TO.N,+5V*%
%TA.AperFunction,SMDPad,CuDef*%
G36*
G01*
X135115585Y-63106489D02*
X133679585Y-63106489D01*
G75*
G02*
X133597585Y-63024489I0J82000D01*
G01*
X133597585Y-62368489D01*
G75*
G02*
X133679585Y-62286489I82000J0D01*
G01*
X135115585Y-62286489D01*
G75*
G02*
X135197585Y-62368489I0J-82000D01*
G01*
X135197585Y-63024489D01*
G75*
G02*
X135115585Y-63106489I-82000J0D01*
G01*
G37*
%TD.AperFunction*%
%TD*%
%TO.P,D63,3*%
%TO.N,GND*%
%TA.AperFunction,SMDPad,CuDef*%
G36*
G01*
X83315587Y-78106487D02*
X81879587Y-78106487D01*
G75*
G02*
X81797587Y-78024487I0J82000D01*
G01*
X81797587Y-77368487D01*
G75*
G02*
X81879587Y-77286487I82000J0D01*
G01*
X83315587Y-77286487D01*
G75*
G02*
X83397587Y-77368487I0J-82000D01*
G01*
X83397587Y-78024487D01*
G75*
G02*
X83315587Y-78106487I-82000J0D01*
G01*
G37*
%TD.AperFunction*%
%TO.P,D63,4*%
%TO.N,Net-(D58-Pad2)*%
%TA.AperFunction,SMDPad,CuDef*%
G36*
G01*
X83315587Y-79606487D02*
X81879587Y-79606487D01*
G75*
G02*
X81797587Y-79524487I0J82000D01*
G01*
X81797587Y-78868487D01*
G75*
G02*
X81879587Y-78786487I82000J0D01*
G01*
X83315587Y-78786487D01*
G75*
G02*
X83397587Y-78868487I0J-82000D01*
G01*
X83397587Y-79524487D01*
G75*
G02*
X83315587Y-79606487I-82000J0D01*
G01*
G37*
%TD.AperFunction*%
%TO.P,D63,2*%
%TO.N,Net-(D63-Pad2)*%
%TA.AperFunction,SMDPad,CuDef*%
G36*
G01*
X78115587Y-78106487D02*
X76679587Y-78106487D01*
G75*
G02*
X76597587Y-78024487I0J82000D01*
G01*
X76597587Y-77368487D01*
G75*
G02*
X76679587Y-77286487I82000J0D01*
G01*
X78115587Y-77286487D01*
G75*
G02*
X78197587Y-77368487I0J-82000D01*
G01*
X78197587Y-78024487D01*
G75*
G02*
X78115587Y-78106487I-82000J0D01*
G01*
G37*
%TD.AperFunction*%
%TO.P,D63,1*%
%TO.N,+5V*%
%TA.AperFunction,SMDPad,CuDef*%
G36*
G01*
X78115587Y-79606487D02*
X76679587Y-79606487D01*
G75*
G02*
X76597587Y-79524487I0J82000D01*
G01*
X76597587Y-78868487D01*
G75*
G02*
X76679587Y-78786487I82000J0D01*
G01*
X78115587Y-78786487D01*
G75*
G02*
X78197587Y-78868487I0J-82000D01*
G01*
X78197587Y-79524487D01*
G75*
G02*
X78115587Y-79606487I-82000J0D01*
G01*
G37*
%TD.AperFunction*%
%TD*%
%TO.P,D62,3*%
%TO.N,GND*%
%TA.AperFunction,SMDPad,CuDef*%
G36*
G01*
X140315585Y-42606490D02*
X138879585Y-42606490D01*
G75*
G02*
X138797585Y-42524490I0J82000D01*
G01*
X138797585Y-41868490D01*
G75*
G02*
X138879585Y-41786490I82000J0D01*
G01*
X140315585Y-41786490D01*
G75*
G02*
X140397585Y-41868490I0J-82000D01*
G01*
X140397585Y-42524490D01*
G75*
G02*
X140315585Y-42606490I-82000J0D01*
G01*
G37*
%TD.AperFunction*%
%TO.P,D62,4*%
%TO.N,Net-(D61-Pad2)*%
%TA.AperFunction,SMDPad,CuDef*%
G36*
G01*
X140315585Y-44106490D02*
X138879585Y-44106490D01*
G75*
G02*
X138797585Y-44024490I0J82000D01*
G01*
X138797585Y-43368490D01*
G75*
G02*
X138879585Y-43286490I82000J0D01*
G01*
X140315585Y-43286490D01*
G75*
G02*
X140397585Y-43368490I0J-82000D01*
G01*
X140397585Y-44024490D01*
G75*
G02*
X140315585Y-44106490I-82000J0D01*
G01*
G37*
%TD.AperFunction*%
%TO.P,D62,2*%
%TO.N,Net-(D62-Pad2)*%
%TA.AperFunction,SMDPad,CuDef*%
G36*
G01*
X135115585Y-42606490D02*
X133679585Y-42606490D01*
G75*
G02*
X133597585Y-42524490I0J82000D01*
G01*
X133597585Y-41868490D01*
G75*
G02*
X133679585Y-41786490I82000J0D01*
G01*
X135115585Y-41786490D01*
G75*
G02*
X135197585Y-41868490I0J-82000D01*
G01*
X135197585Y-42524490D01*
G75*
G02*
X135115585Y-42606490I-82000J0D01*
G01*
G37*
%TD.AperFunction*%
%TO.P,D62,1*%
%TO.N,+5V*%
%TA.AperFunction,SMDPad,CuDef*%
G36*
G01*
X135115585Y-44106490D02*
X133679585Y-44106490D01*
G75*
G02*
X133597585Y-44024490I0J82000D01*
G01*
X133597585Y-43368490D01*
G75*
G02*
X133679585Y-43286490I82000J0D01*
G01*
X135115585Y-43286490D01*
G75*
G02*
X135197585Y-43368490I0J-82000D01*
G01*
X135197585Y-44024490D01*
G75*
G02*
X135115585Y-44106490I-82000J0D01*
G01*
G37*
%TD.AperFunction*%
%TD*%
%TO.P,D61,3*%
%TO.N,GND*%
%TA.AperFunction,SMDPad,CuDef*%
G36*
G01*
X121315586Y-40106489D02*
X119879586Y-40106489D01*
G75*
G02*
X119797586Y-40024489I0J82000D01*
G01*
X119797586Y-39368489D01*
G75*
G02*
X119879586Y-39286489I82000J0D01*
G01*
X121315586Y-39286489D01*
G75*
G02*
X121397586Y-39368489I0J-82000D01*
G01*
X121397586Y-40024489D01*
G75*
G02*
X121315586Y-40106489I-82000J0D01*
G01*
G37*
%TD.AperFunction*%
%TO.P,D61,4*%
%TO.N,Net-(D44-Pad2)*%
%TA.AperFunction,SMDPad,CuDef*%
G36*
G01*
X121315586Y-41606489D02*
X119879586Y-41606489D01*
G75*
G02*
X119797586Y-41524489I0J82000D01*
G01*
X119797586Y-40868489D01*
G75*
G02*
X119879586Y-40786489I82000J0D01*
G01*
X121315586Y-40786489D01*
G75*
G02*
X121397586Y-40868489I0J-82000D01*
G01*
X121397586Y-41524489D01*
G75*
G02*
X121315586Y-41606489I-82000J0D01*
G01*
G37*
%TD.AperFunction*%
%TO.P,D61,2*%
%TO.N,Net-(D61-Pad2)*%
%TA.AperFunction,SMDPad,CuDef*%
G36*
G01*
X116115586Y-40106489D02*
X114679586Y-40106489D01*
G75*
G02*
X114597586Y-40024489I0J82000D01*
G01*
X114597586Y-39368489D01*
G75*
G02*
X114679586Y-39286489I82000J0D01*
G01*
X116115586Y-39286489D01*
G75*
G02*
X116197586Y-39368489I0J-82000D01*
G01*
X116197586Y-40024489D01*
G75*
G02*
X116115586Y-40106489I-82000J0D01*
G01*
G37*
%TD.AperFunction*%
%TO.P,D61,1*%
%TO.N,+5V*%
%TA.AperFunction,SMDPad,CuDef*%
G36*
G01*
X116115586Y-41606489D02*
X114679586Y-41606489D01*
G75*
G02*
X114597586Y-41524489I0J82000D01*
G01*
X114597586Y-40868489D01*
G75*
G02*
X114679586Y-40786489I82000J0D01*
G01*
X116115586Y-40786489D01*
G75*
G02*
X116197586Y-40868489I0J-82000D01*
G01*
X116197586Y-41524489D01*
G75*
G02*
X116115586Y-41606489I-82000J0D01*
G01*
G37*
%TD.AperFunction*%
%TD*%
%TO.P,D58,3*%
%TO.N,GND*%
%TA.AperFunction,SMDPad,CuDef*%
G36*
G01*
X64315588Y-90606486D02*
X62879588Y-90606486D01*
G75*
G02*
X62797588Y-90524486I0J82000D01*
G01*
X62797588Y-89868486D01*
G75*
G02*
X62879588Y-89786486I82000J0D01*
G01*
X64315588Y-89786486D01*
G75*
G02*
X64397588Y-89868486I0J-82000D01*
G01*
X64397588Y-90524486D01*
G75*
G02*
X64315588Y-90606486I-82000J0D01*
G01*
G37*
%TD.AperFunction*%
%TO.P,D58,4*%
%TO.N,Net-(D40-Pad2)*%
%TA.AperFunction,SMDPad,CuDef*%
G36*
G01*
X64315588Y-92106486D02*
X62879588Y-92106486D01*
G75*
G02*
X62797588Y-92024486I0J82000D01*
G01*
X62797588Y-91368486D01*
G75*
G02*
X62879588Y-91286486I82000J0D01*
G01*
X64315588Y-91286486D01*
G75*
G02*
X64397588Y-91368486I0J-82000D01*
G01*
X64397588Y-92024486D01*
G75*
G02*
X64315588Y-92106486I-82000J0D01*
G01*
G37*
%TD.AperFunction*%
%TO.P,D58,2*%
%TO.N,Net-(D58-Pad2)*%
%TA.AperFunction,SMDPad,CuDef*%
G36*
G01*
X59115588Y-90606486D02*
X57679588Y-90606486D01*
G75*
G02*
X57597588Y-90524486I0J82000D01*
G01*
X57597588Y-89868486D01*
G75*
G02*
X57679588Y-89786486I82000J0D01*
G01*
X59115588Y-89786486D01*
G75*
G02*
X59197588Y-89868486I0J-82000D01*
G01*
X59197588Y-90524486D01*
G75*
G02*
X59115588Y-90606486I-82000J0D01*
G01*
G37*
%TD.AperFunction*%
%TO.P,D58,1*%
%TO.N,+5V*%
%TA.AperFunction,SMDPad,CuDef*%
G36*
G01*
X59115588Y-92106486D02*
X57679588Y-92106486D01*
G75*
G02*
X57597588Y-92024486I0J82000D01*
G01*
X57597588Y-91368486D01*
G75*
G02*
X57679588Y-91286486I82000J0D01*
G01*
X59115588Y-91286486D01*
G75*
G02*
X59197588Y-91368486I0J-82000D01*
G01*
X59197588Y-92024486D01*
G75*
G02*
X59115588Y-92106486I-82000J0D01*
G01*
G37*
%TD.AperFunction*%
%TD*%
%TO.P,D44,3*%
%TO.N,GND*%
%TA.AperFunction,SMDPad,CuDef*%
G36*
G01*
X121315586Y-59106488D02*
X119879586Y-59106488D01*
G75*
G02*
X119797586Y-59024488I0J82000D01*
G01*
X119797586Y-58368488D01*
G75*
G02*
X119879586Y-58286488I82000J0D01*
G01*
X121315586Y-58286488D01*
G75*
G02*
X121397586Y-58368488I0J-82000D01*
G01*
X121397586Y-59024488D01*
G75*
G02*
X121315586Y-59106488I-82000J0D01*
G01*
G37*
%TD.AperFunction*%
%TO.P,D44,4*%
%TO.N,Net-(D39-Pad2)*%
%TA.AperFunction,SMDPad,CuDef*%
G36*
G01*
X121315586Y-60606488D02*
X119879586Y-60606488D01*
G75*
G02*
X119797586Y-60524488I0J82000D01*
G01*
X119797586Y-59868488D01*
G75*
G02*
X119879586Y-59786488I82000J0D01*
G01*
X121315586Y-59786488D01*
G75*
G02*
X121397586Y-59868488I0J-82000D01*
G01*
X121397586Y-60524488D01*
G75*
G02*
X121315586Y-60606488I-82000J0D01*
G01*
G37*
%TD.AperFunction*%
%TO.P,D44,2*%
%TO.N,Net-(D44-Pad2)*%
%TA.AperFunction,SMDPad,CuDef*%
G36*
G01*
X116115586Y-59106488D02*
X114679586Y-59106488D01*
G75*
G02*
X114597586Y-59024488I0J82000D01*
G01*
X114597586Y-58368488D01*
G75*
G02*
X114679586Y-58286488I82000J0D01*
G01*
X116115586Y-58286488D01*
G75*
G02*
X116197586Y-58368488I0J-82000D01*
G01*
X116197586Y-59024488D01*
G75*
G02*
X116115586Y-59106488I-82000J0D01*
G01*
G37*
%TD.AperFunction*%
%TO.P,D44,1*%
%TO.N,+5V*%
%TA.AperFunction,SMDPad,CuDef*%
G36*
G01*
X116115586Y-60606488D02*
X114679586Y-60606488D01*
G75*
G02*
X114597586Y-60524488I0J82000D01*
G01*
X114597586Y-59868488D01*
G75*
G02*
X114679586Y-59786488I82000J0D01*
G01*
X116115586Y-59786488D01*
G75*
G02*
X116197586Y-59868488I0J-82000D01*
G01*
X116197586Y-60524488D01*
G75*
G02*
X116115586Y-60606488I-82000J0D01*
G01*
G37*
%TD.AperFunction*%
%TD*%
%TO.P,D40,3*%
%TO.N,GND*%
%TA.AperFunction,SMDPad,CuDef*%
G36*
G01*
X64315589Y-71606487D02*
X62879589Y-71606487D01*
G75*
G02*
X62797589Y-71524487I0J82000D01*
G01*
X62797589Y-70868487D01*
G75*
G02*
X62879589Y-70786487I82000J0D01*
G01*
X64315589Y-70786487D01*
G75*
G02*
X64397589Y-70868487I0J-82000D01*
G01*
X64397589Y-71524487D01*
G75*
G02*
X64315589Y-71606487I-82000J0D01*
G01*
G37*
%TD.AperFunction*%
%TO.P,D40,4*%
%TO.N,Net-(D38-Pad2)*%
%TA.AperFunction,SMDPad,CuDef*%
G36*
G01*
X64315589Y-73106487D02*
X62879589Y-73106487D01*
G75*
G02*
X62797589Y-73024487I0J82000D01*
G01*
X62797589Y-72368487D01*
G75*
G02*
X62879589Y-72286487I82000J0D01*
G01*
X64315589Y-72286487D01*
G75*
G02*
X64397589Y-72368487I0J-82000D01*
G01*
X64397589Y-73024487D01*
G75*
G02*
X64315589Y-73106487I-82000J0D01*
G01*
G37*
%TD.AperFunction*%
%TO.P,D40,2*%
%TO.N,Net-(D40-Pad2)*%
%TA.AperFunction,SMDPad,CuDef*%
G36*
G01*
X59115589Y-71606487D02*
X57679589Y-71606487D01*
G75*
G02*
X57597589Y-71524487I0J82000D01*
G01*
X57597589Y-70868487D01*
G75*
G02*
X57679589Y-70786487I82000J0D01*
G01*
X59115589Y-70786487D01*
G75*
G02*
X59197589Y-70868487I0J-82000D01*
G01*
X59197589Y-71524487D01*
G75*
G02*
X59115589Y-71606487I-82000J0D01*
G01*
G37*
%TD.AperFunction*%
%TO.P,D40,1*%
%TO.N,+5V*%
%TA.AperFunction,SMDPad,CuDef*%
G36*
G01*
X59115589Y-73106487D02*
X57679589Y-73106487D01*
G75*
G02*
X57597589Y-73024487I0J82000D01*
G01*
X57597589Y-72368487D01*
G75*
G02*
X57679589Y-72286487I82000J0D01*
G01*
X59115589Y-72286487D01*
G75*
G02*
X59197589Y-72368487I0J-82000D01*
G01*
X59197589Y-73024487D01*
G75*
G02*
X59115589Y-73106487I-82000J0D01*
G01*
G37*
%TD.AperFunction*%
%TD*%
%TO.P,D39,3*%
%TO.N,GND*%
%TA.AperFunction,SMDPad,CuDef*%
G36*
G01*
X121315586Y-78106488D02*
X119879586Y-78106488D01*
G75*
G02*
X119797586Y-78024488I0J82000D01*
G01*
X119797586Y-77368488D01*
G75*
G02*
X119879586Y-77286488I82000J0D01*
G01*
X121315586Y-77286488D01*
G75*
G02*
X121397586Y-77368488I0J-82000D01*
G01*
X121397586Y-78024488D01*
G75*
G02*
X121315586Y-78106488I-82000J0D01*
G01*
G37*
%TD.AperFunction*%
%TO.P,D39,4*%
%TO.N,Net-(D39-Pad4)*%
%TA.AperFunction,SMDPad,CuDef*%
G36*
G01*
X121315586Y-79606488D02*
X119879586Y-79606488D01*
G75*
G02*
X119797586Y-79524488I0J82000D01*
G01*
X119797586Y-78868488D01*
G75*
G02*
X119879586Y-78786488I82000J0D01*
G01*
X121315586Y-78786488D01*
G75*
G02*
X121397586Y-78868488I0J-82000D01*
G01*
X121397586Y-79524488D01*
G75*
G02*
X121315586Y-79606488I-82000J0D01*
G01*
G37*
%TD.AperFunction*%
%TO.P,D39,2*%
%TO.N,Net-(D39-Pad2)*%
%TA.AperFunction,SMDPad,CuDef*%
G36*
G01*
X116115586Y-78106488D02*
X114679586Y-78106488D01*
G75*
G02*
X114597586Y-78024488I0J82000D01*
G01*
X114597586Y-77368488D01*
G75*
G02*
X114679586Y-77286488I82000J0D01*
G01*
X116115586Y-77286488D01*
G75*
G02*
X116197586Y-77368488I0J-82000D01*
G01*
X116197586Y-78024488D01*
G75*
G02*
X116115586Y-78106488I-82000J0D01*
G01*
G37*
%TD.AperFunction*%
%TO.P,D39,1*%
%TO.N,+5V*%
%TA.AperFunction,SMDPad,CuDef*%
G36*
G01*
X116115586Y-79606488D02*
X114679586Y-79606488D01*
G75*
G02*
X114597586Y-79524488I0J82000D01*
G01*
X114597586Y-78868488D01*
G75*
G02*
X114679586Y-78786488I82000J0D01*
G01*
X116115586Y-78786488D01*
G75*
G02*
X116197586Y-78868488I0J-82000D01*
G01*
X116197586Y-79524488D01*
G75*
G02*
X116115586Y-79606488I-82000J0D01*
G01*
G37*
%TD.AperFunction*%
%TD*%
%TO.P,D38,3*%
%TO.N,GND*%
%TA.AperFunction,SMDPad,CuDef*%
G36*
G01*
X64315589Y-52606488D02*
X62879589Y-52606488D01*
G75*
G02*
X62797589Y-52524488I0J82000D01*
G01*
X62797589Y-51868488D01*
G75*
G02*
X62879589Y-51786488I82000J0D01*
G01*
X64315589Y-51786488D01*
G75*
G02*
X64397589Y-51868488I0J-82000D01*
G01*
X64397589Y-52524488D01*
G75*
G02*
X64315589Y-52606488I-82000J0D01*
G01*
G37*
%TD.AperFunction*%
%TO.P,D38,4*%
%TO.N,led*%
%TA.AperFunction,SMDPad,CuDef*%
G36*
G01*
X64315589Y-54106488D02*
X62879589Y-54106488D01*
G75*
G02*
X62797589Y-54024488I0J82000D01*
G01*
X62797589Y-53368488D01*
G75*
G02*
X62879589Y-53286488I82000J0D01*
G01*
X64315589Y-53286488D01*
G75*
G02*
X64397589Y-53368488I0J-82000D01*
G01*
X64397589Y-54024488D01*
G75*
G02*
X64315589Y-54106488I-82000J0D01*
G01*
G37*
%TD.AperFunction*%
%TO.P,D38,2*%
%TO.N,Net-(D38-Pad2)*%
%TA.AperFunction,SMDPad,CuDef*%
G36*
G01*
X59115589Y-52606488D02*
X57679589Y-52606488D01*
G75*
G02*
X57597589Y-52524488I0J82000D01*
G01*
X57597589Y-51868488D01*
G75*
G02*
X57679589Y-51786488I82000J0D01*
G01*
X59115589Y-51786488D01*
G75*
G02*
X59197589Y-51868488I0J-82000D01*
G01*
X59197589Y-52524488D01*
G75*
G02*
X59115589Y-52606488I-82000J0D01*
G01*
G37*
%TD.AperFunction*%
%TO.P,D38,1*%
%TO.N,+5V*%
%TA.AperFunction,SMDPad,CuDef*%
G36*
G01*
X59115589Y-54106488D02*
X57679589Y-54106488D01*
G75*
G02*
X57597589Y-54024488I0J82000D01*
G01*
X57597589Y-53368488D01*
G75*
G02*
X57679589Y-53286488I82000J0D01*
G01*
X59115589Y-53286488D01*
G75*
G02*
X59197589Y-53368488I0J-82000D01*
G01*
X59197589Y-54024488D01*
G75*
G02*
X59115589Y-54106488I-82000J0D01*
G01*
G37*
%TD.AperFunction*%
%TD*%
D12*
%TO.P,D37,2*%
%TO.N,Net-(D37-Pad2)*%
X72192593Y-108258404D03*
%TO.P,D37,1*%
%TO.N,row3*%
X72192593Y-111558404D03*
%TD*%
D10*
%TO.P,SW42,A*%
%TO.N,ENC1A*%
X90741593Y-106693404D03*
D11*
%TO.P,SW42,C*%
%TO.N,GND*%
X90741593Y-104193404D03*
%TO.P,SW42,B*%
%TO.N,ENC1B*%
X90741593Y-101693404D03*
%TO.P,SW42,S2*%
%TO.N,Net-(D37-Pad2)*%
X76241593Y-106693404D03*
%TO.P,SW42,S1*%
%TO.N,col1*%
X76241593Y-101693404D03*
%TD*%
%TA.AperFunction,SMDPad,CuDef*%
D13*
%TO.P,D36,2*%
%TO.N,Net-(D35-Pad2)*%
G36*
X145251012Y-119963144D02*
G01*
X145661436Y-118835512D01*
X146507160Y-119143330D01*
X146096736Y-120270962D01*
X145251012Y-119963144D01*
G37*
%TD.AperFunction*%
%TA.AperFunction,SMDPad,CuDef*%
%TO.P,D36,1*%
%TO.N,row3*%
G36*
X142150026Y-118834478D02*
G01*
X142560450Y-117706846D01*
X143406174Y-118014664D01*
X142995750Y-119142296D01*
X142150026Y-118834478D01*
G37*
%TD.AperFunction*%
%TD*%
D14*
%TO.P,D33,2*%
%TO.N,Net-(D25-Pad2)*%
X139057093Y-94693804D03*
%TO.P,D33,1*%
%TO.N,row2*%
X135757093Y-94693804D03*
%TD*%
%TO.P,D32,2*%
%TO.N,Net-(D15-Pad2)*%
X138777693Y-75694604D03*
%TO.P,D32,1*%
%TO.N,row1*%
X135477693Y-75694604D03*
%TD*%
%TO.P,D31,2*%
%TO.N,Net-(D31-Pad2)*%
X138752293Y-56733504D03*
%TO.P,D31,1*%
%TO.N,row0*%
X135452293Y-56733504D03*
%TD*%
%TA.AperFunction,SMDPad,CuDef*%
D13*
%TO.P,D30,2*%
%TO.N,Net-(D30-Pad2)*%
G36*
X134459855Y-110088123D02*
G01*
X133278086Y-109879746D01*
X133434369Y-108993419D01*
X134616138Y-109201796D01*
X134459855Y-110088123D01*
G37*
%TD.AperFunction*%
%TA.AperFunction,SMDPad,CuDef*%
%TO.P,D30,1*%
%TO.N,row3*%
G36*
X133886817Y-113337989D02*
G01*
X132705048Y-113129612D01*
X132861331Y-112243285D01*
X134043100Y-112451662D01*
X133886817Y-113337989D01*
G37*
%TD.AperFunction*%
%TD*%
D12*
%TO.P,D29,2*%
%TO.N,Net-(D24-Pad2)*%
X126739093Y-86096904D03*
%TO.P,D29,1*%
%TO.N,row2*%
X126739093Y-89396904D03*
%TD*%
%TO.P,D28,2*%
%TO.N,Net-(D14-Pad2)*%
X126802593Y-67148504D03*
%TO.P,D28,1*%
%TO.N,row1*%
X126802593Y-70448504D03*
%TD*%
%TO.P,D27,2*%
%TO.N,Net-(D27-Pad2)*%
X126726393Y-48860504D03*
%TO.P,D27,1*%
%TO.N,row0*%
X126726393Y-52160504D03*
%TD*%
D14*
%TO.P,D26,2*%
%TO.N,Net-(D26-Pad2)*%
X107522993Y-112118204D03*
%TO.P,D26,1*%
%TO.N,row3*%
X104222993Y-112118204D03*
%TD*%
D12*
%TO.P,D20,2*%
%TO.N,Net-(D20-Pad2)*%
X107752593Y-81067704D03*
%TO.P,D20,1*%
%TO.N,row2*%
X107752593Y-84367704D03*
%TD*%
D14*
%TO.P,D19,2*%
%TO.N,Net-(D13-Pad2)*%
X100931693Y-68201604D03*
%TO.P,D19,1*%
%TO.N,row1*%
X97631693Y-68201604D03*
%TD*%
%TO.P,D18,2*%
%TO.N,Net-(D18-Pad2)*%
X100626893Y-49100804D03*
%TO.P,D18,1*%
%TO.N,row0*%
X97326893Y-49100804D03*
%TD*%
D12*
%TO.P,D17,2*%
%TO.N,Net-(D17-Pad2)*%
X88613693Y-86071504D03*
%TO.P,D17,1*%
%TO.N,row2*%
X88613693Y-89371504D03*
%TD*%
%TO.P,D16,2*%
%TO.N,Net-(D12-Pad2)*%
X88677193Y-67059604D03*
%TO.P,D16,1*%
%TO.N,row1*%
X88677193Y-70359604D03*
%TD*%
D14*
%TO.P,D10,2*%
%TO.N,Net-(D10-Pad2)*%
X82518693Y-54168104D03*
%TO.P,D10,1*%
%TO.N,row0*%
X85818693Y-54168104D03*
%TD*%
D12*
%TO.P,D9,2*%
%TO.N,Net-(D21-Pad2)*%
X69779593Y-98619104D03*
%TO.P,D9,1*%
%TO.N,row2*%
X69779593Y-101919104D03*
%TD*%
%TO.P,D8,2*%
%TO.N,Net-(D11-Pad2)*%
X69677993Y-79569104D03*
%TO.P,D8,1*%
%TO.N,row1*%
X69677993Y-82869104D03*
%TD*%
%TO.P,D7,2*%
%TO.N,Net-(D1-Pad2)*%
X69665293Y-60557204D03*
%TO.P,D7,1*%
%TO.N,row0*%
X69665293Y-63857204D03*
%TD*%
D15*
%TO.P,SW35,1*%
%TO.N,Net-(D35-Pad2)*%
X148959613Y-114765872D03*
%TO.P,SW35,2*%
%TO.N,col4*%
X142123833Y-114980863D03*
%TO.P,SW35,1*%
%TO.N,Net-(D35-Pad2)*%
X146897472Y-116718326D03*
%TO.P,SW35,2*%
%TO.N,col4*%
X141799155Y-112159679D03*
%TD*%
%TO.P,SW34,1*%
%TO.N,Net-(D30-Pad2)*%
X129274725Y-108803767D03*
%TO.P,SW34,2*%
%TO.N,col3*%
X122580130Y-110202513D03*
%TO.P,SW34,1*%
%TO.N,Net-(D30-Pad2)*%
X127582953Y-111084646D03*
%TO.P,SW34,2*%
%TO.N,col3*%
X121770490Y-107480568D03*
%TD*%
%TO.P,SW25,1*%
%TO.N,Net-(D25-Pad2)*%
X140807585Y-88566487D03*
%TO.P,SW25,2*%
%TO.N,col4*%
X134457585Y-91106487D03*
%TO.P,SW25,1*%
%TO.N,Net-(D25-Pad2)*%
X139537585Y-91106487D03*
%TO.P,SW25,2*%
%TO.N,col4*%
X133187585Y-88566487D03*
%TD*%
%TO.P,SW24,1*%
%TO.N,Net-(D24-Pad2)*%
X121807586Y-86066487D03*
%TO.P,SW24,2*%
%TO.N,col3*%
X115457586Y-88606487D03*
%TO.P,SW24,1*%
%TO.N,Net-(D24-Pad2)*%
X120537586Y-88606487D03*
%TO.P,SW24,2*%
%TO.N,col3*%
X114187586Y-86066487D03*
%TD*%
%TO.P,SW23,1*%
%TO.N,Net-(D20-Pad2)*%
X102807586Y-81066487D03*
%TO.P,SW23,2*%
%TO.N,col2*%
X96457586Y-83606487D03*
%TO.P,SW23,1*%
%TO.N,Net-(D20-Pad2)*%
X101537586Y-83606487D03*
%TO.P,SW23,2*%
%TO.N,col2*%
X95187586Y-81066487D03*
%TD*%
%TO.P,SW22,1*%
%TO.N,Net-(D17-Pad2)*%
X83807587Y-86066486D03*
%TO.P,SW22,2*%
%TO.N,col1*%
X77457587Y-88606486D03*
%TO.P,SW22,1*%
%TO.N,Net-(D17-Pad2)*%
X82537587Y-88606486D03*
%TO.P,SW22,2*%
%TO.N,col1*%
X76187587Y-86066486D03*
%TD*%
%TO.P,SW21,1*%
%TO.N,Net-(D21-Pad2)*%
X64807588Y-98566485D03*
%TO.P,SW21,2*%
%TO.N,col0*%
X58457588Y-101106485D03*
%TO.P,SW21,1*%
%TO.N,Net-(D21-Pad2)*%
X63537588Y-101106485D03*
%TO.P,SW21,2*%
%TO.N,col0*%
X57187588Y-98566485D03*
%TD*%
%TO.P,SW15,1*%
%TO.N,Net-(D15-Pad2)*%
X140807585Y-69566488D03*
%TO.P,SW15,2*%
%TO.N,col4*%
X134457585Y-72106488D03*
%TO.P,SW15,1*%
%TO.N,Net-(D15-Pad2)*%
X139537585Y-72106488D03*
%TO.P,SW15,2*%
%TO.N,col4*%
X133187585Y-69566488D03*
%TD*%
%TO.P,SW14,1*%
%TO.N,Net-(D14-Pad2)*%
X121807586Y-67066487D03*
%TO.P,SW14,2*%
%TO.N,col3*%
X115457586Y-69606487D03*
%TO.P,SW14,1*%
%TO.N,Net-(D14-Pad2)*%
X120537586Y-69606487D03*
%TO.P,SW14,2*%
%TO.N,col3*%
X114187586Y-67066487D03*
%TD*%
%TO.P,SW13,1*%
%TO.N,Net-(D13-Pad2)*%
X102807587Y-62066487D03*
%TO.P,SW13,2*%
%TO.N,col2*%
X96457587Y-64606487D03*
%TO.P,SW13,1*%
%TO.N,Net-(D13-Pad2)*%
X101537587Y-64606487D03*
%TO.P,SW13,2*%
%TO.N,col2*%
X95187587Y-62066487D03*
%TD*%
%TO.P,SW12,1*%
%TO.N,Net-(D12-Pad2)*%
X83807588Y-67066487D03*
%TO.P,SW12,2*%
%TO.N,col1*%
X77457588Y-69606487D03*
%TO.P,SW12,1*%
%TO.N,Net-(D12-Pad2)*%
X82537588Y-69606487D03*
%TO.P,SW12,2*%
%TO.N,col1*%
X76187588Y-67066487D03*
%TD*%
%TO.P,SW11,1*%
%TO.N,Net-(D11-Pad2)*%
X64807589Y-79566486D03*
%TO.P,SW11,2*%
%TO.N,col0*%
X58457589Y-82106486D03*
%TO.P,SW11,1*%
%TO.N,Net-(D11-Pad2)*%
X63537589Y-82106486D03*
%TO.P,SW11,2*%
%TO.N,col0*%
X57187589Y-79566486D03*
%TD*%
%TO.P,SW6,1*%
%TO.N,Net-(D26-Pad2)*%
X108888593Y-106254404D03*
%TO.P,SW6,2*%
%TO.N,col2*%
X102538593Y-108794404D03*
%TO.P,SW6,1*%
%TO.N,Net-(D26-Pad2)*%
X107618593Y-108794404D03*
%TO.P,SW6,2*%
%TO.N,col2*%
X101268593Y-106254404D03*
%TD*%
%TO.P,SW5,1*%
%TO.N,Net-(D31-Pad2)*%
X140807585Y-50566489D03*
%TO.P,SW5,2*%
%TO.N,col4*%
X134457585Y-53106489D03*
%TO.P,SW5,1*%
%TO.N,Net-(D31-Pad2)*%
X139537585Y-53106489D03*
%TO.P,SW5,2*%
%TO.N,col4*%
X133187585Y-50566489D03*
%TD*%
%TO.P,SW4,1*%
%TO.N,Net-(D27-Pad2)*%
X121807586Y-48066488D03*
%TO.P,SW4,2*%
%TO.N,col3*%
X115457586Y-50606488D03*
%TO.P,SW4,1*%
%TO.N,Net-(D27-Pad2)*%
X120537586Y-50606488D03*
%TO.P,SW4,2*%
%TO.N,col3*%
X114187586Y-48066488D03*
%TD*%
%TO.P,SW3,1*%
%TO.N,Net-(D18-Pad2)*%
X102807587Y-43066488D03*
%TO.P,SW3,2*%
%TO.N,col2*%
X96457587Y-45606488D03*
%TO.P,SW3,1*%
%TO.N,Net-(D18-Pad2)*%
X101537587Y-45606488D03*
%TO.P,SW3,2*%
%TO.N,col2*%
X95187587Y-43066488D03*
%TD*%
%TO.P,SW2,1*%
%TO.N,Net-(D10-Pad2)*%
X83807588Y-48066488D03*
%TO.P,SW2,2*%
%TO.N,col1*%
X77457588Y-50606488D03*
%TO.P,SW2,1*%
%TO.N,Net-(D10-Pad2)*%
X82537588Y-50606488D03*
%TO.P,SW2,2*%
%TO.N,col1*%
X76187588Y-48066488D03*
%TD*%
%TO.P,SW1,1*%
%TO.N,Net-(D1-Pad2)*%
X64807589Y-60566487D03*
%TO.P,SW1,2*%
%TO.N,col0*%
X58457589Y-63106487D03*
%TO.P,SW1,1*%
%TO.N,Net-(D1-Pad2)*%
X63537589Y-63106487D03*
%TO.P,SW1,2*%
%TO.N,col0*%
X57187589Y-60566487D03*
%TD*%
%TO.P,J1,1*%
%TO.N,+5V*%
%TA.AperFunction,ComponentPad*%
G36*
G01*
X151289593Y-61096404D02*
X151289593Y-61946404D01*
G75*
G02*
X150864593Y-62371404I-425000J0D01*
G01*
X149514593Y-62371404D01*
G75*
G02*
X149089593Y-61946404I0J425000D01*
G01*
X149089593Y-61096404D01*
G75*
G02*
X149514593Y-60671404I425000J0D01*
G01*
X150864593Y-60671404D01*
G75*
G02*
X151289593Y-61096404I0J-425000D01*
G01*
G37*
%TD.AperFunction*%
%TO.P,J1,2*%
%TO.N,sda*%
%TA.AperFunction,ComponentPad*%
G36*
G01*
X150864593Y-64911404D02*
X149514593Y-64911404D01*
G75*
G02*
X149089593Y-64486404I0J425000D01*
G01*
X149089593Y-63636404D01*
G75*
G02*
X149514593Y-63211404I425000J0D01*
G01*
X150864593Y-63211404D01*
G75*
G02*
X151289593Y-63636404I0J-425000D01*
G01*
X151289593Y-64486404D01*
G75*
G02*
X150864593Y-64911404I-425000J0D01*
G01*
G37*
%TD.AperFunction*%
%TO.P,J1,3*%
%TO.N,scl*%
%TA.AperFunction,ComponentPad*%
G36*
G01*
X150864593Y-67451404D02*
X149514593Y-67451404D01*
G75*
G02*
X149089593Y-67026404I0J425000D01*
G01*
X149089593Y-66176404D01*
G75*
G02*
X149514593Y-65751404I425000J0D01*
G01*
X150864593Y-65751404D01*
G75*
G02*
X151289593Y-66176404I0J-425000D01*
G01*
X151289593Y-67026404D01*
G75*
G02*
X150864593Y-67451404I-425000J0D01*
G01*
G37*
%TD.AperFunction*%
%TO.P,J1,4*%
%TO.N,Net-(J1-Pad4)*%
%TA.AperFunction,ComponentPad*%
G36*
G01*
X150864593Y-69991404D02*
X149514593Y-69991404D01*
G75*
G02*
X149089593Y-69566404I0J425000D01*
G01*
X149089593Y-68716404D01*
G75*
G02*
X149514593Y-68291404I425000J0D01*
G01*
X150864593Y-68291404D01*
G75*
G02*
X151289593Y-68716404I0J-425000D01*
G01*
X151289593Y-69566404D01*
G75*
G02*
X150864593Y-69991404I-425000J0D01*
G01*
G37*
%TD.AperFunction*%
%TO.P,J1,5*%
%TO.N,GND*%
%TA.AperFunction,ComponentPad*%
G36*
G01*
X150864593Y-72531404D02*
X149514593Y-72531404D01*
G75*
G02*
X149089593Y-72106404I0J425000D01*
G01*
X149089593Y-71256404D01*
G75*
G02*
X149514593Y-70831404I425000J0D01*
G01*
X150864593Y-70831404D01*
G75*
G02*
X151289593Y-71256404I0J-425000D01*
G01*
X151289593Y-72106404D01*
G75*
G02*
X150864593Y-72531404I-425000J0D01*
G01*
G37*
%TD.AperFunction*%
%TD*%
D16*
%TO.P,U4,3*%
%TO.N,data*%
X147743593Y-46639404D03*
%TO.P,U4,4*%
%TO.N,+5V*%
X147743593Y-43639404D03*
%TO.P,U4,2*%
%TO.N,GND*%
X147743593Y-50639404D03*
%TO.P,U4,1*%
X152343593Y-51739404D03*
%TD*%
%TO.P,U3,3*%
%TO.N,data*%
X152343593Y-46639404D03*
%TO.P,U3,4*%
%TO.N,+5V*%
X152343593Y-43639404D03*
%TO.P,U3,2*%
%TO.N,GND*%
X152343593Y-50639404D03*
%TO.P,U3,1*%
X147743593Y-51739404D03*
%TD*%
D17*
%TO.P,U1,24*%
%TO.N,row0*%
X106609593Y-34978404D03*
%TO.P,U1,12*%
%TO.N,ENC1B*%
X91369593Y-62918404D03*
%TO.P,U1,23*%
%TO.N,GND*%
X106609593Y-37518404D03*
%TO.P,U1,22*%
%TO.N,RESET*%
X106609593Y-40058404D03*
%TO.P,U1,21*%
%TO.N,+5V*%
X106609593Y-42598404D03*
%TO.P,U1,20*%
%TO.N,data*%
X106609593Y-45138404D03*
%TO.P,U1,19*%
%TO.N,col2*%
X106609593Y-47678404D03*
%TO.P,U1,18*%
%TO.N,Net-(U1-Pad18)*%
X106609593Y-50218404D03*
%TO.P,U1,17*%
%TO.N,Net-(U1-Pad17)*%
X106609593Y-52758404D03*
%TO.P,U1,16*%
%TO.N,col3*%
X106609593Y-55298404D03*
%TO.P,U1,15*%
%TO.N,row2*%
X106609593Y-57838404D03*
%TO.P,U1,14*%
%TO.N,col4*%
X106609593Y-60378404D03*
%TO.P,U1,13*%
%TO.N,Net-(U1-Pad13)*%
X106609593Y-62918404D03*
%TO.P,U1,11*%
%TO.N,ENC1A*%
X91369593Y-60378404D03*
%TO.P,U1,10*%
%TO.N,row3*%
X91369593Y-57838404D03*
%TO.P,U1,9*%
%TO.N,row1*%
X91369593Y-55298404D03*
%TO.P,U1,8*%
%TO.N,Net-(U1-Pad8)*%
X91369593Y-52758404D03*
%TO.P,U1,7*%
%TO.N,col1*%
X91369593Y-50218404D03*
%TO.P,U1,6*%
%TO.N,scl*%
X91369593Y-47678404D03*
%TO.P,U1,5*%
%TO.N,sda*%
X91369593Y-45138404D03*
%TO.P,U1,4*%
%TO.N,GND*%
X91369593Y-42598404D03*
%TO.P,U1,3*%
X91369593Y-40058404D03*
%TO.P,U1,2*%
%TO.N,col0*%
X91369593Y-37518404D03*
D18*
%TO.P,U1,1*%
%TO.N,led*%
X91369593Y-34978404D03*
%TD*%
D19*
%TO.P,SW41,4*%
%TO.N,N/C*%
X148193593Y-89409404D03*
%TO.P,SW41,3*%
X151893593Y-95609404D03*
%TO.P,SW41,2*%
%TO.N,RESET*%
X151893593Y-89409404D03*
%TO.P,SW41,1*%
%TO.N,GND*%
X148193593Y-95609404D03*
%TD*%
%TO.P,R4,2*%
%TO.N,RESET*%
%TA.AperFunction,SMDPad,CuDef*%
G36*
G01*
X150443593Y-86990406D02*
X150443593Y-86090402D01*
G75*
G02*
X150693591Y-85840404I249998J0D01*
G01*
X151218595Y-85840404D01*
G75*
G02*
X151468593Y-86090402I0J-249998D01*
G01*
X151468593Y-86990406D01*
G75*
G02*
X151218595Y-87240404I-249998J0D01*
G01*
X150693591Y-87240404D01*
G75*
G02*
X150443593Y-86990406I0J249998D01*
G01*
G37*
%TD.AperFunction*%
%TO.P,R4,1*%
%TO.N,+5V*%
%TA.AperFunction,SMDPad,CuDef*%
G36*
G01*
X148618593Y-86990406D02*
X148618593Y-86090402D01*
G75*
G02*
X148868591Y-85840404I249998J0D01*
G01*
X149393595Y-85840404D01*
G75*
G02*
X149643593Y-86090402I0J-249998D01*
G01*
X149643593Y-86990406D01*
G75*
G02*
X149393595Y-87240404I-249998J0D01*
G01*
X148868591Y-87240404D01*
G75*
G02*
X148618593Y-86990406I0J249998D01*
G01*
G37*
%TD.AperFunction*%
%TD*%
D20*
%TO.N,GND*%
X83292393Y-104269604D03*
X150145193Y-94262004D03*
X75558093Y-36685956D03*
X74542093Y-39702804D03*
X82619293Y-36731004D03*
X63645476Y-49179894D03*
X93680993Y-40007604D03*
X93706393Y-31828804D03*
X101529593Y-31866904D03*
X105009393Y-31981204D03*
X113277093Y-36743704D03*
X111981693Y-39829804D03*
X120566893Y-36756404D03*
X131831793Y-39296404D03*
X130803093Y-42369804D03*
X139540693Y-39334504D03*
X145750993Y-39461504D03*
X93680993Y-36108704D03*
X74272293Y-62016704D03*
X74224593Y-55717504D03*
X139134293Y-59057604D03*
X132025393Y-61165804D03*
X132025393Y-59057604D03*
X120630393Y-56009604D03*
X113483393Y-58740104D03*
X113483393Y-56009604D03*
X103790193Y-52339304D03*
X82631993Y-55717504D03*
X75726293Y-58689304D03*
X75726293Y-55717504D03*
X63594693Y-68455604D03*
X74272293Y-80952404D03*
X74272293Y-74513504D03*
X139642293Y-77739304D03*
X149814993Y-77523404D03*
X120744693Y-74894504D03*
X113356393Y-77675804D03*
X113378693Y-74894504D03*
X101707393Y-70233604D03*
X94687393Y-72621204D03*
X94874793Y-70233604D03*
X82809793Y-74513504D03*
X75726293Y-77713904D03*
X75726293Y-74513504D03*
X63823293Y-87353204D03*
X93134893Y-94909704D03*
X151250093Y-100358004D03*
X143972993Y-103685404D03*
X143909493Y-100358004D03*
X130561793Y-96179704D03*
X121468593Y-99189604D03*
X121370093Y-94909704D03*
X107752593Y-94909704D03*
X99741993Y-97894204D03*
X99741993Y-94909704D03*
X134244793Y-77726604D03*
X144138093Y-77739304D03*
X144620693Y-50675604D03*
%TO.N,+5V*%
X58006693Y-55476204D03*
X133736793Y-45252704D03*
X115220193Y-42738104D03*
X96322593Y-37772404D03*
X77259893Y-42788904D03*
X57955893Y-74272204D03*
X77297993Y-61813504D03*
X96360693Y-56733504D03*
X115321793Y-61750004D03*
X134333693Y-64201104D03*
X149131093Y-86540404D03*
X58400393Y-93246004D03*
X143833293Y-107635104D03*
X123487893Y-102847204D03*
X102202693Y-100929504D03*
X76447093Y-81371504D03*
X86740443Y-59203654D03*
X86852087Y-80466110D03*
X87407193Y-41366504D03*
X96322593Y-75859704D03*
X114851893Y-80876204D03*
%TO.N,Net-(D1-Pad2)*%
X69665293Y-60557204D03*
%TO.N,row0*%
X69665293Y-63870904D03*
X71189293Y-52885404D03*
X85818693Y-54168104D03*
X97326893Y-49100804D03*
X126726393Y-52160504D03*
X135452293Y-56733504D03*
%TO.N,Net-(D10-Pad2)*%
X82518693Y-54168104D03*
%TO.N,Net-(D11-Pad2)*%
X69677993Y-79569104D03*
%TO.N,row1*%
X69677993Y-82882804D03*
X71151193Y-72252904D03*
X88677193Y-70359604D03*
X97631693Y-68201604D03*
X126802593Y-70448504D03*
X135477693Y-75694604D03*
X91988793Y-68201604D03*
%TO.N,Net-(D12-Pad2)*%
X88677193Y-67059604D03*
%TO.N,Net-(D13-Pad2)*%
X100931693Y-68201604D03*
%TO.N,Net-(D14-Pad2)*%
X126802593Y-67148504D03*
%TO.N,Net-(D15-Pad2)*%
X138777693Y-75694604D03*
%TO.N,Net-(D17-Pad2)*%
X88613693Y-86071504D03*
%TO.N,Net-(D18-Pad2)*%
X100626893Y-49100804D03*
%TO.N,Net-(D20-Pad2)*%
X107752593Y-81067704D03*
%TO.N,Net-(D21-Pad2)*%
X69779593Y-98619104D03*
%TO.N,row2*%
X69779593Y-101932804D03*
X71062293Y-90693304D03*
X88613693Y-89371504D03*
X107752593Y-84367704D03*
X108197093Y-90464704D03*
X126739093Y-89396904D03*
X135757093Y-94693804D03*
X110646475Y-59488022D03*
%TO.N,Net-(D24-Pad2)*%
X126739093Y-86096904D03*
%TO.N,Net-(D25-Pad2)*%
X139057093Y-94693804D03*
%TO.N,Net-(D26-Pad2)*%
X107522993Y-112118204D03*
%TO.N,Net-(D27-Pad2)*%
X126726393Y-48860504D03*
%TO.N,Net-(D31-Pad2)*%
X138752293Y-56733504D03*
%TO.N,row3*%
X109403593Y-112054704D03*
X104222993Y-112118204D03*
X142778100Y-118424571D03*
X72192593Y-111558404D03*
X73373693Y-66372804D03*
%TO.N,Net-(D35-Pad2)*%
X145879086Y-119553237D03*
%TO.N,Net-(D37-Pad2)*%
X72192593Y-108258404D03*
X84638593Y-106606404D03*
%TO.N,Net-(D38-Pad2)*%
X56072215Y-64463726D03*
X57113050Y-65479161D03*
X56914493Y-67655504D03*
X65410793Y-67665104D03*
%TO.N,Net-(D39-Pad2)*%
X117683993Y-69446204D03*
X118712693Y-68265104D03*
%TO.N,Net-(D40-Pad2)*%
X59175093Y-69408104D03*
X67303093Y-69471604D03*
%TO.N,led*%
X85044993Y-37521504D03*
X71976693Y-43906504D03*
X72725993Y-45633704D03*
X64178893Y-55908004D03*
%TO.N,Net-(D41-Pad2)*%
X62680293Y-50154904D03*
X56241393Y-51399504D03*
X56266793Y-53660104D03*
X56879493Y-72646604D03*
%TO.N,Net-(D42-Pad2)*%
X66299793Y-70970204D03*
X57244693Y-93080904D03*
%TO.N,Net-(D45-Pad2)*%
X81171493Y-75478704D03*
X80765093Y-70868604D03*
X79787193Y-69344604D03*
X75748593Y-61369004D03*
%TO.N,Net-(D46-Pad2)*%
X81450893Y-56619204D03*
X80371393Y-51513804D03*
X79635076Y-50117087D03*
X75418393Y-41696704D03*
%TO.N,Net-(D47-Pad2)*%
X84638593Y-39956804D03*
X85375193Y-43296904D03*
X95636793Y-39410704D03*
X94773193Y-37645404D03*
%TO.N,Net-(D48-Pad2)*%
X103320293Y-36502404D03*
X94950993Y-55943004D03*
%TO.N,Net-(D49-Pad2)*%
X104310893Y-55031704D03*
X93465093Y-74196004D03*
%TO.N,Net-(D50-Pad2)*%
X109657593Y-74348404D03*
X109924293Y-76291504D03*
%TO.N,Net-(D51-Pad2)*%
X119601693Y-75796204D03*
X113658093Y-59946604D03*
%TO.N,Net-(D52-Pad2)*%
X119436593Y-56800104D03*
X118712693Y-51742404D03*
X117693593Y-50307304D03*
X113480293Y-41150604D03*
%TO.N,Net-(D54-Pad2)*%
X141648893Y-44198604D03*
X132187393Y-63324804D03*
%TO.N,Net-(D55-Pad2)*%
X141953693Y-61724604D03*
X132101593Y-81536604D03*
%TO.N,Net-(D56-Pad2)*%
X143071293Y-80584104D03*
X143045893Y-93284104D03*
X132129960Y-93278037D03*
X129990293Y-93334904D03*
X96881393Y-92725304D03*
X98278393Y-99367404D03*
%TO.N,Net-(D58-Pad2)*%
X60330793Y-86413404D03*
X67988893Y-86108604D03*
X68509593Y-90604404D03*
X77501193Y-81676304D03*
%TO.N,Net-(D61-Pad2)*%
X115766293Y-37534204D03*
X142080693Y-40134604D03*
%TO.N,Net-(D62-Pad2)*%
X136531076Y-51552187D03*
X137435593Y-52847021D03*
%TO.N,Net-(D64-Pad2)*%
X136733993Y-70436804D03*
X137359393Y-71992271D03*
%TO.N,Net-(D66-Pad2)*%
X132647693Y-80177704D03*
X130647593Y-80355504D03*
X129063193Y-81231804D03*
X124224493Y-81231804D03*
X124033993Y-94084204D03*
X111041893Y-94033404D03*
%TO.N,Net-(D67-Pad2)*%
X77932993Y-37930466D03*
X86213393Y-37683504D03*
X86213393Y-44185904D03*
X96933102Y-38564415D03*
%TO.N,Net-(D68-Pad2)*%
X102748793Y-95700204D03*
X132492193Y-98313304D03*
%TO.N,Net-(D69-Pad2)*%
X96386093Y-32619304D03*
X104069593Y-32717804D03*
%TO.N,Net-(D70-Pad2)*%
X100665993Y-50713704D03*
X111397493Y-49075404D03*
X111054425Y-74958172D03*
X103536193Y-74323004D03*
%TO.N,Net-(D71-Pad2)*%
X124525592Y-96729506D03*
X152266093Y-101120004D03*
%TO.N,RESET*%
X150068993Y-90439304D03*
X110470393Y-44058904D03*
X145700193Y-48592804D03*
X150956093Y-86540404D03*
%TO.N,col0*%
X88308893Y-46344904D03*
%TO.N,col1*%
X76241593Y-96431404D03*
%TO.N,col3*%
X110203693Y-52987004D03*
X112756393Y-53307681D03*
%TO.N,col4*%
X109919475Y-60975304D03*
X109919475Y-70109704D03*
X131571726Y-74202071D03*
X136454593Y-102288404D03*
X141799155Y-102362466D03*
%TO.N,sda*%
X85768893Y-45506704D03*
X86137193Y-81295304D03*
X145065193Y-83759104D03*
X145547793Y-64213804D03*
%TO.N,scl*%
X88197693Y-47640304D03*
X88283493Y-65775904D03*
%TO.N,ENC1B*%
X80828593Y-101780404D03*
%TO.N,ENC1A*%
X85908593Y-106606404D03*
%TO.N,data*%
X112146793Y-45481304D03*
X112235693Y-50713704D03*
X143515793Y-54993604D03*
X144493693Y-46433804D03*
%TO.N,Net-(D39-Pad4)*%
X96424193Y-71024104D03*
X107930393Y-71846504D03*
X109105311Y-70773186D03*
X122738593Y-74104004D03*
%TD*%
D21*
%TO.N,GND*%
X83241593Y-104320404D02*
X83292393Y-104269604D01*
X83241593Y-111693404D02*
X83241593Y-104320404D01*
X150145193Y-94262004D02*
X148773593Y-95633604D01*
X148749393Y-95609404D02*
X148193593Y-95609404D01*
X148773593Y-95633604D02*
X148749393Y-95609404D01*
X75558093Y-38686804D02*
X74542093Y-39702804D01*
X75558093Y-36685956D02*
X75558093Y-38686804D01*
X82619293Y-39674784D02*
X82597588Y-39696489D01*
X82619293Y-36731004D02*
X82619293Y-39674784D01*
X63597589Y-49227781D02*
X63645476Y-49179894D01*
X63597589Y-52196488D02*
X63597589Y-49227781D01*
X93680993Y-31854204D02*
X93706393Y-31828804D01*
X101529593Y-34628495D02*
X101597587Y-34696489D01*
X101529593Y-31866904D02*
X101529593Y-34628495D01*
X105009393Y-31981204D02*
X105009393Y-37277104D01*
X105250693Y-37518404D02*
X106609593Y-37518404D01*
X105009393Y-37277104D02*
X105250693Y-37518404D01*
X113277093Y-38534404D02*
X111981693Y-39829804D01*
X113277093Y-36743704D02*
X113277093Y-38534404D01*
X120566893Y-39665796D02*
X120597586Y-39696489D01*
X120566893Y-36756404D02*
X120566893Y-39665796D01*
X131831793Y-41341104D02*
X130803093Y-42369804D01*
X131831793Y-39296404D02*
X131831793Y-41341104D01*
X139540693Y-42139598D02*
X139597585Y-42196490D01*
X139540693Y-39334504D02*
X139540693Y-42139598D01*
X145750993Y-39461504D02*
X145750993Y-46370304D01*
X93680993Y-40007604D02*
X93680993Y-36108704D01*
X91369593Y-40058404D02*
X91369593Y-42598404D01*
X74272293Y-55765204D02*
X74224593Y-55717504D01*
X74272293Y-62016704D02*
X74272293Y-55765204D01*
X139597585Y-59520896D02*
X139597585Y-61196489D01*
X139134293Y-59057604D02*
X139597585Y-59520896D01*
X132025393Y-61165804D02*
X132025393Y-59057604D01*
X120597586Y-56042411D02*
X120630393Y-56009604D01*
X120597586Y-58696488D02*
X120597586Y-56042411D01*
X113483393Y-58740104D02*
X113483393Y-56009604D01*
X102433009Y-53696488D02*
X103790193Y-52339304D01*
X101597587Y-53696488D02*
X102433009Y-53696488D01*
X82597588Y-55751909D02*
X82631993Y-55717504D01*
X82597588Y-58696488D02*
X82597588Y-55751909D01*
X75726293Y-58689304D02*
X75726293Y-55717504D01*
X63597589Y-68458500D02*
X63594693Y-68455604D01*
X63597589Y-71196487D02*
X63597589Y-68458500D01*
X74272293Y-80952404D02*
X74272293Y-74513504D01*
X139642293Y-80151780D02*
X139597585Y-80196488D01*
X139642293Y-77739304D02*
X139642293Y-80151780D01*
X149814993Y-72056004D02*
X150189593Y-71681404D01*
X149814993Y-77523404D02*
X149814993Y-72056004D01*
X120597586Y-75041611D02*
X120744693Y-74894504D01*
X120597586Y-77696488D02*
X120597586Y-75041611D01*
X113356393Y-74916804D02*
X113378693Y-74894504D01*
X113356393Y-77675804D02*
X113356393Y-74916804D01*
X101597586Y-70343411D02*
X101707393Y-70233604D01*
X101597586Y-72696488D02*
X101597586Y-70343411D01*
X94687393Y-70421004D02*
X94874793Y-70233604D01*
X94687393Y-72621204D02*
X94687393Y-70421004D01*
X82597587Y-74725710D02*
X82809793Y-74513504D01*
X82597587Y-77696487D02*
X82597587Y-74725710D01*
X75726293Y-77713904D02*
X75726293Y-74513504D01*
X63597588Y-87578909D02*
X63823293Y-87353204D01*
X63597588Y-90196486D02*
X63597588Y-87578909D01*
X90741593Y-104193404D02*
X92169693Y-104193404D01*
X93134893Y-103228204D02*
X93134893Y-94909704D01*
X92169693Y-104193404D02*
X93134893Y-103228204D01*
X150685293Y-106486801D02*
X151288193Y-105883901D01*
X151288193Y-100396104D02*
X151250093Y-100358004D01*
X151288193Y-105883901D02*
X151288193Y-100396104D01*
X143972993Y-100421504D02*
X143909493Y-100358004D01*
X143972993Y-103685404D02*
X143972993Y-100421504D01*
X129536543Y-100350813D02*
X130498293Y-99389063D01*
X130498293Y-96243204D02*
X130561793Y-96179704D01*
X130498293Y-99389063D02*
X130498293Y-96243204D01*
X121468593Y-95008204D02*
X121370093Y-94909704D01*
X121468593Y-99189604D02*
X121468593Y-95008204D01*
X107678593Y-94983704D02*
X107752593Y-94909704D01*
X107678593Y-97884405D02*
X107678593Y-94983704D01*
X99741993Y-97894204D02*
X99741993Y-94909704D01*
X93680993Y-36108704D02*
X93680993Y-31854204D01*
X143909493Y-100358004D02*
X143909493Y-77967904D01*
X143909493Y-77967904D02*
X144138093Y-77739304D01*
X74272293Y-74513504D02*
X74272293Y-62016704D01*
X74224593Y-40020304D02*
X74542093Y-39702804D01*
X74224593Y-55717504D02*
X74224593Y-40020304D01*
X145750993Y-46370304D02*
X145750993Y-46611604D01*
X144620693Y-47741904D02*
X144620693Y-50675604D01*
X145750993Y-46611604D02*
X144620693Y-47741904D01*
%TO.N,+5V*%
X58397589Y-53696488D02*
X57841593Y-54252484D01*
X57841593Y-55311104D02*
X58006693Y-55476204D01*
X57841593Y-54252484D02*
X57841593Y-55311104D01*
X134397585Y-44591912D02*
X133736793Y-45252704D01*
X134397585Y-43696490D02*
X134397585Y-44591912D01*
X115397586Y-42560711D02*
X115220193Y-42738104D01*
X115397586Y-41196489D02*
X115397586Y-42560711D01*
X96397587Y-37697410D02*
X96322593Y-37772404D01*
X96397587Y-36196489D02*
X96397587Y-37697410D01*
X77397588Y-42651209D02*
X77259893Y-42788904D01*
X77397588Y-41196489D02*
X77397588Y-42651209D01*
X58397589Y-72696487D02*
X57930493Y-73163583D01*
X57930493Y-74246804D02*
X57955893Y-74272204D01*
X57930493Y-73163583D02*
X57930493Y-74246804D01*
X77397588Y-61713909D02*
X77297993Y-61813504D01*
X77397588Y-60196488D02*
X77397588Y-61713909D01*
X96397587Y-56696610D02*
X96360693Y-56733504D01*
X96397587Y-55196488D02*
X96397587Y-56696610D01*
X115397586Y-61674211D02*
X115321793Y-61750004D01*
X115397586Y-60196488D02*
X115397586Y-61674211D01*
X134397585Y-64137212D02*
X134333693Y-64201104D01*
X134397585Y-62696489D02*
X134397585Y-64137212D01*
X58397588Y-93243199D02*
X58400393Y-93246004D01*
X58397588Y-91696486D02*
X58397588Y-93243199D01*
X145285861Y-106182536D02*
X143833293Y-107635104D01*
X145285861Y-106117836D02*
X145285861Y-106182536D01*
X124155070Y-100925054D02*
X123564093Y-101516031D01*
X123564093Y-102771004D02*
X123487893Y-102847204D01*
X123564093Y-101516031D02*
X123564093Y-102771004D01*
X102478593Y-100653604D02*
X102202693Y-100929504D01*
X102478593Y-99384405D02*
X102478593Y-100653604D01*
X77397587Y-80421010D02*
X76447093Y-81371504D01*
X77397587Y-79196487D02*
X77397587Y-80421010D01*
X86740443Y-80354466D02*
X86852087Y-80466110D01*
X86740443Y-59203654D02*
X86740443Y-80354466D01*
X86740443Y-59203654D02*
X86740443Y-55914354D01*
X87407193Y-55247604D02*
X87407193Y-41366504D01*
X86740443Y-55914354D02*
X87407193Y-55247604D01*
X96397586Y-75784711D02*
X96322593Y-75859704D01*
X96397586Y-74196488D02*
X96397586Y-75784711D01*
X115397586Y-80330511D02*
X114851893Y-80876204D01*
X115397586Y-79196488D02*
X115397586Y-80330511D01*
D22*
%TO.N,row0*%
X69665293Y-63857204D02*
X70352093Y-63857204D01*
X70352093Y-63857204D02*
X71189293Y-63020004D01*
X71189293Y-52885404D02*
X71189293Y-53533104D01*
X71189293Y-53533104D02*
X72954593Y-55298404D01*
X72954593Y-55298404D02*
X72954593Y-58346404D01*
X71189293Y-60111704D02*
X71189293Y-63020004D01*
X72954593Y-58346404D02*
X71189293Y-60111704D01*
%TO.N,Net-(D10-Pad2)*%
X82537588Y-54149209D02*
X82518693Y-54168104D01*
X82537588Y-50606488D02*
X82537588Y-54149209D01*
%TO.N,row1*%
X69677993Y-82882804D02*
X70351093Y-82882804D01*
X71151193Y-82082704D02*
X71151193Y-72252904D01*
X70351093Y-82882804D02*
X71151193Y-82082704D01*
X91369593Y-55298404D02*
X92690393Y-55298404D01*
X92690393Y-55298404D02*
X93236493Y-55844504D01*
X93236493Y-55844504D02*
X93236493Y-65496504D01*
X91988793Y-66744204D02*
X91988793Y-68201604D01*
X93236493Y-65496504D02*
X91988793Y-66744204D01*
%TO.N,Net-(D13-Pad2)*%
X101537587Y-67595710D02*
X100931693Y-68201604D01*
X101537587Y-64606487D02*
X101537587Y-67595710D01*
%TO.N,Net-(D15-Pad2)*%
X139537585Y-74934712D02*
X138777693Y-75694604D01*
X139537585Y-72106488D02*
X139537585Y-74934712D01*
%TO.N,Net-(D18-Pad2)*%
X101537587Y-48190110D02*
X100626893Y-49100804D01*
X101537587Y-45606488D02*
X101537587Y-48190110D01*
%TO.N,row2*%
X69779593Y-101932804D02*
X70706693Y-101932804D01*
X70706693Y-101932804D02*
X71062293Y-101577204D01*
X107752593Y-90020204D02*
X108197093Y-90464704D01*
X107752593Y-84367704D02*
X107752593Y-90020204D01*
X110646475Y-59488022D02*
X110646475Y-71235186D01*
X110646475Y-71235186D02*
X110648193Y-71236904D01*
X110648193Y-71236904D02*
X110648193Y-72189404D01*
X110648193Y-72189404D02*
X108832093Y-74005504D01*
X108832093Y-74005504D02*
X108832093Y-77498004D01*
X108832093Y-77498004D02*
X109454393Y-78120304D01*
X109454393Y-82665904D02*
X107752593Y-84367704D01*
X109454393Y-78120304D02*
X109454393Y-82665904D01*
X71062293Y-101577204D02*
X71062293Y-97348104D01*
X71062293Y-97348104D02*
X69398593Y-95684404D01*
X69398593Y-92357004D02*
X71062293Y-90693304D01*
X69398593Y-95684404D02*
X69398593Y-92357004D01*
%TO.N,Net-(D25-Pad2)*%
X139537585Y-94213312D02*
X139057093Y-94693804D01*
X139537585Y-91106487D02*
X139537585Y-94213312D01*
%TO.N,Net-(D31-Pad2)*%
X139537585Y-55948212D02*
X138752293Y-56733504D01*
X139537585Y-53106489D02*
X139537585Y-55948212D01*
%TO.N,row3*%
X109403593Y-112054704D02*
X109403593Y-111407004D01*
X109403593Y-111407004D02*
X108654293Y-110657704D01*
X105683493Y-110657704D02*
X104222993Y-112118204D01*
X108654293Y-110657704D02*
X105683493Y-110657704D01*
X73373693Y-66372804D02*
X72027493Y-67719004D01*
X72027493Y-104193404D02*
X70008193Y-106212704D01*
X70008193Y-109374004D02*
X72192593Y-111558404D01*
X70008193Y-106212704D02*
X70008193Y-109374004D01*
X72027493Y-104193404D02*
X72027493Y-97297304D01*
X72027493Y-97297304D02*
X70414593Y-95684404D01*
X70414593Y-95684404D02*
X70414593Y-92890404D01*
X72027493Y-91277504D02*
X72027493Y-67719004D01*
X70414593Y-92890404D02*
X72027493Y-91277504D01*
%TO.N,Net-(D37-Pad2)*%
X73757593Y-106693404D02*
X72192593Y-108258404D01*
X76241593Y-106693404D02*
X73757593Y-106693404D01*
X85614593Y-103344404D02*
X85614593Y-96812404D01*
X84638593Y-104320404D02*
X85614593Y-103344404D01*
X84638593Y-106606404D02*
X84638593Y-104320404D01*
%TO.N,Net-(D38-Pad2)*%
X58397589Y-52196488D02*
X56485809Y-52196488D01*
X55479393Y-53202904D02*
X55479393Y-61387638D01*
X56485809Y-52196488D02*
X55479393Y-53202904D01*
X55486058Y-63877569D02*
X56072215Y-64463726D01*
X55479393Y-61387638D02*
X55486058Y-63877569D01*
X57113050Y-65479161D02*
X56736693Y-65855518D01*
X56736693Y-67477704D02*
X56914493Y-67655504D01*
X56736693Y-65855518D02*
X56736693Y-67477704D01*
X65410793Y-67665104D02*
X65410793Y-72189404D01*
X64903710Y-72696487D02*
X63597589Y-72696487D01*
X65410793Y-72189404D02*
X64903710Y-72696487D01*
%TO.N,Net-(D39-Pad2)*%
X115397586Y-77696488D02*
X115397586Y-72532711D01*
X117683993Y-70246304D02*
X117683993Y-69446204D01*
X115397586Y-72532711D02*
X117683993Y-70246304D01*
X118712693Y-68265104D02*
X118712693Y-67617404D01*
X118712693Y-67617404D02*
X122116293Y-64213804D01*
X122116293Y-64213804D02*
X122116293Y-60568904D01*
X121743877Y-60196488D02*
X120597586Y-60196488D01*
X122116293Y-60568904D02*
X121743877Y-60196488D01*
%TO.N,Net-(D40-Pad2)*%
X58397589Y-70185608D02*
X59175093Y-69408104D01*
X58397589Y-71196487D02*
X58397589Y-70185608D01*
X67303093Y-69471604D02*
X67303093Y-75516804D01*
X67303093Y-75516804D02*
X66655393Y-76164504D01*
X66655393Y-76164504D02*
X66655393Y-80927004D01*
X66655393Y-80927004D02*
X65385393Y-82197004D01*
X65385393Y-82197004D02*
X65385393Y-90845704D01*
X64534611Y-91696486D02*
X63597588Y-91696486D01*
X65385393Y-90845704D02*
X64534611Y-91696486D01*
%TO.N,led*%
X91369593Y-34978404D02*
X91369593Y-35016504D01*
X91369593Y-35016504D02*
X89655093Y-36731004D01*
X85835493Y-36731004D02*
X85044993Y-37521504D01*
X89655093Y-36731004D02*
X85835493Y-36731004D01*
X71976693Y-44884404D02*
X72725993Y-45633704D01*
X71976693Y-43906504D02*
X71976693Y-44884404D01*
X64178893Y-54277792D02*
X63597589Y-53696488D01*
X64178893Y-55908004D02*
X64178893Y-54277792D01*
%TO.N,Net-(D41-Pad2)*%
X62680293Y-50154904D02*
X56749393Y-50154904D01*
X56241393Y-50662904D02*
X56241393Y-51399504D01*
X56749393Y-50154904D02*
X56241393Y-50662904D01*
X56266793Y-53660104D02*
X56266793Y-56898604D01*
X56266793Y-56898604D02*
X56266793Y-57266904D01*
X56266793Y-57266904D02*
X58032093Y-59032204D01*
X58032093Y-59032204D02*
X58260693Y-59032204D01*
X58260693Y-59032204D02*
X58997293Y-59768804D01*
X58997293Y-59768804D02*
X58997293Y-60441904D01*
X58997293Y-60441904D02*
X60343493Y-61788104D01*
X60343493Y-61788104D02*
X60343493Y-64124904D01*
X60343493Y-64124904D02*
X57765393Y-66703004D01*
X57765393Y-66703004D02*
X57765393Y-67846004D01*
X56879493Y-68731904D02*
X56879493Y-72646604D01*
X57765393Y-67846004D02*
X56879493Y-68731904D01*
%TO.N,Net-(D42-Pad2)*%
X66299793Y-70970204D02*
X66299793Y-73942004D01*
X66299793Y-73942004D02*
X63569293Y-76672504D01*
X63569293Y-76672504D02*
X63569293Y-78361604D01*
X63569293Y-78361604D02*
X60508593Y-81422304D01*
X60508593Y-81422304D02*
X60508593Y-83124104D01*
X60508593Y-83124104D02*
X56939893Y-86692804D01*
X56939893Y-92776104D02*
X57244693Y-93080904D01*
X56939893Y-86692804D02*
X56939893Y-92776104D01*
%TO.N,Net-(D44-Pad2)*%
X121163793Y-41762696D02*
X120597586Y-41196489D01*
X120185893Y-47411704D02*
X120185893Y-47170404D01*
X121163793Y-46192504D02*
X121163793Y-41762696D01*
X120185893Y-47170404D02*
X121163793Y-46192504D01*
X118420593Y-49177004D02*
X120185893Y-47411704D01*
X118420593Y-50904204D02*
X118420593Y-49177004D01*
X115397586Y-53927211D02*
X118420593Y-50904204D01*
X115397586Y-58696488D02*
X115397586Y-53927211D01*
%TO.N,Net-(D45-Pad2)*%
X80765093Y-75072304D02*
X80765093Y-70868604D01*
X81171493Y-75478704D02*
X80765093Y-75072304D01*
X79787193Y-69344604D02*
X79787193Y-67998404D01*
X79787193Y-67998404D02*
X79723693Y-67998404D01*
X75748593Y-64023304D02*
X75748593Y-61369004D01*
X79723693Y-67998404D02*
X75748593Y-64023304D01*
%TO.N,Net-(D46-Pad2)*%
X81450893Y-56619204D02*
X80345993Y-55514304D01*
X80345993Y-51539204D02*
X80371393Y-51513804D01*
X80345993Y-55514304D02*
X80345993Y-51539204D01*
X79635076Y-50117087D02*
X78542593Y-49024604D01*
X78542593Y-49024604D02*
X78542593Y-47919704D01*
X78542593Y-47919704D02*
X77336093Y-46713204D01*
X77336093Y-46713204D02*
X77336093Y-44998704D01*
X75418393Y-43081004D02*
X75418393Y-41696704D01*
X77336093Y-44998704D02*
X75418393Y-43081004D01*
%TO.N,Net-(D47-Pad2)*%
X85375193Y-40693404D02*
X85375193Y-43296904D01*
X84638593Y-39956804D02*
X85375193Y-40693404D01*
X95636793Y-38509004D02*
X94773193Y-37645404D01*
X95636793Y-39410704D02*
X95636793Y-38509004D01*
%TO.N,Net-(D48-Pad2)*%
X103320293Y-36502404D02*
X103320293Y-38343904D01*
X103320293Y-38343904D02*
X101580393Y-40083804D01*
X101580393Y-41378616D02*
X98887993Y-44071016D01*
X101580393Y-40083804D02*
X101580393Y-41378616D01*
X98887993Y-44071016D02*
X98887993Y-44071604D01*
X98887993Y-44071604D02*
X98392693Y-44566904D01*
X98392693Y-44566904D02*
X98392693Y-49659604D01*
X98392693Y-49659604D02*
X94938293Y-53114004D01*
X94938293Y-55930304D02*
X94950993Y-55943004D01*
X94938293Y-53114004D02*
X94938293Y-55930304D01*
%TO.N,Net-(D49-Pad2)*%
X104310893Y-55031704D02*
X101935993Y-57406604D01*
X101935993Y-57406604D02*
X101935993Y-60556204D01*
X101935993Y-60556204D02*
X98278393Y-64213804D01*
X98278393Y-64213804D02*
X98278393Y-65293304D01*
X98278393Y-65293304D02*
X97287793Y-66283904D01*
X97287793Y-66283904D02*
X97262393Y-66309304D01*
X97262393Y-66309304D02*
X94747793Y-66309304D01*
X93465093Y-67592004D02*
X93465093Y-74196004D01*
X94747793Y-66309304D02*
X93465093Y-67592004D01*
%TO.N,Net-(D50-Pad2)*%
X109657593Y-76024804D02*
X109924293Y-76291504D01*
X109657593Y-74348404D02*
X109657593Y-76024804D01*
%TO.N,Net-(D51-Pad2)*%
X119601693Y-75796204D02*
X118623793Y-74818304D01*
X118623793Y-74818304D02*
X118623793Y-69281104D01*
X118623793Y-69281104D02*
X115626593Y-66283904D01*
X115626593Y-66283904D02*
X115626593Y-64836104D01*
X113658093Y-62867604D02*
X113658093Y-59946604D01*
X115626593Y-64836104D02*
X113658093Y-62867604D01*
%TO.N,Net-(D52-Pad2)*%
X118712693Y-56076204D02*
X118712693Y-51742404D01*
X119436593Y-56800104D02*
X118712693Y-56076204D01*
X117693593Y-50307304D02*
X117163293Y-49777004D01*
X117163293Y-49777004D02*
X117163293Y-48516604D01*
X113480293Y-44833604D02*
X113480293Y-41150604D01*
X117163293Y-48516604D02*
X113480293Y-44833604D01*
%TO.N,Net-(D54-Pad2)*%
X141648893Y-44198604D02*
X141648893Y-46954504D01*
X141648893Y-46954504D02*
X138905693Y-49697704D01*
X138905693Y-49697704D02*
X138905693Y-50205704D01*
X138905693Y-50205704D02*
X136708593Y-52402804D01*
X136708593Y-52402804D02*
X136708593Y-57660604D01*
X136708593Y-57660604D02*
X135298893Y-59070304D01*
X135298893Y-59070304D02*
X134320993Y-59070304D01*
X134320993Y-59070304D02*
X132835093Y-60556204D01*
X132835093Y-61432066D02*
X132174255Y-62092904D01*
X132835093Y-60556204D02*
X132835093Y-61432066D01*
X132174255Y-63311666D02*
X132187393Y-63324804D01*
X132174255Y-62092904D02*
X132174255Y-63311666D01*
%TO.N,Net-(D55-Pad2)*%
X141953693Y-61724604D02*
X141953693Y-65788604D01*
X141953693Y-65788604D02*
X138943793Y-68798504D01*
X138943793Y-68798504D02*
X138943793Y-69357304D01*
X138943793Y-69357304D02*
X136632393Y-71668704D01*
X136632393Y-71668704D02*
X136264093Y-72037004D01*
X136264093Y-72037004D02*
X136137093Y-72164004D01*
X136137093Y-72164004D02*
X136137093Y-72633904D01*
X136137093Y-72633904D02*
X134981393Y-73789604D01*
X134981393Y-73789604D02*
X133470093Y-73789604D01*
X133470093Y-73789604D02*
X131920693Y-75339004D01*
X131920693Y-81355704D02*
X132101593Y-81536604D01*
X131920693Y-75339004D02*
X131920693Y-81355704D01*
%TO.N,Net-(D56-Pad2)*%
X143071293Y-93258704D02*
X143045893Y-93284104D01*
X143071293Y-80584104D02*
X143071293Y-93258704D01*
X130047160Y-93278037D02*
X129990293Y-93334904D01*
X132129960Y-93278037D02*
X130047160Y-93278037D01*
X96881393Y-92725304D02*
X98252993Y-94096904D01*
X98252993Y-99342004D02*
X98278393Y-99367404D01*
X98252993Y-94096904D02*
X98252993Y-99342004D01*
%TO.N,Net-(D58-Pad2)*%
X58397588Y-88346609D02*
X60330793Y-86413404D01*
X58397588Y-90196486D02*
X58397588Y-88346609D01*
X68509593Y-86629304D02*
X68509593Y-90604404D01*
X67988893Y-86108604D02*
X68509593Y-86629304D01*
X77501193Y-81676304D02*
X78377493Y-80800004D01*
X78377493Y-80800004D02*
X81717593Y-80800004D01*
X82597587Y-79920010D02*
X82597587Y-79196487D01*
X81717593Y-80800004D02*
X82597587Y-79920010D01*
%TO.N,Net-(D61-Pad2)*%
X115397586Y-37902911D02*
X115766293Y-37534204D01*
X115397586Y-39696489D02*
X115397586Y-37902911D01*
X142080693Y-40134604D02*
X142080693Y-42128504D01*
X140512707Y-43696490D02*
X139597585Y-43696490D01*
X142080693Y-42128504D02*
X140512707Y-43696490D01*
%TO.N,Net-(D62-Pad2)*%
X134397585Y-42196490D02*
X133148107Y-42196490D01*
X133148107Y-42196490D02*
X132708093Y-42636504D01*
X132708093Y-42636504D02*
X132708093Y-47208504D01*
X132708093Y-47208504D02*
X134651193Y-49151604D01*
X134651193Y-49151604D02*
X134651193Y-49659604D01*
X136531076Y-51539487D02*
X136531076Y-51552187D01*
X134651193Y-49659604D02*
X136531076Y-51539487D01*
X137435593Y-57055406D02*
X137432493Y-57058506D01*
X137435593Y-52847021D02*
X137435593Y-57055406D01*
X137432493Y-57058506D02*
X137432493Y-57393904D01*
X137432493Y-57393904D02*
X138219893Y-58181304D01*
X139333955Y-58181304D02*
X141039293Y-59886642D01*
X138219893Y-58181304D02*
X139333955Y-58181304D01*
X140397585Y-62696489D02*
X139597585Y-62696489D01*
X141039293Y-62054781D02*
X140397585Y-62696489D01*
X141039293Y-59886642D02*
X141039293Y-62054781D01*
%TO.N,Net-(D63-Pad2)*%
X77397587Y-77696487D02*
X77397587Y-72940710D01*
X77397587Y-72940710D02*
X80625393Y-69712904D01*
X80625393Y-69712904D02*
X80625393Y-67744404D01*
X80625393Y-67744404D02*
X82822493Y-65547304D01*
X82822493Y-60421393D02*
X82597588Y-60196488D01*
X82822493Y-65547304D02*
X82822493Y-60421393D01*
%TO.N,Net-(D64-Pad2)*%
X134273155Y-61196489D02*
X133859340Y-61610304D01*
X134397585Y-61196489D02*
X134273155Y-61196489D01*
X133859340Y-61610304D02*
X133406593Y-61610304D01*
X132796993Y-62858442D02*
X133089093Y-63150542D01*
X132796993Y-62219904D02*
X132796993Y-62858442D01*
X133406593Y-61610304D02*
X132796993Y-62219904D01*
X133089093Y-63150542D02*
X133089093Y-66931604D01*
X136594293Y-70436804D02*
X136733993Y-70436804D01*
X133089093Y-66931604D02*
X136594293Y-70436804D01*
X137359393Y-71992271D02*
X137359393Y-76301104D01*
X137359393Y-76301104D02*
X138070592Y-77012303D01*
X139991254Y-77012303D02*
X141064693Y-78085742D01*
X138070592Y-77012303D02*
X139991254Y-77012303D01*
X140397585Y-81696488D02*
X139597585Y-81696488D01*
X141064693Y-81029380D02*
X140397585Y-81696488D01*
X141064693Y-78085742D02*
X141064693Y-81029380D01*
%TO.N,Net-(D65-Pad2)*%
X77397588Y-58696488D02*
X77397588Y-53382709D01*
X77397588Y-53382709D02*
X80472993Y-50307304D01*
X80472993Y-50307304D02*
X80472993Y-49151604D01*
X80472993Y-49151604D02*
X82187493Y-47437104D01*
X82187493Y-47437104D02*
X82187493Y-47005304D01*
X82187493Y-47005304D02*
X82860593Y-46332204D01*
X82860593Y-46332204D02*
X82873293Y-46332204D01*
X82873293Y-46332204D02*
X84257593Y-44947904D01*
X84257593Y-42856494D02*
X82597588Y-41196489D01*
X84257593Y-44947904D02*
X84257593Y-42856494D01*
%TO.N,Net-(D66-Pad2)*%
X132666477Y-80196488D02*
X132647693Y-80177704D01*
X134397585Y-80196488D02*
X132666477Y-80196488D01*
X129939493Y-80355504D02*
X129063193Y-81231804D01*
X130647593Y-80355504D02*
X129939493Y-80355504D01*
X124224493Y-93893704D02*
X124033993Y-94084204D01*
X124224493Y-81231804D02*
X124224493Y-93893704D01*
X111041893Y-94033404D02*
X111041893Y-99011804D01*
X110669292Y-99384405D02*
X107678593Y-99384405D01*
X111041893Y-99011804D02*
X110669292Y-99384405D01*
%TO.N,Net-(D67-Pad2)*%
X77397588Y-38465871D02*
X77932993Y-37930466D01*
X77397588Y-39696489D02*
X77397588Y-38465871D01*
X86213393Y-37683504D02*
X86213393Y-44185904D01*
X101597587Y-36891610D02*
X101597587Y-36196489D01*
X100767593Y-37721604D02*
X101597587Y-36891610D01*
X97775913Y-37721604D02*
X100767593Y-37721604D01*
X96933102Y-38564415D02*
X97775913Y-37721604D01*
%TO.N,Net-(D68-Pad2)*%
X102478593Y-95970404D02*
X102748793Y-95700204D01*
X102478593Y-97884405D02*
X102478593Y-95970404D01*
X132492193Y-98313304D02*
X132492193Y-101818504D01*
X132492193Y-101818504D02*
X131552393Y-102758304D01*
X130206350Y-102758304D02*
X129276071Y-101828025D01*
X131552393Y-102758304D02*
X130206350Y-102758304D01*
%TO.N,Net-(D69-Pad2)*%
X96397587Y-32630798D02*
X96386093Y-32619304D01*
X96397587Y-34696489D02*
X96397587Y-32630798D01*
X102761809Y-55196488D02*
X101597587Y-55196488D01*
X104517194Y-53441103D02*
X102761809Y-55196488D01*
X104517194Y-42106205D02*
X104517194Y-53441103D01*
X104069593Y-41658604D02*
X104517194Y-42106205D01*
X104069593Y-32717804D02*
X104069593Y-41658604D01*
%TO.N,Net-(D70-Pad2)*%
X96397587Y-53696488D02*
X96397587Y-53026310D01*
X96397587Y-53026310D02*
X96397587Y-52556410D01*
X98240293Y-50713704D02*
X100665993Y-50713704D01*
X96397587Y-52556410D02*
X98240293Y-50713704D01*
X111397493Y-74615104D02*
X111054425Y-74958172D01*
X111397493Y-49075404D02*
X111397493Y-74615104D01*
X101724102Y-74323004D02*
X101597586Y-74196488D01*
X103536193Y-74323004D02*
X101724102Y-74323004D01*
%TO.N,Net-(D71-Pad2)*%
X124415543Y-96839555D02*
X124525592Y-96729506D01*
X124415543Y-99447843D02*
X124415543Y-96839555D01*
X152266093Y-101120004D02*
X152266093Y-107927204D01*
X152266093Y-107927204D02*
X151605693Y-108587604D01*
X150863527Y-108587604D02*
X150172263Y-107896340D01*
X151605693Y-108587604D02*
X150863527Y-108587604D01*
%TO.N,RESET*%
X151098893Y-89409404D02*
X150068993Y-90439304D01*
X151893593Y-89409404D02*
X151098893Y-89409404D01*
X150068993Y-90439304D02*
X150068993Y-88369204D01*
X150956093Y-87482104D02*
X150956093Y-86540404D01*
X150068993Y-88369204D02*
X150956093Y-87482104D01*
X106609593Y-40058404D02*
X108692393Y-40058404D01*
X110470393Y-41836404D02*
X110470393Y-44058904D01*
X108692393Y-40058404D02*
X110470393Y-41836404D01*
X145700193Y-48592804D02*
X145700193Y-59629104D01*
X145700193Y-59629104D02*
X147122593Y-61051504D01*
X147122593Y-61051504D02*
X147122593Y-79555404D01*
X147122593Y-79555404D02*
X150956093Y-83388904D01*
X150956093Y-83388904D02*
X150956093Y-86540404D01*
%TO.N,col0*%
X58457589Y-63106487D02*
X56152493Y-65411583D01*
X56152493Y-78531390D02*
X57187589Y-79566486D01*
X56152493Y-65411583D02*
X56152493Y-78531390D01*
X58457589Y-82106486D02*
X56355693Y-84208382D01*
X56355693Y-97734590D02*
X57187588Y-98566485D01*
X56355693Y-84208382D02*
X56355693Y-97734590D01*
X91369593Y-37518404D02*
X89794793Y-37518404D01*
X88308893Y-39004304D02*
X88308893Y-46344904D01*
X89794793Y-37518404D02*
X88308893Y-39004304D01*
%TO.N,col1*%
X77457588Y-50606488D02*
X74999293Y-53064783D01*
X74999293Y-65878192D02*
X76187588Y-67066487D01*
X74999293Y-53064783D02*
X74999293Y-65878192D01*
X77457587Y-88909398D02*
X77457587Y-88606486D01*
X76241593Y-89822480D02*
X77457587Y-88606486D01*
X74999293Y-84878192D02*
X76187587Y-86066486D01*
X77457588Y-69606487D02*
X74999293Y-72064782D01*
X74999293Y-72064782D02*
X74999293Y-84878192D01*
X76241593Y-96431404D02*
X76241593Y-89822480D01*
X76241593Y-101693404D02*
X76241593Y-96431404D01*
%TO.N,col2*%
X96457586Y-83606487D02*
X96457586Y-90993397D01*
X96457586Y-90993397D02*
X99014993Y-93550804D01*
X99014993Y-93550804D02*
X99014993Y-102161404D01*
X101268593Y-104415004D02*
X101268593Y-106254404D01*
X99014993Y-102161404D02*
X101268593Y-104415004D01*
X93960393Y-79839294D02*
X95187586Y-81066487D01*
X95187587Y-62066487D02*
X95187587Y-59700598D01*
X95187587Y-59700598D02*
X94176293Y-58689304D01*
X94176293Y-47887782D02*
X96457587Y-45606488D01*
X96457587Y-64606487D02*
X94913910Y-64606487D01*
X94913910Y-64606487D02*
X92715793Y-66804604D01*
X92715793Y-78594694D02*
X93960393Y-79839294D01*
X92715793Y-66804604D02*
X92715793Y-78594694D01*
X94176293Y-53215604D02*
X94176293Y-47887782D01*
X94176293Y-58689304D02*
X94176293Y-53215604D01*
%TO.N,col3*%
X115457586Y-50606488D02*
X112756393Y-53307681D01*
X112756393Y-65635294D02*
X114187586Y-67066487D01*
X112756393Y-53307681D02*
X112756393Y-65635294D01*
X115457586Y-69606487D02*
X112629393Y-72434680D01*
X112629393Y-84508294D02*
X114187586Y-86066487D01*
X112629393Y-72434680D02*
X112629393Y-84508294D01*
X115457586Y-88606487D02*
X120643093Y-93791994D01*
X120643093Y-93791994D02*
X120643093Y-103139304D01*
X121770490Y-104266701D02*
X121770490Y-107480568D01*
X120643093Y-103139304D02*
X121770490Y-104266701D01*
X107892293Y-55298404D02*
X110203693Y-52987004D01*
X106609593Y-55298404D02*
X107892293Y-55298404D01*
%TO.N,col4*%
X141799155Y-112159679D02*
X141799155Y-102362466D01*
X134457585Y-95020896D02*
X134457585Y-91106487D01*
X133187585Y-69566488D02*
X131298393Y-67677296D01*
X131298393Y-56265681D02*
X134457585Y-53106489D01*
X131298393Y-67677296D02*
X131298393Y-56265681D01*
X109919475Y-60975304D02*
X109919475Y-70109704D01*
X131374593Y-74399204D02*
X131571726Y-74202071D01*
X131374593Y-86753495D02*
X131374593Y-74399204D01*
X133187585Y-88566487D02*
X131374593Y-86753495D01*
X131571726Y-74202071D02*
X133216093Y-72557704D01*
X134006369Y-72557704D02*
X134457585Y-72106488D01*
X133216093Y-72557704D02*
X134006369Y-72557704D01*
X134457585Y-95020896D02*
X134457585Y-96735396D01*
X136454593Y-98732404D02*
X136454593Y-102288404D01*
X134457585Y-96735396D02*
X136454593Y-98732404D01*
%TO.N,sda*%
X85768893Y-45506704D02*
X85768893Y-50408904D01*
X85768893Y-50408904D02*
X84346493Y-51831304D01*
X84346493Y-61838904D02*
X86073693Y-63566104D01*
X84346493Y-51831304D02*
X84346493Y-61838904D01*
X86073693Y-81231804D02*
X86137193Y-81295304D01*
X86073693Y-63566104D02*
X86073693Y-81231804D01*
X145065193Y-64696404D02*
X145547793Y-64213804D01*
X145065193Y-83759104D02*
X145065193Y-64696404D01*
%TO.N,scl*%
X88197693Y-65690104D02*
X88283493Y-65775904D01*
X88197693Y-47640304D02*
X88197693Y-65690104D01*
%TO.N,ENC1B*%
X80614593Y-101994404D02*
X80828593Y-101780404D01*
X80614593Y-111312404D02*
X80614593Y-101994404D01*
%TO.N,ENC1A*%
X85614593Y-106900404D02*
X85908593Y-106606404D01*
X85614593Y-111312404D02*
X85614593Y-106900404D01*
%TO.N,data*%
X112146793Y-50624804D02*
X112235693Y-50713704D01*
X112146793Y-45481304D02*
X112146793Y-50624804D01*
X143515793Y-47411704D02*
X144493693Y-46433804D01*
X143515793Y-54993604D02*
X143515793Y-47411704D01*
%TO.N,Net-(D39-Pad4)*%
X96397586Y-71050711D02*
X96424193Y-71024104D01*
X96397586Y-72696488D02*
X96397586Y-71050711D01*
X108031993Y-71846504D02*
X109105311Y-70773186D01*
X107930393Y-71846504D02*
X108031993Y-71846504D01*
X122738593Y-74104004D02*
X122738593Y-77855481D01*
X121397586Y-79196488D02*
X120597586Y-79196488D01*
X122738593Y-77855481D02*
X121397586Y-79196488D01*
%TD*%
M02*
