%TF.GenerationSoftware,KiCad,Pcbnew,7.0.8*%
%TF.CreationDate,2023-11-08T13:39:32-05:00*%
%TF.ProjectId,bgkeeb,62676b65-6562-42e6-9b69-6361645f7063,rev?*%
%TF.SameCoordinates,Original*%
%TF.FileFunction,Copper,L1,Top*%
%TF.FilePolarity,Positive*%
%FSLAX46Y46*%
G04 Gerber Fmt 4.6, Leading zero omitted, Abs format (unit mm)*
G04 Created by KiCad (PCBNEW 7.0.8) date 2023-11-08 13:39:32*
%MOMM*%
%LPD*%
G01*
G04 APERTURE LIST*
G04 Aperture macros list*
%AMRoundRect*
0 Rectangle with rounded corners*
0 $1 Rounding radius*
0 $2 $3 $4 $5 $6 $7 $8 $9 X,Y pos of 4 corners*
0 Add a 4 corners polygon primitive as box body*
4,1,4,$2,$3,$4,$5,$6,$7,$8,$9,$2,$3,0*
0 Add four circle primitives for the rounded corners*
1,1,$1+$1,$2,$3*
1,1,$1+$1,$4,$5*
1,1,$1+$1,$6,$7*
1,1,$1+$1,$8,$9*
0 Add four rect primitives between the rounded corners*
20,1,$1+$1,$2,$3,$4,$5,0*
20,1,$1+$1,$4,$5,$6,$7,0*
20,1,$1+$1,$6,$7,$8,$9,0*
20,1,$1+$1,$8,$9,$2,$3,0*%
%AMRotRect*
0 Rectangle, with rotation*
0 The origin of the aperture is its center*
0 $1 length*
0 $2 width*
0 $3 Rotation angle, in degrees counterclockwise*
0 Add horizontal line*
21,1,$1,$2,0,0,$3*%
G04 Aperture macros list end*
%TA.AperFunction,SMDPad,CuDef*%
%ADD10RoundRect,0.250000X-0.262500X-0.450000X0.262500X-0.450000X0.262500X0.450000X-0.262500X0.450000X0*%
%TD*%
%TA.AperFunction,ComponentPad*%
%ADD11C,2.032000*%
%TD*%
%TA.AperFunction,SMDPad,CuDef*%
%ADD12R,1.100000X1.800000*%
%TD*%
%TA.AperFunction,ComponentPad*%
%ADD13R,1.752600X1.752600*%
%TD*%
%TA.AperFunction,ComponentPad*%
%ADD14C,1.752600*%
%TD*%
%TA.AperFunction,ComponentPad*%
%ADD15R,2.000000X2.000000*%
%TD*%
%TA.AperFunction,ComponentPad*%
%ADD16C,2.000000*%
%TD*%
%TA.AperFunction,ComponentPad*%
%ADD17O,1.600000X2.000000*%
%TD*%
%TA.AperFunction,SMDPad,CuDef*%
%ADD18R,1.200000X0.900000*%
%TD*%
%TA.AperFunction,SMDPad,CuDef*%
%ADD19R,0.900000X1.200000*%
%TD*%
%TA.AperFunction,SMDPad,CuDef*%
%ADD20RotRect,0.900000X1.200000X80.000000*%
%TD*%
%TA.AperFunction,SMDPad,CuDef*%
%ADD21RotRect,0.900000X1.200000X340.000000*%
%TD*%
%TA.AperFunction,ComponentPad*%
%ADD22RoundRect,0.250000X-0.625000X0.350000X-0.625000X-0.350000X0.625000X-0.350000X0.625000X0.350000X0*%
%TD*%
%TA.AperFunction,ComponentPad*%
%ADD23O,1.750000X1.200000*%
%TD*%
%TA.AperFunction,SMDPad,CuDef*%
%ADD24R,0.800000X1.000000*%
%TD*%
%TA.AperFunction,WasherPad*%
%ADD25C,1.100000*%
%TD*%
%TA.AperFunction,SMDPad,CuDef*%
%ADD26R,1.500000X0.700000*%
%TD*%
%TA.AperFunction,ComponentPad*%
%ADD27RoundRect,0.425000X0.675000X0.425000X-0.675000X0.425000X-0.675000X-0.425000X0.675000X-0.425000X0*%
%TD*%
%TA.AperFunction,ComponentPad*%
%ADD28RoundRect,0.425000X0.675000X-0.425000X0.675000X0.425000X-0.675000X0.425000X-0.675000X-0.425000X0*%
%TD*%
%TA.AperFunction,SMDPad,CuDef*%
%ADD29RoundRect,0.082000X0.718000X-0.328000X0.718000X0.328000X-0.718000X0.328000X-0.718000X-0.328000X0*%
%TD*%
%TA.AperFunction,SMDPad,CuDef*%
%ADD30RoundRect,0.082000X0.650135X-0.447696X0.764049X0.198338X-0.650135X0.447696X-0.764049X-0.198338X0*%
%TD*%
%TA.AperFunction,SMDPad,CuDef*%
%ADD31RoundRect,0.082000X0.562517X-0.553790X0.786882X0.062649X-0.562517X0.553790X-0.786882X-0.062649X0*%
%TD*%
%TA.AperFunction,ViaPad*%
%ADD32C,0.800000*%
%TD*%
%TA.AperFunction,Conductor*%
%ADD33C,0.381000*%
%TD*%
%TA.AperFunction,Conductor*%
%ADD34C,0.400000*%
%TD*%
%TA.AperFunction,Conductor*%
%ADD35C,0.254000*%
%TD*%
G04 APERTURE END LIST*
D10*
%TO.P,R4,1*%
%TO.N,+5V*%
X149131093Y-86540404D03*
%TO.P,R4,2*%
%TO.N,RESET*%
X150956093Y-86540404D03*
%TD*%
D11*
%TO.P,SW2,1,1*%
%TO.N,Net-(D10-A)*%
X79997588Y-51426488D03*
%TO.P,SW2,2,2*%
%TO.N,col1*%
X74997588Y-49326488D03*
X84997588Y-49326488D03*
%TD*%
%TO.P,SW3,1,1*%
%TO.N,Net-(D18-A)*%
X98997587Y-46426488D03*
%TO.P,SW3,2,2*%
%TO.N,col2*%
X93997587Y-44326488D03*
X103997587Y-44326488D03*
%TD*%
%TO.P,SW4,1,1*%
%TO.N,Net-(D27-A)*%
X117997586Y-51426488D03*
%TO.P,SW4,2,2*%
%TO.N,col3*%
X112997586Y-49326488D03*
X122997586Y-49326488D03*
%TD*%
%TO.P,SW5,1,1*%
%TO.N,Net-(D31-A)*%
X136997585Y-53926489D03*
%TO.P,SW5,2,2*%
%TO.N,col4*%
X131997585Y-51826489D03*
X141997585Y-51826489D03*
%TD*%
%TO.P,SW11,1,1*%
%TO.N,Net-(D11-A)*%
X60997589Y-82926486D03*
%TO.P,SW11,2,2*%
%TO.N,col0*%
X55997589Y-80826486D03*
X65997589Y-80826486D03*
%TD*%
%TO.P,SW12,1,1*%
%TO.N,Net-(D12-A)*%
X79997588Y-70426487D03*
%TO.P,SW12,2,2*%
%TO.N,col1*%
X74997588Y-68326487D03*
X84997588Y-68326487D03*
%TD*%
%TO.P,SW13,1,1*%
%TO.N,Net-(D13-A)*%
X98997587Y-65426487D03*
%TO.P,SW13,2,2*%
%TO.N,col2*%
X93997587Y-63326487D03*
X103997587Y-63326487D03*
%TD*%
%TO.P,SW14,1,1*%
%TO.N,Net-(D14-A)*%
X117997586Y-70426487D03*
%TO.P,SW14,2,2*%
%TO.N,col3*%
X112997586Y-68326487D03*
X122997586Y-68326487D03*
%TD*%
%TO.P,SW15,1,1*%
%TO.N,Net-(D15-A)*%
X136997585Y-72926488D03*
%TO.P,SW15,2,2*%
%TO.N,col4*%
X131997585Y-70826488D03*
X141997585Y-70826488D03*
%TD*%
%TO.P,SW21,1,1*%
%TO.N,Net-(D21-A)*%
X60997588Y-101926485D03*
%TO.P,SW21,2,2*%
%TO.N,col0*%
X55997588Y-99826485D03*
X65997588Y-99826485D03*
%TD*%
%TO.P,SW22,1,1*%
%TO.N,Net-(D17-A)*%
X79997587Y-89426486D03*
%TO.P,SW22,2,2*%
%TO.N,col1*%
X74997587Y-87326486D03*
X84997587Y-87326486D03*
%TD*%
%TO.P,SW23,1,1*%
%TO.N,Net-(D20-A)*%
X98997586Y-84426487D03*
%TO.P,SW23,2,2*%
%TO.N,col2*%
X93997586Y-82326487D03*
X103997586Y-82326487D03*
%TD*%
%TO.P,SW24,1,1*%
%TO.N,Net-(D24-A)*%
X117997586Y-89426487D03*
%TO.P,SW24,2,2*%
%TO.N,col3*%
X112997586Y-87326487D03*
X122997586Y-87326487D03*
%TD*%
%TO.P,SW25,1,1*%
%TO.N,Net-(D25-A)*%
X136997585Y-91926487D03*
%TO.P,SW25,2,2*%
%TO.N,col4*%
X131997585Y-89826487D03*
X141997585Y-89826487D03*
%TD*%
%TO.P,SW34,1,1*%
%TO.N,Net-(D30-A)*%
X124939150Y-111451122D03*
%TO.P,SW34,2,2*%
%TO.N,col3*%
X120379772Y-108514785D03*
X130227850Y-110251266D03*
%TD*%
%TO.P,SW35,1,1*%
%TO.N,Net-(D35-A)*%
X144230196Y-116620142D03*
%TO.P,SW35,2,2*%
%TO.N,col4*%
X140249975Y-112936687D03*
X149646902Y-116356889D03*
%TD*%
D12*
%TO.P,SW41,1,1*%
%TO.N,GND*%
X148193593Y-95609404D03*
%TO.P,SW41,2,2*%
%TO.N,RESET*%
X151893593Y-89409404D03*
%TO.P,SW41,3*%
%TO.N,N/C*%
X151893593Y-95609404D03*
%TO.P,SW41,4*%
X148193593Y-89409404D03*
%TD*%
D11*
%TO.P,SW1,1,1*%
%TO.N,Net-(D1-A)*%
X60997589Y-63926487D03*
%TO.P,SW1,2,2*%
%TO.N,col0*%
X55997589Y-61826487D03*
X65997589Y-61826487D03*
%TD*%
D13*
%TO.P,U1,1,TX0/PD3*%
%TO.N,led*%
X91369593Y-34978404D03*
D14*
%TO.P,U1,2,RX1/PD2*%
%TO.N,data*%
X91369593Y-37518404D03*
%TO.P,U1,3,GND*%
%TO.N,GND*%
X91369593Y-40058404D03*
%TO.P,U1,4,GND*%
X91369593Y-42598404D03*
%TO.P,U1,5,2/PD1*%
%TO.N,sda*%
X91369593Y-45138404D03*
%TO.P,U1,6,3/PD0*%
%TO.N,scl*%
X91369593Y-47678404D03*
%TO.P,U1,7,4/PD4*%
%TO.N,col1*%
X91369593Y-50218404D03*
%TO.P,U1,8,5/PC6*%
%TO.N,unconnected-(U1-5{slash}PC6-Pad8)*%
X91369593Y-52758404D03*
%TO.P,U1,9,6/PD7*%
%TO.N,row1*%
X91369593Y-55298404D03*
%TO.P,U1,10,7/PE6*%
%TO.N,row3*%
X91369593Y-57838404D03*
%TO.P,U1,11,8/PB4*%
%TO.N,ENC1A*%
X91369593Y-60378404D03*
%TO.P,U1,12,9/PB5*%
%TO.N,ENC1B*%
X91369593Y-62918404D03*
%TO.P,U1,13,10/PB6*%
%TO.N,unconnected-(U1-10{slash}PB6-Pad13)*%
X106609593Y-62918404D03*
%TO.P,U1,14,16/PB2*%
%TO.N,col4*%
X106609593Y-60378404D03*
%TO.P,U1,15,14/PB3*%
%TO.N,row2*%
X106609593Y-57838404D03*
%TO.P,U1,16,15/PB1*%
%TO.N,col3*%
X106609593Y-55298404D03*
%TO.P,U1,17,A0/PF7*%
%TO.N,unconnected-(U1-A0{slash}PF7-Pad17)*%
X106609593Y-52758404D03*
%TO.P,U1,18,A1/PF6*%
%TO.N,row0*%
X106609593Y-50218404D03*
%TO.P,U1,19,A2/PF5*%
%TO.N,col2*%
X106609593Y-47678404D03*
%TO.P,U1,20,A3/PF4*%
%TO.N,col0*%
X106609593Y-45138404D03*
%TO.P,U1,21,VCC*%
%TO.N,+5V*%
X106609593Y-42598404D03*
%TO.P,U1,22,RST*%
%TO.N,RESET*%
X106609593Y-40058404D03*
%TO.P,U1,23,GND*%
%TO.N,GND*%
X106609593Y-37518404D03*
%TO.P,U1,24,RAW*%
%TO.N,raw*%
X106609593Y-34978404D03*
%TD*%
D15*
%TO.P,SW42,A,A*%
%TO.N,ENC1A*%
X90741593Y-106693404D03*
D16*
%TO.P,SW42,B,B*%
%TO.N,ENC1B*%
X90741593Y-101693404D03*
%TO.P,SW42,C,C*%
%TO.N,GND*%
X90741593Y-104193404D03*
%TO.P,SW42,S1,S1*%
%TO.N,col1*%
X76241593Y-101693404D03*
%TO.P,SW42,S2,S2*%
%TO.N,Net-(D37-A)*%
X76241593Y-106693404D03*
%TD*%
D11*
%TO.P,SW6,1,1*%
%TO.N,Net-(D26-A)*%
X105078593Y-109614404D03*
%TO.P,SW6,2,2*%
%TO.N,col2*%
X100078593Y-107514404D03*
X110078593Y-107514404D03*
%TD*%
D17*
%TO.P,U3,1,SLEEVE*%
%TO.N,GND*%
X147540393Y-51739404D03*
%TO.P,U3,2,TIP*%
X152140393Y-50639404D03*
%TO.P,U3,3,RING1*%
%TO.N,data*%
X152140393Y-46639404D03*
%TO.P,U3,4,RING2*%
%TO.N,+5V*%
X152140393Y-43639404D03*
%TD*%
D18*
%TO.P,D7,1,K*%
%TO.N,row0*%
X69665293Y-63857204D03*
%TO.P,D7,2,A*%
%TO.N,Net-(D1-A)*%
X69665293Y-60557204D03*
%TD*%
%TO.P,D8,1,K*%
%TO.N,row1*%
X69677993Y-82869104D03*
%TO.P,D8,2,A*%
%TO.N,Net-(D11-A)*%
X69677993Y-79569104D03*
%TD*%
%TO.P,D9,1,K*%
%TO.N,row2*%
X69779593Y-101919104D03*
%TO.P,D9,2,A*%
%TO.N,Net-(D21-A)*%
X69779593Y-98619104D03*
%TD*%
D19*
%TO.P,D10,1,K*%
%TO.N,row0*%
X85818693Y-54168104D03*
%TO.P,D10,2,A*%
%TO.N,Net-(D10-A)*%
X82518693Y-54168104D03*
%TD*%
D18*
%TO.P,D16,1,K*%
%TO.N,row1*%
X88677193Y-70359604D03*
%TO.P,D16,2,A*%
%TO.N,Net-(D12-A)*%
X88677193Y-67059604D03*
%TD*%
%TO.P,D17,1,K*%
%TO.N,row2*%
X88613693Y-89371504D03*
%TO.P,D17,2,A*%
%TO.N,Net-(D17-A)*%
X88613693Y-86071504D03*
%TD*%
D19*
%TO.P,D18,1,K*%
%TO.N,row0*%
X97326893Y-49100804D03*
%TO.P,D18,2,A*%
%TO.N,Net-(D18-A)*%
X100626893Y-49100804D03*
%TD*%
%TO.P,D19,1,K*%
%TO.N,row1*%
X97631693Y-68201604D03*
%TO.P,D19,2,A*%
%TO.N,Net-(D13-A)*%
X100931693Y-68201604D03*
%TD*%
D18*
%TO.P,D20,1,K*%
%TO.N,row2*%
X107752593Y-84367704D03*
%TO.P,D20,2,A*%
%TO.N,Net-(D20-A)*%
X107752593Y-81067704D03*
%TD*%
D19*
%TO.P,D26,1,K*%
%TO.N,row3*%
X104222993Y-112118204D03*
%TO.P,D26,2,A*%
%TO.N,Net-(D26-A)*%
X107522993Y-112118204D03*
%TD*%
D18*
%TO.P,D27,1,K*%
%TO.N,row0*%
X126726393Y-52160504D03*
%TO.P,D27,2,A*%
%TO.N,Net-(D27-A)*%
X126726393Y-48860504D03*
%TD*%
%TO.P,D28,1,K*%
%TO.N,row1*%
X126802593Y-70448504D03*
%TO.P,D28,2,A*%
%TO.N,Net-(D14-A)*%
X126802593Y-67148504D03*
%TD*%
%TO.P,D29,1,K*%
%TO.N,row2*%
X126739093Y-89396904D03*
%TO.P,D29,2,A*%
%TO.N,Net-(D24-A)*%
X126739093Y-86096904D03*
%TD*%
D20*
%TO.P,D30,1,K*%
%TO.N,row3*%
X133374074Y-112790637D03*
%TO.P,D30,2,A*%
%TO.N,Net-(D30-A)*%
X133947112Y-109540771D03*
%TD*%
D19*
%TO.P,D31,1,K*%
%TO.N,row0*%
X135452293Y-56733504D03*
%TO.P,D31,2,A*%
%TO.N,Net-(D31-A)*%
X138752293Y-56733504D03*
%TD*%
%TO.P,D32,1,K*%
%TO.N,row1*%
X135477693Y-75694604D03*
%TO.P,D32,2,A*%
%TO.N,Net-(D15-A)*%
X138777693Y-75694604D03*
%TD*%
%TO.P,D33,1,K*%
%TO.N,row2*%
X135757093Y-94693804D03*
%TO.P,D33,2,A*%
%TO.N,Net-(D25-A)*%
X139057093Y-94693804D03*
%TD*%
D21*
%TO.P,D36,1,K*%
%TO.N,row3*%
X142778100Y-118424571D03*
%TO.P,D36,2,A*%
%TO.N,Net-(D35-A)*%
X145879086Y-119553237D03*
%TD*%
D18*
%TO.P,D37,1,K*%
%TO.N,row3*%
X72192593Y-111558404D03*
%TO.P,D37,2,A*%
%TO.N,Net-(D37-A)*%
X72192593Y-108258404D03*
%TD*%
D22*
%TO.P,BATJ1,1,Pin_1*%
%TO.N,BT+*%
X150486993Y-78800004D03*
X150486993Y-82800004D03*
D23*
%TO.P,BATJ1,2,Pin_2*%
%TO.N,GND*%
X150486993Y-80800004D03*
%TD*%
D24*
%TO.P,SW_POWER1,*%
%TO.N,*%
X150373793Y-75349204D03*
X152583793Y-75349204D03*
D25*
X151415793Y-73281204D03*
X151415793Y-70281204D03*
D24*
X150373793Y-68049204D03*
X152583793Y-68049204D03*
D26*
%TO.P,SW_POWER1,1,A*%
%TO.N,unconnected-(SW_POWER1-A-Pad1)*%
X149723793Y-73949204D03*
%TO.P,SW_POWER1,2,B*%
%TO.N,BT+*%
X149723793Y-70949204D03*
%TO.P,SW_POWER1,3,C*%
%TO.N,raw*%
X149723793Y-69449204D03*
%TD*%
D27*
%TO.P,J1,1,Pin_1*%
%TO.N,+5V*%
X151745393Y-55577804D03*
D28*
%TO.P,J1,2,Pin_2*%
%TO.N,sda*%
X151745393Y-58117804D03*
%TO.P,J1,3,Pin_3*%
%TO.N,scl*%
X151745393Y-60657804D03*
%TO.P,J1,4,Pin_4*%
%TO.N,unconnected-(J1-Pin_4-Pad4)*%
X151745393Y-63197804D03*
%TO.P,J1,5,Pin_5*%
%TO.N,GND*%
X151745393Y-65737804D03*
%TD*%
D17*
%TO.P,U4,1,SLEEVE*%
%TO.N,GND*%
X152151793Y-51767804D03*
%TO.P,U4,2,TIP*%
X147551793Y-50667804D03*
%TO.P,U4,3,RING1*%
%TO.N,data*%
X147551793Y-46667804D03*
%TO.P,U4,4,RING2*%
%TO.N,+5V*%
X147551793Y-43667804D03*
%TD*%
D15*
%TO.P,SW7,A,A*%
%TO.N,ENC1A*%
X85614593Y-111312404D03*
D16*
%TO.P,SW7,B,B*%
%TO.N,ENC1B*%
X80614593Y-111312404D03*
%TO.P,SW7,C,C*%
%TO.N,GND*%
X83114593Y-111312404D03*
%TO.P,SW7,S1,S1*%
%TO.N,col1*%
X80614593Y-96812404D03*
%TO.P,SW7,S2,S2*%
%TO.N,Net-(D37-A)*%
X85614593Y-96812404D03*
%TD*%
D29*
%TO.P,D38,1,VDD*%
%TO.N,+5V*%
X58397589Y-53696488D03*
%TO.P,D38,2,DOUT*%
%TO.N,Net-(D38-DOUT)*%
X58397589Y-52196488D03*
%TO.P,D38,3,VSS*%
%TO.N,GND*%
X63597589Y-52196488D03*
%TO.P,D38,4,DIN*%
%TO.N,led*%
X63597589Y-53696488D03*
%TD*%
%TO.P,D39,1,VDD*%
%TO.N,+5V*%
X115397586Y-79196488D03*
%TO.P,D39,2,DOUT*%
%TO.N,Net-(D39-DOUT)*%
X115397586Y-77696488D03*
%TO.P,D39,3,VSS*%
%TO.N,GND*%
X120597586Y-77696488D03*
%TO.P,D39,4,DIN*%
%TO.N,Net-(D39-DIN)*%
X120597586Y-79196488D03*
%TD*%
%TO.P,D40,1,VDD*%
%TO.N,+5V*%
X58397589Y-72696487D03*
%TO.P,D40,2,DOUT*%
%TO.N,Net-(D40-DOUT)*%
X58397589Y-71196487D03*
%TO.P,D40,3,VSS*%
%TO.N,GND*%
X63597589Y-71196487D03*
%TO.P,D40,4,DIN*%
%TO.N,Net-(D38-DOUT)*%
X63597589Y-72696487D03*
%TD*%
%TO.P,D44,1,VDD*%
%TO.N,+5V*%
X115397586Y-60196488D03*
%TO.P,D44,2,DOUT*%
%TO.N,Net-(D44-DOUT)*%
X115397586Y-58696488D03*
%TO.P,D44,3,VSS*%
%TO.N,GND*%
X120597586Y-58696488D03*
%TO.P,D44,4,DIN*%
%TO.N,Net-(D39-DOUT)*%
X120597586Y-60196488D03*
%TD*%
%TO.P,D58,1,VDD*%
%TO.N,+5V*%
X58397588Y-91696486D03*
%TO.P,D58,2,DOUT*%
%TO.N,Net-(D58-DOUT)*%
X58397588Y-90196486D03*
%TO.P,D58,3,VSS*%
%TO.N,GND*%
X63597588Y-90196486D03*
%TO.P,D58,4,DIN*%
%TO.N,Net-(D40-DOUT)*%
X63597588Y-91696486D03*
%TD*%
%TO.P,D61,1,VDD*%
%TO.N,+5V*%
X115397586Y-41196489D03*
%TO.P,D61,2,DOUT*%
%TO.N,Net-(D61-DOUT)*%
X115397586Y-39696489D03*
%TO.P,D61,3,VSS*%
%TO.N,GND*%
X120597586Y-39696489D03*
%TO.P,D61,4,DIN*%
%TO.N,Net-(D44-DOUT)*%
X120597586Y-41196489D03*
%TD*%
%TO.P,D62,1,VDD*%
%TO.N,+5V*%
X134397585Y-43696490D03*
%TO.P,D62,2,DOUT*%
%TO.N,Net-(D62-DOUT)*%
X134397585Y-42196490D03*
%TO.P,D62,3,VSS*%
%TO.N,GND*%
X139597585Y-42196490D03*
%TO.P,D62,4,DIN*%
%TO.N,Net-(D61-DOUT)*%
X139597585Y-43696490D03*
%TD*%
%TO.P,D63,1,VDD*%
%TO.N,+5V*%
X77397587Y-79196487D03*
%TO.P,D63,2,DOUT*%
%TO.N,Net-(D63-DOUT)*%
X77397587Y-77696487D03*
%TO.P,D63,3,VSS*%
%TO.N,GND*%
X82597587Y-77696487D03*
%TO.P,D63,4,DIN*%
%TO.N,Net-(D58-DOUT)*%
X82597587Y-79196487D03*
%TD*%
%TO.P,D64,1,VDD*%
%TO.N,+5V*%
X134397585Y-62696489D03*
%TO.P,D64,2,DOUT*%
%TO.N,Net-(D64-DOUT)*%
X134397585Y-61196489D03*
%TO.P,D64,3,VSS*%
%TO.N,GND*%
X139597585Y-61196489D03*
%TO.P,D64,4,DIN*%
%TO.N,Net-(D62-DOUT)*%
X139597585Y-62696489D03*
%TD*%
%TO.P,D65,1,VDD*%
%TO.N,+5V*%
X77397588Y-60196488D03*
%TO.P,D65,2,DOUT*%
%TO.N,Net-(D65-DOUT)*%
X77397588Y-58696488D03*
%TO.P,D65,3,VSS*%
%TO.N,GND*%
X82597588Y-58696488D03*
%TO.P,D65,4,DIN*%
%TO.N,Net-(D63-DOUT)*%
X82597588Y-60196488D03*
%TD*%
%TO.P,D66,1,VDD*%
%TO.N,+5V*%
X134397585Y-81696488D03*
%TO.P,D66,2,DOUT*%
%TO.N,Net-(D66-DOUT)*%
X134397585Y-80196488D03*
%TO.P,D66,3,VSS*%
%TO.N,GND*%
X139597585Y-80196488D03*
%TO.P,D66,4,DIN*%
%TO.N,Net-(D64-DOUT)*%
X139597585Y-81696488D03*
%TD*%
%TO.P,D67,1,VDD*%
%TO.N,+5V*%
X77397588Y-41196489D03*
%TO.P,D67,2,DOUT*%
%TO.N,Net-(D67-DOUT)*%
X77397588Y-39696489D03*
%TO.P,D67,3,VSS*%
%TO.N,GND*%
X82597588Y-39696489D03*
%TO.P,D67,4,DIN*%
%TO.N,Net-(D65-DOUT)*%
X82597588Y-41196489D03*
%TD*%
%TO.P,D68,1,VDD*%
%TO.N,+5V*%
X102478593Y-99384405D03*
%TO.P,D68,2,DOUT*%
%TO.N,Net-(D68-DOUT)*%
X102478593Y-97884405D03*
%TO.P,D68,3,VSS*%
%TO.N,GND*%
X107678593Y-97884405D03*
%TO.P,D68,4,DIN*%
%TO.N,Net-(D66-DOUT)*%
X107678593Y-99384405D03*
%TD*%
%TO.P,D69,1,VDD*%
%TO.N,+5V*%
X96397587Y-36196489D03*
%TO.P,D69,2,DOUT*%
%TO.N,Net-(D69-DOUT)*%
X96397587Y-34696489D03*
%TO.P,D69,3,VSS*%
%TO.N,GND*%
X101597587Y-34696489D03*
%TO.P,D69,4,DIN*%
%TO.N,Net-(D67-DOUT)*%
X101597587Y-36196489D03*
%TD*%
%TO.P,D70,1,VDD*%
%TO.N,+5V*%
X96397587Y-55196488D03*
%TO.P,D70,2,DOUT*%
%TO.N,Net-(D70-DOUT)*%
X96397587Y-53696488D03*
%TO.P,D70,3,VSS*%
%TO.N,GND*%
X101597587Y-53696488D03*
%TO.P,D70,4,DIN*%
%TO.N,Net-(D69-DOUT)*%
X101597587Y-55196488D03*
%TD*%
D30*
%TO.P,D71,1,VDD*%
%TO.N,+5V*%
X124155070Y-100925054D03*
%TO.P,D71,2,DOUT*%
%TO.N,Net-(D71-DOUT)*%
X124415543Y-99447843D03*
%TO.P,D71,3,VSS*%
%TO.N,GND*%
X129536543Y-100350813D03*
%TO.P,D71,4,DIN*%
%TO.N,Net-(D68-DOUT)*%
X129276071Y-101828025D03*
%TD*%
D29*
%TO.P,D72,1,VDD*%
%TO.N,+5V*%
X96397586Y-74196488D03*
%TO.P,D72,2,DOUT*%
%TO.N,Net-(D39-DIN)*%
X96397586Y-72696488D03*
%TO.P,D72,3,VSS*%
%TO.N,GND*%
X101597586Y-72696488D03*
%TO.P,D72,4,DIN*%
%TO.N,Net-(D70-DOUT)*%
X101597586Y-74196488D03*
%TD*%
D31*
%TO.P,D73,1,VDD*%
%TO.N,+5V*%
X145285861Y-106117836D03*
%TO.P,D73,2,DOUT*%
%TO.N,unconnected-(D73-DOUT-Pad2)*%
X145798891Y-104708297D03*
%TO.P,D73,3,VSS*%
%TO.N,GND*%
X150685293Y-106486801D03*
%TO.P,D73,4,DIN*%
%TO.N,Net-(D71-DOUT)*%
X150172263Y-107896340D03*
%TD*%
D32*
%TO.N,GND*%
X144620693Y-50675604D03*
X113483393Y-58740104D03*
X63823293Y-87353204D03*
X74224593Y-55717504D03*
X113483393Y-56009604D03*
X139134293Y-59057604D03*
X143909493Y-100358004D03*
X121370093Y-94909704D03*
X144138093Y-77739304D03*
X131222193Y-39230304D03*
X75726293Y-77713904D03*
X120630393Y-56009604D03*
X74272293Y-62016704D03*
X74542093Y-39702804D03*
X150145193Y-94262004D03*
X107752593Y-94909704D03*
X130561793Y-96179704D03*
X83292393Y-104269604D03*
X93706393Y-31828804D03*
X74272293Y-74513504D03*
X99741993Y-94909704D03*
X139642293Y-77739304D03*
X113378693Y-74894504D03*
X82631993Y-55717504D03*
X82619293Y-36731004D03*
X93134893Y-94909704D03*
X63594693Y-68455604D03*
X113277093Y-36743704D03*
X120566893Y-36756404D03*
X138740593Y-39230304D03*
X113238993Y-38915404D03*
X145750993Y-39448804D03*
X113402593Y-76948404D03*
X82809793Y-74513504D03*
X120744693Y-74894504D03*
X75726293Y-55717504D03*
X63645476Y-49179894D03*
X132025393Y-59057604D03*
X131882593Y-41709404D03*
X151250093Y-100358004D03*
X103790193Y-52339304D03*
X101707393Y-70233604D03*
X75726293Y-58689304D03*
X75558093Y-36685956D03*
X105009393Y-31981204D03*
X75726293Y-74513504D03*
X93587593Y-35153404D03*
X121468593Y-97744404D03*
X132025393Y-61165804D03*
X99192593Y-96888404D03*
X143972993Y-103685404D03*
X101529593Y-31866904D03*
X74272293Y-77718704D03*
%TO.N,+5V*%
X57955893Y-74272204D03*
X115321793Y-61750004D03*
X101882593Y-38328404D03*
X149131093Y-86540404D03*
X134333693Y-64201104D03*
X123487893Y-102847204D03*
X96322593Y-75859704D03*
X86852087Y-80466110D03*
X86740443Y-59203654D03*
X77259893Y-42788904D03*
X87407193Y-41366504D03*
X96360693Y-56733504D03*
X102202693Y-100929504D03*
X58006693Y-55476204D03*
X133774893Y-83251104D03*
X96322593Y-37772404D03*
X58400393Y-93246004D03*
X133736793Y-45252704D03*
X101912593Y-41818404D03*
X77297993Y-61813504D03*
X115220193Y-42738104D03*
X143833293Y-107635104D03*
X114851893Y-80876204D03*
X76447093Y-81371504D03*
%TO.N,BT+*%
X151549593Y-71796404D03*
%TO.N,row0*%
X97326893Y-49100804D03*
X72912593Y-62068404D03*
X135452293Y-56733504D03*
X85818693Y-54168104D03*
X96522593Y-51198404D03*
X73232593Y-53638404D03*
X126726393Y-52160504D03*
X69665293Y-63870904D03*
%TO.N,Net-(D1-A)*%
X69665293Y-60557204D03*
%TO.N,Net-(D10-A)*%
X82518693Y-54168104D03*
%TO.N,row1*%
X135477693Y-75694604D03*
X71151193Y-72252904D03*
X88677193Y-70359604D03*
X69698193Y-82882804D03*
X126802593Y-70448504D03*
X91988793Y-68201604D03*
X97631693Y-68201604D03*
%TO.N,Net-(D18-A)*%
X100626893Y-49100804D03*
%TO.N,Net-(D27-A)*%
X126726393Y-48860504D03*
%TO.N,Net-(D31-A)*%
X138752293Y-56733504D03*
%TO.N,Net-(D26-A)*%
X107522993Y-112118204D03*
%TO.N,Net-(D11-A)*%
X69677993Y-79569104D03*
%TO.N,Net-(D21-A)*%
X69779593Y-98619104D03*
%TO.N,Net-(D12-A)*%
X88677193Y-67059604D03*
%TO.N,Net-(D13-A)*%
X100931693Y-68201604D03*
%TO.N,row2*%
X135757093Y-94693804D03*
X107752593Y-84367704D03*
X69772593Y-90708404D03*
X69779593Y-101919104D03*
X126739093Y-89396904D03*
X88613693Y-89371504D03*
X126762593Y-93538404D03*
X107692593Y-90118404D03*
%TO.N,Net-(D14-A)*%
X126802593Y-67148504D03*
%TO.N,Net-(D15-A)*%
X138777693Y-75694604D03*
%TO.N,Net-(D17-A)*%
X88613693Y-86071504D03*
%TO.N,Net-(D20-A)*%
X99032593Y-80998404D03*
X107752593Y-81067704D03*
%TO.N,Net-(D24-A)*%
X126739093Y-86096904D03*
X118042593Y-85968404D03*
%TO.N,Net-(D25-A)*%
X139057093Y-94693804D03*
%TO.N,row3*%
X104222993Y-112118204D03*
X90072593Y-59078404D03*
X82912593Y-73228404D03*
X58702593Y-75548404D03*
X57742593Y-104138404D03*
X72192593Y-111558404D03*
X133381193Y-112791304D03*
X142778100Y-118424571D03*
X56102593Y-93628404D03*
X70672593Y-104118404D03*
X56102593Y-90258404D03*
X83172593Y-62568404D03*
%TO.N,Net-(D30-A)*%
X133947112Y-109540771D03*
%TO.N,Net-(D35-A)*%
X145879086Y-119553237D03*
%TO.N,Net-(D37-A)*%
X72192593Y-108258404D03*
X84638593Y-106606404D03*
%TO.N,Net-(D38-DOUT)*%
X65410793Y-67665104D03*
X56914493Y-67655504D03*
%TO.N,led*%
X85044993Y-37521504D03*
X57662593Y-56498404D03*
X71976693Y-43906504D03*
X72725993Y-45633704D03*
X64178893Y-55908004D03*
%TO.N,Net-(D39-DIN)*%
X122738593Y-74104004D03*
X109105311Y-70773186D03*
X96424193Y-71024104D03*
X107930393Y-71846504D03*
%TO.N,Net-(D40-DOUT)*%
X59175093Y-69408104D03*
X67303093Y-69471604D03*
%TO.N,Net-(D41-DOUT)*%
X56241393Y-51399504D03*
X62680293Y-50154904D03*
X56152593Y-55888404D03*
X56622593Y-71828404D03*
%TO.N,Net-(D42-DOUT)*%
X66299793Y-70970204D03*
X57244693Y-93080904D03*
%TO.N,Net-(D45-DOUT)*%
X75782593Y-59738404D03*
X78352593Y-68368404D03*
X81252593Y-75608404D03*
X81142593Y-68588404D03*
%TO.N,Net-(D46-DOUT)*%
X75792593Y-40718404D03*
X79882593Y-54788404D03*
X76452593Y-54758404D03*
X81450893Y-56619204D03*
%TO.N,Net-(D47-DOUT)*%
X84638593Y-39956804D03*
X85375193Y-43296904D03*
X95152593Y-37328404D03*
X95636793Y-39410704D03*
%TO.N,Net-(D48-DOUT)*%
X102952895Y-37717149D03*
X94950993Y-55943004D03*
%TO.N,Net-(D49-DOUT)*%
X94142593Y-72788404D03*
X104392593Y-54128404D03*
%TO.N,Net-(D50-DOUT)*%
X109924293Y-76291504D03*
X109657593Y-74348404D03*
%TO.N,Net-(D51-DOUT)*%
X119601693Y-75796204D03*
X119562593Y-68668404D03*
X113792593Y-60908404D03*
X115092593Y-69328404D03*
%TO.N,Net-(D52-DOUT)*%
X113392593Y-40158404D03*
X119352593Y-49898404D03*
X115972593Y-49888404D03*
X119436593Y-56800104D03*
%TO.N,Net-(D54-DOUT)*%
X143802593Y-41948404D03*
X130712593Y-61918404D03*
X132972593Y-60018404D03*
X140932593Y-46088404D03*
X130782593Y-60018404D03*
X144782593Y-44718404D03*
%TO.N,Net-(D55-DOUT)*%
X142792593Y-61358404D03*
X131920693Y-80446504D03*
%TO.N,Net-(D56-DOUT)*%
X129990293Y-93334904D03*
X96881393Y-92725304D03*
X132129960Y-93278037D03*
X143071293Y-80584104D03*
X143045893Y-93284104D03*
X98278393Y-99367404D03*
%TO.N,Net-(D58-DOUT)*%
X67988893Y-86108604D03*
X77501193Y-81676304D03*
X60330793Y-86413404D03*
X68509593Y-90604404D03*
%TO.N,Net-(D61-DOUT)*%
X141839393Y-40071704D03*
X115766293Y-37534204D03*
%TO.N,Net-(D62-DOUT)*%
X139082593Y-52538404D03*
X136531076Y-51552187D03*
%TO.N,Net-(D64-DOUT)*%
X138982593Y-71048404D03*
X137542593Y-70088404D03*
%TO.N,Net-(D66-DOUT)*%
X129063193Y-81231804D03*
X124224493Y-81231804D03*
X124033993Y-94084204D03*
X129052593Y-79158404D03*
X133082593Y-79068404D03*
X111041893Y-94033404D03*
%TO.N,Net-(D67-DOUT)*%
X86213393Y-44185904D03*
X86213393Y-37683504D03*
X77932993Y-37930466D03*
X96933102Y-38564415D03*
%TO.N,Net-(D68-DOUT)*%
X132492193Y-98313304D03*
X102748793Y-95700204D03*
%TO.N,Net-(D69-DOUT)*%
X104142593Y-37688404D03*
X96482593Y-33318404D03*
%TO.N,Net-(D70-DOUT)*%
X100665993Y-50713704D03*
X103232593Y-73608404D03*
X111054425Y-74958172D03*
X110679292Y-49015103D03*
%TO.N,RESET*%
X150068993Y-90439304D03*
X110412593Y-40078404D03*
X145702593Y-49408404D03*
X150956093Y-86540404D03*
X110470393Y-44058904D03*
%TO.N,col0*%
X102962593Y-47838404D03*
X81912593Y-50278404D03*
X101322593Y-43498404D03*
X82592593Y-48308404D03*
%TO.N,col1*%
X76352593Y-96798404D03*
%TO.N,col2*%
X109662593Y-64688404D03*
X105462593Y-51478404D03*
X104912593Y-47198404D03*
X110522593Y-52378404D03*
%TO.N,col3*%
X112442593Y-57298404D03*
%TO.N,col4*%
X129782593Y-65148404D03*
%TO.N,sda*%
X95792593Y-43228404D03*
X108272593Y-38798404D03*
X108272593Y-43828404D03*
X144752593Y-52138404D03*
X95312593Y-45928404D03*
X144734993Y-59565604D03*
X140362593Y-50208404D03*
X141092593Y-47378404D03*
%TO.N,scl*%
X96042593Y-65028404D03*
%TO.N,Net-(D71-DOUT)*%
X124525592Y-96729506D03*
X152266093Y-101120004D03*
%TO.N,ENC1B*%
X80828593Y-101780404D03*
X93579393Y-87162704D03*
X92410993Y-88496204D03*
%TO.N,ENC1A*%
X85908593Y-106606404D03*
%TO.N,data*%
X94302593Y-37948404D03*
X96462593Y-45188404D03*
X143515793Y-54993604D03*
X114692593Y-52868404D03*
X114132593Y-46768404D03*
X144493693Y-46433804D03*
%TO.N,raw*%
X149060393Y-68240404D03*
X147833793Y-41125204D03*
X110063993Y-38356604D03*
%TD*%
D33*
%TO.N,GND*%
X148773593Y-95633604D02*
X148749393Y-95609404D01*
X151288193Y-100396104D02*
X151250093Y-100358004D01*
X138740593Y-39230304D02*
X139451793Y-39941504D01*
X143909493Y-100358004D02*
X143909493Y-91421504D01*
X99222593Y-96858404D02*
X99222593Y-95429104D01*
X139642293Y-80151780D02*
X139597585Y-80196488D01*
X113483393Y-58740104D02*
X113483393Y-56009604D01*
X143972993Y-103685404D02*
X143972993Y-100421504D01*
X90741593Y-104193404D02*
X92169693Y-104193404D01*
X144802593Y-85134604D02*
X143909493Y-84241504D01*
X144387593Y-90943404D02*
X144387593Y-87393404D01*
X75942593Y-44858404D02*
X73382593Y-42298404D01*
X63597589Y-71196487D02*
X63597589Y-68458500D01*
X121468593Y-97744404D02*
X121468593Y-95008204D01*
X101597587Y-53696488D02*
X102433009Y-53696488D01*
X74224593Y-55717504D02*
X74224593Y-51560404D01*
X120566893Y-36756404D02*
X120566893Y-39665796D01*
X144620693Y-47741904D02*
X144620693Y-50675604D01*
X120597586Y-58696488D02*
X120597586Y-56042411D01*
X82597587Y-77696487D02*
X82597587Y-74725710D01*
X107678593Y-97884405D02*
X107678593Y-94983704D01*
X72992593Y-69668404D02*
X72992593Y-63296404D01*
X63597588Y-87578909D02*
X63823293Y-87353204D01*
X120597586Y-75041611D02*
X120744693Y-74894504D01*
X74272293Y-77718704D02*
X74272293Y-74513504D01*
X92802593Y-36918404D02*
X92802593Y-35938404D01*
X113402593Y-74918404D02*
X113378693Y-74894504D01*
X143972993Y-100421504D02*
X143909493Y-100358004D01*
X143909493Y-80885304D02*
X143909493Y-77967904D01*
X75726293Y-58689304D02*
X75726293Y-55717504D01*
X101529593Y-34628495D02*
X101597587Y-34696489D01*
X113402593Y-76948404D02*
X113402593Y-74918404D01*
X144422593Y-82168404D02*
X144422593Y-81398404D01*
X145750993Y-39448804D02*
X145750993Y-46611604D01*
X74272293Y-70948104D02*
X72992593Y-69668404D01*
X91369593Y-40058404D02*
X92932593Y-38495404D01*
X120597586Y-77696488D02*
X120597586Y-75041611D01*
X106609593Y-37175404D02*
X104722593Y-35288404D01*
X139134293Y-59057604D02*
X139597585Y-59520896D01*
X107678593Y-94983704D02*
X107752593Y-94909704D01*
X82619293Y-36731004D02*
X82619293Y-39674784D01*
X130498293Y-96243204D02*
X130561793Y-96179704D01*
X83241593Y-111693404D02*
X83241593Y-104320404D01*
X120566893Y-39665796D02*
X120597586Y-39696489D01*
X93587593Y-31947604D02*
X93706393Y-31828804D01*
X73552593Y-59508404D02*
X74272293Y-58788704D01*
X129536543Y-100350813D02*
X130498293Y-99389063D01*
X144387593Y-87393404D02*
X144802593Y-86978404D01*
X63597588Y-90196486D02*
X63597588Y-87578909D01*
X106609593Y-37518404D02*
X106609593Y-37175404D01*
X93134893Y-103228204D02*
X93134893Y-94909704D01*
X101597586Y-72696488D02*
X101597586Y-70343411D01*
X63597589Y-52196488D02*
X63597589Y-49227781D01*
X74272293Y-61738104D02*
X73552593Y-61018404D01*
X63597589Y-68458500D02*
X63594693Y-68455604D01*
X75558093Y-38686804D02*
X74542093Y-39702804D01*
X82597588Y-55751909D02*
X82631993Y-55717504D01*
X113277093Y-38877304D02*
X113238993Y-38915404D01*
X72992593Y-63296404D02*
X74272293Y-62016704D01*
X143909493Y-77967904D02*
X144138093Y-77739304D01*
X150685293Y-106486801D02*
X151288193Y-105883901D01*
X74272293Y-74513504D02*
X74272293Y-70948104D01*
X82597587Y-74725710D02*
X82809793Y-74513504D01*
X120597586Y-56042411D02*
X120630393Y-56009604D01*
X143909493Y-84241504D02*
X143909493Y-82681504D01*
X72902593Y-50238404D02*
X72902593Y-48852404D01*
X74224593Y-47530404D02*
X74720593Y-47530404D01*
X92802593Y-35938404D02*
X93587593Y-35153404D01*
X121468593Y-95008204D02*
X121370093Y-94909704D01*
X130498293Y-99389063D02*
X130498293Y-96243204D01*
X144422593Y-81398404D02*
X143909493Y-80885304D01*
X73552593Y-61018404D02*
X73552593Y-59508404D01*
X104722593Y-32268004D02*
X105009393Y-31981204D01*
X63597589Y-49227781D02*
X63645476Y-49179894D01*
X73382593Y-40862304D02*
X74542093Y-39702804D01*
X73382593Y-42298404D02*
X73382593Y-40862304D01*
X99222593Y-95429104D02*
X99741993Y-94909704D01*
X99192593Y-96888404D02*
X99222593Y-96858404D01*
X145750993Y-46611604D02*
X144620693Y-47741904D01*
X74224593Y-51560404D02*
X72902593Y-50238404D01*
X82619293Y-39674784D02*
X82597588Y-39696489D01*
X148749393Y-95609404D02*
X148193593Y-95609404D01*
X82597588Y-58696488D02*
X82597588Y-55751909D01*
X74272293Y-58788704D02*
X74272293Y-55765204D01*
X104722593Y-35288404D02*
X104722593Y-32268004D01*
X139451793Y-42050698D02*
X139597585Y-42196490D01*
X144802593Y-86978404D02*
X144802593Y-85134604D01*
X74272293Y-55765204D02*
X74224593Y-55717504D01*
X139642293Y-77739304D02*
X139642293Y-80151780D01*
X132025393Y-61165804D02*
X132025393Y-59057604D01*
X92932593Y-37048404D02*
X92802593Y-36918404D01*
X101597586Y-70343411D02*
X101707393Y-70233604D01*
X131222193Y-39230304D02*
X131882593Y-39890704D01*
X91369593Y-40058404D02*
X91369593Y-42598404D01*
X101529593Y-31866904D02*
X101529593Y-34628495D01*
X93587593Y-35153404D02*
X93587593Y-31947604D01*
X143909493Y-82681504D02*
X144422593Y-82168404D01*
X72902593Y-48852404D02*
X74224593Y-47530404D01*
X75942593Y-46308404D02*
X75942593Y-44858404D01*
X92169693Y-104193404D02*
X93134893Y-103228204D01*
X74720593Y-47530404D02*
X75942593Y-46308404D01*
X150145193Y-94262004D02*
X148773593Y-95633604D01*
X139597585Y-59520896D02*
X139597585Y-61196489D01*
X83241593Y-104320404D02*
X83292393Y-104269604D01*
X75558093Y-36685956D02*
X75558093Y-38686804D01*
X139451793Y-39941504D02*
X139451793Y-42050698D01*
X113277093Y-36743704D02*
X113277093Y-38877304D01*
X102433009Y-53696488D02*
X103790193Y-52339304D01*
X131882593Y-39890704D02*
X131882593Y-41709404D01*
X74272293Y-62016704D02*
X74272293Y-61738104D01*
X143909493Y-91421504D02*
X144387593Y-90943404D01*
X92932593Y-38495404D02*
X92932593Y-37048404D01*
X75726293Y-77713904D02*
X75726293Y-74513504D01*
X151288193Y-105883901D02*
X151288193Y-100396104D01*
%TO.N,+5V*%
X115397586Y-79196488D02*
X115397586Y-80330511D01*
X58397589Y-72696487D02*
X57930493Y-73163583D01*
X86740443Y-65970554D02*
X87342593Y-65368404D01*
X134397585Y-81696488D02*
X134397585Y-82628412D01*
X57930493Y-73163583D02*
X57930493Y-74246804D01*
X145285861Y-106182536D02*
X143833293Y-107635104D01*
X77397587Y-79196487D02*
X77397587Y-80421010D01*
X134397585Y-64137212D02*
X134333693Y-64201104D01*
X115397586Y-60196488D02*
X115397586Y-61674211D01*
X134397585Y-44591912D02*
X133736793Y-45252704D01*
X145285861Y-106117836D02*
X145285861Y-106182536D01*
X96397586Y-74196488D02*
X96397586Y-75784711D01*
X123564093Y-102771004D02*
X123487893Y-102847204D01*
X58397588Y-93243199D02*
X58400393Y-93246004D01*
X86740443Y-59203654D02*
X86740443Y-55914354D01*
X87342593Y-65368404D02*
X87342593Y-63738404D01*
X96397587Y-56696610D02*
X96360693Y-56733504D01*
X87342593Y-63738404D02*
X86740443Y-63136254D01*
X101912593Y-38358404D02*
X101882593Y-38328404D01*
X58397589Y-53696488D02*
X57841593Y-54252484D01*
X115397586Y-42560711D02*
X115220193Y-42738104D01*
X134397585Y-82628412D02*
X133774893Y-83251104D01*
X96397587Y-37697410D02*
X96322593Y-37772404D01*
X115397586Y-41196489D02*
X115397586Y-42560711D01*
X86740443Y-80354466D02*
X86740443Y-65970554D01*
X115397586Y-80330511D02*
X114851893Y-80876204D01*
X86852087Y-80466110D02*
X86740443Y-80354466D01*
X77397588Y-61713909D02*
X77297993Y-61813504D01*
X134397585Y-43696490D02*
X134397585Y-44591912D01*
X124155070Y-100925054D02*
X123564093Y-101516031D01*
X134397585Y-62696489D02*
X134397585Y-64137212D01*
X102478593Y-99384405D02*
X102478593Y-100653604D01*
X96397587Y-55196488D02*
X96397587Y-56696610D01*
X102478593Y-100653604D02*
X102202693Y-100929504D01*
X58397588Y-91696486D02*
X58397588Y-93243199D01*
X87407193Y-55247604D02*
X87407193Y-41366504D01*
X123564093Y-101516031D02*
X123564093Y-102771004D01*
X96397587Y-36196489D02*
X96397587Y-37697410D01*
X77397588Y-41196489D02*
X77397588Y-42651209D01*
X86740443Y-55914354D02*
X87407193Y-55247604D01*
X57930493Y-74246804D02*
X57955893Y-74272204D01*
X57841593Y-55311104D02*
X58006693Y-55476204D01*
X77397587Y-80421010D02*
X76447093Y-81371504D01*
X96397586Y-75784711D02*
X96322593Y-75859704D01*
X101912593Y-41818404D02*
X101912593Y-38358404D01*
X77397588Y-42651209D02*
X77259893Y-42788904D01*
X77397588Y-60196488D02*
X77397588Y-61713909D01*
X57841593Y-54252484D02*
X57841593Y-55311104D01*
X86740443Y-63136254D02*
X86740443Y-59203654D01*
X115397586Y-61674211D02*
X115321793Y-61750004D01*
D34*
%TO.N,BT+*%
X151549593Y-71694804D02*
X150691993Y-71694804D01*
X147427393Y-75740404D02*
X147427393Y-75720004D01*
X150691993Y-71694804D02*
X149946393Y-70949204D01*
X147427393Y-72044033D02*
X147427393Y-75720004D01*
X147427393Y-79740404D02*
X147427393Y-75720004D01*
X149946393Y-70949204D02*
X148522222Y-70949204D01*
X148522222Y-70949204D02*
X147427393Y-72044033D01*
X150486993Y-82800004D02*
X147427393Y-79740404D01*
X150486993Y-78800004D02*
X147427393Y-75740404D01*
D35*
%TO.N,row0*%
X72462593Y-61618404D02*
X72912593Y-62068404D01*
X96522593Y-51198404D02*
X97332593Y-50388404D01*
X73232593Y-53638404D02*
X73232593Y-58648404D01*
X97332593Y-49106504D02*
X97326893Y-49100804D01*
X97332593Y-50388404D02*
X97332593Y-49106504D01*
X72462593Y-59418404D02*
X73232593Y-58648404D01*
X72462593Y-59418404D02*
X72462593Y-61618404D01*
%TO.N,Net-(D10-A)*%
X82518693Y-53947593D02*
X82518693Y-54168104D01*
X79997588Y-51426488D02*
X82518693Y-53947593D01*
%TO.N,row1*%
X69677993Y-82882804D02*
X69698193Y-82882804D01*
X91988793Y-66744204D02*
X93514593Y-65218404D01*
X94612593Y-65218404D02*
X95812593Y-64018404D01*
X95812593Y-62258404D02*
X95052593Y-61498404D01*
X91988793Y-68201604D02*
X91988793Y-66744204D01*
X91369593Y-55298404D02*
X93236493Y-57165304D01*
X93514593Y-65218404D02*
X94612593Y-65218404D01*
X69698193Y-82882804D02*
X70351093Y-82882804D01*
X95052593Y-59240604D02*
X93236493Y-57424504D01*
X70351093Y-82882804D02*
X71151193Y-82082704D01*
X95812593Y-64018404D02*
X95812593Y-62258404D01*
X71151193Y-82082704D02*
X71151193Y-72252904D01*
X95052593Y-61498404D02*
X95052593Y-59240604D01*
X93236493Y-57165304D02*
X93236493Y-57424504D01*
%TO.N,Net-(D18-A)*%
X100626893Y-48055794D02*
X100626893Y-49100804D01*
X98997587Y-46426488D02*
X100626893Y-48055794D01*
%TO.N,Net-(D31-A)*%
X138752293Y-55681197D02*
X138752293Y-56733504D01*
X136997585Y-53926489D02*
X138752293Y-55681197D01*
%TO.N,Net-(D26-A)*%
X105078593Y-109614404D02*
X107522993Y-112058804D01*
X107522993Y-112058804D02*
X107522993Y-112118204D01*
%TO.N,Net-(D13-A)*%
X100931693Y-67360593D02*
X100931693Y-68201604D01*
X98997587Y-65426487D02*
X100931693Y-67360593D01*
%TO.N,row2*%
X69779593Y-101111404D02*
X69779593Y-101919104D01*
X107752593Y-84367704D02*
X107752593Y-90058404D01*
X107752593Y-83688404D02*
X107752593Y-84367704D01*
X107752593Y-90058404D02*
X107692593Y-90118404D01*
X109122593Y-80108404D02*
X109122593Y-82318404D01*
X108312593Y-68508404D02*
X109932593Y-70128404D01*
X108172593Y-79158404D02*
X109122593Y-80108404D01*
X108172593Y-72948404D02*
X108172593Y-79158404D01*
X108312593Y-59541404D02*
X108312593Y-68508404D01*
X69772593Y-90708404D02*
X69772593Y-95988404D01*
X69772593Y-95988404D02*
X71402593Y-97618404D01*
X106609593Y-57838404D02*
X108312593Y-59541404D01*
X126739093Y-93514904D02*
X126739093Y-89396904D01*
X71402593Y-99488404D02*
X69779593Y-101111404D01*
X109932593Y-70128404D02*
X109932593Y-71188404D01*
X71402593Y-97618404D02*
X71402593Y-99488404D01*
X109932593Y-71188404D02*
X108172593Y-72948404D01*
X126762593Y-93538404D02*
X126739093Y-93514904D01*
X109122593Y-82318404D02*
X107752593Y-83688404D01*
%TO.N,Net-(D15-A)*%
X138777693Y-74706596D02*
X138777693Y-75694604D01*
X136997585Y-72926488D02*
X138777693Y-74706596D01*
%TO.N,Net-(D20-A)*%
X98997586Y-81033411D02*
X99032593Y-80998404D01*
X98997586Y-84426487D02*
X98997586Y-81033411D01*
%TO.N,Net-(D24-A)*%
X117997586Y-89426487D02*
X117997586Y-86013411D01*
X117997586Y-86013411D02*
X118042593Y-85968404D01*
%TO.N,Net-(D25-A)*%
X139057093Y-93985995D02*
X136997585Y-91926487D01*
X139057093Y-94693804D02*
X139057093Y-93985995D01*
%TO.N,row3*%
X58702593Y-75548404D02*
X58702593Y-81508404D01*
X58142593Y-82068404D02*
X58142593Y-84158404D01*
X83172593Y-62568404D02*
X83172593Y-72968404D01*
X58222593Y-81988404D02*
X58142593Y-82068404D01*
X56102593Y-93938404D02*
X57742593Y-95578404D01*
X91369593Y-57838404D02*
X91312593Y-57838404D01*
X58702593Y-81508404D02*
X58222593Y-81988404D01*
X70672593Y-110038404D02*
X72192593Y-111558404D01*
X70672593Y-104118404D02*
X70672593Y-110038404D01*
X56102593Y-86198404D02*
X58142593Y-84158404D01*
X56102593Y-93628404D02*
X56102593Y-93938404D01*
X83172593Y-72968404D02*
X82912593Y-73228404D01*
X91312593Y-57838404D02*
X90072593Y-59078404D01*
X57742593Y-95578404D02*
X57742593Y-104138404D01*
X56102593Y-86198404D02*
X56102593Y-90258404D01*
%TO.N,Net-(D37-A)*%
X73757593Y-106693404D02*
X72192593Y-108258404D01*
X85614593Y-103344404D02*
X85614593Y-96812404D01*
X84638593Y-104320404D02*
X85614593Y-103344404D01*
X84638593Y-106606404D02*
X84638593Y-104320404D01*
X76241593Y-106693404D02*
X73757593Y-106693404D01*
%TO.N,Net-(D38-DOUT)*%
X58572593Y-61298404D02*
X56952593Y-59678404D01*
X55416270Y-56282263D02*
X55416270Y-55421426D01*
X58572593Y-64019618D02*
X58572593Y-61298404D01*
X64903710Y-72696487D02*
X63597589Y-72696487D01*
X56736693Y-65855518D02*
X58572593Y-64019618D01*
X56952593Y-57744976D02*
X56006203Y-56798586D01*
X56952593Y-59678404D02*
X56952593Y-57744976D01*
X56736693Y-67477704D02*
X56736693Y-65855518D01*
X55416270Y-55421426D02*
X56652593Y-54185103D01*
X56914493Y-67655504D02*
X56736693Y-67477704D01*
X57030677Y-52196488D02*
X58397589Y-52196488D01*
X56006203Y-56798586D02*
X55932593Y-56798586D01*
X56652593Y-54185103D02*
X56652593Y-52574572D01*
X55932593Y-56798586D02*
X55416270Y-56282263D01*
X56652593Y-52574572D02*
X57030677Y-52196488D01*
X65410793Y-67665104D02*
X65410793Y-72189404D01*
X65410793Y-72189404D02*
X64903710Y-72696487D01*
%TO.N,Net-(D39-DOUT)*%
X115397586Y-77696488D02*
X115397586Y-70293411D01*
X118712693Y-67617404D02*
X122116293Y-64213804D01*
X122116293Y-60568904D02*
X121743877Y-60196488D01*
X115397586Y-70293411D02*
X117032193Y-68658804D01*
X118318993Y-68658804D02*
X118712693Y-68265104D01*
X121743877Y-60196488D02*
X120597586Y-60196488D01*
X118712693Y-68265104D02*
X118712693Y-67617404D01*
X122116293Y-64213804D02*
X122116293Y-60568904D01*
X117032193Y-68658804D02*
X118318993Y-68658804D01*
%TO.N,led*%
X71976693Y-44884404D02*
X72725993Y-45633704D01*
X91369593Y-34978404D02*
X91369593Y-35016504D01*
X59479093Y-55361904D02*
X58382593Y-56458404D01*
X91369593Y-35016504D02*
X89655093Y-36731004D01*
X59479893Y-55361904D02*
X63632793Y-55361904D01*
X85835493Y-36731004D02*
X85044993Y-37521504D01*
X58342593Y-56498404D02*
X57662593Y-56498404D01*
X64178893Y-54277792D02*
X63597589Y-53696488D01*
X71976693Y-43906504D02*
X71976693Y-44884404D01*
X64178893Y-55908004D02*
X64178893Y-54277792D01*
X63632793Y-55361904D02*
X64178893Y-55908004D01*
X58382593Y-56458404D02*
X58342593Y-56498404D01*
X89655093Y-36731004D02*
X85835493Y-36731004D01*
X59479893Y-55361904D02*
X59479093Y-55361904D01*
%TO.N,Net-(D39-DIN)*%
X107930393Y-71846504D02*
X108031993Y-71846504D01*
X122738593Y-74104004D02*
X122738593Y-77855481D01*
X121397586Y-79196488D02*
X120597586Y-79196488D01*
X122738593Y-77855481D02*
X121397586Y-79196488D01*
X108031993Y-71846504D02*
X109105311Y-70773186D01*
X96397586Y-71050711D02*
X96424193Y-71024104D01*
X96397586Y-72696488D02*
X96397586Y-71050711D01*
%TO.N,Net-(D40-DOUT)*%
X63102593Y-80038404D02*
X63102593Y-84548404D01*
X64302593Y-78838404D02*
X63102593Y-80038404D01*
X65822593Y-75568404D02*
X64302593Y-77088404D01*
X64534611Y-91696486D02*
X63597588Y-91696486D01*
X58397589Y-71196487D02*
X58397589Y-70185608D01*
X65385393Y-86831204D02*
X65385393Y-90845704D01*
X64302593Y-77088404D02*
X64302593Y-78838404D01*
X58397589Y-70185608D02*
X59175093Y-69408104D01*
X68162593Y-70331104D02*
X68162593Y-74657304D01*
X68162593Y-74657304D02*
X67251493Y-75568404D01*
X63102593Y-84548404D02*
X65385393Y-86831204D01*
X67303093Y-69471604D02*
X68162593Y-70331104D01*
X67251493Y-75568404D02*
X65822593Y-75568404D01*
X65385393Y-90845704D02*
X64534611Y-91696486D01*
%TO.N,Net-(D41-DOUT)*%
X56622593Y-71828404D02*
X56622593Y-68988804D01*
X57765393Y-67846004D02*
X57765393Y-66703004D01*
X58997293Y-60441904D02*
X58997293Y-59768804D01*
X58997293Y-59768804D02*
X58260693Y-59032204D01*
X62680293Y-50154904D02*
X56749393Y-50154904D01*
X59413193Y-65055204D02*
X59413193Y-60857804D01*
X56622593Y-68988804D02*
X57765393Y-67846004D01*
X56152593Y-56020004D02*
X56152593Y-55888404D01*
X56749393Y-50154904D02*
X56241393Y-50662904D01*
X58260693Y-59032204D02*
X58260693Y-58128104D01*
X57765393Y-66703004D02*
X59413193Y-65055204D01*
X59413193Y-60857804D02*
X58997293Y-60441904D01*
X58260693Y-58128104D02*
X56152593Y-56020004D01*
X56241393Y-50662904D02*
X56241393Y-51399504D01*
%TO.N,Net-(D42-DOUT)*%
X59122593Y-82208404D02*
X59908693Y-81422304D01*
X63569293Y-76672504D02*
X66299793Y-73942004D01*
X60508593Y-81422304D02*
X63569293Y-78361604D01*
X66798993Y-73942004D02*
X67372593Y-73368404D01*
X67372593Y-72038404D02*
X66304393Y-70970204D01*
X56939893Y-86692804D02*
X59122593Y-84510104D01*
X66304393Y-70970204D02*
X66299793Y-70970204D01*
X59908693Y-81422304D02*
X60508593Y-81422304D01*
X67372593Y-73368404D02*
X67372593Y-72038404D01*
X63569293Y-78361604D02*
X63569293Y-76672504D01*
X66299793Y-73942004D02*
X66798993Y-73942004D01*
X56939893Y-92776104D02*
X56939893Y-86692804D01*
X59122593Y-84510104D02*
X59122593Y-82208404D01*
X57244693Y-93080904D02*
X56939893Y-92776104D01*
%TO.N,Net-(D44-DOUT)*%
X117933993Y-49177004D02*
X118420593Y-49177004D01*
X121163793Y-41762696D02*
X120597586Y-41196489D01*
X116202593Y-53122204D02*
X116202593Y-50908404D01*
X115397586Y-53927211D02*
X116202593Y-53122204D01*
X120185893Y-47170404D02*
X121163793Y-46192504D01*
X121163793Y-46192504D02*
X121163793Y-41762696D01*
X116202593Y-50908404D02*
X117933993Y-49177004D01*
X118420593Y-49177004D02*
X120185893Y-47411704D01*
X120185893Y-47411704D02*
X120185893Y-47170404D01*
X115397586Y-58696488D02*
X115397586Y-53927211D01*
%TO.N,Net-(D45-DOUT)*%
X75782593Y-62108404D02*
X75782593Y-59738404D01*
X81252593Y-72168404D02*
X82022593Y-71398404D01*
X76872593Y-66888404D02*
X76872593Y-63198404D01*
X82022593Y-69348404D02*
X81262593Y-68588404D01*
X82022593Y-71398404D02*
X82022593Y-69348404D01*
X75782593Y-62108404D02*
X76872593Y-63198404D01*
X81252593Y-75608404D02*
X81252593Y-72168404D01*
X78352593Y-68368404D02*
X76872593Y-66888404D01*
X81262593Y-68588404D02*
X81142593Y-68588404D01*
%TO.N,Net-(D46-DOUT)*%
X75792593Y-40718404D02*
X75792593Y-43388404D01*
X75792593Y-43388404D02*
X76842593Y-44438404D01*
X80625393Y-55531204D02*
X80625393Y-55793704D01*
X76842593Y-44438404D02*
X76842593Y-52948404D01*
X76452593Y-53338404D02*
X76452593Y-54758404D01*
X76502593Y-53288404D02*
X76452593Y-53338404D01*
X76842593Y-52948404D02*
X76502593Y-53288404D01*
X80625393Y-55793704D02*
X81450893Y-56619204D01*
X79882593Y-54788404D02*
X80625393Y-55531204D01*
%TO.N,Net-(D47-DOUT)*%
X95636793Y-39410704D02*
X95636793Y-38582604D01*
X84112593Y-41758404D02*
X84112593Y-40482804D01*
X95152593Y-38098404D02*
X95636793Y-38582604D01*
X85375193Y-43296904D02*
X85375193Y-43021004D01*
X85375193Y-43021004D02*
X84112593Y-41758404D01*
X84112593Y-40482804D02*
X84638593Y-39956804D01*
X95152593Y-38098404D02*
X95152593Y-37328404D01*
%TO.N,Net-(D48-DOUT)*%
X102702593Y-42318404D02*
X102702593Y-38988404D01*
X102702593Y-38988404D02*
X102952895Y-38738102D01*
X97987593Y-44783404D02*
X98737593Y-44783404D01*
X102952895Y-37717149D02*
X102952895Y-38738102D01*
X101682593Y-42618404D02*
X101792593Y-42728404D01*
X94950993Y-55943004D02*
X94950993Y-47820004D01*
X102292593Y-42728404D02*
X102702593Y-42318404D01*
X98737593Y-44783404D02*
X100902593Y-42618404D01*
X94950993Y-47820004D02*
X97987593Y-44783404D01*
X101792593Y-42728404D02*
X102292593Y-42728404D01*
X100902593Y-42618404D02*
X101682593Y-42618404D01*
%TO.N,Net-(D49-DOUT)*%
X99318193Y-63174004D02*
X101935993Y-60556204D01*
X93465093Y-72110904D02*
X93465093Y-67592004D01*
X93465093Y-67592004D02*
X94747793Y-66309304D01*
X105152593Y-54888404D02*
X104392593Y-54128404D01*
X101935993Y-57275004D02*
X102762593Y-56448404D01*
X105152593Y-55848404D02*
X105152593Y-54888404D01*
X101935993Y-60556204D02*
X101935993Y-57275004D01*
X94142593Y-72788404D02*
X93465093Y-72110904D01*
X94747793Y-66309304D02*
X96461693Y-66309304D01*
X98306993Y-63174004D02*
X99318193Y-63174004D01*
X97192593Y-65578404D02*
X97192593Y-64288404D01*
X96461693Y-66309304D02*
X97192593Y-65578404D01*
X102762593Y-56448404D02*
X104552593Y-56448404D01*
X104552593Y-56448404D02*
X105152593Y-55848404D01*
X97192593Y-64288404D02*
X98306993Y-63174004D01*
%TO.N,Net-(D50-DOUT)*%
X109657593Y-74348404D02*
X109657593Y-76024804D01*
X109657593Y-76024804D02*
X109924293Y-76291504D01*
%TO.N,Net-(D51-DOUT)*%
X119562593Y-68668404D02*
X119742593Y-68848404D01*
X119742593Y-75655304D02*
X119601693Y-75796204D01*
X113792593Y-63002104D02*
X115626593Y-64836104D01*
X115626593Y-64836104D02*
X115626593Y-68794404D01*
X113792593Y-60908404D02*
X113792593Y-63002104D01*
X119742593Y-68848404D02*
X119742593Y-75655304D01*
X115626593Y-68794404D02*
X115092593Y-69328404D01*
%TO.N,Net-(D52-DOUT)*%
X119436593Y-56800104D02*
X119436593Y-53574404D01*
X119972593Y-53038404D02*
X119972593Y-50518404D01*
X113842593Y-45195904D02*
X113842593Y-40608404D01*
X119902593Y-53108404D02*
X119972593Y-53038404D01*
X116362593Y-49498404D02*
X116362593Y-47715904D01*
X119972593Y-50518404D02*
X119352593Y-49898404D01*
X119436593Y-53574404D02*
X119902593Y-53108404D01*
X116362593Y-47715904D02*
X113842593Y-45195904D01*
X115972593Y-49888404D02*
X116362593Y-49498404D01*
X113842593Y-40608404D02*
X113392593Y-40158404D01*
%TO.N,Net-(D54-DOUT)*%
X143802593Y-43738404D02*
X143802593Y-41948404D01*
X139542593Y-49060804D02*
X139542593Y-47478404D01*
X133920693Y-59070304D02*
X132972593Y-60018404D01*
X138905693Y-49697704D02*
X139542593Y-49060804D01*
X138905693Y-51094704D02*
X138905693Y-49697704D01*
X139542593Y-47478404D02*
X140932593Y-46088404D01*
X136686693Y-57682504D02*
X136686693Y-56263904D01*
X130782593Y-61848404D02*
X130712593Y-61918404D01*
X135232593Y-53248404D02*
X136152593Y-52328404D01*
X133920693Y-59070304D02*
X135298893Y-59070304D01*
X136686693Y-56263904D02*
X135232593Y-54809804D01*
X137671993Y-52328404D02*
X138905693Y-51094704D01*
X135298893Y-59070304D02*
X136686693Y-57682504D01*
X144782593Y-44718404D02*
X143802593Y-43738404D01*
X135232593Y-54809804D02*
X135232593Y-53248404D01*
X136152593Y-52328404D02*
X137671993Y-52328404D01*
X130782593Y-60018404D02*
X130782593Y-61848404D01*
%TO.N,Net-(D55-DOUT)*%
X138943793Y-69827204D02*
X138943793Y-68798504D01*
X143212593Y-64529704D02*
X143212593Y-61778404D01*
X136227593Y-71323404D02*
X137447593Y-71323404D01*
X135292593Y-73478404D02*
X135292593Y-72258404D01*
X133470093Y-73789604D02*
X134981393Y-73789604D01*
X137447593Y-71323404D02*
X138943793Y-69827204D01*
X135292593Y-72258404D02*
X136227593Y-71323404D01*
X131920693Y-80446504D02*
X131920693Y-75339004D01*
X142792593Y-61358404D02*
X143212593Y-61778404D01*
X134981393Y-73789604D02*
X135292593Y-73478404D01*
X131920693Y-75339004D02*
X133470093Y-73789604D01*
X138943793Y-68798504D02*
X143212593Y-64529704D01*
%TO.N,Net-(D56-DOUT)*%
X143071293Y-93258704D02*
X143071293Y-91289704D01*
X143702593Y-90658404D02*
X143702593Y-86958404D01*
X143702593Y-86958404D02*
X144002593Y-86658404D01*
X143071293Y-81179704D02*
X143071293Y-80584104D01*
X143071293Y-84629704D02*
X143071293Y-82669704D01*
X143522593Y-81631004D02*
X143071293Y-81179704D01*
X144002593Y-85561004D02*
X143071293Y-84629704D01*
X143071293Y-91289704D02*
X143702593Y-90658404D01*
X98252993Y-99342004D02*
X98278393Y-99367404D01*
X130047160Y-93278037D02*
X129990293Y-93334904D01*
X96881393Y-92725304D02*
X98252993Y-94096904D01*
X143045893Y-93284104D02*
X143071293Y-93258704D01*
X132129960Y-93278037D02*
X130047160Y-93278037D01*
X144002593Y-86658404D02*
X144002593Y-85561004D01*
X98252993Y-94096904D02*
X98252993Y-99342004D01*
X143522593Y-82218404D02*
X143522593Y-81631004D01*
X143071293Y-82669704D02*
X143522593Y-82218404D01*
%TO.N,Net-(D58-DOUT)*%
X68509593Y-86629304D02*
X68509593Y-90604404D01*
X58397588Y-88346609D02*
X60330793Y-86413404D01*
X67988893Y-86108604D02*
X68509593Y-86629304D01*
X78377493Y-80800004D02*
X81717593Y-80800004D01*
X77501193Y-81676304D02*
X78377493Y-80800004D01*
X82597587Y-79920010D02*
X82597587Y-79196487D01*
X58397588Y-90196486D02*
X58397588Y-88346609D01*
X81717593Y-80800004D02*
X82597587Y-79920010D01*
%TO.N,Net-(D61-DOUT)*%
X141839393Y-42369804D02*
X140512707Y-43696490D01*
X115397586Y-37902911D02*
X115766293Y-37534204D01*
X140512707Y-43696490D02*
X139597585Y-43696490D01*
X141839393Y-40071704D02*
X141839393Y-42369804D01*
X115397586Y-39696489D02*
X115397586Y-37902911D01*
%TO.N,Net-(D62-DOUT)*%
X139841824Y-58689173D02*
X139841824Y-53297635D01*
X140397585Y-62696489D02*
X139597585Y-62696489D01*
X141039293Y-62054781D02*
X140397585Y-62696489D01*
X136531076Y-51539487D02*
X136531076Y-51552187D01*
X134397585Y-42196490D02*
X133148107Y-42196490D01*
X139841824Y-58689173D02*
X141039293Y-59886642D01*
X139841824Y-53297635D02*
X139082593Y-52538404D01*
X141039293Y-59886642D02*
X141039293Y-62054781D01*
X132708093Y-42636504D02*
X132708093Y-47208504D01*
X134651193Y-49151604D02*
X134651193Y-49659604D01*
X132708093Y-47208504D02*
X134651193Y-49151604D01*
X133148107Y-42196490D02*
X132708093Y-42636504D01*
X134651193Y-49659604D02*
X136531076Y-51539487D01*
%TO.N,Net-(D63-DOUT)*%
X80625393Y-67744404D02*
X82181993Y-66187804D01*
X78286243Y-69584754D02*
X80126593Y-67744404D01*
X77397587Y-72940710D02*
X78286243Y-72052054D01*
X82181993Y-66187804D02*
X82181993Y-61839004D01*
X82822493Y-61198504D02*
X82822493Y-60421393D01*
X78286243Y-72052054D02*
X78286243Y-69584754D01*
X80126593Y-67744404D02*
X80625393Y-67744404D01*
X82822493Y-60421393D02*
X82597588Y-60196488D01*
X77397587Y-77696487D02*
X77397587Y-72940710D01*
X82181993Y-61839004D02*
X82822493Y-61198504D01*
%TO.N,Net-(D64-DOUT)*%
X139991254Y-72057065D02*
X138982593Y-71048404D01*
X137542593Y-70088404D02*
X135812593Y-70088404D01*
X141064693Y-81029380D02*
X140397585Y-81696488D01*
X133089093Y-67364904D02*
X133089093Y-63150542D01*
X139991254Y-77012303D02*
X139991254Y-72057065D01*
X132796993Y-62219904D02*
X133406593Y-61610304D01*
X135812593Y-70088404D02*
X133089093Y-67364904D01*
X133089093Y-63150542D02*
X132796993Y-62858442D01*
X141064693Y-78085742D02*
X141064693Y-81029380D01*
X133406593Y-61610304D02*
X133859340Y-61610304D01*
X139991254Y-77012303D02*
X141064693Y-78085742D01*
X133859340Y-61610304D02*
X134273155Y-61196489D01*
X134273155Y-61196489D02*
X134397585Y-61196489D01*
X140397585Y-81696488D02*
X139597585Y-81696488D01*
X132796993Y-62858442D02*
X132796993Y-62219904D01*
%TO.N,Net-(D65-DOUT)*%
X82187493Y-47005304D02*
X82860593Y-46332204D01*
X84257593Y-42856494D02*
X82597588Y-41196489D01*
X78340893Y-52426704D02*
X78340893Y-50730104D01*
X77397588Y-53370009D02*
X78340893Y-52426704D01*
X82873293Y-46332204D02*
X84257593Y-44947904D01*
X77397588Y-58696488D02*
X77397588Y-53370009D01*
X80193593Y-49431004D02*
X82187493Y-47437104D01*
X82860593Y-46332204D02*
X82873293Y-46332204D01*
X82187493Y-47437104D02*
X82187493Y-47005304D01*
X84257593Y-44947904D02*
X84257593Y-42856494D01*
X79639993Y-49431004D02*
X80193593Y-49431004D01*
X78340893Y-50730104D02*
X79639993Y-49431004D01*
%TO.N,Net-(D66-DOUT)*%
X124224493Y-82000304D02*
X124224493Y-81231804D01*
X133269501Y-79068404D02*
X134397585Y-80196488D01*
X124033993Y-89287004D02*
X124932593Y-88388404D01*
X110561193Y-98088404D02*
X111041893Y-97607704D01*
X124932593Y-82708404D02*
X124224493Y-82000304D01*
X129063193Y-81231804D02*
X129063193Y-79169004D01*
X109942593Y-98088404D02*
X110561193Y-98088404D01*
X111041893Y-97607704D02*
X111041893Y-94033404D01*
X129063193Y-79169004D02*
X129052593Y-79158404D01*
X124932593Y-88388404D02*
X124932593Y-82708404D01*
X124033993Y-94084204D02*
X124033993Y-89287004D01*
X107678593Y-99384405D02*
X108646592Y-99384405D01*
X108646592Y-99384405D02*
X109942593Y-98088404D01*
X133082593Y-79068404D02*
X133269501Y-79068404D01*
%TO.N,Net-(D67-DOUT)*%
X101597587Y-36891610D02*
X101597587Y-36196489D01*
X77397588Y-38465871D02*
X77932993Y-37930466D01*
X77397588Y-39696489D02*
X77397588Y-38465871D01*
X96933102Y-38564415D02*
X97775913Y-37721604D01*
X97775913Y-37721604D02*
X100767593Y-37721604D01*
X100767593Y-37721604D02*
X101597587Y-36891610D01*
X86213393Y-37683504D02*
X86213393Y-44185904D01*
%TO.N,Net-(D68-DOUT)*%
X132492193Y-99958004D02*
X132492193Y-98313304D01*
X102478593Y-95970404D02*
X102748793Y-95700204D01*
X102478593Y-97884405D02*
X102478593Y-95970404D01*
X129276071Y-101828025D02*
X130622172Y-101828025D01*
X130622172Y-101828025D02*
X132492193Y-99958004D01*
%TO.N,Net-(D69-DOUT)*%
X102192593Y-43628404D02*
X102192593Y-45678404D01*
X103232593Y-42588404D02*
X102192593Y-43628404D01*
X104692593Y-48178404D02*
X104692593Y-52648404D01*
X104142593Y-37688404D02*
X104142593Y-38548404D01*
X103232593Y-39458404D02*
X103232593Y-42588404D01*
X104142593Y-38548404D02*
X103232593Y-39458404D01*
X96482593Y-34611483D02*
X96397587Y-34696489D01*
X104692593Y-52648404D02*
X102144509Y-55196488D01*
X102144509Y-55196488D02*
X101597587Y-55196488D01*
X96482593Y-33318404D02*
X96482593Y-34611483D01*
X102192593Y-45678404D02*
X104692593Y-48178404D01*
%TO.N,Net-(D70-DOUT)*%
X96397587Y-53696488D02*
X96397587Y-52556410D01*
X96397587Y-52556410D02*
X98240293Y-50713704D01*
X98240293Y-50713704D02*
X100665993Y-50713704D01*
X110632593Y-65288404D02*
X110632593Y-64088404D01*
X110632593Y-64088404D02*
X111397493Y-63323504D01*
X111397493Y-66053304D02*
X110632593Y-65288404D01*
X111397493Y-49733304D02*
X110679292Y-49015103D01*
X111054425Y-74958172D02*
X111397493Y-74615104D01*
X102644509Y-74196488D02*
X103232593Y-73608404D01*
X111397493Y-74615104D02*
X111397493Y-66053304D01*
X111397493Y-63323504D02*
X111397493Y-49733304D01*
X101597586Y-74196488D02*
X102644509Y-74196488D01*
%TO.N,RESET*%
X151893593Y-89409404D02*
X151098893Y-89409404D01*
X145700193Y-49410804D02*
X145700193Y-59629104D01*
X146055793Y-59984704D02*
X146055793Y-80419004D01*
X110412593Y-40078404D02*
X110470393Y-40136204D01*
X151098893Y-89409404D02*
X150068993Y-90439304D01*
X145700193Y-59629104D02*
X146055793Y-59984704D01*
X150068993Y-88369204D02*
X150956093Y-87482104D01*
X150956093Y-85319304D02*
X150956093Y-86540404D01*
X146055793Y-80419004D02*
X150956093Y-85319304D01*
X150068993Y-90439304D02*
X150068993Y-88369204D01*
X145702593Y-49408404D02*
X145700193Y-49410804D01*
X150956093Y-87482104D02*
X150956093Y-86540404D01*
X110470393Y-40136204D02*
X110470393Y-44058904D01*
%TO.N,col0*%
X67342593Y-78658404D02*
X67342593Y-79481482D01*
X68892593Y-69388404D02*
X68892593Y-75068404D01*
X65997589Y-66493400D02*
X68892593Y-69388404D01*
X68032593Y-95188404D02*
X68032593Y-97098404D01*
X68032593Y-97098404D02*
X65997588Y-99133409D01*
X68012593Y-75948404D02*
X68012593Y-77988404D01*
X101322593Y-46198404D02*
X101322593Y-43498404D01*
X68012593Y-77988404D02*
X67342593Y-78658404D01*
X67382593Y-91058404D02*
X67382593Y-94538404D01*
X65997589Y-61826487D02*
X65997589Y-66493400D01*
X68892593Y-75068404D02*
X68012593Y-75948404D01*
X81912593Y-50278404D02*
X81912593Y-48988404D01*
X65997589Y-80826486D02*
X65997589Y-89673400D01*
X81912593Y-48988404D02*
X82592593Y-48308404D01*
X65997588Y-99133409D02*
X65997588Y-99826485D01*
X65997589Y-89673400D02*
X67382593Y-91058404D01*
X102962593Y-47838404D02*
X101322593Y-46198404D01*
X67382593Y-94538404D02*
X68032593Y-95188404D01*
X67342593Y-79481482D02*
X65997589Y-80826486D01*
%TO.N,col1*%
X83862593Y-82308404D02*
X83862593Y-84728404D01*
X76241593Y-101693404D02*
X76241593Y-96909404D01*
X84997588Y-68326487D02*
X84997588Y-77623409D01*
X84202593Y-81968404D02*
X83862593Y-82308404D01*
X84997588Y-66993399D02*
X84122593Y-66118404D01*
X84997588Y-51743409D02*
X84997588Y-49326488D01*
X84122593Y-66118404D02*
X84122593Y-52618404D01*
X84122593Y-52618404D02*
X84997588Y-51743409D01*
X84997587Y-90543410D02*
X80614593Y-94926404D01*
X84997587Y-85863398D02*
X84997587Y-87326486D01*
X84997588Y-77623409D02*
X84202593Y-78418404D01*
X84202593Y-78418404D02*
X84202593Y-81968404D01*
X80614593Y-94926404D02*
X80614593Y-96812404D01*
X76241593Y-96909404D02*
X76352593Y-96798404D01*
X84997588Y-68326487D02*
X84997588Y-66993399D01*
X83862593Y-84728404D02*
X84997587Y-85863398D01*
X84997587Y-87326486D02*
X84997587Y-90543410D01*
%TO.N,col2*%
X105182593Y-51198404D02*
X105182593Y-47468404D01*
X110522593Y-63238404D02*
X109662593Y-64098404D01*
X110522593Y-63238404D02*
X110522593Y-52378404D01*
X104912593Y-47198404D02*
X103997587Y-46283398D01*
X100952593Y-88838404D02*
X103997586Y-85793411D01*
X103997586Y-82326487D02*
X106002593Y-80321480D01*
X100078593Y-106262404D02*
X100952593Y-105388404D01*
X106002593Y-72428404D02*
X103997587Y-70423398D01*
X103997587Y-46283398D02*
X103997587Y-44326488D01*
X105462593Y-51478404D02*
X105182593Y-51198404D01*
X105182593Y-47468404D02*
X104912593Y-47198404D01*
X103997586Y-85793411D02*
X103997586Y-82326487D01*
X100952593Y-105388404D02*
X100952593Y-88838404D01*
X100078593Y-107514404D02*
X100078593Y-106262404D01*
X103997587Y-70423398D02*
X103997587Y-63326487D01*
X106002593Y-80321480D02*
X106002593Y-72428404D01*
X109662593Y-64098404D02*
X109662593Y-64688404D01*
%TO.N,col3*%
X112997586Y-68326487D02*
X112997586Y-72633411D01*
X112292593Y-73338404D02*
X112292593Y-78008404D01*
X110952593Y-85281494D02*
X112997586Y-87326487D01*
X120379772Y-108514785D02*
X120379772Y-107025583D01*
X112292593Y-78008404D02*
X111552593Y-78748404D01*
X112997586Y-68326487D02*
X112997586Y-66663411D01*
X111552593Y-78748404D02*
X111552593Y-81448404D01*
X118852593Y-95068404D02*
X122997586Y-90923411D01*
X110932593Y-82068404D02*
X110932593Y-83348404D01*
X110932593Y-83348404D02*
X110952593Y-83368404D01*
X112997586Y-49326488D02*
X112997586Y-54483411D01*
X112997586Y-72633411D02*
X112292593Y-73338404D01*
X111902593Y-57838404D02*
X112442593Y-57298404D01*
X120379772Y-107025583D02*
X118852593Y-105498404D01*
X114032593Y-64148404D02*
X111902593Y-62018404D01*
X111552593Y-81448404D02*
X110932593Y-82068404D01*
X122997586Y-90923411D02*
X122997586Y-87326487D01*
X112442593Y-55038404D02*
X112997586Y-54483411D01*
X111902593Y-62018404D02*
X111902593Y-57838404D01*
X110952593Y-83368404D02*
X110952593Y-85281494D01*
X114032593Y-65628404D02*
X114032593Y-64148404D01*
X112442593Y-55038404D02*
X112442593Y-57298404D01*
X118852593Y-105498404D02*
X118852593Y-95068404D01*
X112997586Y-66663411D02*
X114032593Y-65628404D01*
%TO.N,col4*%
X129782593Y-67718404D02*
X129782593Y-65148404D01*
X130592593Y-72231480D02*
X131997585Y-70826488D01*
X140249975Y-112936687D02*
X140249975Y-111045786D01*
X129782593Y-59118404D02*
X131997585Y-56903412D01*
X131997585Y-70826488D02*
X131997585Y-69933396D01*
X139332593Y-106728404D02*
X141692593Y-104368404D01*
X141692593Y-94808404D02*
X141997585Y-94503412D01*
X130592593Y-82688404D02*
X130592593Y-72231480D01*
X129782593Y-65148404D02*
X129782593Y-59118404D01*
X141692593Y-104368404D02*
X141692593Y-94808404D01*
X131997585Y-88093412D02*
X133032593Y-87058404D01*
X140249975Y-111045786D02*
X139332593Y-110128404D01*
X141997585Y-94503412D02*
X141997585Y-89826487D01*
X133032593Y-85128404D02*
X130592593Y-82688404D01*
X131997585Y-56903412D02*
X131997585Y-51826489D01*
X131997585Y-89826487D02*
X131997585Y-88093412D01*
X133032593Y-87058404D02*
X133032593Y-85128404D01*
X139332593Y-110128404D02*
X139332593Y-106728404D01*
X131997585Y-69933396D02*
X129782593Y-67718404D01*
%TO.N,sda*%
X144752593Y-59548004D02*
X144752593Y-52138404D01*
X108272593Y-43828404D02*
X108272593Y-38798404D01*
X95582593Y-45658404D02*
X95582593Y-44508404D01*
X144734993Y-59565604D02*
X144752593Y-59548004D01*
X95942593Y-44148404D02*
X95942593Y-43378404D01*
X95582593Y-44508404D02*
X95942593Y-44148404D01*
X95312593Y-45928404D02*
X95582593Y-45658404D01*
X140362593Y-48108404D02*
X141092593Y-47378404D01*
X140362593Y-50208404D02*
X140362593Y-48108404D01*
X95942593Y-43378404D02*
X95792593Y-43228404D01*
%TO.N,scl*%
X96562593Y-64508404D02*
X96562593Y-62048404D01*
X92852593Y-49161404D02*
X91369593Y-47678404D01*
X96042593Y-65028404D02*
X96562593Y-64508404D01*
X95702593Y-61188404D02*
X95702593Y-58758404D01*
X95702593Y-58758404D02*
X92852593Y-55908404D01*
X92852593Y-55908404D02*
X92852593Y-49161404D01*
X96562593Y-62048404D02*
X95702593Y-61188404D01*
%TO.N,Net-(D71-DOUT)*%
X124415543Y-96839555D02*
X124525592Y-96729506D01*
X152266093Y-107927204D02*
X151605693Y-108587604D01*
X152266093Y-101120004D02*
X152266093Y-107927204D01*
X124415543Y-99447843D02*
X124415543Y-96839555D01*
X150863527Y-108587604D02*
X150172263Y-107896340D01*
X151605693Y-108587604D02*
X150863527Y-108587604D01*
%TO.N,ENC1B*%
X92106193Y-88801004D02*
X92410993Y-88496204D01*
X91064793Y-84648104D02*
X91064793Y-63223204D01*
X80614593Y-101994404D02*
X80828593Y-101780404D01*
X80614593Y-111312404D02*
X80614593Y-101994404D01*
X91064793Y-63223204D02*
X91369593Y-62918404D01*
X90741593Y-101693404D02*
X92106193Y-100328804D01*
X92106193Y-100328804D02*
X92106193Y-88801004D01*
X93579393Y-87162704D02*
X91064793Y-84648104D01*
%TO.N,ENC1A*%
X85614593Y-111312404D02*
X85614593Y-106900404D01*
X89892593Y-61855404D02*
X89892593Y-63978404D01*
X89892593Y-63978404D02*
X90256993Y-64342804D01*
X94341393Y-105171304D02*
X92819293Y-106693404D01*
X92819293Y-106693404D02*
X90741593Y-106693404D01*
X90256993Y-85110304D02*
X94341393Y-89194704D01*
X91369593Y-60378404D02*
X89892593Y-61855404D01*
X94341393Y-89194704D02*
X94341393Y-105171304D01*
X90256993Y-64342804D02*
X90256993Y-85110304D01*
X85614593Y-106900404D02*
X85908593Y-106606404D01*
%TO.N,data*%
X95062593Y-40688404D02*
X95062593Y-39968404D01*
X96712593Y-42338404D02*
X95062593Y-40688404D01*
X114692593Y-52868404D02*
X114692593Y-47328404D01*
X96462593Y-45188404D02*
X96712593Y-44938404D01*
X94472593Y-39378404D02*
X94472593Y-38118404D01*
X96712593Y-44938404D02*
X96712593Y-42338404D01*
X114692593Y-47328404D02*
X114132593Y-46768404D01*
X143515793Y-54993604D02*
X143515793Y-49775204D01*
X143905843Y-49385154D02*
X143905843Y-47021654D01*
X95062593Y-39968404D02*
X94472593Y-39378404D01*
X143905843Y-47021654D02*
X144493693Y-46433804D01*
X143515793Y-49775204D02*
X143905843Y-49385154D01*
X94472593Y-38118404D02*
X94302593Y-37948404D01*
D34*
%TO.N,raw*%
X149060393Y-55204204D02*
X146487593Y-52631404D01*
X149060393Y-68240404D02*
X149060393Y-55204204D01*
X146487593Y-52631404D02*
X146487593Y-49754775D01*
X146487593Y-49062033D02*
X146487593Y-42471404D01*
X109987793Y-38356604D02*
X106609593Y-34978404D01*
X146487593Y-42471404D02*
X147833793Y-41125204D01*
X149723793Y-68903804D02*
X149060393Y-68240404D01*
X146502593Y-49739775D02*
X146502593Y-49077033D01*
X147833793Y-41074404D02*
X147808393Y-41099804D01*
X146487593Y-49754775D02*
X146502593Y-49739775D01*
X110063993Y-38356604D02*
X109987793Y-38356604D01*
X149723793Y-69449204D02*
X149723793Y-68903804D01*
X147833793Y-41125204D02*
X147833793Y-41074404D01*
X146502593Y-49077033D02*
X146487593Y-49062033D01*
%TD*%
M02*
