%TF.GenerationSoftware,KiCad,Pcbnew,7.0.8*%
%TF.CreationDate,2023-11-08T13:39:32-05:00*%
%TF.ProjectId,bgkeeb,62676b65-6562-42e6-9b69-6361645f7063,rev?*%
%TF.SameCoordinates,Original*%
%TF.FileFunction,Soldermask,Bot*%
%TF.FilePolarity,Negative*%
%FSLAX46Y46*%
G04 Gerber Fmt 4.6, Leading zero omitted, Abs format (unit mm)*
G04 Created by KiCad (PCBNEW 7.0.8) date 2023-11-08 13:39:32*
%MOMM*%
%LPD*%
G01*
G04 APERTURE LIST*
G04 Aperture macros list*
%AMRoundRect*
0 Rectangle with rounded corners*
0 $1 Rounding radius*
0 $2 $3 $4 $5 $6 $7 $8 $9 X,Y pos of 4 corners*
0 Add a 4 corners polygon primitive as box body*
4,1,4,$2,$3,$4,$5,$6,$7,$8,$9,$2,$3,0*
0 Add four circle primitives for the rounded corners*
1,1,$1+$1,$2,$3*
1,1,$1+$1,$4,$5*
1,1,$1+$1,$6,$7*
1,1,$1+$1,$8,$9*
0 Add four rect primitives between the rounded corners*
20,1,$1+$1,$2,$3,$4,$5,0*
20,1,$1+$1,$4,$5,$6,$7,0*
20,1,$1+$1,$6,$7,$8,$9,0*
20,1,$1+$1,$8,$9,$2,$3,0*%
%AMRotRect*
0 Rectangle, with rotation*
0 The origin of the aperture is its center*
0 $1 length*
0 $2 width*
0 $3 Rotation angle, in degrees counterclockwise*
0 Add horizontal line*
21,1,$1,$2,0,0,$3*%
G04 Aperture macros list end*
%ADD10RoundRect,0.082000X0.718000X-0.328000X0.718000X0.328000X-0.718000X0.328000X-0.718000X-0.328000X0*%
%ADD11RoundRect,0.082000X0.650135X-0.447696X0.764049X0.198338X-0.650135X0.447696X-0.764049X-0.198338X0*%
%ADD12C,1.701800*%
%ADD13C,0.990600*%
%ADD14C,3.429000*%
%ADD15C,2.032000*%
%ADD16R,1.752600X1.752600*%
%ADD17C,1.752600*%
%ADD18R,2.000000X2.000000*%
%ADD19C,2.000000*%
%ADD20C,3.200000*%
%ADD21C,0.800000*%
%ADD22O,1.600000X2.000000*%
%ADD23RoundRect,0.082000X0.562517X-0.553790X0.786882X0.062649X-0.562517X0.553790X-0.786882X-0.062649X0*%
%ADD24RoundRect,0.250000X-0.625000X0.350000X-0.625000X-0.350000X0.625000X-0.350000X0.625000X0.350000X0*%
%ADD25O,1.750000X1.200000*%
%ADD26R,0.800000X1.000000*%
%ADD27C,1.100000*%
%ADD28R,1.500000X0.700000*%
%ADD29R,1.200000X0.900000*%
%ADD30R,0.900000X1.200000*%
%ADD31RotRect,0.900000X1.200000X80.000000*%
%ADD32RotRect,0.900000X1.200000X340.000000*%
%ADD33RoundRect,0.425000X0.675000X0.425000X-0.675000X0.425000X-0.675000X-0.425000X0.675000X-0.425000X0*%
%ADD34RoundRect,0.425000X0.675000X-0.425000X0.675000X0.425000X-0.675000X0.425000X-0.675000X-0.425000X0*%
%ADD35RoundRect,0.250000X-0.262500X-0.450000X0.262500X-0.450000X0.262500X0.450000X-0.262500X0.450000X0*%
%ADD36R,1.100000X1.800000*%
G04 APERTURE END LIST*
D10*
%TO.C,D47*%
X82597588Y-41196489D03*
X82597588Y-39696489D03*
X77397588Y-39696489D03*
X77397588Y-41196489D03*
%TD*%
%TO.C,D48*%
X101597587Y-36196489D03*
X101597587Y-34696489D03*
X96397587Y-34696489D03*
X96397587Y-36196489D03*
%TD*%
%TO.C,D54*%
X139597585Y-43696490D03*
X139597585Y-42196490D03*
X134397585Y-42196490D03*
X134397585Y-43696490D03*
%TD*%
%TO.C,D55*%
X139597585Y-62696489D03*
X139597585Y-61196489D03*
X134397585Y-61196489D03*
X134397585Y-62696489D03*
%TD*%
%TO.C,D42*%
X63597589Y-72696487D03*
X63597589Y-71196487D03*
X58397589Y-71196487D03*
X58397589Y-72696487D03*
%TD*%
%TO.C,D46*%
X82597588Y-60196488D03*
X82597588Y-58696488D03*
X77397588Y-58696488D03*
X77397588Y-60196488D03*
%TD*%
%TO.C,D49*%
X101597587Y-55196488D03*
X101597587Y-53696488D03*
X96397587Y-53696488D03*
X96397587Y-55196488D03*
%TD*%
%TO.C,D53*%
X120597586Y-41196489D03*
X120597586Y-39696489D03*
X115397586Y-39696489D03*
X115397586Y-41196489D03*
%TD*%
%TO.C,D56*%
X139597585Y-81696488D03*
X139597585Y-80196488D03*
X134397585Y-80196488D03*
X134397585Y-81696488D03*
%TD*%
%TO.C,D43*%
X63597588Y-91696486D03*
X63597588Y-90196486D03*
X58397588Y-90196486D03*
X58397588Y-91696486D03*
%TD*%
%TO.C,D50*%
X101597586Y-74196488D03*
X101597586Y-72696488D03*
X96397586Y-72696488D03*
X96397586Y-74196488D03*
%TD*%
%TO.C,D57*%
X107678593Y-99384405D03*
X107678593Y-97884405D03*
X102478593Y-97884405D03*
X102478593Y-99384405D03*
%TD*%
D11*
%TO.C,D59*%
X129276071Y-101828025D03*
X129536543Y-100350813D03*
X124415543Y-99447843D03*
X124155070Y-100925054D03*
%TD*%
D12*
%TO.C,SW2*%
X74497588Y-45526488D03*
D13*
X74777588Y-41326488D03*
D14*
X79997588Y-45526488D03*
D13*
X85217588Y-41326488D03*
D12*
X85497588Y-45526488D03*
D15*
X79997588Y-51426488D03*
X74997588Y-49326488D03*
X84997588Y-49326488D03*
%TD*%
D12*
%TO.C,SW3*%
X93497587Y-40526488D03*
D13*
X93777587Y-36326488D03*
D14*
X98997587Y-40526488D03*
D13*
X104217587Y-36326488D03*
D12*
X104497587Y-40526488D03*
D15*
X98997587Y-46426488D03*
X93997587Y-44326488D03*
X103997587Y-44326488D03*
%TD*%
D12*
%TO.C,SW4*%
X112497586Y-45526488D03*
D13*
X112777586Y-41326488D03*
D14*
X117997586Y-45526488D03*
D13*
X123217586Y-41326488D03*
D12*
X123497586Y-45526488D03*
D15*
X117997586Y-51426488D03*
X112997586Y-49326488D03*
X122997586Y-49326488D03*
%TD*%
D12*
%TO.C,SW5*%
X131497585Y-48026489D03*
D13*
X131777585Y-43826489D03*
D14*
X136997585Y-48026489D03*
D13*
X142217585Y-43826489D03*
D12*
X142497585Y-48026489D03*
D15*
X136997585Y-53926489D03*
X131997585Y-51826489D03*
X141997585Y-51826489D03*
%TD*%
D12*
%TO.C,SW11*%
X55497589Y-77026486D03*
D13*
X55777589Y-72826486D03*
D14*
X60997589Y-77026486D03*
D13*
X66217589Y-72826486D03*
D12*
X66497589Y-77026486D03*
D15*
X60997589Y-82926486D03*
X55997589Y-80826486D03*
X65997589Y-80826486D03*
%TD*%
D12*
%TO.C,SW12*%
X74497588Y-64526487D03*
D13*
X74777588Y-60326487D03*
D14*
X79997588Y-64526487D03*
D13*
X85217588Y-60326487D03*
D12*
X85497588Y-64526487D03*
D15*
X79997588Y-70426487D03*
X74997588Y-68326487D03*
X84997588Y-68326487D03*
%TD*%
D12*
%TO.C,SW13*%
X93497587Y-59526487D03*
D13*
X93777587Y-55326487D03*
D14*
X98997587Y-59526487D03*
D13*
X104217587Y-55326487D03*
D12*
X104497587Y-59526487D03*
D15*
X98997587Y-65426487D03*
X93997587Y-63326487D03*
X103997587Y-63326487D03*
%TD*%
D12*
%TO.C,SW14*%
X112497586Y-64526487D03*
D13*
X112777586Y-60326487D03*
D14*
X117997586Y-64526487D03*
D13*
X123217586Y-60326487D03*
D12*
X123497586Y-64526487D03*
D15*
X117997586Y-70426487D03*
X112997586Y-68326487D03*
X122997586Y-68326487D03*
%TD*%
D12*
%TO.C,SW15*%
X131497585Y-67026488D03*
D13*
X131777585Y-62826488D03*
D14*
X136997585Y-67026488D03*
D13*
X142217585Y-62826488D03*
D12*
X142497585Y-67026488D03*
D15*
X136997585Y-72926488D03*
X131997585Y-70826488D03*
X141997585Y-70826488D03*
%TD*%
D12*
%TO.C,SW21*%
X55497588Y-96026485D03*
D13*
X55777588Y-91826485D03*
D14*
X60997588Y-96026485D03*
D13*
X66217588Y-91826485D03*
D12*
X66497588Y-96026485D03*
D15*
X60997588Y-101926485D03*
X55997588Y-99826485D03*
X65997588Y-99826485D03*
%TD*%
D12*
%TO.C,SW22*%
X74497587Y-83526486D03*
D13*
X74777587Y-79326486D03*
D14*
X79997587Y-83526486D03*
D13*
X85217587Y-79326486D03*
D12*
X85497587Y-83526486D03*
D15*
X79997587Y-89426486D03*
X74997587Y-87326486D03*
X84997587Y-87326486D03*
%TD*%
D12*
%TO.C,SW23*%
X93497586Y-78526487D03*
D13*
X93777586Y-74326487D03*
D14*
X98997586Y-78526487D03*
D13*
X104217586Y-74326487D03*
D12*
X104497586Y-78526487D03*
D15*
X98997586Y-84426487D03*
X93997586Y-82326487D03*
X103997586Y-82326487D03*
%TD*%
D12*
%TO.C,SW24*%
X112497586Y-83526487D03*
D13*
X112777586Y-79326487D03*
D14*
X117997586Y-83526487D03*
D13*
X123217586Y-79326487D03*
D12*
X123497586Y-83526487D03*
D15*
X117997586Y-89426487D03*
X112997586Y-87326487D03*
X122997586Y-87326487D03*
%TD*%
D12*
%TO.C,SW25*%
X131497585Y-86026487D03*
D13*
X131777585Y-81826487D03*
D14*
X136997585Y-86026487D03*
D13*
X142217585Y-81826487D03*
D12*
X142497585Y-86026487D03*
D15*
X136997585Y-91926487D03*
X131997585Y-89826487D03*
X141997585Y-89826487D03*
%TD*%
D12*
%TO.C,SW34*%
X120547231Y-104685691D03*
D13*
X121552300Y-100598120D03*
D14*
X125963674Y-105640756D03*
D13*
X131833693Y-102411007D03*
D12*
X131380117Y-106595821D03*
D15*
X124939150Y-111451122D03*
X120379772Y-108514785D03*
X130227850Y-110251266D03*
%TD*%
D12*
%TO.C,SW35*%
X141079806Y-109194845D03*
D13*
X142779404Y-105343902D03*
D14*
X146248115Y-111075956D03*
D13*
X152589795Y-108914592D03*
D12*
X151416424Y-112957067D03*
D15*
X144230196Y-116620142D03*
X140249975Y-112936687D03*
X149646902Y-116356889D03*
%TD*%
D12*
%TO.C,SW1*%
X55497589Y-58026487D03*
D13*
X55777589Y-53826487D03*
D14*
X60997589Y-58026487D03*
D13*
X66217589Y-53826487D03*
D12*
X66497589Y-58026487D03*
D15*
X60997589Y-63926487D03*
X55997589Y-61826487D03*
X65997589Y-61826487D03*
%TD*%
D10*
%TO.C,D41*%
X63597589Y-53696488D03*
X63597589Y-52196488D03*
X58397589Y-52196488D03*
X58397589Y-53696488D03*
%TD*%
%TO.C,D45*%
X82597587Y-79196487D03*
X82597587Y-77696487D03*
X77397587Y-77696487D03*
X77397587Y-79196487D03*
%TD*%
D16*
%TO.C,U1*%
X91369593Y-34978404D03*
D17*
X91369593Y-37518404D03*
X91369593Y-40058404D03*
X91369593Y-42598404D03*
X91369593Y-45138404D03*
X91369593Y-47678404D03*
X91369593Y-50218404D03*
X91369593Y-52758404D03*
X91369593Y-55298404D03*
X91369593Y-57838404D03*
X91369593Y-60378404D03*
X91369593Y-62918404D03*
X106609593Y-62918404D03*
X106609593Y-60378404D03*
X106609593Y-57838404D03*
X106609593Y-55298404D03*
X106609593Y-52758404D03*
X106609593Y-50218404D03*
X106609593Y-47678404D03*
X106609593Y-45138404D03*
X106609593Y-42598404D03*
X106609593Y-40058404D03*
X106609593Y-37518404D03*
X106609593Y-34978404D03*
%TD*%
D18*
%TO.C,SW42*%
X90741593Y-106693404D03*
D19*
X90741593Y-101693404D03*
X90741593Y-104193404D03*
X76241593Y-101693404D03*
X76241593Y-106693404D03*
%TD*%
D10*
%TO.C,D51*%
X120597586Y-79196488D03*
X120597586Y-77696488D03*
X115397586Y-77696488D03*
X115397586Y-79196488D03*
%TD*%
D12*
%TO.C,SW6*%
X99578593Y-103714404D03*
D13*
X99858593Y-99514404D03*
D14*
X105078593Y-103714404D03*
D13*
X110298593Y-99514404D03*
D12*
X110578593Y-103714404D03*
D15*
X105078593Y-109614404D03*
X100078593Y-107514404D03*
X110078593Y-107514404D03*
%TD*%
D20*
%TO.C,*%
X138994593Y-97716404D03*
%TD*%
%TO.C,*%
X72954593Y-94668404D03*
%TD*%
D21*
%TO.C,U3*%
X149840393Y-42039404D03*
X149840393Y-49039404D03*
D22*
X147540393Y-51739404D03*
X152140393Y-50639404D03*
X152140393Y-46639404D03*
X152140393Y-43639404D03*
%TD*%
D10*
%TO.C,D52*%
X120597586Y-60196488D03*
X120597586Y-58696488D03*
X115397586Y-58696488D03*
X115397586Y-60196488D03*
%TD*%
D23*
%TO.C,D60*%
X150172263Y-107896340D03*
X150685293Y-106486801D03*
X145798891Y-104708297D03*
X145285861Y-106117836D03*
%TD*%
D20*
%TO.C,*%
X127564593Y-55552404D03*
%TD*%
D24*
%TO.C,BATJ1*%
X150486993Y-78800004D03*
X150486993Y-82800004D03*
D25*
X150486993Y-80800004D03*
%TD*%
D20*
%TO.C,*%
X70668593Y-56822404D03*
%TD*%
D26*
%TO.C,SW_POWER1*%
X150305793Y-75431204D03*
X152515793Y-75431204D03*
D27*
X151415793Y-73281204D03*
X151415793Y-70281204D03*
D26*
X150305793Y-68131204D03*
X152515793Y-68131204D03*
D28*
X149655793Y-69531204D03*
X149655793Y-72531204D03*
X149655793Y-74031204D03*
%TD*%
D29*
%TO.C,D1*%
X69665293Y-63857204D03*
X69665293Y-60557204D03*
%TD*%
D30*
%TO.C,D2*%
X85818693Y-54168104D03*
X82518693Y-54168104D03*
%TD*%
%TO.C,D3*%
X97326893Y-49100804D03*
X100626893Y-49100804D03*
%TD*%
D29*
%TO.C,D4*%
X126726393Y-52160504D03*
X126726393Y-48860504D03*
%TD*%
%TO.C,D11*%
X69677993Y-82869104D03*
X69677993Y-79569104D03*
%TD*%
%TO.C,D12*%
X88677193Y-70359604D03*
X88677193Y-67059604D03*
%TD*%
D30*
%TO.C,D13*%
X97631693Y-68201604D03*
X100931693Y-68201604D03*
%TD*%
D29*
%TO.C,D14*%
X126802593Y-70448504D03*
X126802593Y-67148504D03*
%TD*%
D30*
%TO.C,D15*%
X135477693Y-75694604D03*
X138777693Y-75694604D03*
%TD*%
D29*
%TO.C,D21*%
X69779593Y-101919104D03*
X69779593Y-98619104D03*
%TD*%
%TO.C,D22*%
X88613693Y-89371504D03*
X88613693Y-86071504D03*
%TD*%
%TO.C,D23*%
X107752593Y-84367704D03*
X107752593Y-81067704D03*
%TD*%
%TO.C,D24*%
X126739093Y-89396904D03*
X126739093Y-86096904D03*
%TD*%
D30*
%TO.C,D25*%
X135757093Y-94693804D03*
X139057093Y-94693804D03*
%TD*%
D31*
%TO.C,D34*%
X133374074Y-112790637D03*
X133947112Y-109540771D03*
%TD*%
D32*
%TO.C,D35*%
X142778100Y-118424571D03*
X145879086Y-119553237D03*
%TD*%
D33*
%TO.C,J1*%
X151745393Y-55577804D03*
D34*
X151745393Y-58117804D03*
X151745393Y-60657804D03*
X151745393Y-63197804D03*
X151745393Y-65737804D03*
%TD*%
D29*
%TO.C,D81*%
X72192593Y-111558404D03*
X72192593Y-108258404D03*
%TD*%
D30*
%TO.C,D6*%
X104222993Y-112118204D03*
X107522993Y-112118204D03*
%TD*%
D21*
%TO.C,U4*%
X149851793Y-49067804D03*
X149851793Y-42067804D03*
D22*
X152151793Y-51767804D03*
X147551793Y-50667804D03*
X147551793Y-46667804D03*
X147551793Y-43667804D03*
%TD*%
D18*
%TO.C,SW7*%
X85614593Y-111312404D03*
D19*
X80614593Y-111312404D03*
X83114593Y-111312404D03*
X80614593Y-96812404D03*
X85614593Y-96812404D03*
%TD*%
D30*
%TO.C,D5*%
X135452293Y-56733504D03*
X138752293Y-56733504D03*
%TD*%
D35*
%TO.C,R1*%
X149131093Y-86540404D03*
X150956093Y-86540404D03*
%TD*%
D36*
%TO.C,SW8*%
X151893593Y-95634804D03*
X148193593Y-89434804D03*
X148193593Y-95634804D03*
X151893593Y-89434804D03*
%TD*%
M02*
