M48
; DRILL file {KiCad 7.0.8} date 2023 November 08, Wednesday 13:39:34
; FORMAT={-:-/ absolute / inch / decimal}
; #@! TF.CreationDate,2023-11-08T13:39:34-05:00
; #@! TF.GenerationSoftware,Kicad,Pcbnew,7.0.8
; #@! TF.FileFunction,NonPlated,1,2,NPTH
FMAT,2
INCH
; #@! TA.AperFunction,NonPlated,NPTH,ComponentDrill
T1C0.0315
; #@! TA.AperFunction,NonPlated,NPTH,ComponentDrill
T2C0.0390
; #@! TA.AperFunction,NonPlated,NPTH,ComponentDrill
T3C0.0394
; #@! TA.AperFunction,NonPlated,NPTH,ComponentDrill
T4C0.0670
; #@! TA.AperFunction,NonPlated,NPTH,ComponentDrill
T5C0.1260
; #@! TA.AperFunction,NonPlated,NPTH,ComponentDrill
T6C0.1350
%
G90
G05
T1
X5.8992Y-1.6551
X5.8992Y-1.9307
X5.8997Y-1.6562
X5.8997Y-1.9318
T2
X2.196Y-3.6152
X2.196Y-2.1192
X2.196Y-2.8672
X2.607Y-3.6152
X2.607Y-2.1192
X2.607Y-2.8672
X2.944Y-3.1231
X2.944Y-1.627
X2.944Y-2.3751
X3.355Y-3.1231
X3.355Y-1.627
X3.355Y-2.3751
X3.692Y-2.9262
X3.692Y-1.4302
X3.692Y-2.1782
X3.9314Y-3.9179
X4.1031Y-2.9262
X4.1031Y-1.4302
X4.1031Y-2.1782
X4.3425Y-3.9179
X4.4401Y-1.627
X4.4401Y-2.3751
X4.4401Y-3.1231
X4.7855Y-3.9606
X4.8511Y-1.627
X4.8511Y-2.3751
X4.8511Y-3.1231
X5.1881Y-1.7255
X5.1881Y-2.4735
X5.1881Y-3.2215
X5.1903Y-4.0319
X5.5991Y-1.7255
X5.5991Y-2.4735
X5.5991Y-3.2215
X5.6212Y-4.1474
X6.0075Y-4.288
T3
X5.9613Y-2.767
X5.9613Y-2.8851
T4
X2.1849Y-3.7806
X2.1849Y-2.2845
X2.1849Y-3.0325
X2.618Y-3.7806
X2.618Y-2.2845
X2.618Y-3.0325
X2.933Y-3.2884
X2.933Y-1.7924
X2.933Y-2.5404
X3.366Y-3.2884
X3.366Y-1.7924
X3.366Y-2.5404
X3.681Y-3.0916
X3.681Y-1.5955
X3.681Y-2.3436
X3.9204Y-4.0832
X4.1141Y-3.0916
X4.1141Y-1.5955
X4.1141Y-2.3436
X4.3535Y-4.0832
X4.429Y-1.7924
X4.429Y-2.5404
X4.429Y-3.2884
X4.746Y-4.1215
X4.8621Y-1.7924
X4.8621Y-2.5404
X4.8621Y-3.2884
X5.1724Y-4.1967
X5.1771Y-1.8908
X5.1771Y-2.6388
X5.1771Y-3.3869
X5.5543Y-4.299
X5.6101Y-1.8908
X5.6101Y-2.6388
X5.6101Y-3.3869
X5.9613Y-4.4471
T5
X2.7822Y-2.2371
X2.8722Y-3.7271
X5.0222Y-2.1871
X5.4722Y-3.8471
T6
X2.4015Y-3.7806
X2.4015Y-2.2845
X2.4015Y-3.0325
X3.1495Y-3.2884
X3.1495Y-1.7924
X3.1495Y-2.5404
X3.8975Y-3.0916
X3.8975Y-1.5955
X3.8975Y-2.3436
X4.137Y-4.0832
X4.6456Y-1.7924
X4.6456Y-2.5404
X4.6456Y-3.2884
X4.9592Y-4.1591
X5.3936Y-1.8908
X5.3936Y-2.6388
X5.3936Y-3.3869
X5.7578Y-4.3731
T0
M30
