M48
; DRILL file {KiCad 7.0.8} date 2023 November 08, Wednesday 13:39:34
; FORMAT={-:-/ absolute / inch / decimal}
; #@! TF.CreationDate,2023-11-08T13:39:34-05:00
; #@! TF.GenerationSoftware,Kicad,Pcbnew,7.0.8
; #@! TF.FileFunction,Plated,1,2,PTH
FMAT,2
INCH
; #@! TA.AperFunction,Plated,PTH,ViaDrill
T1C0.0157
; #@! TA.AperFunction,Plated,PTH,ComponentDrill
T2C0.0295
; #@! TA.AperFunction,Plated,PTH,ComponentDrill
T3C0.0354
; #@! TA.AperFunction,Plated,PTH,ComponentDrill
T4C0.0394
; #@! TA.AperFunction,Plated,PTH,ComponentDrill
T5C0.0430
; #@! TA.AperFunction,Plated,PTH,ComponentDrill
T6C0.0500
%
G90
G05
T1
X2.2088Y-3.5535
X2.2088Y-3.6862
X2.2107Y-2.2003
X2.2142Y-2.0236
X2.2292Y-2.8279
X2.2407Y-2.6636
X2.2537Y-3.6646
X2.2702Y-2.2243
X2.2733Y-4.0999
X2.2817Y-2.9241
X2.2837Y-2.1841
X2.2992Y-3.6711
X2.3111Y-2.9743
X2.3297Y-2.7326
X2.3752Y-3.4021
X2.4677Y-1.9746
X2.5037Y-2.6951
X2.5057Y-1.9362
X2.5127Y-3.4391
X2.5267Y-2.2011
X2.5752Y-2.664
X2.6102Y-2.7941
X2.6497Y-2.7351
X2.6767Y-3.3901
X2.6972Y-3.5671
X2.7427Y-2.3841
X2.7427Y-2.5146
X2.7432Y-3.1326
X2.744Y-3.2631
X2.747Y-3.5712
X2.7472Y-3.8826
X2.7472Y-4.0126
X2.7824Y-4.0991
X2.8012Y-2.8446
X2.8337Y-1.7286
X2.8422Y-4.2621
X2.8422Y-4.3921
X2.8632Y-1.7966
X2.8706Y-2.4436
X2.8832Y-2.1117
X2.9222Y-2.1936
X2.9241Y-2.4416
X2.9241Y-2.9336
X2.9241Y-3.0598
X2.9347Y-1.5631
X2.9747Y-1.4443
X2.9814Y-2.1936
X2.9814Y-2.3106
X2.9814Y-2.9336
X2.9814Y-3.0596
X2.9836Y-2.3519
X2.984Y-1.6031
X3.006Y-3.811
X3.0097Y-3.2036
X3.0099Y-2.1558
X3.0417Y-1.6846
X3.0432Y-2.4336
X3.0512Y-3.2156
X3.0682Y-1.4933
X3.0847Y-2.6917
X3.145Y-2.157
X3.1822Y-4.0071
X3.1946Y-2.7003
X3.1989Y-2.9767
X3.2067Y-2.2291
X3.2249Y-1.9795
X3.2488Y-2.1326
X3.2517Y-1.9019
X3.2527Y-1.4461
X3.2532Y-2.1936
X3.2602Y-2.9336
X3.2643Y-2.883
X3.2745Y-2.4633
X3.2792Y-4.1051
X3.3322Y-1.5731
X3.3322Y-4.1971
X3.3482Y-1.4772
X3.3612Y-1.7046
X3.3787Y-2.1326
X3.3822Y-4.1971
X3.3942Y-1.4836
X3.3942Y-1.7396
X3.415Y-2.3309
X3.4194Y-3.168
X3.4412Y-1.6286
X3.4887Y-3.3886
X3.4887Y-3.5186
X3.4912Y-2.6401
X3.4912Y-2.7701
X3.5462Y-2.3259
X3.6216Y-2.6851
X3.6382Y-3.4841
X3.6667Y-3.7366
X3.6842Y-3.4316
X3.6846Y-1.384
X3.6892Y-1.2531
X3.7064Y-2.8657
X3.7127Y-1.494
X3.7382Y-2.2025
X3.7462Y-1.4696
X3.7525Y-1.8082
X3.7652Y-1.5516
X3.7714Y-1.7019
X3.7812Y-2.5602
X3.7922Y-1.4871
X3.7922Y-2.9866
X3.7937Y-2.2336
X3.7962Y-2.7962
X3.7977Y-1.7791
X3.7985Y-1.3117
X3.8001Y-2.0157
X3.8142Y-3.6506
X3.8163Y-1.5183
X3.8318Y-1.9331
X3.8438Y-2.6851
X3.8692Y-3.9121
X3.8989Y-3.1889
X3.9052Y-3.8145
X3.9269Y-3.7366
X3.9617Y-1.9331
X3.9632Y-1.9966
X3.9737Y-2.6851
X3.9891Y-1.7125
X3.9972Y-1.2546
X4.0042Y-2.7651
X4.0111Y-1.509
X4.0123Y-1.6464
X4.0237Y-3.9736
X4.0452Y-3.7677
X4.0533Y-1.4849
X4.0536Y-1.8834
X4.0643Y-2.898
X4.0862Y-2.0606
X4.1001Y-1.4838
X4.1033Y-4.4141
X4.1099Y-2.131
X4.1304Y-1.8582
X4.1342Y-1.2591
X4.1521Y-2.0267
X4.2332Y-4.4141
X4.2399Y-3.548
X4.2422Y-3.1916
X4.2422Y-3.3216
X4.2422Y-3.7366
X4.2492Y-2.8286
X4.2627Y-1.5275
X4.2627Y-1.7255
X4.2955Y-2.7863
X4.3172Y-2.9271
X4.3174Y-2.5468
X4.3277Y-3.0036
X4.3332Y-1.5101
X4.347Y-1.5779
X4.3492Y-1.7346
X4.3513Y-2.0621
X4.3575Y-1.9297
X4.3717Y-3.7021
X4.3722Y-2.9511
X4.4269Y-2.2558
X4.4582Y-1.5321
X4.4597Y-1.4466
X4.4637Y-2.9486
X4.4643Y-1.581
X4.4647Y-3.0295
X4.4679Y-2.2051
X4.4679Y-2.3126
X4.48Y-2.398
X4.4934Y-1.8413
X4.5155Y-2.0814
X4.5217Y-3.1841
X4.5312Y-2.7295
X4.5362Y-1.6826
X4.5402Y-2.4311
X4.5577Y-1.4777
X4.5659Y-1.9641
X4.6473Y-3.3846
X4.6989Y-1.9645
X4.7022Y-2.2362
X4.7072Y-2.7035
X4.7087Y-2.9841
X4.7467Y-1.4471
X4.7492Y-2.2051
X4.7537Y-2.9486
X4.7784Y-3.7366
X4.7822Y-3.8482
X4.8322Y-2.9175
X4.8617Y-4.0491
X4.8832Y-3.7041
X4.8907Y-3.1981
X4.9026Y-3.8082
X4.9892Y-1.9236
X4.9892Y-2.0536
X4.9897Y-3.3896
X4.9897Y-3.5196
X4.9907Y-3.6826
X4.9922Y-2.6436
X4.9922Y-2.7736
X5.0808Y-3.1165
X5.0812Y-3.1981
X5.1096Y-2.5649
X5.1177Y-3.6746
X5.1402Y-3.7866
X5.1462Y-2.4377
X5.1489Y-2.3629
X5.1662Y-1.5445
X5.1922Y-1.6421
X5.1937Y-3.1672
X5.1979Y-2.3251
X5.1979Y-2.4081
X5.202Y-3.6724
X5.2162Y-3.8706
X5.2351Y-2.3629
X5.2395Y-3.1129
X5.2512Y-4.4406
X5.2652Y-1.7816
X5.2667Y-3.2776
X5.2735Y-4.3126
X5.2887Y-2.5276
X5.3328Y-2.2336
X5.3338Y-2.9801
X5.3448Y-3.7281
X5.3752Y-2.0296
X5.4151Y-2.7594
X5.4622Y-1.5445
X5.4627Y-2.2336
X5.4637Y-2.9801
X5.4718Y-2.7972
X5.4747Y-3.7281
X5.4757Y-2.0684
X5.4777Y-2.3251
X5.4977Y-3.0606
X5.5261Y-1.9767
X5.5485Y-1.8145
X5.5548Y-1.8653
X5.5842Y-1.5776
X5.6212Y-4.6624
X5.6218Y-2.4157
X5.6317Y-3.6726
X5.6327Y-3.1726
X5.6502Y-2.1651
X5.6615Y-1.6515
X5.6627Y-4.2376
X5.6657Y-3.9511
X5.6682Y-4.0821
X5.6747Y-3.0606
X5.6887Y-1.8281
X5.6937Y-1.9951
X5.6982Y-2.3451
X5.6989Y-2.0527
X5.7001Y-1.7606
X5.7363Y-1.9452
X5.7382Y-1.5531
X5.7433Y-4.7068
X5.8202Y-1.6191
X5.8685Y-2.6866
X5.8713Y-3.4071
X5.9082Y-3.5606
X5.9112Y-3.7111
X5.9432Y-3.4071
X5.9547Y-3.9511
X5.9665Y-2.8266
X5.9947Y-3.9811
T2
X5.9247Y-3.1024
X5.9247Y-3.1811
X5.9247Y-3.2598
T4
X3.0016Y-4.0037
X3.0016Y-4.2005
X3.1738Y-3.8115
X3.1738Y-4.3824
X3.2722Y-4.3824
X3.3707Y-3.8115
X3.3707Y-4.3824
X3.5725Y-4.0037
X3.5725Y-4.1021
X3.5725Y-4.2005
T5
X3.5972Y-1.3771
X3.5972Y-1.4771
X3.5972Y-1.5771
X3.5972Y-1.6771
X3.5972Y-1.7771
X3.5972Y-1.8771
X3.5972Y-1.9771
X3.5972Y-2.0771
X3.5972Y-2.1771
X3.5972Y-2.2771
X3.5972Y-2.3771
X3.5972Y-2.4771
X4.1972Y-1.3771
X4.1972Y-1.4771
X4.1972Y-1.5771
X4.1972Y-1.6771
X4.1972Y-1.7771
X4.1972Y-1.8771
X4.1972Y-1.9771
X4.1972Y-2.0771
X4.1972Y-2.1771
X4.1972Y-2.2771
X4.1972Y-2.3771
X4.1972Y-2.4771
T6
X2.2046Y-3.9302
X2.2046Y-2.4341
X2.2046Y-3.1821
X2.4015Y-4.0129
X2.4015Y-2.5168
X2.4015Y-3.2648
X2.5983Y-3.9302
X2.5983Y-2.4341
X2.5983Y-3.1821
X2.9527Y-3.4381
X2.9527Y-1.942
X2.9527Y-2.69
X3.1495Y-3.5207
X3.1495Y-2.0247
X3.1495Y-2.7727
X3.3464Y-3.4381
X3.3464Y-1.942
X3.3464Y-2.69
X3.7007Y-3.2412
X3.7007Y-1.7451
X3.7007Y-2.4932
X3.8975Y-3.3239
X3.8975Y-1.8278
X3.8975Y-2.5758
X3.9401Y-4.2329
X4.0944Y-3.2412
X4.0944Y-1.7451
X4.0944Y-2.4932
X4.137Y-4.3155
X4.3338Y-4.2329
X4.4487Y-1.942
X4.4487Y-2.69
X4.4487Y-3.4381
X4.6456Y-2.0247
X4.6456Y-2.7727
X4.6456Y-3.5207
X4.7394Y-4.2722
X4.8424Y-1.942
X4.8424Y-2.69
X4.8424Y-3.4381
X4.9189Y-4.3878
X5.1271Y-4.3406
X5.1968Y-2.0404
X5.1968Y-2.7884
X5.1968Y-3.5365
X5.3936Y-2.1231
X5.3936Y-2.8711
X5.3936Y-3.6192
X5.5217Y-4.4463
X5.5905Y-2.0404
X5.5905Y-2.7884
X5.5905Y-3.5365
X5.6784Y-4.5913
X5.8916Y-4.581
T3
G00X5.8087Y-2.0291
M15
G01X5.8087Y-2.0449
M16
G05
G00X5.8091Y-1.7271
M15
G01X5.8091Y-1.7113
M16
G05
G00X5.8091Y-1.8452
M15
G01X5.8091Y-1.8294
M16
G05
G00X5.8091Y-2.0027
M15
G01X5.8091Y-1.9869
M16
G05
G00X5.9898Y-1.7102
M15
G01X5.9898Y-1.726
M16
G05
G00X5.9898Y-1.8283
M15
G01X5.9898Y-1.8441
M16
G05
G00X5.9898Y-1.9858
M15
G01X5.9898Y-2.0016
M16
G05
G00X5.9902Y-2.046
M15
G01X5.9902Y-2.0302
M16
G05
T4
G00X5.9841Y-2.1881
M15
G01X5.9644Y-2.1881
M16
G05
G00X5.9644Y-2.2881
M15
G01X5.9841Y-2.2881
M16
G05
G00X5.9644Y-2.3881
M15
G01X5.9841Y-2.3881
M16
G05
G00X5.9644Y-2.4881
M15
G01X5.9841Y-2.4881
M16
G05
G00X5.9644Y-2.5881
M15
G01X5.9841Y-2.5881
M16
G05
T0
M30
